G75*
%MOIN*%
%OFA0B0*%
%FSLAX24Y24*%
%IPPOS*%
%LPD*%
%AMOC8*
5,1,8,0,0,1.08239X$1,22.5*
%
%ADD10C,0.0160*%
%ADD11C,0.0540*%
%ADD12OC8,0.0540*%
%ADD13R,0.0312X0.0004*%
%ADD14R,0.0344X0.0004*%
%ADD15R,0.0368X0.0004*%
%ADD16R,0.0392X0.0004*%
%ADD17R,0.0408X0.0004*%
%ADD18R,0.0424X0.0004*%
%ADD19R,0.0432X0.0004*%
%ADD20R,0.0448X0.0004*%
%ADD21R,0.0456X0.0004*%
%ADD22R,0.0472X0.0004*%
%ADD23R,0.0480X0.0004*%
%ADD24R,0.0488X0.0004*%
%ADD25R,0.0496X0.0004*%
%ADD26R,0.0504X0.0004*%
%ADD27R,0.0512X0.0004*%
%ADD28R,0.0520X0.0004*%
%ADD29R,0.0528X0.0004*%
%ADD30R,0.0536X0.0004*%
%ADD31R,0.0536X0.0004*%
%ADD32R,0.0544X0.0004*%
%ADD33R,0.0552X0.0004*%
%ADD34R,0.0560X0.0004*%
%ADD35R,0.0560X0.0004*%
%ADD36R,0.0568X0.0004*%
%ADD37R,0.0576X0.0004*%
%ADD38R,0.0584X0.0004*%
%ADD39R,0.0592X0.0004*%
%ADD40R,0.0592X0.0004*%
%ADD41R,0.0600X0.0004*%
%ADD42R,0.0608X0.0004*%
%ADD43R,0.0608X0.0004*%
%ADD44R,0.0616X0.0004*%
%ADD45R,0.0624X0.0004*%
%ADD46R,0.0632X0.0004*%
%ADD47R,0.0632X0.0004*%
%ADD48R,0.0640X0.0004*%
%ADD49R,0.0648X0.0004*%
%ADD50R,0.0648X0.0004*%
%ADD51R,0.0656X0.0004*%
%ADD52R,0.0664X0.0004*%
%ADD53R,0.0664X0.0004*%
%ADD54R,0.0672X0.0004*%
%ADD55R,0.0680X0.0004*%
%ADD56R,0.0680X0.0004*%
%ADD57R,0.0688X0.0004*%
%ADD58R,0.0696X0.0004*%
%ADD59R,0.0700X0.0004*%
%ADD60R,0.0708X0.0004*%
%ADD61R,0.0716X0.0004*%
%ADD62R,0.0720X0.0004*%
%ADD63R,0.0720X0.0004*%
%ADD64R,0.0724X0.0004*%
%ADD65R,0.0808X0.0004*%
%ADD66R,0.0824X0.0004*%
%ADD67R,0.0832X0.0004*%
%ADD68R,0.0840X0.0004*%
%ADD69R,0.0848X0.0004*%
%ADD70R,0.0856X0.0004*%
%ADD71R,0.0860X0.0004*%
%ADD72R,0.0864X0.0004*%
%ADD73R,0.0864X0.0004*%
%ADD74R,0.0868X0.0004*%
%ADD75R,0.0872X0.0004*%
%ADD76R,0.0872X0.0004*%
%ADD77R,0.0860X0.0004*%
%ADD78R,0.0832X0.0004*%
%ADD79R,0.0824X0.0004*%
%ADD80R,0.0708X0.0004*%
%ADD81R,0.0712X0.0004*%
%ADD82R,0.0712X0.0004*%
%ADD83R,0.0700X0.0004*%
%ADD84R,0.0696X0.0004*%
%ADD85R,0.0692X0.0004*%
%ADD86R,0.0668X0.0004*%
%ADD87R,0.0660X0.0004*%
%ADD88R,0.0452X0.0004*%
%ADD89R,0.0188X0.0004*%
%ADD90R,0.0448X0.0004*%
%ADD91R,0.0440X0.0004*%
%ADD92R,0.0184X0.0004*%
%ADD93R,0.0432X0.0004*%
%ADD94R,0.0184X0.0004*%
%ADD95R,0.0424X0.0004*%
%ADD96R,0.0412X0.0004*%
%ADD97R,0.0128X0.0004*%
%ADD98R,0.0044X0.0004*%
%ADD99R,0.0400X0.0004*%
%ADD100R,0.0008X0.0004*%
%ADD101R,0.0388X0.0004*%
%ADD102R,0.0132X0.0004*%
%ADD103R,0.0360X0.0004*%
%ADD104R,0.0136X0.0004*%
%ADD105R,0.0340X0.0004*%
%ADD106R,0.0140X0.0004*%
%ADD107R,0.0328X0.0004*%
%ADD108R,0.0144X0.0004*%
%ADD109R,0.0324X0.0004*%
%ADD110R,0.0148X0.0004*%
%ADD111R,0.0320X0.0004*%
%ADD112R,0.0156X0.0004*%
%ADD113R,0.0316X0.0004*%
%ADD114R,0.0176X0.0004*%
%ADD115R,0.0080X0.0004*%
%ADD116R,0.0052X0.0004*%
%ADD117R,0.0380X0.0004*%
%ADD118R,0.0372X0.0004*%
%ADD119R,0.0356X0.0004*%
%ADD120R,0.0004X0.0004*%
%ADD121R,0.0308X0.0004*%
%ADD122R,0.0060X0.0004*%
%ADD123R,0.0240X0.0004*%
%ADD124R,0.0232X0.0004*%
%ADD125R,0.0044X0.0004*%
%ADD126R,0.0164X0.0004*%
%ADD127R,0.0056X0.0004*%
%ADD128R,0.0036X0.0004*%
%ADD129R,0.0156X0.0004*%
%ADD130R,0.0048X0.0004*%
%ADD131R,0.0024X0.0004*%
%ADD132R,0.0036X0.0004*%
%ADD133R,0.0016X0.0004*%
%ADD134R,0.0028X0.0004*%
%ADD135R,0.0012X0.0004*%
%ADD136R,0.0124X0.0004*%
%ADD137R,0.0108X0.0004*%
%ADD138R,0.0008X0.0004*%
%ADD139R,0.0092X0.0004*%
%ADD140R,0.0068X0.0004*%
%ADD141R,0.0008X0.0004*%
%ADD142R,0.0016X0.0004*%
%ADD143R,0.0024X0.0004*%
%ADD144R,0.0032X0.0004*%
%ADD145R,0.0032X0.0004*%
%ADD146R,0.0040X0.0004*%
%ADD147R,0.0056X0.0004*%
%ADD148R,0.0064X0.0004*%
%ADD149R,0.0072X0.0004*%
%ADD150R,0.0088X0.0004*%
%ADD151R,0.0096X0.0004*%
%ADD152R,0.0104X0.0004*%
%ADD153R,0.0112X0.0004*%
%ADD154R,0.0120X0.0004*%
%ADD155R,0.0124X0.0004*%
%ADD156R,0.0128X0.0004*%
%ADD157R,0.0144X0.0004*%
%ADD158R,0.0152X0.0004*%
%ADD159R,0.0152X0.0004*%
%ADD160R,0.0160X0.0004*%
%ADD161R,0.0168X0.0004*%
%ADD162R,0.0176X0.0004*%
%ADD163R,0.0184X0.0004*%
%ADD164R,0.0192X0.0004*%
%ADD165R,0.0200X0.0004*%
%ADD166R,0.0208X0.0004*%
%ADD167R,0.0216X0.0004*%
%ADD168R,0.0216X0.0004*%
%ADD169R,0.0224X0.0004*%
%ADD170R,0.0232X0.0004*%
%ADD171R,0.0240X0.0004*%
%ADD172R,0.0248X0.0004*%
%ADD173R,0.0256X0.0004*%
%ADD174R,0.0264X0.0004*%
%ADD175R,0.0272X0.0004*%
%ADD176R,0.0280X0.0004*%
%ADD177R,0.0288X0.0004*%
%ADD178R,0.0296X0.0004*%
%ADD179R,0.0304X0.0004*%
%ADD180R,0.0320X0.0004*%
%ADD181R,0.0328X0.0004*%
%ADD182R,0.0336X0.0004*%
%ADD183R,0.0336X0.0004*%
%ADD184R,0.0200X0.0004*%
%ADD185R,0.0128X0.0004*%
%ADD186R,0.0204X0.0004*%
%ADD187R,0.0216X0.0004*%
%ADD188R,0.0228X0.0004*%
%ADD189R,0.0416X0.0004*%
%ADD190R,0.0424X0.0004*%
%ADD191R,0.0428X0.0004*%
%ADD192R,0.0304X0.0004*%
%ADD193R,0.0180X0.0004*%
%ADD194R,0.0112X0.0004*%
%ADD195R,0.0176X0.0004*%
%ADD196R,0.0112X0.0004*%
%ADD197R,0.0132X0.0004*%
%ADD198R,0.0116X0.0004*%
%ADD199R,0.0332X0.0004*%
%ADD200R,0.0336X0.0004*%
%ADD201R,0.0480X0.0004*%
%ADD202R,0.0496X0.0004*%
%ADD203R,0.0512X0.0004*%
%ADD204R,0.0544X0.0004*%
%ADD205R,0.0208X0.0004*%
%ADD206R,0.0356X0.0004*%
%ADD207R,0.0208X0.0004*%
%ADD208R,0.0364X0.0004*%
%ADD209R,0.0212X0.0004*%
%ADD210R,0.0368X0.0004*%
%ADD211R,0.0220X0.0004*%
%ADD212R,0.0600X0.0004*%
%ADD213R,0.0356X0.0004*%
%ADD214R,0.0228X0.0004*%
%ADD215R,0.0236X0.0004*%
%ADD216R,0.0360X0.0004*%
%ADD217R,0.0368X0.0004*%
%ADD218R,0.0244X0.0004*%
%ADD219R,0.0252X0.0004*%
%ADD220R,0.0376X0.0004*%
%ADD221R,0.0672X0.0004*%
%ADD222R,0.0624X0.0004*%
%ADD223R,0.0596X0.0004*%
%ADD224R,0.0552X0.0004*%
%ADD225R,0.0456X0.0004*%
%ADD226R,0.0384X0.0004*%
%ADD227R,0.0352X0.0004*%
%ADD228R,0.0188X0.0004*%
%ADD229R,0.0108X0.0004*%
%ADD230R,0.0138X0.0591*%
%ADD231C,0.0000*%
%ADD232OC8,0.1250*%
%ADD233C,0.0472*%
%ADD234C,0.0540*%
%ADD235R,0.0591X0.0512*%
%ADD236R,0.0512X0.0591*%
%ADD237R,0.0394X0.0236*%
%ADD238R,0.0236X0.0236*%
%ADD239R,0.0236X0.0394*%
%ADD240R,0.0236X0.0236*%
%ADD241R,0.0460X0.0630*%
%ADD242C,0.0531*%
%ADD243C,0.0886*%
%ADD244C,0.0320*%
%ADD245C,0.0376*%
%ADD246C,0.0100*%
%ADD247C,0.0240*%
D10*
X001046Y004003D02*
X017188Y004003D01*
X017188Y023688D01*
X001046Y023688D01*
X001046Y004003D01*
X001366Y005006D02*
X001467Y005048D01*
X001405Y005048D01*
X001366Y005088D01*
X001366Y005006D01*
X001766Y005048D02*
X001828Y005048D01*
X002117Y005337D01*
X002395Y005058D01*
X002107Y004769D01*
X002107Y004708D01*
X002049Y004847D01*
X001906Y004990D01*
X001766Y005048D01*
X001892Y005112D02*
X002341Y005112D01*
X002291Y004954D02*
X001942Y004954D01*
X002070Y004795D02*
X002133Y004795D01*
X002107Y004408D02*
X002107Y004347D01*
X002131Y004323D01*
X002071Y004323D01*
X002107Y004408D01*
X002051Y005271D02*
X002183Y005271D01*
X002117Y005779D02*
X002395Y006058D01*
X002117Y006337D01*
X001838Y006058D01*
X002117Y005779D01*
X002242Y005905D02*
X001991Y005905D01*
X001843Y006063D02*
X002390Y006063D01*
X002232Y006222D02*
X002002Y006222D01*
X002117Y006779D02*
X002395Y007058D01*
X002117Y007337D01*
X001838Y007058D01*
X002117Y006779D01*
X002040Y006856D02*
X002193Y006856D01*
X002352Y007014D02*
X001882Y007014D01*
X001953Y007173D02*
X002281Y007173D01*
X002122Y007331D02*
X002111Y007331D01*
X002117Y007779D02*
X002395Y008058D01*
X002117Y008337D01*
X001838Y008058D01*
X002117Y007779D01*
X002144Y007807D02*
X002089Y007807D01*
X001931Y007965D02*
X002303Y007965D01*
X002330Y008124D02*
X001904Y008124D01*
X002062Y008282D02*
X002171Y008282D01*
X002117Y008779D02*
X002395Y009058D01*
X002117Y009337D01*
X001838Y009058D01*
X002117Y008779D01*
X001980Y008916D02*
X002254Y008916D01*
X002379Y009075D02*
X001855Y009075D01*
X002013Y009233D02*
X002220Y009233D01*
X002117Y009779D02*
X002395Y010058D01*
X002117Y010337D01*
X001838Y010058D01*
X002117Y009779D01*
X002029Y009867D02*
X002205Y009867D01*
X002363Y010026D02*
X001870Y010026D01*
X001964Y010184D02*
X002269Y010184D01*
X002117Y010779D02*
X002395Y011058D01*
X002117Y011337D01*
X001838Y011058D01*
X002117Y010779D01*
X002078Y010818D02*
X002156Y010818D01*
X002314Y010977D02*
X001919Y010977D01*
X001915Y011135D02*
X002318Y011135D01*
X002160Y011294D02*
X002074Y011294D01*
X002117Y011779D02*
X002395Y012058D01*
X002117Y012337D01*
X001838Y012058D01*
X002117Y011779D01*
X001968Y011928D02*
X002265Y011928D01*
X002367Y012086D02*
X001866Y012086D01*
X002025Y012245D02*
X002209Y012245D01*
X002117Y012779D02*
X002395Y013058D01*
X002117Y013337D01*
X001838Y013058D01*
X002117Y012779D01*
X002216Y012879D02*
X002017Y012879D01*
X001859Y013037D02*
X002375Y013037D01*
X002258Y013196D02*
X001976Y013196D01*
X001395Y013058D02*
X001366Y013028D01*
X001366Y013088D01*
X001395Y013058D01*
X001375Y013037D02*
X001366Y013037D01*
X001366Y012088D02*
X001395Y012058D01*
X001366Y012028D01*
X001366Y012088D01*
X001366Y012086D02*
X001367Y012086D01*
X001366Y011088D02*
X001395Y011058D01*
X001366Y011028D01*
X001366Y011088D01*
X001366Y010088D02*
X001395Y010058D01*
X001366Y010028D01*
X001366Y010088D01*
X001366Y009088D02*
X001395Y009058D01*
X001366Y009028D01*
X001366Y009088D01*
X001366Y009075D02*
X001379Y009075D01*
X001366Y008088D02*
X001395Y008058D01*
X001366Y008028D01*
X001366Y008088D01*
X001366Y007088D02*
X001395Y007058D01*
X001366Y007028D01*
X001366Y007088D01*
X001366Y006088D02*
X001395Y006058D01*
X001366Y006028D01*
X001366Y006088D01*
X001366Y006063D02*
X001390Y006063D01*
X002838Y006058D02*
X003127Y006347D01*
X003127Y006769D01*
X002838Y007058D01*
X002952Y007172D01*
X002998Y007061D01*
X003190Y006869D01*
X003441Y006765D01*
X003713Y006765D01*
X003945Y006861D01*
X003945Y006063D01*
X003989Y005957D01*
X004071Y005875D01*
X004142Y005803D01*
X004142Y005666D01*
X004219Y005480D01*
X004362Y005338D01*
X004376Y005332D01*
X004358Y005319D01*
X004308Y005270D01*
X004267Y005213D01*
X004235Y005150D01*
X004213Y005084D01*
X004202Y005014D01*
X004202Y004988D01*
X004640Y004988D01*
X004640Y004971D01*
X004657Y004971D01*
X004657Y004988D01*
X005094Y004988D01*
X005094Y005014D01*
X005083Y005084D01*
X005061Y005150D01*
X005029Y005213D01*
X004988Y005270D01*
X004939Y005319D01*
X004921Y005332D01*
X004935Y005338D01*
X005077Y005480D01*
X005154Y005666D01*
X005154Y005867D01*
X005077Y006053D01*
X004970Y006160D01*
X005077Y006268D01*
X005154Y006454D01*
X005154Y006650D01*
X005307Y006803D01*
X005334Y006868D01*
X005583Y006765D01*
X005855Y006765D01*
X006106Y006869D01*
X006125Y006888D01*
X006143Y006869D01*
X006394Y006765D01*
X006666Y006765D01*
X006858Y006845D01*
X006858Y006103D01*
X006902Y005996D01*
X007095Y005803D01*
X007095Y005666D01*
X007172Y005480D01*
X007314Y005338D01*
X007328Y005332D01*
X007311Y005319D01*
X007261Y005270D01*
X007220Y005213D01*
X007188Y005150D01*
X007166Y005084D01*
X007155Y005014D01*
X007155Y004988D01*
X007592Y004988D01*
X007592Y004971D01*
X007155Y004971D01*
X007155Y004967D01*
X007109Y005079D01*
X006917Y005271D01*
X006666Y005375D01*
X006394Y005375D01*
X006143Y005271D01*
X006125Y005252D01*
X006106Y005271D01*
X005855Y005375D01*
X005583Y005375D01*
X005332Y005271D01*
X005140Y005079D01*
X005094Y004967D01*
X005094Y004971D01*
X004657Y004971D01*
X004657Y004534D01*
X004683Y004534D01*
X004753Y004545D01*
X004819Y004566D01*
X004882Y004598D01*
X004939Y004639D01*
X004988Y004689D01*
X005029Y004746D01*
X005036Y004759D01*
X005036Y004556D01*
X005133Y004323D01*
X004164Y004323D01*
X004260Y004556D01*
X004260Y004759D01*
X004267Y004746D01*
X004308Y004689D01*
X004358Y004639D01*
X004415Y004598D01*
X004477Y004566D01*
X004544Y004545D01*
X004613Y004534D01*
X004640Y004534D01*
X004640Y004971D01*
X004202Y004971D01*
X004202Y004967D01*
X004156Y005079D01*
X003964Y005271D01*
X004309Y005271D01*
X004270Y005429D02*
X003127Y005429D01*
X003127Y005347D02*
X003127Y005769D01*
X002838Y006058D01*
X002843Y006063D02*
X003945Y006063D01*
X003945Y006222D02*
X003002Y006222D01*
X003127Y006380D02*
X003945Y006380D01*
X003945Y006539D02*
X003127Y006539D01*
X003127Y006697D02*
X003945Y006697D01*
X003933Y006856D02*
X003945Y006856D01*
X003222Y006856D02*
X003040Y006856D01*
X003045Y007014D02*
X002882Y007014D01*
X003030Y007866D02*
X002838Y008058D01*
X003127Y008347D01*
X003127Y008769D01*
X002838Y009058D01*
X003127Y009347D01*
X003127Y009769D01*
X002838Y010058D01*
X003127Y010347D01*
X003127Y010769D01*
X002838Y011058D01*
X003127Y011347D01*
X003127Y011769D01*
X002838Y012058D01*
X003127Y012347D01*
X003127Y012769D01*
X002838Y013058D01*
X003127Y013347D01*
X003127Y013769D01*
X002838Y014058D01*
X003127Y014347D01*
X003127Y014769D01*
X002838Y015058D01*
X003127Y015347D01*
X003127Y015769D01*
X002828Y016068D01*
X002405Y016068D01*
X002117Y015779D01*
X001838Y016058D01*
X002127Y016347D01*
X002127Y016769D01*
X001838Y017058D01*
X002117Y017337D01*
X002405Y017048D01*
X002828Y017048D01*
X003127Y017347D01*
X003127Y017769D01*
X002838Y018058D01*
X003127Y018347D01*
X003127Y018769D01*
X002838Y019058D01*
X003127Y019347D01*
X003127Y019769D01*
X002828Y020068D01*
X002405Y020068D01*
X002117Y019779D01*
X001838Y020058D01*
X002127Y020347D01*
X002127Y020769D01*
X001828Y021068D01*
X001405Y021068D01*
X001366Y021028D01*
X001366Y021173D01*
X001430Y021108D01*
X001607Y021108D01*
X001607Y021548D01*
X001627Y021548D01*
X001627Y021568D01*
X002067Y021568D01*
X002067Y021744D01*
X001803Y022008D01*
X001627Y022008D01*
X001627Y021568D01*
X001607Y021568D01*
X001607Y022008D01*
X001430Y022008D01*
X001366Y021944D01*
X001366Y023368D01*
X003838Y023368D01*
X003806Y023323D01*
X003776Y023265D01*
X003756Y023203D01*
X003745Y023138D01*
X003745Y022869D01*
X003745Y022600D01*
X003756Y022535D01*
X003776Y022473D01*
X003806Y022415D01*
X003844Y022362D01*
X003890Y022315D01*
X003943Y022277D01*
X004002Y022247D01*
X004064Y022227D01*
X004129Y022217D01*
X004162Y022217D01*
X004194Y022217D01*
X004259Y022227D01*
X004321Y022247D01*
X004380Y022277D01*
X004433Y022315D01*
X004479Y022362D01*
X004518Y022415D01*
X004547Y022473D01*
X004568Y022535D01*
X004578Y022600D01*
X004578Y022869D01*
X004162Y022869D01*
X004162Y022869D01*
X004578Y022869D01*
X004578Y023138D01*
X004568Y023203D01*
X004547Y023265D01*
X004518Y023323D01*
X004485Y023368D01*
X008955Y023368D01*
X008885Y023200D01*
X008885Y022959D01*
X008794Y022868D01*
X005139Y022868D01*
X004992Y022807D01*
X004481Y022295D01*
X004368Y022182D01*
X004341Y022117D01*
X003829Y022117D01*
X003741Y022080D01*
X003674Y022013D01*
X003637Y021925D01*
X003637Y021918D01*
X002978Y021918D01*
X002828Y022068D01*
X002405Y022068D01*
X002107Y021769D01*
X002107Y021347D01*
X002405Y021048D01*
X002828Y021048D01*
X002978Y021198D01*
X003638Y021198D01*
X003674Y021111D01*
X003717Y021068D01*
X003717Y020860D01*
X003772Y020728D01*
X003873Y020627D01*
X003873Y020627D01*
X003873Y020176D01*
X003910Y020087D01*
X003977Y020020D01*
X004066Y019983D01*
X004583Y019983D01*
X004583Y017672D01*
X004633Y017551D01*
X004633Y017540D01*
X004699Y017382D01*
X004819Y017262D01*
X004976Y017197D01*
X005147Y017197D01*
X005304Y017262D01*
X005424Y017382D01*
X005490Y017540D01*
X005490Y017710D01*
X005424Y017868D01*
X005304Y017988D01*
X005303Y017988D01*
X005303Y018767D01*
X005312Y018788D01*
X005312Y018903D01*
X005303Y018924D01*
X005303Y019983D01*
X005821Y019983D01*
X005909Y020020D01*
X005977Y020087D01*
X006013Y020176D01*
X006013Y020556D01*
X006188Y020730D01*
X009579Y020730D01*
X009622Y020687D01*
X009780Y020622D01*
X009950Y020622D01*
X010107Y020687D01*
X010228Y020808D01*
X010293Y020965D01*
X010293Y021135D01*
X010228Y021293D01*
X010107Y021413D01*
X009950Y021478D01*
X009780Y021478D01*
X009622Y021413D01*
X009579Y021370D01*
X007901Y021370D01*
X007994Y021464D01*
X008058Y021617D01*
X008058Y021783D01*
X007994Y021936D01*
X007877Y022053D01*
X007843Y022068D01*
X009040Y022068D01*
X009187Y022128D01*
X009230Y022172D01*
X009267Y022157D01*
X009456Y022157D01*
X009631Y022229D01*
X009765Y022363D01*
X009838Y022538D01*
X009838Y023200D01*
X009768Y023368D01*
X015394Y023368D01*
X015361Y023289D01*
X015361Y023185D01*
X015397Y023097D01*
X015403Y023092D01*
X015405Y023085D01*
X015415Y023076D01*
X015417Y023069D01*
X015421Y023065D01*
X015421Y023065D01*
X015427Y023060D01*
X015429Y023053D01*
X015437Y023045D01*
X015439Y023044D01*
X015441Y023037D01*
X015451Y023028D01*
X015453Y023021D01*
X015463Y023012D01*
X015465Y023005D01*
X015475Y022996D01*
X015477Y022989D01*
X015481Y022985D01*
X015487Y022980D01*
X015489Y022973D01*
X015497Y022965D01*
X015499Y022964D01*
X015501Y022957D01*
X015507Y022952D01*
X015509Y022945D01*
X015523Y022932D01*
X015525Y022925D01*
X015531Y022920D01*
X015533Y022913D01*
X015541Y022905D01*
X015543Y022904D01*
X015545Y022897D01*
X015555Y022888D01*
X015556Y022884D01*
X015537Y022876D01*
X015536Y022875D01*
X015529Y022872D01*
X015528Y022871D01*
X015521Y022868D01*
X015520Y022867D01*
X015513Y022864D01*
X015508Y022859D01*
X015501Y022856D01*
X015493Y022848D01*
X015425Y022781D01*
X015421Y022777D01*
X015417Y022773D01*
X015413Y022769D01*
X015411Y022762D01*
X015409Y022761D01*
X015405Y022757D01*
X015403Y022750D01*
X015401Y022749D01*
X015399Y022742D01*
X015397Y022741D01*
X015392Y022727D01*
X015325Y022661D01*
X015313Y022649D01*
X015309Y022645D01*
X015307Y022638D01*
X015305Y022637D01*
X015269Y022549D01*
X015269Y022546D01*
X015265Y022537D01*
X015265Y022429D01*
X015269Y022420D01*
X015269Y022413D01*
X015305Y022325D01*
X015307Y022324D01*
X015309Y022317D01*
X015321Y022305D01*
X015389Y022237D01*
X015393Y022233D01*
X015400Y022231D01*
X015401Y022229D01*
X015402Y022228D01*
X015413Y022201D01*
X015415Y022200D01*
X015417Y022193D01*
X015419Y022192D01*
X015421Y022185D01*
X015423Y022184D01*
X015425Y022177D01*
X015427Y022176D01*
X015429Y022169D01*
X015431Y022168D01*
X015433Y022161D01*
X015435Y022160D01*
X015437Y022153D01*
X015439Y022152D01*
X015441Y022145D01*
X015447Y022140D01*
X015449Y022133D01*
X015455Y022128D01*
X015457Y022121D01*
X015467Y022112D01*
X015469Y022105D01*
X015489Y022085D01*
X015557Y022017D01*
X015561Y022013D01*
X015565Y022009D01*
X015566Y022008D01*
X015430Y022008D01*
X015167Y021744D01*
X015167Y021568D01*
X015607Y021568D01*
X015607Y021548D01*
X015627Y021548D01*
X015627Y021568D01*
X016067Y021568D01*
X016067Y021744D01*
X015878Y021933D01*
X016145Y021933D01*
X016154Y021937D01*
X016161Y021937D01*
X016170Y021941D01*
X016173Y021941D01*
X016182Y021945D01*
X016185Y021945D01*
X016273Y021981D01*
X016274Y021983D01*
X016281Y021985D01*
X016282Y021987D01*
X016289Y021989D01*
X016293Y021993D01*
X016294Y021995D01*
X016301Y021997D01*
X016306Y022003D01*
X016313Y022005D01*
X016317Y022009D01*
X016321Y022013D01*
X016325Y022017D01*
X016392Y022085D01*
X016412Y022105D01*
X016415Y022112D01*
X016424Y022121D01*
X016427Y022128D01*
X016432Y022133D01*
X016435Y022140D01*
X016440Y022145D01*
X016443Y022152D01*
X016444Y022153D01*
X016447Y022160D01*
X016448Y022161D01*
X016451Y022168D01*
X016452Y022169D01*
X016455Y022176D01*
X016456Y022177D01*
X016459Y022184D01*
X016460Y022185D01*
X016463Y022192D01*
X016464Y022193D01*
X016467Y022200D01*
X016468Y022201D01*
X016480Y022228D01*
X016480Y022229D01*
X016480Y022229D01*
X016481Y022229D01*
X016482Y022231D01*
X016489Y022233D01*
X016493Y022237D01*
X016509Y022253D01*
X016576Y022321D01*
X016613Y022409D01*
X016613Y022412D01*
X016617Y022421D01*
X016617Y022429D01*
X016617Y022429D01*
X016617Y022537D01*
X016617Y022541D01*
X016613Y022550D01*
X016613Y022553D01*
X016576Y022641D01*
X016509Y022708D01*
X016509Y022708D01*
X016489Y022728D01*
X016489Y022728D01*
X016481Y022736D01*
X016464Y022777D01*
X016397Y022844D01*
X016320Y022876D01*
X016324Y022881D01*
X016327Y022888D01*
X016336Y022897D01*
X016339Y022904D01*
X016348Y022913D01*
X016351Y022920D01*
X016356Y022925D01*
X016356Y022925D01*
X016360Y022929D01*
X016363Y022936D01*
X016372Y022945D01*
X016375Y022952D01*
X016380Y022957D01*
X016383Y022964D01*
X016384Y022965D01*
X016392Y022973D01*
X016395Y022980D01*
X016400Y022985D01*
X016404Y022989D01*
X016407Y022996D01*
X016416Y023005D01*
X016419Y023012D01*
X016428Y023021D01*
X016431Y023028D01*
X016440Y023037D01*
X016443Y023044D01*
X016444Y023045D01*
X016452Y023053D01*
X016455Y023060D01*
X016460Y023065D01*
X016460Y023065D01*
X016464Y023069D01*
X016467Y023076D01*
X016476Y023085D01*
X016479Y023092D01*
X016484Y023097D01*
X016521Y023185D01*
X016521Y023289D01*
X016488Y023368D01*
X016868Y023368D01*
X016868Y022028D01*
X016828Y022068D01*
X016405Y022068D01*
X016107Y021769D01*
X016107Y021347D01*
X016395Y021058D01*
X016117Y020779D01*
X015828Y021068D01*
X015405Y021068D01*
X015107Y020769D01*
X015107Y020347D01*
X015395Y020058D01*
X015107Y019769D01*
X015107Y019484D01*
X015052Y019539D01*
X014816Y019775D01*
X014669Y019836D01*
X012974Y019836D01*
X012827Y019775D01*
X012323Y019271D01*
X012283Y019271D01*
X012095Y019193D01*
X011952Y019050D01*
X011884Y018887D01*
X011817Y019050D01*
X011784Y019082D01*
X011784Y021563D01*
X011837Y021563D01*
X012344Y022070D01*
X012344Y022786D01*
X011837Y023293D01*
X011121Y023293D01*
X010614Y022786D01*
X010614Y022070D01*
X010984Y021699D01*
X010984Y019082D01*
X010952Y019050D01*
X010886Y018891D01*
X010494Y018891D01*
X010347Y018830D01*
X010234Y018718D01*
X009908Y018391D01*
X009908Y018716D01*
X009871Y018804D01*
X009804Y018872D01*
X009792Y018876D01*
X009795Y018879D01*
X009860Y019036D01*
X009860Y019206D01*
X009795Y019364D01*
X009674Y019484D01*
X009517Y019549D01*
X009346Y019549D01*
X009189Y019484D01*
X009069Y019364D01*
X009004Y019206D01*
X009004Y019036D01*
X009064Y018890D01*
X009038Y018879D01*
X008968Y018908D01*
X008360Y018908D01*
X008272Y018872D01*
X008205Y018804D01*
X008168Y018716D01*
X008168Y018663D01*
X007907Y018663D01*
X007899Y018666D01*
X007849Y018663D01*
X007799Y018663D01*
X007792Y018660D01*
X007784Y018660D01*
X007739Y018638D01*
X007693Y018619D01*
X007687Y018613D01*
X007680Y018610D01*
X007646Y018573D01*
X007611Y018537D01*
X007608Y018530D01*
X007399Y018298D01*
X007399Y018528D01*
X007485Y018614D01*
X007588Y018614D01*
X007745Y018679D01*
X007865Y018800D01*
X007931Y018957D01*
X007931Y019127D01*
X007865Y019285D01*
X007745Y019405D01*
X007588Y019470D01*
X007417Y019470D01*
X007260Y019405D01*
X007202Y019347D01*
X007202Y019461D01*
X007312Y019506D01*
X007432Y019627D01*
X007498Y019784D01*
X007498Y019954D01*
X007432Y020112D01*
X007312Y020232D01*
X007155Y020297D01*
X006984Y020297D01*
X006827Y020232D01*
X006706Y020112D01*
X006641Y019954D01*
X006641Y019816D01*
X006622Y019769D01*
X006622Y017064D01*
X006564Y017122D01*
X006407Y017187D01*
X006236Y017187D01*
X006079Y017122D01*
X005958Y017001D01*
X005893Y016844D01*
X005893Y016777D01*
X005883Y016752D01*
X005883Y014248D01*
X005834Y014256D01*
X005565Y014256D01*
X005565Y013840D01*
X005565Y013840D01*
X005565Y013424D01*
X005784Y013424D01*
X005229Y012868D01*
X005174Y012736D01*
X005174Y011650D01*
X005171Y011647D01*
X005106Y011490D01*
X005106Y011319D01*
X005138Y011242D01*
X005016Y011242D01*
X004858Y011177D01*
X004738Y011056D01*
X004673Y010899D01*
X004673Y010768D01*
X004506Y010601D01*
X004469Y010513D01*
X004469Y010418D01*
X004506Y010329D01*
X004671Y010164D01*
X004648Y010142D01*
X004483Y010307D01*
X004395Y010343D01*
X004300Y010343D01*
X004211Y010307D01*
X003977Y010072D01*
X003940Y009984D01*
X003940Y009889D01*
X003977Y009800D01*
X004057Y009720D01*
X004057Y009551D01*
X003989Y009482D01*
X003945Y009376D01*
X003945Y008035D01*
X003713Y008131D01*
X003441Y008131D01*
X003190Y008027D01*
X003030Y007866D01*
X002931Y007965D02*
X003129Y007965D01*
X002904Y008124D02*
X003425Y008124D01*
X003369Y008216D02*
X003644Y008216D01*
X003730Y008124D02*
X003945Y008124D01*
X003945Y008282D02*
X003062Y008282D01*
X003127Y008441D02*
X003945Y008441D01*
X003945Y008599D02*
X003127Y008599D01*
X003127Y008758D02*
X003945Y008758D01*
X003945Y008916D02*
X002980Y008916D01*
X002855Y009075D02*
X003945Y009075D01*
X003945Y009233D02*
X003013Y009233D01*
X003127Y009392D02*
X003952Y009392D01*
X004057Y009550D02*
X003127Y009550D01*
X003127Y009709D02*
X004057Y009709D01*
X003949Y009867D02*
X003029Y009867D01*
X002870Y010026D02*
X003958Y010026D01*
X004089Y010184D02*
X002964Y010184D01*
X003123Y010343D02*
X004299Y010343D01*
X004396Y010343D02*
X004500Y010343D01*
X004469Y010501D02*
X003127Y010501D01*
X003127Y010660D02*
X004565Y010660D01*
X004673Y010818D02*
X003078Y010818D01*
X002919Y010977D02*
X004705Y010977D01*
X004817Y011135D02*
X002915Y011135D01*
X003074Y011294D02*
X005116Y011294D01*
X005106Y011452D02*
X003127Y011452D01*
X003127Y011611D02*
X005156Y011611D01*
X005174Y011769D02*
X003127Y011769D01*
X002968Y011928D02*
X005174Y011928D01*
X005174Y012086D02*
X002866Y012086D01*
X003025Y012245D02*
X005174Y012245D01*
X005174Y012403D02*
X003127Y012403D01*
X003127Y012562D02*
X005174Y012562D01*
X005174Y012720D02*
X003127Y012720D01*
X003017Y012879D02*
X005239Y012879D01*
X005398Y013037D02*
X002859Y013037D01*
X002976Y013196D02*
X005556Y013196D01*
X005715Y013354D02*
X003127Y013354D01*
X003127Y013513D02*
X005070Y013513D01*
X005057Y013522D02*
X005110Y013484D01*
X005169Y013454D01*
X005231Y013434D01*
X005296Y013424D01*
X005565Y013424D01*
X005565Y013840D01*
X005565Y013840D01*
X005565Y014256D01*
X005296Y014256D01*
X005231Y014246D01*
X005169Y014226D01*
X005110Y014196D01*
X005057Y014157D01*
X005011Y014111D01*
X004972Y014058D01*
X004943Y014000D01*
X004923Y013937D01*
X004912Y013873D01*
X004912Y013840D01*
X005565Y013840D01*
X005565Y013840D01*
X004912Y013840D01*
X004912Y013807D01*
X004923Y013742D01*
X004943Y013680D01*
X004972Y013622D01*
X005011Y013569D01*
X005057Y013522D01*
X004947Y013671D02*
X003127Y013671D01*
X003066Y013830D02*
X004912Y013830D01*
X004939Y013988D02*
X002908Y013988D01*
X002927Y014147D02*
X005047Y014147D01*
X005565Y014147D02*
X005565Y014147D01*
X005565Y013988D02*
X005565Y013988D01*
X005565Y013830D02*
X005565Y013830D01*
X005565Y013671D02*
X005565Y013671D01*
X005565Y013513D02*
X005565Y013513D01*
X006099Y012720D02*
X006937Y012720D01*
X006937Y012562D02*
X006664Y012562D01*
X006663Y012564D02*
X006595Y012632D01*
X006507Y012668D01*
X006047Y012668D01*
X006447Y013068D01*
X006548Y013169D01*
X006603Y013301D01*
X006603Y013902D01*
X006630Y013875D01*
X006736Y013831D01*
X006802Y013831D01*
X006864Y013682D01*
X006937Y013609D01*
X006937Y012420D01*
X006919Y012438D01*
X006812Y012482D01*
X006697Y012482D01*
X006663Y012564D01*
X006937Y012879D02*
X006258Y012879D01*
X006416Y013037D02*
X006937Y013037D01*
X006937Y013196D02*
X006559Y013196D01*
X006603Y013354D02*
X006937Y013354D01*
X006937Y013513D02*
X006603Y013513D01*
X006603Y013671D02*
X006874Y013671D01*
X006803Y013830D02*
X006603Y013830D01*
X006603Y014655D02*
X006622Y014674D01*
X006622Y016454D01*
X006603Y016435D01*
X006603Y014655D01*
X006603Y014781D02*
X006622Y014781D01*
X006622Y014939D02*
X006603Y014939D01*
X006603Y015098D02*
X006622Y015098D01*
X006622Y015256D02*
X006603Y015256D01*
X006603Y015415D02*
X006622Y015415D01*
X006622Y015573D02*
X006603Y015573D01*
X006603Y015732D02*
X006622Y015732D01*
X006622Y015890D02*
X006603Y015890D01*
X006603Y016049D02*
X006622Y016049D01*
X006622Y016207D02*
X006603Y016207D01*
X006603Y016366D02*
X006622Y016366D01*
X005883Y016366D02*
X003061Y016366D01*
X003067Y016372D02*
X003067Y016548D01*
X002627Y016548D01*
X002627Y016568D01*
X003067Y016568D01*
X003067Y016744D01*
X002803Y017008D01*
X002627Y017008D01*
X002627Y016568D01*
X002607Y016568D01*
X002607Y017008D01*
X002430Y017008D01*
X002167Y016744D01*
X002167Y016568D01*
X002607Y016568D01*
X002607Y016548D01*
X002627Y016548D01*
X002627Y016108D01*
X002803Y016108D01*
X003067Y016372D01*
X003067Y016524D02*
X005883Y016524D01*
X005883Y016683D02*
X003067Y016683D01*
X002970Y016841D02*
X005893Y016841D01*
X005958Y017000D02*
X002811Y017000D01*
X002627Y017000D02*
X002607Y017000D01*
X002607Y016841D02*
X002627Y016841D01*
X002627Y016683D02*
X002607Y016683D01*
X002607Y016548D02*
X002167Y016548D01*
X002167Y016372D01*
X002430Y016108D01*
X002607Y016108D01*
X002607Y016548D01*
X002607Y016524D02*
X002627Y016524D01*
X002627Y016366D02*
X002607Y016366D01*
X002607Y016207D02*
X002627Y016207D01*
X002847Y016049D02*
X003824Y016049D01*
X003806Y016023D02*
X003776Y015965D01*
X003756Y015903D01*
X003745Y015838D01*
X003745Y015569D01*
X003745Y015300D01*
X003756Y015235D01*
X003776Y015173D01*
X003806Y015115D01*
X003844Y015062D01*
X003890Y015015D01*
X003943Y014977D01*
X004002Y014947D01*
X004064Y014927D01*
X004129Y014917D01*
X004162Y014917D01*
X004194Y014917D01*
X004259Y014927D01*
X004321Y014947D01*
X004380Y014977D01*
X004433Y015015D01*
X004479Y015062D01*
X004518Y015115D01*
X004547Y015173D01*
X004568Y015235D01*
X004578Y015300D01*
X004578Y015569D01*
X004162Y015569D01*
X004162Y015569D01*
X004578Y015569D01*
X004578Y015838D01*
X004568Y015903D01*
X004547Y015965D01*
X004518Y016023D01*
X004479Y016076D01*
X004433Y016123D01*
X004380Y016161D01*
X004321Y016191D01*
X004259Y016211D01*
X004194Y016222D01*
X004162Y016222D01*
X004162Y015569D01*
X004162Y014917D01*
X004162Y015569D01*
X004162Y015569D01*
X004162Y015569D01*
X004162Y016222D01*
X004129Y016222D01*
X004064Y016211D01*
X004002Y016191D01*
X003943Y016161D01*
X003890Y016123D01*
X003844Y016076D01*
X003806Y016023D01*
X003754Y015890D02*
X003006Y015890D01*
X003127Y015732D02*
X003745Y015732D01*
X003745Y015573D02*
X003127Y015573D01*
X003127Y015415D02*
X003745Y015415D01*
X003745Y015569D02*
X004162Y015569D01*
X004162Y015569D01*
X003745Y015569D01*
X003752Y015256D02*
X003036Y015256D01*
X002878Y015098D02*
X003818Y015098D01*
X004025Y014939D02*
X002957Y014939D01*
X003115Y014781D02*
X005883Y014781D01*
X005883Y014939D02*
X004298Y014939D01*
X004162Y014939D02*
X004162Y014939D01*
X004162Y015098D02*
X004162Y015098D01*
X004162Y015256D02*
X004162Y015256D01*
X004162Y015415D02*
X004162Y015415D01*
X004162Y015573D02*
X004162Y015573D01*
X004162Y015732D02*
X004162Y015732D01*
X004162Y015890D02*
X004162Y015890D01*
X004162Y016049D02*
X004162Y016049D01*
X004162Y016207D02*
X004162Y016207D01*
X004271Y016207D02*
X005883Y016207D01*
X005883Y016049D02*
X004499Y016049D01*
X004569Y015890D02*
X005883Y015890D01*
X005883Y015732D02*
X004578Y015732D01*
X004578Y015573D02*
X005883Y015573D01*
X005883Y015415D02*
X004578Y015415D01*
X004571Y015256D02*
X005883Y015256D01*
X005883Y015098D02*
X004505Y015098D01*
X004052Y016207D02*
X002902Y016207D01*
X002386Y016049D02*
X001847Y016049D01*
X001987Y016207D02*
X002331Y016207D01*
X002172Y016366D02*
X002127Y016366D01*
X002127Y016524D02*
X002167Y016524D01*
X002167Y016683D02*
X002127Y016683D01*
X002055Y016841D02*
X002264Y016841D01*
X002422Y017000D02*
X001896Y017000D01*
X001938Y017158D02*
X002295Y017158D01*
X002137Y017317D02*
X002097Y017317D01*
X002117Y017779D02*
X002395Y018058D01*
X002117Y018337D01*
X001838Y018058D01*
X002117Y017779D01*
X002104Y017792D02*
X002130Y017792D01*
X002288Y017951D02*
X001945Y017951D01*
X001889Y018109D02*
X002344Y018109D01*
X002186Y018268D02*
X002048Y018268D01*
X002117Y018779D02*
X002395Y019058D01*
X002117Y019337D01*
X001838Y019058D01*
X002117Y018779D01*
X001994Y018902D02*
X002239Y018902D01*
X002393Y019060D02*
X001840Y019060D01*
X001999Y019219D02*
X002235Y019219D01*
X002840Y019060D02*
X004583Y019060D01*
X004583Y018902D02*
X002994Y018902D01*
X003127Y018743D02*
X004583Y018743D01*
X004583Y018585D02*
X003127Y018585D01*
X003127Y018426D02*
X004583Y018426D01*
X004583Y018268D02*
X003048Y018268D01*
X002889Y018109D02*
X004583Y018109D01*
X004583Y017951D02*
X002945Y017951D01*
X003104Y017792D02*
X004583Y017792D01*
X004599Y017634D02*
X003127Y017634D01*
X003127Y017475D02*
X004660Y017475D01*
X004764Y017317D02*
X003097Y017317D01*
X002938Y017158D02*
X006167Y017158D01*
X006475Y017158D02*
X006622Y017158D01*
X006622Y017317D02*
X005359Y017317D01*
X005463Y017475D02*
X006622Y017475D01*
X006622Y017634D02*
X005490Y017634D01*
X005456Y017792D02*
X006622Y017792D01*
X006622Y017951D02*
X005341Y017951D01*
X005303Y018109D02*
X006622Y018109D01*
X006622Y018268D02*
X005303Y018268D01*
X005303Y018426D02*
X006622Y018426D01*
X006622Y018585D02*
X005303Y018585D01*
X005303Y018743D02*
X006622Y018743D01*
X006622Y018902D02*
X005312Y018902D01*
X005303Y019060D02*
X006622Y019060D01*
X006622Y019219D02*
X005303Y019219D01*
X005303Y019377D02*
X006622Y019377D01*
X006622Y019536D02*
X005303Y019536D01*
X005303Y019694D02*
X006622Y019694D01*
X006641Y019853D02*
X005303Y019853D01*
X005889Y020011D02*
X006665Y020011D01*
X006765Y020170D02*
X006011Y020170D01*
X006013Y020328D02*
X010984Y020328D01*
X010984Y020170D02*
X007374Y020170D01*
X007474Y020011D02*
X010984Y020011D01*
X010984Y019853D02*
X007498Y019853D01*
X007460Y019694D02*
X010984Y019694D01*
X010984Y019536D02*
X009549Y019536D01*
X009781Y019377D02*
X010984Y019377D01*
X010984Y019219D02*
X009854Y019219D01*
X009860Y019060D02*
X010962Y019060D01*
X010891Y018902D02*
X009804Y018902D01*
X009896Y018743D02*
X010260Y018743D01*
X010102Y018585D02*
X009908Y018585D01*
X009908Y018426D02*
X009943Y018426D01*
X010462Y017814D02*
X010739Y018091D01*
X010886Y018091D01*
X010952Y017932D01*
X011095Y017789D01*
X011283Y017711D01*
X011486Y017711D01*
X011673Y017789D01*
X011817Y017932D01*
X011884Y018096D01*
X011952Y017932D01*
X012095Y017789D01*
X012283Y017711D01*
X012486Y017711D01*
X012673Y017789D01*
X012817Y017932D01*
X012884Y018096D01*
X012952Y017932D01*
X013095Y017789D01*
X013283Y017711D01*
X013486Y017711D01*
X013673Y017789D01*
X013814Y017929D01*
X013914Y017829D01*
X013914Y016881D01*
X013895Y016881D01*
X013895Y017013D01*
X013851Y017120D01*
X013836Y017135D01*
X013836Y017238D01*
X013771Y017395D01*
X013651Y017515D01*
X013493Y017581D01*
X013323Y017581D01*
X013165Y017515D01*
X013045Y017395D01*
X012980Y017238D01*
X012980Y017067D01*
X013045Y016910D01*
X013142Y016813D01*
X013106Y016777D01*
X013070Y016688D01*
X013070Y016081D01*
X013099Y016011D01*
X013070Y015940D01*
X013070Y015512D01*
X012717Y015159D01*
X012417Y015159D01*
X012461Y015177D01*
X012529Y015245D01*
X012565Y015333D01*
X012565Y015940D01*
X012536Y016011D01*
X012565Y016081D01*
X012565Y016688D01*
X012529Y016777D01*
X012461Y016844D01*
X012373Y016881D01*
X012320Y016881D01*
X012320Y016974D01*
X012276Y017081D01*
X012261Y017095D01*
X012261Y017198D01*
X012196Y017356D01*
X012076Y017476D01*
X011918Y017541D01*
X011748Y017541D01*
X011591Y017476D01*
X011470Y017356D01*
X011405Y017198D01*
X011405Y017028D01*
X011470Y016871D01*
X011548Y016793D01*
X011531Y016777D01*
X011495Y016688D01*
X011495Y016081D01*
X011524Y016011D01*
X011495Y015940D01*
X011495Y015356D01*
X010930Y015356D01*
X010931Y015357D01*
X010931Y015589D01*
X010503Y015589D01*
X010503Y015685D01*
X010931Y015685D01*
X010931Y015916D01*
X010919Y015958D01*
X010954Y015993D01*
X010991Y016081D01*
X010991Y016688D01*
X010954Y016777D01*
X010918Y016813D01*
X010936Y016831D01*
X011001Y016989D01*
X011001Y017159D01*
X010936Y017316D01*
X010816Y017437D01*
X010659Y017502D01*
X010488Y017502D01*
X010462Y017491D01*
X010462Y017814D01*
X010462Y017792D02*
X011092Y017792D01*
X010944Y017951D02*
X010599Y017951D01*
X010462Y017634D02*
X013914Y017634D01*
X013914Y017792D02*
X013677Y017792D01*
X013691Y017475D02*
X013914Y017475D01*
X013914Y017317D02*
X013803Y017317D01*
X013836Y017158D02*
X013914Y017158D01*
X013914Y017000D02*
X013895Y017000D01*
X013114Y016841D02*
X012464Y016841D01*
X012565Y016683D02*
X013070Y016683D01*
X013070Y016524D02*
X012565Y016524D01*
X012565Y016366D02*
X013070Y016366D01*
X013070Y016207D02*
X012565Y016207D01*
X012552Y016049D02*
X013083Y016049D01*
X013070Y015890D02*
X012565Y015890D01*
X012565Y015732D02*
X013070Y015732D01*
X013070Y015573D02*
X012565Y015573D01*
X012565Y015415D02*
X012973Y015415D01*
X012814Y015256D02*
X012534Y015256D01*
X012441Y014264D02*
X013190Y014264D01*
X013297Y014308D01*
X013587Y014598D01*
X013690Y014598D01*
X013847Y014664D01*
X013914Y014730D01*
X013914Y012577D01*
X012933Y011596D01*
X012929Y011596D01*
X012772Y011531D01*
X012651Y011411D01*
X012586Y011253D01*
X012586Y011083D01*
X012590Y011074D01*
X012317Y011074D01*
X012229Y011037D01*
X012161Y010970D01*
X012152Y010947D01*
X012121Y010978D01*
X012080Y011001D01*
X012034Y011014D01*
X011814Y011014D01*
X011814Y010716D01*
X011814Y010716D01*
X011814Y011014D01*
X011593Y011014D01*
X011547Y011001D01*
X011506Y010978D01*
X011473Y010944D01*
X011449Y010903D01*
X011437Y010857D01*
X011437Y010716D01*
X011814Y010716D01*
X011814Y010716D01*
X011437Y010716D01*
X011437Y010671D01*
X010693Y010671D01*
X010422Y010942D01*
X010422Y010989D01*
X010501Y010989D01*
X010510Y010992D01*
X010519Y010989D01*
X010753Y010989D01*
X010841Y011025D01*
X010864Y011049D01*
X010888Y011049D01*
X010888Y011072D01*
X010888Y011072D01*
X010888Y011049D01*
X010981Y011049D01*
X011026Y011061D01*
X011067Y011085D01*
X011101Y011118D01*
X011125Y011159D01*
X011137Y011205D01*
X011137Y011524D01*
X011137Y011843D01*
X011125Y011889D01*
X011101Y011930D01*
X011067Y011963D01*
X011026Y011987D01*
X010981Y011999D01*
X010926Y011999D01*
X010926Y012155D01*
X010977Y012197D01*
X011131Y012197D01*
X011288Y012262D01*
X011409Y012382D01*
X011474Y012540D01*
X011474Y012710D01*
X011409Y012868D01*
X011288Y012988D01*
X011134Y013052D01*
X011178Y013158D01*
X011178Y013261D01*
X011197Y013307D01*
X011197Y013752D01*
X011754Y013752D01*
X011827Y013679D01*
X011984Y013614D01*
X012155Y013614D01*
X012255Y013656D01*
X012272Y013622D01*
X012311Y013569D01*
X012357Y013522D01*
X012410Y013484D01*
X012469Y013454D01*
X012531Y013434D01*
X012596Y013424D01*
X012865Y013424D01*
X013134Y013424D01*
X013198Y013434D01*
X013261Y013454D01*
X013319Y013484D01*
X013372Y013522D01*
X013418Y013569D01*
X013457Y013622D01*
X013487Y013680D01*
X013507Y013742D01*
X013517Y013807D01*
X013517Y013840D01*
X013517Y013873D01*
X013507Y013937D01*
X013487Y014000D01*
X013457Y014058D01*
X013418Y014111D01*
X013372Y014157D01*
X013319Y014196D01*
X013261Y014226D01*
X013198Y014246D01*
X013134Y014256D01*
X012865Y014256D01*
X012865Y013840D01*
X013517Y013840D01*
X012865Y013840D01*
X012865Y013840D01*
X012865Y013840D01*
X012865Y013424D01*
X012865Y013840D01*
X012865Y013840D01*
X012865Y014256D01*
X012596Y014256D01*
X012531Y014246D01*
X012469Y014226D01*
X012459Y014221D01*
X012441Y014264D01*
X012865Y014147D02*
X012865Y014147D01*
X012865Y013988D02*
X012865Y013988D01*
X012865Y013830D02*
X012865Y013830D01*
X012865Y013671D02*
X012865Y013671D01*
X012865Y013513D02*
X012865Y013513D01*
X013359Y013513D02*
X013914Y013513D01*
X013914Y013671D02*
X013482Y013671D01*
X013517Y013830D02*
X013914Y013830D01*
X013914Y013988D02*
X013490Y013988D01*
X013383Y014147D02*
X013914Y014147D01*
X013914Y014305D02*
X013290Y014305D01*
X013452Y014464D02*
X013914Y014464D01*
X013914Y014622D02*
X013748Y014622D01*
X013914Y013354D02*
X011197Y013354D01*
X011197Y013513D02*
X012370Y013513D01*
X011846Y013671D02*
X011197Y013671D01*
X011178Y013196D02*
X013914Y013196D01*
X013914Y013037D02*
X011169Y013037D01*
X011397Y012879D02*
X013914Y012879D01*
X013914Y012720D02*
X011470Y012720D01*
X011474Y012562D02*
X013899Y012562D01*
X013740Y012403D02*
X011417Y012403D01*
X011247Y012245D02*
X013582Y012245D01*
X013423Y012086D02*
X010926Y012086D01*
X011102Y011928D02*
X013265Y011928D01*
X013106Y011769D02*
X011137Y011769D01*
X011137Y011611D02*
X012948Y011611D01*
X012693Y011452D02*
X011137Y011452D01*
X011137Y011524D02*
X010945Y011524D01*
X011137Y011524D01*
X010945Y011524D02*
X010945Y011524D01*
X011137Y011294D02*
X012603Y011294D01*
X012586Y011135D02*
X011111Y011135D01*
X011505Y010977D02*
X010422Y010977D01*
X010546Y010818D02*
X011437Y010818D01*
X011814Y010818D02*
X011814Y010818D01*
X011814Y010977D02*
X011814Y010977D01*
X012122Y010977D02*
X012169Y010977D01*
X012841Y010777D02*
X012841Y010768D01*
X012938Y010671D01*
X013072Y010671D01*
X013179Y010627D01*
X013260Y010545D01*
X013890Y009915D01*
X013934Y009809D01*
X013934Y008060D01*
X014079Y007915D01*
X014190Y008027D01*
X014441Y008131D01*
X014713Y008131D01*
X014964Y008027D01*
X015156Y007835D01*
X015161Y007824D01*
X015395Y008058D01*
X015107Y008347D01*
X015107Y008769D01*
X015395Y009058D01*
X015107Y009347D01*
X015107Y009749D01*
X015029Y009717D01*
X014858Y009717D01*
X014701Y009782D01*
X014581Y009902D01*
X014552Y009970D01*
X014486Y010036D01*
X014425Y010183D01*
X014425Y012070D01*
X013442Y011087D01*
X013442Y011083D01*
X013377Y010926D01*
X013257Y010805D01*
X013099Y010740D01*
X012929Y010740D01*
X012841Y010777D01*
X013098Y010660D02*
X014425Y010660D01*
X014425Y010818D02*
X013270Y010818D01*
X013398Y010977D02*
X014425Y010977D01*
X014425Y011135D02*
X013491Y011135D01*
X013649Y011294D02*
X014425Y011294D01*
X014425Y011452D02*
X013808Y011452D01*
X013966Y011611D02*
X014425Y011611D01*
X014425Y011769D02*
X014125Y011769D01*
X014283Y011928D02*
X014425Y011928D01*
X015225Y011928D02*
X015350Y011928D01*
X015430Y012008D02*
X015225Y011803D01*
X015225Y012228D01*
X015405Y012048D01*
X015828Y012048D01*
X016117Y012337D01*
X016395Y012058D01*
X016107Y011769D01*
X016107Y011347D01*
X016395Y011058D01*
X016117Y010779D01*
X015828Y011068D01*
X015405Y011068D01*
X015225Y010888D01*
X015225Y011313D01*
X015430Y011108D01*
X015607Y011108D01*
X015607Y011548D01*
X015627Y011548D01*
X015627Y011568D01*
X016067Y011568D01*
X016067Y011744D01*
X015803Y012008D01*
X015627Y012008D01*
X015627Y011568D01*
X015607Y011568D01*
X015607Y012008D01*
X015430Y012008D01*
X015367Y012086D02*
X015225Y012086D01*
X015607Y011928D02*
X015627Y011928D01*
X015627Y011769D02*
X015607Y011769D01*
X015607Y011611D02*
X015627Y011611D01*
X015627Y011548D02*
X016067Y011548D01*
X016067Y011372D01*
X015803Y011108D01*
X015627Y011108D01*
X015627Y011548D01*
X015627Y011452D02*
X015607Y011452D01*
X015607Y011294D02*
X015627Y011294D01*
X015627Y011135D02*
X015607Y011135D01*
X015403Y011135D02*
X015225Y011135D01*
X015225Y010977D02*
X015314Y010977D01*
X015244Y011294D02*
X015225Y011294D01*
X015830Y011135D02*
X016318Y011135D01*
X016314Y010977D02*
X015919Y010977D01*
X016078Y010818D02*
X016156Y010818D01*
X016160Y011294D02*
X015989Y011294D01*
X016067Y011452D02*
X016107Y011452D01*
X016107Y011611D02*
X016067Y011611D01*
X016042Y011769D02*
X016107Y011769D01*
X016265Y011928D02*
X015883Y011928D01*
X015866Y012086D02*
X016367Y012086D01*
X016209Y012245D02*
X016025Y012245D01*
X016117Y012779D02*
X016395Y013058D01*
X016117Y013337D01*
X015838Y013058D01*
X016117Y012779D01*
X016216Y012879D02*
X016017Y012879D01*
X015859Y013037D02*
X016375Y013037D01*
X016258Y013196D02*
X015976Y013196D01*
X015395Y013058D02*
X015225Y013228D01*
X015225Y012888D01*
X015395Y013058D01*
X015375Y013037D02*
X015225Y013037D01*
X015225Y013196D02*
X015258Y013196D01*
X015225Y013888D02*
X015225Y014228D01*
X015395Y014058D01*
X015225Y013888D01*
X015225Y013988D02*
X015326Y013988D01*
X015307Y014147D02*
X015225Y014147D01*
X015838Y014058D02*
X016117Y014337D01*
X016395Y014058D01*
X016117Y013779D01*
X015838Y014058D01*
X015908Y013988D02*
X016326Y013988D01*
X016307Y014147D02*
X015927Y014147D01*
X016085Y014305D02*
X016148Y014305D01*
X016117Y014779D02*
X016395Y015058D01*
X016117Y015337D01*
X015838Y015058D01*
X016117Y014779D01*
X016115Y014781D02*
X016118Y014781D01*
X016277Y014939D02*
X015957Y014939D01*
X015878Y015098D02*
X016356Y015098D01*
X016197Y015256D02*
X016036Y015256D01*
X016117Y015779D02*
X016395Y016058D01*
X016117Y016337D01*
X015838Y016058D01*
X016117Y015779D01*
X016006Y015890D02*
X016228Y015890D01*
X016386Y016049D02*
X015847Y016049D01*
X015987Y016207D02*
X016246Y016207D01*
X016117Y016779D02*
X016395Y017058D01*
X016117Y017337D01*
X015838Y017058D01*
X016117Y016779D01*
X016055Y016841D02*
X016179Y016841D01*
X016337Y017000D02*
X015896Y017000D01*
X015938Y017158D02*
X016295Y017158D01*
X016137Y017317D02*
X016097Y017317D01*
X016117Y017779D02*
X016395Y018058D01*
X016117Y018337D01*
X015838Y018058D01*
X016117Y017779D01*
X016104Y017792D02*
X016130Y017792D01*
X016288Y017951D02*
X015945Y017951D01*
X015889Y018109D02*
X016344Y018109D01*
X016186Y018268D02*
X016048Y018268D01*
X016117Y018779D02*
X016395Y019058D01*
X016117Y019337D01*
X015838Y019058D01*
X016117Y018779D01*
X015994Y018902D02*
X016239Y018902D01*
X016393Y019060D02*
X015840Y019060D01*
X015999Y019219D02*
X016235Y019219D01*
X016117Y019779D02*
X016395Y020058D01*
X016117Y020337D01*
X015838Y020058D01*
X016117Y019779D01*
X016190Y019853D02*
X016043Y019853D01*
X015885Y020011D02*
X016349Y020011D01*
X016284Y020170D02*
X015950Y020170D01*
X016108Y020328D02*
X016125Y020328D01*
X016141Y020804D02*
X016092Y020804D01*
X015934Y020962D02*
X016300Y020962D01*
X016333Y021121D02*
X015816Y021121D01*
X015803Y021108D02*
X016067Y021372D01*
X016067Y021548D01*
X015627Y021548D01*
X015627Y021108D01*
X015803Y021108D01*
X015627Y021121D02*
X015607Y021121D01*
X015607Y021108D02*
X015607Y021548D01*
X015167Y021548D01*
X015167Y021372D01*
X015430Y021108D01*
X015607Y021108D01*
X015607Y021279D02*
X015627Y021279D01*
X015627Y021438D02*
X015607Y021438D01*
X015417Y021121D02*
X011784Y021121D01*
X011784Y021279D02*
X015259Y021279D01*
X015167Y021438D02*
X011784Y021438D01*
X011870Y021596D02*
X015167Y021596D01*
X015177Y021755D02*
X013913Y021755D01*
X013781Y021623D02*
X014252Y022095D01*
X014252Y022378D01*
X013497Y022378D01*
X013497Y021623D01*
X013781Y021623D01*
X013497Y021755D02*
X013397Y021755D01*
X013397Y021623D02*
X013397Y022378D01*
X012642Y022378D01*
X012642Y022095D01*
X013114Y021623D01*
X013397Y021623D01*
X013397Y021913D02*
X013497Y021913D01*
X013497Y022072D02*
X013397Y022072D01*
X013397Y022230D02*
X013497Y022230D01*
X013497Y022378D02*
X013397Y022378D01*
X013397Y022478D01*
X012642Y022478D01*
X012642Y022762D01*
X013114Y023233D01*
X013397Y023233D01*
X013397Y022478D01*
X013497Y022478D01*
X013497Y023233D01*
X013781Y023233D01*
X014252Y022762D01*
X014252Y022478D01*
X013497Y022478D01*
X013497Y022378D01*
X013497Y022389D02*
X015279Y022389D01*
X015321Y022305D02*
X015321Y022305D01*
X015400Y022230D02*
X014252Y022230D01*
X014230Y022072D02*
X015502Y022072D01*
X015489Y022085D02*
X015489Y022085D01*
X015401Y022229D02*
X015401Y022229D01*
X015401Y022229D01*
X015336Y021913D02*
X014071Y021913D01*
X014252Y022547D02*
X015269Y022547D01*
X015325Y022661D02*
X015325Y022661D01*
X015370Y022706D02*
X014252Y022706D01*
X014149Y022864D02*
X015513Y022864D01*
X015493Y022848D02*
X015493Y022848D01*
X015541Y022905D02*
X015541Y022905D01*
X015497Y022965D02*
X015497Y022965D01*
X015481Y022985D02*
X015481Y022985D01*
X015453Y023023D02*
X013991Y023023D01*
X013832Y023181D02*
X015362Y023181D01*
X015437Y023045D02*
X015437Y023045D01*
X015425Y022781D02*
X015425Y022781D01*
X015409Y022761D02*
X015409Y022761D01*
X015382Y023340D02*
X009780Y023340D01*
X009838Y023181D02*
X011009Y023181D01*
X010850Y023023D02*
X009838Y023023D01*
X009838Y022864D02*
X010692Y022864D01*
X010614Y022706D02*
X009838Y022706D01*
X009838Y022547D02*
X010614Y022547D01*
X010614Y022389D02*
X009776Y022389D01*
X009633Y022230D02*
X010614Y022230D01*
X010614Y022072D02*
X009050Y022072D01*
X009682Y021438D02*
X007969Y021438D01*
X008049Y021596D02*
X010984Y021596D01*
X010984Y021438D02*
X010047Y021438D01*
X010233Y021279D02*
X010984Y021279D01*
X010984Y021121D02*
X010293Y021121D01*
X010292Y020962D02*
X010984Y020962D01*
X010984Y020804D02*
X010224Y020804D01*
X010006Y020645D02*
X010984Y020645D01*
X010984Y020487D02*
X006013Y020487D01*
X006103Y020645D02*
X009723Y020645D01*
X009865Y021050D02*
X006055Y021050D01*
X005543Y020538D01*
X005777Y021225D02*
X005777Y021303D01*
X005825Y021283D01*
X005835Y021283D01*
X005777Y021225D01*
X005777Y021279D02*
X005832Y021279D01*
X006169Y021370D02*
X006262Y021464D01*
X006325Y021617D01*
X006325Y021783D01*
X006262Y021936D01*
X006145Y022053D01*
X006111Y022068D01*
X007438Y022068D01*
X007404Y022053D01*
X007287Y021936D01*
X007223Y021783D01*
X007223Y021617D01*
X007287Y021464D01*
X007380Y021370D01*
X006169Y021370D01*
X006236Y021438D02*
X007312Y021438D01*
X007232Y021596D02*
X006317Y021596D01*
X006325Y021755D02*
X007223Y021755D01*
X007278Y021913D02*
X006271Y021913D01*
X005706Y022068D02*
X005692Y022062D01*
X005686Y022068D01*
X005706Y022068D01*
X005132Y022864D02*
X004578Y022864D01*
X004578Y022706D02*
X004892Y022706D01*
X004733Y022547D02*
X004569Y022547D01*
X004575Y022389D02*
X004499Y022389D01*
X004416Y022230D02*
X004270Y022230D01*
X004162Y022230D02*
X004162Y022230D01*
X004162Y022217D02*
X004162Y022869D01*
X004162Y022869D01*
X004162Y022217D01*
X004053Y022230D02*
X001366Y022230D01*
X001366Y022072D02*
X003733Y022072D01*
X003824Y022389D02*
X001366Y022389D01*
X001366Y022547D02*
X003754Y022547D01*
X003745Y022706D02*
X001366Y022706D01*
X001366Y022864D02*
X003745Y022864D01*
X003745Y022869D02*
X004162Y022869D01*
X004162Y022869D01*
X003745Y022869D01*
X003745Y023023D02*
X001366Y023023D01*
X001366Y023181D02*
X003752Y023181D01*
X003818Y023340D02*
X001366Y023340D01*
X001607Y021913D02*
X001627Y021913D01*
X001627Y021755D02*
X001607Y021755D01*
X001607Y021596D02*
X001627Y021596D01*
X001627Y021548D02*
X002067Y021548D01*
X002067Y021372D01*
X001803Y021108D01*
X001627Y021108D01*
X001627Y021548D01*
X001627Y021438D02*
X001607Y021438D01*
X001607Y021279D02*
X001627Y021279D01*
X001627Y021121D02*
X001607Y021121D01*
X001417Y021121D02*
X001366Y021121D01*
X001816Y021121D02*
X002333Y021121D01*
X002430Y021008D02*
X002167Y020744D01*
X002167Y020568D01*
X002607Y020568D01*
X002607Y021008D01*
X002430Y021008D01*
X002385Y020962D02*
X001934Y020962D01*
X002092Y020804D02*
X002226Y020804D01*
X002167Y020645D02*
X002127Y020645D01*
X002167Y020548D02*
X002167Y020372D01*
X002430Y020108D01*
X002607Y020108D01*
X002607Y020548D01*
X002627Y020548D01*
X002627Y020568D01*
X003067Y020568D01*
X003067Y020744D01*
X002803Y021008D01*
X002627Y021008D01*
X002627Y020568D01*
X002607Y020568D01*
X002607Y020548D01*
X002167Y020548D01*
X002167Y020487D02*
X002127Y020487D01*
X002108Y020328D02*
X002210Y020328D01*
X002368Y020170D02*
X001950Y020170D01*
X001885Y020011D02*
X002349Y020011D01*
X002190Y019853D02*
X002043Y019853D01*
X002627Y020108D02*
X002627Y020548D01*
X003067Y020548D01*
X003067Y020372D01*
X002803Y020108D01*
X002627Y020108D01*
X002627Y020170D02*
X002607Y020170D01*
X002607Y020328D02*
X002627Y020328D01*
X002627Y020487D02*
X002607Y020487D01*
X002607Y020645D02*
X002627Y020645D01*
X002627Y020804D02*
X002607Y020804D01*
X002607Y020962D02*
X002627Y020962D01*
X002849Y020962D02*
X003717Y020962D01*
X003741Y020804D02*
X003007Y020804D01*
X003067Y020645D02*
X003855Y020645D01*
X003873Y020487D02*
X003067Y020487D01*
X003023Y020328D02*
X003873Y020328D01*
X003876Y020170D02*
X002865Y020170D01*
X002885Y020011D02*
X003998Y020011D01*
X004583Y019853D02*
X003043Y019853D01*
X003127Y019694D02*
X004583Y019694D01*
X004583Y019536D02*
X003127Y019536D01*
X003127Y019377D02*
X004583Y019377D01*
X004583Y019219D02*
X002999Y019219D01*
X002901Y021121D02*
X003670Y021121D01*
X004162Y022389D02*
X004162Y022389D01*
X004162Y022547D02*
X004162Y022547D01*
X004162Y022706D02*
X004162Y022706D01*
X004162Y022864D02*
X004162Y022864D01*
X004506Y023340D02*
X008943Y023340D01*
X008885Y023181D02*
X004571Y023181D01*
X004578Y023023D02*
X008885Y023023D01*
X008004Y021913D02*
X010770Y021913D01*
X010929Y021755D02*
X008058Y021755D01*
X007342Y019536D02*
X009315Y019536D01*
X009083Y019377D02*
X007773Y019377D01*
X007893Y019219D02*
X009009Y019219D01*
X009004Y019060D02*
X007931Y019060D01*
X007908Y018902D02*
X008345Y018902D01*
X008179Y018743D02*
X007809Y018743D01*
X007657Y018585D02*
X007455Y018585D01*
X007399Y018426D02*
X007515Y018426D01*
X007232Y019377D02*
X007202Y019377D01*
X008983Y018902D02*
X009059Y018902D01*
X008787Y016972D02*
X008360Y016972D01*
X008272Y017008D01*
X008205Y017076D01*
X008200Y017086D01*
X008186Y017072D01*
X008186Y016461D01*
X008207Y016466D01*
X008478Y016466D01*
X008478Y016078D01*
X008574Y016078D01*
X008574Y016466D01*
X008787Y016466D01*
X008787Y016972D01*
X008787Y016841D02*
X008186Y016841D01*
X008186Y016683D02*
X008787Y016683D01*
X008787Y016524D02*
X008186Y016524D01*
X008478Y016366D02*
X008574Y016366D01*
X008574Y016207D02*
X008478Y016207D01*
X008292Y017000D02*
X008186Y017000D01*
X009762Y016248D02*
X009762Y016079D01*
X009765Y016075D01*
X009838Y015900D01*
X009838Y015376D01*
X009950Y015376D01*
X009980Y015363D01*
X009980Y015589D01*
X010407Y015589D01*
X010407Y015685D01*
X009980Y015685D01*
X009980Y015916D01*
X009991Y015958D01*
X009957Y015993D01*
X009920Y016081D01*
X009920Y016406D01*
X009796Y016282D01*
X009762Y016248D01*
X009762Y016207D02*
X009920Y016207D01*
X009933Y016049D02*
X009776Y016049D01*
X009838Y015890D02*
X009980Y015890D01*
X009980Y015732D02*
X009838Y015732D01*
X009838Y015573D02*
X009980Y015573D01*
X009980Y015415D02*
X009838Y015415D01*
X010217Y015201D02*
X010259Y015201D01*
X010234Y015176D01*
X010228Y015190D01*
X010217Y015201D01*
X010733Y014264D02*
X010779Y014264D01*
X010674Y014159D01*
X010674Y014205D01*
X010733Y014264D01*
X010931Y015415D02*
X011495Y015415D01*
X011495Y015573D02*
X010931Y015573D01*
X010931Y015732D02*
X011495Y015732D01*
X011495Y015890D02*
X010931Y015890D01*
X010977Y016049D02*
X011508Y016049D01*
X011495Y016207D02*
X010991Y016207D01*
X010991Y016366D02*
X011495Y016366D01*
X011495Y016524D02*
X010991Y016524D01*
X010991Y016683D02*
X011495Y016683D01*
X011499Y016841D02*
X010940Y016841D01*
X011001Y017000D02*
X011417Y017000D01*
X011405Y017158D02*
X011001Y017158D01*
X010936Y017317D02*
X011454Y017317D01*
X011590Y017475D02*
X010722Y017475D01*
X011677Y017792D02*
X012092Y017792D01*
X011944Y017951D02*
X011824Y017951D01*
X012076Y017475D02*
X013125Y017475D01*
X013013Y017317D02*
X012212Y017317D01*
X012261Y017158D02*
X012980Y017158D01*
X013008Y017000D02*
X012309Y017000D01*
X012677Y017792D02*
X013092Y017792D01*
X012944Y017951D02*
X012824Y017951D01*
X011891Y018902D02*
X011878Y018902D01*
X011806Y019060D02*
X011962Y019060D01*
X011784Y019219D02*
X012157Y019219D01*
X012429Y019377D02*
X011784Y019377D01*
X011784Y019536D02*
X012588Y019536D01*
X012746Y019694D02*
X011784Y019694D01*
X011784Y019853D02*
X015190Y019853D01*
X015107Y019694D02*
X014896Y019694D01*
X015055Y019536D02*
X015107Y019536D01*
X015225Y019228D02*
X015395Y019058D01*
X015225Y018888D01*
X015225Y019228D01*
X015225Y019219D02*
X015235Y019219D01*
X015225Y019060D02*
X015393Y019060D01*
X015239Y018902D02*
X015225Y018902D01*
X015225Y018228D02*
X015395Y018058D01*
X015225Y017888D01*
X015225Y018228D01*
X015225Y018109D02*
X015344Y018109D01*
X015288Y017951D02*
X015225Y017951D01*
X014425Y018449D02*
X014044Y018830D01*
X013897Y018891D01*
X013883Y018891D01*
X013823Y019036D01*
X014423Y019036D01*
X014425Y019034D01*
X014425Y018449D01*
X014425Y018585D02*
X014289Y018585D01*
X014425Y018743D02*
X014131Y018743D01*
X013878Y018902D02*
X014425Y018902D01*
X015284Y020170D02*
X011784Y020170D01*
X011784Y020328D02*
X015125Y020328D01*
X015107Y020487D02*
X011784Y020487D01*
X011784Y020645D02*
X015107Y020645D01*
X015141Y020804D02*
X011784Y020804D01*
X011784Y020962D02*
X015300Y020962D01*
X015974Y021279D02*
X016174Y021279D01*
X016107Y021438D02*
X016067Y021438D01*
X016067Y021596D02*
X016107Y021596D01*
X016107Y021755D02*
X016056Y021755D01*
X015898Y021913D02*
X016251Y021913D01*
X016379Y022072D02*
X016868Y022072D01*
X016868Y022230D02*
X016482Y022230D01*
X016392Y022085D02*
X016392Y022085D01*
X016604Y022389D02*
X016868Y022389D01*
X016868Y022547D02*
X016614Y022547D01*
X016617Y022537D02*
X016617Y022537D01*
X016511Y022706D02*
X016868Y022706D01*
X016868Y022864D02*
X016348Y022864D01*
X016384Y022965D02*
X016384Y022965D01*
X016400Y022985D02*
X016400Y022985D01*
X016429Y023023D02*
X016868Y023023D01*
X016868Y023181D02*
X016519Y023181D01*
X016444Y023045D02*
X016444Y023045D01*
X016500Y023340D02*
X016868Y023340D01*
X016868Y021088D02*
X016868Y021028D01*
X016838Y021058D01*
X016868Y021088D01*
X016868Y020088D02*
X016868Y020028D01*
X016838Y020058D01*
X016868Y020088D01*
X016868Y019088D02*
X016868Y019028D01*
X016838Y019058D01*
X016868Y019088D01*
X016868Y019060D02*
X016840Y019060D01*
X016868Y018088D02*
X016868Y018028D01*
X016838Y018058D01*
X016868Y018088D01*
X016868Y017088D02*
X016868Y017028D01*
X016838Y017058D01*
X016868Y017088D01*
X016868Y016088D02*
X016868Y016028D01*
X016838Y016058D01*
X016868Y016088D01*
X016868Y016049D02*
X016847Y016049D01*
X016868Y015088D02*
X016868Y015028D01*
X016838Y015058D01*
X016868Y015088D01*
X016868Y014088D02*
X016868Y014028D01*
X016838Y014058D01*
X016868Y014088D01*
X016167Y013830D02*
X016066Y013830D01*
X016838Y013058D02*
X016868Y013028D01*
X016868Y013088D01*
X016838Y013058D01*
X016859Y013037D02*
X016868Y013037D01*
X016868Y012088D02*
X016868Y012028D01*
X016838Y012058D01*
X016868Y012088D01*
X016866Y012086D02*
X016868Y012086D01*
X016868Y011088D02*
X016868Y011028D01*
X016838Y011058D01*
X016868Y011088D01*
X016269Y010184D02*
X015964Y010184D01*
X015838Y010058D02*
X016117Y010337D01*
X016395Y010058D01*
X016117Y009779D01*
X015838Y010058D01*
X015870Y010026D02*
X016363Y010026D01*
X016205Y009867D02*
X016029Y009867D01*
X016117Y009337D02*
X016395Y009058D01*
X016117Y008779D01*
X015838Y009058D01*
X016117Y009337D01*
X016220Y009233D02*
X016013Y009233D01*
X015855Y009075D02*
X016379Y009075D01*
X016254Y008916D02*
X015980Y008916D01*
X016117Y008337D02*
X016395Y008058D01*
X016117Y007779D01*
X015838Y008058D01*
X016117Y008337D01*
X016062Y008282D02*
X016171Y008282D01*
X016330Y008124D02*
X015904Y008124D01*
X015931Y007965D02*
X016303Y007965D01*
X016144Y007807D02*
X016089Y007807D01*
X016117Y007337D02*
X016395Y007058D01*
X016117Y006779D01*
X015838Y007058D01*
X016117Y007337D01*
X016122Y007331D02*
X016111Y007331D01*
X015953Y007173D02*
X016281Y007173D01*
X016352Y007014D02*
X015882Y007014D01*
X016040Y006856D02*
X016193Y006856D01*
X016117Y006337D02*
X016395Y006058D01*
X016117Y005779D01*
X015838Y006058D01*
X016117Y006337D01*
X016002Y006222D02*
X016232Y006222D01*
X016390Y006063D02*
X015843Y006063D01*
X015991Y005905D02*
X016242Y005905D01*
X016117Y005337D02*
X016395Y005058D01*
X016107Y004769D01*
X016107Y004708D01*
X016049Y004847D01*
X015906Y004990D01*
X015766Y005048D01*
X015828Y005048D01*
X016117Y005337D01*
X016051Y005271D02*
X016183Y005271D01*
X016341Y005112D02*
X015892Y005112D01*
X015942Y004954D02*
X016291Y004954D01*
X016133Y004795D02*
X016070Y004795D01*
X016107Y004408D02*
X016107Y004347D01*
X016131Y004323D01*
X016071Y004323D01*
X016107Y004408D01*
X015467Y005048D02*
X015328Y004990D01*
X015232Y004895D01*
X015156Y005079D01*
X014964Y005271D01*
X015183Y005271D01*
X015107Y005347D02*
X015405Y005048D01*
X015467Y005048D01*
X015341Y005112D02*
X015123Y005112D01*
X015208Y004954D02*
X015291Y004954D01*
X015107Y005347D02*
X015107Y005769D01*
X015395Y006058D01*
X015107Y006347D01*
X015107Y006769D01*
X015395Y007058D01*
X015225Y007228D01*
X015156Y007061D01*
X014964Y006869D01*
X014713Y006765D01*
X014643Y006765D01*
X014643Y006544D01*
X014599Y006437D01*
X014532Y006370D01*
X014450Y006289D01*
X014344Y006244D01*
X013912Y006244D01*
X013828Y006160D01*
X013935Y006053D01*
X014012Y005867D01*
X014012Y005666D01*
X013935Y005480D01*
X013793Y005338D01*
X013779Y005332D01*
X013797Y005319D01*
X013846Y005270D01*
X013888Y005213D01*
X013920Y005150D01*
X013941Y005084D01*
X013952Y005014D01*
X013952Y004988D01*
X013515Y004988D01*
X013515Y004971D01*
X013952Y004971D01*
X013952Y004967D01*
X013998Y005079D01*
X014190Y005271D01*
X014441Y005375D01*
X014713Y005375D01*
X014964Y005271D01*
X015107Y005429D02*
X013884Y005429D01*
X013845Y005271D02*
X014191Y005271D01*
X014032Y005112D02*
X013932Y005112D01*
X013894Y004759D02*
X013894Y004556D01*
X013991Y004323D01*
X013022Y004323D01*
X013118Y004556D01*
X013118Y004759D01*
X013125Y004746D01*
X013166Y004689D01*
X013216Y004639D01*
X013273Y004598D01*
X013335Y004566D01*
X013402Y004545D01*
X013471Y004534D01*
X013498Y004534D01*
X013498Y004971D01*
X013061Y004971D01*
X013061Y004967D01*
X013015Y005079D01*
X012822Y005271D01*
X013168Y005271D01*
X013166Y005270D02*
X013125Y005213D01*
X013093Y005150D01*
X013072Y005084D01*
X013061Y005014D01*
X013061Y004988D01*
X013498Y004988D01*
X013498Y004971D01*
X013515Y004971D01*
X013515Y004534D01*
X013542Y004534D01*
X013611Y004545D01*
X013678Y004566D01*
X013740Y004598D01*
X013797Y004639D01*
X013846Y004689D01*
X013888Y004746D01*
X013894Y004759D01*
X013894Y004637D02*
X013794Y004637D01*
X013927Y004478D02*
X013086Y004478D01*
X013118Y004637D02*
X013219Y004637D01*
X013498Y004637D02*
X013515Y004637D01*
X013498Y004795D02*
X013515Y004795D01*
X013498Y004954D02*
X013515Y004954D01*
X013166Y005270D02*
X013216Y005319D01*
X013234Y005332D01*
X013220Y005338D01*
X013078Y005480D01*
X013001Y005666D01*
X013001Y005843D01*
X012847Y005996D01*
X012803Y006103D01*
X012803Y006861D01*
X012571Y006765D01*
X012300Y006765D01*
X012049Y006869D01*
X012030Y006888D01*
X012011Y006869D01*
X011760Y006765D01*
X011489Y006765D01*
X011257Y006861D01*
X011257Y006583D01*
X011213Y006476D01*
X011131Y006395D01*
X011131Y006395D01*
X011045Y006308D01*
X010990Y006286D01*
X010982Y006268D01*
X010875Y006160D01*
X010982Y006053D01*
X011059Y005867D01*
X011059Y005666D01*
X010982Y005480D01*
X010840Y005338D01*
X010826Y005332D01*
X010844Y005319D01*
X010894Y005270D01*
X010935Y005213D01*
X010967Y005150D01*
X010988Y005084D01*
X010999Y005014D01*
X010999Y004988D01*
X010562Y004988D01*
X010562Y004971D01*
X010562Y004534D01*
X010589Y004534D01*
X010658Y004545D01*
X010725Y004566D01*
X010787Y004598D01*
X010844Y004639D01*
X010894Y004689D01*
X010935Y004746D01*
X010942Y004759D01*
X010942Y004556D01*
X011038Y004323D01*
X010069Y004323D01*
X010166Y004556D01*
X010166Y004759D01*
X010172Y004746D01*
X010214Y004689D01*
X010263Y004639D01*
X010320Y004598D01*
X010383Y004566D01*
X010449Y004545D01*
X010519Y004534D01*
X010545Y004534D01*
X010545Y004971D01*
X010108Y004971D01*
X010108Y004967D01*
X010062Y005079D01*
X009870Y005271D01*
X009619Y005375D01*
X009347Y005375D01*
X009096Y005271D01*
X009077Y005252D01*
X009059Y005271D01*
X008808Y005375D01*
X008536Y005375D01*
X008285Y005271D01*
X008093Y005079D01*
X008047Y004967D01*
X008047Y004971D01*
X007610Y004971D01*
X007610Y004988D01*
X008047Y004988D01*
X008047Y005014D01*
X008036Y005084D01*
X008014Y005150D01*
X007982Y005213D01*
X007941Y005270D01*
X007891Y005319D01*
X007874Y005332D01*
X007887Y005338D01*
X008030Y005480D01*
X008107Y005666D01*
X008107Y005867D01*
X008030Y006053D01*
X007922Y006160D01*
X008030Y006268D01*
X008070Y006365D01*
X008095Y006390D01*
X008339Y006634D01*
X008383Y006741D01*
X008383Y006828D01*
X008536Y006765D01*
X008808Y006765D01*
X009059Y006869D01*
X009077Y006888D01*
X009096Y006869D01*
X009347Y006765D01*
X009619Y006765D01*
X009811Y006845D01*
X009811Y006103D01*
X009855Y005996D01*
X010048Y005803D01*
X010048Y005666D01*
X010125Y005480D01*
X010267Y005338D01*
X010281Y005332D01*
X010263Y005319D01*
X010214Y005270D01*
X010172Y005213D01*
X010141Y005150D01*
X010119Y005084D01*
X010108Y005014D01*
X010108Y004988D01*
X010545Y004988D01*
X010545Y004971D01*
X010562Y004971D01*
X010999Y004971D01*
X010999Y004967D01*
X011046Y005079D01*
X011238Y005271D01*
X010892Y005271D01*
X010932Y005429D02*
X013128Y005429D01*
X013033Y005588D02*
X011027Y005588D01*
X011059Y005746D02*
X013001Y005746D01*
X012938Y005905D02*
X011044Y005905D01*
X010972Y006063D02*
X012819Y006063D01*
X012803Y006222D02*
X010937Y006222D01*
X011117Y006380D02*
X012803Y006380D01*
X012803Y006539D02*
X011239Y006539D01*
X011257Y006697D02*
X012803Y006697D01*
X012791Y006856D02*
X012803Y006856D01*
X012080Y006856D02*
X011980Y006856D01*
X011269Y006856D02*
X011257Y006856D01*
X011126Y007915D02*
X011092Y007950D01*
X011058Y007964D01*
X011016Y008065D01*
X010977Y008104D01*
X010909Y008172D01*
X010915Y008178D01*
X010951Y008266D01*
X010951Y008598D01*
X010915Y008686D01*
X010847Y008754D01*
X010824Y008763D01*
X010855Y008794D01*
X010879Y008835D01*
X010891Y008881D01*
X010891Y009101D01*
X010593Y009101D01*
X010593Y009101D01*
X010891Y009101D01*
X010891Y009322D01*
X010879Y009368D01*
X010855Y009409D01*
X010822Y009442D01*
X010781Y009466D01*
X010735Y009478D01*
X010593Y009478D01*
X010562Y009478D01*
X010544Y009522D01*
X010462Y009603D01*
X009840Y010225D01*
X009840Y010429D01*
X010249Y010020D01*
X010249Y010020D01*
X010330Y009938D01*
X010437Y009894D01*
X011377Y009894D01*
X011377Y009723D01*
X011382Y009709D01*
X010356Y009709D01*
X010462Y009603D02*
X010462Y009603D01*
X010515Y009550D02*
X011299Y009550D01*
X011287Y009521D02*
X011287Y009351D01*
X011352Y009194D01*
X011473Y009073D01*
X011630Y009008D01*
X011800Y009008D01*
X011958Y009073D01*
X012078Y009194D01*
X012143Y009351D01*
X012143Y009521D01*
X012078Y009679D01*
X012076Y009681D01*
X012093Y009723D01*
X012093Y009894D01*
X012125Y009894D01*
X012125Y009723D01*
X012161Y009635D01*
X012229Y009567D01*
X012317Y009531D01*
X012610Y009531D01*
X012651Y009430D01*
X012654Y009427D01*
X012654Y009116D01*
X012534Y009116D01*
X012359Y009044D01*
X012225Y008910D01*
X012152Y008735D01*
X012152Y008545D01*
X012225Y008370D01*
X012359Y008236D01*
X012534Y008164D01*
X013157Y008164D01*
X013157Y008099D01*
X012954Y007896D01*
X012822Y008027D01*
X012571Y008131D01*
X012300Y008131D01*
X012049Y008027D01*
X012030Y008008D01*
X012011Y008027D01*
X011760Y008131D01*
X011489Y008131D01*
X011238Y008027D01*
X011126Y007915D01*
X011176Y007965D02*
X011057Y007965D01*
X010957Y008124D02*
X011472Y008124D01*
X011777Y008124D02*
X012283Y008124D01*
X012313Y008282D02*
X010951Y008282D01*
X010951Y008441D02*
X012195Y008441D01*
X012152Y008599D02*
X010951Y008599D01*
X010837Y008758D02*
X012162Y008758D01*
X012231Y008916D02*
X010891Y008916D01*
X010891Y009075D02*
X011471Y009075D01*
X011336Y009233D02*
X010891Y009233D01*
X010865Y009392D02*
X011287Y009392D01*
X011287Y009521D02*
X011352Y009679D01*
X011382Y009709D01*
X011377Y009867D02*
X010198Y009867D01*
X010243Y010026D02*
X010039Y010026D01*
X010084Y010184D02*
X009881Y010184D01*
X009840Y010343D02*
X009926Y010343D01*
X010593Y009478D02*
X010593Y009101D01*
X010593Y009101D01*
X010593Y009478D01*
X010593Y009392D02*
X010593Y009392D01*
X010593Y009233D02*
X010593Y009233D01*
X009811Y008822D02*
X009811Y008790D01*
X009600Y008790D01*
X009512Y008754D01*
X009445Y008686D01*
X009408Y008598D01*
X009408Y008266D01*
X009445Y008178D01*
X009492Y008131D01*
X009347Y008131D01*
X009096Y008027D01*
X009077Y008008D01*
X009059Y008027D01*
X008808Y008131D01*
X008536Y008131D01*
X008285Y008027D01*
X008154Y007896D01*
X008060Y007989D01*
X007954Y008033D01*
X007635Y008033D01*
X007635Y008253D01*
X007656Y008274D01*
X007826Y008274D01*
X007906Y008194D01*
X007994Y008157D01*
X008090Y008157D01*
X008178Y008194D01*
X008413Y008428D01*
X008449Y008517D01*
X008449Y008612D01*
X008440Y008635D01*
X008483Y008635D01*
X008529Y008647D01*
X008570Y008671D01*
X008726Y008827D01*
X008882Y008983D01*
X008906Y009024D01*
X008918Y009070D01*
X008918Y009117D01*
X008906Y009163D01*
X008882Y009204D01*
X008782Y009304D01*
X008515Y009038D01*
X008782Y009304D01*
X008734Y009352D01*
X008780Y009398D01*
X008832Y009272D01*
X008953Y009152D01*
X009110Y009087D01*
X009281Y009087D01*
X009400Y009136D01*
X009408Y009128D01*
X009408Y009014D01*
X009445Y008926D01*
X009512Y008859D01*
X009600Y008822D01*
X009811Y008822D01*
X009523Y008758D02*
X008657Y008758D01*
X008726Y008827D02*
X008515Y009038D01*
X008515Y009038D01*
X008726Y008827D01*
X008636Y008916D02*
X008636Y008916D01*
X008515Y009038D02*
X008515Y009038D01*
X008553Y009075D02*
X008553Y009075D01*
X008711Y009233D02*
X008711Y009233D01*
X008852Y009233D02*
X008871Y009233D01*
X008918Y009075D02*
X009408Y009075D01*
X009454Y008916D02*
X008816Y008916D01*
X008774Y009392D02*
X008783Y009392D01*
X008248Y009923D02*
X008122Y010048D01*
X008034Y010085D01*
X007976Y010085D01*
X007962Y010091D01*
X008229Y010091D01*
X008336Y010135D01*
X008582Y010381D01*
X008582Y010257D01*
X008248Y009923D01*
X008145Y010026D02*
X008352Y010026D01*
X008385Y010184D02*
X008510Y010184D01*
X008544Y010343D02*
X008582Y010343D01*
X007742Y009416D02*
X007719Y009394D01*
X007593Y009519D01*
X007544Y009540D01*
X007618Y009540D01*
X007742Y009416D01*
X007371Y009540D02*
X007322Y009519D01*
X007087Y009285D01*
X007050Y009197D01*
X007050Y009101D01*
X007087Y009013D01*
X007185Y008915D01*
X007185Y008859D01*
X006984Y008658D01*
X006902Y008577D01*
X006858Y008470D01*
X006858Y008051D01*
X006666Y008131D01*
X006394Y008131D01*
X006143Y008027D01*
X006125Y008008D01*
X006106Y008027D01*
X005855Y008131D01*
X005583Y008131D01*
X005332Y008027D01*
X005233Y007928D01*
X005233Y008076D01*
X005190Y008182D01*
X005234Y008164D01*
X005896Y008164D01*
X006071Y008236D01*
X006205Y008370D01*
X006277Y008545D01*
X006277Y008735D01*
X006205Y008910D01*
X006071Y009044D01*
X005925Y009104D01*
X005925Y009239D01*
X006048Y009362D01*
X006052Y009362D01*
X006210Y009427D01*
X006330Y009548D01*
X006389Y009689D01*
X006431Y009587D01*
X006551Y009467D01*
X006709Y009402D01*
X006879Y009402D01*
X007036Y009467D01*
X007109Y009540D01*
X007371Y009540D01*
X007194Y009392D02*
X006124Y009392D01*
X005925Y009233D02*
X007066Y009233D01*
X007061Y009075D02*
X005995Y009075D01*
X006198Y008916D02*
X007184Y008916D01*
X007084Y008758D02*
X006267Y008758D01*
X006277Y008599D02*
X006925Y008599D01*
X006858Y008441D02*
X006234Y008441D01*
X006117Y008282D02*
X006858Y008282D01*
X006858Y008124D02*
X006682Y008124D01*
X006378Y008124D02*
X005871Y008124D01*
X005567Y008124D02*
X005214Y008124D01*
X005233Y007965D02*
X005271Y007965D01*
X004918Y008387D02*
X004722Y008387D01*
X004722Y009056D01*
X004796Y008981D01*
X004884Y008945D01*
X004960Y008945D01*
X004925Y008910D01*
X004852Y008735D01*
X004852Y008545D01*
X004918Y008387D01*
X004895Y008441D02*
X004722Y008441D01*
X004722Y008599D02*
X004852Y008599D01*
X004862Y008758D02*
X004722Y008758D01*
X004722Y008916D02*
X004932Y008916D01*
X005181Y009094D02*
X005205Y009104D01*
X005205Y009118D01*
X005181Y009094D01*
X005449Y009781D02*
X005410Y009821D01*
X005449Y009781D01*
X005449Y009781D01*
X005410Y009821D02*
X005410Y009821D01*
X004651Y010184D02*
X004606Y010184D01*
X005529Y010868D02*
X005529Y010899D01*
X005497Y010976D01*
X005619Y010976D01*
X005691Y011006D01*
X005733Y010965D01*
X005821Y010928D01*
X005861Y010928D01*
X005879Y010886D01*
X005897Y010868D01*
X005552Y010868D01*
X005529Y010868D01*
X005620Y010977D02*
X005721Y010977D01*
X006272Y010091D02*
X006450Y010091D01*
X006431Y010072D01*
X006372Y009931D01*
X006330Y010033D01*
X006272Y010091D01*
X006333Y010026D02*
X006412Y010026D01*
X006468Y009550D02*
X006331Y009550D01*
X007635Y008124D02*
X008520Y008124D01*
X008267Y008282D02*
X009408Y008282D01*
X009408Y008441D02*
X008418Y008441D01*
X008449Y008599D02*
X009409Y008599D01*
X009331Y008124D02*
X008824Y008124D01*
X008224Y007965D02*
X008084Y007965D01*
X008365Y006697D02*
X009811Y006697D01*
X009811Y006539D02*
X008244Y006539D01*
X008085Y006380D02*
X009811Y006380D01*
X009811Y006222D02*
X007984Y006222D01*
X008019Y006063D02*
X009827Y006063D01*
X009946Y005905D02*
X008091Y005905D01*
X008107Y005746D02*
X010048Y005746D01*
X010080Y005588D02*
X008074Y005588D01*
X007979Y005429D02*
X010176Y005429D01*
X010215Y005271D02*
X009869Y005271D01*
X010028Y005112D02*
X010128Y005112D01*
X010545Y004954D02*
X010562Y004954D01*
X010545Y004795D02*
X010562Y004795D01*
X010545Y004637D02*
X010562Y004637D01*
X010267Y004637D02*
X010166Y004637D01*
X010134Y004478D02*
X010974Y004478D01*
X010942Y004637D02*
X010841Y004637D01*
X010979Y005112D02*
X011079Y005112D01*
X011238Y005271D02*
X011489Y005375D01*
X011760Y005375D01*
X012011Y005271D01*
X012049Y005271D01*
X012030Y005252D01*
X012011Y005271D01*
X012049Y005271D02*
X012300Y005375D01*
X012571Y005375D01*
X012822Y005271D01*
X012981Y005112D02*
X013081Y005112D01*
X013980Y005588D02*
X015107Y005588D01*
X015107Y005746D02*
X014012Y005746D01*
X013997Y005905D02*
X015242Y005905D01*
X015390Y006063D02*
X013925Y006063D01*
X013889Y006222D02*
X015232Y006222D01*
X015107Y006380D02*
X014542Y006380D01*
X014641Y006539D02*
X015107Y006539D01*
X015107Y006697D02*
X014643Y006697D01*
X014933Y006856D02*
X015193Y006856D01*
X015110Y007014D02*
X015352Y007014D01*
X015281Y007173D02*
X015203Y007173D01*
X015303Y007965D02*
X015025Y007965D01*
X014730Y008124D02*
X015330Y008124D01*
X015171Y008282D02*
X013934Y008282D01*
X013934Y008124D02*
X014425Y008124D01*
X014129Y007965D02*
X014029Y007965D01*
X013934Y008441D02*
X015107Y008441D01*
X015107Y008599D02*
X013934Y008599D01*
X013934Y008758D02*
X015107Y008758D01*
X015254Y008916D02*
X013934Y008916D01*
X013934Y009075D02*
X015379Y009075D01*
X015220Y009233D02*
X013934Y009233D01*
X013934Y009392D02*
X015107Y009392D01*
X015107Y009550D02*
X013934Y009550D01*
X013934Y009709D02*
X015107Y009709D01*
X015354Y010016D02*
X015372Y010060D01*
X015372Y010082D01*
X015395Y010058D01*
X015354Y010016D01*
X015358Y010026D02*
X015363Y010026D01*
X014615Y009867D02*
X013910Y009867D01*
X013779Y010026D02*
X014496Y010026D01*
X014425Y010184D02*
X013621Y010184D01*
X013462Y010343D02*
X014425Y010343D01*
X014425Y010501D02*
X013304Y010501D01*
X012654Y009392D02*
X012143Y009392D01*
X012131Y009550D02*
X012269Y009550D01*
X012130Y009709D02*
X012087Y009709D01*
X012093Y009867D02*
X012125Y009867D01*
X012095Y009233D02*
X012654Y009233D01*
X012434Y009075D02*
X011959Y009075D01*
X012588Y008124D02*
X013157Y008124D01*
X013023Y007965D02*
X012884Y007965D01*
X010094Y012059D02*
X010016Y012059D01*
X010006Y012055D01*
X009997Y012059D01*
X009764Y012059D01*
X009754Y012055D01*
X009745Y012059D01*
X009512Y012059D01*
X009502Y012055D01*
X009493Y012059D01*
X009260Y012059D01*
X009250Y012055D01*
X009241Y012059D01*
X009008Y012059D01*
X008998Y012055D01*
X008989Y012059D01*
X008756Y012059D01*
X008746Y012055D01*
X008737Y012059D01*
X008504Y012059D01*
X008494Y012055D01*
X008485Y012059D01*
X008406Y012059D01*
X008406Y012323D01*
X008520Y012276D01*
X008690Y012276D01*
X008847Y012341D01*
X008920Y012414D01*
X009823Y012414D01*
X010094Y012143D01*
X010094Y012059D01*
X010094Y012086D02*
X008406Y012086D01*
X008406Y012245D02*
X009992Y012245D01*
X009834Y012403D02*
X008910Y012403D01*
X008177Y012676D02*
X008006Y012847D01*
X008201Y012847D01*
X008177Y012789D01*
X008177Y012676D01*
X008177Y012720D02*
X008132Y012720D01*
X007574Y012099D02*
X007574Y012059D01*
X007496Y012059D01*
X007408Y012023D01*
X007340Y011955D01*
X007304Y011867D01*
X007304Y011498D01*
X007202Y011498D01*
X007202Y012092D01*
X007199Y012099D01*
X007285Y012099D01*
X007574Y012099D01*
X007574Y012086D02*
X007202Y012086D01*
X007202Y011928D02*
X007329Y011928D01*
X007304Y011769D02*
X007202Y011769D01*
X007202Y011611D02*
X007304Y011611D01*
X005883Y014305D02*
X003085Y014305D01*
X003127Y014464D02*
X005883Y014464D01*
X005883Y014622D02*
X003127Y014622D01*
X002395Y015058D02*
X002117Y014779D01*
X001838Y015058D01*
X002117Y015337D01*
X002395Y015058D01*
X002356Y015098D02*
X001878Y015098D01*
X001957Y014939D02*
X002277Y014939D01*
X002118Y014781D02*
X002115Y014781D01*
X002117Y014337D02*
X002395Y014058D01*
X002117Y013779D01*
X001838Y014058D01*
X002117Y014337D01*
X002148Y014305D02*
X002085Y014305D01*
X001927Y014147D02*
X002307Y014147D01*
X002326Y013988D02*
X001908Y013988D01*
X002066Y013830D02*
X002167Y013830D01*
X001395Y014058D02*
X001366Y014028D01*
X001366Y014088D01*
X001395Y014058D01*
X001366Y015028D02*
X001395Y015058D01*
X001366Y015088D01*
X001366Y015028D01*
X002006Y015890D02*
X002228Y015890D01*
X002197Y015256D02*
X002036Y015256D01*
X001366Y016028D02*
X001395Y016058D01*
X001366Y016088D01*
X001366Y016028D01*
X001366Y016049D02*
X001386Y016049D01*
X001366Y017028D02*
X001395Y017058D01*
X001366Y017088D01*
X001366Y017028D01*
X001366Y018028D02*
X001395Y018058D01*
X001366Y018088D01*
X001366Y018028D01*
X001366Y019028D02*
X001395Y019058D01*
X001366Y019088D01*
X001366Y019028D01*
X001366Y019060D02*
X001393Y019060D01*
X001366Y020028D02*
X001395Y020058D01*
X001366Y020088D01*
X001366Y020028D01*
X001974Y021279D02*
X002174Y021279D01*
X002107Y021438D02*
X002067Y021438D01*
X002067Y021596D02*
X002107Y021596D01*
X002107Y021755D02*
X002056Y021755D01*
X001898Y021913D02*
X002251Y021913D01*
X003644Y016483D02*
X003920Y016483D01*
X009880Y016366D02*
X009920Y016366D01*
X010210Y012847D02*
X010674Y012847D01*
X010618Y012710D01*
X010618Y012652D01*
X010500Y012557D01*
X010210Y012847D01*
X010337Y012720D02*
X010622Y012720D01*
X010506Y012562D02*
X010495Y012562D01*
X009127Y006856D02*
X009027Y006856D01*
X009058Y005271D02*
X009096Y005271D01*
X008285Y005271D02*
X007940Y005271D01*
X008026Y005112D02*
X008127Y005112D01*
X007989Y004759D02*
X007989Y004556D01*
X008085Y004323D01*
X007116Y004323D01*
X007213Y004556D01*
X007213Y004759D01*
X007220Y004746D01*
X007261Y004689D01*
X007311Y004639D01*
X007367Y004598D01*
X007430Y004566D01*
X007497Y004545D01*
X007566Y004534D01*
X007592Y004534D01*
X007592Y004971D01*
X007610Y004971D01*
X007610Y004534D01*
X007636Y004534D01*
X007705Y004545D01*
X007772Y004566D01*
X007835Y004598D01*
X007891Y004639D01*
X007941Y004689D01*
X007982Y004746D01*
X007989Y004759D01*
X007989Y004637D02*
X007888Y004637D01*
X008021Y004478D02*
X007181Y004478D01*
X007213Y004637D02*
X007314Y004637D01*
X007592Y004637D02*
X007610Y004637D01*
X007610Y004795D02*
X007592Y004795D01*
X007592Y004954D02*
X007610Y004954D01*
X007175Y005112D02*
X007075Y005112D01*
X006917Y005271D02*
X007262Y005271D01*
X007223Y005429D02*
X005026Y005429D01*
X004987Y005271D02*
X005332Y005271D01*
X005174Y005112D02*
X005074Y005112D01*
X004657Y004954D02*
X004640Y004954D01*
X004640Y004795D02*
X004657Y004795D01*
X004640Y004637D02*
X004657Y004637D01*
X004935Y004637D02*
X005036Y004637D01*
X005068Y004478D02*
X004228Y004478D01*
X004260Y004637D02*
X004361Y004637D01*
X004223Y005112D02*
X004123Y005112D01*
X003964Y005271D02*
X003713Y005375D01*
X003441Y005375D01*
X003190Y005271D01*
X002998Y005079D01*
X002945Y004951D01*
X002838Y005058D01*
X003127Y005347D01*
X003191Y005271D02*
X003051Y005271D01*
X003032Y005112D02*
X002892Y005112D01*
X002942Y004954D02*
X002947Y004954D01*
X003127Y005588D02*
X004175Y005588D01*
X004142Y005746D02*
X003127Y005746D01*
X002991Y005905D02*
X004041Y005905D01*
X004071Y005875D02*
X004071Y005875D01*
X005067Y006063D02*
X006874Y006063D01*
X006858Y006222D02*
X005031Y006222D01*
X005124Y006380D02*
X006858Y006380D01*
X006858Y006539D02*
X005154Y006539D01*
X005202Y006697D02*
X006858Y006697D01*
X006994Y005905D02*
X005138Y005905D01*
X005154Y005746D02*
X007095Y005746D01*
X007128Y005588D02*
X005122Y005588D01*
X006106Y005271D02*
X006143Y005271D01*
X006174Y006856D02*
X006075Y006856D01*
X005363Y006856D02*
X005329Y006856D01*
X015225Y015888D02*
X015225Y016228D01*
X015395Y016058D01*
X015225Y015888D01*
X015225Y015890D02*
X015228Y015890D01*
X015225Y016049D02*
X015386Y016049D01*
X015246Y016207D02*
X015225Y016207D01*
X015349Y020011D02*
X011784Y020011D01*
X012029Y021755D02*
X012982Y021755D01*
X012824Y021913D02*
X012187Y021913D01*
X012344Y022072D02*
X012665Y022072D01*
X012642Y022230D02*
X012344Y022230D01*
X012344Y022389D02*
X013397Y022389D01*
X013397Y022547D02*
X013497Y022547D01*
X013497Y022706D02*
X013397Y022706D01*
X013397Y022864D02*
X013497Y022864D01*
X013497Y023023D02*
X013397Y023023D01*
X013397Y023181D02*
X013497Y023181D01*
X013062Y023181D02*
X011949Y023181D01*
X012107Y023023D02*
X012904Y023023D01*
X012745Y022864D02*
X012266Y022864D01*
X012344Y022706D02*
X012642Y022706D01*
X012642Y022547D02*
X012344Y022547D01*
X016868Y010088D02*
X016868Y010028D01*
X016838Y010058D01*
X016868Y010088D01*
X016868Y009088D02*
X016868Y009028D01*
X016838Y009058D01*
X016868Y009088D01*
X016868Y009075D02*
X016855Y009075D01*
X016868Y008088D02*
X016868Y008028D01*
X016838Y008058D01*
X016868Y008088D01*
X016868Y007088D02*
X016868Y007028D01*
X016838Y007058D01*
X016868Y007088D01*
X016868Y006088D02*
X016868Y006028D01*
X016838Y006058D01*
X016868Y006088D01*
X016868Y006063D02*
X016843Y006063D01*
X016868Y005088D02*
X016868Y005028D01*
X016838Y005058D01*
X016868Y005088D01*
D11*
X015617Y004558D03*
X001617Y004558D03*
D12*
X001617Y005558D03*
X001617Y006558D03*
X001617Y007558D03*
X001617Y008558D03*
X001617Y009558D03*
X001617Y010558D03*
X001617Y011558D03*
X001617Y012558D03*
X001617Y013558D03*
X001617Y014558D03*
X001617Y015558D03*
X001617Y016558D03*
X001617Y017558D03*
X001617Y018558D03*
X001617Y019558D03*
X001617Y020558D03*
X001617Y021558D03*
X002617Y021558D03*
X002617Y020558D03*
X002617Y019558D03*
X002617Y018558D03*
X002617Y017558D03*
X002617Y016558D03*
X002617Y015558D03*
X002617Y014558D03*
X002617Y013558D03*
X002617Y012558D03*
X002617Y011558D03*
X002617Y010558D03*
X002617Y009558D03*
X002617Y008558D03*
X002617Y007558D03*
X002617Y006558D03*
X002617Y005558D03*
X002617Y004558D03*
X015617Y005558D03*
X015617Y006558D03*
X015617Y007558D03*
X015617Y008558D03*
X015617Y009558D03*
X015617Y010558D03*
X015617Y011558D03*
X015617Y012558D03*
X016617Y012558D03*
X016617Y011558D03*
X016617Y010558D03*
X016617Y009558D03*
X016617Y008558D03*
X016617Y007558D03*
X016617Y006558D03*
X016617Y005558D03*
X016617Y004558D03*
X016617Y013558D03*
X016617Y014558D03*
X016617Y015558D03*
X016617Y016558D03*
X016617Y017558D03*
X016617Y018558D03*
X016617Y019558D03*
X016617Y020558D03*
X016617Y021558D03*
X015617Y021558D03*
X015617Y020558D03*
X015617Y019558D03*
X015617Y018558D03*
X015617Y017558D03*
X015617Y016558D03*
X015617Y015558D03*
X015617Y014558D03*
X015617Y013558D03*
D13*
X015941Y022175D03*
X015937Y022687D03*
X015941Y022987D03*
X015941Y022991D03*
D14*
X015941Y022179D03*
D15*
X015941Y022183D03*
D16*
X015941Y022187D03*
X015965Y022671D03*
D17*
X015941Y023051D03*
X015941Y023055D03*
X015941Y023311D03*
X015941Y022191D03*
D18*
X015941Y022195D03*
D19*
X015941Y022199D03*
X015941Y023071D03*
X015941Y023307D03*
D20*
X015941Y022203D03*
D21*
X015941Y022207D03*
D22*
X015941Y022211D03*
D23*
X015941Y022215D03*
X015941Y023299D03*
D24*
X015941Y023107D03*
X015941Y022219D03*
D25*
X015941Y022223D03*
D26*
X015941Y022227D03*
X015941Y023119D03*
D27*
X015941Y023291D03*
X015941Y022231D03*
D28*
X015941Y022235D03*
X015941Y023127D03*
X015941Y023131D03*
D29*
X015941Y023135D03*
X015941Y022239D03*
D30*
X015941Y022243D03*
D31*
X015941Y022247D03*
X015941Y023139D03*
X015941Y023287D03*
D32*
X015941Y023147D03*
X015941Y022251D03*
D33*
X015941Y022255D03*
X015941Y023151D03*
D34*
X015941Y023155D03*
X015941Y022259D03*
D35*
X015941Y022263D03*
D36*
X015941Y022267D03*
X015941Y023159D03*
X015941Y023279D03*
D37*
X015941Y022275D03*
X015941Y022271D03*
D38*
X015941Y022279D03*
X015941Y023275D03*
D39*
X015941Y022283D03*
D40*
X015941Y022287D03*
D41*
X015941Y022291D03*
X015941Y022295D03*
D42*
X015941Y022299D03*
X015941Y023267D03*
D43*
X015941Y022303D03*
D44*
X015941Y022307D03*
X015941Y022311D03*
D45*
X015941Y022315D03*
X015941Y022319D03*
D46*
X015941Y022323D03*
D47*
X015941Y022327D03*
X015941Y023259D03*
D48*
X015941Y022335D03*
X015941Y022331D03*
D49*
X015941Y022339D03*
X015941Y022347D03*
X015941Y023255D03*
D50*
X015941Y022343D03*
D51*
X015941Y022351D03*
X015941Y022355D03*
X015941Y023219D03*
X015941Y023251D03*
D52*
X015941Y023247D03*
X015941Y023227D03*
X015941Y022359D03*
D53*
X015941Y022363D03*
X015941Y023223D03*
D54*
X015941Y023231D03*
X015937Y022599D03*
X015941Y022375D03*
X015941Y022371D03*
X015941Y022367D03*
D55*
X015941Y022379D03*
X015941Y022595D03*
X015941Y023235D03*
X015941Y023239D03*
D56*
X015941Y022383D03*
D57*
X015941Y022387D03*
X015941Y022391D03*
X015941Y022591D03*
D58*
X015941Y022399D03*
X015941Y022395D03*
D59*
X015939Y022403D03*
D60*
X015939Y022407D03*
X015939Y022411D03*
D61*
X015939Y022415D03*
X015939Y022419D03*
D62*
X015941Y022423D03*
D63*
X015941Y022427D03*
D64*
X015943Y022431D03*
D65*
X015941Y022435D03*
X015941Y022527D03*
D66*
X015941Y022439D03*
D67*
X015941Y022443D03*
D68*
X015941Y022447D03*
X015941Y022515D03*
D69*
X015941Y022511D03*
X015941Y022451D03*
D70*
X015941Y022455D03*
X015941Y022507D03*
D71*
X015943Y022459D03*
D72*
X015941Y022463D03*
D73*
X015941Y022467D03*
X015941Y022495D03*
X015941Y022499D03*
D74*
X015943Y022491D03*
X015943Y022475D03*
X015943Y022471D03*
D75*
X015941Y022479D03*
X015941Y022487D03*
D76*
X015941Y022483D03*
D77*
X015943Y022503D03*
D78*
X015941Y022519D03*
D79*
X015941Y022523D03*
D80*
X015951Y022559D03*
X015947Y022571D03*
D81*
X015949Y022563D03*
D82*
X015949Y022567D03*
D83*
X015947Y022575D03*
X015947Y022579D03*
D84*
X015945Y022583D03*
D85*
X015943Y022587D03*
D86*
X015935Y022603D03*
D87*
X015935Y022607D03*
X015935Y022611D03*
D88*
X015835Y022615D03*
D89*
X016167Y022631D03*
X016171Y022619D03*
X016171Y022615D03*
D90*
X015833Y022619D03*
D91*
X015833Y022623D03*
D92*
X016169Y022623D03*
D93*
X015833Y022627D03*
D94*
X016169Y022627D03*
D95*
X015829Y022631D03*
D96*
X015827Y022635D03*
D97*
X016129Y022639D03*
X016133Y022635D03*
X016049Y023011D03*
X016053Y023015D03*
D98*
X016239Y022635D03*
D99*
X015825Y022639D03*
X015941Y023047D03*
D100*
X015941Y022787D03*
X016257Y022639D03*
D101*
X015823Y022643D03*
D102*
X016123Y022643D03*
X015779Y023083D03*
D103*
X015829Y023171D03*
X015813Y022647D03*
D104*
X015941Y022715D03*
X015941Y022871D03*
X016061Y023031D03*
X016121Y022647D03*
D105*
X015807Y022651D03*
D106*
X016115Y022651D03*
X016063Y023035D03*
D107*
X015873Y023091D03*
X015809Y022655D03*
D108*
X016109Y022655D03*
D109*
X015811Y022659D03*
D110*
X015939Y022711D03*
X016103Y022659D03*
D111*
X015817Y022663D03*
X015941Y023323D03*
D112*
X016059Y023043D03*
X016095Y022663D03*
D113*
X015823Y022667D03*
D114*
X016077Y022667D03*
D115*
X015941Y022831D03*
X015941Y022835D03*
X015713Y022671D03*
D116*
X015715Y022675D03*
X015815Y022699D03*
D117*
X015963Y022675D03*
D118*
X015959Y022679D03*
D119*
X015955Y022683D03*
X015835Y023163D03*
D120*
X016107Y022687D03*
D121*
X015935Y022691D03*
D122*
X015815Y022695D03*
D123*
X015969Y022695D03*
X015941Y022939D03*
X015741Y023207D03*
X015941Y023331D03*
D124*
X015753Y023187D03*
X015749Y023191D03*
X015969Y022699D03*
D125*
X015811Y022703D03*
D126*
X015939Y022703D03*
D127*
X016053Y022703D03*
D128*
X015811Y022707D03*
D129*
X015939Y022707D03*
D130*
X015941Y022811D03*
X016057Y022707D03*
D131*
X015809Y022711D03*
D132*
X015939Y022735D03*
X016059Y022711D03*
D133*
X016065Y022719D03*
X015809Y022715D03*
D134*
X016063Y022715D03*
D135*
X015807Y022719D03*
D136*
X015939Y022719D03*
X015783Y023075D03*
X016115Y023099D03*
D137*
X015939Y022723D03*
D138*
X016069Y022723D03*
D139*
X015939Y022727D03*
D140*
X015939Y022731D03*
D141*
X015941Y022783D03*
D142*
X015941Y022791D03*
D143*
X015941Y022795D03*
D144*
X015941Y022799D03*
D145*
X015941Y022803D03*
D146*
X015941Y022807D03*
D147*
X015941Y022815D03*
X015941Y022819D03*
D148*
X015941Y022823D03*
D149*
X015941Y022827D03*
D150*
X015941Y022839D03*
D151*
X015941Y022843D03*
D152*
X015941Y022847D03*
X015941Y022851D03*
D153*
X015941Y022855D03*
D154*
X015941Y022859D03*
X016117Y023095D03*
D155*
X015939Y022863D03*
D156*
X015941Y022867D03*
X016057Y023019D03*
X016061Y023027D03*
X015781Y023079D03*
D157*
X015941Y022875D03*
X016061Y023039D03*
D158*
X015941Y022879D03*
D159*
X015941Y022883D03*
D160*
X015941Y022887D03*
D161*
X015941Y022891D03*
X015941Y022895D03*
D162*
X015941Y022899D03*
D163*
X015941Y022903D03*
D164*
X015941Y022907D03*
X015941Y022911D03*
D165*
X015941Y022915D03*
X015869Y023011D03*
X015865Y023015D03*
X015861Y023019D03*
D166*
X015857Y023031D03*
X015941Y022919D03*
D167*
X015941Y022923D03*
D168*
X015941Y022927D03*
D169*
X015941Y022931D03*
D170*
X015941Y022935D03*
X015745Y023199D03*
D171*
X015941Y022943D03*
D172*
X015941Y022947D03*
D173*
X015941Y022951D03*
D174*
X015941Y022955D03*
X015941Y022959D03*
D175*
X015941Y022963D03*
D176*
X015941Y022967D03*
X015941Y023327D03*
D177*
X015941Y022975D03*
X015941Y022971D03*
D178*
X015941Y022979D03*
D179*
X015941Y022983D03*
D180*
X015941Y022995D03*
D181*
X015941Y022999D03*
D182*
X015941Y023003D03*
D183*
X015941Y023007D03*
D184*
X015861Y023023D03*
D185*
X016057Y023023D03*
D186*
X016127Y023167D03*
X015859Y023027D03*
D187*
X015857Y023035D03*
X015857Y023039D03*
D188*
X015859Y023043D03*
D189*
X015941Y023059D03*
D190*
X015941Y023063D03*
D191*
X015943Y023067D03*
D192*
X016009Y023075D03*
D193*
X015951Y023079D03*
X015947Y023087D03*
D194*
X016109Y023079D03*
X016113Y023087D03*
D195*
X015949Y023083D03*
D196*
X016113Y023083D03*
D197*
X015779Y023087D03*
D198*
X016115Y023091D03*
D199*
X015871Y023095D03*
D200*
X015873Y023099D03*
D201*
X015941Y023103D03*
D202*
X015941Y023111D03*
X015941Y023115D03*
X015941Y023295D03*
D203*
X015941Y023123D03*
D204*
X015941Y023143D03*
D205*
X016121Y023163D03*
D206*
X016071Y023191D03*
X016071Y023195D03*
X015831Y023167D03*
D207*
X016129Y023171D03*
D208*
X015827Y023175D03*
D209*
X016131Y023175D03*
D210*
X015829Y023179D03*
D211*
X016127Y023179D03*
D212*
X015941Y023183D03*
D213*
X016067Y023187D03*
X016075Y023199D03*
D214*
X015747Y023195D03*
D215*
X015743Y023203D03*
D216*
X016077Y023203D03*
D217*
X016077Y023207D03*
X016077Y023211D03*
D218*
X015743Y023211D03*
D219*
X015743Y023215D03*
D220*
X016077Y023215D03*
D221*
X015941Y023243D03*
D222*
X015941Y023263D03*
D223*
X015943Y023271D03*
D224*
X015941Y023283D03*
D225*
X015941Y023303D03*
D226*
X015941Y023315D03*
D227*
X015941Y023319D03*
D228*
X015939Y023335D03*
D229*
X015943Y023339D03*
D230*
X010888Y013650D03*
X010636Y013650D03*
X010384Y013650D03*
X010132Y013650D03*
X009880Y013650D03*
X009628Y013650D03*
X009368Y013650D03*
X009124Y013650D03*
X008872Y013650D03*
X008620Y013650D03*
X008368Y013650D03*
X008116Y013650D03*
X007864Y013650D03*
X007612Y013650D03*
X007612Y011524D03*
X007864Y011524D03*
X008116Y011524D03*
X008368Y011524D03*
X008620Y011524D03*
X008872Y011524D03*
X009124Y011524D03*
X009376Y011524D03*
X009628Y011524D03*
X009880Y011524D03*
X010132Y011524D03*
X010384Y011524D03*
X010636Y011524D03*
X010888Y011524D03*
D231*
X007464Y021700D02*
X007466Y021726D01*
X007472Y021752D01*
X007482Y021777D01*
X007495Y021800D01*
X007511Y021820D01*
X007531Y021838D01*
X007553Y021853D01*
X007576Y021865D01*
X007602Y021873D01*
X007628Y021877D01*
X007654Y021877D01*
X007680Y021873D01*
X007706Y021865D01*
X007730Y021853D01*
X007751Y021838D01*
X007771Y021820D01*
X007787Y021800D01*
X007800Y021777D01*
X007810Y021752D01*
X007816Y021726D01*
X007818Y021700D01*
X007816Y021674D01*
X007810Y021648D01*
X007800Y021623D01*
X007787Y021600D01*
X007771Y021580D01*
X007751Y021562D01*
X007729Y021547D01*
X007706Y021535D01*
X007680Y021527D01*
X007654Y021523D01*
X007628Y021523D01*
X007602Y021527D01*
X007576Y021535D01*
X007552Y021547D01*
X007531Y021562D01*
X007511Y021580D01*
X007495Y021600D01*
X007482Y021623D01*
X007472Y021648D01*
X007466Y021674D01*
X007464Y021700D01*
X005731Y021700D02*
X005733Y021726D01*
X005739Y021752D01*
X005749Y021777D01*
X005762Y021800D01*
X005778Y021820D01*
X005798Y021838D01*
X005820Y021853D01*
X005843Y021865D01*
X005869Y021873D01*
X005895Y021877D01*
X005921Y021877D01*
X005947Y021873D01*
X005973Y021865D01*
X005997Y021853D01*
X006018Y021838D01*
X006038Y021820D01*
X006054Y021800D01*
X006067Y021777D01*
X006077Y021752D01*
X006083Y021726D01*
X006085Y021700D01*
X006083Y021674D01*
X006077Y021648D01*
X006067Y021623D01*
X006054Y021600D01*
X006038Y021580D01*
X006018Y021562D01*
X005996Y021547D01*
X005973Y021535D01*
X005947Y021527D01*
X005921Y021523D01*
X005895Y021523D01*
X005869Y021527D01*
X005843Y021535D01*
X005819Y021547D01*
X005798Y021562D01*
X005778Y021580D01*
X005762Y021600D01*
X005749Y021623D01*
X005739Y021648D01*
X005733Y021674D01*
X005731Y021700D01*
D232*
X011479Y022428D03*
X013447Y022428D03*
D233*
X009362Y022633D02*
X009362Y023105D01*
X004162Y023105D02*
X004162Y022633D01*
X004162Y015805D02*
X004162Y015333D01*
X005328Y013840D02*
X005801Y013840D01*
X009362Y015333D02*
X009362Y015805D01*
X012628Y013840D02*
X013101Y013840D01*
X013101Y008640D02*
X012628Y008640D01*
X005801Y008640D02*
X005328Y008640D01*
D234*
X011384Y018221D02*
X011384Y018761D01*
X012384Y018761D02*
X012384Y018221D01*
X013384Y018221D02*
X013384Y018761D01*
D235*
X013605Y016385D03*
X013605Y015637D03*
X012030Y015637D03*
X012030Y016385D03*
X010455Y016385D03*
X010455Y015637D03*
X008526Y015282D03*
X008526Y016031D03*
X006164Y012172D03*
X006164Y011424D03*
D236*
X008664Y017507D03*
X009412Y017507D03*
X009412Y018373D03*
X008664Y018373D03*
D237*
X011814Y010716D03*
G36*
X008293Y008983D02*
X008570Y009260D01*
X008737Y009093D01*
X008460Y008816D01*
X008293Y008983D01*
G37*
G36*
X005183Y009770D02*
X005460Y010047D01*
X005627Y009880D01*
X005350Y009603D01*
X005183Y009770D01*
G37*
D238*
X009766Y009180D03*
X009766Y008432D03*
X010593Y008432D03*
X011735Y009889D03*
X012483Y009889D03*
X012483Y010716D03*
D239*
X010593Y009101D03*
D240*
G36*
X007876Y008564D02*
X008042Y008730D01*
X008208Y008564D01*
X008042Y008398D01*
X007876Y008564D01*
G37*
G36*
X007292Y009149D02*
X007458Y009315D01*
X007624Y009149D01*
X007458Y008983D01*
X007292Y009149D01*
G37*
G36*
X007820Y009678D02*
X007986Y009844D01*
X008152Y009678D01*
X007986Y009512D01*
X007820Y009678D01*
G37*
G36*
X004766Y009352D02*
X004932Y009518D01*
X005098Y009352D01*
X004932Y009186D01*
X004766Y009352D01*
G37*
G36*
X004181Y009936D02*
X004347Y010102D01*
X004513Y009936D01*
X004347Y009770D01*
X004181Y009936D01*
G37*
G36*
X004710Y010465D02*
X004876Y010631D01*
X005042Y010465D01*
X004876Y010299D01*
X004710Y010465D01*
G37*
D241*
X004943Y020538D03*
X005543Y020538D03*
X005307Y021562D03*
X004707Y021562D03*
X004107Y021562D03*
X004343Y020538D03*
D242*
X004648Y007342D03*
X004648Y006554D03*
X004648Y005767D03*
X004648Y004979D03*
X007601Y004979D03*
X007601Y005767D03*
X007601Y006554D03*
X007601Y007342D03*
X010554Y007342D03*
X010554Y006554D03*
X010554Y005767D03*
X010554Y004979D03*
X013506Y004979D03*
X013506Y005767D03*
X013506Y006554D03*
X013506Y007342D03*
D243*
X012436Y007448D03*
X011625Y007448D03*
X011625Y004692D03*
X012436Y004692D03*
X014577Y004692D03*
X014577Y007448D03*
X009483Y007448D03*
X008672Y007448D03*
X008672Y004692D03*
X009483Y004692D03*
X006530Y004692D03*
X005719Y004692D03*
X005719Y007448D03*
X006530Y007448D03*
X003577Y007448D03*
X003577Y004692D03*
D244*
X003644Y008216D02*
X003644Y012074D01*
X003841Y012271D01*
X003999Y012271D01*
X003644Y012074D02*
X003644Y013845D01*
X003920Y013845D01*
X003644Y013845D02*
X003644Y015538D01*
X003675Y015569D01*
X004162Y015569D01*
X003644Y015538D02*
X003644Y016483D01*
X003644Y016680D01*
X003522Y016558D01*
X002617Y016558D01*
X003644Y016680D02*
X003644Y018294D01*
X003644Y020223D01*
X003310Y020558D01*
X002617Y020558D01*
X004343Y020538D02*
X004347Y020542D01*
X004707Y021562D02*
X004707Y021956D01*
X005219Y022468D01*
X008960Y022468D01*
X009362Y022869D01*
X011384Y022334D02*
X011479Y022428D01*
X011384Y022334D02*
X011384Y018491D01*
X010573Y018491D01*
X010062Y017979D01*
X010062Y017113D01*
X009569Y016621D01*
X009362Y016413D01*
X009362Y015569D01*
X012384Y018491D02*
X012384Y018767D01*
X013054Y019436D01*
X014589Y019436D01*
X014825Y019200D01*
X014825Y017113D01*
X014825Y015027D01*
X014825Y014633D01*
X014825Y010263D01*
X014943Y010145D01*
X014314Y012468D02*
X014314Y017995D01*
X013817Y018491D01*
X013384Y018491D01*
D245*
X013408Y017153D03*
X013605Y015027D03*
X015062Y015027D03*
X015062Y017113D03*
X012069Y014042D03*
X011046Y012625D03*
X011833Y011838D03*
X012857Y012310D03*
X013014Y011168D03*
X013014Y009672D03*
X011715Y009436D03*
X011518Y008491D03*
X009195Y009515D03*
X008644Y008294D03*
X006794Y009830D03*
X005967Y009790D03*
X005101Y010814D03*
X005534Y011405D03*
X003999Y012271D03*
X003920Y013845D03*
X003920Y016483D03*
X005062Y017625D03*
X003959Y018294D03*
X006321Y016759D03*
X007975Y017979D03*
X007502Y019042D03*
X007069Y019869D03*
X008605Y019633D03*
X009432Y019121D03*
X009865Y021050D03*
X010573Y017074D03*
X009904Y016247D03*
X009392Y016759D03*
X008211Y016562D03*
X009314Y014830D03*
X009865Y014948D03*
X008605Y012704D03*
X007227Y013924D03*
X003369Y008216D03*
X005298Y008058D03*
X011833Y017113D03*
X014943Y010145D03*
D246*
X013644Y009751D02*
X013014Y010381D01*
X012817Y010381D01*
X012483Y010716D01*
X012817Y010381D02*
X010573Y010381D01*
X010132Y010822D01*
X010132Y011524D01*
X009880Y011524D02*
X009880Y010799D01*
X010495Y010184D01*
X012699Y010184D01*
X012483Y009968D01*
X012483Y009889D01*
X012699Y010184D02*
X012975Y010184D01*
X013447Y009712D01*
X013447Y007979D01*
X013093Y007625D01*
X013093Y006160D01*
X013487Y005767D01*
X013506Y005767D01*
X013526Y006534D02*
X013506Y006554D01*
X013526Y006534D02*
X014286Y006534D01*
X014353Y006601D01*
X014353Y006719D01*
X014235Y006838D01*
X014117Y006838D01*
X013959Y006995D01*
X013959Y007625D01*
X013644Y007940D01*
X013644Y009751D01*
X011735Y009889D02*
X011715Y009869D01*
X011715Y009436D01*
X011518Y008491D02*
X011203Y008491D01*
X010593Y009101D01*
X010298Y009357D02*
X010298Y008137D01*
X010554Y008432D01*
X010593Y008432D01*
X010298Y008137D02*
X010298Y007979D01*
X010337Y007940D01*
X010731Y007940D01*
X010770Y007901D01*
X010770Y007743D01*
X010810Y007704D01*
X010928Y007704D01*
X010967Y007664D01*
X010967Y006641D01*
X010880Y006554D01*
X010554Y006554D01*
X010101Y006160D02*
X010495Y005767D01*
X010554Y005767D01*
X010101Y006160D02*
X010101Y008097D01*
X009766Y008432D01*
X010101Y008097D02*
X010101Y009318D01*
X009376Y010043D01*
X009376Y011524D01*
X009628Y011524D02*
X009628Y011524D01*
X009628Y010893D01*
X009550Y010814D01*
X009550Y010105D01*
X010298Y009357D01*
X009766Y009180D02*
X009432Y009515D01*
X009195Y009515D01*
X008802Y009594D02*
X009215Y009987D01*
X009215Y010696D01*
X009038Y010814D02*
X009124Y010900D01*
X009124Y011524D01*
X008872Y011524D02*
X008872Y010137D01*
X007475Y008739D01*
X007475Y009149D01*
X007458Y009149D01*
X007475Y008739D02*
X007148Y008412D01*
X007148Y006160D01*
X007542Y005767D01*
X007601Y005767D01*
X007601Y006554D02*
X007849Y006554D01*
X008093Y006798D01*
X008093Y007546D01*
X007896Y007743D01*
X007463Y007743D01*
X007345Y007861D01*
X007345Y008373D01*
X007536Y008564D01*
X008042Y008564D01*
X008515Y009038D02*
X008515Y009307D01*
X008802Y009594D01*
X009038Y010066D02*
X009038Y010814D01*
X008620Y010829D02*
X008620Y011524D01*
X008368Y011524D02*
X008368Y010814D01*
X008132Y010578D01*
X005495Y010578D01*
X004347Y009430D01*
X004347Y009936D01*
X004347Y009430D02*
X004235Y009318D01*
X004235Y006121D01*
X004589Y005767D01*
X004648Y005767D01*
X004648Y006554D02*
X005062Y006968D01*
X005062Y007468D01*
X004825Y007704D01*
X004825Y007822D01*
X004943Y007940D01*
X004943Y008019D01*
X004865Y008097D01*
X004550Y008097D01*
X004432Y008216D01*
X004432Y009279D01*
X004505Y009352D01*
X004932Y009352D01*
X005258Y009121D02*
X004943Y008806D01*
X004943Y008452D01*
X005298Y008097D01*
X005298Y008058D01*
X005258Y009121D02*
X005258Y009678D01*
X005405Y009825D01*
X005405Y009898D01*
X005691Y010184D01*
X008290Y010184D01*
X008605Y010499D01*
X008620Y010829D02*
X008172Y010381D01*
X005573Y010381D01*
X004505Y009352D01*
X004876Y010465D02*
X005101Y010690D01*
X005101Y010814D01*
X005573Y010775D02*
X004077Y012271D01*
X003999Y012271D01*
X005573Y010775D02*
X008054Y010775D01*
X008054Y010971D02*
X006203Y010971D01*
X006125Y011050D01*
X006125Y011385D01*
X006164Y011424D01*
X006164Y012172D02*
X006184Y012192D01*
X006754Y012192D01*
X006912Y012034D01*
X006912Y011286D01*
X006991Y011208D01*
X007542Y011208D01*
X007612Y011278D01*
X007612Y011524D01*
X007864Y011524D02*
X007864Y012224D01*
X007699Y012389D01*
X007227Y012389D01*
X007227Y013924D01*
X007345Y014279D02*
X007030Y014279D01*
X006873Y014121D01*
X006794Y014121D01*
X006754Y014160D01*
X006754Y014397D01*
X006912Y014554D01*
X006912Y019712D01*
X007069Y019869D01*
X007502Y019042D02*
X007109Y018649D01*
X007109Y014869D01*
X007266Y014712D01*
X007325Y014653D01*
X007864Y014113D01*
X007864Y013650D01*
X008116Y013650D02*
X008116Y014373D01*
X007699Y014830D01*
X007502Y015027D01*
X007502Y017979D01*
X007857Y018373D01*
X008664Y018373D01*
X008093Y019160D02*
X007306Y018373D01*
X007306Y014948D01*
X007936Y014318D01*
X008368Y014397D02*
X007699Y015066D01*
X007699Y017704D01*
X007975Y017979D01*
X007857Y017861D01*
X008172Y017468D02*
X008625Y017468D01*
X008664Y017507D01*
X009077Y016956D02*
X009412Y017290D01*
X009412Y017507D01*
X009412Y018373D01*
X009412Y019101D01*
X009432Y019121D01*
X008172Y017468D02*
X008054Y017349D01*
X007896Y017192D01*
X007896Y015145D01*
X008054Y014987D01*
X008620Y014460D01*
X008620Y013650D01*
X008872Y013650D02*
X008872Y015302D01*
X008853Y015282D01*
X008526Y015282D01*
X008872Y015302D02*
X008872Y015570D01*
X008999Y015696D01*
X008999Y015991D01*
X009077Y016070D01*
X009077Y016956D01*
X008211Y016345D02*
X008526Y016031D01*
X008211Y016345D02*
X008211Y016562D01*
X009314Y014830D02*
X009124Y014640D01*
X009124Y013650D01*
X009368Y013650D02*
X009368Y014451D01*
X009865Y014948D01*
X009786Y014554D02*
X009628Y014396D01*
X009628Y013650D01*
X009880Y013650D02*
X009880Y014255D01*
X009983Y014357D01*
X010101Y014357D01*
X010613Y014869D01*
X012837Y014869D01*
X013605Y015637D01*
X013605Y015027D02*
X013132Y014554D01*
X010613Y014554D01*
X010384Y014326D01*
X010384Y013650D01*
X010132Y013650D02*
X010132Y014074D01*
X010384Y014326D01*
X010636Y014105D02*
X010888Y014357D01*
X012347Y014357D01*
X012865Y013840D01*
X012069Y014042D02*
X010967Y014042D01*
X010888Y013963D01*
X010888Y013650D01*
X010888Y013215D01*
X010810Y013137D01*
X007739Y013137D01*
X007621Y013019D01*
X007621Y012822D01*
X008116Y012326D01*
X008116Y011524D01*
X008116Y011034D01*
X008054Y010971D01*
X007835Y009830D02*
X006794Y009830D01*
X007835Y009830D02*
X007986Y009678D01*
X008515Y009038D02*
X008644Y008909D01*
X008644Y008294D01*
X007536Y008564D02*
X009038Y010066D01*
X010384Y011524D02*
X010384Y012263D01*
X009943Y012704D01*
X008605Y012704D01*
X008368Y013650D02*
X008368Y014397D01*
X007612Y014011D02*
X007612Y013650D01*
X007612Y014011D02*
X007345Y014279D01*
X009786Y014554D02*
X010022Y014554D01*
X010534Y015066D01*
X011951Y015066D01*
X012030Y015145D01*
X012030Y015637D01*
X012030Y016385D02*
X012030Y016916D01*
X011833Y017113D01*
X010573Y017074D02*
X010455Y016956D01*
X010455Y016385D01*
X009904Y016247D02*
X009904Y015696D01*
X009963Y015637D01*
X010455Y015637D01*
X010636Y014105D02*
X010636Y013650D01*
X011046Y012625D02*
X010636Y012294D01*
X010636Y011524D01*
X010888Y011524D02*
X010888Y011208D01*
X011006Y011090D01*
X011125Y011090D01*
X011321Y011286D01*
X011833Y011286D01*
X011833Y011838D01*
X011833Y011286D02*
X011833Y010735D01*
X011814Y010716D01*
X014747Y014554D02*
X014825Y014633D01*
X014825Y015027D02*
X015062Y015027D01*
X013605Y016385D02*
X013605Y016956D01*
X013408Y017153D01*
X005022Y018845D02*
X004943Y018767D01*
X003959Y018294D02*
X003644Y018294D01*
D247*
X004943Y018767D02*
X004943Y017743D01*
X005062Y017625D01*
X004943Y018767D02*
X004943Y020538D01*
X004347Y020542D02*
X004347Y020662D01*
X004077Y020932D01*
X004077Y021532D01*
X004107Y021562D01*
X004103Y021558D01*
X002617Y021558D01*
X006321Y016759D02*
X006243Y016680D01*
X006243Y013373D01*
X005534Y012664D01*
X005534Y011405D01*
X005967Y009790D02*
X005565Y009388D01*
X005565Y008640D01*
X009569Y016621D02*
X009432Y016759D01*
X009392Y016759D01*
X012865Y013840D02*
X012865Y012318D01*
X012857Y012310D01*
X013014Y011168D02*
X014314Y012468D01*
X013014Y009672D02*
X013014Y008790D01*
X012865Y008640D01*
X014825Y017113D02*
X015062Y017113D01*
M02*
