G75*
%MOIN*%
%OFA0B0*%
%FSLAX24Y24*%
%IPPOS*%
%LPD*%
%AMOC8*
5,1,8,0,0,1.08239X$1,22.5*
%
%ADD10C,0.0160*%
%ADD11C,0.0540*%
%ADD12OC8,0.0540*%
%ADD13R,0.0312X0.0004*%
%ADD14R,0.0344X0.0004*%
%ADD15R,0.0368X0.0004*%
%ADD16R,0.0392X0.0004*%
%ADD17R,0.0408X0.0004*%
%ADD18R,0.0424X0.0004*%
%ADD19R,0.0432X0.0004*%
%ADD20R,0.0448X0.0004*%
%ADD21R,0.0456X0.0004*%
%ADD22R,0.0472X0.0004*%
%ADD23R,0.0480X0.0004*%
%ADD24R,0.0488X0.0004*%
%ADD25R,0.0496X0.0004*%
%ADD26R,0.0504X0.0004*%
%ADD27R,0.0512X0.0004*%
%ADD28R,0.0520X0.0004*%
%ADD29R,0.0528X0.0004*%
%ADD30R,0.0536X0.0004*%
%ADD31R,0.0536X0.0004*%
%ADD32R,0.0544X0.0004*%
%ADD33R,0.0552X0.0004*%
%ADD34R,0.0560X0.0004*%
%ADD35R,0.0560X0.0004*%
%ADD36R,0.0568X0.0004*%
%ADD37R,0.0576X0.0004*%
%ADD38R,0.0584X0.0004*%
%ADD39R,0.0592X0.0004*%
%ADD40R,0.0592X0.0004*%
%ADD41R,0.0600X0.0004*%
%ADD42R,0.0608X0.0004*%
%ADD43R,0.0608X0.0004*%
%ADD44R,0.0616X0.0004*%
%ADD45R,0.0624X0.0004*%
%ADD46R,0.0632X0.0004*%
%ADD47R,0.0632X0.0004*%
%ADD48R,0.0640X0.0004*%
%ADD49R,0.0648X0.0004*%
%ADD50R,0.0648X0.0004*%
%ADD51R,0.0656X0.0004*%
%ADD52R,0.0664X0.0004*%
%ADD53R,0.0664X0.0004*%
%ADD54R,0.0672X0.0004*%
%ADD55R,0.0680X0.0004*%
%ADD56R,0.0680X0.0004*%
%ADD57R,0.0688X0.0004*%
%ADD58R,0.0696X0.0004*%
%ADD59R,0.0700X0.0004*%
%ADD60R,0.0708X0.0004*%
%ADD61R,0.0716X0.0004*%
%ADD62R,0.0720X0.0004*%
%ADD63R,0.0720X0.0004*%
%ADD64R,0.0724X0.0004*%
%ADD65R,0.0808X0.0004*%
%ADD66R,0.0824X0.0004*%
%ADD67R,0.0832X0.0004*%
%ADD68R,0.0840X0.0004*%
%ADD69R,0.0848X0.0004*%
%ADD70R,0.0856X0.0004*%
%ADD71R,0.0860X0.0004*%
%ADD72R,0.0864X0.0004*%
%ADD73R,0.0864X0.0004*%
%ADD74R,0.0868X0.0004*%
%ADD75R,0.0872X0.0004*%
%ADD76R,0.0872X0.0004*%
%ADD77R,0.0860X0.0004*%
%ADD78R,0.0832X0.0004*%
%ADD79R,0.0824X0.0004*%
%ADD80R,0.0708X0.0004*%
%ADD81R,0.0712X0.0004*%
%ADD82R,0.0712X0.0004*%
%ADD83R,0.0700X0.0004*%
%ADD84R,0.0696X0.0004*%
%ADD85R,0.0692X0.0004*%
%ADD86R,0.0668X0.0004*%
%ADD87R,0.0660X0.0004*%
%ADD88R,0.0452X0.0004*%
%ADD89R,0.0188X0.0004*%
%ADD90R,0.0448X0.0004*%
%ADD91R,0.0440X0.0004*%
%ADD92R,0.0184X0.0004*%
%ADD93R,0.0432X0.0004*%
%ADD94R,0.0184X0.0004*%
%ADD95R,0.0424X0.0004*%
%ADD96R,0.0412X0.0004*%
%ADD97R,0.0128X0.0004*%
%ADD98R,0.0044X0.0004*%
%ADD99R,0.0400X0.0004*%
%ADD100R,0.0008X0.0004*%
%ADD101R,0.0388X0.0004*%
%ADD102R,0.0132X0.0004*%
%ADD103R,0.0360X0.0004*%
%ADD104R,0.0136X0.0004*%
%ADD105R,0.0340X0.0004*%
%ADD106R,0.0140X0.0004*%
%ADD107R,0.0328X0.0004*%
%ADD108R,0.0144X0.0004*%
%ADD109R,0.0324X0.0004*%
%ADD110R,0.0148X0.0004*%
%ADD111R,0.0320X0.0004*%
%ADD112R,0.0156X0.0004*%
%ADD113R,0.0316X0.0004*%
%ADD114R,0.0176X0.0004*%
%ADD115R,0.0080X0.0004*%
%ADD116R,0.0052X0.0004*%
%ADD117R,0.0380X0.0004*%
%ADD118R,0.0372X0.0004*%
%ADD119R,0.0356X0.0004*%
%ADD120R,0.0004X0.0004*%
%ADD121R,0.0308X0.0004*%
%ADD122R,0.0060X0.0004*%
%ADD123R,0.0240X0.0004*%
%ADD124R,0.0232X0.0004*%
%ADD125R,0.0044X0.0004*%
%ADD126R,0.0164X0.0004*%
%ADD127R,0.0056X0.0004*%
%ADD128R,0.0036X0.0004*%
%ADD129R,0.0156X0.0004*%
%ADD130R,0.0048X0.0004*%
%ADD131R,0.0024X0.0004*%
%ADD132R,0.0036X0.0004*%
%ADD133R,0.0016X0.0004*%
%ADD134R,0.0028X0.0004*%
%ADD135R,0.0012X0.0004*%
%ADD136R,0.0124X0.0004*%
%ADD137R,0.0108X0.0004*%
%ADD138R,0.0008X0.0004*%
%ADD139R,0.0092X0.0004*%
%ADD140R,0.0068X0.0004*%
%ADD141R,0.0008X0.0004*%
%ADD142R,0.0016X0.0004*%
%ADD143R,0.0024X0.0004*%
%ADD144R,0.0032X0.0004*%
%ADD145R,0.0032X0.0004*%
%ADD146R,0.0040X0.0004*%
%ADD147R,0.0056X0.0004*%
%ADD148R,0.0064X0.0004*%
%ADD149R,0.0072X0.0004*%
%ADD150R,0.0088X0.0004*%
%ADD151R,0.0096X0.0004*%
%ADD152R,0.0104X0.0004*%
%ADD153R,0.0112X0.0004*%
%ADD154R,0.0120X0.0004*%
%ADD155R,0.0124X0.0004*%
%ADD156R,0.0128X0.0004*%
%ADD157R,0.0144X0.0004*%
%ADD158R,0.0152X0.0004*%
%ADD159R,0.0152X0.0004*%
%ADD160R,0.0160X0.0004*%
%ADD161R,0.0168X0.0004*%
%ADD162R,0.0176X0.0004*%
%ADD163R,0.0184X0.0004*%
%ADD164R,0.0192X0.0004*%
%ADD165R,0.0200X0.0004*%
%ADD166R,0.0208X0.0004*%
%ADD167R,0.0216X0.0004*%
%ADD168R,0.0216X0.0004*%
%ADD169R,0.0224X0.0004*%
%ADD170R,0.0232X0.0004*%
%ADD171R,0.0240X0.0004*%
%ADD172R,0.0248X0.0004*%
%ADD173R,0.0256X0.0004*%
%ADD174R,0.0264X0.0004*%
%ADD175R,0.0272X0.0004*%
%ADD176R,0.0280X0.0004*%
%ADD177R,0.0288X0.0004*%
%ADD178R,0.0296X0.0004*%
%ADD179R,0.0304X0.0004*%
%ADD180R,0.0320X0.0004*%
%ADD181R,0.0328X0.0004*%
%ADD182R,0.0336X0.0004*%
%ADD183R,0.0336X0.0004*%
%ADD184R,0.0200X0.0004*%
%ADD185R,0.0128X0.0004*%
%ADD186R,0.0204X0.0004*%
%ADD187R,0.0216X0.0004*%
%ADD188R,0.0228X0.0004*%
%ADD189R,0.0416X0.0004*%
%ADD190R,0.0424X0.0004*%
%ADD191R,0.0428X0.0004*%
%ADD192R,0.0304X0.0004*%
%ADD193R,0.0180X0.0004*%
%ADD194R,0.0112X0.0004*%
%ADD195R,0.0176X0.0004*%
%ADD196R,0.0112X0.0004*%
%ADD197R,0.0132X0.0004*%
%ADD198R,0.0116X0.0004*%
%ADD199R,0.0332X0.0004*%
%ADD200R,0.0336X0.0004*%
%ADD201R,0.0480X0.0004*%
%ADD202R,0.0496X0.0004*%
%ADD203R,0.0512X0.0004*%
%ADD204R,0.0544X0.0004*%
%ADD205R,0.0208X0.0004*%
%ADD206R,0.0356X0.0004*%
%ADD207R,0.0208X0.0004*%
%ADD208R,0.0364X0.0004*%
%ADD209R,0.0212X0.0004*%
%ADD210R,0.0368X0.0004*%
%ADD211R,0.0220X0.0004*%
%ADD212R,0.0600X0.0004*%
%ADD213R,0.0356X0.0004*%
%ADD214R,0.0228X0.0004*%
%ADD215R,0.0236X0.0004*%
%ADD216R,0.0360X0.0004*%
%ADD217R,0.0368X0.0004*%
%ADD218R,0.0244X0.0004*%
%ADD219R,0.0252X0.0004*%
%ADD220R,0.0376X0.0004*%
%ADD221R,0.0672X0.0004*%
%ADD222R,0.0624X0.0004*%
%ADD223R,0.0596X0.0004*%
%ADD224R,0.0552X0.0004*%
%ADD225R,0.0456X0.0004*%
%ADD226R,0.0384X0.0004*%
%ADD227R,0.0352X0.0004*%
%ADD228R,0.0188X0.0004*%
%ADD229R,0.0108X0.0004*%
%ADD230R,0.0197X0.0984*%
%ADD231R,0.0787X0.0984*%
%ADD232C,0.0000*%
%ADD233OC8,0.1250*%
%ADD234C,0.0472*%
%ADD235C,0.0540*%
%ADD236R,0.1063X0.0591*%
%ADD237R,0.1063X0.0630*%
%ADD238R,0.0472X0.0472*%
%ADD239R,0.0236X0.0394*%
%ADD240R,0.0236X0.0236*%
%ADD241R,0.2000X0.0700*%
%ADD242C,0.0531*%
%ADD243C,0.0886*%
%ADD244C,0.0320*%
%ADD245C,0.0376*%
%ADD246C,0.0100*%
%ADD247C,0.0240*%
D10*
X001046Y004003D02*
X017188Y004003D01*
X017188Y023688D01*
X001046Y023688D01*
X001046Y004003D01*
X001356Y004959D02*
X001356Y005154D01*
X001422Y005088D01*
X001811Y005088D01*
X002087Y005363D01*
X002087Y005753D01*
X001811Y006028D01*
X001422Y006028D01*
X001356Y005962D01*
X001356Y006154D01*
X001422Y006088D01*
X001811Y006088D01*
X002087Y006363D01*
X002087Y006753D01*
X001811Y007028D01*
X001422Y007028D01*
X001356Y006962D01*
X001356Y007154D01*
X001422Y007088D01*
X001811Y007088D01*
X002087Y007363D01*
X002087Y007753D01*
X001811Y008028D01*
X001422Y008028D01*
X001356Y007962D01*
X001356Y008154D01*
X001422Y008088D01*
X001811Y008088D01*
X002087Y008363D01*
X002087Y008753D01*
X001811Y009028D01*
X001422Y009028D01*
X001356Y008962D01*
X001356Y009154D01*
X001422Y009088D01*
X001811Y009088D01*
X002087Y009363D01*
X002087Y009753D01*
X001811Y010028D01*
X001422Y010028D01*
X001356Y009962D01*
X001356Y010154D01*
X001422Y010088D01*
X001811Y010088D01*
X002087Y010363D01*
X002087Y010753D01*
X001811Y011028D01*
X001422Y011028D01*
X001356Y010962D01*
X001356Y011154D01*
X001422Y011088D01*
X001811Y011088D01*
X002087Y011363D01*
X002087Y011753D01*
X001811Y012028D01*
X001422Y012028D01*
X001356Y011962D01*
X001356Y012154D01*
X001422Y012088D01*
X001811Y012088D01*
X002087Y012363D01*
X002087Y012753D01*
X001811Y013028D01*
X001422Y013028D01*
X001356Y012962D01*
X001356Y013154D01*
X001422Y013088D01*
X001811Y013088D01*
X002087Y013363D01*
X002087Y013753D01*
X001811Y014028D01*
X001422Y014028D01*
X001356Y013962D01*
X001356Y014154D01*
X001422Y014088D01*
X001811Y014088D01*
X002087Y014363D01*
X002087Y014753D01*
X001811Y015028D01*
X001422Y015028D01*
X001356Y014962D01*
X001356Y015154D01*
X001422Y015088D01*
X001811Y015088D01*
X002087Y015363D01*
X002087Y015753D01*
X001811Y016028D01*
X001422Y016028D01*
X001356Y015962D01*
X001356Y016154D01*
X001422Y016088D01*
X001811Y016088D01*
X002087Y016363D01*
X002087Y016753D01*
X001811Y017028D01*
X001422Y017028D01*
X001356Y016962D01*
X001356Y017154D01*
X001422Y017088D01*
X001811Y017088D01*
X002087Y017363D01*
X002087Y017753D01*
X001811Y018028D01*
X001422Y018028D01*
X001356Y017962D01*
X001356Y018154D01*
X001422Y018088D01*
X001811Y018088D01*
X002087Y018363D01*
X002087Y018753D01*
X001811Y019028D01*
X001422Y019028D01*
X001356Y018962D01*
X001356Y019154D01*
X001422Y019088D01*
X001811Y019088D01*
X002087Y019363D01*
X002087Y019753D01*
X001811Y020028D01*
X001422Y020028D01*
X001356Y019962D01*
X001356Y020154D01*
X001422Y020088D01*
X001811Y020088D01*
X002087Y020363D01*
X002087Y020753D01*
X001811Y021028D01*
X001422Y021028D01*
X001356Y020962D01*
X001356Y021183D01*
X001430Y021108D01*
X001607Y021108D01*
X001607Y021548D01*
X001627Y021548D01*
X001627Y021568D01*
X002067Y021568D01*
X002067Y021744D01*
X001803Y022008D01*
X001627Y022008D01*
X001627Y021568D01*
X001607Y021568D01*
X001607Y022008D01*
X001430Y022008D01*
X001356Y021934D01*
X001356Y023378D01*
X003846Y023378D01*
X003844Y023376D01*
X003806Y023323D01*
X003776Y023265D01*
X003756Y023203D01*
X003745Y023138D01*
X003745Y022869D01*
X003745Y022600D01*
X003756Y022535D01*
X003776Y022473D01*
X003806Y022415D01*
X003844Y022362D01*
X003890Y022315D01*
X003943Y022277D01*
X004002Y022247D01*
X004064Y022227D01*
X004129Y022217D01*
X004162Y022217D01*
X004194Y022217D01*
X004259Y022227D01*
X004321Y022247D01*
X004380Y022277D01*
X004433Y022315D01*
X004440Y022323D01*
X004441Y022319D01*
X004465Y022278D01*
X004499Y022245D01*
X004540Y022221D01*
X004585Y022209D01*
X004923Y022209D01*
X004923Y022801D01*
X005083Y022801D01*
X005083Y022961D01*
X005576Y022961D01*
X005576Y023378D01*
X007972Y023378D01*
X007972Y022961D01*
X008466Y022961D01*
X008466Y022801D01*
X007972Y022801D01*
X007972Y022365D01*
X007985Y022319D01*
X008008Y022278D01*
X008042Y022245D01*
X008083Y022221D01*
X008129Y022209D01*
X008466Y022209D01*
X008466Y022801D01*
X008626Y022801D01*
X008626Y022209D01*
X008963Y022209D01*
X009009Y022221D01*
X009050Y022245D01*
X009084Y022278D01*
X009089Y022288D01*
X009114Y022263D01*
X009275Y022197D01*
X009448Y022197D01*
X009609Y022263D01*
X009731Y022386D01*
X009798Y022546D01*
X009798Y023192D01*
X009731Y023352D01*
X009706Y023378D01*
X015410Y023378D01*
X015390Y023358D01*
X015390Y023358D01*
X015386Y023354D01*
X015386Y023180D01*
X015394Y023172D01*
X015394Y023168D01*
X015406Y023156D01*
X015406Y023152D01*
X015410Y023148D01*
X015418Y023140D01*
X015418Y023136D01*
X015426Y023128D01*
X015430Y023124D01*
X015430Y023120D01*
X015442Y023108D01*
X015442Y023104D01*
X015454Y023092D01*
X015454Y023088D01*
X015466Y023076D01*
X015466Y023072D01*
X015470Y023068D01*
X015478Y023060D01*
X015478Y023056D01*
X015486Y023048D01*
X015490Y023044D01*
X015490Y023040D01*
X015498Y023032D01*
X015498Y023028D01*
X015510Y023016D01*
X015510Y023012D01*
X015514Y023008D01*
X015522Y023000D01*
X015522Y022996D01*
X015534Y022984D01*
X015534Y022980D01*
X015546Y022968D01*
X015546Y022964D01*
X015558Y022952D01*
X015558Y022948D01*
X015570Y022936D01*
X015570Y022932D01*
X015574Y022928D01*
X015582Y022920D01*
X015582Y022916D01*
X015590Y022908D01*
X015594Y022904D01*
X015594Y022900D01*
X015605Y022889D01*
X015587Y022871D01*
X015523Y022871D01*
X015406Y022754D01*
X015406Y022738D01*
X015402Y022734D01*
X015402Y022726D01*
X015294Y022618D01*
X015294Y022610D01*
X015290Y022606D01*
X015290Y022602D01*
X015290Y022602D01*
X015290Y022424D01*
X015290Y022416D01*
X015294Y022412D01*
X015294Y022404D01*
X015394Y022304D01*
X015398Y022300D01*
X015398Y022296D01*
X015402Y022292D01*
X015402Y022284D01*
X015406Y022280D01*
X015406Y022276D01*
X015410Y022272D01*
X015410Y022268D01*
X015414Y022264D01*
X015414Y022260D01*
X015418Y022256D01*
X015418Y022252D01*
X015422Y022248D01*
X015422Y022244D01*
X015426Y022240D01*
X015426Y022236D01*
X015430Y022232D01*
X015430Y022228D01*
X015438Y022220D01*
X015438Y022216D01*
X015446Y022208D01*
X015446Y022204D01*
X015458Y022192D01*
X015458Y022188D01*
X015478Y022168D01*
X015595Y022051D01*
X015599Y022047D01*
X015603Y022043D01*
X015607Y022039D01*
X015611Y022039D01*
X015619Y022031D01*
X015623Y022031D01*
X015627Y022027D01*
X015631Y022023D01*
X015635Y022023D01*
X015639Y022019D01*
X015643Y022019D01*
X015647Y022015D01*
X015655Y022015D01*
X015659Y022011D01*
X015667Y022011D01*
X015670Y022008D01*
X015627Y022008D01*
X015627Y021568D01*
X016067Y021568D01*
X016067Y021744D01*
X015808Y022003D01*
X016165Y022003D01*
X016169Y022007D01*
X016181Y022007D01*
X016185Y022011D01*
X016193Y022011D01*
X016197Y022015D01*
X016205Y022015D01*
X016209Y022019D01*
X016213Y022019D01*
X016217Y022023D01*
X016221Y022023D01*
X016225Y022027D01*
X016229Y022031D01*
X016233Y022031D01*
X016241Y022039D01*
X016245Y022039D01*
X016249Y022043D01*
X016253Y022047D01*
X016257Y022051D01*
X016374Y022168D01*
X016374Y022168D01*
X016394Y022188D01*
X016394Y022192D01*
X016406Y022204D01*
X016406Y022208D01*
X016414Y022216D01*
X016414Y022220D01*
X016422Y022228D01*
X016422Y022232D01*
X016426Y022236D01*
X016426Y022240D01*
X016430Y022244D01*
X016430Y022248D01*
X016434Y022252D01*
X016434Y022256D01*
X016438Y022260D01*
X016438Y022264D01*
X016442Y022268D01*
X016442Y022272D01*
X016446Y022276D01*
X016446Y022280D01*
X016450Y022284D01*
X016450Y022292D01*
X016454Y022296D01*
X016454Y022300D01*
X016458Y022304D01*
X016458Y022304D01*
X016542Y022388D01*
X016542Y022388D01*
X016554Y022400D01*
X016554Y022404D01*
X016558Y022408D01*
X016558Y022420D01*
X016562Y022424D01*
X016562Y022602D01*
X016558Y022606D01*
X016558Y022614D01*
X016554Y022618D01*
X016554Y022622D01*
X016550Y022626D01*
X016538Y022638D01*
X016466Y022710D01*
X016466Y022718D01*
X016462Y022722D01*
X016462Y022726D01*
X016458Y022730D01*
X016458Y022734D01*
X016454Y022738D01*
X016450Y022742D01*
X016450Y022746D01*
X016446Y022750D01*
X016442Y022754D01*
X016438Y022758D01*
X016321Y022875D01*
X016321Y022875D01*
X016313Y022883D01*
X016309Y022883D01*
X016301Y022891D01*
X016297Y022891D01*
X016293Y022895D01*
X016289Y022895D01*
X016285Y022899D01*
X016281Y022899D01*
X016277Y022903D01*
X016265Y022903D01*
X016261Y022907D01*
X016261Y022907D01*
X016262Y022908D01*
X016262Y022908D01*
X016270Y022916D01*
X016270Y022920D01*
X016278Y022928D01*
X016278Y022928D01*
X016282Y022932D01*
X016282Y022936D01*
X016294Y022948D01*
X016294Y022952D01*
X016306Y022964D01*
X016306Y022968D01*
X016318Y022980D01*
X016318Y022984D01*
X016322Y022988D01*
X016322Y022988D01*
X016330Y022996D01*
X016330Y023000D01*
X016338Y023008D01*
X016338Y023012D01*
X016354Y023028D01*
X016354Y023032D01*
X016362Y023040D01*
X016362Y023044D01*
X016366Y023048D01*
X016366Y023048D01*
X016374Y023056D01*
X016374Y023060D01*
X016382Y023068D01*
X016382Y023068D01*
X016386Y023072D01*
X016386Y023076D01*
X016398Y023088D01*
X016398Y023092D01*
X016410Y023104D01*
X016410Y023108D01*
X016422Y023120D01*
X016422Y023124D01*
X016426Y023128D01*
X016426Y023128D01*
X016434Y023136D01*
X016434Y023140D01*
X016442Y023148D01*
X016442Y023148D01*
X016446Y023152D01*
X016446Y023156D01*
X016458Y023168D01*
X016458Y023172D01*
X016466Y023180D01*
X016466Y023354D01*
X016462Y023358D01*
X016442Y023378D01*
X016878Y023378D01*
X016878Y021962D01*
X016811Y022028D01*
X016422Y022028D01*
X016147Y021753D01*
X016147Y021484D01*
X016067Y021404D01*
X016067Y021548D01*
X015627Y021548D01*
X015627Y021568D01*
X015607Y021568D01*
X015607Y022008D01*
X015430Y022008D01*
X015167Y021744D01*
X015167Y021568D01*
X015607Y021568D01*
X015607Y021548D01*
X015167Y021548D01*
X015167Y021372D01*
X015208Y021330D01*
X010134Y021330D01*
X010085Y021379D01*
X009942Y021438D01*
X009787Y021438D01*
X007955Y021438D01*
X007986Y021469D02*
X008048Y021619D01*
X008048Y021781D01*
X007986Y021930D01*
X007871Y022045D01*
X007722Y022107D01*
X007560Y022107D01*
X007410Y022045D01*
X007295Y021930D01*
X007233Y021781D01*
X007233Y021619D01*
X007295Y021469D01*
X007357Y021408D01*
X006278Y021408D01*
X006258Y021388D01*
X006172Y021388D01*
X006253Y021469D01*
X006315Y021619D01*
X006315Y021781D01*
X006253Y021930D01*
X006139Y022045D01*
X005989Y022107D01*
X005827Y022107D01*
X005678Y022045D01*
X005563Y021930D01*
X005501Y021781D01*
X005501Y021619D01*
X005563Y021469D01*
X005678Y021355D01*
X005827Y021293D01*
X005887Y021293D01*
X005878Y021277D01*
X005866Y021231D01*
X005866Y020716D01*
X006144Y020716D01*
X006144Y020716D01*
X005866Y020716D01*
X005866Y020200D01*
X005878Y020154D01*
X005902Y020113D01*
X005936Y020079D01*
X005977Y020056D01*
X006022Y020043D01*
X006144Y020043D01*
X006144Y020716D01*
X006145Y020716D02*
X005003Y020716D01*
X005083Y020645D02*
X005866Y020645D01*
X005866Y020487D02*
X005576Y020487D01*
X005576Y020636D02*
X005576Y020200D01*
X005564Y020154D01*
X005541Y020113D01*
X005507Y020079D01*
X005466Y020056D01*
X005420Y020043D01*
X005083Y020043D01*
X005083Y020636D01*
X005083Y020796D01*
X004923Y020796D01*
X004923Y021388D01*
X004585Y021388D01*
X004540Y021375D01*
X004499Y021352D01*
X004465Y021318D01*
X004441Y021277D01*
X004429Y021231D01*
X004429Y020796D01*
X004923Y020796D01*
X004923Y020636D01*
X004429Y020636D01*
X004429Y020200D01*
X004441Y020154D01*
X004465Y020113D01*
X004499Y020079D01*
X004540Y020056D01*
X004585Y020043D01*
X004923Y020043D01*
X004923Y020636D01*
X005083Y020636D01*
X005576Y020636D01*
X005576Y020796D02*
X005576Y021231D01*
X005564Y021277D01*
X005541Y021318D01*
X005507Y021352D01*
X005466Y021375D01*
X005420Y021388D01*
X005083Y021388D01*
X005083Y020796D01*
X005576Y020796D01*
X005576Y020804D02*
X005866Y020804D01*
X005866Y020962D02*
X005576Y020962D01*
X005576Y021121D02*
X005866Y021121D01*
X005880Y021279D02*
X005563Y021279D01*
X005594Y021438D02*
X003087Y021438D01*
X003087Y021363D02*
X002811Y021088D01*
X002422Y021088D01*
X002147Y021363D01*
X002147Y021753D01*
X002422Y022028D01*
X002811Y022028D01*
X003087Y021753D01*
X003087Y021363D01*
X003003Y021279D02*
X004443Y021279D01*
X004429Y021121D02*
X002844Y021121D01*
X002803Y021008D02*
X002627Y021008D01*
X002627Y020568D01*
X003067Y020568D01*
X003067Y020744D01*
X002803Y021008D01*
X002849Y020962D02*
X004429Y020962D01*
X004429Y020804D02*
X003007Y020804D01*
X003067Y020645D02*
X004923Y020645D01*
X004923Y020487D02*
X005083Y020487D01*
X005083Y020328D02*
X004923Y020328D01*
X004923Y020170D02*
X005083Y020170D01*
X005568Y020170D02*
X005874Y020170D01*
X005866Y020328D02*
X005576Y020328D01*
X006144Y020328D02*
X006145Y020328D01*
X006144Y020170D02*
X006145Y020170D01*
X006145Y020043D02*
X006258Y020043D01*
X006278Y020023D01*
X006367Y020023D01*
X006367Y019524D01*
X006405Y019432D01*
X006543Y019294D01*
X006603Y019234D01*
X006603Y018977D01*
X006535Y018909D01*
X006535Y018789D01*
X006404Y018920D01*
X006312Y018958D01*
X006295Y018958D01*
X006227Y019026D01*
X005825Y019026D01*
X005708Y018909D01*
X005708Y018507D01*
X005825Y018390D01*
X006227Y018390D01*
X006306Y018310D01*
X006377Y018240D01*
X006469Y018202D01*
X006555Y018202D01*
X006555Y018038D01*
X006555Y017818D01*
X006567Y017772D01*
X006591Y017731D01*
X006613Y017709D01*
X006294Y017709D01*
X006344Y017759D01*
X006344Y018161D01*
X006227Y018278D01*
X005825Y018278D01*
X005708Y018161D01*
X005708Y017759D01*
X005758Y017709D01*
X005447Y017709D01*
X005391Y017845D01*
X005281Y017954D01*
X005139Y018013D01*
X004984Y018013D01*
X004842Y017954D01*
X004733Y017845D01*
X004673Y017702D01*
X004673Y017548D01*
X004733Y017405D01*
X004842Y017296D01*
X004984Y017237D01*
X004997Y017237D01*
X005026Y017208D01*
X005117Y017117D01*
X005234Y017069D01*
X006082Y017069D01*
X005992Y016979D01*
X005933Y016836D01*
X005933Y016682D01*
X005992Y016539D01*
X006102Y016430D01*
X006244Y016371D01*
X006399Y016371D01*
X006541Y016430D01*
X006650Y016539D01*
X006690Y016636D01*
X009023Y016636D01*
X009063Y016539D01*
X009172Y016430D01*
X009315Y016371D01*
X009469Y016371D01*
X009612Y016430D01*
X009721Y016539D01*
X009780Y016682D01*
X009780Y016836D01*
X009721Y016979D01*
X009612Y017088D01*
X009557Y017111D01*
X009574Y017117D01*
X009761Y017305D01*
X010256Y017305D01*
X010244Y017294D01*
X010185Y017151D01*
X010185Y016997D01*
X010244Y016854D01*
X010354Y016745D01*
X010452Y016704D01*
X010452Y016105D01*
X010546Y016011D01*
X010452Y015917D01*
X010452Y015842D01*
X010373Y015809D01*
X010302Y015739D01*
X009899Y015336D01*
X009798Y015336D01*
X009798Y015892D01*
X009731Y016052D01*
X009609Y016175D01*
X009448Y016242D01*
X009275Y016242D01*
X009114Y016175D01*
X009001Y016062D01*
X009001Y016192D01*
X008989Y016238D01*
X008965Y016279D01*
X008932Y016312D01*
X008891Y016336D01*
X008845Y016348D01*
X008367Y016348D01*
X008367Y015931D01*
X008212Y015931D01*
X008212Y015776D01*
X007578Y015776D01*
X007578Y015515D01*
X007591Y015469D01*
X007614Y015428D01*
X007648Y015394D01*
X007689Y015371D01*
X007735Y015358D01*
X008212Y015358D01*
X008212Y015776D01*
X008367Y015776D01*
X008367Y015358D01*
X008845Y015358D01*
X008891Y015371D01*
X008925Y015391D01*
X008925Y015246D01*
X008926Y015244D01*
X008904Y015266D01*
X007676Y015266D01*
X007558Y015149D01*
X007558Y014609D01*
X007261Y014312D01*
X007150Y014312D01*
X007007Y014253D01*
X006898Y014144D01*
X006839Y014001D01*
X006839Y013847D01*
X006856Y013805D01*
X006331Y013805D01*
X006214Y013688D01*
X006214Y012822D01*
X006331Y012705D01*
X007856Y012705D01*
X007999Y012562D01*
X008070Y012492D01*
X008161Y012454D01*
X008306Y012454D01*
X008385Y012375D01*
X008528Y012316D01*
X008682Y012316D01*
X008825Y012375D01*
X008934Y012484D01*
X008993Y012627D01*
X008993Y012781D01*
X008934Y012924D01*
X008825Y013033D01*
X008682Y013092D01*
X008614Y013092D01*
X008614Y013688D01*
X008496Y013805D01*
X007598Y013805D01*
X007615Y013847D01*
X007615Y013959D01*
X007892Y014236D01*
X008904Y014236D01*
X009021Y014353D01*
X009021Y014573D01*
X009094Y014501D01*
X009236Y014442D01*
X009391Y014442D01*
X009533Y014501D01*
X009643Y014610D01*
X009646Y014618D01*
X009787Y014560D01*
X009942Y014560D01*
X010085Y014619D01*
X010194Y014728D01*
X010253Y014871D01*
X010253Y014982D01*
X010500Y015230D01*
X010569Y015161D01*
X011207Y015161D01*
X011282Y015236D01*
X011357Y015161D01*
X011995Y015161D01*
X012069Y015236D01*
X012144Y015161D01*
X012782Y015161D01*
X012877Y015256D01*
X012971Y015161D01*
X013241Y015161D01*
X013217Y015104D01*
X013217Y014949D01*
X013276Y014807D01*
X013385Y014698D01*
X013425Y014681D01*
X013425Y014607D01*
X012335Y014607D01*
X012243Y014569D01*
X012172Y014499D01*
X012104Y014430D01*
X011992Y014430D01*
X011850Y014371D01*
X011740Y014262D01*
X011681Y014120D01*
X011681Y013965D01*
X011740Y013822D01*
X011758Y013805D01*
X010131Y013805D01*
X010014Y013688D01*
X010014Y012822D01*
X010131Y012705D01*
X010659Y012705D01*
X010658Y012702D01*
X010658Y012548D01*
X010717Y012405D01*
X010826Y012296D01*
X010969Y012237D01*
X011123Y012237D01*
X011266Y012296D01*
X011375Y012405D01*
X011434Y012548D01*
X011434Y012702D01*
X011433Y012705D01*
X012296Y012705D01*
X012414Y012822D01*
X012414Y013482D01*
X012469Y013454D01*
X012531Y013434D01*
X012596Y013424D01*
X012865Y013424D01*
X013134Y013424D01*
X013198Y013434D01*
X013261Y013454D01*
X013319Y013484D01*
X013372Y013522D01*
X013418Y013569D01*
X013449Y013611D01*
X013445Y013594D01*
X013445Y013332D01*
X014079Y013332D01*
X014079Y013750D01*
X013601Y013750D01*
X013555Y013738D01*
X013514Y013714D01*
X013490Y013690D01*
X013507Y013742D01*
X013517Y013807D01*
X013517Y013840D01*
X013517Y013867D01*
X013542Y013842D01*
X014770Y013842D01*
X014888Y013959D01*
X014888Y014679D01*
X014984Y014638D01*
X015139Y014638D01*
X015147Y014642D01*
X015147Y014363D01*
X015422Y014088D01*
X015811Y014088D01*
X016087Y014363D01*
X016087Y014753D01*
X015811Y015028D01*
X015450Y015028D01*
X015450Y015088D01*
X015811Y015088D01*
X016087Y015363D01*
X016087Y015753D01*
X015811Y016028D01*
X015422Y016028D01*
X015147Y015753D01*
X015147Y015411D01*
X015139Y015415D01*
X014984Y015415D01*
X014842Y015356D01*
X014763Y015277D01*
X014512Y015277D01*
X014514Y015278D01*
X014514Y015917D01*
X014419Y016011D01*
X014514Y016105D01*
X014514Y016743D01*
X014396Y016860D01*
X013758Y016860D01*
X013684Y016786D01*
X013637Y016833D01*
X013737Y016933D01*
X013796Y017075D01*
X013796Y017230D01*
X013765Y017305D01*
X014417Y017305D01*
X014673Y017049D01*
X014673Y017036D01*
X014733Y016893D01*
X014842Y016784D01*
X014984Y016725D01*
X015139Y016725D01*
X015147Y016728D01*
X015147Y016363D01*
X015422Y016088D01*
X015811Y016088D01*
X016087Y016363D01*
X016087Y016753D01*
X015811Y017028D01*
X015446Y017028D01*
X015450Y017036D01*
X015450Y017088D01*
X015811Y017088D01*
X016087Y017363D01*
X016087Y017753D01*
X015811Y018028D01*
X015422Y018028D01*
X015147Y017753D01*
X015147Y017498D01*
X015139Y017501D01*
X015126Y017501D01*
X014821Y017806D01*
X014821Y017806D01*
X014731Y017896D01*
X014613Y017945D01*
X013773Y017945D01*
X013783Y017955D01*
X013854Y018128D01*
X013854Y018855D01*
X013783Y019027D01*
X013651Y019160D01*
X013478Y019231D01*
X013291Y019231D01*
X013118Y019160D01*
X012986Y019027D01*
X012914Y018855D01*
X012914Y018128D01*
X012986Y017955D01*
X012996Y017945D01*
X012773Y017945D01*
X012783Y017955D01*
X012854Y018128D01*
X012854Y018855D01*
X012783Y019027D01*
X012651Y019160D01*
X012478Y019231D01*
X012291Y019231D01*
X012118Y019160D01*
X011986Y019027D01*
X011914Y018855D01*
X011914Y018128D01*
X011986Y017955D01*
X011996Y017945D01*
X011773Y017945D01*
X011783Y017955D01*
X011854Y018128D01*
X011854Y018855D01*
X011783Y019027D01*
X011651Y019160D01*
X011478Y019231D01*
X011291Y019231D01*
X011118Y019160D01*
X010986Y019027D01*
X010914Y018855D01*
X010914Y018128D01*
X010986Y017955D01*
X010996Y017945D01*
X009839Y017945D01*
X009839Y019013D01*
X009820Y019060D01*
X009820Y019198D01*
X009761Y019341D01*
X009651Y019450D01*
X009509Y019509D01*
X009354Y019509D01*
X009212Y019450D01*
X009103Y019341D01*
X009044Y019198D01*
X009044Y019044D01*
X009103Y018901D01*
X009212Y018792D01*
X009339Y018739D01*
X009339Y017788D01*
X009260Y017709D01*
X008253Y017709D01*
X008304Y017759D01*
X008363Y017902D01*
X008363Y018040D01*
X008382Y018087D01*
X008382Y019407D01*
X008344Y019499D01*
X008274Y019569D01*
X007703Y020141D01*
X007703Y021291D01*
X007701Y021293D01*
X007722Y021293D01*
X007871Y021355D01*
X007986Y021469D01*
X008042Y021352D02*
X008008Y021318D01*
X007985Y021277D01*
X007972Y021231D01*
X007972Y020796D01*
X008466Y020796D01*
X008466Y021388D01*
X008129Y021388D01*
X008083Y021375D01*
X008042Y021352D01*
X007986Y021279D02*
X007703Y021279D01*
X007703Y021121D02*
X007972Y021121D01*
X007972Y020962D02*
X007703Y020962D01*
X007703Y020804D02*
X007972Y020804D01*
X007972Y020636D02*
X007972Y020200D01*
X007985Y020154D01*
X008008Y020113D01*
X008042Y020079D01*
X008083Y020056D01*
X008129Y020043D01*
X008466Y020043D01*
X008466Y020636D01*
X007972Y020636D01*
X007972Y020487D02*
X007703Y020487D01*
X007703Y020645D02*
X008466Y020645D01*
X008466Y020636D02*
X008466Y020796D01*
X008626Y020796D01*
X008626Y021388D01*
X008963Y021388D01*
X009009Y021375D01*
X009050Y021352D01*
X009084Y021318D01*
X009108Y021277D01*
X009120Y021231D01*
X009120Y020796D01*
X008626Y020796D01*
X008626Y020636D01*
X009120Y020636D01*
X009120Y020200D01*
X009108Y020154D01*
X009084Y020113D01*
X009050Y020079D01*
X009009Y020056D01*
X008963Y020043D01*
X008626Y020043D01*
X008626Y020636D01*
X008466Y020636D01*
X008546Y020716D02*
X009353Y021523D01*
X013290Y021523D01*
X015581Y021523D01*
X015617Y021558D01*
X015607Y021596D02*
X015627Y021596D01*
X015627Y021755D02*
X015607Y021755D01*
X015607Y021913D02*
X015627Y021913D01*
X015574Y022072D02*
X014230Y022072D01*
X014252Y022095D02*
X014252Y022378D01*
X013497Y022378D01*
X013497Y021623D01*
X013781Y021623D01*
X014252Y022095D01*
X014252Y022230D02*
X015430Y022230D01*
X015478Y022168D02*
X015478Y022168D01*
X015394Y022304D02*
X015394Y022304D01*
X015309Y022389D02*
X013497Y022389D01*
X013497Y022378D02*
X013497Y022478D01*
X013397Y022478D01*
X013397Y022378D01*
X012642Y022378D01*
X012642Y022095D01*
X013114Y021623D01*
X013397Y021623D01*
X013397Y022378D01*
X013497Y022378D01*
X013447Y022428D02*
X013447Y021680D01*
X013290Y021523D01*
X013397Y021755D02*
X013497Y021755D01*
X013497Y021913D02*
X013397Y021913D01*
X013397Y022072D02*
X013497Y022072D01*
X013497Y022230D02*
X013397Y022230D01*
X013397Y022389D02*
X012304Y022389D01*
X012304Y022547D02*
X012642Y022547D01*
X012642Y022478D02*
X013397Y022478D01*
X013397Y023233D01*
X013114Y023233D01*
X012642Y022762D01*
X012642Y022478D01*
X012642Y022706D02*
X012304Y022706D01*
X012304Y022770D02*
X011821Y023253D01*
X011137Y023253D01*
X010654Y022770D01*
X010654Y022086D01*
X011137Y021603D01*
X011821Y021603D01*
X012304Y022086D01*
X012304Y022770D01*
X012209Y022864D02*
X012745Y022864D01*
X012904Y023023D02*
X012051Y023023D01*
X011892Y023181D02*
X013062Y023181D01*
X013397Y023181D02*
X013497Y023181D01*
X013497Y023233D02*
X013781Y023233D01*
X014252Y022762D01*
X014252Y022478D01*
X013497Y022478D01*
X013497Y023233D01*
X013497Y023023D02*
X013397Y023023D01*
X013397Y022864D02*
X013497Y022864D01*
X013497Y022706D02*
X013397Y022706D01*
X013397Y022547D02*
X013497Y022547D01*
X013832Y023181D02*
X015386Y023181D01*
X015410Y023148D02*
X015410Y023148D01*
X015426Y023128D02*
X015426Y023128D01*
X015470Y023068D02*
X015470Y023068D01*
X015486Y023048D02*
X015486Y023048D01*
X015503Y023023D02*
X013991Y023023D01*
X014149Y022864D02*
X015516Y022864D01*
X015590Y022908D02*
X015590Y022908D01*
X015574Y022928D02*
X015574Y022928D01*
X015514Y023008D02*
X015514Y023008D01*
X015510Y023016D02*
X015510Y023016D01*
X015510Y023016D01*
X015386Y023340D02*
X009737Y023340D01*
X009798Y023181D02*
X011065Y023181D01*
X010907Y023023D02*
X009798Y023023D01*
X009798Y022864D02*
X010748Y022864D01*
X010654Y022706D02*
X009798Y022706D01*
X009798Y022547D02*
X010654Y022547D01*
X010654Y022389D02*
X009733Y022389D01*
X009530Y022230D02*
X010654Y022230D01*
X010668Y022072D02*
X007806Y022072D01*
X007993Y021913D02*
X010827Y021913D01*
X010985Y021755D02*
X008048Y021755D01*
X008038Y021596D02*
X015167Y021596D01*
X015167Y021438D02*
X009943Y021438D01*
X009787Y021438D02*
X009645Y021379D01*
X009536Y021270D01*
X009477Y021127D01*
X009477Y020973D01*
X009536Y020830D01*
X009645Y020721D01*
X009787Y020662D01*
X009942Y020662D01*
X010085Y020721D01*
X010134Y020770D01*
X015164Y020770D01*
X015147Y020753D01*
X015147Y020363D01*
X015422Y020088D01*
X015811Y020088D01*
X016087Y020363D01*
X016087Y020753D01*
X016069Y020770D01*
X016164Y020770D01*
X016147Y020753D01*
X016147Y020363D01*
X016422Y020088D01*
X016811Y020088D01*
X016878Y020154D01*
X016878Y019962D01*
X016811Y020028D01*
X016422Y020028D01*
X016147Y019753D01*
X016147Y019363D01*
X016422Y019088D01*
X016811Y019088D01*
X016878Y019154D01*
X016878Y018962D01*
X016811Y019028D01*
X016422Y019028D01*
X016147Y018753D01*
X016147Y018363D01*
X016422Y018088D01*
X016811Y018088D01*
X016878Y018154D01*
X016878Y017962D01*
X016811Y018028D01*
X016422Y018028D01*
X016147Y017753D01*
X016147Y017363D01*
X016422Y017088D01*
X016811Y017088D01*
X016878Y017154D01*
X016878Y016962D01*
X016811Y017028D01*
X016422Y017028D01*
X016147Y016753D01*
X016147Y016363D01*
X016422Y016088D01*
X016811Y016088D01*
X016878Y016154D01*
X016878Y015962D01*
X016811Y016028D01*
X016422Y016028D01*
X016147Y015753D01*
X016147Y015363D01*
X016422Y015088D01*
X016811Y015088D01*
X016878Y015154D01*
X016878Y014962D01*
X016811Y015028D01*
X016422Y015028D01*
X016147Y014753D01*
X016147Y014363D01*
X016422Y014088D01*
X016811Y014088D01*
X016878Y014154D01*
X016878Y013962D01*
X016811Y014028D01*
X016422Y014028D01*
X016147Y013753D01*
X016147Y013363D01*
X016422Y013088D01*
X016811Y013088D01*
X016878Y013154D01*
X016878Y012962D01*
X016811Y013028D01*
X016422Y013028D01*
X016147Y012753D01*
X016147Y012363D01*
X016422Y012088D01*
X016811Y012088D01*
X016878Y012154D01*
X016878Y011962D01*
X016811Y012028D01*
X016422Y012028D01*
X016147Y011753D01*
X016147Y011363D01*
X016422Y011088D01*
X016811Y011088D01*
X016878Y011154D01*
X016878Y010962D01*
X016811Y011028D01*
X016422Y011028D01*
X016147Y010753D01*
X016147Y010363D01*
X016422Y010088D01*
X016811Y010088D01*
X016878Y010154D01*
X016878Y009962D01*
X016811Y010028D01*
X016422Y010028D01*
X016147Y009753D01*
X016147Y009363D01*
X016422Y009088D01*
X016811Y009088D01*
X016878Y009154D01*
X016878Y008962D01*
X016811Y009028D01*
X016422Y009028D01*
X016147Y008753D01*
X016147Y008363D01*
X016422Y008088D01*
X016811Y008088D01*
X016878Y008154D01*
X016878Y007962D01*
X016811Y008028D01*
X016422Y008028D01*
X016147Y007753D01*
X016147Y007363D01*
X016422Y007088D01*
X016811Y007088D01*
X016878Y007154D01*
X016878Y006962D01*
X016811Y007028D01*
X016422Y007028D01*
X016147Y006753D01*
X016147Y006363D01*
X016422Y006088D01*
X016811Y006088D01*
X016878Y006154D01*
X016878Y005962D01*
X016811Y006028D01*
X016422Y006028D01*
X016147Y005753D01*
X016147Y005363D01*
X016422Y005088D01*
X016811Y005088D01*
X016878Y005154D01*
X016878Y004962D01*
X016811Y005028D01*
X016422Y005028D01*
X016147Y004753D01*
X016147Y004363D01*
X016197Y004313D01*
X016024Y004313D01*
X016087Y004465D01*
X016087Y004652D01*
X016015Y004824D01*
X015883Y004957D01*
X015710Y005028D01*
X015523Y005028D01*
X015350Y004957D01*
X015218Y004824D01*
X015122Y005056D01*
X014941Y005237D01*
X014705Y005335D01*
X014449Y005335D01*
X014213Y005237D01*
X014032Y005056D01*
X013934Y004820D01*
X013934Y004564D01*
X014032Y004328D01*
X014047Y004313D01*
X012966Y004313D01*
X012981Y004328D01*
X013078Y004564D01*
X013078Y004820D01*
X012981Y005056D01*
X012800Y005237D01*
X012563Y005335D01*
X012308Y005335D01*
X012071Y005237D01*
X012030Y005196D01*
X011989Y005237D01*
X011752Y005335D01*
X011497Y005335D01*
X011260Y005237D01*
X011080Y005056D01*
X010982Y004820D01*
X010982Y004564D01*
X011080Y004328D01*
X011094Y004313D01*
X010013Y004313D01*
X010028Y004328D01*
X010126Y004564D01*
X010126Y004820D01*
X010028Y005056D01*
X009847Y005237D01*
X009611Y005335D01*
X009355Y005335D01*
X009119Y005237D01*
X009077Y005196D01*
X009036Y005237D01*
X008800Y005335D01*
X008544Y005335D01*
X008308Y005237D01*
X008127Y005056D01*
X008029Y004820D01*
X008029Y004564D01*
X008127Y004328D01*
X008142Y004313D01*
X007060Y004313D01*
X007075Y004328D01*
X007173Y004564D01*
X007173Y004820D01*
X007075Y005056D01*
X006894Y005237D01*
X006658Y005335D01*
X006402Y005335D01*
X006166Y005237D01*
X006125Y005196D01*
X006083Y005237D01*
X005847Y005335D01*
X005591Y005335D01*
X005355Y005237D01*
X005174Y005056D01*
X005076Y004820D01*
X005076Y004564D01*
X005174Y004328D01*
X005189Y004313D01*
X004108Y004313D01*
X004122Y004328D01*
X004220Y004564D01*
X004220Y004820D01*
X004122Y005056D01*
X003941Y005237D01*
X003705Y005335D01*
X003449Y005335D01*
X003213Y005237D01*
X003032Y005056D01*
X002959Y004880D01*
X002811Y005028D01*
X002422Y005028D01*
X002147Y004753D01*
X002147Y004363D01*
X002197Y004313D01*
X002024Y004313D01*
X002087Y004465D01*
X002087Y004652D01*
X002015Y004824D01*
X001883Y004957D01*
X001710Y005028D01*
X001523Y005028D01*
X001356Y004959D01*
X001356Y005112D02*
X001398Y005112D01*
X001836Y005112D02*
X002398Y005112D01*
X002422Y005088D02*
X002811Y005088D01*
X003087Y005363D01*
X003087Y005753D01*
X002811Y006028D01*
X002422Y006028D01*
X002147Y005753D01*
X002147Y005363D01*
X002422Y005088D01*
X002348Y004954D02*
X001885Y004954D01*
X002027Y004795D02*
X002189Y004795D01*
X002147Y004637D02*
X002087Y004637D01*
X002087Y004478D02*
X002147Y004478D01*
X002190Y004320D02*
X002027Y004320D01*
X001994Y005271D02*
X002239Y005271D01*
X002147Y005429D02*
X002087Y005429D01*
X002087Y005588D02*
X002147Y005588D01*
X002147Y005746D02*
X002087Y005746D01*
X001934Y005905D02*
X002299Y005905D01*
X002422Y006088D02*
X002811Y006088D01*
X003087Y006363D01*
X003087Y006753D01*
X002811Y007028D01*
X002422Y007028D01*
X002147Y006753D01*
X002147Y006363D01*
X002422Y006088D01*
X002288Y006222D02*
X001945Y006222D01*
X002087Y006380D02*
X002147Y006380D01*
X002147Y006539D02*
X002087Y006539D01*
X002087Y006697D02*
X002147Y006697D01*
X002250Y006856D02*
X001983Y006856D01*
X001825Y007014D02*
X002408Y007014D01*
X002422Y007088D02*
X002811Y007088D01*
X002966Y007243D01*
X003032Y007084D01*
X003213Y006903D01*
X003449Y006805D01*
X003705Y006805D01*
X003941Y006903D01*
X004122Y007084D01*
X004187Y007239D01*
X004253Y007078D01*
X004383Y006948D01*
X004253Y006818D01*
X004182Y006647D01*
X004182Y006461D01*
X004253Y006290D01*
X004383Y006160D01*
X004253Y006031D01*
X004182Y005859D01*
X004182Y005674D01*
X004253Y005503D01*
X004384Y005372D01*
X004413Y005360D01*
X004358Y005319D01*
X004308Y005270D01*
X004267Y005213D01*
X004235Y005150D01*
X004213Y005084D01*
X004202Y005014D01*
X004202Y004988D01*
X004640Y004988D01*
X004640Y004971D01*
X004657Y004971D01*
X004657Y004988D01*
X005094Y004988D01*
X005094Y005014D01*
X005083Y005084D01*
X005061Y005150D01*
X005029Y005213D01*
X004988Y005270D01*
X004939Y005319D01*
X004883Y005360D01*
X004912Y005372D01*
X005043Y005503D01*
X005114Y005674D01*
X005114Y005859D01*
X005043Y006031D01*
X004913Y006160D01*
X005043Y006290D01*
X005114Y006461D01*
X005114Y006647D01*
X005043Y006818D01*
X004913Y006948D01*
X005043Y007078D01*
X005110Y007239D01*
X005174Y007084D01*
X005355Y006903D01*
X005591Y006805D01*
X005847Y006805D01*
X006083Y006903D01*
X006125Y006944D01*
X006166Y006903D01*
X006402Y006805D01*
X006658Y006805D01*
X006894Y006903D01*
X007075Y007084D01*
X007139Y007239D01*
X007206Y007078D01*
X007336Y006948D01*
X007206Y006818D01*
X007135Y006647D01*
X007135Y006461D01*
X007206Y006290D01*
X007336Y006160D01*
X007206Y006031D01*
X007135Y005859D01*
X007135Y005674D01*
X007206Y005503D01*
X007337Y005372D01*
X007366Y005360D01*
X007311Y005319D01*
X007261Y005270D01*
X007220Y005213D01*
X007188Y005150D01*
X007166Y005084D01*
X007155Y005014D01*
X007155Y004988D01*
X007592Y004988D01*
X007592Y004971D01*
X007155Y004971D01*
X007155Y004944D01*
X007166Y004875D01*
X007188Y004808D01*
X007220Y004746D01*
X007261Y004689D01*
X007311Y004639D01*
X007367Y004598D01*
X007430Y004566D01*
X007497Y004545D01*
X007566Y004534D01*
X007592Y004534D01*
X007592Y004971D01*
X007610Y004971D01*
X007610Y004988D01*
X008047Y004988D01*
X008047Y005014D01*
X008036Y005084D01*
X008014Y005150D01*
X007982Y005213D01*
X007941Y005270D01*
X007891Y005319D01*
X007836Y005360D01*
X007865Y005372D01*
X007996Y005503D01*
X008067Y005674D01*
X008067Y005859D01*
X007996Y006031D01*
X007866Y006160D01*
X007996Y006290D01*
X008067Y006461D01*
X008067Y006647D01*
X007996Y006818D01*
X007866Y006948D01*
X007996Y007078D01*
X008062Y007239D01*
X008127Y007084D01*
X008308Y006903D01*
X008544Y006805D01*
X008800Y006805D01*
X009036Y006903D01*
X009077Y006944D01*
X009119Y006903D01*
X009355Y006805D01*
X009611Y006805D01*
X009847Y006903D01*
X010028Y007084D01*
X010092Y007239D01*
X010159Y007078D01*
X010289Y006948D01*
X010159Y006818D01*
X010088Y006647D01*
X010088Y006461D01*
X010159Y006290D01*
X010289Y006160D01*
X010159Y006031D01*
X010088Y005859D01*
X010088Y005674D01*
X010159Y005503D01*
X010290Y005372D01*
X010319Y005360D01*
X010263Y005319D01*
X010214Y005270D01*
X010172Y005213D01*
X010141Y005150D01*
X010119Y005084D01*
X010108Y005014D01*
X010108Y004988D01*
X010545Y004988D01*
X010545Y004971D01*
X010108Y004971D01*
X010108Y004944D01*
X010119Y004875D01*
X010141Y004808D01*
X010172Y004746D01*
X010214Y004689D01*
X010263Y004639D01*
X010320Y004598D01*
X010383Y004566D01*
X010449Y004545D01*
X010519Y004534D01*
X010545Y004534D01*
X010545Y004971D01*
X010562Y004971D01*
X010562Y004534D01*
X010589Y004534D01*
X010658Y004545D01*
X010725Y004566D01*
X010787Y004598D01*
X010844Y004639D01*
X010894Y004689D01*
X010935Y004746D01*
X010967Y004808D01*
X010988Y004875D01*
X010999Y004944D01*
X010999Y004971D01*
X010562Y004971D01*
X010562Y004988D01*
X010562Y005301D01*
X010545Y005301D01*
X010545Y004988D01*
X010562Y004988D01*
X010999Y004988D01*
X010999Y005014D01*
X010988Y005084D01*
X010967Y005150D01*
X010935Y005213D01*
X010894Y005270D01*
X010844Y005319D01*
X010788Y005360D01*
X010817Y005372D01*
X010949Y005503D01*
X011019Y005674D01*
X011019Y005859D01*
X010949Y006031D01*
X010819Y006160D01*
X010949Y006290D01*
X011019Y006461D01*
X011019Y006647D01*
X010949Y006818D01*
X010819Y006948D01*
X010949Y007078D01*
X011015Y007239D01*
X011080Y007084D01*
X011260Y006903D01*
X011497Y006805D01*
X011752Y006805D01*
X011989Y006903D01*
X012030Y006944D01*
X012071Y006903D01*
X012308Y006805D01*
X012563Y006805D01*
X012800Y006903D01*
X012981Y007084D01*
X013045Y007239D01*
X013112Y007078D01*
X013241Y006948D01*
X013112Y006818D01*
X013041Y006647D01*
X013041Y006461D01*
X013112Y006290D01*
X013241Y006160D01*
X013112Y006031D01*
X013041Y005859D01*
X013041Y005674D01*
X013112Y005503D01*
X013243Y005372D01*
X013272Y005360D01*
X013216Y005319D01*
X013166Y005270D01*
X013125Y005213D01*
X013093Y005150D01*
X013072Y005084D01*
X013061Y005014D01*
X013061Y004988D01*
X013498Y004988D01*
X013498Y004971D01*
X013061Y004971D01*
X013061Y004944D01*
X013072Y004875D01*
X013093Y004808D01*
X013125Y004746D01*
X013166Y004689D01*
X013216Y004639D01*
X013273Y004598D01*
X013335Y004566D01*
X013402Y004545D01*
X013471Y004534D01*
X013498Y004534D01*
X013498Y004971D01*
X013515Y004971D01*
X013515Y004988D01*
X013952Y004988D01*
X013952Y005014D01*
X013941Y005084D01*
X013920Y005150D01*
X013888Y005213D01*
X013846Y005270D01*
X013797Y005319D01*
X013741Y005360D01*
X013770Y005372D01*
X013901Y005503D01*
X013972Y005674D01*
X013972Y005859D01*
X013901Y006031D01*
X013771Y006160D01*
X013901Y006290D01*
X013972Y006461D01*
X013972Y006647D01*
X013901Y006818D01*
X013771Y006948D01*
X013901Y007078D01*
X013968Y007239D01*
X014032Y007084D01*
X014213Y006903D01*
X014449Y006805D01*
X014705Y006805D01*
X014941Y006903D01*
X015122Y007084D01*
X015211Y007299D01*
X015422Y007088D01*
X015811Y007088D01*
X016087Y007363D01*
X016087Y007753D01*
X015811Y008028D01*
X015422Y008028D01*
X015147Y007753D01*
X015122Y007812D01*
X014941Y007993D01*
X014749Y008073D01*
X014848Y008172D01*
X014848Y008928D01*
X014731Y009045D01*
X013903Y009045D01*
X014074Y009216D01*
X014731Y009216D01*
X014848Y009333D01*
X014848Y009764D01*
X014866Y009757D01*
X015021Y009757D01*
X015163Y009816D01*
X015272Y009925D01*
X015332Y010067D01*
X015332Y010179D01*
X015422Y010088D01*
X015811Y010088D01*
X016087Y010363D01*
X016087Y010753D01*
X015811Y011028D01*
X015422Y011028D01*
X015147Y010753D01*
X015147Y010481D01*
X015021Y010533D01*
X014866Y010533D01*
X014848Y010525D01*
X014848Y010936D01*
X014731Y011053D01*
X013502Y011053D01*
X013385Y010936D01*
X013385Y010141D01*
X013411Y010115D01*
X013385Y010090D01*
X013385Y009791D01*
X013343Y009892D01*
X013334Y009901D01*
X013334Y010939D01*
X013343Y010948D01*
X013402Y011091D01*
X013402Y011246D01*
X013343Y011388D01*
X013234Y011497D01*
X013092Y011556D01*
X012937Y011556D01*
X012794Y011497D01*
X012685Y011388D01*
X012626Y011246D01*
X012626Y011091D01*
X012685Y010948D01*
X012694Y010939D01*
X012694Y009901D01*
X012685Y009892D01*
X012659Y009829D01*
X012616Y009932D01*
X012526Y010022D01*
X012133Y010416D01*
X012015Y010465D01*
X011226Y010465D01*
X011226Y010936D01*
X011109Y011053D01*
X009880Y011053D01*
X009763Y010936D01*
X009763Y010505D01*
X008431Y010505D01*
X008431Y010936D01*
X008314Y011053D01*
X007085Y011053D01*
X006968Y010936D01*
X006968Y010492D01*
X006865Y010450D01*
X006764Y010349D01*
X006575Y010159D01*
X006574Y010159D01*
X006465Y010050D01*
X006465Y010049D01*
X006449Y010034D01*
X006409Y009937D01*
X006351Y009878D01*
X006296Y010010D01*
X006287Y010019D01*
X006287Y011035D01*
X006238Y011153D01*
X005922Y011469D01*
X005922Y011482D01*
X005863Y011624D01*
X005754Y011734D01*
X005611Y011793D01*
X005457Y011793D01*
X005314Y011734D01*
X005205Y011624D01*
X005146Y011482D01*
X005146Y011327D01*
X005202Y011192D01*
X005178Y011202D01*
X005024Y011202D01*
X004881Y011143D01*
X004791Y011053D01*
X003699Y011053D01*
X003582Y010936D01*
X003582Y009452D01*
X003699Y009334D01*
X004928Y009334D01*
X005045Y009452D01*
X005045Y009472D01*
X005441Y009076D01*
X005242Y009076D01*
X005081Y009010D01*
X005045Y008973D01*
X005045Y009046D01*
X004928Y009164D01*
X003699Y009164D01*
X003582Y009046D01*
X003582Y008290D01*
X003699Y008173D01*
X004282Y008173D01*
X004328Y008110D01*
X004328Y007680D01*
X004253Y007605D01*
X004220Y007525D01*
X004220Y007576D01*
X004122Y007812D01*
X003941Y007993D01*
X003705Y008091D01*
X003449Y008091D01*
X003213Y007993D01*
X003032Y007812D01*
X003031Y007809D01*
X002811Y008028D01*
X002422Y008028D01*
X002147Y007753D01*
X002147Y007363D01*
X002422Y007088D01*
X002337Y007173D02*
X001896Y007173D01*
X002055Y007331D02*
X002179Y007331D01*
X002147Y007490D02*
X002087Y007490D01*
X002087Y007648D02*
X002147Y007648D01*
X002201Y007807D02*
X002032Y007807D01*
X001874Y007965D02*
X002359Y007965D01*
X002422Y008088D02*
X002811Y008088D01*
X003087Y008363D01*
X003087Y008753D01*
X002811Y009028D01*
X002422Y009028D01*
X002147Y008753D01*
X002147Y008363D01*
X002422Y008088D01*
X002386Y008124D02*
X001847Y008124D01*
X002006Y008282D02*
X002228Y008282D01*
X002147Y008441D02*
X002087Y008441D01*
X002087Y008599D02*
X002147Y008599D01*
X002152Y008758D02*
X002081Y008758D01*
X001923Y008916D02*
X002310Y008916D01*
X002422Y009088D02*
X002811Y009088D01*
X003087Y009363D01*
X003087Y009753D01*
X002811Y010028D01*
X002422Y010028D01*
X002147Y009753D01*
X002147Y009363D01*
X002422Y009088D01*
X002277Y009233D02*
X001957Y009233D01*
X002087Y009392D02*
X002147Y009392D01*
X002147Y009550D02*
X002087Y009550D01*
X002087Y009709D02*
X002147Y009709D01*
X002261Y009867D02*
X001972Y009867D01*
X001813Y010026D02*
X002420Y010026D01*
X002422Y010088D02*
X002811Y010088D01*
X003087Y010363D01*
X003087Y010753D01*
X002811Y011028D01*
X002422Y011028D01*
X002147Y010753D01*
X002147Y010363D01*
X002422Y010088D01*
X002326Y010184D02*
X001908Y010184D01*
X002066Y010343D02*
X002167Y010343D01*
X002147Y010501D02*
X002087Y010501D01*
X002087Y010660D02*
X002147Y010660D01*
X002212Y010818D02*
X002021Y010818D01*
X001862Y010977D02*
X002371Y010977D01*
X002422Y011088D02*
X002811Y011088D01*
X003087Y011363D01*
X003087Y011753D01*
X002811Y012028D01*
X002422Y012028D01*
X002147Y011753D01*
X002147Y011363D01*
X002422Y011088D01*
X002375Y011135D02*
X001859Y011135D01*
X002017Y011294D02*
X002216Y011294D01*
X002147Y011452D02*
X002087Y011452D01*
X002087Y011611D02*
X002147Y011611D01*
X002163Y011769D02*
X002070Y011769D01*
X001911Y011928D02*
X002322Y011928D01*
X002422Y012088D02*
X002811Y012088D01*
X003087Y012363D01*
X003087Y012753D01*
X002811Y013028D01*
X002422Y013028D01*
X002147Y012753D01*
X002147Y012363D01*
X002422Y012088D01*
X002265Y012245D02*
X001968Y012245D01*
X002087Y012403D02*
X002147Y012403D01*
X002147Y012562D02*
X002087Y012562D01*
X002087Y012720D02*
X002147Y012720D01*
X002273Y012879D02*
X001960Y012879D01*
X001919Y013196D02*
X002314Y013196D01*
X002422Y013088D02*
X002147Y013363D01*
X002147Y013753D01*
X002422Y014028D01*
X002811Y014028D01*
X003087Y013753D01*
X003087Y013363D01*
X002811Y013088D01*
X002422Y013088D01*
X002156Y013354D02*
X002078Y013354D01*
X002087Y013513D02*
X002147Y013513D01*
X002147Y013671D02*
X002087Y013671D01*
X002009Y013830D02*
X002224Y013830D01*
X002382Y013988D02*
X001851Y013988D01*
X001870Y014147D02*
X002363Y014147D01*
X002422Y014088D02*
X002147Y014363D01*
X002147Y014753D01*
X002422Y015028D01*
X002811Y015028D01*
X003087Y014753D01*
X003087Y014363D01*
X002811Y014088D01*
X002422Y014088D01*
X002205Y014305D02*
X002029Y014305D01*
X002087Y014464D02*
X002147Y014464D01*
X002147Y014622D02*
X002087Y014622D01*
X002058Y014781D02*
X002175Y014781D01*
X002333Y014939D02*
X001900Y014939D01*
X001821Y015098D02*
X002412Y015098D01*
X002422Y015088D02*
X002811Y015088D01*
X003087Y015363D01*
X003087Y015753D01*
X002811Y016028D01*
X002422Y016028D01*
X002147Y015753D01*
X002147Y015363D01*
X002422Y015088D01*
X002254Y015256D02*
X001980Y015256D01*
X002087Y015415D02*
X002147Y015415D01*
X002147Y015573D02*
X002087Y015573D01*
X002087Y015732D02*
X002147Y015732D01*
X002284Y015890D02*
X001949Y015890D01*
X001931Y016207D02*
X002331Y016207D01*
X002430Y016108D02*
X002167Y016372D01*
X002167Y016548D01*
X002607Y016548D01*
X002627Y016548D01*
X002627Y016568D01*
X003067Y016568D01*
X003067Y016744D01*
X002803Y017008D01*
X002627Y017008D01*
X002627Y016568D01*
X002607Y016568D01*
X002607Y017008D01*
X002430Y017008D01*
X002167Y016744D01*
X002167Y016568D01*
X002607Y016568D01*
X002607Y016548D01*
X002607Y016108D01*
X002430Y016108D01*
X002627Y016108D02*
X002803Y016108D01*
X003067Y016372D01*
X003067Y016548D01*
X002627Y016548D01*
X002627Y016108D01*
X002627Y016207D02*
X002607Y016207D01*
X002607Y016366D02*
X002627Y016366D01*
X002627Y016524D02*
X002607Y016524D01*
X002607Y016683D02*
X002627Y016683D01*
X002627Y016841D02*
X002607Y016841D01*
X002607Y017000D02*
X002627Y017000D01*
X002811Y017000D02*
X006014Y017000D01*
X005936Y016841D02*
X002970Y016841D01*
X003067Y016683D02*
X005933Y016683D01*
X006007Y016524D02*
X003067Y016524D01*
X003061Y016366D02*
X010452Y016366D01*
X010452Y016524D02*
X009707Y016524D01*
X009780Y016683D02*
X010452Y016683D01*
X010257Y016841D02*
X009778Y016841D01*
X009700Y017000D02*
X010185Y017000D01*
X010188Y017158D02*
X009614Y017158D01*
X009339Y017792D02*
X008318Y017792D01*
X008363Y017951D02*
X009339Y017951D01*
X009339Y018109D02*
X008382Y018109D01*
X008382Y018268D02*
X009339Y018268D01*
X009339Y018426D02*
X008382Y018426D01*
X008382Y018585D02*
X009339Y018585D01*
X009329Y018743D02*
X008382Y018743D01*
X008382Y018902D02*
X009102Y018902D01*
X009044Y019060D02*
X008382Y019060D01*
X008382Y019219D02*
X009052Y019219D01*
X009139Y019377D02*
X008382Y019377D01*
X008307Y019536D02*
X015147Y019536D01*
X015147Y019694D02*
X008149Y019694D01*
X007990Y019853D02*
X015247Y019853D01*
X015147Y019753D02*
X015147Y019363D01*
X015422Y019088D01*
X015811Y019088D01*
X016087Y019363D01*
X016087Y019753D01*
X015811Y020028D01*
X015422Y020028D01*
X015147Y019753D01*
X015147Y019377D02*
X009724Y019377D01*
X009811Y019219D02*
X011262Y019219D01*
X011507Y019219D02*
X012262Y019219D01*
X012507Y019219D02*
X013262Y019219D01*
X013507Y019219D02*
X015291Y019219D01*
X015422Y019028D02*
X015147Y018753D01*
X015147Y018363D01*
X015422Y018088D01*
X015811Y018088D01*
X016087Y018363D01*
X016087Y018753D01*
X015811Y019028D01*
X015422Y019028D01*
X015296Y018902D02*
X013835Y018902D01*
X013854Y018743D02*
X015147Y018743D01*
X015147Y018585D02*
X013854Y018585D01*
X013854Y018426D02*
X015147Y018426D01*
X015242Y018268D02*
X013854Y018268D01*
X013847Y018109D02*
X015401Y018109D01*
X015345Y017951D02*
X013779Y017951D01*
X013796Y017158D02*
X014564Y017158D01*
X014688Y017000D02*
X013765Y017000D01*
X013739Y016841D02*
X013646Y016841D01*
X013040Y016860D02*
X013040Y016985D01*
X013040Y017027D01*
X013020Y017075D01*
X013020Y017230D01*
X013051Y017305D01*
X012174Y017305D01*
X012221Y017190D01*
X012221Y017036D01*
X012162Y016893D01*
X012062Y016793D01*
X012069Y016786D01*
X012144Y016860D01*
X012782Y016860D01*
X012877Y016766D01*
X012971Y016860D01*
X013040Y016860D01*
X012952Y016841D02*
X012801Y016841D01*
X013040Y017000D02*
X012206Y017000D01*
X012221Y017158D02*
X013020Y017158D01*
X012990Y017951D02*
X012779Y017951D01*
X012847Y018109D02*
X012922Y018109D01*
X012914Y018268D02*
X012854Y018268D01*
X012854Y018426D02*
X012914Y018426D01*
X012914Y018585D02*
X012854Y018585D01*
X012854Y018743D02*
X012914Y018743D01*
X012934Y018902D02*
X012835Y018902D01*
X012750Y019060D02*
X013019Y019060D01*
X013750Y019060D02*
X016878Y019060D01*
X016296Y018902D02*
X015937Y018902D01*
X016087Y018743D02*
X016147Y018743D01*
X016147Y018585D02*
X016087Y018585D01*
X016087Y018426D02*
X016147Y018426D01*
X016242Y018268D02*
X015991Y018268D01*
X015833Y018109D02*
X016401Y018109D01*
X016345Y017951D02*
X015888Y017951D01*
X016047Y017792D02*
X016186Y017792D01*
X016147Y017634D02*
X016087Y017634D01*
X016087Y017475D02*
X016147Y017475D01*
X016193Y017317D02*
X016040Y017317D01*
X015882Y017158D02*
X016352Y017158D01*
X016394Y017000D02*
X015839Y017000D01*
X015998Y016841D02*
X016235Y016841D01*
X016147Y016683D02*
X016087Y016683D01*
X016087Y016524D02*
X016147Y016524D01*
X016147Y016366D02*
X016087Y016366D01*
X015931Y016207D02*
X016303Y016207D01*
X016284Y015890D02*
X015949Y015890D01*
X016087Y015732D02*
X016147Y015732D01*
X016147Y015573D02*
X016087Y015573D01*
X016087Y015415D02*
X016147Y015415D01*
X016254Y015256D02*
X015980Y015256D01*
X015821Y015098D02*
X016412Y015098D01*
X016333Y014939D02*
X015900Y014939D01*
X016058Y014781D02*
X016175Y014781D01*
X016147Y014622D02*
X016087Y014622D01*
X016087Y014464D02*
X016147Y014464D01*
X016205Y014305D02*
X016029Y014305D01*
X015870Y014147D02*
X016363Y014147D01*
X016382Y013988D02*
X015851Y013988D01*
X015811Y014028D02*
X015422Y014028D01*
X015147Y013753D01*
X015147Y013363D01*
X015422Y013088D01*
X015811Y013088D01*
X016087Y013363D01*
X016087Y013753D01*
X015811Y014028D01*
X016009Y013830D02*
X016224Y013830D01*
X016147Y013671D02*
X016087Y013671D01*
X016087Y013513D02*
X016147Y013513D01*
X016156Y013354D02*
X016078Y013354D01*
X015919Y013196D02*
X016314Y013196D01*
X016273Y012879D02*
X015960Y012879D01*
X016087Y012753D02*
X015811Y013028D01*
X015422Y013028D01*
X015147Y012753D01*
X015147Y012363D01*
X015422Y012088D01*
X015811Y012088D01*
X016087Y012363D01*
X016087Y012753D01*
X016087Y012720D02*
X016147Y012720D01*
X016147Y012562D02*
X016087Y012562D01*
X016087Y012403D02*
X016147Y012403D01*
X016265Y012245D02*
X015968Y012245D01*
X015803Y012008D02*
X015627Y012008D01*
X015627Y011568D01*
X016067Y011568D01*
X016067Y011744D01*
X015803Y012008D01*
X015883Y011928D02*
X016322Y011928D01*
X016163Y011769D02*
X016042Y011769D01*
X016067Y011611D02*
X016147Y011611D01*
X016067Y011548D02*
X015627Y011548D01*
X015627Y011568D01*
X015607Y011568D01*
X015607Y012008D01*
X015430Y012008D01*
X015167Y011744D01*
X015167Y011568D01*
X015607Y011568D01*
X015607Y011548D01*
X015627Y011548D01*
X015627Y011108D01*
X015803Y011108D01*
X016067Y011372D01*
X016067Y011548D01*
X016067Y011452D02*
X016147Y011452D01*
X016216Y011294D02*
X015989Y011294D01*
X015830Y011135D02*
X016375Y011135D01*
X016371Y010977D02*
X015862Y010977D01*
X016021Y010818D02*
X016212Y010818D01*
X016147Y010660D02*
X016087Y010660D01*
X016087Y010501D02*
X016147Y010501D01*
X016167Y010343D02*
X016066Y010343D01*
X015908Y010184D02*
X016326Y010184D01*
X016420Y010026D02*
X015813Y010026D01*
X015811Y010028D02*
X015422Y010028D01*
X015147Y009753D01*
X015147Y009363D01*
X015422Y009088D01*
X015811Y009088D01*
X016087Y009363D01*
X016087Y009753D01*
X015811Y010028D01*
X015972Y009867D02*
X016261Y009867D01*
X016147Y009709D02*
X016087Y009709D01*
X016087Y009550D02*
X016147Y009550D01*
X016147Y009392D02*
X016087Y009392D01*
X015957Y009233D02*
X016277Y009233D01*
X016310Y008916D02*
X015923Y008916D01*
X015811Y009028D02*
X015422Y009028D01*
X015147Y008753D01*
X015147Y008363D01*
X015422Y008088D01*
X015811Y008088D01*
X016087Y008363D01*
X016087Y008753D01*
X015811Y009028D01*
X016081Y008758D02*
X016152Y008758D01*
X016147Y008599D02*
X016087Y008599D01*
X016087Y008441D02*
X016147Y008441D01*
X016228Y008282D02*
X016006Y008282D01*
X015847Y008124D02*
X016386Y008124D01*
X016359Y007965D02*
X015874Y007965D01*
X016032Y007807D02*
X016201Y007807D01*
X016147Y007648D02*
X016087Y007648D01*
X016087Y007490D02*
X016147Y007490D01*
X016179Y007331D02*
X016055Y007331D01*
X015896Y007173D02*
X016337Y007173D01*
X016408Y007014D02*
X015825Y007014D01*
X015811Y007028D02*
X015422Y007028D01*
X015147Y006753D01*
X015147Y006363D01*
X015422Y006088D01*
X015811Y006088D01*
X016087Y006363D01*
X016087Y006753D01*
X015811Y007028D01*
X015983Y006856D02*
X016250Y006856D01*
X016147Y006697D02*
X016087Y006697D01*
X016087Y006539D02*
X016147Y006539D01*
X016147Y006380D02*
X016087Y006380D01*
X015945Y006222D02*
X016288Y006222D01*
X016299Y005905D02*
X015934Y005905D01*
X015811Y006028D02*
X016087Y005753D01*
X016087Y005363D01*
X015811Y005088D01*
X015422Y005088D01*
X015147Y005363D01*
X015147Y005753D01*
X015422Y006028D01*
X015811Y006028D01*
X016087Y005746D02*
X016147Y005746D01*
X016147Y005588D02*
X016087Y005588D01*
X016087Y005429D02*
X016147Y005429D01*
X016239Y005271D02*
X015994Y005271D01*
X015836Y005112D02*
X016398Y005112D01*
X016348Y004954D02*
X015885Y004954D01*
X016027Y004795D02*
X016189Y004795D01*
X016147Y004637D02*
X016087Y004637D01*
X016087Y004478D02*
X016147Y004478D01*
X016190Y004320D02*
X016027Y004320D01*
X015348Y004954D02*
X015165Y004954D01*
X015066Y005112D02*
X015398Y005112D01*
X015239Y005271D02*
X014859Y005271D01*
X015147Y005429D02*
X013828Y005429D01*
X013845Y005271D02*
X014295Y005271D01*
X014089Y005112D02*
X013932Y005112D01*
X013952Y004971D02*
X013515Y004971D01*
X013515Y004534D01*
X013542Y004534D01*
X013611Y004545D01*
X013678Y004566D01*
X013740Y004598D01*
X013797Y004639D01*
X013846Y004689D01*
X013888Y004746D01*
X013920Y004808D01*
X013941Y004875D01*
X013952Y004944D01*
X013952Y004971D01*
X013952Y004954D02*
X013990Y004954D01*
X013934Y004795D02*
X013913Y004795D01*
X013934Y004637D02*
X013794Y004637D01*
X013970Y004478D02*
X013043Y004478D01*
X013078Y004637D02*
X013219Y004637D01*
X013100Y004795D02*
X013078Y004795D01*
X013061Y004954D02*
X013023Y004954D01*
X013081Y005112D02*
X012924Y005112D01*
X012718Y005271D02*
X013168Y005271D01*
X013185Y005429D02*
X010875Y005429D01*
X010892Y005271D02*
X011342Y005271D01*
X011136Y005112D02*
X010979Y005112D01*
X010999Y004954D02*
X011037Y004954D01*
X010982Y004795D02*
X010960Y004795D01*
X010982Y004637D02*
X010841Y004637D01*
X011017Y004478D02*
X010090Y004478D01*
X010126Y004637D02*
X010267Y004637D01*
X010147Y004795D02*
X010126Y004795D01*
X010108Y004954D02*
X010070Y004954D01*
X010128Y005112D02*
X009971Y005112D01*
X009765Y005271D02*
X010215Y005271D01*
X010232Y005429D02*
X007922Y005429D01*
X007940Y005271D02*
X008390Y005271D01*
X008183Y005112D02*
X008026Y005112D01*
X008047Y004971D02*
X007610Y004971D01*
X007610Y004534D01*
X007636Y004534D01*
X007705Y004545D01*
X007772Y004566D01*
X007835Y004598D01*
X007891Y004639D01*
X007941Y004689D01*
X007982Y004746D01*
X008014Y004808D01*
X008036Y004875D01*
X008047Y004944D01*
X008047Y004971D01*
X008047Y004954D02*
X008084Y004954D01*
X008029Y004795D02*
X008008Y004795D01*
X008029Y004637D02*
X007888Y004637D01*
X008064Y004478D02*
X007138Y004478D01*
X007173Y004637D02*
X007314Y004637D01*
X007194Y004795D02*
X007173Y004795D01*
X007155Y004954D02*
X007117Y004954D01*
X007175Y005112D02*
X007019Y005112D01*
X006812Y005271D02*
X007262Y005271D01*
X007280Y005429D02*
X004970Y005429D01*
X004987Y005271D02*
X005437Y005271D01*
X005230Y005112D02*
X005074Y005112D01*
X005094Y004971D02*
X004657Y004971D01*
X004657Y004534D01*
X004683Y004534D01*
X004753Y004545D01*
X004819Y004566D01*
X004882Y004598D01*
X004939Y004639D01*
X004988Y004689D01*
X005029Y004746D01*
X005061Y004808D01*
X005083Y004875D01*
X005094Y004944D01*
X005094Y004971D01*
X005094Y004954D02*
X005132Y004954D01*
X005076Y004795D02*
X005055Y004795D01*
X005076Y004637D02*
X004935Y004637D01*
X005112Y004478D02*
X004185Y004478D01*
X004220Y004637D02*
X004361Y004637D01*
X004358Y004639D02*
X004415Y004598D01*
X004477Y004566D01*
X004544Y004545D01*
X004613Y004534D01*
X004640Y004534D01*
X004640Y004971D01*
X004202Y004971D01*
X004202Y004944D01*
X004213Y004875D01*
X004235Y004808D01*
X004267Y004746D01*
X004308Y004689D01*
X004358Y004639D01*
X004242Y004795D02*
X004220Y004795D01*
X004202Y004954D02*
X004165Y004954D01*
X004223Y005112D02*
X004066Y005112D01*
X003859Y005271D02*
X004309Y005271D01*
X004327Y005429D02*
X003087Y005429D01*
X003087Y005588D02*
X004218Y005588D01*
X004182Y005746D02*
X003087Y005746D01*
X002934Y005905D02*
X004201Y005905D01*
X004286Y006063D02*
X001356Y006063D01*
X001356Y007014D02*
X001408Y007014D01*
X001356Y007965D02*
X001359Y007965D01*
X001356Y008124D02*
X001386Y008124D01*
X001356Y009075D02*
X003611Y009075D01*
X003582Y008916D02*
X002923Y008916D01*
X003081Y008758D02*
X003582Y008758D01*
X003582Y008599D02*
X003087Y008599D01*
X003087Y008441D02*
X003582Y008441D01*
X003590Y008282D02*
X003006Y008282D01*
X002847Y008124D02*
X004318Y008124D01*
X004328Y007965D02*
X003969Y007965D01*
X004038Y008097D02*
X003487Y008097D01*
X003369Y008216D01*
X003186Y007965D02*
X002874Y007965D01*
X002896Y007173D02*
X002995Y007173D01*
X003101Y007014D02*
X002825Y007014D01*
X002983Y006856D02*
X003326Y006856D01*
X003087Y006697D02*
X004203Y006697D01*
X004182Y006539D02*
X003087Y006539D01*
X003087Y006380D02*
X004216Y006380D01*
X004322Y006222D02*
X002945Y006222D01*
X002994Y005271D02*
X003295Y005271D01*
X003089Y005112D02*
X002836Y005112D01*
X002885Y004954D02*
X002990Y004954D01*
X003042Y004318D02*
X003047Y004313D01*
X003036Y004313D01*
X003042Y004318D01*
X004115Y004320D02*
X005182Y004320D01*
X004657Y004637D02*
X004640Y004637D01*
X004640Y004795D02*
X004657Y004795D01*
X004640Y004954D02*
X004657Y004954D01*
X005078Y005588D02*
X007171Y005588D01*
X007135Y005746D02*
X005114Y005746D01*
X005095Y005905D02*
X007154Y005905D01*
X007239Y006063D02*
X005010Y006063D01*
X004975Y006222D02*
X007274Y006222D01*
X007169Y006380D02*
X005080Y006380D01*
X005114Y006539D02*
X007135Y006539D01*
X007156Y006697D02*
X005093Y006697D01*
X005005Y006856D02*
X005468Y006856D01*
X005243Y007014D02*
X004980Y007014D01*
X005082Y007173D02*
X005137Y007173D01*
X005076Y007525D02*
X005043Y007605D01*
X004968Y007680D01*
X004968Y008192D01*
X004972Y008217D01*
X005045Y008290D01*
X005045Y008307D01*
X005081Y008270D01*
X005242Y008204D01*
X005888Y008204D01*
X006048Y008270D01*
X006171Y008393D01*
X006237Y008553D01*
X006237Y008727D01*
X006171Y008887D01*
X006099Y008959D01*
X006267Y008959D01*
X006385Y009007D01*
X006819Y009442D01*
X006871Y009442D01*
X006968Y009482D01*
X006968Y009333D01*
X007085Y009216D01*
X008314Y009216D01*
X008431Y009333D01*
X008431Y009785D01*
X008916Y009785D01*
X008866Y009735D01*
X008807Y009592D01*
X008807Y009438D01*
X008866Y009295D01*
X008976Y009186D01*
X009118Y009127D01*
X009273Y009127D01*
X009415Y009186D01*
X009524Y009295D01*
X009584Y009438D01*
X009584Y009592D01*
X009524Y009735D01*
X009474Y009785D01*
X009802Y009785D01*
X009802Y009333D01*
X009920Y009216D01*
X011148Y009216D01*
X011265Y009333D01*
X011265Y009825D01*
X011386Y009825D01*
X011386Y009656D01*
X011327Y009513D01*
X011327Y009359D01*
X011386Y009216D01*
X011495Y009107D01*
X011638Y009048D01*
X011792Y009048D01*
X011935Y009107D01*
X012044Y009216D01*
X012076Y009292D01*
X012271Y009097D01*
X012361Y009007D01*
X012374Y009002D01*
X012259Y008887D01*
X012192Y008727D01*
X012192Y008553D01*
X012259Y008393D01*
X012381Y008270D01*
X012542Y008204D01*
X013188Y008204D01*
X013348Y008270D01*
X013385Y008307D01*
X013385Y008271D01*
X013235Y008121D01*
X013186Y008004D01*
X013186Y007680D01*
X013112Y007605D01*
X013078Y007525D01*
X013078Y007576D01*
X012981Y007812D01*
X012800Y007993D01*
X012563Y008091D01*
X012308Y008091D01*
X012071Y007993D01*
X012030Y007952D01*
X011989Y007993D01*
X011752Y008091D01*
X011497Y008091D01*
X011260Y007993D01*
X011080Y007812D01*
X010982Y007576D01*
X010982Y007525D01*
X010949Y007605D01*
X010874Y007680D01*
X010874Y008055D01*
X011148Y008055D01*
X011265Y008172D01*
X011265Y008928D01*
X011148Y009045D01*
X009920Y009045D01*
X009802Y008928D01*
X009802Y008172D01*
X009920Y008055D01*
X010234Y008055D01*
X010234Y007680D01*
X010159Y007605D01*
X010126Y007525D01*
X010126Y007576D01*
X010028Y007812D01*
X009847Y007993D01*
X009611Y008091D01*
X009355Y008091D01*
X009119Y007993D01*
X009077Y007952D01*
X009036Y007993D01*
X008800Y008091D01*
X008544Y008091D01*
X008308Y007993D01*
X008127Y007812D01*
X008029Y007576D01*
X008029Y007525D01*
X007996Y007605D01*
X007921Y007680D01*
X007921Y008055D01*
X008314Y008055D01*
X008431Y008172D01*
X008431Y008928D01*
X008314Y009045D01*
X007085Y009045D01*
X006968Y008928D01*
X006968Y008172D01*
X007085Y008055D01*
X007281Y008055D01*
X007281Y007680D01*
X007206Y007605D01*
X007173Y007525D01*
X007173Y007576D01*
X007075Y007812D01*
X006894Y007993D01*
X006658Y008091D01*
X006402Y008091D01*
X006166Y007993D01*
X006125Y007952D01*
X006083Y007993D01*
X005847Y008091D01*
X005591Y008091D01*
X005355Y007993D01*
X005174Y007812D01*
X005076Y007576D01*
X005076Y007525D01*
X005106Y007648D02*
X005000Y007648D01*
X004968Y007807D02*
X005172Y007807D01*
X005327Y007965D02*
X004968Y007965D01*
X004968Y008124D02*
X007016Y008124D01*
X006968Y008282D02*
X006060Y008282D01*
X006191Y008441D02*
X006968Y008441D01*
X006968Y008599D02*
X006237Y008599D01*
X006224Y008758D02*
X006968Y008758D01*
X006968Y008916D02*
X006141Y008916D01*
X006452Y009075D02*
X011573Y009075D01*
X011379Y009233D02*
X011165Y009233D01*
X011265Y009392D02*
X011327Y009392D01*
X011342Y009550D02*
X011265Y009550D01*
X011265Y009709D02*
X011386Y009709D01*
X011386Y009656D02*
X011386Y009656D01*
X011858Y009075D02*
X012293Y009075D01*
X012288Y008916D02*
X011265Y008916D01*
X011265Y008758D02*
X012205Y008758D01*
X012192Y008599D02*
X011265Y008599D01*
X011265Y008441D02*
X012239Y008441D01*
X012369Y008282D02*
X011265Y008282D01*
X011217Y008124D02*
X013238Y008124D01*
X013186Y007965D02*
X012827Y007965D01*
X012983Y007807D02*
X013186Y007807D01*
X013155Y007648D02*
X013048Y007648D01*
X013018Y007173D02*
X013072Y007173D01*
X013175Y007014D02*
X012911Y007014D01*
X012687Y006856D02*
X013150Y006856D01*
X013062Y006697D02*
X010998Y006697D01*
X011019Y006539D02*
X013041Y006539D01*
X013074Y006380D02*
X010986Y006380D01*
X010880Y006222D02*
X013180Y006222D01*
X013144Y006063D02*
X010916Y006063D01*
X011001Y005905D02*
X013060Y005905D01*
X013041Y005746D02*
X011019Y005746D01*
X010984Y005588D02*
X013076Y005588D01*
X013498Y004954D02*
X013515Y004954D01*
X013498Y004795D02*
X013515Y004795D01*
X013498Y004637D02*
X013515Y004637D01*
X014040Y004320D02*
X012973Y004320D01*
X012153Y005271D02*
X011907Y005271D01*
X011087Y004320D02*
X010020Y004320D01*
X010545Y004637D02*
X010562Y004637D01*
X010545Y004795D02*
X010562Y004795D01*
X010545Y004954D02*
X010562Y004954D01*
X010545Y005112D02*
X010562Y005112D01*
X010545Y005271D02*
X010562Y005271D01*
X010124Y005588D02*
X008031Y005588D01*
X008067Y005746D02*
X010088Y005746D01*
X010107Y005905D02*
X008048Y005905D01*
X007963Y006063D02*
X010192Y006063D01*
X010227Y006222D02*
X007927Y006222D01*
X008033Y006380D02*
X010121Y006380D01*
X010088Y006539D02*
X008067Y006539D01*
X008046Y006697D02*
X010109Y006697D01*
X010197Y006856D02*
X009734Y006856D01*
X009959Y007014D02*
X010222Y007014D01*
X010119Y007173D02*
X010065Y007173D01*
X010096Y007648D02*
X010202Y007648D01*
X010234Y007807D02*
X010030Y007807D01*
X009874Y007965D02*
X010234Y007965D01*
X009851Y008124D02*
X008383Y008124D01*
X008431Y008282D02*
X009802Y008282D01*
X009802Y008441D02*
X008431Y008441D01*
X008431Y008599D02*
X009802Y008599D01*
X009802Y008758D02*
X008431Y008758D01*
X008431Y008916D02*
X009802Y008916D01*
X009903Y009233D02*
X009463Y009233D01*
X009565Y009392D02*
X009802Y009392D01*
X009802Y009550D02*
X009584Y009550D01*
X009535Y009709D02*
X009802Y009709D01*
X009763Y010660D02*
X008431Y010660D01*
X008431Y010818D02*
X009763Y010818D01*
X009804Y010977D02*
X008390Y010977D01*
X008300Y011158D02*
X008341Y011182D01*
X008375Y011215D01*
X008399Y011256D01*
X008411Y011302D01*
X008411Y011563D01*
X007777Y011563D01*
X007777Y011146D01*
X008255Y011146D01*
X008300Y011158D01*
X008409Y011294D02*
X009785Y011294D01*
X009783Y011302D02*
X009795Y011256D01*
X009819Y011215D01*
X009853Y011182D01*
X009894Y011158D01*
X009939Y011146D01*
X010417Y011146D01*
X010417Y011563D01*
X010572Y011563D01*
X010572Y011146D01*
X011050Y011146D01*
X011096Y011158D01*
X011137Y011182D01*
X011170Y011215D01*
X011194Y011256D01*
X011206Y011302D01*
X011206Y011563D01*
X010572Y011563D01*
X010572Y011718D01*
X011206Y011718D01*
X011206Y011979D01*
X011194Y012025D01*
X011170Y012066D01*
X011137Y012100D01*
X011096Y012123D01*
X011050Y012136D01*
X010572Y012136D01*
X010572Y011718D01*
X010417Y011718D01*
X010417Y011563D01*
X009783Y011563D01*
X009783Y011302D01*
X009783Y011452D02*
X008411Y011452D01*
X008411Y011718D02*
X008411Y011979D01*
X008399Y012025D01*
X008375Y012066D01*
X008341Y012100D01*
X008300Y012123D01*
X008255Y012136D01*
X007777Y012136D01*
X007777Y011718D01*
X008411Y011718D01*
X008411Y011769D02*
X009783Y011769D01*
X009783Y011718D02*
X010417Y011718D01*
X010417Y012136D01*
X009939Y012136D01*
X009894Y012123D01*
X009853Y012100D01*
X009819Y012066D01*
X009795Y012025D01*
X009783Y011979D01*
X009783Y011718D01*
X009783Y011928D02*
X008411Y011928D01*
X008355Y012086D02*
X009839Y012086D01*
X010115Y012720D02*
X008993Y012720D01*
X008966Y012562D02*
X010658Y012562D01*
X010718Y012403D02*
X008853Y012403D01*
X008952Y012879D02*
X010014Y012879D01*
X010014Y013037D02*
X008813Y013037D01*
X008614Y013196D02*
X010014Y013196D01*
X010014Y013354D02*
X008614Y013354D01*
X008614Y013513D02*
X010014Y013513D01*
X010014Y013671D02*
X008614Y013671D01*
X008974Y014305D02*
X011784Y014305D01*
X011693Y014147D02*
X007803Y014147D01*
X007645Y013988D02*
X011681Y013988D01*
X011737Y013830D02*
X007608Y013830D01*
X007413Y014464D02*
X003087Y014464D01*
X003087Y014622D02*
X007558Y014622D01*
X007558Y014781D02*
X003058Y014781D01*
X002900Y014939D02*
X004025Y014939D01*
X004002Y014947D02*
X004064Y014927D01*
X004129Y014917D01*
X004162Y014917D01*
X004194Y014917D01*
X004259Y014927D01*
X004321Y014947D01*
X004380Y014977D01*
X004433Y015015D01*
X004479Y015062D01*
X004518Y015115D01*
X004547Y015173D01*
X004568Y015235D01*
X004578Y015300D01*
X004578Y015569D01*
X004162Y015569D01*
X004162Y015569D01*
X004578Y015569D01*
X004578Y015838D01*
X004568Y015903D01*
X004547Y015965D01*
X004518Y016023D01*
X004479Y016076D01*
X004433Y016123D01*
X004380Y016161D01*
X004321Y016191D01*
X004259Y016211D01*
X004194Y016222D01*
X004162Y016222D01*
X004162Y015569D01*
X004162Y014917D01*
X004162Y015569D01*
X004162Y015569D01*
X004162Y015569D01*
X004162Y016222D01*
X004129Y016222D01*
X004064Y016211D01*
X004002Y016191D01*
X003943Y016161D01*
X003890Y016123D01*
X003844Y016076D01*
X003806Y016023D01*
X003776Y015965D01*
X003756Y015903D01*
X003745Y015838D01*
X003745Y015569D01*
X003745Y015300D01*
X003756Y015235D01*
X003776Y015173D01*
X003806Y015115D01*
X003844Y015062D01*
X003890Y015015D01*
X003943Y014977D01*
X004002Y014947D01*
X004162Y014939D02*
X004162Y014939D01*
X004298Y014939D02*
X007558Y014939D01*
X007558Y015098D02*
X004505Y015098D01*
X004571Y015256D02*
X007666Y015256D01*
X007627Y015415D02*
X004578Y015415D01*
X004578Y015573D02*
X007578Y015573D01*
X007578Y015732D02*
X004578Y015732D01*
X004569Y015890D02*
X008212Y015890D01*
X008212Y015931D02*
X007578Y015931D01*
X007578Y016192D01*
X007591Y016238D01*
X007614Y016279D01*
X007648Y016312D01*
X007689Y016336D01*
X007735Y016348D01*
X008212Y016348D01*
X008212Y015931D01*
X008290Y015853D02*
X008093Y016050D01*
X004825Y016050D01*
X004392Y016483D01*
X003920Y016483D01*
X004052Y016207D02*
X002902Y016207D01*
X002949Y015890D02*
X003754Y015890D01*
X003745Y015732D02*
X003087Y015732D01*
X003087Y015573D02*
X003745Y015573D01*
X003745Y015569D02*
X004162Y015569D01*
X003745Y015569D01*
X003745Y015415D02*
X003087Y015415D01*
X002980Y015256D02*
X003752Y015256D01*
X003818Y015098D02*
X002821Y015098D01*
X003029Y014305D02*
X007133Y014305D01*
X006901Y014147D02*
X006083Y014147D01*
X006072Y014157D02*
X006019Y014196D01*
X005961Y014226D01*
X005898Y014246D01*
X005834Y014256D01*
X005565Y014256D01*
X005565Y013840D01*
X006217Y013840D01*
X006217Y013873D01*
X006207Y013937D01*
X006187Y014000D01*
X006157Y014058D01*
X006118Y014111D01*
X006072Y014157D01*
X006190Y013988D02*
X006839Y013988D01*
X006846Y013830D02*
X006217Y013830D01*
X006217Y013840D02*
X005565Y013840D01*
X005565Y013840D01*
X005565Y013840D01*
X005565Y013424D01*
X005834Y013424D01*
X005898Y013434D01*
X005961Y013454D01*
X006019Y013484D01*
X006072Y013522D01*
X006118Y013569D01*
X006157Y013622D01*
X006187Y013680D01*
X006207Y013742D01*
X006217Y013807D01*
X006217Y013840D01*
X006214Y013671D02*
X006182Y013671D01*
X006214Y013513D02*
X006059Y013513D01*
X006214Y013354D02*
X003078Y013354D01*
X003087Y013513D02*
X005070Y013513D01*
X005057Y013522D02*
X005110Y013484D01*
X005169Y013454D01*
X005231Y013434D01*
X005296Y013424D01*
X005565Y013424D01*
X005565Y013840D01*
X005565Y013840D01*
X005565Y014256D01*
X005296Y014256D01*
X005231Y014246D01*
X005169Y014226D01*
X005110Y014196D01*
X005057Y014157D01*
X005011Y014111D01*
X004972Y014058D01*
X004943Y014000D01*
X004923Y013937D01*
X004912Y013873D01*
X004912Y013840D01*
X005565Y013840D01*
X005565Y013840D01*
X004912Y013840D01*
X004912Y013807D01*
X004923Y013742D01*
X004943Y013680D01*
X004972Y013622D01*
X005011Y013569D01*
X005057Y013522D01*
X004947Y013671D02*
X003087Y013671D01*
X003009Y013830D02*
X004912Y013830D01*
X004939Y013988D02*
X002851Y013988D01*
X002870Y014147D02*
X005047Y014147D01*
X005565Y014147D02*
X005565Y014147D01*
X005565Y013988D02*
X005565Y013988D01*
X005565Y013830D02*
X005565Y013830D01*
X005565Y013671D02*
X005565Y013671D01*
X005565Y013513D02*
X005565Y013513D01*
X006214Y013196D02*
X002919Y013196D01*
X002960Y012879D02*
X006214Y012879D01*
X006214Y013037D02*
X001356Y013037D01*
X001356Y012086D02*
X003658Y012086D01*
X003671Y012100D02*
X003638Y012066D01*
X003614Y012025D01*
X003602Y011979D01*
X003602Y011718D01*
X004236Y011718D01*
X004236Y011563D01*
X004391Y011563D01*
X004391Y011146D01*
X004869Y011146D01*
X004914Y011158D01*
X004956Y011182D01*
X004989Y011215D01*
X005013Y011256D01*
X005025Y011302D01*
X005025Y011563D01*
X004391Y011563D01*
X004391Y011718D01*
X005025Y011718D01*
X005025Y011979D01*
X005013Y012025D01*
X004989Y012066D01*
X004956Y012100D01*
X004914Y012123D01*
X004869Y012136D01*
X004391Y012136D01*
X004391Y011718D01*
X004236Y011718D01*
X004236Y012136D01*
X003758Y012136D01*
X003713Y012123D01*
X003671Y012100D01*
X003602Y011928D02*
X002911Y011928D01*
X003070Y011769D02*
X003602Y011769D01*
X003602Y011563D02*
X003602Y011302D01*
X003614Y011256D01*
X003638Y011215D01*
X003671Y011182D01*
X003713Y011158D01*
X003758Y011146D01*
X004236Y011146D01*
X004236Y011563D01*
X003602Y011563D01*
X003602Y011452D02*
X003087Y011452D01*
X003087Y011611D02*
X004236Y011611D01*
X004391Y011611D02*
X005199Y011611D01*
X005146Y011452D02*
X005025Y011452D01*
X005023Y011294D02*
X005160Y011294D01*
X005433Y011026D02*
X005457Y011016D01*
X005470Y011016D01*
X005647Y010839D01*
X005647Y010019D01*
X005638Y010010D01*
X005579Y009868D01*
X005579Y009844D01*
X005045Y010378D01*
X005045Y010405D01*
X005066Y010426D01*
X005178Y010426D01*
X005321Y010485D01*
X005430Y010594D01*
X005489Y010737D01*
X005489Y010891D01*
X005433Y011026D01*
X005453Y010977D02*
X005509Y010977D01*
X005489Y010818D02*
X005647Y010818D01*
X005647Y010660D02*
X005457Y010660D01*
X005337Y010501D02*
X005647Y010501D01*
X005647Y010343D02*
X005080Y010343D01*
X005238Y010184D02*
X005647Y010184D01*
X005647Y010026D02*
X005397Y010026D01*
X005555Y009867D02*
X005579Y009867D01*
X005126Y009392D02*
X004985Y009392D01*
X005016Y009075D02*
X005239Y009075D01*
X005284Y009233D02*
X002957Y009233D01*
X003087Y009392D02*
X003642Y009392D01*
X003582Y009550D02*
X003087Y009550D01*
X003087Y009709D02*
X003582Y009709D01*
X003582Y009867D02*
X002972Y009867D01*
X002813Y010026D02*
X003582Y010026D01*
X003582Y010184D02*
X002908Y010184D01*
X003066Y010343D02*
X003582Y010343D01*
X003582Y010501D02*
X003087Y010501D01*
X003087Y010660D02*
X003582Y010660D01*
X003582Y010818D02*
X003021Y010818D01*
X002862Y010977D02*
X003623Y010977D01*
X003604Y011294D02*
X003017Y011294D01*
X002859Y011135D02*
X004874Y011135D01*
X004391Y011294D02*
X004236Y011294D01*
X004236Y011452D02*
X004391Y011452D01*
X004391Y011769D02*
X004236Y011769D01*
X004236Y011928D02*
X004391Y011928D01*
X004391Y012086D02*
X004236Y012086D01*
X004969Y012086D02*
X007044Y012086D01*
X007057Y012100D02*
X007024Y012066D01*
X007000Y012025D01*
X006988Y011979D01*
X006988Y011718D01*
X007622Y011718D01*
X007622Y011563D01*
X007777Y011563D01*
X007777Y011718D01*
X007622Y011718D01*
X007622Y012136D01*
X007144Y012136D01*
X007098Y012123D01*
X007057Y012100D01*
X006988Y011928D02*
X005025Y011928D01*
X005025Y011769D02*
X005401Y011769D01*
X005667Y011769D02*
X006988Y011769D01*
X006988Y011563D02*
X006988Y011302D01*
X007000Y011256D01*
X007024Y011215D01*
X007057Y011182D01*
X007098Y011158D01*
X007144Y011146D01*
X007622Y011146D01*
X007622Y011563D01*
X006988Y011563D01*
X006988Y011452D02*
X005939Y011452D01*
X005869Y011611D02*
X007622Y011611D01*
X007777Y011611D02*
X010417Y011611D01*
X010572Y011611D02*
X014039Y011611D01*
X014039Y011563D02*
X014039Y011718D01*
X013405Y011718D01*
X013405Y011979D01*
X013417Y012025D01*
X013441Y012066D01*
X013475Y012100D01*
X013516Y012123D01*
X013561Y012136D01*
X014039Y012136D01*
X014039Y011718D01*
X014194Y011718D01*
X014828Y011718D01*
X014828Y011979D01*
X014816Y012025D01*
X014792Y012066D01*
X014759Y012100D01*
X014718Y012123D01*
X014672Y012136D01*
X014194Y012136D01*
X014194Y011718D01*
X014194Y011563D01*
X014194Y011146D01*
X014672Y011146D01*
X014718Y011158D01*
X014759Y011182D01*
X014792Y011215D01*
X014816Y011256D01*
X014828Y011302D01*
X014828Y011563D01*
X014194Y011563D01*
X014039Y011563D01*
X014039Y011146D01*
X013561Y011146D01*
X013516Y011158D01*
X013475Y011182D01*
X013441Y011215D01*
X013417Y011256D01*
X013405Y011302D01*
X013405Y011563D01*
X014039Y011563D01*
X014039Y011452D02*
X014194Y011452D01*
X014194Y011294D02*
X014039Y011294D01*
X014194Y011611D02*
X015167Y011611D01*
X015167Y011548D02*
X015167Y011372D01*
X015430Y011108D01*
X015607Y011108D01*
X015607Y011548D01*
X015167Y011548D01*
X015167Y011452D02*
X014828Y011452D01*
X014826Y011294D02*
X015244Y011294D01*
X015403Y011135D02*
X013402Y011135D01*
X013407Y011294D02*
X013382Y011294D01*
X013405Y011452D02*
X013279Y011452D01*
X013405Y011769D02*
X011206Y011769D01*
X011206Y011928D02*
X013405Y011928D01*
X013461Y012086D02*
X011150Y012086D01*
X011142Y012245D02*
X015265Y012245D01*
X015147Y012403D02*
X011373Y012403D01*
X011434Y012562D02*
X015147Y012562D01*
X015147Y012720D02*
X012312Y012720D01*
X012414Y012879D02*
X013455Y012879D01*
X013457Y012870D02*
X013481Y012829D01*
X013514Y012796D01*
X013555Y012772D01*
X013601Y012760D01*
X014079Y012760D01*
X014079Y013177D01*
X014234Y013177D01*
X014234Y013332D01*
X014868Y013332D01*
X014868Y013594D01*
X014855Y013639D01*
X014832Y013680D01*
X014798Y013714D01*
X014757Y013738D01*
X014711Y013750D01*
X014234Y013750D01*
X014234Y013332D01*
X014079Y013332D01*
X014079Y013177D01*
X013445Y013177D01*
X013445Y012916D01*
X013457Y012870D01*
X013445Y013037D02*
X012414Y013037D01*
X012414Y013196D02*
X014079Y013196D01*
X014234Y013196D02*
X015314Y013196D01*
X015156Y013354D02*
X014868Y013354D01*
X014868Y013513D02*
X015147Y013513D01*
X015147Y013671D02*
X014837Y013671D01*
X014888Y013988D02*
X015382Y013988D01*
X015363Y014147D02*
X014888Y014147D01*
X014888Y014305D02*
X015205Y014305D01*
X015147Y014464D02*
X014888Y014464D01*
X014888Y014622D02*
X015147Y014622D01*
X015147Y015415D02*
X014514Y015415D01*
X014514Y015573D02*
X015147Y015573D01*
X015147Y015732D02*
X014514Y015732D01*
X014514Y015890D02*
X015284Y015890D01*
X015303Y016207D02*
X014514Y016207D01*
X014514Y016366D02*
X015147Y016366D01*
X015147Y016524D02*
X014514Y016524D01*
X014514Y016683D02*
X015147Y016683D01*
X014784Y016841D02*
X014415Y016841D01*
X014457Y016049D02*
X016878Y016049D01*
X016839Y017000D02*
X016878Y017000D01*
X016833Y018109D02*
X016878Y018109D01*
X016291Y019219D02*
X015942Y019219D01*
X016087Y019377D02*
X016147Y019377D01*
X016147Y019536D02*
X016087Y019536D01*
X016087Y019694D02*
X016147Y019694D01*
X016247Y019853D02*
X015986Y019853D01*
X015828Y020011D02*
X016405Y020011D01*
X016340Y020170D02*
X015893Y020170D01*
X016052Y020328D02*
X016182Y020328D01*
X016147Y020487D02*
X016087Y020487D01*
X016087Y020645D02*
X016147Y020645D01*
X016109Y021050D02*
X016617Y021558D01*
X016307Y021913D02*
X015898Y021913D01*
X016056Y021755D02*
X016149Y021755D01*
X016147Y021596D02*
X016067Y021596D01*
X016067Y021438D02*
X016101Y021438D01*
X016109Y021050D02*
X009865Y021050D01*
X009562Y020804D02*
X009120Y020804D01*
X009120Y020962D02*
X009481Y020962D01*
X009477Y021121D02*
X009120Y021121D01*
X009106Y021279D02*
X009545Y021279D01*
X009120Y020487D02*
X015147Y020487D01*
X015147Y020645D02*
X008626Y020645D01*
X008626Y020487D02*
X008466Y020487D01*
X008466Y020328D02*
X008626Y020328D01*
X008626Y020170D02*
X008466Y020170D01*
X007980Y020170D02*
X007703Y020170D01*
X007703Y020141D02*
X007703Y020141D01*
X007832Y020011D02*
X015405Y020011D01*
X015340Y020170D02*
X009112Y020170D01*
X009120Y020328D02*
X015182Y020328D01*
X015177Y021755D02*
X013913Y021755D01*
X014071Y021913D02*
X015336Y021913D01*
X015290Y022424D02*
X015290Y022424D01*
X015290Y022547D02*
X014252Y022547D01*
X014252Y022706D02*
X015382Y022706D01*
X016331Y022864D02*
X016878Y022864D01*
X016878Y022706D02*
X016470Y022706D01*
X016454Y022738D02*
X016454Y022738D01*
X016438Y022758D02*
X016438Y022758D01*
X016538Y022638D02*
X016538Y022638D01*
X016562Y022547D02*
X016878Y022547D01*
X016878Y022389D02*
X016543Y022389D01*
X016422Y022230D02*
X016878Y022230D01*
X016878Y022072D02*
X016278Y022072D01*
X016349Y023023D02*
X016878Y023023D01*
X016878Y023181D02*
X016466Y023181D01*
X016466Y023340D02*
X016878Y023340D01*
X016462Y023358D02*
X016462Y023358D01*
X016878Y021154D02*
X016878Y020962D01*
X016811Y021028D01*
X016483Y021028D01*
X016543Y021088D01*
X016811Y021088D01*
X016878Y021154D01*
X016878Y021121D02*
X016844Y021121D01*
X016877Y020962D02*
X016878Y020962D01*
X016878Y020011D02*
X016828Y020011D01*
X015186Y017792D02*
X014835Y017792D01*
X014993Y017634D02*
X015147Y017634D01*
X013684Y016063D02*
X013735Y016011D01*
X013684Y015959D01*
X013632Y016011D01*
X013684Y016063D01*
X013670Y016049D02*
X013697Y016049D01*
X012948Y016011D02*
X012877Y015939D01*
X012805Y016011D01*
X012877Y016082D01*
X012948Y016011D01*
X012910Y016049D02*
X012843Y016049D01*
X012121Y016011D02*
X012069Y016063D01*
X012018Y016011D01*
X012069Y015959D01*
X012121Y016011D01*
X012083Y016049D02*
X012056Y016049D01*
X012110Y016841D02*
X012125Y016841D01*
X011426Y016860D02*
X011426Y016906D01*
X011426Y017005D01*
X011445Y017052D01*
X011445Y017190D01*
X011493Y017305D01*
X010891Y017305D01*
X010902Y017294D01*
X010961Y017151D01*
X010961Y017039D01*
X011100Y016900D01*
X011117Y016860D01*
X011207Y016860D01*
X011282Y016786D01*
X011357Y016860D01*
X011426Y016860D01*
X011338Y016841D02*
X011226Y016841D01*
X011426Y017000D02*
X011001Y017000D01*
X010958Y017158D02*
X011445Y017158D01*
X011779Y017951D02*
X011990Y017951D01*
X011922Y018109D02*
X011847Y018109D01*
X011854Y018268D02*
X011914Y018268D01*
X011914Y018426D02*
X011854Y018426D01*
X011854Y018585D02*
X011914Y018585D01*
X011914Y018743D02*
X011854Y018743D01*
X011835Y018902D02*
X011934Y018902D01*
X012019Y019060D02*
X011750Y019060D01*
X011019Y019060D02*
X009820Y019060D01*
X009839Y018902D02*
X010934Y018902D01*
X010914Y018743D02*
X009839Y018743D01*
X009839Y018585D02*
X010914Y018585D01*
X010914Y018426D02*
X009839Y018426D01*
X009839Y018268D02*
X010914Y018268D01*
X010922Y018109D02*
X009839Y018109D01*
X009839Y017951D02*
X010990Y017951D01*
X010452Y016207D02*
X009531Y016207D01*
X009733Y016049D02*
X010508Y016049D01*
X010452Y015890D02*
X009798Y015890D01*
X009798Y015732D02*
X010295Y015732D01*
X010137Y015573D02*
X009798Y015573D01*
X009798Y015415D02*
X009978Y015415D01*
X010368Y015098D02*
X013217Y015098D01*
X013221Y014939D02*
X010253Y014939D01*
X010216Y014781D02*
X013302Y014781D01*
X013425Y014622D02*
X010088Y014622D01*
X009445Y014464D02*
X012138Y014464D01*
X012865Y013840D02*
X012865Y013424D01*
X012865Y013840D01*
X013517Y013840D01*
X012865Y013840D01*
X012865Y013840D01*
X012865Y013840D01*
X012865Y013830D02*
X012865Y013830D01*
X012865Y013671D02*
X012865Y013671D01*
X012865Y013513D02*
X012865Y013513D01*
X012414Y013354D02*
X013445Y013354D01*
X013445Y013513D02*
X013359Y013513D01*
X013517Y013830D02*
X015224Y013830D01*
X014868Y013177D02*
X014234Y013177D01*
X014234Y012760D01*
X014711Y012760D01*
X014757Y012772D01*
X014798Y012796D01*
X014832Y012829D01*
X014855Y012870D01*
X014868Y012916D01*
X014868Y013177D01*
X014868Y013037D02*
X016878Y013037D01*
X016878Y012086D02*
X014772Y012086D01*
X014828Y011928D02*
X015350Y011928D01*
X015192Y011769D02*
X014828Y011769D01*
X014807Y010977D02*
X015371Y010977D01*
X015212Y010818D02*
X014848Y010818D01*
X014848Y010660D02*
X015147Y010660D01*
X015147Y010501D02*
X015096Y010501D01*
X015314Y010026D02*
X015420Y010026D01*
X015261Y009867D02*
X015215Y009867D01*
X015147Y009709D02*
X014848Y009709D01*
X014848Y009550D02*
X015147Y009550D01*
X015147Y009392D02*
X014848Y009392D01*
X014748Y009233D02*
X015277Y009233D01*
X015310Y008916D02*
X014848Y008916D01*
X014848Y008758D02*
X015152Y008758D01*
X015147Y008599D02*
X014848Y008599D01*
X014848Y008441D02*
X015147Y008441D01*
X015228Y008282D02*
X014848Y008282D01*
X014800Y008124D02*
X015386Y008124D01*
X015359Y007965D02*
X014969Y007965D01*
X015124Y007807D02*
X015201Y007807D01*
X015159Y007173D02*
X015337Y007173D01*
X015408Y007014D02*
X015053Y007014D01*
X015250Y006856D02*
X014828Y006856D01*
X015147Y006697D02*
X013951Y006697D01*
X013972Y006539D02*
X015147Y006539D01*
X015147Y006380D02*
X013939Y006380D01*
X013833Y006222D02*
X015288Y006222D01*
X015299Y005905D02*
X013953Y005905D01*
X013972Y005746D02*
X015147Y005746D01*
X015147Y005588D02*
X013936Y005588D01*
X013868Y006063D02*
X016878Y006063D01*
X016836Y005112D02*
X016878Y005112D01*
X016825Y007014D02*
X016878Y007014D01*
X016874Y007965D02*
X016878Y007965D01*
X016878Y008124D02*
X016847Y008124D01*
X016878Y009075D02*
X013933Y009075D01*
X013415Y008959D02*
X013407Y008950D01*
X013399Y008959D01*
X013415Y008959D01*
X013385Y008282D02*
X013360Y008282D01*
X013826Y007807D02*
X014074Y008055D01*
X014363Y008055D01*
X014213Y007993D01*
X014032Y007812D01*
X013934Y007576D01*
X013934Y007525D01*
X013901Y007605D01*
X013826Y007680D01*
X013826Y007807D01*
X014030Y007807D01*
X013984Y007965D02*
X014186Y007965D01*
X013965Y007648D02*
X013858Y007648D01*
X013941Y007173D02*
X013995Y007173D01*
X014101Y007014D02*
X013838Y007014D01*
X013863Y006856D02*
X014326Y006856D01*
X015163Y004426D02*
X015209Y004313D01*
X015108Y004313D01*
X015122Y004328D01*
X015163Y004426D01*
X015207Y004320D02*
X015115Y004320D01*
X012184Y006856D02*
X011876Y006856D01*
X011373Y006856D02*
X010911Y006856D01*
X010885Y007014D02*
X011149Y007014D01*
X011043Y007173D02*
X010988Y007173D01*
X011012Y007648D02*
X010905Y007648D01*
X010874Y007807D02*
X011077Y007807D01*
X011233Y007965D02*
X010874Y007965D01*
X012016Y007965D02*
X012044Y007965D01*
X012051Y009233D02*
X012134Y009233D01*
X012643Y009867D02*
X012675Y009867D01*
X012694Y010026D02*
X012523Y010026D01*
X012364Y010184D02*
X012694Y010184D01*
X012694Y010343D02*
X012206Y010343D01*
X012694Y010501D02*
X011226Y010501D01*
X011226Y010660D02*
X012694Y010660D01*
X012694Y010818D02*
X011226Y010818D01*
X011185Y010977D02*
X012673Y010977D01*
X012626Y011135D02*
X006245Y011135D01*
X006287Y010977D02*
X007009Y010977D01*
X006968Y010818D02*
X006287Y010818D01*
X006287Y010660D02*
X006968Y010660D01*
X006968Y010501D02*
X006287Y010501D01*
X006287Y010343D02*
X006759Y010343D01*
X006600Y010184D02*
X006287Y010184D01*
X006287Y010026D02*
X006446Y010026D01*
X006769Y009392D02*
X006968Y009392D01*
X007068Y009233D02*
X006611Y009233D01*
X006922Y007965D02*
X007281Y007965D01*
X007281Y007807D02*
X007077Y007807D01*
X007143Y007648D02*
X007249Y007648D01*
X007167Y007173D02*
X007112Y007173D01*
X007006Y007014D02*
X007269Y007014D01*
X007244Y006856D02*
X006781Y006856D01*
X006279Y006856D02*
X005970Y006856D01*
X006111Y007965D02*
X006138Y007965D01*
X005069Y008282D02*
X005037Y008282D01*
X004328Y007807D02*
X004124Y007807D01*
X004195Y007940D02*
X004195Y006877D01*
X004291Y006856D02*
X003828Y006856D01*
X004053Y007014D02*
X004317Y007014D01*
X004214Y007173D02*
X004159Y007173D01*
X004190Y007648D02*
X004296Y007648D01*
X004195Y007940D02*
X004038Y008097D01*
X006001Y005271D02*
X006248Y005271D01*
X007067Y004320D02*
X008135Y004320D01*
X007610Y004637D02*
X007592Y004637D01*
X007592Y004795D02*
X007610Y004795D01*
X007610Y004954D02*
X007592Y004954D01*
X008954Y005271D02*
X009201Y005271D01*
X009232Y006856D02*
X008923Y006856D01*
X008421Y006856D02*
X007958Y006856D01*
X007933Y007014D02*
X008196Y007014D01*
X008090Y007173D02*
X008035Y007173D01*
X008059Y007648D02*
X007953Y007648D01*
X007921Y007807D02*
X008125Y007807D01*
X008280Y007965D02*
X007921Y007965D01*
X009063Y007965D02*
X009091Y007965D01*
X008928Y009233D02*
X008331Y009233D01*
X008431Y009392D02*
X008826Y009392D01*
X008807Y009550D02*
X008431Y009550D01*
X008431Y009709D02*
X008856Y009709D01*
X007777Y011294D02*
X007622Y011294D01*
X007622Y011452D02*
X007777Y011452D01*
X007777Y011769D02*
X007622Y011769D01*
X007622Y011928D02*
X007777Y011928D01*
X007777Y012086D02*
X007622Y012086D01*
X007999Y012562D02*
X003087Y012562D01*
X003087Y012720D02*
X006315Y012720D01*
X006097Y011294D02*
X006990Y011294D01*
X008356Y012403D02*
X003087Y012403D01*
X002968Y012245D02*
X010949Y012245D01*
X010572Y012086D02*
X010417Y012086D01*
X010417Y011928D02*
X010572Y011928D01*
X010572Y011769D02*
X010417Y011769D01*
X010417Y011452D02*
X010572Y011452D01*
X010572Y011294D02*
X010417Y011294D01*
X011204Y011294D02*
X012646Y011294D01*
X012750Y011452D02*
X011206Y011452D01*
X013334Y010818D02*
X013385Y010818D01*
X013385Y010660D02*
X013334Y010660D01*
X013334Y010501D02*
X013385Y010501D01*
X013385Y010343D02*
X013334Y010343D01*
X013334Y010184D02*
X013385Y010184D01*
X013385Y010026D02*
X013334Y010026D01*
X013354Y009867D02*
X013385Y009867D01*
X013355Y010977D02*
X013426Y010977D01*
X014039Y011769D02*
X014194Y011769D01*
X014194Y011928D02*
X014039Y011928D01*
X014039Y012086D02*
X014194Y012086D01*
X014234Y012879D02*
X014079Y012879D01*
X014079Y013037D02*
X014234Y013037D01*
X014234Y013354D02*
X014079Y013354D01*
X014079Y013513D02*
X014234Y013513D01*
X014234Y013671D02*
X014079Y013671D01*
X013425Y014103D02*
X013425Y014107D01*
X013421Y014107D01*
X013425Y014103D01*
X014858Y012879D02*
X015273Y012879D01*
X015607Y011928D02*
X015627Y011928D01*
X015627Y011769D02*
X015607Y011769D01*
X015607Y011611D02*
X015627Y011611D01*
X015627Y011452D02*
X015607Y011452D01*
X015607Y011294D02*
X015627Y011294D01*
X015627Y011135D02*
X015607Y011135D01*
X016859Y011135D02*
X016878Y011135D01*
X016862Y010977D02*
X016878Y010977D01*
X016878Y010026D02*
X016813Y010026D01*
X016851Y013988D02*
X016878Y013988D01*
X016870Y014147D02*
X016878Y014147D01*
X016878Y015098D02*
X016821Y015098D01*
X012982Y021755D02*
X011972Y021755D01*
X012131Y021913D02*
X012824Y021913D01*
X012665Y022072D02*
X012289Y022072D01*
X012304Y022230D02*
X012642Y022230D01*
X009193Y022230D02*
X009026Y022230D01*
X008626Y022230D02*
X008466Y022230D01*
X008466Y022389D02*
X008626Y022389D01*
X008626Y022547D02*
X008466Y022547D01*
X008466Y022706D02*
X008626Y022706D01*
X008466Y022864D02*
X005083Y022864D01*
X005083Y022801D02*
X005576Y022801D01*
X005576Y022365D01*
X005564Y022319D01*
X005541Y022278D01*
X005507Y022245D01*
X005466Y022221D01*
X005420Y022209D01*
X005083Y022209D01*
X005083Y022801D01*
X005083Y022706D02*
X004923Y022706D01*
X004923Y022801D02*
X004578Y022801D01*
X004578Y022869D01*
X004162Y022869D01*
X004162Y022869D01*
X004578Y022869D01*
X004578Y022961D01*
X004923Y022961D01*
X004923Y022801D01*
X004923Y022864D02*
X004578Y022864D01*
X004923Y022547D02*
X005083Y022547D01*
X005083Y022389D02*
X004923Y022389D01*
X004923Y022230D02*
X005083Y022230D01*
X005482Y022230D02*
X008067Y022230D01*
X007972Y022389D02*
X005576Y022389D01*
X005576Y022547D02*
X007972Y022547D01*
X007972Y022706D02*
X005576Y022706D01*
X005576Y023023D02*
X007972Y023023D01*
X007972Y023181D02*
X005576Y023181D01*
X005576Y023340D02*
X007972Y023340D01*
X007475Y022072D02*
X006074Y022072D01*
X006261Y021913D02*
X007288Y021913D01*
X007233Y021755D02*
X006315Y021755D01*
X006306Y021596D02*
X007243Y021596D01*
X007327Y021438D02*
X006222Y021438D01*
X006145Y020716D02*
X006145Y020043D01*
X006367Y020011D02*
X002828Y020011D01*
X002811Y020028D02*
X002422Y020028D01*
X002147Y019753D01*
X002147Y019363D01*
X002422Y019088D01*
X002811Y019088D01*
X003087Y019363D01*
X003087Y019753D01*
X002811Y020028D01*
X002803Y020108D02*
X002627Y020108D01*
X002627Y020548D01*
X002627Y020568D01*
X002607Y020568D01*
X002607Y021008D01*
X002430Y021008D01*
X002167Y020744D01*
X002167Y020568D01*
X002607Y020568D01*
X002607Y020548D01*
X002627Y020548D01*
X003067Y020548D01*
X003067Y020372D01*
X002803Y020108D01*
X002865Y020170D02*
X004437Y020170D01*
X004429Y020328D02*
X003023Y020328D01*
X003067Y020487D02*
X004429Y020487D01*
X004923Y020804D02*
X005083Y020804D01*
X005083Y020962D02*
X004923Y020962D01*
X004923Y021121D02*
X005083Y021121D01*
X005083Y021279D02*
X004923Y021279D01*
X005510Y021596D02*
X003087Y021596D01*
X003084Y021755D02*
X005501Y021755D01*
X005556Y021913D02*
X002926Y021913D01*
X002389Y021121D02*
X001816Y021121D01*
X001803Y021108D02*
X002067Y021372D01*
X002067Y021548D01*
X001627Y021548D01*
X001627Y021108D01*
X001803Y021108D01*
X001877Y020962D02*
X002385Y020962D01*
X002607Y020962D02*
X002627Y020962D01*
X002627Y020804D02*
X002607Y020804D01*
X002607Y020645D02*
X002627Y020645D01*
X002607Y020548D02*
X002167Y020548D01*
X002167Y020372D01*
X002430Y020108D01*
X002607Y020108D01*
X002607Y020548D01*
X002607Y020487D02*
X002627Y020487D01*
X002627Y020328D02*
X002607Y020328D01*
X002607Y020170D02*
X002627Y020170D01*
X002405Y020011D02*
X001828Y020011D01*
X001893Y020170D02*
X002368Y020170D01*
X002210Y020328D02*
X002052Y020328D01*
X002087Y020487D02*
X002167Y020487D01*
X002167Y020645D02*
X002087Y020645D01*
X002035Y020804D02*
X002226Y020804D01*
X002231Y021279D02*
X001974Y021279D01*
X002067Y021438D02*
X002147Y021438D01*
X002147Y021596D02*
X002067Y021596D01*
X002056Y021755D02*
X002149Y021755D01*
X002307Y021913D02*
X001898Y021913D01*
X001627Y021913D02*
X001607Y021913D01*
X001607Y021755D02*
X001627Y021755D01*
X001627Y021596D02*
X001607Y021596D01*
X001607Y021438D02*
X001627Y021438D01*
X001627Y021279D02*
X001607Y021279D01*
X001607Y021121D02*
X001627Y021121D01*
X001417Y021121D02*
X001356Y021121D01*
X001356Y020962D02*
X001356Y020962D01*
X001356Y020011D02*
X001405Y020011D01*
X001986Y019853D02*
X002247Y019853D01*
X002147Y019694D02*
X002087Y019694D01*
X002087Y019536D02*
X002147Y019536D01*
X002147Y019377D02*
X002087Y019377D01*
X001942Y019219D02*
X002291Y019219D01*
X002422Y019028D02*
X002147Y018753D01*
X002147Y018363D01*
X002422Y018088D01*
X002811Y018088D01*
X003087Y018363D01*
X003087Y018753D01*
X002811Y019028D01*
X002422Y019028D01*
X002296Y018902D02*
X001937Y018902D01*
X002087Y018743D02*
X002147Y018743D01*
X002147Y018585D02*
X002087Y018585D01*
X002087Y018426D02*
X002147Y018426D01*
X002242Y018268D02*
X001991Y018268D01*
X001833Y018109D02*
X002401Y018109D01*
X002422Y018028D02*
X002147Y017753D01*
X002147Y017363D01*
X002422Y017088D01*
X002811Y017088D01*
X003087Y017363D01*
X003087Y017753D01*
X002811Y018028D01*
X002422Y018028D01*
X002345Y017951D02*
X001888Y017951D01*
X002047Y017792D02*
X002186Y017792D01*
X002147Y017634D02*
X002087Y017634D01*
X002087Y017475D02*
X002147Y017475D01*
X002193Y017317D02*
X002040Y017317D01*
X001882Y017158D02*
X002352Y017158D01*
X002422Y017000D02*
X001839Y017000D01*
X001998Y016841D02*
X002264Y016841D01*
X002167Y016683D02*
X002087Y016683D01*
X002087Y016524D02*
X002167Y016524D01*
X002172Y016366D02*
X002087Y016366D01*
X001356Y016049D02*
X003824Y016049D01*
X004162Y016049D02*
X004162Y016049D01*
X004162Y016207D02*
X004162Y016207D01*
X004271Y016207D02*
X007583Y016207D01*
X007578Y016049D02*
X004499Y016049D01*
X004162Y015890D02*
X004162Y015890D01*
X004162Y015732D02*
X004162Y015732D01*
X004162Y015573D02*
X004162Y015573D01*
X004162Y015569D02*
X004162Y015569D01*
X004162Y015415D02*
X004162Y015415D01*
X004162Y015256D02*
X004162Y015256D01*
X004162Y015098D02*
X004162Y015098D01*
X005076Y017158D02*
X002882Y017158D01*
X003040Y017317D02*
X004821Y017317D01*
X004703Y017475D02*
X003087Y017475D01*
X003087Y017634D02*
X004673Y017634D01*
X004711Y017792D02*
X003047Y017792D01*
X002888Y017951D02*
X004839Y017951D01*
X005284Y017951D02*
X005708Y017951D01*
X005708Y018109D02*
X002833Y018109D01*
X002991Y018268D02*
X005815Y018268D01*
X005788Y018426D02*
X003087Y018426D01*
X003087Y018585D02*
X005708Y018585D01*
X005708Y018743D02*
X003087Y018743D01*
X002937Y018902D02*
X005708Y018902D01*
X006237Y018268D02*
X006348Y018268D01*
X006344Y018109D02*
X006555Y018109D01*
X006555Y018038D02*
X006853Y018038D01*
X006853Y018038D01*
X007151Y018038D01*
X007151Y017818D01*
X007139Y017772D01*
X007115Y017731D01*
X007093Y017709D01*
X007697Y017709D01*
X007646Y017759D01*
X007587Y017902D01*
X007587Y018057D01*
X007646Y018199D01*
X007649Y018202D01*
X007151Y018202D01*
X007151Y018038D01*
X006853Y018038D01*
X006555Y018038D01*
X006555Y017951D02*
X006344Y017951D01*
X006344Y017792D02*
X006562Y017792D01*
X006853Y018038D02*
X006853Y018038D01*
X007151Y018109D02*
X007609Y018109D01*
X007587Y017951D02*
X007151Y017951D01*
X007144Y017792D02*
X007632Y017792D01*
X007310Y018702D02*
X007171Y018702D01*
X007171Y018828D01*
X007173Y018822D01*
X007283Y018713D01*
X007310Y018702D01*
X007252Y018743D02*
X007171Y018743D01*
X007114Y018965D02*
X007103Y018977D01*
X007103Y019186D01*
X007123Y019186D01*
X007136Y019173D01*
X007114Y019120D01*
X007114Y018965D01*
X007103Y019060D02*
X007114Y019060D01*
X006603Y019060D02*
X001356Y019060D01*
X001356Y018109D02*
X001401Y018109D01*
X001356Y017000D02*
X001394Y017000D01*
X001356Y015098D02*
X001412Y015098D01*
X001356Y014147D02*
X001363Y014147D01*
X001356Y013988D02*
X001382Y013988D01*
X001356Y011135D02*
X001375Y011135D01*
X001371Y010977D02*
X001356Y010977D01*
X001356Y010026D02*
X001420Y010026D01*
X006636Y016524D02*
X009078Y016524D01*
X008997Y016207D02*
X009193Y016207D01*
X008925Y015256D02*
X008914Y015256D01*
X008367Y015415D02*
X008212Y015415D01*
X008212Y015573D02*
X008367Y015573D01*
X008367Y015732D02*
X008212Y015732D01*
X008212Y016049D02*
X008367Y016049D01*
X008367Y016207D02*
X008212Y016207D01*
X009021Y014464D02*
X009182Y014464D01*
X011230Y016011D02*
X011282Y016063D01*
X011334Y016011D01*
X011282Y015959D01*
X011230Y016011D01*
X011268Y016049D02*
X011296Y016049D01*
X007972Y020328D02*
X007703Y020328D01*
X008466Y020804D02*
X008626Y020804D01*
X008626Y020962D02*
X008466Y020962D01*
X008466Y021121D02*
X008626Y021121D01*
X008626Y021279D02*
X008466Y021279D01*
X006603Y019219D02*
X002942Y019219D01*
X003087Y019377D02*
X006459Y019377D01*
X006367Y019536D02*
X003087Y019536D01*
X003087Y019694D02*
X006367Y019694D01*
X006367Y019853D02*
X002986Y019853D01*
X004162Y022217D02*
X004162Y022869D01*
X004162Y022217D01*
X004162Y022230D02*
X004162Y022230D01*
X004270Y022230D02*
X004523Y022230D01*
X004162Y022389D02*
X004162Y022389D01*
X004162Y022547D02*
X004162Y022547D01*
X004162Y022706D02*
X004162Y022706D01*
X004162Y022864D02*
X004162Y022864D01*
X004162Y022869D02*
X004162Y022869D01*
X003745Y022869D01*
X004162Y022869D01*
X004162Y022869D01*
X003745Y022864D02*
X001356Y022864D01*
X001356Y022706D02*
X003745Y022706D01*
X003754Y022547D02*
X001356Y022547D01*
X001356Y022389D02*
X003824Y022389D01*
X004053Y022230D02*
X001356Y022230D01*
X001356Y022072D02*
X005743Y022072D01*
X006144Y020716D02*
X006145Y020716D01*
X006144Y020645D02*
X006145Y020645D01*
X006144Y020487D02*
X006145Y020487D01*
X006422Y018902D02*
X006535Y018902D01*
X005708Y017792D02*
X005412Y017792D01*
X003745Y023023D02*
X001356Y023023D01*
X001356Y023181D02*
X003752Y023181D01*
X003818Y023340D02*
X001356Y023340D01*
D11*
X001617Y004558D03*
X015617Y004558D03*
D12*
X016617Y004558D03*
X016617Y005558D03*
X016617Y006558D03*
X016617Y007558D03*
X016617Y008558D03*
X016617Y009558D03*
X016617Y010558D03*
X016617Y011558D03*
X016617Y012558D03*
X016617Y013558D03*
X016617Y014558D03*
X016617Y015558D03*
X016617Y016558D03*
X016617Y017558D03*
X016617Y018558D03*
X016617Y019558D03*
X016617Y020558D03*
X016617Y021558D03*
X015617Y021558D03*
X015617Y020558D03*
X015617Y019558D03*
X015617Y018558D03*
X015617Y017558D03*
X015617Y016558D03*
X015617Y015558D03*
X015617Y014558D03*
X015617Y013558D03*
X015617Y012558D03*
X015617Y011558D03*
X015617Y010558D03*
X015617Y009558D03*
X015617Y008558D03*
X015617Y007558D03*
X015617Y006558D03*
X015617Y005558D03*
X002617Y005558D03*
X002617Y006558D03*
X002617Y007558D03*
X002617Y008558D03*
X002617Y009558D03*
X002617Y010558D03*
X002617Y011558D03*
X002617Y012558D03*
X002617Y013558D03*
X002617Y014558D03*
X002617Y015558D03*
X002617Y016558D03*
X002617Y017558D03*
X002617Y018558D03*
X002617Y019558D03*
X002617Y020558D03*
X002617Y021558D03*
X001617Y021558D03*
X001617Y020558D03*
X001617Y019558D03*
X001617Y018558D03*
X001617Y017558D03*
X001617Y016558D03*
X001617Y015558D03*
X001617Y014558D03*
X001617Y013558D03*
X001617Y012558D03*
X001617Y011558D03*
X001617Y010558D03*
X001617Y009558D03*
X001617Y008558D03*
X001617Y007558D03*
X001617Y006558D03*
X001617Y005558D03*
X002617Y004558D03*
D13*
X015926Y022205D03*
X015930Y022717D03*
X015926Y023017D03*
X015926Y023021D03*
D14*
X015926Y022209D03*
D15*
X015926Y022213D03*
D16*
X015926Y022217D03*
X015902Y022701D03*
D17*
X015926Y023081D03*
X015926Y023085D03*
X015926Y023341D03*
X015926Y022221D03*
D18*
X015926Y022225D03*
D19*
X015926Y022229D03*
X015926Y023101D03*
X015926Y023337D03*
D20*
X015926Y022233D03*
D21*
X015926Y022237D03*
D22*
X015926Y022241D03*
D23*
X015926Y022245D03*
X015926Y023329D03*
D24*
X015926Y023137D03*
X015926Y022249D03*
D25*
X015926Y022253D03*
D26*
X015926Y022257D03*
X015926Y023149D03*
D27*
X015926Y023321D03*
X015926Y022261D03*
D28*
X015926Y022265D03*
X015926Y023157D03*
X015926Y023161D03*
D29*
X015926Y023165D03*
X015926Y022269D03*
D30*
X015926Y022273D03*
D31*
X015926Y022277D03*
X015926Y023169D03*
X015926Y023317D03*
D32*
X015926Y023177D03*
X015926Y022281D03*
D33*
X015926Y022285D03*
X015926Y023181D03*
D34*
X015926Y023185D03*
X015926Y022289D03*
D35*
X015926Y022293D03*
D36*
X015926Y022297D03*
X015926Y023189D03*
X015926Y023309D03*
D37*
X015926Y022305D03*
X015926Y022301D03*
D38*
X015926Y022309D03*
X015926Y023305D03*
D39*
X015926Y022313D03*
D40*
X015926Y022317D03*
D41*
X015926Y022321D03*
X015926Y022325D03*
D42*
X015926Y022329D03*
X015926Y023297D03*
D43*
X015926Y022333D03*
D44*
X015926Y022337D03*
X015926Y022341D03*
D45*
X015926Y022345D03*
X015926Y022349D03*
D46*
X015926Y022353D03*
D47*
X015926Y022357D03*
X015926Y023289D03*
D48*
X015926Y022365D03*
X015926Y022361D03*
D49*
X015926Y022369D03*
X015926Y022377D03*
X015926Y023285D03*
D50*
X015926Y022373D03*
D51*
X015926Y022381D03*
X015926Y022385D03*
X015926Y023249D03*
X015926Y023281D03*
D52*
X015926Y023277D03*
X015926Y023257D03*
X015926Y022389D03*
D53*
X015926Y022393D03*
X015926Y023253D03*
D54*
X015926Y023261D03*
X015930Y022629D03*
X015926Y022405D03*
X015926Y022401D03*
X015926Y022397D03*
D55*
X015926Y022409D03*
X015926Y022625D03*
X015926Y023265D03*
X015926Y023269D03*
D56*
X015926Y022413D03*
D57*
X015926Y022417D03*
X015926Y022421D03*
X015926Y022621D03*
D58*
X015926Y022429D03*
X015926Y022425D03*
D59*
X015928Y022433D03*
D60*
X015928Y022437D03*
X015928Y022441D03*
D61*
X015928Y022445D03*
X015928Y022449D03*
D62*
X015926Y022453D03*
D63*
X015926Y022457D03*
D64*
X015924Y022461D03*
D65*
X015926Y022465D03*
X015926Y022557D03*
D66*
X015926Y022469D03*
D67*
X015926Y022473D03*
D68*
X015926Y022477D03*
X015926Y022545D03*
D69*
X015926Y022541D03*
X015926Y022481D03*
D70*
X015926Y022485D03*
X015926Y022537D03*
D71*
X015924Y022489D03*
D72*
X015926Y022493D03*
D73*
X015926Y022497D03*
X015926Y022525D03*
X015926Y022529D03*
D74*
X015924Y022521D03*
X015924Y022505D03*
X015924Y022501D03*
D75*
X015926Y022509D03*
X015926Y022517D03*
D76*
X015926Y022513D03*
D77*
X015924Y022533D03*
D78*
X015926Y022549D03*
D79*
X015926Y022553D03*
D80*
X015916Y022589D03*
X015920Y022601D03*
D81*
X015918Y022593D03*
D82*
X015918Y022597D03*
D83*
X015920Y022605D03*
X015920Y022609D03*
D84*
X015922Y022613D03*
D85*
X015924Y022617D03*
D86*
X015932Y022633D03*
D87*
X015932Y022637D03*
X015932Y022641D03*
D88*
X016032Y022645D03*
D89*
X015700Y022661D03*
X015696Y022649D03*
X015696Y022645D03*
D90*
X016034Y022649D03*
D91*
X016034Y022653D03*
D92*
X015698Y022653D03*
D93*
X016034Y022657D03*
D94*
X015698Y022657D03*
D95*
X016038Y022661D03*
D96*
X016040Y022665D03*
D97*
X015738Y022669D03*
X015734Y022665D03*
X015818Y023041D03*
X015814Y023045D03*
D98*
X015628Y022665D03*
D99*
X016042Y022669D03*
X015926Y023077D03*
D100*
X015926Y022817D03*
X015610Y022669D03*
D101*
X016044Y022673D03*
D102*
X015744Y022673D03*
X016088Y023113D03*
D103*
X016038Y023201D03*
X016054Y022677D03*
D104*
X015926Y022745D03*
X015926Y022901D03*
X015806Y023061D03*
X015746Y022677D03*
D105*
X016060Y022681D03*
D106*
X015752Y022681D03*
X015804Y023065D03*
D107*
X015994Y023121D03*
X016058Y022685D03*
D108*
X015758Y022685D03*
D109*
X016056Y022689D03*
D110*
X015928Y022741D03*
X015764Y022689D03*
D111*
X016050Y022693D03*
X015926Y023353D03*
D112*
X015808Y023073D03*
X015772Y022693D03*
D113*
X016044Y022697D03*
D114*
X015790Y022697D03*
D115*
X015926Y022861D03*
X015926Y022865D03*
X016154Y022701D03*
D116*
X016152Y022705D03*
X016052Y022729D03*
D117*
X015904Y022705D03*
D118*
X015908Y022709D03*
D119*
X015912Y022713D03*
X016032Y023193D03*
D120*
X015760Y022717D03*
D121*
X015932Y022721D03*
D122*
X016052Y022725D03*
D123*
X015898Y022725D03*
X015926Y022969D03*
X016126Y023237D03*
X015926Y023361D03*
D124*
X016114Y023217D03*
X016118Y023221D03*
X015898Y022729D03*
D125*
X016056Y022733D03*
D126*
X015928Y022733D03*
D127*
X015814Y022733D03*
D128*
X016056Y022737D03*
D129*
X015928Y022737D03*
D130*
X015926Y022841D03*
X015810Y022737D03*
D131*
X016058Y022741D03*
D132*
X015928Y022765D03*
X015808Y022741D03*
D133*
X015802Y022749D03*
X016058Y022745D03*
D134*
X015804Y022745D03*
D135*
X016060Y022749D03*
D136*
X015928Y022749D03*
X016084Y023105D03*
X015752Y023129D03*
D137*
X015928Y022753D03*
D138*
X015798Y022753D03*
D139*
X015928Y022757D03*
D140*
X015928Y022761D03*
D141*
X015926Y022813D03*
D142*
X015926Y022821D03*
D143*
X015926Y022825D03*
D144*
X015926Y022829D03*
D145*
X015926Y022833D03*
D146*
X015926Y022837D03*
D147*
X015926Y022845D03*
X015926Y022849D03*
D148*
X015926Y022853D03*
D149*
X015926Y022857D03*
D150*
X015926Y022869D03*
D151*
X015926Y022873D03*
D152*
X015926Y022877D03*
X015926Y022881D03*
D153*
X015926Y022885D03*
D154*
X015926Y022889D03*
X015750Y023125D03*
D155*
X015928Y022893D03*
D156*
X015926Y022897D03*
X015810Y023049D03*
X015806Y023057D03*
X016086Y023109D03*
D157*
X015926Y022905D03*
X015806Y023069D03*
D158*
X015926Y022909D03*
D159*
X015926Y022913D03*
D160*
X015926Y022917D03*
D161*
X015926Y022921D03*
X015926Y022925D03*
D162*
X015926Y022929D03*
D163*
X015926Y022933D03*
D164*
X015926Y022937D03*
X015926Y022941D03*
D165*
X015926Y022945D03*
X015998Y023041D03*
X016002Y023045D03*
X016006Y023049D03*
D166*
X016010Y023061D03*
X015926Y022949D03*
D167*
X015926Y022953D03*
D168*
X015926Y022957D03*
D169*
X015926Y022961D03*
D170*
X015926Y022965D03*
X016122Y023229D03*
D171*
X015926Y022973D03*
D172*
X015926Y022977D03*
D173*
X015926Y022981D03*
D174*
X015926Y022985D03*
X015926Y022989D03*
D175*
X015926Y022993D03*
D176*
X015926Y022997D03*
X015926Y023357D03*
D177*
X015926Y023005D03*
X015926Y023001D03*
D178*
X015926Y023009D03*
D179*
X015926Y023013D03*
D180*
X015926Y023025D03*
D181*
X015926Y023029D03*
D182*
X015926Y023033D03*
D183*
X015926Y023037D03*
D184*
X016006Y023053D03*
D185*
X015810Y023053D03*
D186*
X015740Y023197D03*
X016008Y023057D03*
D187*
X016010Y023065D03*
X016010Y023069D03*
D188*
X016008Y023073D03*
D189*
X015926Y023089D03*
D190*
X015926Y023093D03*
D191*
X015924Y023097D03*
D192*
X015858Y023105D03*
D193*
X015916Y023109D03*
X015920Y023117D03*
D194*
X015758Y023109D03*
X015754Y023117D03*
D195*
X015918Y023113D03*
D196*
X015754Y023113D03*
D197*
X016088Y023117D03*
D198*
X015752Y023121D03*
D199*
X015996Y023125D03*
D200*
X015994Y023129D03*
D201*
X015926Y023133D03*
D202*
X015926Y023141D03*
X015926Y023145D03*
X015926Y023325D03*
D203*
X015926Y023153D03*
D204*
X015926Y023173D03*
D205*
X015746Y023193D03*
D206*
X015796Y023221D03*
X015796Y023225D03*
X016036Y023197D03*
D207*
X015738Y023201D03*
D208*
X016040Y023205D03*
D209*
X015736Y023205D03*
D210*
X016038Y023209D03*
D211*
X015740Y023209D03*
D212*
X015926Y023213D03*
D213*
X015800Y023217D03*
X015792Y023229D03*
D214*
X016120Y023225D03*
D215*
X016124Y023233D03*
D216*
X015790Y023233D03*
D217*
X015790Y023237D03*
X015790Y023241D03*
D218*
X016124Y023241D03*
D219*
X016124Y023245D03*
D220*
X015790Y023245D03*
D221*
X015926Y023273D03*
D222*
X015926Y023293D03*
D223*
X015924Y023301D03*
D224*
X015926Y023313D03*
D225*
X015926Y023333D03*
D226*
X015926Y023345D03*
D227*
X015926Y023349D03*
D228*
X015928Y023365D03*
D229*
X015924Y023369D03*
D230*
X007404Y020716D03*
X007089Y020716D03*
X006774Y020716D03*
X006459Y020716D03*
X006145Y020716D03*
D231*
X005003Y020716D03*
X005003Y022881D03*
X008546Y022881D03*
X008546Y020716D03*
D232*
X007464Y021700D02*
X007466Y021726D01*
X007472Y021752D01*
X007482Y021777D01*
X007495Y021800D01*
X007511Y021820D01*
X007531Y021838D01*
X007553Y021853D01*
X007576Y021865D01*
X007602Y021873D01*
X007628Y021877D01*
X007654Y021877D01*
X007680Y021873D01*
X007706Y021865D01*
X007730Y021853D01*
X007751Y021838D01*
X007771Y021820D01*
X007787Y021800D01*
X007800Y021777D01*
X007810Y021752D01*
X007816Y021726D01*
X007818Y021700D01*
X007816Y021674D01*
X007810Y021648D01*
X007800Y021623D01*
X007787Y021600D01*
X007771Y021580D01*
X007751Y021562D01*
X007729Y021547D01*
X007706Y021535D01*
X007680Y021527D01*
X007654Y021523D01*
X007628Y021523D01*
X007602Y021527D01*
X007576Y021535D01*
X007552Y021547D01*
X007531Y021562D01*
X007511Y021580D01*
X007495Y021600D01*
X007482Y021623D01*
X007472Y021648D01*
X007466Y021674D01*
X007464Y021700D01*
X005731Y021700D02*
X005733Y021726D01*
X005739Y021752D01*
X005749Y021777D01*
X005762Y021800D01*
X005778Y021820D01*
X005798Y021838D01*
X005820Y021853D01*
X005843Y021865D01*
X005869Y021873D01*
X005895Y021877D01*
X005921Y021877D01*
X005947Y021873D01*
X005973Y021865D01*
X005997Y021853D01*
X006018Y021838D01*
X006038Y021820D01*
X006054Y021800D01*
X006067Y021777D01*
X006077Y021752D01*
X006083Y021726D01*
X006085Y021700D01*
X006083Y021674D01*
X006077Y021648D01*
X006067Y021623D01*
X006054Y021600D01*
X006038Y021580D01*
X006018Y021562D01*
X005996Y021547D01*
X005973Y021535D01*
X005947Y021527D01*
X005921Y021523D01*
X005895Y021523D01*
X005869Y021527D01*
X005843Y021535D01*
X005819Y021547D01*
X005798Y021562D01*
X005778Y021580D01*
X005762Y021600D01*
X005749Y021623D01*
X005739Y021648D01*
X005733Y021674D01*
X005731Y021700D01*
D233*
X011479Y022428D03*
X013447Y022428D03*
D234*
X009362Y022633D02*
X009362Y023105D01*
X004162Y023105D02*
X004162Y022633D01*
X004162Y015805D02*
X004162Y015333D01*
X005328Y013840D02*
X005801Y013840D01*
X009362Y015333D02*
X009362Y015805D01*
X012628Y013840D02*
X013101Y013840D01*
X013101Y008640D02*
X012628Y008640D01*
X005801Y008640D02*
X005328Y008640D01*
D235*
X011384Y018221D02*
X011384Y018761D01*
X012384Y018761D02*
X012384Y018221D01*
X013384Y018221D02*
X013384Y018761D01*
D236*
X014117Y009712D03*
X014117Y008550D03*
X010534Y008550D03*
X010534Y009712D03*
X007699Y009712D03*
X007699Y008550D03*
X004314Y008668D03*
X004314Y009830D03*
D237*
X004314Y010538D03*
X004314Y011641D03*
X007699Y011641D03*
X007699Y010538D03*
X010495Y010538D03*
X010495Y011641D03*
X008290Y014751D03*
X008290Y015853D03*
X014156Y014357D03*
X014156Y013255D03*
X014117Y011641D03*
X014117Y010538D03*
D238*
X014077Y015597D03*
X014077Y016424D03*
X013290Y016424D03*
X013290Y015597D03*
X012463Y015597D03*
X012463Y016424D03*
X011676Y016424D03*
X011676Y015597D03*
X010888Y015597D03*
X010888Y016424D03*
D239*
X006853Y018038D03*
D240*
X006853Y018708D03*
X006026Y018708D03*
X006026Y017960D03*
D241*
X007414Y013255D03*
X011214Y013255D03*
D242*
X010554Y007342D03*
X010554Y006554D03*
X010554Y005767D03*
X010554Y004979D03*
X013506Y004979D03*
X013506Y005767D03*
X013506Y006554D03*
X013506Y007342D03*
X007601Y007342D03*
X007601Y006554D03*
X007601Y005767D03*
X007601Y004979D03*
X004648Y004979D03*
X004648Y005767D03*
X004648Y006554D03*
X004648Y007342D03*
D243*
X003577Y007448D03*
X003577Y004692D03*
X005719Y004692D03*
X006530Y004692D03*
X006530Y007448D03*
X005719Y007448D03*
X008672Y007448D03*
X009483Y007448D03*
X009483Y004692D03*
X008672Y004692D03*
X011625Y004692D03*
X012436Y004692D03*
X014577Y004692D03*
X014577Y007448D03*
X012436Y007448D03*
X011625Y007448D03*
D244*
X010534Y009712D02*
X010534Y010499D01*
X010495Y010538D01*
X010495Y010145D02*
X009195Y010145D01*
X007778Y010145D01*
X007069Y010145D01*
X006754Y009830D01*
X007699Y009712D02*
X007817Y009830D01*
X007817Y009908D01*
X007699Y009712D02*
X007699Y010538D01*
X007699Y011641D02*
X007699Y012074D01*
X004392Y012074D01*
X004314Y011995D01*
X004314Y012074D01*
X004195Y012074D01*
X003999Y012271D01*
X004314Y011995D02*
X004314Y011641D01*
X004314Y010538D02*
X004314Y010066D01*
X004392Y010145D01*
X004314Y010066D02*
X004314Y009830D01*
X003925Y013840D02*
X003920Y013845D01*
X003925Y013840D02*
X005565Y013840D01*
X007699Y012074D02*
X010495Y012074D01*
X010495Y011641D01*
X010495Y012074D02*
X011833Y012074D01*
X012857Y012074D01*
X014117Y012074D01*
X015101Y012074D01*
X015617Y011558D01*
X014117Y011641D02*
X014117Y012074D01*
X014117Y010538D02*
X014117Y010105D01*
X014117Y009712D01*
X008546Y020716D02*
X008546Y022881D01*
X005003Y022881D01*
X005003Y020716D01*
X004845Y020558D01*
X002617Y020558D01*
X001617Y021558D01*
X004162Y022869D02*
X004173Y022881D01*
X005003Y022881D01*
D245*
X007069Y019869D03*
X007502Y019042D03*
X007975Y017979D03*
X008211Y016562D03*
X009392Y016759D03*
X009904Y016247D03*
X010573Y017074D03*
X011833Y017113D03*
X013408Y017153D03*
X013605Y015027D03*
X015062Y015027D03*
X015062Y017113D03*
X012069Y014042D03*
X011046Y012625D03*
X011833Y011838D03*
X012857Y012310D03*
X013014Y011168D03*
X013014Y009672D03*
X011715Y009436D03*
X011518Y008491D03*
X009195Y009515D03*
X008644Y008294D03*
X006794Y009830D03*
X005967Y009790D03*
X005101Y010814D03*
X005534Y011405D03*
X003999Y012271D03*
X003920Y013845D03*
X003920Y016483D03*
X005062Y017625D03*
X003959Y018294D03*
X006321Y016759D03*
X007227Y013924D03*
X008605Y012704D03*
X009314Y014830D03*
X009865Y014948D03*
X009432Y019121D03*
X008605Y019633D03*
X009865Y021050D03*
X014943Y010145D03*
X005298Y008058D03*
X003369Y008216D03*
D246*
X004314Y010538D02*
X004825Y010538D01*
X005101Y010814D01*
X006754Y009869D02*
X006794Y009830D01*
X007778Y009948D02*
X007778Y010145D01*
X007778Y009948D02*
X007817Y009908D01*
X008644Y008294D02*
X008014Y007664D01*
X008014Y005460D01*
X005298Y008058D02*
X005140Y007901D01*
X005140Y007074D01*
X009195Y009515D02*
X009195Y010145D01*
X010495Y010145D02*
X010495Y009751D01*
X010534Y009712D01*
X011636Y009515D02*
X011636Y010145D01*
X011636Y009515D02*
X011715Y009436D01*
X011518Y008491D02*
X011046Y008019D01*
X011046Y005499D01*
X011085Y005460D01*
X011833Y011838D02*
X011833Y012074D01*
X011046Y012625D02*
X011046Y013216D01*
X010928Y013334D01*
X011214Y013255D01*
X012069Y014042D02*
X012384Y014357D01*
X014156Y014357D01*
X013605Y015027D02*
X015062Y015027D01*
X014077Y015597D02*
X013290Y015597D01*
X012463Y015597D01*
X011676Y015597D01*
X010888Y015597D01*
X010514Y015597D01*
X009865Y014948D01*
X009314Y014830D02*
X008408Y014830D01*
X008290Y014751D01*
X008251Y014948D01*
X007227Y013924D01*
X007581Y013334D02*
X008211Y012704D01*
X008605Y012704D01*
X007581Y013334D02*
X007414Y013255D01*
X008290Y014751D02*
X008369Y014869D01*
X008290Y015853D02*
X008684Y016247D01*
X009904Y016247D01*
X010573Y017074D02*
X010888Y016759D01*
X010888Y016424D01*
X011676Y016424D02*
X011676Y016956D01*
X011833Y017113D01*
X011676Y016424D02*
X012463Y016424D01*
X013290Y016424D02*
X013290Y017034D01*
X013408Y017153D01*
X013290Y016424D02*
X014077Y016424D01*
X009589Y017625D02*
X009589Y018964D01*
X009432Y019121D01*
X008132Y019357D02*
X008132Y018137D01*
X007975Y017979D01*
X008054Y018058D01*
X007660Y018452D02*
X007896Y018688D01*
X007896Y019239D01*
X007424Y019712D01*
X007227Y019712D01*
X007069Y019869D01*
X007069Y020696D01*
X007089Y020716D01*
X006774Y020716D02*
X006774Y020243D01*
X006617Y020086D01*
X006617Y019574D01*
X006754Y019436D01*
X006853Y019338D01*
X006853Y018708D01*
X006518Y018452D02*
X007660Y018452D01*
X007502Y019042D02*
X007502Y019160D01*
X007227Y019436D01*
X006754Y019436D01*
X006262Y018708D02*
X006518Y018452D01*
X006361Y018294D02*
X003959Y018294D01*
X006026Y017960D02*
X006026Y017527D01*
X005888Y017389D01*
X006617Y018038D02*
X006361Y018294D01*
X006617Y018038D02*
X006853Y018038D01*
X006262Y018708D02*
X006026Y018708D01*
X007404Y020085D02*
X007404Y020716D01*
X007404Y020085D02*
X008132Y019357D01*
X009589Y017625D02*
X009392Y017428D01*
X009392Y017389D01*
X008290Y016286D02*
X008290Y015853D01*
D247*
X008211Y016129D01*
X008211Y016562D01*
X009195Y016956D02*
X009392Y016759D01*
X009195Y016956D02*
X006518Y016956D01*
X006321Y016759D01*
X005888Y017389D02*
X009392Y017389D01*
X009628Y017625D01*
X014550Y017625D01*
X015062Y017113D01*
X012857Y012310D02*
X012857Y012074D01*
X013014Y011168D02*
X013014Y009672D01*
X012542Y009279D02*
X013684Y009279D01*
X014117Y009712D01*
X014117Y010105D02*
X014156Y010145D01*
X014943Y010145D01*
X014117Y008550D02*
X013506Y007940D01*
X013506Y007342D01*
X012778Y005499D02*
X011046Y005499D01*
X010554Y005007D01*
X010554Y004979D01*
X009995Y005538D01*
X008219Y005538D01*
X007983Y005302D01*
X007601Y004979D01*
X007180Y005342D01*
X005010Y005342D01*
X004648Y004979D01*
X003959Y005668D01*
X003959Y006641D01*
X004195Y006877D01*
X004648Y007342D02*
X004648Y008216D01*
X004314Y008668D01*
X004392Y010145D02*
X004825Y010145D01*
X005691Y009279D01*
X006203Y009279D01*
X006754Y009830D01*
X005967Y009790D02*
X005967Y010971D01*
X005534Y011405D01*
X007699Y008550D02*
X007601Y008452D01*
X007601Y007342D01*
X010554Y007342D02*
X010554Y008531D01*
X010534Y008550D01*
X010495Y010145D02*
X011636Y010145D01*
X011951Y010145D01*
X012345Y009751D01*
X012345Y009475D01*
X012542Y009279D01*
X012778Y005499D02*
X013298Y004979D01*
X013506Y004979D01*
X005888Y017389D02*
X005298Y017389D01*
X005062Y017625D01*
M02*
