G75*
%MOIN*%
%OFA0B0*%
%FSLAX24Y24*%
%IPPOS*%
%LPD*%
%AMOC8*
5,1,8,0,0,1.08239X$1,22.5*
%
%ADD10C,0.0160*%
%ADD11C,0.0000*%
D10*
X001046Y004003D02*
X017188Y004003D01*
X017188Y023688D01*
X001046Y023688D01*
X001046Y004003D01*
D11*
X005731Y021700D02*
X005733Y021726D01*
X005739Y021752D01*
X005749Y021777D01*
X005762Y021800D01*
X005778Y021820D01*
X005798Y021838D01*
X005820Y021853D01*
X005843Y021865D01*
X005869Y021873D01*
X005895Y021877D01*
X005921Y021877D01*
X005947Y021873D01*
X005973Y021865D01*
X005997Y021853D01*
X006018Y021838D01*
X006038Y021820D01*
X006054Y021800D01*
X006067Y021777D01*
X006077Y021752D01*
X006083Y021726D01*
X006085Y021700D01*
X006083Y021674D01*
X006077Y021648D01*
X006067Y021623D01*
X006054Y021600D01*
X006038Y021580D01*
X006018Y021562D01*
X005996Y021547D01*
X005973Y021535D01*
X005947Y021527D01*
X005921Y021523D01*
X005895Y021523D01*
X005869Y021527D01*
X005843Y021535D01*
X005819Y021547D01*
X005798Y021562D01*
X005778Y021580D01*
X005762Y021600D01*
X005749Y021623D01*
X005739Y021648D01*
X005733Y021674D01*
X005731Y021700D01*
X007464Y021700D02*
X007466Y021726D01*
X007472Y021752D01*
X007482Y021777D01*
X007495Y021800D01*
X007511Y021820D01*
X007531Y021838D01*
X007553Y021853D01*
X007576Y021865D01*
X007602Y021873D01*
X007628Y021877D01*
X007654Y021877D01*
X007680Y021873D01*
X007706Y021865D01*
X007730Y021853D01*
X007751Y021838D01*
X007771Y021820D01*
X007787Y021800D01*
X007800Y021777D01*
X007810Y021752D01*
X007816Y021726D01*
X007818Y021700D01*
X007816Y021674D01*
X007810Y021648D01*
X007800Y021623D01*
X007787Y021600D01*
X007771Y021580D01*
X007751Y021562D01*
X007729Y021547D01*
X007706Y021535D01*
X007680Y021527D01*
X007654Y021523D01*
X007628Y021523D01*
X007602Y021527D01*
X007576Y021535D01*
X007552Y021547D01*
X007531Y021562D01*
X007511Y021580D01*
X007495Y021600D01*
X007482Y021623D01*
X007472Y021648D01*
X007466Y021674D01*
X007464Y021700D01*
M02*
