G75*
%MOIN*%
%OFA0B0*%
%FSLAX24Y24*%
%IPPOS*%
%LPD*%
%AMOC8*
5,1,8,0,0,1.08239X$1,22.5*
%
%ADD10C,0.0160*%
%ADD11C,0.0600*%
%ADD12OC8,0.0600*%
%ADD13R,0.0312X0.0004*%
%ADD14R,0.0344X0.0004*%
%ADD15R,0.0368X0.0004*%
%ADD16R,0.0392X0.0004*%
%ADD17R,0.0408X0.0004*%
%ADD18R,0.0424X0.0004*%
%ADD19R,0.0432X0.0004*%
%ADD20R,0.0448X0.0004*%
%ADD21R,0.0456X0.0004*%
%ADD22R,0.0472X0.0004*%
%ADD23R,0.0480X0.0004*%
%ADD24R,0.0488X0.0004*%
%ADD25R,0.0496X0.0004*%
%ADD26R,0.0504X0.0004*%
%ADD27R,0.0512X0.0004*%
%ADD28R,0.0520X0.0004*%
%ADD29R,0.0528X0.0004*%
%ADD30R,0.0536X0.0004*%
%ADD31R,0.0536X0.0004*%
%ADD32R,0.0544X0.0004*%
%ADD33R,0.0552X0.0004*%
%ADD34R,0.0560X0.0004*%
%ADD35R,0.0560X0.0004*%
%ADD36R,0.0568X0.0004*%
%ADD37R,0.0576X0.0004*%
%ADD38R,0.0584X0.0004*%
%ADD39R,0.0592X0.0004*%
%ADD40R,0.0592X0.0004*%
%ADD41R,0.0600X0.0004*%
%ADD42R,0.0608X0.0004*%
%ADD43R,0.0608X0.0004*%
%ADD44R,0.0616X0.0004*%
%ADD45R,0.0624X0.0004*%
%ADD46R,0.0632X0.0004*%
%ADD47R,0.0632X0.0004*%
%ADD48R,0.0640X0.0004*%
%ADD49R,0.0648X0.0004*%
%ADD50R,0.0648X0.0004*%
%ADD51R,0.0656X0.0004*%
%ADD52R,0.0664X0.0004*%
%ADD53R,0.0664X0.0004*%
%ADD54R,0.0672X0.0004*%
%ADD55R,0.0680X0.0004*%
%ADD56R,0.0680X0.0004*%
%ADD57R,0.0688X0.0004*%
%ADD58R,0.0696X0.0004*%
%ADD59R,0.0700X0.0004*%
%ADD60R,0.0708X0.0004*%
%ADD61R,0.0716X0.0004*%
%ADD62R,0.0720X0.0004*%
%ADD63R,0.0720X0.0004*%
%ADD64R,0.0724X0.0004*%
%ADD65R,0.0808X0.0004*%
%ADD66R,0.0824X0.0004*%
%ADD67R,0.0832X0.0004*%
%ADD68R,0.0840X0.0004*%
%ADD69R,0.0848X0.0004*%
%ADD70R,0.0856X0.0004*%
%ADD71R,0.0860X0.0004*%
%ADD72R,0.0864X0.0004*%
%ADD73R,0.0864X0.0004*%
%ADD74R,0.0868X0.0004*%
%ADD75R,0.0872X0.0004*%
%ADD76R,0.0872X0.0004*%
%ADD77R,0.0860X0.0004*%
%ADD78R,0.0832X0.0004*%
%ADD79R,0.0824X0.0004*%
%ADD80R,0.0708X0.0004*%
%ADD81R,0.0712X0.0004*%
%ADD82R,0.0712X0.0004*%
%ADD83R,0.0700X0.0004*%
%ADD84R,0.0696X0.0004*%
%ADD85R,0.0692X0.0004*%
%ADD86R,0.0668X0.0004*%
%ADD87R,0.0660X0.0004*%
%ADD88R,0.0452X0.0004*%
%ADD89R,0.0188X0.0004*%
%ADD90R,0.0448X0.0004*%
%ADD91R,0.0440X0.0004*%
%ADD92R,0.0184X0.0004*%
%ADD93R,0.0432X0.0004*%
%ADD94R,0.0184X0.0004*%
%ADD95R,0.0424X0.0004*%
%ADD96R,0.0412X0.0004*%
%ADD97R,0.0128X0.0004*%
%ADD98R,0.0044X0.0004*%
%ADD99R,0.0400X0.0004*%
%ADD100R,0.0008X0.0004*%
%ADD101R,0.0388X0.0004*%
%ADD102R,0.0132X0.0004*%
%ADD103R,0.0360X0.0004*%
%ADD104R,0.0136X0.0004*%
%ADD105R,0.0340X0.0004*%
%ADD106R,0.0140X0.0004*%
%ADD107R,0.0328X0.0004*%
%ADD108R,0.0144X0.0004*%
%ADD109R,0.0324X0.0004*%
%ADD110R,0.0148X0.0004*%
%ADD111R,0.0320X0.0004*%
%ADD112R,0.0156X0.0004*%
%ADD113R,0.0316X0.0004*%
%ADD114R,0.0176X0.0004*%
%ADD115R,0.0080X0.0004*%
%ADD116R,0.0052X0.0004*%
%ADD117R,0.0380X0.0004*%
%ADD118R,0.0372X0.0004*%
%ADD119R,0.0356X0.0004*%
%ADD120R,0.0004X0.0004*%
%ADD121R,0.0308X0.0004*%
%ADD122R,0.0060X0.0004*%
%ADD123R,0.0240X0.0004*%
%ADD124R,0.0232X0.0004*%
%ADD125R,0.0044X0.0004*%
%ADD126R,0.0164X0.0004*%
%ADD127R,0.0056X0.0004*%
%ADD128R,0.0036X0.0004*%
%ADD129R,0.0156X0.0004*%
%ADD130R,0.0048X0.0004*%
%ADD131R,0.0024X0.0004*%
%ADD132R,0.0036X0.0004*%
%ADD133R,0.0016X0.0004*%
%ADD134R,0.0028X0.0004*%
%ADD135R,0.0012X0.0004*%
%ADD136R,0.0124X0.0004*%
%ADD137R,0.0108X0.0004*%
%ADD138R,0.0008X0.0004*%
%ADD139R,0.0092X0.0004*%
%ADD140R,0.0068X0.0004*%
%ADD141R,0.0008X0.0004*%
%ADD142R,0.0016X0.0004*%
%ADD143R,0.0024X0.0004*%
%ADD144R,0.0032X0.0004*%
%ADD145R,0.0032X0.0004*%
%ADD146R,0.0040X0.0004*%
%ADD147R,0.0056X0.0004*%
%ADD148R,0.0064X0.0004*%
%ADD149R,0.0072X0.0004*%
%ADD150R,0.0088X0.0004*%
%ADD151R,0.0096X0.0004*%
%ADD152R,0.0104X0.0004*%
%ADD153R,0.0112X0.0004*%
%ADD154R,0.0120X0.0004*%
%ADD155R,0.0124X0.0004*%
%ADD156R,0.0128X0.0004*%
%ADD157R,0.0144X0.0004*%
%ADD158R,0.0152X0.0004*%
%ADD159R,0.0152X0.0004*%
%ADD160R,0.0160X0.0004*%
%ADD161R,0.0168X0.0004*%
%ADD162R,0.0176X0.0004*%
%ADD163R,0.0184X0.0004*%
%ADD164R,0.0192X0.0004*%
%ADD165R,0.0200X0.0004*%
%ADD166R,0.0208X0.0004*%
%ADD167R,0.0216X0.0004*%
%ADD168R,0.0216X0.0004*%
%ADD169R,0.0224X0.0004*%
%ADD170R,0.0232X0.0004*%
%ADD171R,0.0240X0.0004*%
%ADD172R,0.0248X0.0004*%
%ADD173R,0.0256X0.0004*%
%ADD174R,0.0264X0.0004*%
%ADD175R,0.0272X0.0004*%
%ADD176R,0.0280X0.0004*%
%ADD177R,0.0288X0.0004*%
%ADD178R,0.0296X0.0004*%
%ADD179R,0.0304X0.0004*%
%ADD180R,0.0320X0.0004*%
%ADD181R,0.0328X0.0004*%
%ADD182R,0.0336X0.0004*%
%ADD183R,0.0336X0.0004*%
%ADD184R,0.0200X0.0004*%
%ADD185R,0.0128X0.0004*%
%ADD186R,0.0204X0.0004*%
%ADD187R,0.0216X0.0004*%
%ADD188R,0.0228X0.0004*%
%ADD189R,0.0416X0.0004*%
%ADD190R,0.0424X0.0004*%
%ADD191R,0.0428X0.0004*%
%ADD192R,0.0304X0.0004*%
%ADD193R,0.0180X0.0004*%
%ADD194R,0.0112X0.0004*%
%ADD195R,0.0176X0.0004*%
%ADD196R,0.0112X0.0004*%
%ADD197R,0.0132X0.0004*%
%ADD198R,0.0116X0.0004*%
%ADD199R,0.0332X0.0004*%
%ADD200R,0.0336X0.0004*%
%ADD201R,0.0480X0.0004*%
%ADD202R,0.0496X0.0004*%
%ADD203R,0.0512X0.0004*%
%ADD204R,0.0544X0.0004*%
%ADD205R,0.0208X0.0004*%
%ADD206R,0.0356X0.0004*%
%ADD207R,0.0208X0.0004*%
%ADD208R,0.0364X0.0004*%
%ADD209R,0.0212X0.0004*%
%ADD210R,0.0368X0.0004*%
%ADD211R,0.0220X0.0004*%
%ADD212R,0.0600X0.0004*%
%ADD213R,0.0356X0.0004*%
%ADD214R,0.0228X0.0004*%
%ADD215R,0.0236X0.0004*%
%ADD216R,0.0360X0.0004*%
%ADD217R,0.0368X0.0004*%
%ADD218R,0.0244X0.0004*%
%ADD219R,0.0252X0.0004*%
%ADD220R,0.0376X0.0004*%
%ADD221R,0.0672X0.0004*%
%ADD222R,0.0624X0.0004*%
%ADD223R,0.0596X0.0004*%
%ADD224R,0.0552X0.0004*%
%ADD225R,0.0456X0.0004*%
%ADD226R,0.0384X0.0004*%
%ADD227R,0.0352X0.0004*%
%ADD228R,0.0188X0.0004*%
%ADD229R,0.0108X0.0004*%
%ADD230R,0.0257X0.1044*%
%ADD231R,0.0847X0.1044*%
%ADD232C,0.0000*%
%ADD233C,0.0414*%
%ADD234OC8,0.1310*%
%ADD235C,0.0532*%
%ADD236C,0.0600*%
%ADD237R,0.1123X0.0651*%
%ADD238R,0.1123X0.0690*%
%ADD239R,0.0532X0.0532*%
%ADD240R,0.0296X0.0454*%
%ADD241R,0.0296X0.0296*%
%ADD242R,0.2060X0.0760*%
%ADD243C,0.0591*%
%ADD244C,0.0946*%
%ADD245C,0.0436*%
D10*
X001046Y004003D02*
X017188Y004003D01*
X017188Y023688D01*
X001046Y023688D01*
X001046Y004003D01*
D11*
X001617Y004558D03*
X015617Y004558D03*
D12*
X016617Y004558D03*
X016617Y005558D03*
X016617Y006558D03*
X016617Y007558D03*
X016617Y008558D03*
X016617Y009558D03*
X016617Y010558D03*
X016617Y011558D03*
X016617Y012558D03*
X016617Y013558D03*
X016617Y014558D03*
X016617Y015558D03*
X016617Y016558D03*
X016617Y017558D03*
X016617Y018558D03*
X016617Y019558D03*
X016617Y020558D03*
X016617Y021558D03*
X015617Y021558D03*
X015617Y020558D03*
X015617Y019558D03*
X015617Y018558D03*
X015617Y017558D03*
X015617Y016558D03*
X015617Y015558D03*
X015617Y014558D03*
X015617Y013558D03*
X015617Y012558D03*
X015617Y011558D03*
X015617Y010558D03*
X015617Y009558D03*
X015617Y008558D03*
X015617Y007558D03*
X015617Y006558D03*
X015617Y005558D03*
X002617Y005558D03*
X002617Y006558D03*
X002617Y007558D03*
X002617Y008558D03*
X002617Y009558D03*
X002617Y010558D03*
X002617Y011558D03*
X002617Y012558D03*
X002617Y013558D03*
X002617Y014558D03*
X002617Y015558D03*
X002617Y016558D03*
X002617Y017558D03*
X002617Y018558D03*
X002617Y019558D03*
X002617Y020558D03*
X002617Y021558D03*
X001617Y021558D03*
X001617Y020558D03*
X001617Y019558D03*
X001617Y018558D03*
X001617Y017558D03*
X001617Y016558D03*
X001617Y015558D03*
X001617Y014558D03*
X001617Y013558D03*
X001617Y012558D03*
X001617Y011558D03*
X001617Y010558D03*
X001617Y009558D03*
X001617Y008558D03*
X001617Y007558D03*
X001617Y006558D03*
X001617Y005558D03*
X002617Y004558D03*
D13*
X015926Y022205D03*
X015930Y022717D03*
X015926Y023017D03*
X015926Y023021D03*
D14*
X015926Y022209D03*
D15*
X015926Y022213D03*
D16*
X015926Y022217D03*
X015902Y022701D03*
D17*
X015926Y023081D03*
X015926Y023085D03*
X015926Y023341D03*
X015926Y022221D03*
D18*
X015926Y022225D03*
D19*
X015926Y022229D03*
X015926Y023101D03*
X015926Y023337D03*
D20*
X015926Y022233D03*
D21*
X015926Y022237D03*
D22*
X015926Y022241D03*
D23*
X015926Y022245D03*
X015926Y023329D03*
D24*
X015926Y023137D03*
X015926Y022249D03*
D25*
X015926Y022253D03*
D26*
X015926Y022257D03*
X015926Y023149D03*
D27*
X015926Y023321D03*
X015926Y022261D03*
D28*
X015926Y022265D03*
X015926Y023157D03*
X015926Y023161D03*
D29*
X015926Y023165D03*
X015926Y022269D03*
D30*
X015926Y022273D03*
D31*
X015926Y022277D03*
X015926Y023169D03*
X015926Y023317D03*
D32*
X015926Y023177D03*
X015926Y022281D03*
D33*
X015926Y022285D03*
X015926Y023181D03*
D34*
X015926Y023185D03*
X015926Y022289D03*
D35*
X015926Y022293D03*
D36*
X015926Y022297D03*
X015926Y023189D03*
X015926Y023309D03*
D37*
X015926Y022305D03*
X015926Y022301D03*
D38*
X015926Y022309D03*
X015926Y023305D03*
D39*
X015926Y022313D03*
D40*
X015926Y022317D03*
D41*
X015926Y022321D03*
X015926Y022325D03*
D42*
X015926Y022329D03*
X015926Y023297D03*
D43*
X015926Y022333D03*
D44*
X015926Y022337D03*
X015926Y022341D03*
D45*
X015926Y022345D03*
X015926Y022349D03*
D46*
X015926Y022353D03*
D47*
X015926Y022357D03*
X015926Y023289D03*
D48*
X015926Y022365D03*
X015926Y022361D03*
D49*
X015926Y022369D03*
X015926Y022377D03*
X015926Y023285D03*
D50*
X015926Y022373D03*
D51*
X015926Y022381D03*
X015926Y022385D03*
X015926Y023249D03*
X015926Y023281D03*
D52*
X015926Y023277D03*
X015926Y023257D03*
X015926Y022389D03*
D53*
X015926Y022393D03*
X015926Y023253D03*
D54*
X015926Y023261D03*
X015930Y022629D03*
X015926Y022405D03*
X015926Y022401D03*
X015926Y022397D03*
D55*
X015926Y022409D03*
X015926Y022625D03*
X015926Y023265D03*
X015926Y023269D03*
D56*
X015926Y022413D03*
D57*
X015926Y022417D03*
X015926Y022421D03*
X015926Y022621D03*
D58*
X015926Y022429D03*
X015926Y022425D03*
D59*
X015928Y022433D03*
D60*
X015928Y022437D03*
X015928Y022441D03*
D61*
X015928Y022445D03*
X015928Y022449D03*
D62*
X015926Y022453D03*
D63*
X015926Y022457D03*
D64*
X015924Y022461D03*
D65*
X015926Y022465D03*
X015926Y022557D03*
D66*
X015926Y022469D03*
D67*
X015926Y022473D03*
D68*
X015926Y022477D03*
X015926Y022545D03*
D69*
X015926Y022541D03*
X015926Y022481D03*
D70*
X015926Y022485D03*
X015926Y022537D03*
D71*
X015924Y022489D03*
D72*
X015926Y022493D03*
D73*
X015926Y022497D03*
X015926Y022525D03*
X015926Y022529D03*
D74*
X015924Y022521D03*
X015924Y022505D03*
X015924Y022501D03*
D75*
X015926Y022509D03*
X015926Y022517D03*
D76*
X015926Y022513D03*
D77*
X015924Y022533D03*
D78*
X015926Y022549D03*
D79*
X015926Y022553D03*
D80*
X015916Y022589D03*
X015920Y022601D03*
D81*
X015918Y022593D03*
D82*
X015918Y022597D03*
D83*
X015920Y022605D03*
X015920Y022609D03*
D84*
X015922Y022613D03*
D85*
X015924Y022617D03*
D86*
X015932Y022633D03*
D87*
X015932Y022637D03*
X015932Y022641D03*
D88*
X016032Y022645D03*
D89*
X015700Y022661D03*
X015696Y022649D03*
X015696Y022645D03*
D90*
X016034Y022649D03*
D91*
X016034Y022653D03*
D92*
X015698Y022653D03*
D93*
X016034Y022657D03*
D94*
X015698Y022657D03*
D95*
X016038Y022661D03*
D96*
X016040Y022665D03*
D97*
X015738Y022669D03*
X015734Y022665D03*
X015818Y023041D03*
X015814Y023045D03*
D98*
X015628Y022665D03*
D99*
X016042Y022669D03*
X015926Y023077D03*
D100*
X015926Y022817D03*
X015610Y022669D03*
D101*
X016044Y022673D03*
D102*
X015744Y022673D03*
X016088Y023113D03*
D103*
X016038Y023201D03*
X016054Y022677D03*
D104*
X015926Y022745D03*
X015926Y022901D03*
X015806Y023061D03*
X015746Y022677D03*
D105*
X016060Y022681D03*
D106*
X015752Y022681D03*
X015804Y023065D03*
D107*
X015994Y023121D03*
X016058Y022685D03*
D108*
X015758Y022685D03*
D109*
X016056Y022689D03*
D110*
X015928Y022741D03*
X015764Y022689D03*
D111*
X016050Y022693D03*
X015926Y023353D03*
D112*
X015808Y023073D03*
X015772Y022693D03*
D113*
X016044Y022697D03*
D114*
X015790Y022697D03*
D115*
X015926Y022861D03*
X015926Y022865D03*
X016154Y022701D03*
D116*
X016152Y022705D03*
X016052Y022729D03*
D117*
X015904Y022705D03*
D118*
X015908Y022709D03*
D119*
X015912Y022713D03*
X016032Y023193D03*
D120*
X015760Y022717D03*
D121*
X015932Y022721D03*
D122*
X016052Y022725D03*
D123*
X015898Y022725D03*
X015926Y022969D03*
X016126Y023237D03*
X015926Y023361D03*
D124*
X016114Y023217D03*
X016118Y023221D03*
X015898Y022729D03*
D125*
X016056Y022733D03*
D126*
X015928Y022733D03*
D127*
X015814Y022733D03*
D128*
X016056Y022737D03*
D129*
X015928Y022737D03*
D130*
X015926Y022841D03*
X015810Y022737D03*
D131*
X016058Y022741D03*
D132*
X015928Y022765D03*
X015808Y022741D03*
D133*
X015802Y022749D03*
X016058Y022745D03*
D134*
X015804Y022745D03*
D135*
X016060Y022749D03*
D136*
X015928Y022749D03*
X016084Y023105D03*
X015752Y023129D03*
D137*
X015928Y022753D03*
D138*
X015798Y022753D03*
D139*
X015928Y022757D03*
D140*
X015928Y022761D03*
D141*
X015926Y022813D03*
D142*
X015926Y022821D03*
D143*
X015926Y022825D03*
D144*
X015926Y022829D03*
D145*
X015926Y022833D03*
D146*
X015926Y022837D03*
D147*
X015926Y022845D03*
X015926Y022849D03*
D148*
X015926Y022853D03*
D149*
X015926Y022857D03*
D150*
X015926Y022869D03*
D151*
X015926Y022873D03*
D152*
X015926Y022877D03*
X015926Y022881D03*
D153*
X015926Y022885D03*
D154*
X015926Y022889D03*
X015750Y023125D03*
D155*
X015928Y022893D03*
D156*
X015926Y022897D03*
X015810Y023049D03*
X015806Y023057D03*
X016086Y023109D03*
D157*
X015926Y022905D03*
X015806Y023069D03*
D158*
X015926Y022909D03*
D159*
X015926Y022913D03*
D160*
X015926Y022917D03*
D161*
X015926Y022921D03*
X015926Y022925D03*
D162*
X015926Y022929D03*
D163*
X015926Y022933D03*
D164*
X015926Y022937D03*
X015926Y022941D03*
D165*
X015926Y022945D03*
X015998Y023041D03*
X016002Y023045D03*
X016006Y023049D03*
D166*
X016010Y023061D03*
X015926Y022949D03*
D167*
X015926Y022953D03*
D168*
X015926Y022957D03*
D169*
X015926Y022961D03*
D170*
X015926Y022965D03*
X016122Y023229D03*
D171*
X015926Y022973D03*
D172*
X015926Y022977D03*
D173*
X015926Y022981D03*
D174*
X015926Y022985D03*
X015926Y022989D03*
D175*
X015926Y022993D03*
D176*
X015926Y022997D03*
X015926Y023357D03*
D177*
X015926Y023005D03*
X015926Y023001D03*
D178*
X015926Y023009D03*
D179*
X015926Y023013D03*
D180*
X015926Y023025D03*
D181*
X015926Y023029D03*
D182*
X015926Y023033D03*
D183*
X015926Y023037D03*
D184*
X016006Y023053D03*
D185*
X015810Y023053D03*
D186*
X015740Y023197D03*
X016008Y023057D03*
D187*
X016010Y023065D03*
X016010Y023069D03*
D188*
X016008Y023073D03*
D189*
X015926Y023089D03*
D190*
X015926Y023093D03*
D191*
X015924Y023097D03*
D192*
X015858Y023105D03*
D193*
X015916Y023109D03*
X015920Y023117D03*
D194*
X015758Y023109D03*
X015754Y023117D03*
D195*
X015918Y023113D03*
D196*
X015754Y023113D03*
D197*
X016088Y023117D03*
D198*
X015752Y023121D03*
D199*
X015996Y023125D03*
D200*
X015994Y023129D03*
D201*
X015926Y023133D03*
D202*
X015926Y023141D03*
X015926Y023145D03*
X015926Y023325D03*
D203*
X015926Y023153D03*
D204*
X015926Y023173D03*
D205*
X015746Y023193D03*
D206*
X015796Y023221D03*
X015796Y023225D03*
X016036Y023197D03*
D207*
X015738Y023201D03*
D208*
X016040Y023205D03*
D209*
X015736Y023205D03*
D210*
X016038Y023209D03*
D211*
X015740Y023209D03*
D212*
X015926Y023213D03*
D213*
X015800Y023217D03*
X015792Y023229D03*
D214*
X016120Y023225D03*
D215*
X016124Y023233D03*
D216*
X015790Y023233D03*
D217*
X015790Y023237D03*
X015790Y023241D03*
D218*
X016124Y023241D03*
D219*
X016124Y023245D03*
D220*
X015790Y023245D03*
D221*
X015926Y023273D03*
D222*
X015926Y023293D03*
D223*
X015924Y023301D03*
D224*
X015926Y023313D03*
D225*
X015926Y023333D03*
D226*
X015926Y023345D03*
D227*
X015926Y023349D03*
D228*
X015928Y023365D03*
D229*
X015924Y023369D03*
D230*
X007404Y020716D03*
X007089Y020716D03*
X006774Y020716D03*
X006459Y020716D03*
X006145Y020716D03*
D231*
X005003Y020716D03*
X005003Y022881D03*
X008546Y022881D03*
X008546Y020716D03*
D232*
X007464Y021700D02*
X007466Y021726D01*
X007472Y021752D01*
X007482Y021777D01*
X007495Y021800D01*
X007511Y021820D01*
X007531Y021838D01*
X007553Y021853D01*
X007576Y021865D01*
X007602Y021873D01*
X007628Y021877D01*
X007654Y021877D01*
X007680Y021873D01*
X007706Y021865D01*
X007730Y021853D01*
X007751Y021838D01*
X007771Y021820D01*
X007787Y021800D01*
X007800Y021777D01*
X007810Y021752D01*
X007816Y021726D01*
X007818Y021700D01*
X007816Y021674D01*
X007810Y021648D01*
X007800Y021623D01*
X007787Y021600D01*
X007771Y021580D01*
X007751Y021562D01*
X007729Y021547D01*
X007706Y021535D01*
X007680Y021527D01*
X007654Y021523D01*
X007628Y021523D01*
X007602Y021527D01*
X007576Y021535D01*
X007552Y021547D01*
X007531Y021562D01*
X007511Y021580D01*
X007495Y021600D01*
X007482Y021623D01*
X007472Y021648D01*
X007466Y021674D01*
X007464Y021700D01*
X005731Y021700D02*
X005733Y021726D01*
X005739Y021752D01*
X005749Y021777D01*
X005762Y021800D01*
X005778Y021820D01*
X005798Y021838D01*
X005820Y021853D01*
X005843Y021865D01*
X005869Y021873D01*
X005895Y021877D01*
X005921Y021877D01*
X005947Y021873D01*
X005973Y021865D01*
X005997Y021853D01*
X006018Y021838D01*
X006038Y021820D01*
X006054Y021800D01*
X006067Y021777D01*
X006077Y021752D01*
X006083Y021726D01*
X006085Y021700D01*
X006083Y021674D01*
X006077Y021648D01*
X006067Y021623D01*
X006054Y021600D01*
X006038Y021580D01*
X006018Y021562D01*
X005996Y021547D01*
X005973Y021535D01*
X005947Y021527D01*
X005921Y021523D01*
X005895Y021523D01*
X005869Y021527D01*
X005843Y021535D01*
X005819Y021547D01*
X005798Y021562D01*
X005778Y021580D01*
X005762Y021600D01*
X005749Y021623D01*
X005739Y021648D01*
X005733Y021674D01*
X005731Y021700D01*
D233*
X005908Y021700D03*
X007641Y021700D03*
D234*
X011479Y022428D03*
X013447Y022428D03*
D235*
X009362Y022633D02*
X009362Y023105D01*
X004162Y023105D02*
X004162Y022633D01*
X004162Y015805D02*
X004162Y015333D01*
X005328Y013840D02*
X005801Y013840D01*
X009362Y015333D02*
X009362Y015805D01*
X012628Y013840D02*
X013101Y013840D01*
X013101Y008640D02*
X012628Y008640D01*
X005801Y008640D02*
X005328Y008640D01*
D236*
X011384Y018221D02*
X011384Y018761D01*
X012384Y018761D02*
X012384Y018221D01*
X013384Y018221D02*
X013384Y018761D01*
D237*
X014117Y009712D03*
X014117Y008550D03*
X010534Y008550D03*
X010534Y009712D03*
X007699Y009712D03*
X007699Y008550D03*
X004314Y008668D03*
X004314Y009830D03*
D238*
X004314Y010538D03*
X004314Y011641D03*
X007699Y011641D03*
X007699Y010538D03*
X010495Y010538D03*
X010495Y011641D03*
X008290Y014751D03*
X008290Y015853D03*
X014156Y014357D03*
X014156Y013255D03*
X014117Y011641D03*
X014117Y010538D03*
D239*
X014077Y015597D03*
X014077Y016424D03*
X013290Y016424D03*
X013290Y015597D03*
X012463Y015597D03*
X012463Y016424D03*
X011676Y016424D03*
X011676Y015597D03*
X010888Y015597D03*
X010888Y016424D03*
D240*
X006853Y018038D03*
D241*
X006853Y018708D03*
X006026Y018708D03*
X006026Y017960D03*
D242*
X007414Y013255D03*
X011214Y013255D03*
D243*
X010554Y007342D03*
X010554Y006554D03*
X010554Y005767D03*
X010554Y004979D03*
X013506Y004979D03*
X013506Y005767D03*
X013506Y006554D03*
X013506Y007342D03*
X007601Y007342D03*
X007601Y006554D03*
X007601Y005767D03*
X007601Y004979D03*
X004648Y004979D03*
X004648Y005767D03*
X004648Y006554D03*
X004648Y007342D03*
D244*
X003577Y007448D03*
X003577Y004692D03*
X005719Y004692D03*
X006530Y004692D03*
X006530Y007448D03*
X005719Y007448D03*
X008672Y007448D03*
X009483Y007448D03*
X009483Y004692D03*
X008672Y004692D03*
X011625Y004692D03*
X012436Y004692D03*
X014577Y004692D03*
X014577Y007448D03*
X012436Y007448D03*
X011625Y007448D03*
D245*
X011518Y008491D03*
X011715Y009436D03*
X013014Y009672D03*
X013014Y011168D03*
X012857Y012310D03*
X011833Y011838D03*
X011046Y012625D03*
X012069Y014042D03*
X013605Y015027D03*
X015062Y015027D03*
X015062Y017113D03*
X013408Y017153D03*
X011833Y017113D03*
X010573Y017074D03*
X009904Y016247D03*
X009392Y016759D03*
X008211Y016562D03*
X007975Y017979D03*
X007502Y019042D03*
X007069Y019869D03*
X008605Y019633D03*
X009432Y019121D03*
X009865Y021050D03*
X006321Y016759D03*
X005062Y017625D03*
X003959Y018294D03*
X003920Y016483D03*
X003920Y013845D03*
X003999Y012271D03*
X005101Y010814D03*
X005534Y011405D03*
X005967Y009790D03*
X006794Y009830D03*
X005298Y008058D03*
X003369Y008216D03*
X007227Y013924D03*
X008605Y012704D03*
X009314Y014830D03*
X009865Y014948D03*
X009195Y009515D03*
X008644Y008294D03*
X014943Y010145D03*
M02*
