%
M48
M72
T01C0.0236
T02C0.0315
T03C0.0354
T04C0.0360
T05C0.0520
T06C0.0591
%
T01
X3959Y18294
X5062Y17625
X3920Y16483
X3920Y13845
X3999Y12271
X5101Y10814
X5534Y11405
X5967Y9790
X6794Y9830
X5298Y8058
X3369Y8216
X7227Y13924
X8605Y12704
X9314Y14830
X9865Y14948
X9904Y16247
X9392Y16759
X10573Y17074
X11833Y17113
X13408Y17153
X13605Y15027
X15062Y15027
X15062Y17113
X12069Y14042
X11046Y12625
X11833Y11838
X12857Y12310
X13014Y11168
X13014Y9672
X11715Y9436
X11518Y8491
X9195Y9515
X8644Y8294
X14943Y10145
X9865Y21050
X8605Y19633
X9432Y19121
X7975Y17979
X7502Y19042
X7069Y19869
X6321Y16759
X8211Y16562
T02
X4162Y22869
X9362Y22869
X9362Y15569
X12865Y13840
X12865Y8640
X5565Y13840
X4162Y15569
X5565Y8640
T03
X5908Y21700
X7641Y21700
X13506Y7342
X13506Y6554
X13506Y5767
X13506Y4979
X10554Y4979
X10554Y5767
X10554Y6554
X10554Y7342
X7601Y7342
X7601Y6554
X7601Y5767
X7601Y4979
X4648Y4979
X4648Y5767
X4648Y6554
X4648Y7342
T04
X1617Y21558
X1617Y20558
X1617Y19558
X1617Y18558
X1617Y17558
X1617Y16558
X1617Y15558
X1617Y14558
X1617Y13558
X1617Y12558
X1617Y11558
X1617Y10558
X1617Y9558
X1617Y8558
X1617Y7558
X1617Y6558
X1617Y5558
X1617Y4558
X2617Y4558
X2617Y5558
X2617Y6558
X2617Y7558
X2617Y8558
X2617Y9558
X2617Y10558
X2617Y11558
X2617Y12558
X2617Y13558
X2617Y14558
X2617Y15558
X2617Y16558
X2617Y17558
X2617Y18558
X2617Y19558
X2617Y20558
X2617Y21558
X11384Y18491
X12384Y18491
X13384Y18491
X15617Y18558
X15617Y17558
X15617Y16558
X15617Y15558
X15617Y14558
X15617Y13558
X16617Y13558
X16617Y14558
X16617Y15558
X16617Y16558
X16617Y17558
X16617Y18558
X16617Y19558
X16617Y20558
X16617Y21558
X15617Y21558
X15617Y20558
X15617Y19558
X16617Y12558
X16617Y11558
X16617Y10558
X16617Y9558
X16617Y8558
X16617Y7558
X16617Y6558
X16617Y5558
X16617Y4558
X15617Y4558
X15617Y5558
X15617Y6558
X15617Y7558
X15617Y8558
X15617Y9558
X15617Y10558
X15617Y11558
X15617Y12558
T05
X11479Y22428
X13447Y22428
T06
X14577Y7448
X12436Y7448
X11625Y7448
X11625Y4692
X12436Y4692
X14577Y4692
X9483Y4692
X8672Y4692
X8672Y7448
X9483Y7448
X6530Y7448
X5719Y7448
X5719Y4692
X6530Y4692
X3577Y4692
X3577Y7448
M30
