G75*
%MOIN*%
%OFA0B0*%
%FSLAX24Y24*%
%IPPOS*%
%LPD*%
%AMOC8*
5,1,8,0,0,1.08239X$1,22.5*
%
%ADD10C,0.0160*%
%ADD11R,0.0138X0.0591*%
%ADD12C,0.0000*%
%ADD13R,0.0591X0.0512*%
%ADD14R,0.0512X0.0591*%
%ADD15R,0.0394X0.0236*%
%ADD16R,0.0236X0.0236*%
%ADD17R,0.0236X0.0394*%
%ADD18R,0.0236X0.0236*%
%ADD19R,0.0460X0.0630*%
D10*
X001046Y004003D02*
X017188Y004003D01*
X017188Y023688D01*
X001046Y023688D01*
X001046Y004003D01*
D11*
X007612Y011524D03*
X007864Y011524D03*
X008116Y011524D03*
X008368Y011524D03*
X008620Y011524D03*
X008872Y011524D03*
X009124Y011524D03*
X009376Y011524D03*
X009628Y011524D03*
X009880Y011524D03*
X010132Y011524D03*
X010384Y011524D03*
X010636Y011524D03*
X010888Y011524D03*
X010888Y013650D03*
X010636Y013650D03*
X010384Y013650D03*
X010132Y013650D03*
X009880Y013650D03*
X009628Y013650D03*
X009368Y013650D03*
X009124Y013650D03*
X008872Y013650D03*
X008620Y013650D03*
X008368Y013650D03*
X008116Y013650D03*
X007864Y013650D03*
X007612Y013650D03*
D12*
X007464Y021700D02*
X007466Y021726D01*
X007472Y021752D01*
X007482Y021777D01*
X007495Y021800D01*
X007511Y021820D01*
X007531Y021838D01*
X007553Y021853D01*
X007576Y021865D01*
X007602Y021873D01*
X007628Y021877D01*
X007654Y021877D01*
X007680Y021873D01*
X007706Y021865D01*
X007730Y021853D01*
X007751Y021838D01*
X007771Y021820D01*
X007787Y021800D01*
X007800Y021777D01*
X007810Y021752D01*
X007816Y021726D01*
X007818Y021700D01*
X007816Y021674D01*
X007810Y021648D01*
X007800Y021623D01*
X007787Y021600D01*
X007771Y021580D01*
X007751Y021562D01*
X007729Y021547D01*
X007706Y021535D01*
X007680Y021527D01*
X007654Y021523D01*
X007628Y021523D01*
X007602Y021527D01*
X007576Y021535D01*
X007552Y021547D01*
X007531Y021562D01*
X007511Y021580D01*
X007495Y021600D01*
X007482Y021623D01*
X007472Y021648D01*
X007466Y021674D01*
X007464Y021700D01*
X005731Y021700D02*
X005733Y021726D01*
X005739Y021752D01*
X005749Y021777D01*
X005762Y021800D01*
X005778Y021820D01*
X005798Y021838D01*
X005820Y021853D01*
X005843Y021865D01*
X005869Y021873D01*
X005895Y021877D01*
X005921Y021877D01*
X005947Y021873D01*
X005973Y021865D01*
X005997Y021853D01*
X006018Y021838D01*
X006038Y021820D01*
X006054Y021800D01*
X006067Y021777D01*
X006077Y021752D01*
X006083Y021726D01*
X006085Y021700D01*
X006083Y021674D01*
X006077Y021648D01*
X006067Y021623D01*
X006054Y021600D01*
X006038Y021580D01*
X006018Y021562D01*
X005996Y021547D01*
X005973Y021535D01*
X005947Y021527D01*
X005921Y021523D01*
X005895Y021523D01*
X005869Y021527D01*
X005843Y021535D01*
X005819Y021547D01*
X005798Y021562D01*
X005778Y021580D01*
X005762Y021600D01*
X005749Y021623D01*
X005739Y021648D01*
X005733Y021674D01*
X005731Y021700D01*
D13*
X008526Y016031D03*
X008526Y015282D03*
X010455Y015637D03*
X010455Y016385D03*
X012030Y016385D03*
X012030Y015637D03*
X013605Y015637D03*
X013605Y016385D03*
X006164Y012172D03*
X006164Y011424D03*
D14*
X008664Y017507D03*
X009412Y017507D03*
X009412Y018373D03*
X008664Y018373D03*
D15*
X011814Y010716D03*
G36*
X008293Y008983D02*
X008570Y009260D01*
X008737Y009093D01*
X008460Y008816D01*
X008293Y008983D01*
G37*
G36*
X005183Y009770D02*
X005460Y010047D01*
X005627Y009880D01*
X005350Y009603D01*
X005183Y009770D01*
G37*
D16*
X009766Y009180D03*
X009766Y008432D03*
X010593Y008432D03*
X011735Y009889D03*
X012483Y009889D03*
X012483Y010716D03*
D17*
X010593Y009101D03*
D18*
G36*
X007876Y008564D02*
X008042Y008730D01*
X008208Y008564D01*
X008042Y008398D01*
X007876Y008564D01*
G37*
G36*
X007292Y009149D02*
X007458Y009315D01*
X007624Y009149D01*
X007458Y008983D01*
X007292Y009149D01*
G37*
G36*
X007820Y009678D02*
X007986Y009844D01*
X008152Y009678D01*
X007986Y009512D01*
X007820Y009678D01*
G37*
G36*
X004766Y009352D02*
X004932Y009518D01*
X005098Y009352D01*
X004932Y009186D01*
X004766Y009352D01*
G37*
G36*
X004181Y009936D02*
X004347Y010102D01*
X004513Y009936D01*
X004347Y009770D01*
X004181Y009936D01*
G37*
G36*
X004710Y010465D02*
X004876Y010631D01*
X005042Y010465D01*
X004876Y010299D01*
X004710Y010465D01*
G37*
D19*
X004943Y020538D03*
X005543Y020538D03*
X005307Y021562D03*
X004707Y021562D03*
X004107Y021562D03*
X004343Y020538D03*
M02*
