G75*
%MOIN*%
%OFA0B0*%
%FSLAX24Y24*%
%IPPOS*%
%LPD*%
%AMOC8*
5,1,8,0,0,1.08239X$1,22.5*
%
%ADD10C,0.0160*%
%ADD11C,0.0060*%
%ADD12C,0.0600*%
%ADD13OC8,0.0600*%
%ADD14R,0.0312X0.0004*%
%ADD15R,0.0344X0.0004*%
%ADD16R,0.0368X0.0004*%
%ADD17R,0.0392X0.0004*%
%ADD18R,0.0408X0.0004*%
%ADD19R,0.0424X0.0004*%
%ADD20R,0.0432X0.0004*%
%ADD21R,0.0448X0.0004*%
%ADD22R,0.0456X0.0004*%
%ADD23R,0.0472X0.0004*%
%ADD24R,0.0480X0.0004*%
%ADD25R,0.0488X0.0004*%
%ADD26R,0.0496X0.0004*%
%ADD27R,0.0504X0.0004*%
%ADD28R,0.0512X0.0004*%
%ADD29R,0.0520X0.0004*%
%ADD30R,0.0528X0.0004*%
%ADD31R,0.0536X0.0004*%
%ADD32R,0.0536X0.0004*%
%ADD33R,0.0544X0.0004*%
%ADD34R,0.0552X0.0004*%
%ADD35R,0.0560X0.0004*%
%ADD36R,0.0560X0.0004*%
%ADD37R,0.0568X0.0004*%
%ADD38R,0.0576X0.0004*%
%ADD39R,0.0584X0.0004*%
%ADD40R,0.0592X0.0004*%
%ADD41R,0.0592X0.0004*%
%ADD42R,0.0600X0.0004*%
%ADD43R,0.0608X0.0004*%
%ADD44R,0.0608X0.0004*%
%ADD45R,0.0616X0.0004*%
%ADD46R,0.0624X0.0004*%
%ADD47R,0.0632X0.0004*%
%ADD48R,0.0632X0.0004*%
%ADD49R,0.0640X0.0004*%
%ADD50R,0.0648X0.0004*%
%ADD51R,0.0648X0.0004*%
%ADD52R,0.0656X0.0004*%
%ADD53R,0.0664X0.0004*%
%ADD54R,0.0664X0.0004*%
%ADD55R,0.0672X0.0004*%
%ADD56R,0.0680X0.0004*%
%ADD57R,0.0680X0.0004*%
%ADD58R,0.0688X0.0004*%
%ADD59R,0.0696X0.0004*%
%ADD60R,0.0700X0.0004*%
%ADD61R,0.0708X0.0004*%
%ADD62R,0.0716X0.0004*%
%ADD63R,0.0720X0.0004*%
%ADD64R,0.0720X0.0004*%
%ADD65R,0.0724X0.0004*%
%ADD66R,0.0808X0.0004*%
%ADD67R,0.0824X0.0004*%
%ADD68R,0.0832X0.0004*%
%ADD69R,0.0840X0.0004*%
%ADD70R,0.0848X0.0004*%
%ADD71R,0.0856X0.0004*%
%ADD72R,0.0860X0.0004*%
%ADD73R,0.0864X0.0004*%
%ADD74R,0.0864X0.0004*%
%ADD75R,0.0868X0.0004*%
%ADD76R,0.0872X0.0004*%
%ADD77R,0.0872X0.0004*%
%ADD78R,0.0860X0.0004*%
%ADD79R,0.0832X0.0004*%
%ADD80R,0.0824X0.0004*%
%ADD81R,0.0708X0.0004*%
%ADD82R,0.0712X0.0004*%
%ADD83R,0.0712X0.0004*%
%ADD84R,0.0700X0.0004*%
%ADD85R,0.0696X0.0004*%
%ADD86R,0.0692X0.0004*%
%ADD87R,0.0668X0.0004*%
%ADD88R,0.0660X0.0004*%
%ADD89R,0.0452X0.0004*%
%ADD90R,0.0188X0.0004*%
%ADD91R,0.0448X0.0004*%
%ADD92R,0.0440X0.0004*%
%ADD93R,0.0184X0.0004*%
%ADD94R,0.0432X0.0004*%
%ADD95R,0.0184X0.0004*%
%ADD96R,0.0424X0.0004*%
%ADD97R,0.0412X0.0004*%
%ADD98R,0.0128X0.0004*%
%ADD99R,0.0044X0.0004*%
%ADD100R,0.0400X0.0004*%
%ADD101R,0.0008X0.0004*%
%ADD102R,0.0388X0.0004*%
%ADD103R,0.0132X0.0004*%
%ADD104R,0.0360X0.0004*%
%ADD105R,0.0136X0.0004*%
%ADD106R,0.0340X0.0004*%
%ADD107R,0.0140X0.0004*%
%ADD108R,0.0328X0.0004*%
%ADD109R,0.0144X0.0004*%
%ADD110R,0.0324X0.0004*%
%ADD111R,0.0148X0.0004*%
%ADD112R,0.0320X0.0004*%
%ADD113R,0.0156X0.0004*%
%ADD114R,0.0316X0.0004*%
%ADD115R,0.0176X0.0004*%
%ADD116R,0.0080X0.0004*%
%ADD117R,0.0052X0.0004*%
%ADD118R,0.0380X0.0004*%
%ADD119R,0.0372X0.0004*%
%ADD120R,0.0356X0.0004*%
%ADD121R,0.0004X0.0004*%
%ADD122R,0.0308X0.0004*%
%ADD123R,0.0060X0.0004*%
%ADD124R,0.0240X0.0004*%
%ADD125R,0.0232X0.0004*%
%ADD126R,0.0044X0.0004*%
%ADD127R,0.0164X0.0004*%
%ADD128R,0.0056X0.0004*%
%ADD129R,0.0036X0.0004*%
%ADD130R,0.0156X0.0004*%
%ADD131R,0.0048X0.0004*%
%ADD132R,0.0024X0.0004*%
%ADD133R,0.0036X0.0004*%
%ADD134R,0.0016X0.0004*%
%ADD135R,0.0028X0.0004*%
%ADD136R,0.0012X0.0004*%
%ADD137R,0.0124X0.0004*%
%ADD138R,0.0108X0.0004*%
%ADD139R,0.0008X0.0004*%
%ADD140R,0.0092X0.0004*%
%ADD141R,0.0068X0.0004*%
%ADD142R,0.0008X0.0004*%
%ADD143R,0.0016X0.0004*%
%ADD144R,0.0024X0.0004*%
%ADD145R,0.0032X0.0004*%
%ADD146R,0.0032X0.0004*%
%ADD147R,0.0040X0.0004*%
%ADD148R,0.0056X0.0004*%
%ADD149R,0.0064X0.0004*%
%ADD150R,0.0072X0.0004*%
%ADD151R,0.0088X0.0004*%
%ADD152R,0.0096X0.0004*%
%ADD153R,0.0104X0.0004*%
%ADD154R,0.0112X0.0004*%
%ADD155R,0.0120X0.0004*%
%ADD156R,0.0124X0.0004*%
%ADD157R,0.0128X0.0004*%
%ADD158R,0.0144X0.0004*%
%ADD159R,0.0152X0.0004*%
%ADD160R,0.0152X0.0004*%
%ADD161R,0.0160X0.0004*%
%ADD162R,0.0168X0.0004*%
%ADD163R,0.0176X0.0004*%
%ADD164R,0.0184X0.0004*%
%ADD165R,0.0192X0.0004*%
%ADD166R,0.0200X0.0004*%
%ADD167R,0.0208X0.0004*%
%ADD168R,0.0216X0.0004*%
%ADD169R,0.0216X0.0004*%
%ADD170R,0.0224X0.0004*%
%ADD171R,0.0232X0.0004*%
%ADD172R,0.0240X0.0004*%
%ADD173R,0.0248X0.0004*%
%ADD174R,0.0256X0.0004*%
%ADD175R,0.0264X0.0004*%
%ADD176R,0.0272X0.0004*%
%ADD177R,0.0280X0.0004*%
%ADD178R,0.0288X0.0004*%
%ADD179R,0.0296X0.0004*%
%ADD180R,0.0304X0.0004*%
%ADD181R,0.0320X0.0004*%
%ADD182R,0.0328X0.0004*%
%ADD183R,0.0336X0.0004*%
%ADD184R,0.0336X0.0004*%
%ADD185R,0.0200X0.0004*%
%ADD186R,0.0128X0.0004*%
%ADD187R,0.0204X0.0004*%
%ADD188R,0.0216X0.0004*%
%ADD189R,0.0228X0.0004*%
%ADD190R,0.0416X0.0004*%
%ADD191R,0.0424X0.0004*%
%ADD192R,0.0428X0.0004*%
%ADD193R,0.0304X0.0004*%
%ADD194R,0.0180X0.0004*%
%ADD195R,0.0112X0.0004*%
%ADD196R,0.0176X0.0004*%
%ADD197R,0.0112X0.0004*%
%ADD198R,0.0132X0.0004*%
%ADD199R,0.0116X0.0004*%
%ADD200R,0.0332X0.0004*%
%ADD201R,0.0336X0.0004*%
%ADD202R,0.0480X0.0004*%
%ADD203R,0.0496X0.0004*%
%ADD204R,0.0512X0.0004*%
%ADD205R,0.0544X0.0004*%
%ADD206R,0.0208X0.0004*%
%ADD207R,0.0356X0.0004*%
%ADD208R,0.0208X0.0004*%
%ADD209R,0.0364X0.0004*%
%ADD210R,0.0212X0.0004*%
%ADD211R,0.0368X0.0004*%
%ADD212R,0.0220X0.0004*%
%ADD213R,0.0600X0.0004*%
%ADD214R,0.0356X0.0004*%
%ADD215R,0.0228X0.0004*%
%ADD216R,0.0236X0.0004*%
%ADD217R,0.0360X0.0004*%
%ADD218R,0.0368X0.0004*%
%ADD219R,0.0244X0.0004*%
%ADD220R,0.0252X0.0004*%
%ADD221R,0.0376X0.0004*%
%ADD222R,0.0672X0.0004*%
%ADD223R,0.0624X0.0004*%
%ADD224R,0.0596X0.0004*%
%ADD225R,0.0552X0.0004*%
%ADD226R,0.0456X0.0004*%
%ADD227R,0.0384X0.0004*%
%ADD228R,0.0352X0.0004*%
%ADD229R,0.0188X0.0004*%
%ADD230R,0.0108X0.0004*%
%ADD231R,0.0198X0.0651*%
%ADD232C,0.0651*%
%ADD233C,0.1360*%
%ADD234C,0.0000*%
%ADD235C,0.0414*%
%ADD236OC8,0.1310*%
%ADD237C,0.0532*%
%ADD238C,0.0600*%
%ADD239R,0.1123X0.0651*%
%ADD240R,0.0690X0.1123*%
%ADD241R,0.1123X0.0690*%
%ADD242R,0.0572X0.0651*%
%ADD243R,0.0651X0.0572*%
%ADD244R,0.0296X0.0454*%
%ADD245R,0.0296X0.0296*%
%ADD246R,0.0520X0.0690*%
%ADD247C,0.1560*%
%ADD248C,0.0476*%
%ADD249C,0.0296*%
%ADD250C,0.0436*%
D10*
X001046Y002668D02*
X017188Y002668D01*
X017188Y022353D01*
X001046Y022353D01*
X001046Y002668D01*
D11*
X001615Y020818D02*
X001542Y020892D01*
X001542Y021185D01*
X001615Y021259D01*
X001762Y021259D01*
X001835Y021185D01*
X001835Y021112D01*
X001762Y021039D01*
X001542Y021039D01*
X001615Y020818D02*
X001762Y020818D01*
X001835Y020892D01*
X001992Y020892D02*
X001992Y020818D01*
X002065Y020818D01*
X002065Y020892D01*
X001992Y020892D01*
X002232Y020892D02*
X002306Y020818D01*
X002452Y020818D01*
X002526Y020892D01*
X002379Y021039D02*
X002306Y021039D01*
X002232Y020965D01*
X002232Y020892D01*
X002306Y021039D02*
X002232Y021112D01*
X002232Y021185D01*
X002306Y021259D01*
X002452Y021259D01*
X002526Y021185D01*
X002693Y021112D02*
X002839Y020818D01*
X002986Y021112D01*
X002913Y021568D02*
X002839Y021568D01*
X002766Y021642D01*
X002766Y022009D01*
X002839Y022009D02*
X002693Y022009D01*
X002526Y022009D02*
X002526Y021568D01*
X002526Y021715D02*
X002232Y022009D01*
X002065Y022009D02*
X002065Y021568D01*
X001919Y021715D01*
X001772Y021568D01*
X001772Y022009D01*
X002232Y021568D02*
X002452Y021789D01*
X002913Y021568D02*
X002986Y021642D01*
D12*
X001617Y003223D03*
X015617Y003223D03*
D13*
X015617Y004223D03*
X015617Y005223D03*
X015617Y006223D03*
X015617Y007223D03*
X015617Y008223D03*
X015617Y009223D03*
X015617Y010223D03*
X015617Y011223D03*
X015617Y012223D03*
X015617Y013223D03*
X015617Y014223D03*
X015617Y015223D03*
X015617Y016223D03*
X015617Y017223D03*
X015617Y018223D03*
X015617Y019223D03*
X015617Y020223D03*
X016617Y020223D03*
X016617Y019223D03*
X016617Y018223D03*
X016617Y017223D03*
X016617Y016223D03*
X016617Y015223D03*
X016617Y014223D03*
X016617Y013223D03*
X016617Y012223D03*
X016617Y011223D03*
X016617Y010223D03*
X016617Y009223D03*
X016617Y008223D03*
X016617Y007223D03*
X016617Y006223D03*
X016617Y005223D03*
X016617Y004223D03*
X016617Y003223D03*
X002617Y003223D03*
X002617Y004223D03*
X002617Y005223D03*
X002617Y006223D03*
X002617Y007223D03*
X002617Y008223D03*
X002617Y009223D03*
X002617Y010223D03*
X002617Y011223D03*
X002617Y012223D03*
X002617Y013223D03*
X002617Y014223D03*
X002617Y015223D03*
X002617Y016223D03*
X002617Y017223D03*
X002617Y018223D03*
X002617Y019223D03*
X002617Y020223D03*
X001617Y020223D03*
X001617Y019223D03*
X001617Y018223D03*
X001617Y017223D03*
X001617Y016223D03*
X001617Y015223D03*
X001617Y014223D03*
X001617Y013223D03*
X001617Y012223D03*
X001617Y011223D03*
X001617Y010223D03*
X001617Y009223D03*
X001617Y008223D03*
X001617Y007223D03*
X001617Y006223D03*
X001617Y005223D03*
X001617Y004223D03*
D14*
X015941Y020840D03*
X015937Y021352D03*
X015941Y021652D03*
X015941Y021656D03*
D15*
X015941Y020844D03*
D16*
X015941Y020848D03*
D17*
X015941Y020852D03*
X015965Y021336D03*
D18*
X015941Y021716D03*
X015941Y021720D03*
X015941Y021976D03*
X015941Y020856D03*
D19*
X015941Y020860D03*
D20*
X015941Y020864D03*
X015941Y021736D03*
X015941Y021972D03*
D21*
X015941Y020868D03*
D22*
X015941Y020872D03*
D23*
X015941Y020876D03*
D24*
X015941Y020880D03*
X015941Y021964D03*
D25*
X015941Y021772D03*
X015941Y020884D03*
D26*
X015941Y020888D03*
D27*
X015941Y020892D03*
X015941Y021784D03*
D28*
X015941Y021956D03*
X015941Y020896D03*
D29*
X015941Y020900D03*
X015941Y021792D03*
X015941Y021796D03*
D30*
X015941Y021800D03*
X015941Y020904D03*
D31*
X015941Y020908D03*
D32*
X015941Y020912D03*
X015941Y021804D03*
X015941Y021952D03*
D33*
X015941Y021812D03*
X015941Y020916D03*
D34*
X015941Y020920D03*
X015941Y021816D03*
D35*
X015941Y021820D03*
X015941Y020924D03*
D36*
X015941Y020928D03*
D37*
X015941Y020932D03*
X015941Y021824D03*
X015941Y021944D03*
D38*
X015941Y020940D03*
X015941Y020936D03*
D39*
X015941Y020944D03*
X015941Y021940D03*
D40*
X015941Y020948D03*
D41*
X015941Y020952D03*
D42*
X015941Y020956D03*
X015941Y020960D03*
D43*
X015941Y020964D03*
X015941Y021932D03*
D44*
X015941Y020968D03*
D45*
X015941Y020972D03*
X015941Y020976D03*
D46*
X015941Y020980D03*
X015941Y020984D03*
D47*
X015941Y020988D03*
D48*
X015941Y020992D03*
X015941Y021924D03*
D49*
X015941Y021000D03*
X015941Y020996D03*
D50*
X015941Y021004D03*
X015941Y021012D03*
X015941Y021920D03*
D51*
X015941Y021008D03*
D52*
X015941Y021016D03*
X015941Y021020D03*
X015941Y021884D03*
X015941Y021916D03*
D53*
X015941Y021912D03*
X015941Y021892D03*
X015941Y021024D03*
D54*
X015941Y021028D03*
X015941Y021888D03*
D55*
X015941Y021896D03*
X015937Y021264D03*
X015941Y021040D03*
X015941Y021036D03*
X015941Y021032D03*
D56*
X015941Y021044D03*
X015941Y021260D03*
X015941Y021900D03*
X015941Y021904D03*
D57*
X015941Y021048D03*
D58*
X015941Y021052D03*
X015941Y021056D03*
X015941Y021256D03*
D59*
X015941Y021064D03*
X015941Y021060D03*
D60*
X015939Y021068D03*
D61*
X015939Y021072D03*
X015939Y021076D03*
D62*
X015939Y021080D03*
X015939Y021084D03*
D63*
X015941Y021088D03*
D64*
X015941Y021092D03*
D65*
X015943Y021096D03*
D66*
X015941Y021100D03*
X015941Y021192D03*
D67*
X015941Y021104D03*
D68*
X015941Y021108D03*
D69*
X015941Y021112D03*
X015941Y021180D03*
D70*
X015941Y021176D03*
X015941Y021116D03*
D71*
X015941Y021120D03*
X015941Y021172D03*
D72*
X015943Y021124D03*
D73*
X015941Y021128D03*
D74*
X015941Y021132D03*
X015941Y021160D03*
X015941Y021164D03*
D75*
X015943Y021156D03*
X015943Y021140D03*
X015943Y021136D03*
D76*
X015941Y021144D03*
X015941Y021152D03*
D77*
X015941Y021148D03*
D78*
X015943Y021168D03*
D79*
X015941Y021184D03*
D80*
X015941Y021188D03*
D81*
X015951Y021224D03*
X015947Y021236D03*
D82*
X015949Y021228D03*
D83*
X015949Y021232D03*
D84*
X015947Y021240D03*
X015947Y021244D03*
D85*
X015945Y021248D03*
D86*
X015943Y021252D03*
D87*
X015935Y021268D03*
D88*
X015935Y021272D03*
X015935Y021276D03*
D89*
X015835Y021280D03*
D90*
X016167Y021296D03*
X016171Y021284D03*
X016171Y021280D03*
D91*
X015833Y021284D03*
D92*
X015833Y021288D03*
D93*
X016169Y021288D03*
D94*
X015833Y021292D03*
D95*
X016169Y021292D03*
D96*
X015829Y021296D03*
D97*
X015827Y021300D03*
D98*
X016129Y021304D03*
X016133Y021300D03*
X016049Y021676D03*
X016053Y021680D03*
D99*
X016239Y021300D03*
D100*
X015825Y021304D03*
X015941Y021712D03*
D101*
X015941Y021452D03*
X016257Y021304D03*
D102*
X015823Y021308D03*
D103*
X016123Y021308D03*
X015779Y021748D03*
D104*
X015829Y021836D03*
X015813Y021312D03*
D105*
X015941Y021380D03*
X015941Y021536D03*
X016061Y021696D03*
X016121Y021312D03*
D106*
X015807Y021316D03*
D107*
X016115Y021316D03*
X016063Y021700D03*
D108*
X015873Y021756D03*
X015809Y021320D03*
D109*
X016109Y021320D03*
D110*
X015811Y021324D03*
D111*
X015939Y021376D03*
X016103Y021324D03*
D112*
X015817Y021328D03*
X015941Y021988D03*
D113*
X016059Y021708D03*
X016095Y021328D03*
D114*
X015823Y021332D03*
D115*
X016077Y021332D03*
D116*
X015941Y021496D03*
X015941Y021500D03*
X015713Y021336D03*
D117*
X015715Y021340D03*
X015815Y021364D03*
D118*
X015963Y021340D03*
D119*
X015959Y021344D03*
D120*
X015955Y021348D03*
X015835Y021828D03*
D121*
X016107Y021352D03*
D122*
X015935Y021356D03*
D123*
X015815Y021360D03*
D124*
X015969Y021360D03*
X015941Y021604D03*
X015741Y021872D03*
X015941Y021996D03*
D125*
X015753Y021852D03*
X015749Y021856D03*
X015969Y021364D03*
D126*
X015811Y021368D03*
D127*
X015939Y021368D03*
D128*
X016053Y021368D03*
D129*
X015811Y021372D03*
D130*
X015939Y021372D03*
D131*
X015941Y021476D03*
X016057Y021372D03*
D132*
X015809Y021376D03*
D133*
X015939Y021400D03*
X016059Y021376D03*
D134*
X016065Y021384D03*
X015809Y021380D03*
D135*
X016063Y021380D03*
D136*
X015807Y021384D03*
D137*
X015939Y021384D03*
X015783Y021740D03*
X016115Y021764D03*
D138*
X015939Y021388D03*
D139*
X016069Y021388D03*
D140*
X015939Y021392D03*
D141*
X015939Y021396D03*
D142*
X015941Y021448D03*
D143*
X015941Y021456D03*
D144*
X015941Y021460D03*
D145*
X015941Y021464D03*
D146*
X015941Y021468D03*
D147*
X015941Y021472D03*
D148*
X015941Y021480D03*
X015941Y021484D03*
D149*
X015941Y021488D03*
D150*
X015941Y021492D03*
D151*
X015941Y021504D03*
D152*
X015941Y021508D03*
D153*
X015941Y021512D03*
X015941Y021516D03*
D154*
X015941Y021520D03*
D155*
X015941Y021524D03*
X016117Y021760D03*
D156*
X015939Y021528D03*
D157*
X015941Y021532D03*
X016057Y021684D03*
X016061Y021692D03*
X015781Y021744D03*
D158*
X015941Y021540D03*
X016061Y021704D03*
D159*
X015941Y021544D03*
D160*
X015941Y021548D03*
D161*
X015941Y021552D03*
D162*
X015941Y021556D03*
X015941Y021560D03*
D163*
X015941Y021564D03*
D164*
X015941Y021568D03*
D165*
X015941Y021572D03*
X015941Y021576D03*
D166*
X015941Y021580D03*
X015869Y021676D03*
X015865Y021680D03*
X015861Y021684D03*
D167*
X015857Y021696D03*
X015941Y021584D03*
D168*
X015941Y021588D03*
D169*
X015941Y021592D03*
D170*
X015941Y021596D03*
D171*
X015941Y021600D03*
X015745Y021864D03*
D172*
X015941Y021608D03*
D173*
X015941Y021612D03*
D174*
X015941Y021616D03*
D175*
X015941Y021620D03*
X015941Y021624D03*
D176*
X015941Y021628D03*
D177*
X015941Y021632D03*
X015941Y021992D03*
D178*
X015941Y021640D03*
X015941Y021636D03*
D179*
X015941Y021644D03*
D180*
X015941Y021648D03*
D181*
X015941Y021660D03*
D182*
X015941Y021664D03*
D183*
X015941Y021668D03*
D184*
X015941Y021672D03*
D185*
X015861Y021688D03*
D186*
X016057Y021688D03*
D187*
X016127Y021832D03*
X015859Y021692D03*
D188*
X015857Y021700D03*
X015857Y021704D03*
D189*
X015859Y021708D03*
D190*
X015941Y021724D03*
D191*
X015941Y021728D03*
D192*
X015943Y021732D03*
D193*
X016009Y021740D03*
D194*
X015951Y021744D03*
X015947Y021752D03*
D195*
X016109Y021744D03*
X016113Y021752D03*
D196*
X015949Y021748D03*
D197*
X016113Y021748D03*
D198*
X015779Y021752D03*
D199*
X016115Y021756D03*
D200*
X015871Y021760D03*
D201*
X015873Y021764D03*
D202*
X015941Y021768D03*
D203*
X015941Y021776D03*
X015941Y021780D03*
X015941Y021960D03*
D204*
X015941Y021788D03*
D205*
X015941Y021808D03*
D206*
X016121Y021828D03*
D207*
X016071Y021856D03*
X016071Y021860D03*
X015831Y021832D03*
D208*
X016129Y021836D03*
D209*
X015827Y021840D03*
D210*
X016131Y021840D03*
D211*
X015829Y021844D03*
D212*
X016127Y021844D03*
D213*
X015941Y021848D03*
D214*
X016067Y021852D03*
X016075Y021864D03*
D215*
X015747Y021860D03*
D216*
X015743Y021868D03*
D217*
X016077Y021868D03*
D218*
X016077Y021872D03*
X016077Y021876D03*
D219*
X015743Y021876D03*
D220*
X015743Y021880D03*
D221*
X016077Y021880D03*
D222*
X015941Y021908D03*
D223*
X015941Y021928D03*
D224*
X015943Y021936D03*
D225*
X015941Y021948D03*
D226*
X015941Y021968D03*
D227*
X015941Y021980D03*
D228*
X015941Y021984D03*
D229*
X015939Y022000D03*
D230*
X015943Y022004D03*
D231*
X008290Y013929D03*
X008038Y013929D03*
X007786Y013929D03*
X007534Y013929D03*
X007282Y013929D03*
X007030Y013929D03*
X006770Y013929D03*
X006526Y013929D03*
X006274Y013929D03*
X006022Y013929D03*
X005770Y013929D03*
X005518Y013929D03*
X005266Y013929D03*
X005014Y013929D03*
X005014Y011803D03*
X005266Y011803D03*
X005518Y011803D03*
X005770Y011803D03*
X006022Y011803D03*
X006274Y011803D03*
X006526Y011803D03*
X006778Y011803D03*
X007030Y011803D03*
X007282Y011803D03*
X007534Y011803D03*
X007786Y011803D03*
X008038Y011803D03*
X008290Y011803D03*
D232*
X012967Y010605D03*
X012967Y009621D03*
X012967Y008834D03*
X012967Y007849D03*
X012676Y005254D03*
X011692Y005254D03*
X010905Y005254D03*
X009920Y005254D03*
X012992Y014412D03*
X012992Y015396D03*
X012992Y016184D03*
X012992Y017168D03*
X012938Y019747D03*
X011954Y019747D03*
X011166Y019747D03*
X010182Y019747D03*
D233*
X008974Y020814D03*
X014059Y018377D03*
X014147Y020814D03*
X014059Y013204D03*
X014034Y011814D03*
X014034Y006641D03*
X013885Y004187D03*
X008712Y004187D03*
D234*
X006002Y005366D02*
X006004Y005387D01*
X006010Y005407D01*
X006019Y005427D01*
X006031Y005444D01*
X006046Y005458D01*
X006064Y005470D01*
X006084Y005478D01*
X006104Y005483D01*
X006125Y005484D01*
X006146Y005481D01*
X006166Y005475D01*
X006185Y005464D01*
X006202Y005451D01*
X006215Y005435D01*
X006226Y005417D01*
X006234Y005397D01*
X006238Y005377D01*
X006238Y005355D01*
X006234Y005335D01*
X006226Y005315D01*
X006215Y005297D01*
X006202Y005281D01*
X006185Y005268D01*
X006166Y005257D01*
X006146Y005251D01*
X006125Y005248D01*
X006104Y005249D01*
X006084Y005254D01*
X006064Y005262D01*
X006046Y005274D01*
X006031Y005288D01*
X006019Y005305D01*
X006010Y005325D01*
X006004Y005345D01*
X006002Y005366D01*
X005692Y005876D02*
X005694Y005897D01*
X005700Y005917D01*
X005709Y005937D01*
X005721Y005954D01*
X005736Y005968D01*
X005754Y005980D01*
X005774Y005988D01*
X005794Y005993D01*
X005815Y005994D01*
X005836Y005991D01*
X005856Y005985D01*
X005875Y005974D01*
X005892Y005961D01*
X005905Y005945D01*
X005916Y005927D01*
X005924Y005907D01*
X005928Y005887D01*
X005928Y005865D01*
X005924Y005845D01*
X005916Y005825D01*
X005905Y005807D01*
X005892Y005791D01*
X005875Y005778D01*
X005856Y005767D01*
X005836Y005761D01*
X005815Y005758D01*
X005794Y005759D01*
X005774Y005764D01*
X005754Y005772D01*
X005736Y005784D01*
X005721Y005798D01*
X005709Y005815D01*
X005700Y005835D01*
X005694Y005855D01*
X005692Y005876D01*
X005372Y005366D02*
X005374Y005387D01*
X005380Y005407D01*
X005389Y005427D01*
X005401Y005444D01*
X005416Y005458D01*
X005434Y005470D01*
X005454Y005478D01*
X005474Y005483D01*
X005495Y005484D01*
X005516Y005481D01*
X005536Y005475D01*
X005555Y005464D01*
X005572Y005451D01*
X005585Y005435D01*
X005596Y005417D01*
X005604Y005397D01*
X005608Y005377D01*
X005608Y005355D01*
X005604Y005335D01*
X005596Y005315D01*
X005585Y005297D01*
X005572Y005281D01*
X005555Y005268D01*
X005536Y005257D01*
X005516Y005251D01*
X005495Y005248D01*
X005474Y005249D01*
X005454Y005254D01*
X005434Y005262D01*
X005416Y005274D01*
X005401Y005288D01*
X005389Y005305D01*
X005380Y005325D01*
X005374Y005345D01*
X005372Y005366D01*
X004708Y020483D02*
X004710Y020509D01*
X004716Y020535D01*
X004726Y020560D01*
X004739Y020583D01*
X004755Y020603D01*
X004775Y020621D01*
X004797Y020636D01*
X004820Y020648D01*
X004846Y020656D01*
X004872Y020660D01*
X004898Y020660D01*
X004924Y020656D01*
X004950Y020648D01*
X004974Y020636D01*
X004995Y020621D01*
X005015Y020603D01*
X005031Y020583D01*
X005044Y020560D01*
X005054Y020535D01*
X005060Y020509D01*
X005062Y020483D01*
X005060Y020457D01*
X005054Y020431D01*
X005044Y020406D01*
X005031Y020383D01*
X005015Y020363D01*
X004995Y020345D01*
X004973Y020330D01*
X004950Y020318D01*
X004924Y020310D01*
X004898Y020306D01*
X004872Y020306D01*
X004846Y020310D01*
X004820Y020318D01*
X004796Y020330D01*
X004775Y020345D01*
X004755Y020363D01*
X004739Y020383D01*
X004726Y020406D01*
X004716Y020431D01*
X004710Y020457D01*
X004708Y020483D01*
X006440Y020483D02*
X006442Y020509D01*
X006448Y020535D01*
X006458Y020560D01*
X006471Y020583D01*
X006487Y020603D01*
X006507Y020621D01*
X006529Y020636D01*
X006552Y020648D01*
X006578Y020656D01*
X006604Y020660D01*
X006630Y020660D01*
X006656Y020656D01*
X006682Y020648D01*
X006706Y020636D01*
X006727Y020621D01*
X006747Y020603D01*
X006763Y020583D01*
X006776Y020560D01*
X006786Y020535D01*
X006792Y020509D01*
X006794Y020483D01*
X006792Y020457D01*
X006786Y020431D01*
X006776Y020406D01*
X006763Y020383D01*
X006747Y020363D01*
X006727Y020345D01*
X006705Y020330D01*
X006682Y020318D01*
X006656Y020310D01*
X006630Y020306D01*
X006604Y020306D01*
X006578Y020310D01*
X006552Y020318D01*
X006528Y020330D01*
X006507Y020345D01*
X006487Y020363D01*
X006471Y020383D01*
X006458Y020406D01*
X006448Y020431D01*
X006442Y020457D01*
X006440Y020483D01*
D235*
X006617Y020483D03*
X004885Y020483D03*
D236*
X004392Y003849D03*
X006361Y003849D03*
D237*
X004226Y008211D02*
X004226Y008684D01*
X009426Y008684D02*
X009426Y008211D01*
X009426Y015511D02*
X009426Y015984D01*
X004226Y015984D02*
X004226Y015511D01*
D238*
X004298Y007466D02*
X004298Y006926D01*
X005298Y006926D02*
X005298Y007466D01*
X006298Y007466D02*
X006298Y006926D01*
D239*
X011833Y011684D03*
X011833Y012845D03*
D240*
X012030Y008337D03*
X010928Y008337D03*
D241*
X010573Y011723D03*
X010573Y012826D03*
X011833Y017353D03*
X011833Y018456D03*
D242*
X006105Y009637D03*
X005357Y009637D03*
D243*
X007463Y016428D03*
X007463Y017176D03*
X008329Y017452D03*
X008329Y016704D03*
X003841Y016704D03*
X003841Y017452D03*
D244*
X011656Y006900D03*
D245*
X011656Y006231D03*
X010829Y006231D03*
X010829Y006979D03*
D246*
X006370Y021448D03*
X005770Y021448D03*
X005170Y021448D03*
D247*
X004373Y003845D03*
X007247Y003845D03*
D248*
X006440Y005873D02*
X006440Y006288D01*
X005180Y006288D02*
X005180Y005873D01*
D249*
X005490Y005366D03*
X005810Y005876D03*
X006120Y005366D03*
D250*
X008014Y006802D03*
X006951Y008180D03*
X007778Y009440D03*
X007424Y010267D03*
X006243Y010306D03*
X005062Y008849D03*
X004471Y011566D03*
X004628Y013337D03*
X004432Y013967D03*
X005534Y013298D03*
X006085Y013101D03*
X006243Y015503D03*
X006754Y015503D03*
X006833Y016093D03*
X007148Y017196D03*
X008132Y017904D03*
X007739Y018692D03*
X006479Y018613D03*
X005140Y018574D03*
X004471Y018062D03*
X003841Y017786D03*
X005613Y016015D03*
X008644Y015896D03*
X008999Y014637D03*
X011203Y016841D03*
X009235Y019479D03*
X009038Y018456D03*
X010180Y021054D03*
X009392Y011408D03*
X010085Y010857D03*
X011282Y010660D03*
X010337Y009361D03*
X010140Y008141D03*
X012621Y004322D03*
M02*
