G75*
%MOIN*%
%OFA0B0*%
%FSLAX24Y24*%
%IPPOS*%
%LPD*%
%AMOC8*
5,1,8,0,0,1.08239X$1,22.5*
%
%ADD10C,0.0160*%
%ADD11C,0.0040*%
%ADD12C,0.0540*%
%ADD13OC8,0.0540*%
%ADD14R,0.0312X0.0004*%
%ADD15R,0.0344X0.0004*%
%ADD16R,0.0368X0.0004*%
%ADD17R,0.0392X0.0004*%
%ADD18R,0.0408X0.0004*%
%ADD19R,0.0424X0.0004*%
%ADD20R,0.0432X0.0004*%
%ADD21R,0.0448X0.0004*%
%ADD22R,0.0456X0.0004*%
%ADD23R,0.0472X0.0004*%
%ADD24R,0.0480X0.0004*%
%ADD25R,0.0488X0.0004*%
%ADD26R,0.0496X0.0004*%
%ADD27R,0.0504X0.0004*%
%ADD28R,0.0512X0.0004*%
%ADD29R,0.0520X0.0004*%
%ADD30R,0.0528X0.0004*%
%ADD31R,0.0536X0.0004*%
%ADD32R,0.0536X0.0004*%
%ADD33R,0.0544X0.0004*%
%ADD34R,0.0552X0.0004*%
%ADD35R,0.0560X0.0004*%
%ADD36R,0.0560X0.0004*%
%ADD37R,0.0568X0.0004*%
%ADD38R,0.0576X0.0004*%
%ADD39R,0.0584X0.0004*%
%ADD40R,0.0592X0.0004*%
%ADD41R,0.0592X0.0004*%
%ADD42R,0.0600X0.0004*%
%ADD43R,0.0608X0.0004*%
%ADD44R,0.0608X0.0004*%
%ADD45R,0.0616X0.0004*%
%ADD46R,0.0624X0.0004*%
%ADD47R,0.0632X0.0004*%
%ADD48R,0.0632X0.0004*%
%ADD49R,0.0640X0.0004*%
%ADD50R,0.0648X0.0004*%
%ADD51R,0.0648X0.0004*%
%ADD52R,0.0656X0.0004*%
%ADD53R,0.0664X0.0004*%
%ADD54R,0.0664X0.0004*%
%ADD55R,0.0672X0.0004*%
%ADD56R,0.0680X0.0004*%
%ADD57R,0.0680X0.0004*%
%ADD58R,0.0688X0.0004*%
%ADD59R,0.0696X0.0004*%
%ADD60R,0.0700X0.0004*%
%ADD61R,0.0708X0.0004*%
%ADD62R,0.0716X0.0004*%
%ADD63R,0.0720X0.0004*%
%ADD64R,0.0720X0.0004*%
%ADD65R,0.0724X0.0004*%
%ADD66R,0.0808X0.0004*%
%ADD67R,0.0824X0.0004*%
%ADD68R,0.0832X0.0004*%
%ADD69R,0.0840X0.0004*%
%ADD70R,0.0848X0.0004*%
%ADD71R,0.0856X0.0004*%
%ADD72R,0.0860X0.0004*%
%ADD73R,0.0864X0.0004*%
%ADD74R,0.0864X0.0004*%
%ADD75R,0.0868X0.0004*%
%ADD76R,0.0872X0.0004*%
%ADD77R,0.0872X0.0004*%
%ADD78R,0.0860X0.0004*%
%ADD79R,0.0832X0.0004*%
%ADD80R,0.0824X0.0004*%
%ADD81R,0.0708X0.0004*%
%ADD82R,0.0712X0.0004*%
%ADD83R,0.0712X0.0004*%
%ADD84R,0.0700X0.0004*%
%ADD85R,0.0696X0.0004*%
%ADD86R,0.0692X0.0004*%
%ADD87R,0.0668X0.0004*%
%ADD88R,0.0660X0.0004*%
%ADD89R,0.0452X0.0004*%
%ADD90R,0.0188X0.0004*%
%ADD91R,0.0448X0.0004*%
%ADD92R,0.0440X0.0004*%
%ADD93R,0.0184X0.0004*%
%ADD94R,0.0432X0.0004*%
%ADD95R,0.0184X0.0004*%
%ADD96R,0.0424X0.0004*%
%ADD97R,0.0412X0.0004*%
%ADD98R,0.0128X0.0004*%
%ADD99R,0.0044X0.0004*%
%ADD100R,0.0400X0.0004*%
%ADD101R,0.0008X0.0004*%
%ADD102R,0.0388X0.0004*%
%ADD103R,0.0132X0.0004*%
%ADD104R,0.0360X0.0004*%
%ADD105R,0.0136X0.0004*%
%ADD106R,0.0340X0.0004*%
%ADD107R,0.0140X0.0004*%
%ADD108R,0.0328X0.0004*%
%ADD109R,0.0144X0.0004*%
%ADD110R,0.0324X0.0004*%
%ADD111R,0.0148X0.0004*%
%ADD112R,0.0320X0.0004*%
%ADD113R,0.0156X0.0004*%
%ADD114R,0.0316X0.0004*%
%ADD115R,0.0176X0.0004*%
%ADD116R,0.0080X0.0004*%
%ADD117R,0.0052X0.0004*%
%ADD118R,0.0380X0.0004*%
%ADD119R,0.0372X0.0004*%
%ADD120R,0.0356X0.0004*%
%ADD121R,0.0004X0.0004*%
%ADD122R,0.0308X0.0004*%
%ADD123R,0.0060X0.0004*%
%ADD124R,0.0240X0.0004*%
%ADD125R,0.0232X0.0004*%
%ADD126R,0.0044X0.0004*%
%ADD127R,0.0164X0.0004*%
%ADD128R,0.0056X0.0004*%
%ADD129R,0.0036X0.0004*%
%ADD130R,0.0156X0.0004*%
%ADD131R,0.0048X0.0004*%
%ADD132R,0.0024X0.0004*%
%ADD133R,0.0036X0.0004*%
%ADD134R,0.0016X0.0004*%
%ADD135R,0.0028X0.0004*%
%ADD136R,0.0012X0.0004*%
%ADD137R,0.0124X0.0004*%
%ADD138R,0.0108X0.0004*%
%ADD139R,0.0008X0.0004*%
%ADD140R,0.0092X0.0004*%
%ADD141R,0.0068X0.0004*%
%ADD142R,0.0008X0.0004*%
%ADD143R,0.0016X0.0004*%
%ADD144R,0.0024X0.0004*%
%ADD145R,0.0032X0.0004*%
%ADD146R,0.0032X0.0004*%
%ADD147R,0.0040X0.0004*%
%ADD148R,0.0056X0.0004*%
%ADD149R,0.0064X0.0004*%
%ADD150R,0.0072X0.0004*%
%ADD151R,0.0088X0.0004*%
%ADD152R,0.0096X0.0004*%
%ADD153R,0.0104X0.0004*%
%ADD154R,0.0112X0.0004*%
%ADD155R,0.0120X0.0004*%
%ADD156R,0.0124X0.0004*%
%ADD157R,0.0128X0.0004*%
%ADD158R,0.0144X0.0004*%
%ADD159R,0.0152X0.0004*%
%ADD160R,0.0152X0.0004*%
%ADD161R,0.0160X0.0004*%
%ADD162R,0.0168X0.0004*%
%ADD163R,0.0176X0.0004*%
%ADD164R,0.0184X0.0004*%
%ADD165R,0.0192X0.0004*%
%ADD166R,0.0200X0.0004*%
%ADD167R,0.0208X0.0004*%
%ADD168R,0.0216X0.0004*%
%ADD169R,0.0216X0.0004*%
%ADD170R,0.0224X0.0004*%
%ADD171R,0.0232X0.0004*%
%ADD172R,0.0240X0.0004*%
%ADD173R,0.0248X0.0004*%
%ADD174R,0.0256X0.0004*%
%ADD175R,0.0264X0.0004*%
%ADD176R,0.0272X0.0004*%
%ADD177R,0.0280X0.0004*%
%ADD178R,0.0288X0.0004*%
%ADD179R,0.0296X0.0004*%
%ADD180R,0.0304X0.0004*%
%ADD181R,0.0320X0.0004*%
%ADD182R,0.0328X0.0004*%
%ADD183R,0.0336X0.0004*%
%ADD184R,0.0336X0.0004*%
%ADD185R,0.0200X0.0004*%
%ADD186R,0.0128X0.0004*%
%ADD187R,0.0204X0.0004*%
%ADD188R,0.0216X0.0004*%
%ADD189R,0.0228X0.0004*%
%ADD190R,0.0416X0.0004*%
%ADD191R,0.0424X0.0004*%
%ADD192R,0.0428X0.0004*%
%ADD193R,0.0304X0.0004*%
%ADD194R,0.0180X0.0004*%
%ADD195R,0.0112X0.0004*%
%ADD196R,0.0176X0.0004*%
%ADD197R,0.0112X0.0004*%
%ADD198R,0.0132X0.0004*%
%ADD199R,0.0116X0.0004*%
%ADD200R,0.0332X0.0004*%
%ADD201R,0.0336X0.0004*%
%ADD202R,0.0480X0.0004*%
%ADD203R,0.0496X0.0004*%
%ADD204R,0.0512X0.0004*%
%ADD205R,0.0544X0.0004*%
%ADD206R,0.0208X0.0004*%
%ADD207R,0.0356X0.0004*%
%ADD208R,0.0208X0.0004*%
%ADD209R,0.0364X0.0004*%
%ADD210R,0.0212X0.0004*%
%ADD211R,0.0368X0.0004*%
%ADD212R,0.0220X0.0004*%
%ADD213R,0.0600X0.0004*%
%ADD214R,0.0356X0.0004*%
%ADD215R,0.0228X0.0004*%
%ADD216R,0.0236X0.0004*%
%ADD217R,0.0360X0.0004*%
%ADD218R,0.0368X0.0004*%
%ADD219R,0.0244X0.0004*%
%ADD220R,0.0252X0.0004*%
%ADD221R,0.0376X0.0004*%
%ADD222R,0.0672X0.0004*%
%ADD223R,0.0624X0.0004*%
%ADD224R,0.0596X0.0004*%
%ADD225R,0.0552X0.0004*%
%ADD226R,0.0456X0.0004*%
%ADD227R,0.0384X0.0004*%
%ADD228R,0.0352X0.0004*%
%ADD229R,0.0188X0.0004*%
%ADD230R,0.0108X0.0004*%
%ADD231C,0.0591*%
%ADD232C,0.1300*%
%ADD233R,0.0197X0.0984*%
%ADD234R,0.0787X0.0984*%
%ADD235C,0.0000*%
%ADD236OC8,0.1250*%
%ADD237C,0.0472*%
%ADD238C,0.0540*%
%ADD239R,0.0591X0.1063*%
%ADD240R,0.1063X0.0591*%
%ADD241R,0.0630X0.1063*%
%ADD242R,0.1063X0.0630*%
%ADD243R,0.0591X0.0512*%
%ADD244R,0.0472X0.0472*%
%ADD245R,0.0394X0.0236*%
%ADD246R,0.0236X0.0236*%
%ADD247R,0.0236X0.0394*%
%ADD248R,0.2000X0.0700*%
%ADD249C,0.1500*%
%ADD250C,0.0416*%
%ADD251C,0.0376*%
%ADD252C,0.0320*%
%ADD253C,0.0100*%
%ADD254C,0.0240*%
D10*
X001046Y002668D02*
X017188Y002668D01*
X017188Y022353D01*
X001046Y022353D01*
X001046Y002668D01*
X001356Y003624D02*
X001356Y003819D01*
X001422Y003753D01*
X001811Y003753D01*
X002087Y004029D01*
X002087Y004418D01*
X001811Y004693D01*
X001422Y004693D01*
X001356Y004627D01*
X001356Y004819D01*
X001422Y004753D01*
X001811Y004753D01*
X002087Y005029D01*
X002087Y005418D01*
X001811Y005693D01*
X001422Y005693D01*
X001356Y005627D01*
X001356Y005819D01*
X001422Y005753D01*
X001811Y005753D01*
X002087Y006029D01*
X002087Y006418D01*
X001811Y006693D01*
X001422Y006693D01*
X001356Y006627D01*
X001356Y006819D01*
X001422Y006753D01*
X001811Y006753D01*
X002087Y007029D01*
X002087Y007418D01*
X001811Y007693D01*
X001422Y007693D01*
X001356Y007627D01*
X001356Y007819D01*
X001422Y007753D01*
X001811Y007753D01*
X002087Y008029D01*
X002087Y008418D01*
X001811Y008693D01*
X001422Y008693D01*
X001356Y008627D01*
X001356Y008819D01*
X001422Y008753D01*
X001811Y008753D01*
X002087Y009029D01*
X002087Y009418D01*
X001811Y009693D01*
X001422Y009693D01*
X001356Y009627D01*
X001356Y009819D01*
X001422Y009753D01*
X001811Y009753D01*
X002087Y010029D01*
X002087Y010418D01*
X001811Y010693D01*
X001422Y010693D01*
X001356Y010627D01*
X001356Y010819D01*
X001422Y010753D01*
X001811Y010753D01*
X002087Y011029D01*
X002087Y011418D01*
X001811Y011693D01*
X001422Y011693D01*
X001356Y011627D01*
X001356Y011819D01*
X001422Y011753D01*
X001811Y011753D01*
X002087Y012029D01*
X002087Y012418D01*
X001811Y012693D01*
X001422Y012693D01*
X001356Y012627D01*
X001356Y012819D01*
X001422Y012753D01*
X001811Y012753D01*
X002087Y013029D01*
X002087Y013418D01*
X001811Y013693D01*
X001422Y013693D01*
X001356Y013627D01*
X001356Y013819D01*
X001422Y013753D01*
X001811Y013753D01*
X002087Y014029D01*
X002087Y014418D01*
X001811Y014693D01*
X001422Y014693D01*
X001356Y014627D01*
X001356Y014819D01*
X001422Y014753D01*
X001811Y014753D01*
X002087Y015029D01*
X002087Y015418D01*
X001811Y015693D01*
X001422Y015693D01*
X001356Y015627D01*
X001356Y015819D01*
X001422Y015753D01*
X001811Y015753D01*
X002087Y016029D01*
X002087Y016418D01*
X001811Y016693D01*
X001422Y016693D01*
X001356Y016627D01*
X001356Y016819D01*
X001422Y016753D01*
X001811Y016753D01*
X002087Y017029D01*
X002087Y017418D01*
X001811Y017693D01*
X001422Y017693D01*
X001356Y017627D01*
X001356Y017819D01*
X001422Y017753D01*
X001811Y017753D01*
X002087Y018029D01*
X002087Y018418D01*
X001811Y018693D01*
X001422Y018693D01*
X001356Y018627D01*
X001356Y018819D01*
X001422Y018753D01*
X001811Y018753D01*
X002087Y019029D01*
X002087Y019418D01*
X001811Y019693D01*
X001422Y019693D01*
X001356Y019627D01*
X001356Y019848D01*
X001430Y019773D01*
X001607Y019773D01*
X001607Y020213D01*
X001627Y020213D01*
X001627Y020233D01*
X002067Y020233D01*
X002067Y020410D01*
X001803Y020673D01*
X001627Y020673D01*
X001627Y020233D01*
X001607Y020233D01*
X001607Y020673D01*
X001430Y020673D01*
X001356Y020599D01*
X001356Y020937D01*
X001414Y020878D01*
X002088Y020878D01*
X002181Y020972D01*
X002228Y020972D01*
X002357Y021101D01*
X002403Y021147D01*
X002403Y021358D01*
X002621Y021358D01*
X002630Y021368D01*
X002640Y021358D01*
X002915Y021358D01*
X002962Y021405D01*
X003091Y021534D01*
X003091Y021903D01*
X003044Y021950D01*
X002951Y022043D01*
X003405Y022043D01*
X003405Y021744D01*
X003899Y021744D01*
X003899Y021584D01*
X004059Y021584D01*
X004059Y020992D01*
X004397Y020992D01*
X004442Y021004D01*
X004483Y021028D01*
X004517Y021062D01*
X004541Y021103D01*
X004553Y021148D01*
X004553Y021584D01*
X004059Y021584D01*
X004059Y021744D01*
X004553Y021744D01*
X004553Y022043D01*
X006949Y022043D01*
X006949Y021744D01*
X007442Y021744D01*
X007442Y021584D01*
X006949Y021584D01*
X006949Y021148D01*
X006961Y021103D01*
X006985Y021062D01*
X007018Y021028D01*
X007059Y021004D01*
X007105Y020992D01*
X007442Y020992D01*
X007442Y021584D01*
X007602Y021584D01*
X007602Y020992D01*
X007940Y020992D01*
X007986Y021004D01*
X008027Y021028D01*
X008060Y021062D01*
X008084Y021103D01*
X008096Y021148D01*
X008096Y021584D01*
X007602Y021584D01*
X007602Y021744D01*
X008096Y021744D01*
X008096Y022043D01*
X015410Y022043D01*
X015390Y022023D01*
X015386Y022019D01*
X015386Y021845D01*
X015394Y021837D01*
X015394Y021833D01*
X015406Y021821D01*
X015406Y021817D01*
X015410Y021813D01*
X015418Y021805D01*
X015418Y021801D01*
X015426Y021793D01*
X015430Y021789D01*
X015430Y021785D01*
X015442Y021773D01*
X015442Y021769D01*
X015454Y021757D01*
X015454Y021753D01*
X015466Y021741D01*
X015466Y021737D01*
X015470Y021733D01*
X015478Y021725D01*
X015478Y021721D01*
X015486Y021713D01*
X015490Y021709D01*
X015490Y021705D01*
X015498Y021697D01*
X015498Y021693D01*
X015510Y021681D01*
X015510Y021677D01*
X015514Y021673D01*
X015522Y021665D01*
X015522Y021661D01*
X015534Y021649D01*
X015534Y021645D01*
X015546Y021633D01*
X015546Y021629D01*
X015558Y021617D01*
X015558Y021613D01*
X015570Y021601D01*
X015570Y021597D01*
X015574Y021593D01*
X015582Y021585D01*
X015582Y021581D01*
X015586Y021577D01*
X015590Y021573D01*
X015594Y021569D01*
X015594Y021565D01*
X015605Y021554D01*
X015587Y021536D01*
X015523Y021536D01*
X015406Y021419D01*
X015406Y021403D01*
X015402Y021399D01*
X015402Y021391D01*
X015314Y021303D01*
X015294Y021283D01*
X015294Y021275D01*
X015290Y021271D01*
X015290Y021267D01*
X015290Y021267D01*
X015290Y021089D01*
X015290Y021081D01*
X015294Y021077D01*
X015294Y021069D01*
X015310Y021053D01*
X015398Y020965D01*
X015398Y020961D01*
X015402Y020957D01*
X015402Y020949D01*
X015406Y020945D01*
X015406Y020941D01*
X015410Y020937D01*
X015410Y020933D01*
X015414Y020929D01*
X015414Y020925D01*
X015418Y020921D01*
X015418Y020917D01*
X015422Y020913D01*
X015422Y020909D01*
X015426Y020905D01*
X015426Y020901D01*
X015430Y020897D01*
X015430Y020893D01*
X015438Y020885D01*
X015438Y020881D01*
X015446Y020873D01*
X015446Y020869D01*
X015458Y020857D01*
X015458Y020853D01*
X015575Y020736D01*
X015579Y020732D01*
X015583Y020728D01*
X015587Y020724D01*
X015591Y020720D01*
X015595Y020716D01*
X015599Y020712D01*
X015603Y020708D01*
X015607Y020704D01*
X015611Y020704D01*
X015619Y020696D01*
X015623Y020696D01*
X015627Y020692D01*
X015631Y020688D01*
X015635Y020688D01*
X015639Y020684D01*
X015643Y020684D01*
X015647Y020680D01*
X015655Y020680D01*
X015659Y020676D01*
X015667Y020676D01*
X015670Y020673D01*
X015627Y020673D01*
X015627Y020233D01*
X016067Y020233D01*
X016067Y020410D01*
X015808Y020668D01*
X016165Y020668D01*
X016169Y020672D01*
X016181Y020672D01*
X016185Y020676D01*
X016193Y020676D01*
X016197Y020680D01*
X016205Y020680D01*
X016209Y020684D01*
X016213Y020684D01*
X016217Y020688D01*
X016221Y020688D01*
X016225Y020692D01*
X016229Y020696D01*
X016233Y020696D01*
X016241Y020704D01*
X016245Y020704D01*
X016249Y020708D01*
X016253Y020712D01*
X016257Y020716D01*
X016261Y020720D01*
X016265Y020724D01*
X016269Y020728D01*
X016273Y020732D01*
X016277Y020736D01*
X016394Y020853D01*
X016394Y020857D01*
X016406Y020869D01*
X016406Y020873D01*
X016414Y020881D01*
X016414Y020885D01*
X016422Y020893D01*
X016422Y020897D01*
X016426Y020901D01*
X016426Y020905D01*
X016430Y020909D01*
X016430Y020913D01*
X016434Y020917D01*
X016434Y020921D01*
X016438Y020925D01*
X016438Y020929D01*
X016442Y020933D01*
X016442Y020937D01*
X016446Y020941D01*
X016446Y020945D01*
X016450Y020949D01*
X016450Y020957D01*
X016454Y020961D01*
X016454Y020965D01*
X016542Y021053D01*
X016546Y021057D01*
X016554Y021065D01*
X016554Y021069D01*
X016558Y021073D01*
X016558Y021085D01*
X016562Y021089D01*
X016562Y021267D01*
X016558Y021271D01*
X016558Y021279D01*
X016554Y021283D01*
X016554Y021287D01*
X016550Y021291D01*
X016546Y021295D01*
X016542Y021299D01*
X016538Y021303D01*
X016466Y021375D01*
X016466Y021383D01*
X016462Y021387D01*
X016462Y021391D01*
X016458Y021395D01*
X016458Y021399D01*
X016454Y021403D01*
X016450Y021407D01*
X016450Y021411D01*
X016446Y021415D01*
X016442Y021419D01*
X016438Y021423D01*
X016321Y021540D01*
X016321Y021540D01*
X016313Y021548D01*
X016309Y021548D01*
X016301Y021556D01*
X016297Y021556D01*
X016293Y021560D01*
X016289Y021560D01*
X016285Y021564D01*
X016281Y021564D01*
X016277Y021568D01*
X016265Y021568D01*
X016261Y021572D01*
X016261Y021572D01*
X016262Y021573D01*
X016266Y021577D01*
X016270Y021581D01*
X016270Y021585D01*
X016278Y021593D01*
X016278Y021593D01*
X016282Y021597D01*
X016282Y021601D01*
X016294Y021613D01*
X016294Y021617D01*
X016306Y021629D01*
X016306Y021633D01*
X016318Y021645D01*
X016318Y021649D01*
X016322Y021653D01*
X016330Y021661D01*
X016330Y021665D01*
X016338Y021673D01*
X016338Y021677D01*
X016346Y021685D01*
X016354Y021693D01*
X016354Y021697D01*
X016362Y021705D01*
X016362Y021709D01*
X016366Y021713D01*
X016374Y021721D01*
X016374Y021725D01*
X016382Y021733D01*
X016386Y021737D01*
X016386Y021741D01*
X016398Y021753D01*
X016398Y021757D01*
X016410Y021769D01*
X016410Y021773D01*
X016418Y021781D01*
X016418Y021781D01*
X016422Y021785D01*
X016422Y021789D01*
X016426Y021793D01*
X016434Y021801D01*
X016434Y021805D01*
X016442Y021813D01*
X016446Y021817D01*
X016446Y021821D01*
X016458Y021833D01*
X016458Y021837D01*
X016466Y021845D01*
X016466Y022019D01*
X016462Y022023D01*
X016442Y022043D01*
X016878Y022043D01*
X016878Y020627D01*
X016811Y020693D01*
X016422Y020693D01*
X016147Y020418D01*
X016147Y020206D01*
X016067Y020126D01*
X016067Y020213D01*
X015627Y020213D01*
X015627Y020233D01*
X015607Y020233D01*
X015607Y020673D01*
X015430Y020673D01*
X015167Y020410D01*
X015167Y020233D01*
X015607Y020233D01*
X015607Y020213D01*
X015167Y020213D01*
X015167Y020037D01*
X015168Y020035D01*
X014488Y020035D01*
X014628Y020093D01*
X014867Y020332D01*
X014997Y020645D01*
X014997Y020983D01*
X014867Y021295D01*
X014628Y021535D01*
X014316Y021664D01*
X013978Y021664D01*
X013665Y021535D01*
X013426Y021295D01*
X013297Y020983D01*
X013297Y020791D01*
X012762Y021325D01*
X012645Y021374D01*
X010409Y021374D01*
X010400Y021383D01*
X010257Y021442D01*
X010102Y021442D01*
X009960Y021383D01*
X009851Y021274D01*
X009792Y021131D01*
X009792Y021060D01*
X009694Y021295D01*
X009455Y021535D01*
X009143Y021664D01*
X008804Y021664D01*
X008492Y021535D01*
X008253Y021295D01*
X008124Y020983D01*
X008124Y020645D01*
X008253Y020332D01*
X008492Y020093D01*
X008804Y019964D01*
X009143Y019964D01*
X009455Y020093D01*
X009694Y020332D01*
X009824Y020645D01*
X009824Y020900D01*
X009851Y020834D01*
X009960Y020725D01*
X010102Y020666D01*
X010257Y020666D01*
X010400Y020725D01*
X010409Y020734D01*
X012449Y020734D01*
X012940Y020242D01*
X012840Y020242D01*
X012658Y020167D01*
X012518Y020028D01*
X012446Y019853D01*
X012374Y020028D01*
X012234Y020167D01*
X012052Y020242D01*
X011855Y020242D01*
X011673Y020167D01*
X011560Y020054D01*
X011447Y020167D01*
X011265Y020242D01*
X011068Y020242D01*
X010886Y020167D01*
X010747Y020028D01*
X010671Y019846D01*
X010671Y019648D01*
X010684Y019618D01*
X010614Y019549D01*
X010623Y019565D01*
X010646Y019636D01*
X010657Y019710D01*
X010657Y019729D01*
X010201Y019729D01*
X010201Y019765D01*
X010657Y019765D01*
X010657Y019784D01*
X010646Y019858D01*
X010623Y019929D01*
X010589Y019996D01*
X010545Y020057D01*
X010492Y020110D01*
X010431Y020153D01*
X010365Y020187D01*
X010293Y020211D01*
X010220Y020222D01*
X010201Y020222D01*
X010201Y019765D01*
X010164Y019765D01*
X010164Y019729D01*
X009707Y019729D01*
X009707Y019710D01*
X009719Y019636D01*
X009742Y019565D01*
X009776Y019498D01*
X009820Y019437D01*
X009873Y019384D01*
X009933Y019341D01*
X009979Y019317D01*
X009968Y019306D01*
X009810Y019148D01*
X009565Y019148D01*
X009448Y019031D01*
X009448Y018629D01*
X009565Y018511D01*
X009967Y018511D01*
X010084Y018629D01*
X010084Y018715D01*
X010275Y018906D01*
X010275Y018629D01*
X010388Y018515D01*
X010364Y018501D01*
X010331Y018468D01*
X010307Y018427D01*
X010295Y018381D01*
X010295Y018160D01*
X010295Y018028D01*
X010084Y018238D01*
X010084Y018282D01*
X009967Y018400D01*
X009565Y018400D01*
X009527Y018362D01*
X008741Y018362D01*
X008567Y018535D01*
X008464Y018578D01*
X008112Y018578D01*
X008127Y018615D01*
X008127Y018769D01*
X008068Y018910D01*
X008084Y018937D01*
X008096Y018983D01*
X008096Y019419D01*
X007602Y019419D01*
X007602Y019579D01*
X007442Y019579D01*
X007442Y019419D01*
X006949Y019419D01*
X006949Y019087D01*
X006689Y019347D01*
X006689Y019490D01*
X006679Y019515D01*
X006679Y020074D01*
X006677Y020076D01*
X006698Y020076D01*
X006848Y020138D01*
X006962Y020253D01*
X007024Y020402D01*
X007024Y020564D01*
X006962Y020714D01*
X006848Y020828D01*
X006698Y020890D01*
X006536Y020890D01*
X006386Y020828D01*
X006272Y020714D01*
X006210Y020564D01*
X006210Y020402D01*
X006272Y020253D01*
X006333Y020191D01*
X005255Y020191D01*
X005235Y020171D01*
X005148Y020171D01*
X005230Y020253D01*
X005292Y020402D01*
X005292Y020564D01*
X005230Y020714D01*
X005115Y020828D01*
X004966Y020890D01*
X004804Y020890D01*
X004654Y020828D01*
X004539Y020714D01*
X004477Y020564D01*
X004477Y020402D01*
X004539Y020253D01*
X004654Y020138D01*
X004804Y020076D01*
X004864Y020076D01*
X004855Y020061D01*
X004842Y020015D01*
X004842Y019499D01*
X005121Y019499D01*
X003979Y019499D01*
X003899Y019469D02*
X003007Y019469D01*
X003067Y019410D02*
X002803Y019673D01*
X002627Y019673D01*
X002627Y019233D01*
X003067Y019233D01*
X003067Y019410D01*
X003067Y019311D02*
X003405Y019311D01*
X003405Y019419D02*
X003405Y018983D01*
X003418Y018937D01*
X003441Y018896D01*
X003475Y018863D01*
X003516Y018839D01*
X003562Y018827D01*
X003899Y018827D01*
X003899Y019419D01*
X003405Y019419D01*
X003405Y019579D02*
X003899Y019579D01*
X003899Y019419D01*
X004059Y019419D01*
X004059Y018827D01*
X004397Y018827D01*
X004442Y018839D01*
X004483Y018863D01*
X004517Y018896D01*
X004541Y018937D01*
X004553Y018983D01*
X004553Y019419D01*
X004059Y019419D01*
X004059Y019579D01*
X003899Y019579D01*
X003899Y020171D01*
X003562Y020171D01*
X003516Y020159D01*
X003475Y020135D01*
X003441Y020102D01*
X003418Y020061D01*
X003405Y020015D01*
X003405Y019579D01*
X003405Y019628D02*
X002849Y019628D01*
X002811Y019753D02*
X003087Y020029D01*
X003087Y020418D01*
X002811Y020693D01*
X002422Y020693D01*
X002147Y020418D01*
X002147Y020029D01*
X002422Y019753D01*
X002811Y019753D01*
X002844Y019786D02*
X003405Y019786D01*
X003405Y019945D02*
X003003Y019945D01*
X003087Y020103D02*
X003443Y020103D01*
X003087Y020262D02*
X004536Y020262D01*
X004483Y020135D02*
X004442Y020159D01*
X004397Y020171D01*
X004059Y020171D01*
X004059Y019579D01*
X004553Y019579D01*
X004553Y020015D01*
X004541Y020061D01*
X004517Y020102D01*
X004483Y020135D01*
X004515Y020103D02*
X004738Y020103D01*
X004842Y019945D02*
X004553Y019945D01*
X004553Y019786D02*
X004842Y019786D01*
X004842Y019628D02*
X004553Y019628D01*
X004553Y019311D02*
X004842Y019311D01*
X004842Y019469D02*
X004059Y019469D01*
X004059Y019311D02*
X003899Y019311D01*
X003899Y019152D02*
X004059Y019152D01*
X004059Y018994D02*
X003899Y018994D01*
X003899Y018835D02*
X004059Y018835D01*
X004428Y018835D02*
X004853Y018835D01*
X004811Y018794D02*
X004752Y018651D01*
X004752Y018496D01*
X004808Y018362D01*
X004720Y018362D01*
X004691Y018391D01*
X004548Y018450D01*
X004394Y018450D01*
X004251Y018391D01*
X004142Y018282D01*
X004083Y018139D01*
X004083Y018093D01*
X004061Y018115D01*
X003918Y018174D01*
X003764Y018174D01*
X003621Y018115D01*
X003512Y018006D01*
X003453Y017863D01*
X003453Y017709D01*
X003512Y017566D01*
X003621Y017457D01*
X003764Y017398D01*
X003876Y017398D01*
X004034Y017240D01*
X004126Y017202D01*
X005137Y017202D01*
X005137Y017133D01*
X005231Y017038D01*
X005137Y016944D01*
X005137Y016306D01*
X005254Y016189D01*
X005265Y016189D01*
X005225Y016092D01*
X005225Y015980D01*
X005007Y015763D01*
X004969Y015671D01*
X004969Y015152D01*
X004841Y015152D01*
X004724Y015034D01*
X004724Y014357D01*
X004759Y014322D01*
X004724Y014286D01*
X004724Y014224D01*
X004651Y014296D01*
X004509Y014355D01*
X004354Y014355D01*
X004212Y014296D01*
X004103Y014187D01*
X004044Y014045D01*
X004044Y013890D01*
X004103Y013748D01*
X004212Y013638D01*
X004331Y013589D01*
X004299Y013557D01*
X004240Y013415D01*
X004240Y013260D01*
X004299Y013118D01*
X004331Y013086D01*
X004330Y013086D01*
X004330Y012684D01*
X004447Y012567D01*
X004849Y012567D01*
X004966Y012684D01*
X004966Y013086D01*
X004946Y013106D01*
X004958Y013118D01*
X005017Y013260D01*
X005017Y013415D01*
X004985Y013492D01*
X005194Y013492D01*
X005146Y013375D01*
X005146Y013221D01*
X005189Y013118D01*
X005157Y013086D01*
X005157Y012684D01*
X005270Y012570D01*
X005246Y012556D01*
X005213Y012523D01*
X005189Y012482D01*
X005177Y012436D01*
X005177Y012215D01*
X005177Y011995D01*
X005189Y011949D01*
X005213Y011908D01*
X005246Y011875D01*
X005287Y011851D01*
X005333Y011839D01*
X005475Y011839D01*
X005617Y011839D01*
X005663Y011851D01*
X005704Y011875D01*
X005737Y011908D01*
X005761Y011949D01*
X005773Y011995D01*
X005773Y012215D01*
X005475Y012215D01*
X005475Y011839D01*
X005475Y012215D01*
X005475Y012215D01*
X005475Y012215D01*
X005177Y012215D01*
X005475Y012215D01*
X005475Y012215D01*
X005773Y012215D01*
X005773Y012436D01*
X005761Y012482D01*
X005737Y012523D01*
X005704Y012556D01*
X005679Y012570D01*
X005793Y012684D01*
X005793Y012844D01*
X005865Y012772D01*
X006008Y012713D01*
X006162Y012713D01*
X006305Y012772D01*
X006414Y012881D01*
X006473Y013024D01*
X006473Y013087D01*
X008064Y013087D01*
X008156Y013126D01*
X008313Y013283D01*
X008384Y013353D01*
X008422Y013445D01*
X008422Y013531D01*
X008747Y013531D01*
X008864Y013648D01*
X008864Y014272D01*
X008921Y014249D01*
X009076Y014249D01*
X009218Y014308D01*
X009297Y014387D01*
X009310Y014387D01*
X009310Y013629D01*
X009428Y013511D01*
X009536Y013511D01*
X009536Y012366D01*
X009486Y012416D01*
X009416Y012486D01*
X009324Y012524D01*
X009204Y012524D01*
X009204Y012747D01*
X009087Y012864D01*
X006921Y012864D01*
X006804Y012747D01*
X006804Y011881D01*
X006921Y011764D01*
X009087Y011764D01*
X009142Y011819D01*
X009142Y011707D01*
X009063Y011628D01*
X009004Y011486D01*
X009004Y011331D01*
X009063Y011188D01*
X009145Y011107D01*
X008197Y011107D01*
X008108Y011196D01*
X008038Y011266D01*
X007946Y011304D01*
X006902Y011304D01*
X006810Y011266D01*
X006238Y010694D01*
X006165Y010694D01*
X006023Y010635D01*
X005914Y010526D01*
X005855Y010383D01*
X005855Y010229D01*
X005914Y010086D01*
X006023Y009977D01*
X006165Y009918D01*
X006320Y009918D01*
X006462Y009977D01*
X006572Y010086D01*
X006631Y010229D01*
X006631Y010380D01*
X007055Y010804D01*
X007793Y010804D01*
X007951Y010645D01*
X008043Y010607D01*
X009481Y010607D01*
X009573Y010645D01*
X009644Y010716D01*
X009700Y010772D01*
X009756Y010637D01*
X009865Y010528D01*
X010008Y010469D01*
X010162Y010469D01*
X010305Y010528D01*
X010384Y010607D01*
X010397Y010607D01*
X010489Y010645D01*
X010559Y010716D01*
X011608Y011764D01*
X012887Y011764D01*
X013004Y011881D01*
X013004Y012747D01*
X012887Y012864D01*
X010721Y012864D01*
X010604Y012747D01*
X010604Y011881D01*
X010721Y011764D01*
X010901Y011764D01*
X010314Y011177D01*
X010305Y011186D01*
X010162Y011245D01*
X010036Y011245D01*
X010036Y013511D01*
X010223Y013511D01*
X010340Y013629D01*
X010340Y014857D01*
X010223Y014974D01*
X009428Y014974D01*
X009340Y014887D01*
X009297Y014887D01*
X009218Y014966D01*
X009076Y015025D01*
X008921Y015025D01*
X008844Y014993D01*
X008844Y015071D01*
X008210Y015071D01*
X008210Y015226D01*
X008844Y015226D01*
X008844Y015487D01*
X008832Y015533D01*
X008822Y015550D01*
X008864Y015567D01*
X008973Y015677D01*
X009010Y015765D01*
X009010Y015748D01*
X009426Y015748D01*
X009426Y015748D01*
X009842Y015748D01*
X009842Y016017D01*
X009832Y016081D01*
X009812Y016144D01*
X009789Y016189D01*
X009829Y016189D01*
X009947Y016306D01*
X009947Y016944D01*
X009852Y017038D01*
X009947Y017133D01*
X009947Y017584D01*
X010297Y017234D01*
X010375Y017155D01*
X010478Y017113D01*
X010926Y017113D01*
X010874Y017061D01*
X010815Y016919D01*
X010815Y016807D01*
X010696Y016688D01*
X010658Y016596D01*
X010658Y016500D01*
X010590Y016432D01*
X010590Y016030D01*
X010707Y015913D01*
X011109Y015913D01*
X011226Y016030D01*
X011226Y016432D01*
X011205Y016453D01*
X011280Y016453D01*
X011406Y016505D01*
X011406Y016500D01*
X011338Y016432D01*
X011338Y016030D01*
X011455Y015913D01*
X011857Y015913D01*
X011974Y016030D01*
X011974Y016355D01*
X012467Y016355D01*
X012509Y016313D01*
X012496Y016282D01*
X012496Y016085D01*
X012572Y015903D01*
X012685Y015790D01*
X012572Y015677D01*
X012496Y015495D01*
X012496Y015359D01*
X011974Y015359D01*
X011974Y015605D01*
X011857Y015722D01*
X011455Y015722D01*
X011342Y015609D01*
X011328Y015633D01*
X011294Y015667D01*
X011253Y015690D01*
X011207Y015702D01*
X010987Y015702D01*
X010987Y015404D01*
X010987Y015106D01*
X011207Y015106D01*
X011253Y015119D01*
X011294Y015142D01*
X011328Y015176D01*
X011342Y015200D01*
X011406Y015135D01*
X011406Y015118D01*
X011444Y015027D01*
X011503Y014967D01*
X011573Y014897D01*
X011665Y014859D01*
X012754Y014859D01*
X012846Y014897D01*
X012863Y014914D01*
X012886Y014904D01*
X012711Y014832D01*
X012572Y014693D01*
X012496Y014511D01*
X012496Y014314D01*
X012572Y014132D01*
X012711Y013992D01*
X012893Y013917D01*
X013090Y013917D01*
X013272Y013992D01*
X013411Y014132D01*
X013487Y014314D01*
X013487Y014511D01*
X013411Y014693D01*
X013272Y014832D01*
X013098Y014904D01*
X013272Y014977D01*
X013411Y015116D01*
X013487Y015298D01*
X013487Y015495D01*
X013411Y015677D01*
X013298Y015790D01*
X013411Y015903D01*
X013487Y016085D01*
X013487Y016282D01*
X013411Y016464D01*
X013272Y016604D01*
X013090Y016679D01*
X012893Y016679D01*
X012863Y016667D01*
X012793Y016736D01*
X012809Y016728D01*
X012880Y016705D01*
X012954Y016693D01*
X012973Y016693D01*
X012973Y017150D01*
X013010Y017150D01*
X013010Y017187D01*
X012973Y017187D01*
X012973Y017643D01*
X012954Y017643D01*
X012880Y017632D01*
X012809Y017609D01*
X012742Y017575D01*
X012683Y017531D01*
X012683Y017810D01*
X012566Y017927D01*
X011337Y017927D01*
X011220Y017810D01*
X011220Y017673D01*
X010650Y017673D01*
X010539Y017783D01*
X010593Y017783D01*
X010593Y018160D01*
X010593Y018160D01*
X010593Y017783D01*
X010735Y017783D01*
X010781Y017796D01*
X010822Y017819D01*
X010855Y017853D01*
X010879Y017894D01*
X010891Y017940D01*
X010891Y018160D01*
X010593Y018160D01*
X010295Y018160D01*
X010593Y018160D01*
X010593Y018160D01*
X010593Y018160D01*
X010436Y018160D01*
X010140Y018456D01*
X009038Y018456D01*
X008584Y018518D02*
X009559Y018518D01*
X009448Y018677D02*
X008127Y018677D01*
X008099Y018835D02*
X009448Y018835D01*
X009448Y018994D02*
X008096Y018994D01*
X008096Y019152D02*
X009814Y019152D01*
X009973Y019311D02*
X008096Y019311D01*
X008096Y019579D02*
X008096Y020015D01*
X008084Y020061D01*
X008060Y020102D01*
X008027Y020135D01*
X007986Y020159D01*
X007940Y020171D01*
X007602Y020171D01*
X007602Y019579D01*
X008096Y019579D01*
X008096Y019628D02*
X009721Y019628D01*
X009707Y019765D02*
X010164Y019765D01*
X010164Y020222D01*
X010145Y020222D01*
X010071Y020211D01*
X010000Y020187D01*
X009933Y020153D01*
X009873Y020110D01*
X009820Y020057D01*
X009776Y019996D01*
X009742Y019929D01*
X009719Y019858D01*
X009707Y019784D01*
X009707Y019765D01*
X009707Y019786D02*
X008096Y019786D01*
X008096Y019945D02*
X009749Y019945D01*
X009866Y020103D02*
X009465Y020103D01*
X009623Y020262D02*
X012921Y020262D01*
X012762Y020420D02*
X009730Y020420D01*
X009796Y020579D02*
X012604Y020579D01*
X012594Y020103D02*
X012298Y020103D01*
X012408Y019945D02*
X012484Y019945D01*
X012446Y019641D02*
X012492Y019530D01*
X012051Y019089D01*
X011649Y019089D01*
X011825Y019264D01*
X011855Y019252D01*
X012052Y019252D01*
X012234Y019327D01*
X012374Y019466D01*
X012446Y019641D01*
X012441Y019628D02*
X012452Y019628D01*
X012431Y019469D02*
X012375Y019469D01*
X012273Y019311D02*
X012195Y019311D01*
X012114Y019152D02*
X011713Y019152D01*
X011951Y018593D02*
X012938Y019580D01*
X012938Y019747D01*
X013006Y019252D02*
X013037Y019252D01*
X013219Y019327D01*
X013358Y019466D01*
X013433Y019648D01*
X013433Y019749D01*
X013649Y019534D01*
X013739Y019444D01*
X013856Y019395D01*
X015147Y019395D01*
X015147Y019029D01*
X015422Y018753D01*
X015811Y018753D01*
X016087Y019029D01*
X016087Y019395D01*
X016147Y019395D01*
X016147Y019029D01*
X016422Y018753D01*
X016811Y018753D01*
X016878Y018819D01*
X016878Y018627D01*
X016811Y018693D01*
X016422Y018693D01*
X016147Y018418D01*
X016147Y018029D01*
X016422Y017753D01*
X016811Y017753D01*
X016878Y017819D01*
X016878Y017627D01*
X016811Y017693D01*
X016422Y017693D01*
X016147Y017418D01*
X016147Y017029D01*
X016422Y016753D01*
X016811Y016753D01*
X016878Y016819D01*
X016878Y016627D01*
X016811Y016693D01*
X016422Y016693D01*
X016147Y016418D01*
X016147Y016029D01*
X016422Y015753D01*
X016811Y015753D01*
X016878Y015819D01*
X016878Y015627D01*
X016811Y015693D01*
X016422Y015693D01*
X016147Y015418D01*
X016147Y015029D01*
X016422Y014753D01*
X016811Y014753D01*
X016878Y014819D01*
X016878Y014627D01*
X016811Y014693D01*
X016422Y014693D01*
X016147Y014418D01*
X016147Y014029D01*
X016422Y013753D01*
X016811Y013753D01*
X016878Y013819D01*
X016878Y013627D01*
X016811Y013693D01*
X016422Y013693D01*
X016147Y013418D01*
X016147Y013029D01*
X016422Y012753D01*
X016811Y012753D01*
X016878Y012819D01*
X016878Y012627D01*
X016811Y012693D01*
X016422Y012693D01*
X016147Y012418D01*
X016147Y012029D01*
X016422Y011753D01*
X016811Y011753D01*
X016878Y011819D01*
X016878Y011627D01*
X016811Y011693D01*
X016422Y011693D01*
X016147Y011418D01*
X016147Y011029D01*
X016422Y010753D01*
X016811Y010753D01*
X016878Y010819D01*
X016878Y010627D01*
X016811Y010693D01*
X016422Y010693D01*
X016147Y010418D01*
X016147Y010029D01*
X016422Y009753D01*
X016811Y009753D01*
X016878Y009819D01*
X016878Y009627D01*
X016811Y009693D01*
X016422Y009693D01*
X016147Y009418D01*
X016147Y009029D01*
X016422Y008753D01*
X016811Y008753D01*
X016878Y008819D01*
X016878Y008627D01*
X016811Y008693D01*
X016422Y008693D01*
X016147Y008418D01*
X016147Y008029D01*
X016422Y007753D01*
X016811Y007753D01*
X016878Y007819D01*
X016878Y007627D01*
X016811Y007693D01*
X016422Y007693D01*
X016147Y007418D01*
X016147Y007029D01*
X016422Y006753D01*
X016811Y006753D01*
X016878Y006819D01*
X016878Y006627D01*
X016811Y006693D01*
X016422Y006693D01*
X016147Y006418D01*
X016147Y006029D01*
X016422Y005753D01*
X016811Y005753D01*
X016878Y005819D01*
X016878Y005627D01*
X016811Y005693D01*
X016422Y005693D01*
X016147Y005418D01*
X016147Y005029D01*
X016422Y004753D01*
X016811Y004753D01*
X016878Y004819D01*
X016878Y004627D01*
X016811Y004693D01*
X016422Y004693D01*
X016147Y004418D01*
X016147Y004029D01*
X016422Y003753D01*
X016811Y003753D01*
X016878Y003819D01*
X016878Y003627D01*
X016811Y003693D01*
X016422Y003693D01*
X016147Y003418D01*
X016147Y003029D01*
X016197Y002978D01*
X016024Y002978D01*
X016087Y003130D01*
X016087Y003317D01*
X016015Y003490D01*
X015883Y003622D01*
X015710Y003693D01*
X015523Y003693D01*
X015350Y003622D01*
X015218Y003490D01*
X015147Y003317D01*
X015147Y003130D01*
X015209Y002978D01*
X007636Y002978D01*
X007785Y003040D01*
X008052Y003307D01*
X008151Y003546D01*
X008230Y003467D01*
X008543Y003337D01*
X008881Y003337D01*
X009193Y003467D01*
X009432Y003706D01*
X009562Y004018D01*
X009562Y004356D01*
X009432Y004669D01*
X009193Y004908D01*
X008881Y005037D01*
X008543Y005037D01*
X008230Y004908D01*
X007991Y004669D01*
X007925Y004510D01*
X007785Y004651D01*
X007436Y004795D01*
X007058Y004795D01*
X006708Y004651D01*
X006703Y004645D01*
X006694Y004654D01*
X006411Y004654D01*
X006411Y004310D01*
X006311Y004068D01*
X006311Y004654D01*
X006027Y004654D01*
X005556Y004183D01*
X005556Y003899D01*
X006297Y003899D01*
X006297Y003799D01*
X005556Y003799D01*
X005556Y003516D01*
X006027Y003044D01*
X006311Y003044D01*
X006311Y003622D01*
X006411Y003381D01*
X006411Y003044D01*
X006694Y003044D01*
X006699Y003049D01*
X006708Y003040D01*
X006858Y002978D01*
X004762Y002978D01*
X004911Y003040D01*
X005178Y003307D01*
X005323Y003656D01*
X005323Y004034D01*
X005178Y004383D01*
X004911Y004651D01*
X004562Y004795D01*
X004184Y004795D01*
X003834Y004651D01*
X003567Y004383D01*
X003423Y004034D01*
X003423Y003656D01*
X003567Y003307D01*
X003834Y003040D01*
X003984Y002978D01*
X003036Y002978D01*
X003087Y003029D01*
X003087Y003418D01*
X002811Y003693D01*
X002422Y003693D01*
X002147Y003418D01*
X002147Y003029D01*
X002197Y002978D01*
X002024Y002978D01*
X002087Y003130D01*
X002087Y003317D01*
X002015Y003490D01*
X001883Y003622D01*
X001710Y003693D01*
X001523Y003693D01*
X001356Y003624D01*
X001356Y003778D02*
X001398Y003778D01*
X001836Y003778D02*
X002398Y003778D01*
X002422Y003753D02*
X002811Y003753D01*
X003087Y004029D01*
X003087Y004418D01*
X002811Y004693D01*
X002422Y004693D01*
X002147Y004418D01*
X002147Y004029D01*
X002422Y003753D01*
X002348Y003619D02*
X001885Y003619D01*
X002027Y003461D02*
X002189Y003461D01*
X002147Y003302D02*
X002087Y003302D01*
X002087Y003144D02*
X002147Y003144D01*
X002190Y002985D02*
X002027Y002985D01*
X001994Y003936D02*
X002239Y003936D01*
X002147Y004095D02*
X002087Y004095D01*
X002087Y004253D02*
X002147Y004253D01*
X002147Y004412D02*
X002087Y004412D01*
X001934Y004570D02*
X002299Y004570D01*
X002422Y004753D02*
X002811Y004753D01*
X003087Y005029D01*
X003087Y005418D01*
X002811Y005693D01*
X002422Y005693D01*
X002147Y005418D01*
X002147Y005029D01*
X002422Y004753D01*
X002288Y004887D02*
X001945Y004887D01*
X002087Y005046D02*
X002147Y005046D01*
X002147Y005204D02*
X002087Y005204D01*
X002087Y005363D02*
X002147Y005363D01*
X002250Y005521D02*
X001983Y005521D01*
X001825Y005680D02*
X002408Y005680D01*
X002422Y005753D02*
X002811Y005753D01*
X003087Y006029D01*
X003087Y006418D01*
X002811Y006693D01*
X002422Y006693D01*
X002147Y006418D01*
X002147Y006029D01*
X002422Y005753D01*
X002337Y005838D02*
X001896Y005838D01*
X002055Y005997D02*
X002179Y005997D01*
X002147Y006155D02*
X002087Y006155D01*
X002087Y006314D02*
X002147Y006314D01*
X002201Y006472D02*
X002032Y006472D01*
X001874Y006631D02*
X002359Y006631D01*
X002422Y006753D02*
X002811Y006753D01*
X003087Y007029D01*
X003087Y007418D01*
X002811Y007693D01*
X002422Y007693D01*
X002147Y007418D01*
X002147Y007029D01*
X002422Y006753D01*
X002386Y006789D02*
X001847Y006789D01*
X002006Y006948D02*
X002228Y006948D01*
X002147Y007106D02*
X002087Y007106D01*
X002087Y007265D02*
X002147Y007265D01*
X002152Y007423D02*
X002081Y007423D01*
X001923Y007582D02*
X002310Y007582D01*
X002422Y007753D02*
X002811Y007753D01*
X003087Y008029D01*
X003087Y008418D01*
X002811Y008693D01*
X002422Y008693D01*
X002147Y008418D01*
X002147Y008029D01*
X002422Y007753D01*
X002277Y007899D02*
X001957Y007899D01*
X002087Y008057D02*
X002147Y008057D01*
X002147Y008216D02*
X002087Y008216D01*
X002087Y008374D02*
X002147Y008374D01*
X002261Y008533D02*
X001972Y008533D01*
X001813Y008691D02*
X002420Y008691D01*
X002422Y008753D02*
X002811Y008753D01*
X003087Y009029D01*
X003087Y009418D01*
X002811Y009693D01*
X002422Y009693D01*
X002147Y009418D01*
X002147Y009029D01*
X002422Y008753D01*
X002326Y008850D02*
X001908Y008850D01*
X002066Y009008D02*
X002167Y009008D01*
X002147Y009167D02*
X002087Y009167D01*
X002087Y009325D02*
X002147Y009325D01*
X002212Y009484D02*
X002021Y009484D01*
X001862Y009642D02*
X002371Y009642D01*
X002422Y009753D02*
X002811Y009753D01*
X003087Y010029D01*
X003087Y010418D01*
X002811Y010693D01*
X002422Y010693D01*
X002147Y010418D01*
X002147Y010029D01*
X002422Y009753D01*
X002375Y009801D02*
X001859Y009801D01*
X002017Y009959D02*
X002216Y009959D01*
X002147Y010118D02*
X002087Y010118D01*
X002087Y010276D02*
X002147Y010276D01*
X002163Y010435D02*
X002070Y010435D01*
X001911Y010593D02*
X002322Y010593D01*
X002422Y010753D02*
X002811Y010753D01*
X003087Y011029D01*
X003087Y011418D01*
X002811Y011693D01*
X002422Y011693D01*
X002147Y011418D01*
X002147Y011029D01*
X002422Y010753D01*
X002265Y010910D02*
X001968Y010910D01*
X002087Y011069D02*
X002147Y011069D01*
X002147Y011227D02*
X002087Y011227D01*
X002087Y011386D02*
X002147Y011386D01*
X002273Y011544D02*
X001960Y011544D01*
X001919Y011861D02*
X002314Y011861D01*
X002422Y011753D02*
X002811Y011753D01*
X003087Y012029D01*
X003087Y012418D01*
X002811Y012693D01*
X002422Y012693D01*
X002147Y012418D01*
X002147Y012029D01*
X002422Y011753D01*
X002156Y012020D02*
X002078Y012020D01*
X002087Y012178D02*
X002147Y012178D01*
X002147Y012337D02*
X002087Y012337D01*
X002009Y012495D02*
X002224Y012495D01*
X002382Y012654D02*
X001851Y012654D01*
X001870Y012812D02*
X002363Y012812D01*
X002422Y012753D02*
X002811Y012753D01*
X003087Y013029D01*
X003087Y013418D01*
X002811Y013693D01*
X002422Y013693D01*
X002147Y013418D01*
X002147Y013029D01*
X002422Y012753D01*
X002205Y012971D02*
X002029Y012971D01*
X002087Y013129D02*
X002147Y013129D01*
X002147Y013288D02*
X002087Y013288D01*
X002058Y013446D02*
X002175Y013446D01*
X002333Y013605D02*
X001900Y013605D01*
X001821Y013763D02*
X002412Y013763D01*
X002422Y013753D02*
X002811Y013753D01*
X003087Y014029D01*
X003087Y014418D01*
X002811Y014693D01*
X002422Y014693D01*
X002147Y014418D01*
X002147Y014029D01*
X002422Y013753D01*
X002254Y013922D02*
X001980Y013922D01*
X002087Y014080D02*
X002147Y014080D01*
X002147Y014239D02*
X002087Y014239D01*
X002087Y014397D02*
X002147Y014397D01*
X002284Y014556D02*
X001949Y014556D01*
X001931Y014873D02*
X002331Y014873D01*
X002430Y014773D02*
X002167Y015037D01*
X002167Y015213D01*
X002607Y015213D01*
X002627Y015213D01*
X002627Y015233D01*
X003067Y015233D01*
X003067Y015410D01*
X002803Y015673D01*
X002627Y015673D01*
X002627Y015233D01*
X002607Y015233D01*
X002607Y015673D01*
X002430Y015673D01*
X002167Y015410D01*
X002167Y015233D01*
X002607Y015233D01*
X002607Y015213D01*
X002607Y014773D01*
X002430Y014773D01*
X002627Y014773D02*
X002627Y015213D01*
X003067Y015213D01*
X003067Y015037D01*
X002803Y014773D01*
X002627Y014773D01*
X002627Y014873D02*
X002607Y014873D01*
X002607Y015031D02*
X002627Y015031D01*
X002627Y015190D02*
X002607Y015190D01*
X002607Y015348D02*
X002627Y015348D01*
X002627Y015507D02*
X002607Y015507D01*
X002607Y015665D02*
X002627Y015665D01*
X002811Y015665D02*
X003790Y015665D01*
X003790Y015507D02*
X002970Y015507D01*
X003067Y015348D02*
X003822Y015348D01*
X003790Y015425D02*
X003856Y015264D01*
X003979Y015142D01*
X004139Y015075D01*
X004313Y015075D01*
X004473Y015142D01*
X004596Y015264D01*
X004662Y015425D01*
X004662Y016071D01*
X004596Y016231D01*
X004473Y016354D01*
X004313Y016420D01*
X004139Y016420D01*
X003979Y016354D01*
X003856Y016231D01*
X003790Y016071D01*
X003790Y015425D01*
X003931Y015190D02*
X003067Y015190D01*
X003061Y015031D02*
X004724Y015031D01*
X004724Y014873D02*
X002902Y014873D01*
X002949Y014556D02*
X004724Y014556D01*
X004724Y014714D02*
X001356Y014714D01*
X002087Y015031D02*
X002172Y015031D01*
X002167Y015190D02*
X002087Y015190D01*
X002087Y015348D02*
X002167Y015348D01*
X002264Y015507D02*
X001998Y015507D01*
X001839Y015665D02*
X002422Y015665D01*
X002422Y015753D02*
X002811Y015753D01*
X003087Y016029D01*
X003087Y016418D01*
X002811Y016693D01*
X002422Y016693D01*
X002147Y016418D01*
X002147Y016029D01*
X002422Y015753D01*
X002352Y015824D02*
X001882Y015824D01*
X002040Y015982D02*
X002193Y015982D01*
X002147Y016141D02*
X002087Y016141D01*
X002087Y016299D02*
X002147Y016299D01*
X002186Y016458D02*
X002047Y016458D01*
X001888Y016616D02*
X002345Y016616D01*
X002422Y016753D02*
X002811Y016753D01*
X003087Y017029D01*
X003087Y017418D01*
X002811Y017693D01*
X002422Y017693D01*
X002147Y017418D01*
X002147Y017029D01*
X002422Y016753D01*
X002401Y016775D02*
X001833Y016775D01*
X001991Y016933D02*
X002242Y016933D01*
X002147Y017092D02*
X002087Y017092D01*
X002087Y017250D02*
X002147Y017250D01*
X002147Y017409D02*
X002087Y017409D01*
X001937Y017567D02*
X002296Y017567D01*
X002422Y017753D02*
X002811Y017753D01*
X003087Y018029D01*
X003087Y018418D01*
X002811Y018693D01*
X002422Y018693D01*
X002147Y018418D01*
X002147Y018029D01*
X002422Y017753D01*
X002291Y017884D02*
X001942Y017884D01*
X002087Y018043D02*
X002147Y018043D01*
X002147Y018201D02*
X002087Y018201D01*
X002087Y018360D02*
X002147Y018360D01*
X002247Y018518D02*
X001986Y018518D01*
X001828Y018677D02*
X002405Y018677D01*
X002430Y018773D02*
X002167Y019037D01*
X002167Y019213D01*
X002607Y019213D01*
X002627Y019213D01*
X002627Y019233D01*
X002607Y019233D01*
X002607Y019673D01*
X002430Y019673D01*
X002167Y019410D01*
X002167Y019233D01*
X002607Y019233D01*
X002607Y019213D01*
X002607Y018773D01*
X002430Y018773D01*
X002368Y018835D02*
X001893Y018835D01*
X002052Y018994D02*
X002210Y018994D01*
X002167Y019152D02*
X002087Y019152D01*
X002087Y019311D02*
X002167Y019311D01*
X002226Y019469D02*
X002035Y019469D01*
X001877Y019628D02*
X002385Y019628D01*
X002389Y019786D02*
X001816Y019786D01*
X001803Y019773D02*
X002067Y020037D01*
X002067Y020213D01*
X001627Y020213D01*
X001627Y019773D01*
X001803Y019773D01*
X001627Y019786D02*
X001607Y019786D01*
X001607Y019945D02*
X001627Y019945D01*
X001627Y020103D02*
X001607Y020103D01*
X001607Y020262D02*
X001627Y020262D01*
X001627Y020420D02*
X001607Y020420D01*
X001607Y020579D02*
X001627Y020579D01*
X001898Y020579D02*
X002307Y020579D01*
X002149Y020420D02*
X002056Y020420D01*
X002067Y020262D02*
X002147Y020262D01*
X002147Y020103D02*
X002067Y020103D01*
X001974Y019945D02*
X002231Y019945D01*
X002607Y019628D02*
X002627Y019628D01*
X002627Y019469D02*
X002607Y019469D01*
X002607Y019311D02*
X002627Y019311D01*
X002627Y019213D02*
X003067Y019213D01*
X003067Y019037D01*
X002803Y018773D01*
X002627Y018773D01*
X002627Y019213D01*
X002627Y019152D02*
X002607Y019152D01*
X002607Y018994D02*
X002627Y018994D01*
X002627Y018835D02*
X002607Y018835D01*
X002828Y018677D02*
X004763Y018677D01*
X004811Y018794D02*
X004896Y018878D01*
X004878Y018896D01*
X004855Y018937D01*
X004842Y018983D01*
X004842Y019499D01*
X005121Y019499D01*
X005121Y019499D01*
X004842Y019152D02*
X004553Y019152D01*
X004553Y018994D02*
X004842Y018994D01*
X004752Y018518D02*
X002986Y018518D01*
X003087Y018360D02*
X004220Y018360D01*
X004109Y018201D02*
X003087Y018201D01*
X003087Y018043D02*
X003549Y018043D01*
X003462Y017884D02*
X002942Y017884D01*
X002937Y017567D02*
X003512Y017567D01*
X003453Y017726D02*
X001356Y017726D01*
X001356Y016775D02*
X001401Y016775D01*
X001356Y015665D02*
X001394Y015665D01*
X002833Y016775D02*
X005137Y016775D01*
X005137Y016933D02*
X002991Y016933D01*
X003087Y017092D02*
X005178Y017092D01*
X005137Y016616D02*
X002888Y016616D01*
X003047Y016458D02*
X005137Y016458D01*
X005144Y016299D02*
X004528Y016299D01*
X004633Y016141D02*
X005245Y016141D01*
X005225Y015982D02*
X004662Y015982D01*
X004662Y015824D02*
X005068Y015824D01*
X004969Y015665D02*
X004662Y015665D01*
X004662Y015507D02*
X004969Y015507D01*
X004969Y015348D02*
X004631Y015348D01*
X004521Y015190D02*
X004969Y015190D01*
X005469Y015190D02*
X005875Y015190D01*
X005875Y015152D02*
X005746Y015152D01*
X005672Y015077D01*
X005597Y015152D01*
X005469Y015152D01*
X005469Y015517D01*
X005578Y015626D01*
X005690Y015626D01*
X005833Y015686D01*
X005942Y015795D01*
X006001Y015937D01*
X006001Y016092D01*
X005942Y016234D01*
X005940Y016236D01*
X006010Y016306D01*
X006010Y016375D01*
X006121Y016375D01*
X006121Y016306D01*
X006239Y016189D01*
X006453Y016189D01*
X006445Y016171D01*
X006445Y016016D01*
X006504Y015873D01*
X006543Y015835D01*
X006535Y015832D01*
X006499Y015796D01*
X006462Y015832D01*
X006320Y015891D01*
X006165Y015891D01*
X006023Y015832D01*
X005914Y015723D01*
X005855Y015580D01*
X005855Y015426D01*
X005875Y015377D01*
X005875Y015152D01*
X005875Y015348D02*
X005469Y015348D01*
X005469Y015507D02*
X005855Y015507D01*
X005890Y015665D02*
X005783Y015665D01*
X005954Y015824D02*
X006015Y015824D01*
X006001Y015982D02*
X006459Y015982D01*
X006471Y015824D02*
X006526Y015824D01*
X006445Y016141D02*
X005981Y016141D01*
X006003Y016299D02*
X006128Y016299D01*
X006121Y016875D02*
X006010Y016875D01*
X006010Y016944D01*
X005915Y017038D01*
X006010Y017133D01*
X006010Y017771D01*
X005979Y017802D01*
X006152Y017802D01*
X006121Y017771D01*
X006121Y017133D01*
X006216Y017038D01*
X006121Y016944D01*
X006121Y016875D01*
X006121Y016933D02*
X006010Y016933D01*
X005969Y017092D02*
X006162Y017092D01*
X006121Y017250D02*
X006010Y017250D01*
X006010Y017409D02*
X006121Y017409D01*
X006121Y017567D02*
X006010Y017567D01*
X006010Y017726D02*
X006121Y017726D01*
X006656Y018082D02*
X006873Y018298D01*
X008408Y018298D01*
X008625Y018082D01*
X009766Y018082D01*
X009845Y018082D01*
X010534Y017393D01*
X011794Y017393D01*
X011833Y017353D01*
X011951Y017432D02*
X011479Y017432D01*
X011220Y017726D02*
X010597Y017726D01*
X010593Y017884D02*
X010593Y017884D01*
X010593Y018043D02*
X010593Y018043D01*
X010593Y018160D02*
X010891Y018160D01*
X010891Y018381D01*
X010879Y018427D01*
X010855Y018468D01*
X010822Y018501D01*
X010798Y018515D01*
X010842Y018560D01*
X011066Y018560D01*
X011158Y018598D01*
X011220Y018659D01*
X011220Y018215D01*
X011337Y018098D01*
X012566Y018098D01*
X012683Y018215D01*
X012683Y018929D01*
X013006Y019252D01*
X012906Y019152D02*
X013709Y019152D01*
X013577Y019097D02*
X013889Y019227D01*
X014228Y019227D01*
X014540Y019097D01*
X014779Y018858D01*
X014909Y018546D01*
X014909Y018208D01*
X014779Y017895D01*
X014540Y017656D01*
X014228Y017527D01*
X013889Y017527D01*
X013577Y017656D01*
X013338Y017895D01*
X013209Y018208D01*
X013209Y018546D01*
X013338Y018858D01*
X013577Y019097D01*
X013473Y018994D02*
X012748Y018994D01*
X012683Y018835D02*
X013328Y018835D01*
X013263Y018677D02*
X012683Y018677D01*
X012683Y018518D02*
X013209Y018518D01*
X013209Y018360D02*
X012683Y018360D01*
X012669Y018201D02*
X013211Y018201D01*
X013277Y018043D02*
X010891Y018043D01*
X010891Y018201D02*
X011234Y018201D01*
X011220Y018360D02*
X010891Y018360D01*
X010801Y018518D02*
X011220Y018518D01*
X010913Y019060D02*
X010882Y019060D01*
X010857Y019084D01*
X011037Y019264D01*
X011068Y019252D01*
X011105Y019252D01*
X010913Y019060D01*
X010925Y019152D02*
X011005Y019152D01*
X010680Y019628D02*
X010643Y019628D01*
X010657Y019786D02*
X010671Y019786D01*
X010712Y019945D02*
X010615Y019945D01*
X010498Y020103D02*
X010822Y020103D01*
X010201Y020103D02*
X010164Y020103D01*
X010164Y019945D02*
X010201Y019945D01*
X010201Y019786D02*
X010164Y019786D01*
X009797Y019469D02*
X007602Y019469D01*
X007602Y019628D02*
X007442Y019628D01*
X007442Y019579D02*
X007442Y020171D01*
X007105Y020171D01*
X007059Y020159D01*
X007018Y020135D01*
X006985Y020102D01*
X006961Y020061D01*
X006949Y020015D01*
X006949Y019579D01*
X007442Y019579D01*
X007442Y019469D02*
X006689Y019469D01*
X006679Y019628D02*
X006949Y019628D01*
X006949Y019786D02*
X006679Y019786D01*
X006679Y019945D02*
X006949Y019945D01*
X006986Y020103D02*
X006764Y020103D01*
X006966Y020262D02*
X008324Y020262D01*
X008217Y020420D02*
X007024Y020420D01*
X007018Y020579D02*
X008151Y020579D01*
X008124Y020737D02*
X006939Y020737D01*
X006992Y021054D02*
X004509Y021054D01*
X004553Y021213D02*
X006949Y021213D01*
X006949Y021371D02*
X004553Y021371D01*
X004553Y021530D02*
X006949Y021530D01*
X006949Y021847D02*
X004553Y021847D01*
X004553Y022005D02*
X006949Y022005D01*
X007442Y021688D02*
X004059Y021688D01*
X004059Y021530D02*
X003899Y021530D01*
X003899Y021584D02*
X003899Y020992D01*
X003562Y020992D01*
X003516Y021004D01*
X003475Y021028D01*
X003441Y021062D01*
X003418Y021103D01*
X003405Y021148D01*
X003405Y021584D01*
X003899Y021584D01*
X003899Y021688D02*
X003091Y021688D01*
X003086Y021530D02*
X003405Y021530D01*
X003405Y021371D02*
X002928Y021371D01*
X002962Y021405D02*
X002962Y021405D01*
X003091Y021847D02*
X003405Y021847D01*
X003405Y022005D02*
X002989Y022005D01*
X003044Y021950D02*
X003044Y021950D01*
X003405Y021213D02*
X002403Y021213D01*
X002310Y021054D02*
X003449Y021054D01*
X003899Y021054D02*
X004059Y021054D01*
X004059Y021213D02*
X003899Y021213D01*
X003899Y021371D02*
X004059Y021371D01*
X004563Y020737D02*
X001356Y020737D01*
X001356Y020896D02*
X001397Y020896D01*
X002105Y020896D02*
X008124Y020896D01*
X008153Y021054D02*
X008053Y021054D01*
X008096Y021213D02*
X008219Y021213D01*
X008329Y021371D02*
X008096Y021371D01*
X008096Y021530D02*
X008487Y021530D01*
X008096Y021847D02*
X015386Y021847D01*
X015410Y021813D02*
X015410Y021813D01*
X015426Y021793D02*
X015426Y021793D01*
X015470Y021733D02*
X015470Y021733D01*
X015486Y021713D02*
X015486Y021713D01*
X015503Y021688D02*
X007602Y021688D01*
X007602Y021530D02*
X007442Y021530D01*
X007442Y021371D02*
X007602Y021371D01*
X007602Y021213D02*
X007442Y021213D01*
X007442Y021054D02*
X007602Y021054D01*
X007602Y020103D02*
X007442Y020103D01*
X007442Y019945D02*
X007602Y019945D01*
X007602Y019786D02*
X007442Y019786D01*
X006949Y019311D02*
X006725Y019311D01*
X006884Y019152D02*
X006949Y019152D01*
X006113Y018481D02*
X006150Y018393D01*
X006181Y018362D01*
X005473Y018362D01*
X005522Y018481D01*
X005702Y018481D01*
X005794Y018519D01*
X005864Y018590D01*
X005888Y018614D01*
X005913Y018590D01*
X005983Y018519D01*
X006075Y018481D01*
X006113Y018481D01*
X005985Y018518D02*
X005791Y018518D01*
X005168Y017802D02*
X005137Y017771D01*
X005137Y017702D01*
X004615Y017702D01*
X004691Y017733D01*
X004760Y017802D01*
X005168Y017802D01*
X005137Y017726D02*
X004674Y017726D01*
X004327Y017702D02*
X004279Y017702D01*
X004229Y017752D01*
X004229Y017755D01*
X004251Y017733D01*
X004327Y017702D01*
X004268Y017726D02*
X004255Y017726D01*
X004471Y018062D02*
X004491Y018082D01*
X006656Y018082D01*
X006858Y017888D02*
X006989Y018018D01*
X007759Y018018D01*
X007744Y017982D01*
X007744Y017888D01*
X007223Y017888D01*
X007106Y017771D01*
X007106Y017702D01*
X006994Y017702D01*
X006994Y017771D01*
X006877Y017888D01*
X006858Y017888D01*
X006880Y017884D02*
X007219Y017884D01*
X007106Y017726D02*
X006994Y017726D01*
X007978Y017548D02*
X007978Y017133D01*
X007884Y017038D01*
X007978Y016944D01*
X007978Y016875D01*
X008090Y016875D01*
X008090Y016944D01*
X008184Y017038D01*
X008090Y017133D01*
X008090Y017516D01*
X008055Y017516D01*
X007978Y017548D01*
X007978Y017409D02*
X008090Y017409D01*
X008090Y017250D02*
X007978Y017250D01*
X007937Y017092D02*
X008131Y017092D01*
X008090Y016933D02*
X007978Y016933D01*
X007978Y016375D02*
X008090Y016375D01*
X008090Y016306D01*
X008207Y016189D01*
X008387Y016189D01*
X008345Y016146D01*
X007374Y016146D01*
X007282Y016108D01*
X007221Y016048D01*
X007221Y016171D01*
X007207Y016204D01*
X007223Y016189D01*
X007861Y016189D01*
X007978Y016306D01*
X007978Y016375D01*
X007971Y016299D02*
X008097Y016299D01*
X008055Y015643D02*
X007577Y015643D01*
X007556Y015638D01*
X007556Y015646D01*
X008345Y015646D01*
X008348Y015643D01*
X008210Y015643D01*
X008210Y015226D01*
X008055Y015226D01*
X008055Y015643D01*
X008055Y015507D02*
X008210Y015507D01*
X008210Y015348D02*
X008055Y015348D01*
X008210Y015190D02*
X009161Y015190D01*
X009155Y015194D02*
X009208Y015155D01*
X009266Y015126D01*
X009329Y015105D01*
X009393Y015095D01*
X009426Y015095D01*
X009426Y015748D01*
X009426Y015748D01*
X009010Y015748D01*
X009010Y015479D01*
X009020Y015414D01*
X009040Y015352D01*
X009070Y015293D01*
X009109Y015240D01*
X009155Y015194D01*
X009042Y015348D02*
X008844Y015348D01*
X008839Y015507D02*
X009010Y015507D01*
X009010Y015665D02*
X008962Y015665D01*
X009011Y016025D02*
X008973Y016116D01*
X008873Y016217D01*
X008962Y016306D01*
X008962Y016375D01*
X009074Y016375D01*
X009074Y016306D01*
X009117Y016263D01*
X009109Y016255D01*
X009070Y016202D01*
X009040Y016144D01*
X009020Y016081D01*
X009011Y016025D01*
X009039Y016141D02*
X008949Y016141D01*
X008956Y016299D02*
X009081Y016299D01*
X009074Y016875D02*
X008962Y016875D01*
X008962Y016944D01*
X008868Y017038D01*
X008962Y017133D01*
X008962Y017202D01*
X009074Y017202D01*
X009074Y017133D01*
X009168Y017038D01*
X009074Y016944D01*
X009074Y016875D01*
X009074Y016933D02*
X008962Y016933D01*
X008921Y017092D02*
X009115Y017092D01*
X009074Y017702D02*
X008962Y017702D01*
X008962Y017771D01*
X008931Y017802D01*
X009105Y017802D01*
X009074Y017771D01*
X009074Y017702D01*
X009074Y017726D02*
X008962Y017726D01*
X009947Y017567D02*
X009963Y017567D01*
X009947Y017409D02*
X010122Y017409D01*
X010280Y017250D02*
X009947Y017250D01*
X009906Y017092D02*
X010905Y017092D01*
X010821Y016933D02*
X009947Y016933D01*
X009947Y016775D02*
X010783Y016775D01*
X010666Y016616D02*
X009947Y016616D01*
X009947Y016458D02*
X010615Y016458D01*
X010590Y016299D02*
X009940Y016299D01*
X009813Y016141D02*
X010590Y016141D01*
X010638Y015982D02*
X009842Y015982D01*
X009842Y015824D02*
X012651Y015824D01*
X012567Y015665D02*
X011914Y015665D01*
X011974Y015507D02*
X012501Y015507D01*
X012539Y015982D02*
X011926Y015982D01*
X011974Y016141D02*
X012496Y016141D01*
X012503Y016299D02*
X011974Y016299D01*
X011705Y016855D02*
X011613Y016817D01*
X011591Y016796D01*
X011591Y016876D01*
X011652Y016937D01*
X012566Y016937D01*
X012573Y016944D01*
X012585Y016919D01*
X012629Y016859D01*
X012641Y016846D01*
X012620Y016855D01*
X011705Y016855D01*
X011649Y016933D02*
X012578Y016933D01*
X012973Y016933D02*
X013010Y016933D01*
X013010Y016775D02*
X012973Y016775D01*
X013010Y016693D02*
X013029Y016693D01*
X013103Y016705D01*
X013174Y016728D01*
X013241Y016762D01*
X013301Y016806D01*
X013354Y016859D01*
X013398Y016919D01*
X013432Y016986D01*
X013455Y017057D01*
X013467Y017131D01*
X013467Y017150D01*
X013010Y017150D01*
X013010Y016693D01*
X013242Y016616D02*
X015345Y016616D01*
X015422Y016693D02*
X015147Y016418D01*
X015147Y016029D01*
X015422Y015753D01*
X015811Y015753D01*
X016087Y016029D01*
X016087Y016418D01*
X015811Y016693D01*
X015422Y016693D01*
X015422Y016753D02*
X015811Y016753D01*
X016087Y017029D01*
X016087Y017418D01*
X015811Y017693D01*
X015422Y017693D01*
X015147Y017418D01*
X015147Y017029D01*
X015422Y016753D01*
X015401Y016775D02*
X013259Y016775D01*
X013405Y016933D02*
X015242Y016933D01*
X015147Y017092D02*
X013461Y017092D01*
X013467Y017187D02*
X013467Y017206D01*
X013455Y017279D01*
X013432Y017351D01*
X013398Y017417D01*
X013354Y017478D01*
X013301Y017531D01*
X013241Y017575D01*
X013174Y017609D01*
X013103Y017632D01*
X013029Y017643D01*
X013010Y017643D01*
X013010Y017187D01*
X013467Y017187D01*
X013460Y017250D02*
X015147Y017250D01*
X015147Y017409D02*
X013402Y017409D01*
X013251Y017567D02*
X013792Y017567D01*
X013508Y017726D02*
X012683Y017726D01*
X012683Y017567D02*
X012732Y017567D01*
X012609Y017884D02*
X013349Y017884D01*
X013010Y017567D02*
X012973Y017567D01*
X012973Y017409D02*
X013010Y017409D01*
X013010Y017250D02*
X012973Y017250D01*
X012973Y017092D02*
X013010Y017092D01*
X013414Y016458D02*
X015186Y016458D01*
X015147Y016299D02*
X013480Y016299D01*
X013487Y016141D02*
X015147Y016141D01*
X015193Y015982D02*
X013444Y015982D01*
X013332Y015824D02*
X015352Y015824D01*
X015422Y015693D02*
X015147Y015418D01*
X015147Y015029D01*
X015422Y014753D01*
X015811Y014753D01*
X016087Y015029D01*
X016087Y015418D01*
X015811Y015693D01*
X015422Y015693D01*
X015394Y015665D02*
X013416Y015665D01*
X013482Y015507D02*
X015235Y015507D01*
X015147Y015348D02*
X013487Y015348D01*
X013442Y015190D02*
X015147Y015190D01*
X015147Y015031D02*
X013327Y015031D01*
X013174Y014873D02*
X015303Y014873D01*
X015422Y014693D02*
X015147Y014418D01*
X015147Y014029D01*
X015422Y013753D01*
X015811Y013753D01*
X016087Y014029D01*
X016087Y014418D01*
X015811Y014693D01*
X015422Y014693D01*
X015284Y014556D02*
X013468Y014556D01*
X013487Y014397D02*
X015147Y014397D01*
X015147Y014239D02*
X013456Y014239D01*
X013360Y014080D02*
X015147Y014080D01*
X015254Y013922D02*
X014542Y013922D01*
X014540Y013924D02*
X014228Y014054D01*
X013889Y014054D01*
X013577Y013924D01*
X013338Y013685D01*
X013209Y013373D01*
X013209Y013034D01*
X013338Y012722D01*
X013539Y012521D01*
X013313Y012295D01*
X013184Y011983D01*
X013184Y011645D01*
X013198Y011609D01*
X013196Y011610D01*
X011848Y011610D01*
X011731Y011561D01*
X011218Y011048D01*
X011205Y011048D01*
X011062Y010989D01*
X010953Y010880D01*
X010894Y010737D01*
X010894Y010583D01*
X010904Y010560D01*
X010904Y010525D01*
X010865Y010487D01*
X010865Y010162D01*
X008433Y010162D01*
X008117Y010479D01*
X008025Y010517D01*
X007723Y010517D01*
X007644Y010596D01*
X007501Y010655D01*
X007347Y010655D01*
X007204Y010596D01*
X007095Y010486D01*
X007036Y010344D01*
X007036Y010189D01*
X007095Y010047D01*
X007204Y009938D01*
X007347Y009878D01*
X007501Y009878D01*
X007644Y009938D01*
X007723Y010017D01*
X007871Y010017D01*
X008117Y009771D01*
X008188Y009700D01*
X008280Y009662D01*
X010907Y009662D01*
X010898Y009647D01*
X010885Y009601D01*
X010885Y009459D01*
X010885Y009318D01*
X010898Y009272D01*
X010921Y009231D01*
X010955Y009197D01*
X010996Y009174D01*
X011042Y009161D01*
X011262Y009161D01*
X011262Y009459D01*
X011262Y009459D01*
X010885Y009459D01*
X011262Y009459D01*
X011262Y009459D01*
X011262Y009161D01*
X011483Y009161D01*
X011529Y009174D01*
X011570Y009197D01*
X011603Y009231D01*
X011617Y009255D01*
X011731Y009141D01*
X011907Y009141D01*
X011980Y009111D01*
X012163Y009111D01*
X012165Y009108D01*
X011475Y009108D01*
X011358Y008991D01*
X011358Y007762D01*
X011390Y007730D01*
X011155Y007730D01*
X011187Y007762D01*
X011187Y008991D01*
X011070Y009108D01*
X010313Y009108D01*
X010265Y009059D01*
X009978Y009345D01*
X009888Y009435D01*
X009771Y009484D01*
X008423Y009484D01*
X008305Y009435D01*
X008215Y009345D01*
X008039Y009169D01*
X005290Y009169D01*
X005281Y009178D01*
X005139Y009237D01*
X004984Y009237D01*
X004842Y009178D01*
X004733Y009069D01*
X004673Y008926D01*
X004673Y008772D01*
X004733Y008629D01*
X004823Y008539D01*
X004662Y008539D01*
X004662Y008771D01*
X004596Y008931D01*
X004473Y009054D01*
X004313Y009120D01*
X004139Y009120D01*
X003979Y009054D01*
X003856Y008931D01*
X003790Y008771D01*
X003790Y008125D01*
X003856Y007964D01*
X003979Y007842D01*
X004000Y007833D01*
X003899Y007732D01*
X003828Y007559D01*
X003828Y006832D01*
X003899Y006659D01*
X004032Y006527D01*
X004204Y006456D01*
X004391Y006456D01*
X004564Y006527D01*
X004696Y006659D01*
X004768Y006832D01*
X004768Y007559D01*
X004696Y007732D01*
X004564Y007864D01*
X004516Y007884D01*
X004531Y007899D01*
X005116Y007899D01*
X005032Y007864D01*
X004899Y007732D01*
X004828Y007559D01*
X004828Y006832D01*
X004899Y006659D01*
X004937Y006622D01*
X004834Y006519D01*
X004772Y006370D01*
X004772Y005792D01*
X004834Y005642D01*
X004949Y005527D01*
X005099Y005465D01*
X005154Y005465D01*
X005141Y005435D01*
X005141Y005297D01*
X005194Y005169D01*
X005292Y005071D01*
X005420Y005018D01*
X005559Y005018D01*
X005687Y005071D01*
X005785Y005169D01*
X005805Y005217D01*
X005824Y005169D01*
X005922Y005071D01*
X006050Y005018D01*
X006189Y005018D01*
X006317Y005071D01*
X006415Y005169D01*
X006468Y005297D01*
X006468Y005435D01*
X006447Y005485D01*
X006478Y005485D01*
X006553Y005500D01*
X006623Y005529D01*
X006687Y005572D01*
X006741Y005626D01*
X006783Y005689D01*
X006812Y005760D01*
X006827Y005835D01*
X006827Y005873D01*
X006827Y006327D01*
X006812Y006402D01*
X006783Y006472D01*
X006741Y006536D01*
X006687Y006590D01*
X006651Y006614D01*
X006696Y006659D01*
X006768Y006832D01*
X006768Y007559D01*
X006696Y007732D01*
X006564Y007864D01*
X006453Y007910D01*
X005963Y008401D01*
X005873Y008491D01*
X005779Y008529D01*
X008235Y008529D01*
X008353Y008578D01*
X008443Y008668D01*
X008619Y008844D01*
X009041Y008844D01*
X009040Y008844D01*
X009020Y008781D01*
X009010Y008717D01*
X009010Y008448D01*
X009426Y008448D01*
X009426Y008448D01*
X009842Y008448D01*
X009842Y008577D01*
X009941Y008478D01*
X009920Y008470D01*
X009842Y008392D01*
X009842Y008448D01*
X009426Y008448D01*
X009426Y008448D01*
X009010Y008448D01*
X009010Y008179D01*
X009020Y008114D01*
X009040Y008052D01*
X009070Y007993D01*
X009109Y007940D01*
X009155Y007894D01*
X009208Y007855D01*
X009266Y007826D01*
X009329Y007805D01*
X009393Y007795D01*
X009426Y007795D01*
X009426Y008448D01*
X009426Y008448D01*
X009426Y007795D01*
X009459Y007795D01*
X009524Y007805D01*
X009586Y007826D01*
X009624Y007845D01*
X009624Y007573D01*
X009506Y007573D01*
X009389Y007456D01*
X009389Y006227D01*
X009506Y006110D01*
X009997Y006110D01*
X009683Y005796D01*
X009640Y005693D01*
X009640Y005674D01*
X009500Y005535D01*
X009425Y005353D01*
X009425Y005156D01*
X009500Y004974D01*
X009640Y004834D01*
X009822Y004759D01*
X010019Y004759D01*
X010201Y004834D01*
X010340Y004974D01*
X010412Y005148D01*
X010485Y004974D01*
X010624Y004834D01*
X010806Y004759D01*
X011003Y004759D01*
X011185Y004834D01*
X011298Y004947D01*
X011411Y004834D01*
X011593Y004759D01*
X011790Y004759D01*
X011972Y004834D01*
X012112Y004974D01*
X012187Y005156D01*
X012187Y005353D01*
X012112Y005535D01*
X012068Y005578D01*
X012328Y005578D01*
X012314Y005564D01*
X012270Y005503D01*
X012236Y005437D01*
X012213Y005366D01*
X012201Y005292D01*
X012201Y005273D01*
X012658Y005273D01*
X012658Y005729D01*
X012639Y005729D01*
X012565Y005718D01*
X012494Y005695D01*
X012476Y005686D01*
X012486Y005696D01*
X012486Y006452D01*
X012369Y006569D01*
X011435Y006569D01*
X011519Y006604D01*
X011598Y006683D01*
X011655Y006740D01*
X012369Y006740D01*
X012486Y006857D01*
X012486Y006915D01*
X013227Y006915D01*
X013184Y006810D01*
X013184Y006471D01*
X013313Y006159D01*
X013552Y005920D01*
X013864Y005791D01*
X014203Y005791D01*
X014515Y005920D01*
X014754Y006159D01*
X014884Y006471D01*
X014884Y006810D01*
X014754Y007122D01*
X014515Y007361D01*
X014203Y007491D01*
X013864Y007491D01*
X013846Y007483D01*
X013846Y010960D01*
X013840Y010974D01*
X013864Y010964D01*
X014203Y010964D01*
X014515Y011093D01*
X014754Y011332D01*
X014884Y011645D01*
X014884Y011983D01*
X014754Y012295D01*
X014553Y012496D01*
X014779Y012722D01*
X014909Y013034D01*
X014909Y013373D01*
X014779Y013685D01*
X014540Y013924D01*
X014701Y013763D02*
X015412Y013763D01*
X015422Y013693D02*
X015147Y013418D01*
X015147Y013029D01*
X015422Y012753D01*
X015811Y012753D01*
X016087Y013029D01*
X016087Y013418D01*
X015811Y013693D01*
X015422Y013693D01*
X015333Y013605D02*
X014812Y013605D01*
X014878Y013446D02*
X015175Y013446D01*
X015147Y013288D02*
X014909Y013288D01*
X014909Y013129D02*
X015147Y013129D01*
X015205Y012971D02*
X014882Y012971D01*
X014816Y012812D02*
X015363Y012812D01*
X015422Y012693D02*
X015147Y012418D01*
X015147Y012029D01*
X015422Y011753D01*
X015811Y011753D01*
X016087Y012029D01*
X016087Y012418D01*
X015811Y012693D01*
X015422Y012693D01*
X015382Y012654D02*
X014711Y012654D01*
X014554Y012495D02*
X015224Y012495D01*
X015147Y012337D02*
X014713Y012337D01*
X014803Y012178D02*
X015147Y012178D01*
X015156Y012020D02*
X014868Y012020D01*
X014884Y011861D02*
X015314Y011861D01*
X015422Y011693D02*
X015147Y011418D01*
X015147Y011029D01*
X015422Y010753D01*
X015811Y010753D01*
X016087Y011029D01*
X016087Y011418D01*
X015811Y011693D01*
X015422Y011693D01*
X015273Y011544D02*
X014842Y011544D01*
X014884Y011703D02*
X016878Y011703D01*
X016314Y011861D02*
X015919Y011861D01*
X016078Y012020D02*
X016156Y012020D01*
X016147Y012178D02*
X016087Y012178D01*
X016087Y012337D02*
X016147Y012337D01*
X016224Y012495D02*
X016009Y012495D01*
X015851Y012654D02*
X016382Y012654D01*
X016363Y012812D02*
X015870Y012812D01*
X016029Y012971D02*
X016205Y012971D01*
X016147Y013129D02*
X016087Y013129D01*
X016087Y013288D02*
X016147Y013288D01*
X016175Y013446D02*
X016058Y013446D01*
X015900Y013605D02*
X016333Y013605D01*
X016412Y013763D02*
X015821Y013763D01*
X015980Y013922D02*
X016254Y013922D01*
X016147Y014080D02*
X016087Y014080D01*
X016087Y014239D02*
X016147Y014239D01*
X016147Y014397D02*
X016087Y014397D01*
X015949Y014556D02*
X016284Y014556D01*
X016303Y014873D02*
X015931Y014873D01*
X016087Y015031D02*
X016147Y015031D01*
X016147Y015190D02*
X016087Y015190D01*
X016087Y015348D02*
X016147Y015348D01*
X016235Y015507D02*
X015998Y015507D01*
X015839Y015665D02*
X016394Y015665D01*
X016352Y015824D02*
X015882Y015824D01*
X016040Y015982D02*
X016193Y015982D01*
X016147Y016141D02*
X016087Y016141D01*
X016087Y016299D02*
X016147Y016299D01*
X016186Y016458D02*
X016047Y016458D01*
X015888Y016616D02*
X016345Y016616D01*
X016401Y016775D02*
X015833Y016775D01*
X015991Y016933D02*
X016242Y016933D01*
X016147Y017092D02*
X016087Y017092D01*
X016087Y017250D02*
X016147Y017250D01*
X016147Y017409D02*
X016087Y017409D01*
X015937Y017567D02*
X016296Y017567D01*
X016291Y017884D02*
X015942Y017884D01*
X015811Y017753D02*
X016087Y018029D01*
X016087Y018418D01*
X015811Y018693D01*
X015422Y018693D01*
X015147Y018418D01*
X015147Y018029D01*
X015422Y017753D01*
X015811Y017753D01*
X016087Y018043D02*
X016147Y018043D01*
X016147Y018201D02*
X016087Y018201D01*
X016087Y018360D02*
X016147Y018360D01*
X016247Y018518D02*
X015986Y018518D01*
X015828Y018677D02*
X016405Y018677D01*
X016340Y018835D02*
X015893Y018835D01*
X016052Y018994D02*
X016182Y018994D01*
X016147Y019152D02*
X016087Y019152D01*
X016087Y019311D02*
X016147Y019311D01*
X016539Y019693D02*
X016599Y019753D01*
X016811Y019753D01*
X016878Y019819D01*
X016878Y019627D01*
X016811Y019693D01*
X016539Y019693D01*
X016844Y019786D02*
X016878Y019786D01*
X016877Y019628D02*
X016878Y019628D01*
X016878Y018677D02*
X016828Y018677D01*
X016878Y017726D02*
X014609Y017726D01*
X014768Y017884D02*
X015291Y017884D01*
X015147Y018043D02*
X014840Y018043D01*
X014906Y018201D02*
X015147Y018201D01*
X015147Y018360D02*
X014909Y018360D01*
X014909Y018518D02*
X015247Y018518D01*
X015405Y018677D02*
X014854Y018677D01*
X014789Y018835D02*
X015340Y018835D01*
X015182Y018994D02*
X014644Y018994D01*
X014408Y019152D02*
X015147Y019152D01*
X015147Y019311D02*
X013179Y019311D01*
X013359Y019469D02*
X013713Y019469D01*
X013555Y019628D02*
X013425Y019628D01*
X013297Y020896D02*
X013192Y020896D01*
X013326Y021054D02*
X013034Y021054D01*
X012875Y021213D02*
X013392Y021213D01*
X013502Y021371D02*
X012652Y021371D01*
X013660Y021530D02*
X009460Y021530D01*
X009618Y021371D02*
X009948Y021371D01*
X009825Y021213D02*
X009728Y021213D01*
X009824Y020896D02*
X009825Y020896D01*
X009824Y020737D02*
X009948Y020737D01*
X009235Y019747D02*
X009235Y019479D01*
X008482Y020103D02*
X008059Y020103D01*
X008096Y022005D02*
X015386Y022005D01*
X015390Y022023D02*
X015390Y022023D01*
X015510Y021681D02*
X015510Y021681D01*
X015510Y021681D01*
X015514Y021673D02*
X015514Y021673D01*
X015574Y021593D02*
X015574Y021593D01*
X015586Y021577D02*
X015586Y021577D01*
X015590Y021573D02*
X015590Y021573D01*
X015516Y021530D02*
X014633Y021530D01*
X014792Y021371D02*
X015382Y021371D01*
X015290Y021213D02*
X014902Y021213D01*
X014967Y021054D02*
X015309Y021054D01*
X015310Y021053D02*
X015310Y021053D01*
X015290Y021089D02*
X015290Y021089D01*
X015430Y020896D02*
X014997Y020896D01*
X014997Y020737D02*
X015574Y020737D01*
X015607Y020579D02*
X015627Y020579D01*
X015627Y020420D02*
X015607Y020420D01*
X015607Y020262D02*
X015627Y020262D01*
X015898Y020579D02*
X016307Y020579D01*
X016278Y020737D02*
X016878Y020737D01*
X016878Y020896D02*
X016422Y020896D01*
X016542Y021053D02*
X016542Y021053D01*
X016543Y021054D02*
X016878Y021054D01*
X016878Y021213D02*
X016562Y021213D01*
X016538Y021303D02*
X016538Y021303D01*
X016470Y021371D02*
X016878Y021371D01*
X016878Y021530D02*
X016331Y021530D01*
X016266Y021577D02*
X016266Y021577D01*
X016262Y021573D02*
X016262Y021573D01*
X016322Y021653D02*
X016322Y021653D01*
X016346Y021685D02*
X016346Y021685D01*
X016349Y021688D02*
X016878Y021688D01*
X016878Y021847D02*
X016466Y021847D01*
X016442Y021813D02*
X016442Y021813D01*
X016426Y021793D02*
X016426Y021793D01*
X016382Y021733D02*
X016382Y021733D01*
X016366Y021713D02*
X016366Y021713D01*
X016438Y021423D02*
X016438Y021423D01*
X016454Y021403D02*
X016454Y021403D01*
X016546Y021057D02*
X016546Y021057D01*
X016149Y020420D02*
X016056Y020420D01*
X016067Y020262D02*
X016147Y020262D01*
X015336Y020579D02*
X014969Y020579D01*
X014904Y020420D02*
X015177Y020420D01*
X015167Y020262D02*
X014797Y020262D01*
X014638Y020103D02*
X015167Y020103D01*
X016466Y022005D02*
X016878Y022005D01*
X016462Y022023D02*
X016462Y022023D01*
X015296Y017567D02*
X014325Y017567D01*
X012809Y014873D02*
X012787Y014873D01*
X012593Y014714D02*
X011423Y014714D01*
X011423Y014798D02*
X011410Y014844D01*
X011387Y014885D01*
X011353Y014918D01*
X011312Y014942D01*
X011266Y014954D01*
X011005Y014954D01*
X011005Y014320D01*
X011423Y014320D01*
X011423Y014798D01*
X011394Y014873D02*
X011633Y014873D01*
X011442Y015031D02*
X008844Y015031D01*
X008610Y014654D02*
X008610Y014561D01*
X007556Y014561D01*
X007556Y014659D01*
X007577Y014654D01*
X008055Y014654D01*
X008055Y015071D01*
X008210Y015071D01*
X008210Y014654D01*
X008610Y014654D01*
X008210Y014714D02*
X008055Y014714D01*
X008055Y014873D02*
X008210Y014873D01*
X008210Y015031D02*
X008055Y015031D01*
X008864Y014239D02*
X009310Y014239D01*
X009310Y014080D02*
X008864Y014080D01*
X008864Y013922D02*
X009310Y013922D01*
X009310Y013763D02*
X008864Y013763D01*
X008820Y013605D02*
X009334Y013605D01*
X009536Y013446D02*
X008422Y013446D01*
X008318Y013288D02*
X009536Y013288D01*
X009536Y013129D02*
X008160Y013129D01*
X007462Y013587D02*
X006598Y013587D01*
X006620Y013609D01*
X006620Y013698D01*
X007060Y013698D01*
X007152Y013736D01*
X007401Y013985D01*
X007401Y013648D01*
X007462Y013587D01*
X007445Y013605D02*
X006616Y013605D01*
X006620Y014198D02*
X006620Y014286D01*
X006585Y014322D01*
X006620Y014357D01*
X006620Y015034D01*
X006503Y015152D01*
X006409Y015152D01*
X006462Y015174D01*
X006499Y015210D01*
X006535Y015174D01*
X006677Y015115D01*
X006832Y015115D01*
X006974Y015174D01*
X007053Y015253D01*
X007056Y015253D01*
X007056Y014347D01*
X006907Y014198D01*
X006620Y014198D01*
X006620Y014239D02*
X006948Y014239D01*
X007056Y014397D02*
X006620Y014397D01*
X006620Y014556D02*
X007056Y014556D01*
X007056Y014714D02*
X006620Y014714D01*
X006620Y014873D02*
X007056Y014873D01*
X007056Y015031D02*
X006620Y015031D01*
X006519Y015190D02*
X006478Y015190D01*
X006990Y015190D02*
X007056Y015190D01*
X007056Y015753D02*
X007056Y015767D01*
X007053Y015764D01*
X007045Y015761D01*
X007053Y015753D01*
X007056Y015753D01*
X007221Y016141D02*
X007360Y016141D01*
X007106Y016370D02*
X007101Y016375D01*
X007106Y016375D01*
X007106Y016370D01*
X007338Y013922D02*
X007401Y013922D01*
X007401Y013763D02*
X007179Y013763D01*
X006870Y012812D02*
X006345Y012812D01*
X006451Y012971D02*
X009536Y012971D01*
X009536Y012812D02*
X009139Y012812D01*
X009204Y012654D02*
X009536Y012654D01*
X009536Y012495D02*
X009395Y012495D01*
X010036Y012495D02*
X010604Y012495D01*
X010604Y012337D02*
X010036Y012337D01*
X010036Y012178D02*
X010604Y012178D01*
X010604Y012020D02*
X010036Y012020D01*
X010036Y011861D02*
X010624Y011861D01*
X010839Y011703D02*
X010036Y011703D01*
X010036Y011544D02*
X010681Y011544D01*
X010522Y011386D02*
X010036Y011386D01*
X010206Y011227D02*
X010364Y011227D01*
X010595Y010752D02*
X010900Y010752D01*
X010894Y010593D02*
X010370Y010593D01*
X010754Y010910D02*
X010983Y010910D01*
X010912Y011069D02*
X011238Y011069D01*
X011396Y011227D02*
X011071Y011227D01*
X011229Y011386D02*
X011555Y011386D01*
X011713Y011544D02*
X011388Y011544D01*
X011546Y011703D02*
X013184Y011703D01*
X013184Y011861D02*
X012984Y011861D01*
X013004Y012020D02*
X013199Y012020D01*
X013264Y012178D02*
X013004Y012178D01*
X013004Y012337D02*
X013354Y012337D01*
X013513Y012495D02*
X013004Y012495D01*
X013004Y012654D02*
X013406Y012654D01*
X013301Y012812D02*
X012939Y012812D01*
X013235Y012971D02*
X010036Y012971D01*
X010036Y013129D02*
X013209Y013129D01*
X013209Y013288D02*
X010036Y013288D01*
X010036Y013446D02*
X013239Y013446D01*
X013305Y013605D02*
X011389Y013605D01*
X011387Y013601D02*
X011410Y013642D01*
X011423Y013688D01*
X011423Y014165D01*
X011005Y014165D01*
X011005Y013531D01*
X011266Y013531D01*
X011312Y013544D01*
X011353Y013567D01*
X011387Y013601D01*
X011423Y013763D02*
X013416Y013763D01*
X013575Y013922D02*
X013102Y013922D01*
X012882Y013922D02*
X011423Y013922D01*
X011423Y014080D02*
X012623Y014080D01*
X012527Y014239D02*
X011005Y014239D01*
X011005Y014165D02*
X011005Y014320D01*
X010850Y014320D01*
X010850Y014165D01*
X011005Y014165D01*
X011005Y014080D02*
X010850Y014080D01*
X010850Y014165D02*
X010850Y013531D01*
X010589Y013531D01*
X010543Y013544D01*
X010502Y013567D01*
X010469Y013601D01*
X010445Y013642D01*
X010433Y013688D01*
X010433Y014165D01*
X010850Y014165D01*
X010850Y014239D02*
X010340Y014239D01*
X010433Y014320D02*
X010850Y014320D01*
X010850Y014954D01*
X010589Y014954D01*
X010543Y014942D01*
X010502Y014918D01*
X010469Y014885D01*
X010445Y014844D01*
X010433Y014798D01*
X010433Y014320D01*
X010433Y014397D02*
X010340Y014397D01*
X010340Y014556D02*
X010433Y014556D01*
X010433Y014714D02*
X010340Y014714D01*
X010325Y014873D02*
X010462Y014873D01*
X010679Y015142D02*
X010646Y015176D01*
X010622Y015217D01*
X010610Y015263D01*
X010610Y015404D01*
X010987Y015404D01*
X010987Y015404D01*
X010987Y015106D01*
X010766Y015106D01*
X010720Y015119D01*
X010679Y015142D01*
X010638Y015190D02*
X009691Y015190D01*
X009697Y015194D02*
X009744Y015240D01*
X009782Y015293D01*
X009812Y015352D01*
X009832Y015414D01*
X009842Y015479D01*
X009842Y015748D01*
X009426Y015748D01*
X009426Y015748D01*
X009426Y015095D01*
X009459Y015095D01*
X009524Y015105D01*
X009586Y015126D01*
X009644Y015155D01*
X009697Y015194D01*
X009810Y015348D02*
X010610Y015348D01*
X010610Y015404D02*
X010987Y015404D01*
X010928Y015345D01*
X010928Y014243D01*
X010850Y014397D02*
X011005Y014397D01*
X011005Y014556D02*
X010850Y014556D01*
X010850Y014714D02*
X011005Y014714D01*
X011005Y014873D02*
X010850Y014873D01*
X010987Y015190D02*
X010987Y015190D01*
X010987Y015348D02*
X010987Y015348D01*
X010987Y015404D02*
X010987Y015404D01*
X010987Y015404D01*
X010987Y015702D01*
X010766Y015702D01*
X010720Y015690D01*
X010679Y015667D01*
X010646Y015633D01*
X010622Y015592D01*
X010610Y015546D01*
X010610Y015404D01*
X010610Y015507D02*
X009842Y015507D01*
X009842Y015665D02*
X010678Y015665D01*
X010987Y015665D02*
X010987Y015665D01*
X010987Y015507D02*
X010987Y015507D01*
X011178Y015982D02*
X011386Y015982D01*
X011338Y016141D02*
X011226Y016141D01*
X011226Y016299D02*
X011338Y016299D01*
X011364Y016458D02*
X011291Y016458D01*
X011295Y015665D02*
X011398Y015665D01*
X011352Y015190D02*
X011336Y015190D01*
X011423Y014556D02*
X012515Y014556D01*
X012496Y014397D02*
X011423Y014397D01*
X011005Y013922D02*
X010850Y013922D01*
X010850Y013763D02*
X011005Y013763D01*
X011005Y013605D02*
X010850Y013605D01*
X010467Y013605D02*
X010316Y013605D01*
X010340Y013763D02*
X010433Y013763D01*
X010433Y013922D02*
X010340Y013922D01*
X010340Y014080D02*
X010433Y014080D01*
X010670Y012812D02*
X010036Y012812D01*
X010036Y012654D02*
X010604Y012654D01*
X009138Y011703D02*
X004898Y011703D01*
X004898Y011693D02*
X004898Y011868D01*
X004966Y011936D01*
X004966Y012338D01*
X004849Y012455D01*
X004447Y012455D01*
X004330Y012338D01*
X004330Y011936D01*
X004336Y011930D01*
X004251Y011895D01*
X004142Y011786D01*
X004083Y011643D01*
X004083Y011489D01*
X004142Y011346D01*
X004251Y011237D01*
X004394Y011178D01*
X004548Y011178D01*
X004691Y011237D01*
X004800Y011346D01*
X004859Y011489D01*
X004859Y011600D01*
X004860Y011601D01*
X004898Y011693D01*
X004859Y011544D02*
X009028Y011544D01*
X009004Y011386D02*
X004816Y011386D01*
X004668Y011227D02*
X006771Y011227D01*
X006612Y011069D02*
X003087Y011069D01*
X003087Y011227D02*
X004274Y011227D01*
X004126Y011386D02*
X003087Y011386D01*
X002960Y011544D02*
X004083Y011544D01*
X004108Y011703D02*
X001356Y011703D01*
X001356Y010752D02*
X006295Y010752D01*
X006454Y010910D02*
X002968Y010910D01*
X002911Y010593D02*
X005981Y010593D01*
X005876Y010435D02*
X003070Y010435D01*
X003087Y010276D02*
X005855Y010276D01*
X005901Y010118D02*
X003087Y010118D01*
X003017Y009959D02*
X006066Y009959D01*
X006420Y009959D02*
X007182Y009959D01*
X007065Y010118D02*
X006585Y010118D01*
X006631Y010276D02*
X007036Y010276D01*
X007073Y010435D02*
X006686Y010435D01*
X006844Y010593D02*
X007201Y010593D01*
X007003Y010752D02*
X007845Y010752D01*
X007646Y010593D02*
X009800Y010593D01*
X009709Y010752D02*
X009680Y010752D01*
X009047Y011227D02*
X008077Y011227D01*
X008160Y010435D02*
X010865Y010435D01*
X010865Y010276D02*
X008319Y010276D01*
X007929Y009959D02*
X007665Y009959D01*
X008087Y009801D02*
X002859Y009801D01*
X002862Y009642D02*
X010896Y009642D01*
X010885Y009484D02*
X009772Y009484D01*
X009999Y009325D02*
X010885Y009325D01*
X011022Y009167D02*
X010157Y009167D01*
X010337Y009361D02*
X010436Y009459D01*
X011262Y009459D01*
X011262Y009325D02*
X011262Y009325D01*
X011262Y009167D02*
X011262Y009167D01*
X011170Y009008D02*
X011375Y009008D01*
X011358Y008850D02*
X011187Y008850D01*
X011187Y008691D02*
X011358Y008691D01*
X011358Y008533D02*
X011187Y008533D01*
X011187Y008374D02*
X011358Y008374D01*
X011358Y008216D02*
X011187Y008216D01*
X011187Y008057D02*
X011358Y008057D01*
X011358Y007899D02*
X011187Y007899D01*
X011164Y007740D02*
X011380Y007740D01*
X011055Y007645D02*
X011023Y007613D01*
X011023Y007121D01*
X010419Y007121D01*
X010419Y007456D01*
X010302Y007573D01*
X010184Y007573D01*
X010184Y007752D01*
X010206Y007752D01*
X010313Y007645D01*
X011055Y007645D01*
X011023Y007582D02*
X010184Y007582D01*
X010184Y007740D02*
X010219Y007740D01*
X009904Y007904D02*
X010140Y008141D01*
X010298Y008298D01*
X010298Y008377D01*
X010180Y008259D01*
X010298Y008377D02*
X010495Y008377D01*
X010691Y008377D01*
X009904Y007904D02*
X009904Y006841D01*
X011361Y006841D01*
X011754Y007235D01*
X011546Y006631D02*
X013184Y006631D01*
X013184Y006789D02*
X012418Y006789D01*
X012466Y006472D02*
X013184Y006472D01*
X013249Y006314D02*
X012486Y006314D01*
X012486Y006155D02*
X013317Y006155D01*
X013475Y005997D02*
X012486Y005997D01*
X012486Y005838D02*
X013750Y005838D01*
X014318Y005838D02*
X015337Y005838D01*
X015422Y005753D02*
X015147Y006029D01*
X015147Y006418D01*
X015422Y006693D01*
X015811Y006693D01*
X016087Y006418D01*
X016087Y006029D01*
X015811Y005753D01*
X015422Y005753D01*
X015422Y005693D02*
X015147Y005418D01*
X015147Y005029D01*
X015422Y004753D01*
X015811Y004753D01*
X016087Y005029D01*
X016087Y005418D01*
X015811Y005693D01*
X015422Y005693D01*
X015408Y005680D02*
X012888Y005680D01*
X012859Y005695D02*
X012788Y005718D01*
X012714Y005729D01*
X012695Y005729D01*
X012695Y005273D01*
X012658Y005273D01*
X012658Y005236D01*
X012695Y005236D01*
X012695Y005273D01*
X013152Y005273D01*
X013152Y005292D01*
X013140Y005366D01*
X013117Y005437D01*
X013083Y005503D01*
X013039Y005564D01*
X012986Y005617D01*
X012925Y005661D01*
X012859Y005695D01*
X012695Y005680D02*
X012658Y005680D01*
X012658Y005521D02*
X012695Y005521D01*
X012695Y005363D02*
X012658Y005363D01*
X012658Y005236D02*
X012201Y005236D01*
X012201Y005217D01*
X012213Y005143D01*
X012236Y005072D01*
X012270Y005005D01*
X012314Y004945D01*
X012367Y004892D01*
X012427Y004848D01*
X012494Y004814D01*
X012565Y004791D01*
X012639Y004779D01*
X012658Y004779D01*
X012658Y005236D01*
X012658Y005204D02*
X012695Y005204D01*
X012695Y005236D02*
X012695Y004779D01*
X012714Y004779D01*
X012788Y004791D01*
X012859Y004814D01*
X012925Y004848D01*
X012986Y004892D01*
X013039Y004945D01*
X013083Y005005D01*
X013117Y005072D01*
X013140Y005143D01*
X013152Y005217D01*
X013152Y005236D01*
X012695Y005236D01*
X012695Y005046D02*
X012658Y005046D01*
X012658Y004887D02*
X012695Y004887D01*
X012373Y004887D02*
X012025Y004887D01*
X012142Y005046D02*
X012249Y005046D01*
X012203Y005204D02*
X012187Y005204D01*
X012183Y005363D02*
X012212Y005363D01*
X012283Y005521D02*
X012117Y005521D01*
X011754Y006074D02*
X011735Y006093D01*
X010377Y006093D01*
X009920Y005637D01*
X009920Y005254D01*
X009587Y004887D02*
X009214Y004887D01*
X009372Y004729D02*
X013224Y004729D01*
X013164Y004669D02*
X013035Y004356D01*
X013035Y004018D01*
X013164Y003706D01*
X013403Y003467D01*
X013716Y003337D01*
X014054Y003337D01*
X014366Y003467D01*
X014605Y003706D01*
X014735Y004018D01*
X014735Y004356D01*
X014605Y004669D01*
X014366Y004908D01*
X014054Y005037D01*
X013716Y005037D01*
X013403Y004908D01*
X013164Y004669D01*
X013123Y004570D02*
X009473Y004570D01*
X009539Y004412D02*
X013058Y004412D01*
X013035Y004253D02*
X009562Y004253D01*
X009562Y004095D02*
X013035Y004095D01*
X013069Y003936D02*
X009528Y003936D01*
X009462Y003778D02*
X013135Y003778D01*
X013251Y003619D02*
X009346Y003619D01*
X009178Y003461D02*
X013418Y003461D01*
X014352Y003461D02*
X015206Y003461D01*
X015147Y003302D02*
X008047Y003302D01*
X008116Y003461D02*
X008245Y003461D01*
X007888Y003144D02*
X015147Y003144D01*
X015207Y002985D02*
X007652Y002985D01*
X006841Y002985D02*
X004778Y002985D01*
X005014Y003144D02*
X005928Y003144D01*
X005769Y003302D02*
X005173Y003302D01*
X005242Y003461D02*
X005611Y003461D01*
X005556Y003619D02*
X005307Y003619D01*
X005323Y003778D02*
X005556Y003778D01*
X005556Y003936D02*
X005323Y003936D01*
X005298Y004095D02*
X005556Y004095D01*
X005626Y004253D02*
X005232Y004253D01*
X005150Y004412D02*
X005785Y004412D01*
X005943Y004570D02*
X004991Y004570D01*
X004722Y004729D02*
X006897Y004729D01*
X006411Y004570D02*
X006311Y004570D01*
X006311Y004412D02*
X006411Y004412D01*
X006387Y004253D02*
X006311Y004253D01*
X006311Y004095D02*
X006322Y004095D01*
X006311Y003619D02*
X006312Y003619D01*
X006311Y003461D02*
X006378Y003461D01*
X006411Y003302D02*
X006311Y003302D01*
X006311Y003144D02*
X006411Y003144D01*
X007596Y004729D02*
X008051Y004729D01*
X007950Y004570D02*
X007865Y004570D01*
X008209Y004887D02*
X002945Y004887D01*
X003087Y005046D02*
X005354Y005046D01*
X005180Y005204D02*
X003087Y005204D01*
X003087Y005363D02*
X005141Y005363D01*
X004963Y005521D02*
X002983Y005521D01*
X002825Y005680D02*
X004818Y005680D01*
X004772Y005838D02*
X002896Y005838D01*
X003055Y005997D02*
X004772Y005997D01*
X004772Y006155D02*
X003087Y006155D01*
X003087Y006314D02*
X004772Y006314D01*
X004814Y006472D02*
X004431Y006472D01*
X004667Y006631D02*
X004928Y006631D01*
X004846Y006789D02*
X004750Y006789D01*
X004768Y006948D02*
X004828Y006948D01*
X004828Y007106D02*
X004768Y007106D01*
X004768Y007265D02*
X004828Y007265D01*
X004828Y007423D02*
X004768Y007423D01*
X004758Y007582D02*
X004837Y007582D01*
X004908Y007740D02*
X004688Y007740D01*
X004530Y007899D02*
X005115Y007899D01*
X005479Y007899D02*
X005559Y007899D01*
X005849Y007610D01*
X005828Y007559D01*
X005828Y006832D01*
X005899Y006659D01*
X006032Y006527D01*
X006111Y006494D01*
X006096Y006472D01*
X005545Y006472D01*
X005528Y006512D02*
X005587Y006370D01*
X005587Y006146D01*
X005612Y006171D01*
X005740Y006224D01*
X005879Y006224D01*
X006007Y006171D01*
X006052Y006126D01*
X006052Y006327D01*
X006067Y006402D01*
X006096Y006472D01*
X006052Y006314D02*
X005587Y006314D01*
X005587Y006155D02*
X005596Y006155D01*
X005528Y006512D02*
X005564Y006527D01*
X005696Y006659D01*
X005768Y006832D01*
X005768Y007559D01*
X005696Y007732D01*
X005564Y007864D01*
X005479Y007899D01*
X005481Y007899D02*
X005560Y007899D01*
X005688Y007740D02*
X005718Y007740D01*
X005758Y007582D02*
X005837Y007582D01*
X005828Y007423D02*
X005768Y007423D01*
X005768Y007265D02*
X005828Y007265D01*
X005828Y007106D02*
X005768Y007106D01*
X005768Y006948D02*
X005828Y006948D01*
X005846Y006789D02*
X005750Y006789D01*
X005667Y006631D02*
X005928Y006631D01*
X006023Y006155D02*
X006052Y006155D01*
X006158Y005873D02*
X006439Y005873D01*
X006439Y005873D01*
X006158Y005873D01*
X006158Y005873D01*
X006439Y005873D02*
X006439Y005503D01*
X006440Y005503D01*
X006440Y005873D01*
X006827Y005873D01*
X006440Y005873D01*
X006440Y005873D01*
X006439Y005873D01*
X006439Y006476D01*
X006440Y006476D01*
X006440Y005873D01*
X006439Y005873D01*
X006439Y005838D02*
X006440Y005838D01*
X006439Y005680D02*
X006440Y005680D01*
X006439Y005521D02*
X006440Y005521D01*
X006468Y005363D02*
X009429Y005363D01*
X009425Y005204D02*
X006429Y005204D01*
X006256Y005046D02*
X009471Y005046D01*
X009495Y005521D02*
X006604Y005521D01*
X006777Y005680D02*
X009640Y005680D01*
X009640Y005674D02*
X009640Y005674D01*
X009725Y005838D02*
X006827Y005838D01*
X006827Y005997D02*
X009884Y005997D01*
X009461Y006155D02*
X009209Y006155D01*
X009227Y006166D02*
X009261Y006199D01*
X009284Y006240D01*
X009297Y006286D01*
X009297Y006764D01*
X008879Y006764D01*
X008879Y006130D01*
X009140Y006130D01*
X009186Y006142D01*
X009227Y006166D01*
X009297Y006314D02*
X009389Y006314D01*
X009389Y006472D02*
X009297Y006472D01*
X009297Y006631D02*
X009389Y006631D01*
X009389Y006789D02*
X008879Y006789D01*
X008879Y006764D02*
X008879Y006919D01*
X008724Y006919D01*
X008724Y006764D01*
X008307Y006764D01*
X008307Y006286D01*
X008319Y006240D01*
X008343Y006199D01*
X008376Y006166D01*
X008417Y006142D01*
X008463Y006130D01*
X008724Y006130D01*
X008724Y006764D01*
X008879Y006764D01*
X008879Y006631D02*
X008724Y006631D01*
X008724Y006789D02*
X006750Y006789D01*
X006768Y006948D02*
X008307Y006948D01*
X008307Y006919D02*
X008724Y006919D01*
X008724Y007553D01*
X008463Y007553D01*
X008417Y007541D01*
X008376Y007517D01*
X008343Y007483D01*
X008319Y007442D01*
X008307Y007397D01*
X008307Y006919D01*
X008307Y007106D02*
X006768Y007106D01*
X006768Y007265D02*
X008307Y007265D01*
X008314Y007423D02*
X006768Y007423D01*
X006758Y007582D02*
X009624Y007582D01*
X009624Y007740D02*
X006688Y007740D01*
X006481Y007899D02*
X009150Y007899D01*
X009039Y008057D02*
X006306Y008057D01*
X006148Y008216D02*
X009010Y008216D01*
X009010Y008374D02*
X005989Y008374D01*
X004830Y009167D02*
X003087Y009167D01*
X003087Y009325D02*
X008195Y009325D01*
X008215Y009345D02*
X008215Y009345D01*
X008422Y009484D02*
X003021Y009484D01*
X003066Y009008D02*
X003933Y009008D01*
X003823Y008850D02*
X002908Y008850D01*
X002813Y008691D02*
X003790Y008691D01*
X003790Y008533D02*
X002972Y008533D01*
X003087Y008374D02*
X003790Y008374D01*
X003790Y008216D02*
X003087Y008216D01*
X003087Y008057D02*
X003818Y008057D01*
X003922Y007899D02*
X002957Y007899D01*
X002923Y007582D02*
X003837Y007582D01*
X003828Y007423D02*
X003081Y007423D01*
X003087Y007265D02*
X003828Y007265D01*
X003828Y007106D02*
X003087Y007106D01*
X003006Y006948D02*
X003828Y006948D01*
X003846Y006789D02*
X002847Y006789D01*
X002874Y006631D02*
X003928Y006631D01*
X004165Y006472D02*
X003032Y006472D01*
X003908Y007740D02*
X001356Y007740D01*
X001356Y006789D02*
X001386Y006789D01*
X001356Y006631D02*
X001359Y006631D01*
X001356Y005680D02*
X001408Y005680D01*
X001356Y004729D02*
X004023Y004729D01*
X003754Y004570D02*
X002934Y004570D01*
X003087Y004412D02*
X003595Y004412D01*
X003513Y004253D02*
X003087Y004253D01*
X003087Y004095D02*
X003448Y004095D01*
X003423Y003936D02*
X002994Y003936D01*
X002836Y003778D02*
X003423Y003778D01*
X003438Y003619D02*
X002885Y003619D01*
X003044Y003461D02*
X003504Y003461D01*
X003572Y003302D02*
X003087Y003302D01*
X003087Y003144D02*
X003731Y003144D01*
X003967Y002985D02*
X003043Y002985D01*
X005626Y005046D02*
X005984Y005046D01*
X005810Y005204D02*
X005799Y005204D01*
X005805Y005515D02*
X005799Y005528D01*
X005810Y005528D01*
X005805Y005515D01*
X005802Y005521D02*
X005807Y005521D01*
X006439Y005997D02*
X006440Y005997D01*
X006439Y006155D02*
X006440Y006155D01*
X006439Y006314D02*
X006440Y006314D01*
X006439Y006472D02*
X006440Y006472D01*
X006667Y006631D02*
X008307Y006631D01*
X008307Y006472D02*
X006783Y006472D01*
X006827Y006314D02*
X008307Y006314D01*
X008395Y006155D02*
X006827Y006155D01*
X008724Y006155D02*
X008879Y006155D01*
X008879Y006314D02*
X008724Y006314D01*
X008724Y006472D02*
X008879Y006472D01*
X008879Y006919D02*
X009297Y006919D01*
X009297Y007397D01*
X009284Y007442D01*
X009261Y007483D01*
X009227Y007517D01*
X009186Y007541D01*
X009140Y007553D01*
X008879Y007553D01*
X008879Y006919D01*
X008879Y006948D02*
X008724Y006948D01*
X008724Y007106D02*
X008879Y007106D01*
X008879Y007265D02*
X008724Y007265D01*
X008724Y007423D02*
X008879Y007423D01*
X009290Y007423D02*
X009389Y007423D01*
X009389Y007265D02*
X009297Y007265D01*
X009297Y007106D02*
X009389Y007106D01*
X009389Y006948D02*
X009297Y006948D01*
X009426Y007899D02*
X009426Y007899D01*
X009426Y008057D02*
X009426Y008057D01*
X009426Y008216D02*
X009426Y008216D01*
X009426Y008374D02*
X009426Y008374D01*
X009010Y008533D02*
X008244Y008533D01*
X008443Y008668D02*
X008443Y008668D01*
X008466Y008691D02*
X009010Y008691D01*
X009842Y008533D02*
X009886Y008533D01*
X010419Y007423D02*
X011023Y007423D01*
X011023Y007265D02*
X010419Y007265D01*
X010419Y006561D02*
X010419Y006373D01*
X011023Y006373D01*
X011023Y006452D01*
X011133Y006561D01*
X010419Y006561D01*
X010419Y006472D02*
X011043Y006472D01*
X011023Y005813D02*
X011023Y005741D01*
X011003Y005749D01*
X010806Y005749D01*
X010624Y005674D01*
X010485Y005535D01*
X010412Y005360D01*
X010340Y005535D01*
X010277Y005598D01*
X010492Y005813D01*
X011023Y005813D01*
X011281Y005578D02*
X011316Y005578D01*
X011298Y005561D01*
X011281Y005578D01*
X011238Y004887D02*
X011359Y004887D01*
X010571Y004887D02*
X010254Y004887D01*
X010370Y005046D02*
X010455Y005046D01*
X010413Y005363D02*
X010411Y005363D01*
X010346Y005521D02*
X010479Y005521D01*
X010359Y005680D02*
X010637Y005680D01*
X012486Y007555D02*
X012486Y007569D01*
X012546Y007569D01*
X012547Y007569D01*
X012560Y007555D01*
X012486Y007555D01*
X012380Y007849D02*
X011853Y008377D01*
X012348Y008374D02*
X012781Y008374D01*
X012861Y008341D02*
X012686Y008269D01*
X012547Y008130D01*
X012546Y008129D01*
X012496Y008129D01*
X012348Y008278D01*
X012348Y008926D01*
X012471Y008802D01*
X012471Y008735D01*
X012547Y008553D01*
X012686Y008414D01*
X012861Y008341D01*
X013073Y008341D02*
X013206Y008286D01*
X013206Y008397D01*
X013073Y008341D01*
X013152Y008374D02*
X013206Y008374D01*
X012967Y007849D02*
X012380Y007849D01*
X012410Y008216D02*
X012633Y008216D01*
X012567Y008533D02*
X012348Y008533D01*
X012348Y008691D02*
X012489Y008691D01*
X012424Y008850D02*
X012348Y008850D01*
X012480Y009501D02*
X012478Y009503D01*
X012408Y009573D01*
X012316Y009611D01*
X012250Y009611D01*
X012250Y009660D01*
X012248Y009662D01*
X012471Y009662D01*
X012471Y009522D01*
X012480Y009501D01*
X012471Y009642D02*
X012250Y009642D01*
X011705Y009167D02*
X011503Y009167D01*
X011502Y010162D02*
X011502Y010331D01*
X011611Y010440D01*
X011614Y010446D01*
X011614Y010162D01*
X011502Y010162D01*
X011502Y010276D02*
X011614Y010276D01*
X011502Y010331D02*
X011502Y010331D01*
X011605Y010435D02*
X011614Y010435D01*
X011642Y010516D02*
X011670Y010583D01*
X011670Y010596D01*
X012044Y010970D01*
X012660Y010970D01*
X012657Y010968D01*
X012604Y010915D01*
X012560Y010854D01*
X012526Y010788D01*
X012503Y010716D01*
X012491Y010643D01*
X012491Y010624D01*
X012948Y010624D01*
X012948Y010587D01*
X012491Y010587D01*
X012491Y010568D01*
X012503Y010494D01*
X012526Y010423D01*
X012534Y010407D01*
X012423Y010518D01*
X012331Y010556D01*
X012232Y010556D01*
X012181Y010556D01*
X012133Y010604D01*
X011731Y010604D01*
X011642Y010516D01*
X011670Y010593D02*
X011719Y010593D01*
X011826Y010752D02*
X012514Y010752D01*
X012601Y010910D02*
X011984Y010910D01*
X012144Y010593D02*
X012948Y010593D01*
X012948Y010587D02*
X012985Y010587D01*
X012985Y010130D01*
X013004Y010130D01*
X013078Y010142D01*
X013149Y010165D01*
X013206Y010194D01*
X013206Y010058D01*
X013065Y010116D01*
X012868Y010116D01*
X012838Y010104D01*
X012817Y010124D01*
X012768Y010173D01*
X012784Y010165D01*
X012855Y010142D01*
X012929Y010130D01*
X012948Y010130D01*
X012948Y010587D01*
X012948Y010435D02*
X012985Y010435D01*
X012985Y010276D02*
X012948Y010276D01*
X012817Y010124D02*
X012817Y010124D01*
X012823Y010118D02*
X013206Y010118D01*
X013846Y010118D02*
X015167Y010118D01*
X015167Y010037D02*
X015430Y009773D01*
X015607Y009773D01*
X015607Y010213D01*
X015627Y010213D01*
X015627Y010233D01*
X016067Y010233D01*
X016067Y010410D01*
X015803Y010673D01*
X015627Y010673D01*
X015627Y010233D01*
X015607Y010233D01*
X015607Y010673D01*
X015430Y010673D01*
X015167Y010410D01*
X015167Y010233D01*
X015607Y010233D01*
X015607Y010213D01*
X015167Y010213D01*
X015167Y010037D01*
X015244Y009959D02*
X013846Y009959D01*
X013846Y009801D02*
X015403Y009801D01*
X015422Y009693D02*
X015147Y009418D01*
X015147Y009029D01*
X015422Y008753D01*
X015811Y008753D01*
X016087Y009029D01*
X016087Y009418D01*
X015811Y009693D01*
X015422Y009693D01*
X015371Y009642D02*
X013846Y009642D01*
X013846Y009484D02*
X015212Y009484D01*
X015147Y009325D02*
X013846Y009325D01*
X013846Y009167D02*
X015147Y009167D01*
X015167Y009008D02*
X013846Y009008D01*
X013846Y008850D02*
X015326Y008850D01*
X015422Y008693D02*
X015147Y008418D01*
X015147Y008029D01*
X015422Y007753D01*
X015811Y007753D01*
X016087Y008029D01*
X016087Y008418D01*
X015811Y008693D01*
X015422Y008693D01*
X015420Y008691D02*
X013846Y008691D01*
X013846Y008533D02*
X015261Y008533D01*
X015147Y008374D02*
X013846Y008374D01*
X013846Y008216D02*
X015147Y008216D01*
X015147Y008057D02*
X013846Y008057D01*
X013846Y007899D02*
X015277Y007899D01*
X015422Y007693D02*
X015147Y007418D01*
X015147Y007029D01*
X015422Y006753D01*
X015811Y006753D01*
X016087Y007029D01*
X016087Y007418D01*
X015811Y007693D01*
X015422Y007693D01*
X015310Y007582D02*
X013846Y007582D01*
X013846Y007740D02*
X016878Y007740D01*
X016310Y007582D02*
X015923Y007582D01*
X016081Y007423D02*
X016152Y007423D01*
X016147Y007265D02*
X016087Y007265D01*
X016087Y007106D02*
X016147Y007106D01*
X016228Y006948D02*
X016006Y006948D01*
X015847Y006789D02*
X016386Y006789D01*
X016359Y006631D02*
X015874Y006631D01*
X016032Y006472D02*
X016201Y006472D01*
X016147Y006314D02*
X016087Y006314D01*
X016087Y006155D02*
X016147Y006155D01*
X016179Y005997D02*
X016055Y005997D01*
X015896Y005838D02*
X016337Y005838D01*
X016408Y005680D02*
X015825Y005680D01*
X015983Y005521D02*
X016250Y005521D01*
X016147Y005363D02*
X016087Y005363D01*
X016087Y005204D02*
X016147Y005204D01*
X016147Y005046D02*
X016087Y005046D01*
X015945Y004887D02*
X016288Y004887D01*
X016299Y004570D02*
X015934Y004570D01*
X015811Y004693D02*
X015422Y004693D01*
X015147Y004418D01*
X015147Y004029D01*
X015422Y003753D01*
X015811Y003753D01*
X016087Y004029D01*
X016087Y004418D01*
X015811Y004693D01*
X016087Y004412D02*
X016147Y004412D01*
X016147Y004253D02*
X016087Y004253D01*
X016087Y004095D02*
X016147Y004095D01*
X016239Y003936D02*
X015994Y003936D01*
X015836Y003778D02*
X016398Y003778D01*
X016348Y003619D02*
X015885Y003619D01*
X016027Y003461D02*
X016189Y003461D01*
X016147Y003302D02*
X016087Y003302D01*
X016087Y003144D02*
X016147Y003144D01*
X016190Y002985D02*
X016027Y002985D01*
X015348Y003619D02*
X014519Y003619D01*
X014635Y003778D02*
X015398Y003778D01*
X015239Y003936D02*
X014701Y003936D01*
X014735Y004095D02*
X015147Y004095D01*
X015147Y004253D02*
X014735Y004253D01*
X014712Y004412D02*
X015147Y004412D01*
X015299Y004570D02*
X014646Y004570D01*
X014546Y004729D02*
X016878Y004729D01*
X016836Y003778D02*
X016878Y003778D01*
X016825Y005680D02*
X016878Y005680D01*
X016874Y006631D02*
X016878Y006631D01*
X016878Y006789D02*
X016847Y006789D01*
X016277Y007899D02*
X015957Y007899D01*
X016087Y008057D02*
X016147Y008057D01*
X016147Y008216D02*
X016087Y008216D01*
X016087Y008374D02*
X016147Y008374D01*
X016261Y008533D02*
X015972Y008533D01*
X015813Y008691D02*
X016420Y008691D01*
X016326Y008850D02*
X015908Y008850D01*
X016066Y009008D02*
X016167Y009008D01*
X016147Y009167D02*
X016087Y009167D01*
X016087Y009325D02*
X016147Y009325D01*
X016212Y009484D02*
X016021Y009484D01*
X015862Y009642D02*
X016371Y009642D01*
X016375Y009801D02*
X015830Y009801D01*
X015803Y009773D02*
X016067Y010037D01*
X016067Y010213D01*
X015627Y010213D01*
X015627Y009773D01*
X015803Y009773D01*
X015627Y009801D02*
X015607Y009801D01*
X015607Y009959D02*
X015627Y009959D01*
X015627Y010118D02*
X015607Y010118D01*
X015607Y010276D02*
X015627Y010276D01*
X015627Y010435D02*
X015607Y010435D01*
X015607Y010593D02*
X015627Y010593D01*
X015883Y010593D02*
X016322Y010593D01*
X016163Y010435D02*
X016042Y010435D01*
X016067Y010276D02*
X016147Y010276D01*
X016147Y010118D02*
X016067Y010118D01*
X015989Y009959D02*
X016216Y009959D01*
X016859Y009801D02*
X016878Y009801D01*
X016862Y009642D02*
X016878Y009642D01*
X016878Y008691D02*
X016813Y008691D01*
X015228Y006948D02*
X014826Y006948D01*
X014884Y006789D02*
X015386Y006789D01*
X015359Y006631D02*
X014884Y006631D01*
X014884Y006472D02*
X015201Y006472D01*
X015147Y006314D02*
X014818Y006314D01*
X014750Y006155D02*
X015147Y006155D01*
X015179Y005997D02*
X014592Y005997D01*
X015147Y005363D02*
X013140Y005363D01*
X013150Y005204D02*
X015147Y005204D01*
X015147Y005046D02*
X013103Y005046D01*
X012980Y004887D02*
X013383Y004887D01*
X013070Y005521D02*
X015250Y005521D01*
X015288Y004887D02*
X014387Y004887D01*
X014761Y007106D02*
X015147Y007106D01*
X015147Y007265D02*
X014611Y007265D01*
X014365Y007423D02*
X015152Y007423D01*
X015167Y010276D02*
X013846Y010276D01*
X013846Y010435D02*
X015192Y010435D01*
X015350Y010593D02*
X013846Y010593D01*
X013846Y010752D02*
X016878Y010752D01*
X016265Y010910D02*
X015968Y010910D01*
X016087Y011069D02*
X016147Y011069D01*
X016147Y011227D02*
X016087Y011227D01*
X016087Y011386D02*
X016147Y011386D01*
X016273Y011544D02*
X015960Y011544D01*
X015265Y010910D02*
X013846Y010910D01*
X014456Y011069D02*
X015147Y011069D01*
X015147Y011227D02*
X014649Y011227D01*
X014776Y011386D02*
X015147Y011386D01*
X016851Y012654D02*
X016878Y012654D01*
X016870Y012812D02*
X016878Y012812D01*
X016878Y013763D02*
X016821Y013763D01*
X016878Y014714D02*
X013390Y014714D01*
X011294Y017884D02*
X010873Y017884D01*
X010295Y018043D02*
X010280Y018043D01*
X010295Y018201D02*
X010121Y018201D01*
X010007Y018360D02*
X010295Y018360D01*
X010385Y018518D02*
X009974Y018518D01*
X010084Y018677D02*
X010275Y018677D01*
X010275Y018835D02*
X010204Y018835D01*
X011511Y020103D02*
X011610Y020103D01*
X009426Y015665D02*
X009426Y015665D01*
X009426Y015507D02*
X009426Y015507D01*
X009426Y015348D02*
X009426Y015348D01*
X009426Y015190D02*
X009426Y015190D01*
X006804Y012654D02*
X005763Y012654D01*
X005753Y012495D02*
X006804Y012495D01*
X006804Y012337D02*
X005773Y012337D01*
X005773Y012178D02*
X006804Y012178D01*
X006804Y012020D02*
X005773Y012020D01*
X005680Y011861D02*
X006824Y011861D01*
X005825Y012812D02*
X005793Y012812D01*
X005894Y013442D02*
X005874Y013492D01*
X006043Y013492D01*
X006041Y013489D01*
X006008Y013489D01*
X005894Y013442D01*
X005893Y013446D02*
X005904Y013446D01*
X005175Y013446D02*
X005004Y013446D01*
X005017Y013288D02*
X005146Y013288D01*
X005184Y013129D02*
X004962Y013129D01*
X004966Y012971D02*
X005157Y012971D01*
X005157Y012812D02*
X004966Y012812D01*
X004936Y012654D02*
X005187Y012654D01*
X005197Y012495D02*
X003009Y012495D01*
X003087Y012337D02*
X004330Y012337D01*
X004330Y012178D02*
X003087Y012178D01*
X003078Y012020D02*
X004330Y012020D01*
X004218Y011861D02*
X002919Y011861D01*
X002851Y012654D02*
X004360Y012654D01*
X004330Y012812D02*
X002870Y012812D01*
X003029Y012971D02*
X004330Y012971D01*
X004295Y013129D02*
X003087Y013129D01*
X003087Y013288D02*
X004240Y013288D01*
X004253Y013446D02*
X003058Y013446D01*
X002900Y013605D02*
X004293Y013605D01*
X004096Y013763D02*
X002821Y013763D01*
X002980Y013922D02*
X004044Y013922D01*
X004058Y014080D02*
X003087Y014080D01*
X003087Y014239D02*
X004154Y014239D01*
X004709Y014239D02*
X004724Y014239D01*
X004724Y014397D02*
X003087Y014397D01*
X002882Y015824D02*
X003790Y015824D01*
X003790Y015982D02*
X003040Y015982D01*
X003087Y016141D02*
X003819Y016141D01*
X003924Y016299D02*
X003087Y016299D01*
X003087Y017250D02*
X004024Y017250D01*
X003738Y017409D02*
X003087Y017409D01*
X002865Y018835D02*
X003530Y018835D01*
X003405Y018994D02*
X003023Y018994D01*
X003067Y019152D02*
X003405Y019152D01*
X003899Y019628D02*
X004059Y019628D01*
X004059Y019786D02*
X003899Y019786D01*
X003899Y019945D02*
X004059Y019945D01*
X004059Y020103D02*
X003899Y020103D01*
X004477Y020420D02*
X003084Y020420D01*
X002926Y020579D02*
X004484Y020579D01*
X005206Y020737D02*
X006295Y020737D01*
X006216Y020579D02*
X005286Y020579D01*
X005292Y020420D02*
X006210Y020420D01*
X006268Y020262D02*
X005234Y020262D01*
X001417Y019786D02*
X001356Y019786D01*
X001356Y019628D02*
X001356Y019628D01*
X001356Y018677D02*
X001405Y018677D01*
X001356Y021974D02*
X001356Y022043D01*
X001425Y022043D01*
X001356Y021974D01*
X001356Y022005D02*
X001387Y022005D01*
X001356Y013763D02*
X001412Y013763D01*
X001356Y012812D02*
X001363Y012812D01*
X001356Y012654D02*
X001382Y012654D01*
X001356Y009801D02*
X001375Y009801D01*
X001371Y009642D02*
X001356Y009642D01*
X001356Y008691D02*
X001420Y008691D01*
X004519Y009008D02*
X004707Y009008D01*
X004673Y008850D02*
X004630Y008850D01*
X004662Y008691D02*
X004707Y008691D01*
X004898Y011861D02*
X005269Y011861D01*
X005177Y012020D02*
X004966Y012020D01*
X004966Y012178D02*
X005177Y012178D01*
X005177Y012337D02*
X004966Y012337D01*
X005475Y012178D02*
X005475Y012178D01*
X005475Y012020D02*
X005475Y012020D01*
X005475Y011861D02*
X005475Y011861D01*
X011184Y010562D02*
X011184Y010286D01*
X011184Y010562D02*
X011282Y010660D01*
X012506Y010435D02*
X012522Y010435D01*
X016839Y015665D02*
X016878Y015665D01*
X016833Y016775D02*
X016878Y016775D01*
D11*
X002871Y021625D02*
X002871Y021812D01*
X002824Y021859D01*
X002731Y021859D01*
X002684Y021812D01*
X002684Y021625D01*
X002731Y021578D01*
X002824Y021578D01*
X002871Y021625D01*
X002576Y021625D02*
X002529Y021578D01*
X002436Y021578D01*
X002389Y021625D01*
X002436Y021719D02*
X002529Y021719D01*
X002576Y021672D01*
X002576Y021625D01*
X002436Y021719D02*
X002389Y021765D01*
X002389Y021812D01*
X002436Y021859D01*
X002529Y021859D01*
X002576Y021812D01*
X002281Y021859D02*
X002095Y021859D01*
X002095Y021578D01*
X002281Y021578D01*
X002188Y021719D02*
X002095Y021719D01*
X001987Y021625D02*
X001987Y021859D01*
X001800Y021859D02*
X001800Y021625D01*
X001847Y021578D01*
X001940Y021578D01*
X001987Y021625D01*
X001996Y021379D02*
X002137Y021379D01*
X002183Y021332D01*
X002183Y021239D01*
X002137Y021192D01*
X001996Y021192D01*
X001996Y021098D02*
X001996Y021379D01*
X001893Y021379D02*
X001800Y021379D01*
X001847Y021379D02*
X001847Y021098D01*
X001893Y021098D02*
X001800Y021098D01*
X001692Y021145D02*
X001692Y021332D01*
X001645Y021379D01*
X001505Y021379D01*
X001505Y021098D01*
X001645Y021098D01*
X001692Y021145D01*
X001692Y021578D02*
X001599Y021672D01*
X001692Y021625D02*
X001645Y021578D01*
X001552Y021578D01*
X001505Y021625D01*
X001505Y021812D01*
X001552Y021859D01*
X001645Y021859D01*
X001692Y021812D01*
X001692Y021625D01*
D12*
X001617Y003223D03*
X015617Y003223D03*
D13*
X015617Y004223D03*
X015617Y005223D03*
X015617Y006223D03*
X015617Y007223D03*
X015617Y008223D03*
X015617Y009223D03*
X015617Y010223D03*
X015617Y011223D03*
X015617Y012223D03*
X015617Y013223D03*
X015617Y014223D03*
X015617Y015223D03*
X015617Y016223D03*
X015617Y017223D03*
X015617Y018223D03*
X015617Y019223D03*
X015617Y020223D03*
X016617Y020223D03*
X016617Y019223D03*
X016617Y018223D03*
X016617Y017223D03*
X016617Y016223D03*
X016617Y015223D03*
X016617Y014223D03*
X016617Y013223D03*
X016617Y012223D03*
X016617Y011223D03*
X016617Y010223D03*
X016617Y009223D03*
X016617Y008223D03*
X016617Y007223D03*
X016617Y006223D03*
X016617Y005223D03*
X016617Y004223D03*
X016617Y003223D03*
X002617Y003223D03*
X002617Y004223D03*
X002617Y005223D03*
X002617Y006223D03*
X002617Y007223D03*
X002617Y008223D03*
X002617Y009223D03*
X002617Y010223D03*
X002617Y011223D03*
X002617Y012223D03*
X002617Y013223D03*
X002617Y014223D03*
X002617Y015223D03*
X002617Y016223D03*
X002617Y017223D03*
X002617Y018223D03*
X002617Y019223D03*
X002617Y020223D03*
X001617Y020223D03*
X001617Y019223D03*
X001617Y018223D03*
X001617Y017223D03*
X001617Y016223D03*
X001617Y015223D03*
X001617Y014223D03*
X001617Y013223D03*
X001617Y012223D03*
X001617Y011223D03*
X001617Y010223D03*
X001617Y009223D03*
X001617Y008223D03*
X001617Y007223D03*
X001617Y006223D03*
X001617Y005223D03*
X001617Y004223D03*
D14*
X015926Y020870D03*
X015930Y021382D03*
X015926Y021682D03*
X015926Y021686D03*
D15*
X015926Y020874D03*
D16*
X015926Y020878D03*
D17*
X015926Y020882D03*
X015902Y021366D03*
D18*
X015926Y021746D03*
X015926Y021750D03*
X015926Y022006D03*
X015926Y020886D03*
D19*
X015926Y020890D03*
D20*
X015926Y020894D03*
X015926Y021766D03*
X015926Y022002D03*
D21*
X015926Y020898D03*
D22*
X015926Y020902D03*
D23*
X015926Y020906D03*
D24*
X015926Y020910D03*
X015926Y021994D03*
D25*
X015926Y021802D03*
X015926Y020914D03*
D26*
X015926Y020918D03*
D27*
X015926Y020922D03*
X015926Y021814D03*
D28*
X015926Y021986D03*
X015926Y020926D03*
D29*
X015926Y020930D03*
X015926Y021822D03*
X015926Y021826D03*
D30*
X015926Y021830D03*
X015926Y020934D03*
D31*
X015926Y020938D03*
D32*
X015926Y020942D03*
X015926Y021834D03*
X015926Y021982D03*
D33*
X015926Y021842D03*
X015926Y020946D03*
D34*
X015926Y020950D03*
X015926Y021846D03*
D35*
X015926Y021850D03*
X015926Y020954D03*
D36*
X015926Y020958D03*
D37*
X015926Y020962D03*
X015926Y021854D03*
X015926Y021974D03*
D38*
X015926Y020970D03*
X015926Y020966D03*
D39*
X015926Y020974D03*
X015926Y021970D03*
D40*
X015926Y020978D03*
D41*
X015926Y020982D03*
D42*
X015926Y020986D03*
X015926Y020990D03*
D43*
X015926Y020994D03*
X015926Y021962D03*
D44*
X015926Y020998D03*
D45*
X015926Y021002D03*
X015926Y021006D03*
D46*
X015926Y021010D03*
X015926Y021014D03*
D47*
X015926Y021018D03*
D48*
X015926Y021022D03*
X015926Y021954D03*
D49*
X015926Y021030D03*
X015926Y021026D03*
D50*
X015926Y021034D03*
X015926Y021042D03*
X015926Y021950D03*
D51*
X015926Y021038D03*
D52*
X015926Y021046D03*
X015926Y021050D03*
X015926Y021914D03*
X015926Y021946D03*
D53*
X015926Y021942D03*
X015926Y021922D03*
X015926Y021054D03*
D54*
X015926Y021058D03*
X015926Y021918D03*
D55*
X015926Y021926D03*
X015930Y021294D03*
X015926Y021070D03*
X015926Y021066D03*
X015926Y021062D03*
D56*
X015926Y021074D03*
X015926Y021290D03*
X015926Y021930D03*
X015926Y021934D03*
D57*
X015926Y021078D03*
D58*
X015926Y021082D03*
X015926Y021086D03*
X015926Y021286D03*
D59*
X015926Y021094D03*
X015926Y021090D03*
D60*
X015928Y021098D03*
D61*
X015928Y021102D03*
X015928Y021106D03*
D62*
X015928Y021110D03*
X015928Y021114D03*
D63*
X015926Y021118D03*
D64*
X015926Y021122D03*
D65*
X015924Y021126D03*
D66*
X015926Y021130D03*
X015926Y021222D03*
D67*
X015926Y021134D03*
D68*
X015926Y021138D03*
D69*
X015926Y021142D03*
X015926Y021210D03*
D70*
X015926Y021206D03*
X015926Y021146D03*
D71*
X015926Y021150D03*
X015926Y021202D03*
D72*
X015924Y021154D03*
D73*
X015926Y021158D03*
D74*
X015926Y021162D03*
X015926Y021190D03*
X015926Y021194D03*
D75*
X015924Y021186D03*
X015924Y021170D03*
X015924Y021166D03*
D76*
X015926Y021174D03*
X015926Y021182D03*
D77*
X015926Y021178D03*
D78*
X015924Y021198D03*
D79*
X015926Y021214D03*
D80*
X015926Y021218D03*
D81*
X015916Y021254D03*
X015920Y021266D03*
D82*
X015918Y021258D03*
D83*
X015918Y021262D03*
D84*
X015920Y021270D03*
X015920Y021274D03*
D85*
X015922Y021278D03*
D86*
X015924Y021282D03*
D87*
X015932Y021298D03*
D88*
X015932Y021302D03*
X015932Y021306D03*
D89*
X016032Y021310D03*
D90*
X015700Y021326D03*
X015696Y021314D03*
X015696Y021310D03*
D91*
X016034Y021314D03*
D92*
X016034Y021318D03*
D93*
X015698Y021318D03*
D94*
X016034Y021322D03*
D95*
X015698Y021322D03*
D96*
X016038Y021326D03*
D97*
X016040Y021330D03*
D98*
X015818Y021706D03*
X015814Y021710D03*
X015738Y021334D03*
X015734Y021330D03*
D99*
X015628Y021330D03*
D100*
X015926Y021742D03*
X016042Y021334D03*
D101*
X015926Y021482D03*
X015610Y021334D03*
D102*
X016044Y021338D03*
D103*
X015744Y021338D03*
X016088Y021778D03*
D104*
X016038Y021866D03*
X016054Y021342D03*
D105*
X015926Y021410D03*
X015926Y021566D03*
X015806Y021726D03*
X015746Y021342D03*
D106*
X016060Y021346D03*
D107*
X015804Y021730D03*
X015752Y021346D03*
D108*
X016058Y021350D03*
X015994Y021786D03*
D109*
X015758Y021350D03*
D110*
X016056Y021354D03*
D111*
X015928Y021406D03*
X015764Y021354D03*
D112*
X016050Y021358D03*
X015926Y022018D03*
D113*
X015808Y021738D03*
X015772Y021358D03*
D114*
X016044Y021362D03*
D115*
X015790Y021362D03*
D116*
X015926Y021526D03*
X015926Y021530D03*
X016154Y021366D03*
D117*
X016152Y021370D03*
X016052Y021394D03*
D118*
X015904Y021370D03*
D119*
X015908Y021374D03*
D120*
X015912Y021378D03*
X016032Y021858D03*
D121*
X015760Y021382D03*
D122*
X015932Y021386D03*
D123*
X016052Y021390D03*
D124*
X015898Y021390D03*
X015926Y021634D03*
X016126Y021902D03*
X015926Y022026D03*
D125*
X016114Y021882D03*
X016118Y021886D03*
X015898Y021394D03*
D126*
X016056Y021398D03*
D127*
X015928Y021398D03*
D128*
X015814Y021398D03*
D129*
X016056Y021402D03*
D130*
X015928Y021402D03*
D131*
X015926Y021506D03*
X015810Y021402D03*
D132*
X016058Y021406D03*
D133*
X015928Y021430D03*
X015808Y021406D03*
D134*
X015802Y021414D03*
X016058Y021410D03*
D135*
X015804Y021410D03*
D136*
X016060Y021414D03*
D137*
X015928Y021414D03*
X016084Y021770D03*
X015752Y021794D03*
D138*
X015928Y021418D03*
D139*
X015798Y021418D03*
D140*
X015928Y021422D03*
D141*
X015928Y021426D03*
D142*
X015926Y021478D03*
D143*
X015926Y021486D03*
D144*
X015926Y021490D03*
D145*
X015926Y021494D03*
D146*
X015926Y021498D03*
D147*
X015926Y021502D03*
D148*
X015926Y021510D03*
X015926Y021514D03*
D149*
X015926Y021518D03*
D150*
X015926Y021522D03*
D151*
X015926Y021534D03*
D152*
X015926Y021538D03*
D153*
X015926Y021542D03*
X015926Y021546D03*
D154*
X015926Y021550D03*
D155*
X015926Y021554D03*
X015750Y021790D03*
D156*
X015928Y021558D03*
D157*
X015926Y021562D03*
X015810Y021714D03*
X015806Y021722D03*
X016086Y021774D03*
D158*
X015926Y021570D03*
X015806Y021734D03*
D159*
X015926Y021574D03*
D160*
X015926Y021578D03*
D161*
X015926Y021582D03*
D162*
X015926Y021586D03*
X015926Y021590D03*
D163*
X015926Y021594D03*
D164*
X015926Y021598D03*
D165*
X015926Y021602D03*
X015926Y021606D03*
D166*
X015926Y021610D03*
X015998Y021706D03*
X016002Y021710D03*
X016006Y021714D03*
D167*
X016010Y021726D03*
X015926Y021614D03*
D168*
X015926Y021618D03*
D169*
X015926Y021622D03*
D170*
X015926Y021626D03*
D171*
X015926Y021630D03*
X016122Y021894D03*
D172*
X015926Y021638D03*
D173*
X015926Y021642D03*
D174*
X015926Y021646D03*
D175*
X015926Y021650D03*
X015926Y021654D03*
D176*
X015926Y021658D03*
D177*
X015926Y021662D03*
X015926Y022022D03*
D178*
X015926Y021670D03*
X015926Y021666D03*
D179*
X015926Y021674D03*
D180*
X015926Y021678D03*
D181*
X015926Y021690D03*
D182*
X015926Y021694D03*
D183*
X015926Y021698D03*
D184*
X015926Y021702D03*
D185*
X016006Y021718D03*
D186*
X015810Y021718D03*
D187*
X015740Y021862D03*
X016008Y021722D03*
D188*
X016010Y021730D03*
X016010Y021734D03*
D189*
X016008Y021738D03*
D190*
X015926Y021754D03*
D191*
X015926Y021758D03*
D192*
X015924Y021762D03*
D193*
X015858Y021770D03*
D194*
X015916Y021774D03*
X015920Y021782D03*
D195*
X015758Y021774D03*
X015754Y021782D03*
D196*
X015918Y021778D03*
D197*
X015754Y021778D03*
D198*
X016088Y021782D03*
D199*
X015752Y021786D03*
D200*
X015996Y021790D03*
D201*
X015994Y021794D03*
D202*
X015926Y021798D03*
D203*
X015926Y021806D03*
X015926Y021810D03*
X015926Y021990D03*
D204*
X015926Y021818D03*
D205*
X015926Y021838D03*
D206*
X015746Y021858D03*
D207*
X015796Y021886D03*
X015796Y021890D03*
X016036Y021862D03*
D208*
X015738Y021866D03*
D209*
X016040Y021870D03*
D210*
X015736Y021870D03*
D211*
X016038Y021874D03*
D212*
X015740Y021874D03*
D213*
X015926Y021878D03*
D214*
X015800Y021882D03*
X015792Y021894D03*
D215*
X016120Y021890D03*
D216*
X016124Y021898D03*
D217*
X015790Y021898D03*
D218*
X015790Y021902D03*
X015790Y021906D03*
D219*
X016124Y021906D03*
D220*
X016124Y021910D03*
D221*
X015790Y021910D03*
D222*
X015926Y021938D03*
D223*
X015926Y021958D03*
D224*
X015924Y021966D03*
D225*
X015926Y021978D03*
D226*
X015926Y021998D03*
D227*
X015926Y022010D03*
D228*
X015926Y022014D03*
D229*
X015928Y022030D03*
D230*
X015924Y022034D03*
D231*
X012938Y019747D03*
X011954Y019747D03*
X011166Y019747D03*
X010182Y019747D03*
X012992Y017168D03*
X012992Y016184D03*
X012992Y015396D03*
X012992Y014412D03*
X012967Y010605D03*
X012967Y009621D03*
X012967Y008834D03*
X012967Y007849D03*
X012676Y005254D03*
X011692Y005254D03*
X010905Y005254D03*
X009920Y005254D03*
D232*
X008712Y004187D03*
X013885Y004187D03*
X014034Y006641D03*
X014034Y011814D03*
X014059Y013204D03*
X014059Y018377D03*
X014147Y020814D03*
X008974Y020814D03*
D233*
X006381Y019499D03*
X006066Y019499D03*
X005751Y019499D03*
X005436Y019499D03*
X005121Y019499D03*
D234*
X003979Y019499D03*
X003979Y021664D03*
X007522Y021664D03*
X007522Y019499D03*
D235*
X006440Y020483D02*
X006442Y020509D01*
X006448Y020535D01*
X006458Y020560D01*
X006471Y020583D01*
X006487Y020603D01*
X006507Y020621D01*
X006529Y020636D01*
X006552Y020648D01*
X006578Y020656D01*
X006604Y020660D01*
X006630Y020660D01*
X006656Y020656D01*
X006682Y020648D01*
X006706Y020636D01*
X006727Y020621D01*
X006747Y020603D01*
X006763Y020583D01*
X006776Y020560D01*
X006786Y020535D01*
X006792Y020509D01*
X006794Y020483D01*
X006792Y020457D01*
X006786Y020431D01*
X006776Y020406D01*
X006763Y020383D01*
X006747Y020363D01*
X006727Y020345D01*
X006705Y020330D01*
X006682Y020318D01*
X006656Y020310D01*
X006630Y020306D01*
X006604Y020306D01*
X006578Y020310D01*
X006552Y020318D01*
X006528Y020330D01*
X006507Y020345D01*
X006487Y020363D01*
X006471Y020383D01*
X006458Y020406D01*
X006448Y020431D01*
X006442Y020457D01*
X006440Y020483D01*
X004708Y020483D02*
X004710Y020509D01*
X004716Y020535D01*
X004726Y020560D01*
X004739Y020583D01*
X004755Y020603D01*
X004775Y020621D01*
X004797Y020636D01*
X004820Y020648D01*
X004846Y020656D01*
X004872Y020660D01*
X004898Y020660D01*
X004924Y020656D01*
X004950Y020648D01*
X004974Y020636D01*
X004995Y020621D01*
X005015Y020603D01*
X005031Y020583D01*
X005044Y020560D01*
X005054Y020535D01*
X005060Y020509D01*
X005062Y020483D01*
X005060Y020457D01*
X005054Y020431D01*
X005044Y020406D01*
X005031Y020383D01*
X005015Y020363D01*
X004995Y020345D01*
X004973Y020330D01*
X004950Y020318D01*
X004924Y020310D01*
X004898Y020306D01*
X004872Y020306D01*
X004846Y020310D01*
X004820Y020318D01*
X004796Y020330D01*
X004775Y020345D01*
X004755Y020363D01*
X004739Y020383D01*
X004726Y020406D01*
X004716Y020431D01*
X004710Y020457D01*
X004708Y020483D01*
X005692Y005876D02*
X005694Y005897D01*
X005700Y005917D01*
X005709Y005937D01*
X005721Y005954D01*
X005736Y005968D01*
X005754Y005980D01*
X005774Y005988D01*
X005794Y005993D01*
X005815Y005994D01*
X005836Y005991D01*
X005856Y005985D01*
X005875Y005974D01*
X005892Y005961D01*
X005905Y005945D01*
X005916Y005927D01*
X005924Y005907D01*
X005928Y005887D01*
X005928Y005865D01*
X005924Y005845D01*
X005916Y005825D01*
X005905Y005807D01*
X005892Y005791D01*
X005875Y005778D01*
X005856Y005767D01*
X005836Y005761D01*
X005815Y005758D01*
X005794Y005759D01*
X005774Y005764D01*
X005754Y005772D01*
X005736Y005784D01*
X005721Y005798D01*
X005709Y005815D01*
X005700Y005835D01*
X005694Y005855D01*
X005692Y005876D01*
X005372Y005366D02*
X005374Y005387D01*
X005380Y005407D01*
X005389Y005427D01*
X005401Y005444D01*
X005416Y005458D01*
X005434Y005470D01*
X005454Y005478D01*
X005474Y005483D01*
X005495Y005484D01*
X005516Y005481D01*
X005536Y005475D01*
X005555Y005464D01*
X005572Y005451D01*
X005585Y005435D01*
X005596Y005417D01*
X005604Y005397D01*
X005608Y005377D01*
X005608Y005355D01*
X005604Y005335D01*
X005596Y005315D01*
X005585Y005297D01*
X005572Y005281D01*
X005555Y005268D01*
X005536Y005257D01*
X005516Y005251D01*
X005495Y005248D01*
X005474Y005249D01*
X005454Y005254D01*
X005434Y005262D01*
X005416Y005274D01*
X005401Y005288D01*
X005389Y005305D01*
X005380Y005325D01*
X005374Y005345D01*
X005372Y005366D01*
X006002Y005366D02*
X006004Y005387D01*
X006010Y005407D01*
X006019Y005427D01*
X006031Y005444D01*
X006046Y005458D01*
X006064Y005470D01*
X006084Y005478D01*
X006104Y005483D01*
X006125Y005484D01*
X006146Y005481D01*
X006166Y005475D01*
X006185Y005464D01*
X006202Y005451D01*
X006215Y005435D01*
X006226Y005417D01*
X006234Y005397D01*
X006238Y005377D01*
X006238Y005355D01*
X006234Y005335D01*
X006226Y005315D01*
X006215Y005297D01*
X006202Y005281D01*
X006185Y005268D01*
X006166Y005257D01*
X006146Y005251D01*
X006125Y005248D01*
X006104Y005249D01*
X006084Y005254D01*
X006064Y005262D01*
X006046Y005274D01*
X006031Y005288D01*
X006019Y005305D01*
X006010Y005325D01*
X006004Y005345D01*
X006002Y005366D01*
D236*
X006361Y003849D03*
X004392Y003849D03*
D237*
X004226Y008211D02*
X004226Y008684D01*
X009426Y008684D02*
X009426Y008211D01*
X009426Y015511D02*
X009426Y015984D01*
X004226Y015984D02*
X004226Y015511D01*
D238*
X004298Y007466D02*
X004298Y006926D01*
X005298Y006926D02*
X005298Y007466D01*
X006298Y007466D02*
X006298Y006926D01*
D239*
X010691Y008377D03*
X011853Y008377D03*
D240*
X011754Y007235D03*
X011754Y006074D03*
X011951Y017432D03*
X011951Y018593D03*
D241*
X010928Y014243D03*
X009825Y014243D03*
X009904Y006841D03*
X008802Y006841D03*
D242*
X008132Y014046D03*
X008132Y015148D03*
D243*
X006125Y014696D03*
X006125Y013948D03*
X005219Y013948D03*
X005219Y014696D03*
D244*
X005573Y016625D03*
X005573Y017452D03*
X006558Y017452D03*
X006558Y016625D03*
X007542Y016625D03*
X007542Y017452D03*
X008526Y017452D03*
X008526Y016625D03*
X009510Y016625D03*
X009510Y017452D03*
D245*
X010987Y015404D03*
X011262Y009459D03*
D246*
X011932Y009459D03*
X011932Y010286D03*
X011184Y010286D03*
X011656Y015404D03*
X011656Y016231D03*
X010908Y016231D03*
X009766Y018082D03*
X009766Y018830D03*
X010593Y018830D03*
X005475Y012885D03*
X004648Y012885D03*
X004648Y012137D03*
D247*
X005475Y012215D03*
X010593Y018160D03*
D248*
X011804Y012314D03*
X008004Y012314D03*
D249*
X007247Y003845D03*
X004373Y003845D03*
D250*
X005180Y005873D02*
X005180Y006288D01*
X006440Y006288D02*
X006440Y005873D01*
D251*
X008014Y006802D03*
X006951Y008180D03*
X007778Y009440D03*
X007424Y010267D03*
X006243Y010306D03*
X005062Y008849D03*
X004471Y011566D03*
X004628Y013337D03*
X004432Y013967D03*
X005534Y013298D03*
X006085Y013101D03*
X006243Y015503D03*
X006754Y015503D03*
X006833Y016093D03*
X007148Y017196D03*
X008132Y017904D03*
X007739Y018692D03*
X006479Y018613D03*
X005140Y018574D03*
X004471Y018062D03*
X003841Y017786D03*
X005613Y016015D03*
X008644Y015896D03*
X008999Y014637D03*
X011203Y016841D03*
X009235Y019479D03*
X009038Y018456D03*
X010180Y021054D03*
X009392Y011408D03*
X010085Y010857D03*
X011282Y010660D03*
X010337Y009361D03*
X010140Y008141D03*
X012621Y004322D03*
D252*
X009426Y008448D02*
X008518Y008448D01*
X007739Y007668D01*
X007739Y006802D01*
X007739Y005424D01*
X003704Y019223D02*
X002617Y019223D01*
X001617Y020223D01*
X003704Y019223D02*
X003979Y019499D01*
X003979Y021664D01*
X007522Y021664D01*
X007522Y019814D01*
X007680Y019656D01*
X007522Y019499D01*
X007680Y019656D02*
X007771Y019747D01*
X009235Y019747D01*
X010182Y019747D01*
D253*
X010180Y019164D02*
X010584Y019164D01*
X011166Y019747D01*
X011954Y019747D02*
X011017Y018810D01*
X010613Y018810D01*
X010593Y018830D01*
X010180Y019164D02*
X009865Y018849D01*
X009747Y018849D01*
X009766Y018830D01*
X009510Y017452D02*
X008526Y017452D01*
X008526Y017471D01*
X008132Y017904D01*
X007542Y017452D02*
X007148Y017452D01*
X007148Y017196D01*
X007148Y017452D02*
X006558Y017452D01*
X006558Y016625D02*
X006754Y016625D01*
X006833Y016546D01*
X006833Y016093D01*
X006754Y016625D02*
X007542Y016625D01*
X008526Y016625D01*
X009510Y016625D01*
X008644Y015896D02*
X007424Y015896D01*
X007306Y015778D01*
X007306Y015463D01*
X007266Y015503D01*
X006754Y015503D01*
X006243Y015503D02*
X006125Y015385D01*
X006125Y014696D01*
X006125Y013948D02*
X007010Y013948D01*
X007306Y014243D01*
X007306Y015463D01*
X006558Y016625D02*
X005573Y016625D01*
X005613Y016015D02*
X005219Y015621D01*
X005219Y014696D01*
X005219Y013948D02*
X004451Y013948D01*
X004432Y013967D01*
X004628Y013337D02*
X004628Y012904D01*
X004648Y012885D01*
X004156Y012511D02*
X003447Y013219D01*
X003447Y015030D01*
X003254Y015223D01*
X002617Y015223D01*
X004176Y017452D02*
X003841Y017786D01*
X004176Y017452D02*
X005573Y017452D01*
X005140Y018574D02*
X005298Y018731D01*
X005652Y018731D01*
X005751Y018830D01*
X005751Y019499D01*
X006066Y019499D02*
X006066Y018790D01*
X006125Y018731D01*
X006361Y018731D01*
X006479Y018613D01*
X006991Y018692D02*
X006440Y019243D01*
X006440Y019440D01*
X006381Y019499D01*
X006991Y018692D02*
X007739Y018692D01*
X006558Y016625D02*
X006518Y016625D01*
X008132Y014046D02*
X008172Y014007D01*
X008172Y013495D01*
X008014Y013337D01*
X006243Y013337D01*
X006085Y013180D01*
X006085Y013101D01*
X005534Y013298D02*
X005475Y013239D01*
X005475Y012885D01*
X005180Y012511D02*
X004156Y012511D01*
X004648Y012137D02*
X004648Y011743D01*
X004471Y011566D01*
X005180Y012511D02*
X005475Y012215D01*
X005219Y013948D02*
X006125Y013948D01*
X008054Y013967D02*
X008132Y014046D01*
X008999Y014637D02*
X009432Y014637D01*
X009825Y014243D01*
X009786Y014204D01*
X009786Y011211D01*
X009432Y010857D01*
X008093Y010857D01*
X007896Y011054D01*
X006951Y011054D01*
X006243Y010345D01*
X006243Y010306D01*
X007069Y010503D02*
X007069Y010070D01*
X007227Y009912D01*
X007660Y009912D01*
X007739Y009991D01*
X007896Y009991D01*
X008172Y009715D01*
X012266Y009715D01*
X012463Y009519D01*
X012266Y009361D02*
X012030Y009361D01*
X011932Y009459D01*
X012266Y009361D02*
X012794Y008834D01*
X012967Y008834D01*
X012967Y009621D02*
X012675Y009912D01*
X008329Y009912D01*
X007975Y010267D01*
X007424Y010267D01*
X007069Y010503D02*
X007306Y010739D01*
X007817Y010739D01*
X008447Y010109D01*
X010849Y010109D01*
X010347Y010857D02*
X010085Y010857D01*
X010347Y010857D02*
X011804Y012314D01*
X011951Y010306D02*
X012282Y010306D01*
X012967Y009621D01*
X012597Y009991D01*
X011951Y010306D02*
X011932Y010286D01*
X009392Y011408D02*
X009392Y012156D01*
X009274Y012274D01*
X008043Y012274D01*
X008004Y012314D01*
X009707Y014243D02*
X009825Y014243D01*
X010908Y016231D02*
X010908Y016546D01*
X011203Y016841D01*
X011715Y017353D01*
X011833Y017353D01*
X011873Y017353D01*
X011951Y017432D01*
X011754Y016605D02*
X012570Y016605D01*
X012992Y016184D01*
X012992Y015396D02*
X012704Y015109D01*
X011715Y015109D01*
X011656Y015168D01*
X011656Y015404D01*
X011636Y015385D01*
X011656Y016231D02*
X011656Y016507D01*
X011754Y016605D01*
X011954Y019718D02*
X011954Y019747D01*
D254*
X012581Y021054D02*
X013920Y019715D01*
X016109Y019715D01*
X016617Y020223D01*
X012581Y021054D02*
X010180Y021054D01*
X009426Y015748D02*
X009432Y015742D01*
X009432Y015503D01*
X009530Y015404D01*
X010987Y015404D01*
X009432Y015503D02*
X009077Y015148D01*
X008132Y015148D01*
X011912Y011290D02*
X011282Y010660D01*
X011912Y011290D02*
X013132Y011290D01*
X013526Y010896D01*
X013526Y007511D01*
X013251Y007235D01*
X011754Y007235D01*
X010495Y008377D02*
X009707Y009164D01*
X008487Y009164D01*
X008172Y008849D01*
X005062Y008849D01*
X005691Y008219D02*
X004234Y008219D01*
X004226Y008448D01*
X005691Y008219D02*
X006298Y007613D01*
X006298Y007196D01*
X006440Y005873D02*
X006440Y005778D01*
X006873Y005345D01*
X008999Y005345D01*
X010022Y004322D01*
X012621Y004322D01*
X008802Y006841D02*
X007778Y006841D01*
X007739Y006802D01*
X006873Y005345D02*
X006361Y004834D01*
X006361Y003849D01*
M02*
