%
M48
M72
T01C0.0236
T02C0.0276
T03C0.0315
T04C0.0354
T05C0.0360
T06C0.0394
T07C0.0520
T08C0.0787
T09C0.0900
%
T01
X3841Y17786
X4471Y18062
X5140Y18574
X6479Y18613
X7739Y18692
X8132Y17904
X9038Y18456
X9235Y19479
X10180Y21054
X7148Y17196
X6833Y16093
X6754Y15503
X6243Y15503
X5613Y16015
X4432Y13967
X4628Y13337
X5534Y13298
X6085Y13101
X4471Y11566
X6243Y10306
X5062Y8849
X6951Y8180
X7778Y9440
X7424Y10267
X9392Y11408
X10085Y10857
X11282Y10660
X10337Y9361
X10140Y8141
X8014Y6802
X6120Y5366
X5810Y5876
X5490Y5366
X8999Y14637
X8644Y15896
X11203Y16841
X12621Y4322
T02
X6440Y5873
X5180Y5873
T03
X4226Y15748
X9426Y15748
X9426Y8448
X4226Y8448
T04
X4885Y20483
X6617Y20483
T05
X1617Y20223
X1617Y19223
X1617Y18223
X1617Y17223
X1617Y16223
X1617Y15223
X1617Y14223
X1617Y13223
X1617Y12223
X1617Y11223
X1617Y10223
X1617Y9223
X1617Y8223
X1617Y7223
X1617Y6223
X1617Y5223
X1617Y4223
X1617Y3223
X2617Y3223
X2617Y4223
X2617Y5223
X2617Y6223
X2617Y7223
X2617Y8223
X2617Y9223
X2617Y10223
X2617Y11223
X2617Y12223
X2617Y13223
X2617Y14223
X2617Y15223
X2617Y16223
X2617Y17223
X2617Y18223
X2617Y19223
X2617Y20223
X15617Y20223
X15617Y19223
X15617Y18223
X15617Y17223
X15617Y16223
X15617Y15223
X15617Y14223
X15617Y13223
X15617Y12223
X15617Y11223
X15617Y10223
X15617Y9223
X15617Y8223
X15617Y7223
X15617Y6223
X15617Y5223
X15617Y4223
X15617Y3223
X16617Y3223
X16617Y20223
X16617Y19223
X16617Y18223
X16617Y17223
X16617Y16223
X16617Y15223
X16617Y14223
X16617Y13223
X16617Y12223
X16617Y11223
X16617Y10223
X16617Y9223
X16617Y8223
X16617Y7223
X16617Y6223
X16617Y5223
X16617Y4223
X6298Y7196
X5298Y7196
X4298Y7196
T06
X10182Y19747
X11166Y19747
X11954Y19747
X12938Y19747
X12992Y17168
X12992Y16184
X12992Y15396
X12992Y14412
X12967Y10605
X12967Y9621
X12967Y8834
X12967Y7849
X12676Y5254
X11692Y5254
X10905Y5254
X9920Y5254
T07
X6361Y3849
X4392Y3849
T08
X7247Y3845
X4373Y3845
T09
X8974Y20814
X14059Y18377
X14147Y20814
X14059Y13204
X14034Y11814
X14034Y6641
X13885Y4187
X8712Y4187
M30
