G75*
%MOIN*%
%OFA0B0*%
%FSLAX24Y24*%
%IPPOS*%
%LPD*%
%AMOC8*
5,1,8,0,0,1.08239X$1,22.5*
%
%ADD10C,0.0160*%
%ADD11C,0.0080*%
%ADD12C,0.0040*%
%ADD13C,0.0000*%
%ADD14C,0.0100*%
%ADD15C,0.0050*%
%ADD16C,0.0060*%
D10*
X001046Y002668D02*
X017188Y002668D01*
X017188Y022353D01*
X001046Y022353D01*
X001046Y002668D01*
D11*
X004703Y012138D02*
X004703Y013595D01*
X008593Y013595D01*
X008601Y013595D02*
X008601Y012138D01*
X004703Y012138D01*
X008163Y012433D02*
X008165Y012456D01*
X008171Y012479D01*
X008180Y012501D01*
X008193Y012520D01*
X008209Y012537D01*
X008227Y012552D01*
X008248Y012563D01*
X008270Y012571D01*
X008293Y012575D01*
X008317Y012575D01*
X008340Y012571D01*
X008362Y012563D01*
X008383Y012552D01*
X008401Y012537D01*
X008417Y012520D01*
X008430Y012501D01*
X008439Y012479D01*
X008445Y012456D01*
X008447Y012433D01*
X008445Y012410D01*
X008439Y012387D01*
X008430Y012365D01*
X008417Y012346D01*
X008401Y012329D01*
X008383Y012314D01*
X008362Y012303D01*
X008340Y012295D01*
X008317Y012291D01*
X008293Y012291D01*
X008270Y012295D01*
X008248Y012303D01*
X008227Y012314D01*
X008209Y012329D01*
X008193Y012346D01*
X008180Y012365D01*
X008171Y012387D01*
X008165Y012410D01*
X008163Y012433D01*
D12*
X007898Y012636D02*
X007898Y013097D01*
X007591Y013097D01*
X007438Y013097D02*
X007438Y012636D01*
X007131Y012636D01*
X006977Y012636D02*
X006670Y012636D01*
X006517Y012636D02*
X006440Y012636D01*
X006440Y012713D01*
X006517Y012713D01*
X006517Y012636D01*
X006287Y012636D02*
X005980Y012636D01*
X006133Y012636D02*
X006133Y013097D01*
X006287Y012943D01*
X006824Y013097D02*
X006824Y012636D01*
X006977Y012943D02*
X006824Y013097D01*
X007131Y013097D02*
X007438Y013097D01*
X007438Y012866D02*
X007284Y012866D01*
X007744Y012866D02*
X007898Y012866D01*
X009095Y012809D02*
X009709Y012809D01*
X009727Y012891D02*
X009650Y012891D01*
X009574Y012814D01*
X009497Y012891D01*
X009420Y012891D01*
X009343Y012814D01*
X009343Y012661D01*
X009420Y012584D01*
X009479Y012656D02*
X009555Y012656D01*
X009632Y012733D01*
X009632Y012886D01*
X009555Y012963D01*
X009574Y012814D02*
X009574Y012738D01*
X009479Y012656D02*
X009402Y012733D01*
X009402Y012886D01*
X009325Y012963D01*
X009249Y012963D01*
X009172Y012886D01*
X009172Y012733D01*
X009249Y012656D01*
X009249Y012503D02*
X009632Y012503D01*
X009727Y012431D02*
X009804Y012354D01*
X009804Y012200D01*
X009727Y012124D01*
X009420Y012124D01*
X009343Y012200D01*
X009343Y012354D01*
X009420Y012431D01*
X009249Y012503D02*
X009172Y012426D01*
X009172Y012272D01*
X009249Y012196D01*
X009632Y012196D01*
X009727Y012584D02*
X009804Y012661D01*
X009804Y012814D01*
X009727Y012891D01*
X009479Y013116D02*
X009632Y013270D01*
X009172Y013270D01*
X009172Y013423D02*
X009172Y013116D01*
X006944Y016151D02*
X006944Y016381D01*
X006867Y016458D01*
X006713Y016458D01*
X006637Y016381D01*
X006637Y016151D01*
X006637Y016305D02*
X006483Y016458D01*
X006560Y016612D02*
X006483Y016688D01*
X006483Y016842D01*
X006560Y016919D01*
X006637Y016919D01*
X006713Y016842D01*
X006713Y016612D01*
X006560Y016612D01*
X006713Y016612D02*
X006867Y016765D01*
X006944Y016919D01*
X006944Y016151D02*
X006483Y016151D01*
X005749Y012943D02*
X005519Y012943D01*
X005596Y012790D02*
X005749Y012790D01*
X005826Y012866D01*
X005749Y012943D01*
X005596Y012790D02*
X005519Y012713D01*
X005596Y012636D01*
X005826Y012636D01*
X005731Y010617D02*
X005654Y010540D01*
X005654Y010387D01*
X005731Y010310D01*
X005961Y010310D01*
X005961Y010157D02*
X005961Y010617D01*
X005731Y010617D01*
X005807Y010310D02*
X005654Y010157D01*
X005500Y010157D02*
X005194Y010157D01*
X005347Y010157D02*
X005347Y010617D01*
X005500Y010464D01*
X009975Y007576D02*
X010436Y007576D01*
X010205Y007346D01*
X010205Y007653D01*
X010052Y007192D02*
X010436Y007192D01*
X010436Y006885D02*
X010052Y006885D01*
X009975Y006962D01*
X009975Y007116D01*
X010052Y007192D01*
X011442Y009107D02*
X011748Y009107D01*
X011442Y009414D01*
X011442Y009491D01*
X011518Y009568D01*
X011672Y009568D01*
X011748Y009491D01*
X011902Y009491D02*
X011979Y009568D01*
X012132Y009568D01*
X012209Y009491D01*
X012209Y009184D01*
X012132Y009107D01*
X011979Y009107D01*
X011902Y009184D01*
X012503Y011744D02*
X012964Y011744D01*
X012964Y012051D01*
X012810Y012205D02*
X012964Y012358D01*
X012503Y012358D01*
X012503Y012205D02*
X012503Y012512D01*
X012733Y011898D02*
X012733Y011744D01*
X010987Y017754D02*
X010680Y017754D01*
X010603Y017830D01*
X010603Y017984D01*
X010680Y018061D01*
X010833Y018214D02*
X010833Y018521D01*
X010603Y018444D02*
X011064Y018444D01*
X010833Y018214D01*
X010987Y018061D02*
X011064Y017984D01*
X011064Y017830D01*
X010987Y017754D01*
X003321Y017194D02*
X003321Y016887D01*
X003245Y016734D02*
X003091Y016734D01*
X003015Y016657D01*
X003015Y016427D01*
X003015Y016580D02*
X002861Y016734D01*
X002861Y016887D02*
X002938Y016887D01*
X003245Y017194D01*
X003321Y017194D01*
X003245Y016734D02*
X003321Y016657D01*
X003321Y016427D01*
X002861Y016427D01*
D13*
X004708Y020483D02*
X004710Y020509D01*
X004716Y020535D01*
X004726Y020560D01*
X004739Y020583D01*
X004755Y020603D01*
X004775Y020621D01*
X004797Y020636D01*
X004820Y020648D01*
X004846Y020656D01*
X004872Y020660D01*
X004898Y020660D01*
X004924Y020656D01*
X004950Y020648D01*
X004974Y020636D01*
X004995Y020621D01*
X005015Y020603D01*
X005031Y020583D01*
X005044Y020560D01*
X005054Y020535D01*
X005060Y020509D01*
X005062Y020483D01*
X005060Y020457D01*
X005054Y020431D01*
X005044Y020406D01*
X005031Y020383D01*
X005015Y020363D01*
X004995Y020345D01*
X004973Y020330D01*
X004950Y020318D01*
X004924Y020310D01*
X004898Y020306D01*
X004872Y020306D01*
X004846Y020310D01*
X004820Y020318D01*
X004796Y020330D01*
X004775Y020345D01*
X004755Y020363D01*
X004739Y020383D01*
X004726Y020406D01*
X004716Y020431D01*
X004710Y020457D01*
X004708Y020483D01*
X006440Y020483D02*
X006442Y020509D01*
X006448Y020535D01*
X006458Y020560D01*
X006471Y020583D01*
X006487Y020603D01*
X006507Y020621D01*
X006529Y020636D01*
X006552Y020648D01*
X006578Y020656D01*
X006604Y020660D01*
X006630Y020660D01*
X006656Y020656D01*
X006682Y020648D01*
X006706Y020636D01*
X006727Y020621D01*
X006747Y020603D01*
X006763Y020583D01*
X006776Y020560D01*
X006786Y020535D01*
X006792Y020509D01*
X006794Y020483D01*
X006792Y020457D01*
X006786Y020431D01*
X006776Y020406D01*
X006763Y020383D01*
X006747Y020363D01*
X006727Y020345D01*
X006705Y020330D01*
X006682Y020318D01*
X006656Y020310D01*
X006630Y020306D01*
X006604Y020306D01*
X006578Y020310D01*
X006552Y020318D01*
X006528Y020330D01*
X006507Y020345D01*
X006487Y020363D01*
X006471Y020383D01*
X006458Y020406D01*
X006448Y020431D01*
X006442Y020457D01*
X006440Y020483D01*
X005692Y005876D02*
X005694Y005897D01*
X005700Y005917D01*
X005709Y005937D01*
X005721Y005954D01*
X005736Y005968D01*
X005754Y005980D01*
X005774Y005988D01*
X005794Y005993D01*
X005815Y005994D01*
X005836Y005991D01*
X005856Y005985D01*
X005875Y005974D01*
X005892Y005961D01*
X005905Y005945D01*
X005916Y005927D01*
X005924Y005907D01*
X005928Y005887D01*
X005928Y005865D01*
X005924Y005845D01*
X005916Y005825D01*
X005905Y005807D01*
X005892Y005791D01*
X005875Y005778D01*
X005856Y005767D01*
X005836Y005761D01*
X005815Y005758D01*
X005794Y005759D01*
X005774Y005764D01*
X005754Y005772D01*
X005736Y005784D01*
X005721Y005798D01*
X005709Y005815D01*
X005700Y005835D01*
X005694Y005855D01*
X005692Y005876D01*
X005372Y005366D02*
X005374Y005387D01*
X005380Y005407D01*
X005389Y005427D01*
X005401Y005444D01*
X005416Y005458D01*
X005434Y005470D01*
X005454Y005478D01*
X005474Y005483D01*
X005495Y005484D01*
X005516Y005481D01*
X005536Y005475D01*
X005555Y005464D01*
X005572Y005451D01*
X005585Y005435D01*
X005596Y005417D01*
X005604Y005397D01*
X005608Y005377D01*
X005608Y005355D01*
X005604Y005335D01*
X005596Y005315D01*
X005585Y005297D01*
X005572Y005281D01*
X005555Y005268D01*
X005536Y005257D01*
X005516Y005251D01*
X005495Y005248D01*
X005474Y005249D01*
X005454Y005254D01*
X005434Y005262D01*
X005416Y005274D01*
X005401Y005288D01*
X005389Y005305D01*
X005380Y005325D01*
X005374Y005345D01*
X005372Y005366D01*
X006002Y005366D02*
X006004Y005387D01*
X006010Y005407D01*
X006019Y005427D01*
X006031Y005444D01*
X006046Y005458D01*
X006064Y005470D01*
X006084Y005478D01*
X006104Y005483D01*
X006125Y005484D01*
X006146Y005481D01*
X006166Y005475D01*
X006185Y005464D01*
X006202Y005451D01*
X006215Y005435D01*
X006226Y005417D01*
X006234Y005397D01*
X006238Y005377D01*
X006238Y005355D01*
X006234Y005335D01*
X006226Y005315D01*
X006215Y005297D01*
X006202Y005281D01*
X006185Y005268D01*
X006166Y005257D01*
X006146Y005251D01*
X006125Y005248D01*
X006104Y005249D01*
X006084Y005254D01*
X006064Y005262D01*
X006046Y005274D01*
X006031Y005288D01*
X006019Y005305D01*
X006010Y005325D01*
X006004Y005345D01*
X006002Y005366D01*
D14*
X011353Y012034D02*
X011353Y012494D01*
X012313Y012494D02*
X012313Y012034D01*
D15*
X011499Y007196D02*
X010987Y007196D01*
X010987Y006015D01*
X011499Y006015D01*
X011499Y007196D01*
X006101Y020473D02*
X005951Y020473D01*
X005876Y020548D01*
X005876Y020623D01*
X005951Y020698D01*
X006101Y020698D01*
X006176Y020773D01*
X006176Y020848D01*
X006101Y020923D01*
X005951Y020923D01*
X005876Y020848D01*
X005566Y020923D02*
X005416Y020923D01*
X005491Y020923D02*
X005491Y020548D01*
X005566Y020473D01*
X005641Y020473D01*
X005716Y020548D01*
X006101Y020473D02*
X006176Y020548D01*
X005256Y020473D02*
X004955Y020473D01*
X005105Y020473D02*
X005105Y020923D01*
X005256Y020773D01*
D16*
X004920Y021048D02*
X006620Y021048D01*
X006637Y021050D01*
X006654Y021054D01*
X006670Y021061D01*
X006684Y021071D01*
X006697Y021084D01*
X006707Y021098D01*
X006714Y021114D01*
X006718Y021131D01*
X006720Y021148D01*
X006720Y021748D01*
X006718Y021765D01*
X006714Y021782D01*
X006707Y021798D01*
X006697Y021812D01*
X006684Y021825D01*
X006670Y021835D01*
X006654Y021842D01*
X006637Y021846D01*
X006620Y021848D01*
X004920Y021848D01*
X004903Y021846D01*
X004886Y021842D01*
X004870Y021835D01*
X004856Y021825D01*
X004843Y021812D01*
X004833Y021798D01*
X004826Y021782D01*
X004822Y021765D01*
X004820Y021748D01*
X004820Y021148D01*
X004822Y021131D01*
X004826Y021114D01*
X004833Y021098D01*
X004843Y021084D01*
X004856Y021071D01*
X004870Y021061D01*
X004886Y021054D01*
X004903Y021050D01*
X004920Y021048D01*
M02*
