G75*
%MOIN*%
%OFA0B0*%
%FSLAX24Y24*%
%IPPOS*%
%LPD*%
%AMOC8*
5,1,8,0,0,1.08239X$1,22.5*
%
%ADD10C,0.0160*%
%ADD11C,0.0060*%
%ADD12C,0.0540*%
%ADD13OC8,0.0540*%
%ADD14R,0.0312X0.0004*%
%ADD15R,0.0344X0.0004*%
%ADD16R,0.0368X0.0004*%
%ADD17R,0.0392X0.0004*%
%ADD18R,0.0408X0.0004*%
%ADD19R,0.0424X0.0004*%
%ADD20R,0.0432X0.0004*%
%ADD21R,0.0448X0.0004*%
%ADD22R,0.0456X0.0004*%
%ADD23R,0.0472X0.0004*%
%ADD24R,0.0480X0.0004*%
%ADD25R,0.0488X0.0004*%
%ADD26R,0.0496X0.0004*%
%ADD27R,0.0504X0.0004*%
%ADD28R,0.0512X0.0004*%
%ADD29R,0.0520X0.0004*%
%ADD30R,0.0528X0.0004*%
%ADD31R,0.0536X0.0004*%
%ADD32R,0.0536X0.0004*%
%ADD33R,0.0544X0.0004*%
%ADD34R,0.0552X0.0004*%
%ADD35R,0.0560X0.0004*%
%ADD36R,0.0560X0.0004*%
%ADD37R,0.0568X0.0004*%
%ADD38R,0.0576X0.0004*%
%ADD39R,0.0584X0.0004*%
%ADD40R,0.0592X0.0004*%
%ADD41R,0.0592X0.0004*%
%ADD42R,0.0600X0.0004*%
%ADD43R,0.0608X0.0004*%
%ADD44R,0.0608X0.0004*%
%ADD45R,0.0616X0.0004*%
%ADD46R,0.0624X0.0004*%
%ADD47R,0.0632X0.0004*%
%ADD48R,0.0632X0.0004*%
%ADD49R,0.0640X0.0004*%
%ADD50R,0.0648X0.0004*%
%ADD51R,0.0648X0.0004*%
%ADD52R,0.0656X0.0004*%
%ADD53R,0.0664X0.0004*%
%ADD54R,0.0664X0.0004*%
%ADD55R,0.0672X0.0004*%
%ADD56R,0.0680X0.0004*%
%ADD57R,0.0680X0.0004*%
%ADD58R,0.0688X0.0004*%
%ADD59R,0.0696X0.0004*%
%ADD60R,0.0700X0.0004*%
%ADD61R,0.0708X0.0004*%
%ADD62R,0.0716X0.0004*%
%ADD63R,0.0720X0.0004*%
%ADD64R,0.0720X0.0004*%
%ADD65R,0.0724X0.0004*%
%ADD66R,0.0808X0.0004*%
%ADD67R,0.0824X0.0004*%
%ADD68R,0.0832X0.0004*%
%ADD69R,0.0840X0.0004*%
%ADD70R,0.0848X0.0004*%
%ADD71R,0.0856X0.0004*%
%ADD72R,0.0860X0.0004*%
%ADD73R,0.0864X0.0004*%
%ADD74R,0.0864X0.0004*%
%ADD75R,0.0868X0.0004*%
%ADD76R,0.0872X0.0004*%
%ADD77R,0.0872X0.0004*%
%ADD78R,0.0860X0.0004*%
%ADD79R,0.0832X0.0004*%
%ADD80R,0.0824X0.0004*%
%ADD81R,0.0708X0.0004*%
%ADD82R,0.0712X0.0004*%
%ADD83R,0.0712X0.0004*%
%ADD84R,0.0700X0.0004*%
%ADD85R,0.0696X0.0004*%
%ADD86R,0.0692X0.0004*%
%ADD87R,0.0668X0.0004*%
%ADD88R,0.0660X0.0004*%
%ADD89R,0.0452X0.0004*%
%ADD90R,0.0188X0.0004*%
%ADD91R,0.0448X0.0004*%
%ADD92R,0.0440X0.0004*%
%ADD93R,0.0184X0.0004*%
%ADD94R,0.0432X0.0004*%
%ADD95R,0.0184X0.0004*%
%ADD96R,0.0424X0.0004*%
%ADD97R,0.0412X0.0004*%
%ADD98R,0.0128X0.0004*%
%ADD99R,0.0044X0.0004*%
%ADD100R,0.0400X0.0004*%
%ADD101R,0.0008X0.0004*%
%ADD102R,0.0388X0.0004*%
%ADD103R,0.0132X0.0004*%
%ADD104R,0.0360X0.0004*%
%ADD105R,0.0136X0.0004*%
%ADD106R,0.0340X0.0004*%
%ADD107R,0.0140X0.0004*%
%ADD108R,0.0328X0.0004*%
%ADD109R,0.0144X0.0004*%
%ADD110R,0.0324X0.0004*%
%ADD111R,0.0148X0.0004*%
%ADD112R,0.0320X0.0004*%
%ADD113R,0.0156X0.0004*%
%ADD114R,0.0316X0.0004*%
%ADD115R,0.0176X0.0004*%
%ADD116R,0.0080X0.0004*%
%ADD117R,0.0052X0.0004*%
%ADD118R,0.0380X0.0004*%
%ADD119R,0.0372X0.0004*%
%ADD120R,0.0356X0.0004*%
%ADD121R,0.0004X0.0004*%
%ADD122R,0.0308X0.0004*%
%ADD123R,0.0060X0.0004*%
%ADD124R,0.0240X0.0004*%
%ADD125R,0.0232X0.0004*%
%ADD126R,0.0044X0.0004*%
%ADD127R,0.0164X0.0004*%
%ADD128R,0.0056X0.0004*%
%ADD129R,0.0036X0.0004*%
%ADD130R,0.0156X0.0004*%
%ADD131R,0.0048X0.0004*%
%ADD132R,0.0024X0.0004*%
%ADD133R,0.0036X0.0004*%
%ADD134R,0.0016X0.0004*%
%ADD135R,0.0028X0.0004*%
%ADD136R,0.0012X0.0004*%
%ADD137R,0.0124X0.0004*%
%ADD138R,0.0108X0.0004*%
%ADD139R,0.0008X0.0004*%
%ADD140R,0.0092X0.0004*%
%ADD141R,0.0068X0.0004*%
%ADD142R,0.0008X0.0004*%
%ADD143R,0.0016X0.0004*%
%ADD144R,0.0024X0.0004*%
%ADD145R,0.0032X0.0004*%
%ADD146R,0.0032X0.0004*%
%ADD147R,0.0040X0.0004*%
%ADD148R,0.0056X0.0004*%
%ADD149R,0.0064X0.0004*%
%ADD150R,0.0072X0.0004*%
%ADD151R,0.0088X0.0004*%
%ADD152R,0.0096X0.0004*%
%ADD153R,0.0104X0.0004*%
%ADD154R,0.0112X0.0004*%
%ADD155R,0.0120X0.0004*%
%ADD156R,0.0124X0.0004*%
%ADD157R,0.0128X0.0004*%
%ADD158R,0.0144X0.0004*%
%ADD159R,0.0152X0.0004*%
%ADD160R,0.0152X0.0004*%
%ADD161R,0.0160X0.0004*%
%ADD162R,0.0168X0.0004*%
%ADD163R,0.0176X0.0004*%
%ADD164R,0.0184X0.0004*%
%ADD165R,0.0192X0.0004*%
%ADD166R,0.0200X0.0004*%
%ADD167R,0.0208X0.0004*%
%ADD168R,0.0216X0.0004*%
%ADD169R,0.0216X0.0004*%
%ADD170R,0.0224X0.0004*%
%ADD171R,0.0232X0.0004*%
%ADD172R,0.0240X0.0004*%
%ADD173R,0.0248X0.0004*%
%ADD174R,0.0256X0.0004*%
%ADD175R,0.0264X0.0004*%
%ADD176R,0.0272X0.0004*%
%ADD177R,0.0280X0.0004*%
%ADD178R,0.0288X0.0004*%
%ADD179R,0.0296X0.0004*%
%ADD180R,0.0304X0.0004*%
%ADD181R,0.0320X0.0004*%
%ADD182R,0.0328X0.0004*%
%ADD183R,0.0336X0.0004*%
%ADD184R,0.0336X0.0004*%
%ADD185R,0.0200X0.0004*%
%ADD186R,0.0128X0.0004*%
%ADD187R,0.0204X0.0004*%
%ADD188R,0.0216X0.0004*%
%ADD189R,0.0228X0.0004*%
%ADD190R,0.0416X0.0004*%
%ADD191R,0.0424X0.0004*%
%ADD192R,0.0428X0.0004*%
%ADD193R,0.0304X0.0004*%
%ADD194R,0.0180X0.0004*%
%ADD195R,0.0112X0.0004*%
%ADD196R,0.0176X0.0004*%
%ADD197R,0.0112X0.0004*%
%ADD198R,0.0132X0.0004*%
%ADD199R,0.0116X0.0004*%
%ADD200R,0.0332X0.0004*%
%ADD201R,0.0336X0.0004*%
%ADD202R,0.0480X0.0004*%
%ADD203R,0.0496X0.0004*%
%ADD204R,0.0512X0.0004*%
%ADD205R,0.0544X0.0004*%
%ADD206R,0.0208X0.0004*%
%ADD207R,0.0356X0.0004*%
%ADD208R,0.0208X0.0004*%
%ADD209R,0.0364X0.0004*%
%ADD210R,0.0212X0.0004*%
%ADD211R,0.0368X0.0004*%
%ADD212R,0.0220X0.0004*%
%ADD213R,0.0600X0.0004*%
%ADD214R,0.0356X0.0004*%
%ADD215R,0.0228X0.0004*%
%ADD216R,0.0236X0.0004*%
%ADD217R,0.0360X0.0004*%
%ADD218R,0.0368X0.0004*%
%ADD219R,0.0244X0.0004*%
%ADD220R,0.0252X0.0004*%
%ADD221R,0.0376X0.0004*%
%ADD222R,0.0672X0.0004*%
%ADD223R,0.0624X0.0004*%
%ADD224R,0.0596X0.0004*%
%ADD225R,0.0552X0.0004*%
%ADD226R,0.0456X0.0004*%
%ADD227R,0.0384X0.0004*%
%ADD228R,0.0352X0.0004*%
%ADD229R,0.0188X0.0004*%
%ADD230R,0.0108X0.0004*%
%ADD231R,0.0138X0.0591*%
%ADD232C,0.0591*%
%ADD233C,0.1300*%
%ADD234C,0.0000*%
%ADD235OC8,0.1250*%
%ADD236C,0.0472*%
%ADD237C,0.0540*%
%ADD238R,0.1063X0.0591*%
%ADD239R,0.0630X0.1063*%
%ADD240R,0.1063X0.0630*%
%ADD241R,0.0512X0.0591*%
%ADD242R,0.0591X0.0512*%
%ADD243R,0.0236X0.0394*%
%ADD244R,0.0236X0.0236*%
%ADD245R,0.0460X0.0630*%
%ADD246C,0.1500*%
%ADD247C,0.0416*%
%ADD248C,0.0320*%
%ADD249C,0.0376*%
%ADD250C,0.0100*%
%ADD251C,0.0240*%
D10*
X001046Y002668D02*
X017188Y002668D01*
X017188Y022353D01*
X001046Y022353D01*
X001046Y002668D01*
X001356Y003624D02*
X001356Y003819D01*
X001422Y003753D01*
X001811Y003753D01*
X002087Y004029D01*
X002087Y004418D01*
X001811Y004693D01*
X001422Y004693D01*
X001356Y004627D01*
X001356Y004819D01*
X001422Y004753D01*
X001811Y004753D01*
X002087Y005029D01*
X002087Y005418D01*
X001811Y005693D01*
X001422Y005693D01*
X001356Y005627D01*
X001356Y005819D01*
X001422Y005753D01*
X001811Y005753D01*
X002087Y006029D01*
X002087Y006418D01*
X001811Y006693D01*
X001422Y006693D01*
X001356Y006627D01*
X001356Y006819D01*
X001422Y006753D01*
X001811Y006753D01*
X002087Y007029D01*
X002087Y007418D01*
X001811Y007693D01*
X001422Y007693D01*
X001356Y007627D01*
X001356Y007819D01*
X001422Y007753D01*
X001811Y007753D01*
X002087Y008029D01*
X002087Y008418D01*
X001811Y008693D01*
X001422Y008693D01*
X001356Y008627D01*
X001356Y008819D01*
X001422Y008753D01*
X001811Y008753D01*
X002087Y009029D01*
X002087Y009418D01*
X001811Y009693D01*
X001422Y009693D01*
X001356Y009627D01*
X001356Y009819D01*
X001422Y009753D01*
X001811Y009753D01*
X002087Y010029D01*
X002087Y010418D01*
X001811Y010693D01*
X001422Y010693D01*
X001356Y010627D01*
X001356Y010819D01*
X001422Y010753D01*
X001811Y010753D01*
X002087Y011029D01*
X002087Y011418D01*
X001811Y011693D01*
X001422Y011693D01*
X001356Y011627D01*
X001356Y011819D01*
X001422Y011753D01*
X001811Y011753D01*
X002087Y012029D01*
X002087Y012418D01*
X001811Y012693D01*
X001422Y012693D01*
X001356Y012627D01*
X001356Y012819D01*
X001422Y012753D01*
X001811Y012753D01*
X002087Y013029D01*
X002087Y013418D01*
X001811Y013693D01*
X001422Y013693D01*
X001356Y013627D01*
X001356Y013819D01*
X001422Y013753D01*
X001811Y013753D01*
X002087Y014029D01*
X002087Y014418D01*
X001811Y014693D01*
X001422Y014693D01*
X001356Y014627D01*
X001356Y014819D01*
X001422Y014753D01*
X001811Y014753D01*
X002087Y015029D01*
X002087Y015418D01*
X001811Y015693D01*
X001422Y015693D01*
X001356Y015627D01*
X001356Y015819D01*
X001422Y015753D01*
X001811Y015753D01*
X002087Y016029D01*
X002087Y016418D01*
X001811Y016693D01*
X001422Y016693D01*
X001356Y016627D01*
X001356Y016819D01*
X001422Y016753D01*
X001811Y016753D01*
X002087Y017029D01*
X002087Y017418D01*
X001811Y017693D01*
X001422Y017693D01*
X001356Y017627D01*
X001356Y017819D01*
X001422Y017753D01*
X001811Y017753D01*
X002087Y018029D01*
X002087Y018418D01*
X001811Y018693D01*
X001422Y018693D01*
X001356Y018627D01*
X001356Y018819D01*
X001422Y018753D01*
X001811Y018753D01*
X002087Y019029D01*
X002087Y019418D01*
X001811Y019693D01*
X001422Y019693D01*
X001356Y019627D01*
X001356Y019848D01*
X001430Y019773D01*
X001607Y019773D01*
X001607Y020213D01*
X001627Y020213D01*
X001627Y020233D01*
X002067Y020233D01*
X002067Y020410D01*
X001888Y020588D01*
X002161Y020588D01*
X002186Y020613D01*
X002209Y020590D01*
X002210Y020588D01*
X002305Y020588D01*
X002317Y020588D01*
X002147Y020418D01*
X002147Y020029D01*
X002422Y019753D01*
X002811Y019753D01*
X003087Y020029D01*
X003087Y020241D01*
X003974Y021128D01*
X004740Y021128D01*
X004740Y021050D01*
X004857Y020933D01*
X005450Y020933D01*
X005450Y020832D01*
X005260Y020642D01*
X005230Y020714D01*
X005115Y020828D01*
X004966Y020890D01*
X004804Y020890D01*
X004654Y020828D01*
X004539Y020714D01*
X004477Y020564D01*
X004477Y020402D01*
X004539Y020253D01*
X004654Y020138D01*
X004726Y020108D01*
X004526Y019908D01*
X004436Y019818D01*
X004387Y019700D01*
X004387Y018447D01*
X004251Y018391D01*
X004142Y018282D01*
X004083Y018139D01*
X004083Y018093D01*
X004061Y018115D01*
X003918Y018174D01*
X003764Y018174D01*
X003621Y018115D01*
X003512Y018006D01*
X003471Y017908D01*
X003463Y017908D01*
X003346Y017790D01*
X003346Y017113D01*
X003397Y017062D01*
X003378Y017029D01*
X003366Y016983D01*
X003366Y016752D01*
X003793Y016752D01*
X003793Y016656D01*
X003366Y016656D01*
X003366Y016424D01*
X003378Y016378D01*
X003402Y016337D01*
X003435Y016304D01*
X003476Y016280D01*
X003522Y016268D01*
X003793Y016268D01*
X003793Y016656D01*
X003889Y016656D01*
X003889Y016752D01*
X004316Y016752D01*
X004316Y016983D01*
X004304Y017029D01*
X004285Y017062D01*
X004336Y017113D01*
X004336Y017698D01*
X004387Y017676D01*
X004387Y016389D01*
X004315Y016419D01*
X004316Y016424D01*
X004316Y016656D01*
X003889Y016656D01*
X003889Y016268D01*
X003893Y016268D01*
X003856Y016231D01*
X003790Y016071D01*
X003790Y015764D01*
X003176Y015150D01*
X003127Y015033D01*
X003127Y006384D01*
X003176Y006266D01*
X003412Y006030D01*
X003502Y005940D01*
X003620Y005891D01*
X003978Y005891D01*
X003978Y004710D01*
X003834Y004651D01*
X003567Y004383D01*
X003423Y004034D01*
X003423Y003656D01*
X003567Y003307D01*
X003834Y003040D01*
X003984Y002978D01*
X003036Y002978D01*
X003087Y003029D01*
X003087Y003418D01*
X002811Y003693D01*
X002422Y003693D01*
X002147Y003418D01*
X002147Y003029D01*
X002197Y002978D01*
X002024Y002978D01*
X002087Y003130D01*
X002087Y003317D01*
X002015Y003490D01*
X001883Y003622D01*
X001710Y003693D01*
X001523Y003693D01*
X001356Y003624D01*
X001356Y003778D02*
X001398Y003778D01*
X001836Y003778D02*
X002398Y003778D01*
X002422Y003753D02*
X002811Y003753D01*
X003087Y004029D01*
X003087Y004418D01*
X002811Y004693D01*
X002422Y004693D01*
X002147Y004418D01*
X002147Y004029D01*
X002422Y003753D01*
X002348Y003619D02*
X001885Y003619D01*
X002027Y003461D02*
X002189Y003461D01*
X002147Y003302D02*
X002087Y003302D01*
X002087Y003144D02*
X002147Y003144D01*
X002190Y002985D02*
X002027Y002985D01*
X001994Y003936D02*
X002239Y003936D01*
X002147Y004095D02*
X002087Y004095D01*
X002087Y004253D02*
X002147Y004253D01*
X002147Y004412D02*
X002087Y004412D01*
X001934Y004570D02*
X002299Y004570D01*
X002422Y004753D02*
X002811Y004753D01*
X003087Y005029D01*
X003087Y005418D01*
X002811Y005693D01*
X002422Y005693D01*
X002147Y005418D01*
X002147Y005029D01*
X002422Y004753D01*
X002288Y004887D02*
X001945Y004887D01*
X002087Y005046D02*
X002147Y005046D01*
X002147Y005204D02*
X002087Y005204D01*
X002087Y005363D02*
X002147Y005363D01*
X002250Y005521D02*
X001983Y005521D01*
X001825Y005680D02*
X002408Y005680D01*
X002422Y005753D02*
X002811Y005753D01*
X003087Y006029D01*
X003087Y006418D01*
X002811Y006693D01*
X002422Y006693D01*
X002147Y006418D01*
X002147Y006029D01*
X002422Y005753D01*
X002337Y005838D02*
X001896Y005838D01*
X002055Y005997D02*
X002179Y005997D01*
X002147Y006155D02*
X002087Y006155D01*
X002087Y006314D02*
X002147Y006314D01*
X002201Y006472D02*
X002032Y006472D01*
X001874Y006631D02*
X002359Y006631D01*
X002422Y006753D02*
X002811Y006753D01*
X003087Y007029D01*
X003087Y007418D01*
X002811Y007693D01*
X002422Y007693D01*
X002147Y007418D01*
X002147Y007029D01*
X002422Y006753D01*
X002386Y006789D02*
X001847Y006789D01*
X002006Y006948D02*
X002228Y006948D01*
X002147Y007106D02*
X002087Y007106D01*
X002087Y007265D02*
X002147Y007265D01*
X002152Y007423D02*
X002081Y007423D01*
X001923Y007582D02*
X002310Y007582D01*
X002422Y007753D02*
X002811Y007753D01*
X003087Y008029D01*
X003087Y008418D01*
X002811Y008693D01*
X002422Y008693D01*
X002147Y008418D01*
X002147Y008029D01*
X002422Y007753D01*
X002277Y007899D02*
X001957Y007899D01*
X002087Y008057D02*
X002147Y008057D01*
X002147Y008216D02*
X002087Y008216D01*
X002087Y008374D02*
X002147Y008374D01*
X002261Y008533D02*
X001972Y008533D01*
X001813Y008691D02*
X002420Y008691D01*
X002422Y008753D02*
X002811Y008753D01*
X003087Y009029D01*
X003087Y009418D01*
X002811Y009693D01*
X002422Y009693D01*
X002147Y009418D01*
X002147Y009029D01*
X002422Y008753D01*
X002326Y008850D02*
X001908Y008850D01*
X002066Y009008D02*
X002167Y009008D01*
X002147Y009167D02*
X002087Y009167D01*
X002087Y009325D02*
X002147Y009325D01*
X002212Y009484D02*
X002021Y009484D01*
X001862Y009642D02*
X002371Y009642D01*
X002422Y009753D02*
X002811Y009753D01*
X003087Y010029D01*
X003087Y010418D01*
X002811Y010693D01*
X002422Y010693D01*
X002147Y010418D01*
X002147Y010029D01*
X002422Y009753D01*
X002375Y009801D02*
X001859Y009801D01*
X002017Y009959D02*
X002216Y009959D01*
X002147Y010118D02*
X002087Y010118D01*
X002087Y010276D02*
X002147Y010276D01*
X002163Y010435D02*
X002070Y010435D01*
X001911Y010593D02*
X002322Y010593D01*
X002422Y010753D02*
X002811Y010753D01*
X003087Y011029D01*
X003087Y011418D01*
X002811Y011693D01*
X002422Y011693D01*
X002147Y011418D01*
X002147Y011029D01*
X002422Y010753D01*
X002265Y010910D02*
X001968Y010910D01*
X002087Y011069D02*
X002147Y011069D01*
X002147Y011227D02*
X002087Y011227D01*
X002087Y011386D02*
X002147Y011386D01*
X002273Y011544D02*
X001960Y011544D01*
X001919Y011861D02*
X002314Y011861D01*
X002422Y011753D02*
X002811Y011753D01*
X003087Y012029D01*
X003087Y012418D01*
X002811Y012693D01*
X002422Y012693D01*
X002147Y012418D01*
X002147Y012029D01*
X002422Y011753D01*
X002156Y012020D02*
X002078Y012020D01*
X002087Y012178D02*
X002147Y012178D01*
X002147Y012337D02*
X002087Y012337D01*
X002009Y012495D02*
X002224Y012495D01*
X002382Y012654D02*
X001851Y012654D01*
X001870Y012812D02*
X002363Y012812D01*
X002422Y012753D02*
X002811Y012753D01*
X003087Y013029D01*
X003087Y013418D01*
X002811Y013693D01*
X002422Y013693D01*
X002147Y013418D01*
X002147Y013029D01*
X002422Y012753D01*
X002205Y012971D02*
X002029Y012971D01*
X002087Y013129D02*
X002147Y013129D01*
X002147Y013288D02*
X002087Y013288D01*
X002058Y013446D02*
X002175Y013446D01*
X002333Y013605D02*
X001900Y013605D01*
X001821Y013763D02*
X002412Y013763D01*
X002422Y013753D02*
X002811Y013753D01*
X003087Y014029D01*
X003087Y014418D01*
X002811Y014693D01*
X002422Y014693D01*
X002147Y014418D01*
X002147Y014029D01*
X002422Y013753D01*
X002254Y013922D02*
X001980Y013922D01*
X002087Y014080D02*
X002147Y014080D01*
X002147Y014239D02*
X002087Y014239D01*
X002087Y014397D02*
X002147Y014397D01*
X002284Y014556D02*
X001949Y014556D01*
X001931Y014873D02*
X002331Y014873D01*
X002430Y014773D02*
X002167Y015037D01*
X002167Y015213D01*
X002607Y015213D01*
X002627Y015213D01*
X002627Y015233D01*
X003067Y015233D01*
X003067Y015410D01*
X002803Y015673D01*
X002627Y015673D01*
X002627Y015233D01*
X002607Y015233D01*
X002607Y015673D01*
X002430Y015673D01*
X002167Y015410D01*
X002167Y015233D01*
X002607Y015233D01*
X002607Y015213D01*
X002607Y014773D01*
X002430Y014773D01*
X002627Y014773D02*
X002627Y015213D01*
X003067Y015213D01*
X003067Y015037D01*
X002803Y014773D01*
X002627Y014773D01*
X002627Y014873D02*
X002607Y014873D01*
X002607Y015031D02*
X002627Y015031D01*
X002627Y015190D02*
X002607Y015190D01*
X002617Y015223D02*
X002932Y015223D01*
X003251Y015542D01*
X003251Y016802D01*
X003349Y016704D01*
X003841Y016704D01*
X003793Y016616D02*
X003889Y016616D01*
X003889Y016458D02*
X003793Y016458D01*
X003793Y016299D02*
X003889Y016299D01*
X003819Y016141D02*
X003087Y016141D01*
X003087Y016029D02*
X002811Y015753D01*
X002422Y015753D01*
X002147Y016029D01*
X002147Y016418D01*
X002422Y016693D01*
X002811Y016693D01*
X003087Y016418D01*
X003087Y016029D01*
X003040Y015982D02*
X003790Y015982D01*
X003790Y015824D02*
X002882Y015824D01*
X002811Y015665D02*
X003691Y015665D01*
X003533Y015507D02*
X002970Y015507D01*
X003067Y015348D02*
X003374Y015348D01*
X003216Y015190D02*
X003067Y015190D01*
X003061Y015031D02*
X003127Y015031D01*
X003127Y014873D02*
X002902Y014873D01*
X003127Y014714D02*
X001356Y014714D01*
X002087Y015031D02*
X002172Y015031D01*
X002167Y015190D02*
X002087Y015190D01*
X002087Y015348D02*
X002167Y015348D01*
X002264Y015507D02*
X001998Y015507D01*
X001839Y015665D02*
X002422Y015665D01*
X002352Y015824D02*
X001882Y015824D01*
X002040Y015982D02*
X002193Y015982D01*
X002147Y016141D02*
X002087Y016141D01*
X002087Y016299D02*
X002147Y016299D01*
X002186Y016458D02*
X002047Y016458D01*
X001888Y016616D02*
X002345Y016616D01*
X002422Y016753D02*
X002811Y016753D01*
X003087Y017029D01*
X003087Y017418D01*
X002811Y017693D01*
X002422Y017693D01*
X002147Y017418D01*
X002147Y017029D01*
X002422Y016753D01*
X002401Y016775D02*
X001833Y016775D01*
X001991Y016933D02*
X002242Y016933D01*
X002147Y017092D02*
X002087Y017092D01*
X002087Y017250D02*
X002147Y017250D01*
X002147Y017409D02*
X002087Y017409D01*
X001937Y017567D02*
X002296Y017567D01*
X002422Y017753D02*
X002811Y017753D01*
X003087Y018029D01*
X003087Y018418D01*
X002811Y018693D01*
X002422Y018693D01*
X002147Y018418D01*
X002147Y018029D01*
X002422Y017753D01*
X002291Y017884D02*
X001942Y017884D01*
X002087Y018043D02*
X002147Y018043D01*
X002147Y018201D02*
X002087Y018201D01*
X002087Y018360D02*
X002147Y018360D01*
X002247Y018518D02*
X001986Y018518D01*
X001828Y018677D02*
X002405Y018677D01*
X002430Y018773D02*
X002167Y019037D01*
X002167Y019213D01*
X002607Y019213D01*
X002627Y019213D01*
X002627Y019233D01*
X003067Y019233D01*
X003067Y019410D01*
X002803Y019673D01*
X002627Y019673D01*
X002627Y019233D01*
X002607Y019233D01*
X002607Y019673D01*
X002430Y019673D01*
X002167Y019410D01*
X002167Y019233D01*
X002607Y019233D01*
X002607Y019213D01*
X002607Y018773D01*
X002430Y018773D01*
X002368Y018835D02*
X001893Y018835D01*
X002052Y018994D02*
X002210Y018994D01*
X002167Y019152D02*
X002087Y019152D01*
X002087Y019311D02*
X002167Y019311D01*
X002226Y019469D02*
X002035Y019469D01*
X001877Y019628D02*
X002385Y019628D01*
X002389Y019786D02*
X001816Y019786D01*
X001803Y019773D02*
X002067Y020037D01*
X002067Y020213D01*
X001627Y020213D01*
X001627Y019773D01*
X001803Y019773D01*
X001627Y019786D02*
X001607Y019786D01*
X001607Y019945D02*
X001627Y019945D01*
X001627Y020103D02*
X001607Y020103D01*
X001417Y019786D02*
X001356Y019786D01*
X001356Y019628D02*
X001356Y019628D01*
X001974Y019945D02*
X002231Y019945D01*
X002147Y020103D02*
X002067Y020103D01*
X002067Y020262D02*
X002147Y020262D01*
X002149Y020420D02*
X002056Y020420D01*
X001898Y020579D02*
X002307Y020579D01*
X002210Y020588D02*
X002210Y020588D01*
X002002Y021270D02*
X001918Y021354D01*
X001901Y021372D01*
X001919Y021390D01*
X001970Y021338D01*
X002060Y021338D01*
X002002Y021281D01*
X002002Y021281D01*
X002002Y021270D01*
X002002Y021281D02*
X002002Y021281D01*
X001937Y021371D02*
X001901Y021371D01*
X001560Y021455D02*
X001458Y021354D01*
X001458Y021048D01*
X001446Y021048D01*
X001356Y020958D01*
X001356Y022043D01*
X001542Y022043D01*
X001542Y021473D01*
X001544Y021471D01*
X001560Y021455D01*
X001542Y021530D02*
X001356Y021530D01*
X001356Y021688D02*
X001542Y021688D01*
X001542Y021847D02*
X001356Y021847D01*
X001356Y022005D02*
X001542Y022005D01*
X001476Y021371D02*
X001356Y021371D01*
X001356Y021213D02*
X001458Y021213D01*
X001458Y021054D02*
X001356Y021054D01*
X001356Y020679D02*
X001356Y020599D01*
X001396Y020639D01*
X001356Y020679D01*
X002660Y021377D02*
X002683Y021400D01*
X002744Y021338D01*
X002938Y021338D01*
X002839Y021306D01*
X002677Y021360D01*
X002660Y021377D01*
X002665Y021371D02*
X002711Y021371D01*
X003021Y021352D02*
X003143Y021473D01*
X003216Y021547D01*
X003216Y021737D01*
X003082Y021872D01*
X003028Y021872D01*
X003069Y021914D01*
X003069Y022043D01*
X015455Y022043D01*
X015405Y021993D01*
X015401Y021989D01*
X015401Y021815D01*
X015409Y021807D01*
X015409Y021803D01*
X015421Y021791D01*
X015421Y021787D01*
X015425Y021783D01*
X015433Y021775D01*
X015433Y021771D01*
X015441Y021763D01*
X015445Y021759D01*
X015445Y021755D01*
X015457Y021743D01*
X015457Y021739D01*
X015469Y021727D01*
X015469Y021723D01*
X015481Y021711D01*
X015481Y021707D01*
X015485Y021703D01*
X015493Y021695D01*
X015493Y021691D01*
X015501Y021683D01*
X015505Y021679D01*
X015505Y021675D01*
X015513Y021667D01*
X015513Y021663D01*
X015529Y021647D01*
X015529Y021643D01*
X015537Y021635D01*
X015537Y021631D01*
X015545Y021623D01*
X015549Y021619D01*
X015549Y021615D01*
X015561Y021603D01*
X015561Y021599D01*
X015573Y021587D01*
X015573Y021583D01*
X015585Y021571D01*
X015585Y021567D01*
X015589Y021563D01*
X015597Y021555D01*
X015597Y021551D01*
X015605Y021543D01*
X015606Y021542D01*
X015606Y021542D01*
X015602Y021538D01*
X015590Y021538D01*
X015586Y021534D01*
X015582Y021534D01*
X015578Y021530D01*
X015574Y021530D01*
X015570Y021526D01*
X015566Y021526D01*
X015562Y021522D01*
X015558Y021518D01*
X015554Y021518D01*
X015546Y021510D01*
X015546Y021510D01*
X015429Y021393D01*
X015425Y021389D01*
X015421Y021385D01*
X015417Y021381D01*
X015417Y021377D01*
X015413Y021373D01*
X015409Y021369D01*
X015409Y021365D01*
X015405Y021361D01*
X015405Y021357D01*
X015401Y021353D01*
X015401Y021345D01*
X015329Y021273D01*
X015325Y021269D01*
X015321Y021265D01*
X015317Y021261D01*
X015313Y021257D01*
X015313Y021253D01*
X015309Y021249D01*
X015309Y021241D01*
X015305Y021237D01*
X015305Y021059D01*
X015309Y021055D01*
X015309Y021043D01*
X015313Y021039D01*
X015313Y021035D01*
X015325Y021023D01*
X015409Y020939D01*
X015413Y020935D01*
X015413Y020931D01*
X015417Y020927D01*
X015417Y020919D01*
X015421Y020915D01*
X015421Y020911D01*
X015425Y020907D01*
X015425Y020903D01*
X015429Y020899D01*
X015429Y020895D01*
X015433Y020891D01*
X015433Y020887D01*
X015437Y020883D01*
X015437Y020879D01*
X015441Y020875D01*
X015441Y020871D01*
X015445Y020867D01*
X015445Y020863D01*
X015453Y020855D01*
X015453Y020851D01*
X015461Y020843D01*
X015461Y020839D01*
X015473Y020827D01*
X015473Y020823D01*
X015590Y020706D01*
X015594Y020702D01*
X015598Y020698D01*
X015602Y020694D01*
X015606Y020690D01*
X015610Y020686D01*
X015614Y020682D01*
X015618Y020678D01*
X015622Y020674D01*
X015626Y020674D01*
X015627Y020673D01*
X015627Y020673D01*
X015627Y020233D01*
X016067Y020233D01*
X016067Y020410D01*
X015838Y020638D01*
X016180Y020638D01*
X016184Y020642D01*
X016196Y020642D01*
X016200Y020646D01*
X016208Y020646D01*
X016212Y020650D01*
X016220Y020650D01*
X016224Y020654D01*
X016228Y020654D01*
X016232Y020658D01*
X016236Y020658D01*
X016240Y020662D01*
X016244Y020666D01*
X016248Y020666D01*
X016256Y020674D01*
X016260Y020674D01*
X016264Y020678D01*
X016268Y020682D01*
X016272Y020686D01*
X016276Y020690D01*
X016280Y020694D01*
X016284Y020698D01*
X016288Y020702D01*
X016292Y020706D01*
X016409Y020823D01*
X016409Y020827D01*
X016421Y020839D01*
X016421Y020843D01*
X016429Y020851D01*
X016429Y020855D01*
X016437Y020863D01*
X016437Y020867D01*
X016441Y020871D01*
X016441Y020875D01*
X016445Y020879D01*
X016445Y020883D01*
X016449Y020887D01*
X016449Y020891D01*
X016453Y020895D01*
X016453Y020899D01*
X016457Y020903D01*
X016457Y020907D01*
X016461Y020911D01*
X016461Y020915D01*
X016465Y020919D01*
X016465Y020927D01*
X016469Y020931D01*
X016469Y020935D01*
X016473Y020939D01*
X016473Y020939D01*
X016573Y021039D01*
X016573Y021047D01*
X016577Y021051D01*
X016577Y021059D01*
X016577Y021059D01*
X016577Y021237D01*
X016577Y021237D01*
X016577Y021241D01*
X016573Y021245D01*
X016573Y021253D01*
X016553Y021273D01*
X016465Y021361D01*
X016465Y021369D01*
X016461Y021373D01*
X016461Y021389D01*
X016344Y021506D01*
X016280Y021506D01*
X016262Y021524D01*
X016273Y021535D01*
X016273Y021539D01*
X016277Y021543D01*
X016285Y021551D01*
X016285Y021555D01*
X016293Y021563D01*
X016293Y021563D01*
X016297Y021567D01*
X016297Y021571D01*
X016309Y021583D01*
X016309Y021587D01*
X016321Y021599D01*
X016321Y021603D01*
X016333Y021615D01*
X016333Y021619D01*
X016345Y021631D01*
X016345Y021635D01*
X016353Y021643D01*
X016353Y021643D01*
X016357Y021647D01*
X016357Y021651D01*
X016357Y021651D01*
X016369Y021663D01*
X016369Y021667D01*
X016377Y021675D01*
X016377Y021679D01*
X016381Y021683D01*
X016389Y021691D01*
X016389Y021695D01*
X016397Y021703D01*
X016397Y021703D01*
X016401Y021707D01*
X016401Y021711D01*
X016413Y021723D01*
X016413Y021727D01*
X016425Y021739D01*
X016425Y021743D01*
X016437Y021755D01*
X016437Y021759D01*
X016441Y021763D01*
X016449Y021771D01*
X016449Y021775D01*
X016457Y021783D01*
X016461Y021787D01*
X016461Y021791D01*
X016473Y021803D01*
X016473Y021807D01*
X016481Y021815D01*
X016481Y021989D01*
X016477Y021993D01*
X016427Y022043D01*
X016878Y022043D01*
X016878Y020627D01*
X016811Y020693D01*
X016422Y020693D01*
X016147Y020418D01*
X016147Y020029D01*
X016422Y019753D01*
X016811Y019753D01*
X016878Y019819D01*
X016878Y019627D01*
X016811Y019693D01*
X016422Y019693D01*
X016147Y019418D01*
X016147Y019029D01*
X016422Y018753D01*
X016811Y018753D01*
X016878Y018819D01*
X016878Y018627D01*
X016811Y018693D01*
X016422Y018693D01*
X016147Y018418D01*
X016147Y018029D01*
X016422Y017753D01*
X016811Y017753D01*
X016878Y017819D01*
X016878Y017627D01*
X016811Y017693D01*
X016422Y017693D01*
X016147Y017418D01*
X016147Y017029D01*
X016422Y016753D01*
X016811Y016753D01*
X016878Y016819D01*
X016878Y016627D01*
X016811Y016693D01*
X016422Y016693D01*
X016147Y016418D01*
X016147Y016029D01*
X016422Y015753D01*
X016811Y015753D01*
X016878Y015819D01*
X016878Y015627D01*
X016811Y015693D01*
X016422Y015693D01*
X016147Y015418D01*
X016147Y015029D01*
X016422Y014753D01*
X016811Y014753D01*
X016878Y014819D01*
X016878Y014627D01*
X016811Y014693D01*
X016422Y014693D01*
X016147Y014418D01*
X016147Y014029D01*
X016422Y013753D01*
X016811Y013753D01*
X016878Y013819D01*
X016878Y013627D01*
X016811Y013693D01*
X016422Y013693D01*
X016147Y013418D01*
X016147Y013029D01*
X016422Y012753D01*
X016811Y012753D01*
X016878Y012819D01*
X016878Y012627D01*
X016811Y012693D01*
X016422Y012693D01*
X016147Y012418D01*
X016147Y012029D01*
X016422Y011753D01*
X016811Y011753D01*
X016878Y011819D01*
X016878Y011627D01*
X016811Y011693D01*
X016422Y011693D01*
X016147Y011418D01*
X016147Y011029D01*
X016422Y010753D01*
X016811Y010753D01*
X016878Y010819D01*
X016878Y010627D01*
X016811Y010693D01*
X016422Y010693D01*
X016147Y010418D01*
X016147Y010029D01*
X016422Y009753D01*
X016811Y009753D01*
X016878Y009819D01*
X016878Y009627D01*
X016811Y009693D01*
X016422Y009693D01*
X016147Y009418D01*
X016147Y009029D01*
X016422Y008753D01*
X016811Y008753D01*
X016878Y008819D01*
X016878Y008627D01*
X016811Y008693D01*
X016422Y008693D01*
X016147Y008418D01*
X016147Y008029D01*
X016422Y007753D01*
X016811Y007753D01*
X016878Y007819D01*
X016878Y007627D01*
X016811Y007693D01*
X016422Y007693D01*
X016147Y007418D01*
X016147Y007029D01*
X016422Y006753D01*
X016811Y006753D01*
X016878Y006819D01*
X016878Y006627D01*
X016811Y006693D01*
X016422Y006693D01*
X016147Y006418D01*
X016147Y006029D01*
X016422Y005753D01*
X016811Y005753D01*
X016878Y005819D01*
X016878Y005627D01*
X016811Y005693D01*
X016422Y005693D01*
X016147Y005418D01*
X016147Y005029D01*
X016422Y004753D01*
X016811Y004753D01*
X016878Y004819D01*
X016878Y004627D01*
X016811Y004693D01*
X016422Y004693D01*
X016147Y004418D01*
X016147Y004029D01*
X016422Y003753D01*
X016811Y003753D01*
X016878Y003819D01*
X016878Y003627D01*
X016811Y003693D01*
X016422Y003693D01*
X016147Y003418D01*
X016147Y003029D01*
X016197Y002978D01*
X016024Y002978D01*
X016087Y003130D01*
X016087Y003317D01*
X016015Y003490D01*
X015883Y003622D01*
X015710Y003693D01*
X015523Y003693D01*
X015350Y003622D01*
X015218Y003490D01*
X015147Y003317D01*
X015147Y003130D01*
X015209Y002978D01*
X007636Y002978D01*
X007785Y003040D01*
X008052Y003307D01*
X008151Y003546D01*
X008230Y003467D01*
X008543Y003337D01*
X008881Y003337D01*
X009193Y003467D01*
X009432Y003706D01*
X009562Y004018D01*
X009562Y004356D01*
X009432Y004669D01*
X009193Y004908D01*
X008881Y005037D01*
X008543Y005037D01*
X008230Y004908D01*
X007991Y004669D01*
X007925Y004510D01*
X007785Y004651D01*
X007436Y004795D01*
X007058Y004795D01*
X006708Y004651D01*
X006703Y004645D01*
X006694Y004654D01*
X006411Y004654D01*
X006411Y004310D01*
X006311Y004068D01*
X006311Y004654D01*
X006027Y004654D01*
X005556Y004183D01*
X005556Y003899D01*
X006297Y003899D01*
X006297Y003799D01*
X005556Y003799D01*
X005556Y003516D01*
X006027Y003044D01*
X006311Y003044D01*
X006311Y003622D01*
X006411Y003381D01*
X006411Y003044D01*
X006694Y003044D01*
X006699Y003049D01*
X006708Y003040D01*
X006858Y002978D01*
X004762Y002978D01*
X004911Y003040D01*
X005178Y003307D01*
X005323Y003656D01*
X005323Y004034D01*
X005178Y004383D01*
X004911Y004651D01*
X004618Y004772D01*
X004618Y006581D01*
X004696Y006659D01*
X004768Y006832D01*
X004768Y007559D01*
X004696Y007732D01*
X004564Y007864D01*
X004516Y007884D01*
X004596Y007964D01*
X004662Y008125D01*
X004662Y008402D01*
X004978Y008087D01*
X004978Y007810D01*
X004899Y007732D01*
X004828Y007559D01*
X004828Y006832D01*
X004899Y006659D01*
X004937Y006622D01*
X004834Y006519D01*
X004772Y006370D01*
X004772Y005792D01*
X004834Y005642D01*
X004949Y005527D01*
X005099Y005465D01*
X005154Y005465D01*
X005141Y005435D01*
X005141Y005297D01*
X005194Y005169D01*
X005292Y005071D01*
X005420Y005018D01*
X005559Y005018D01*
X005687Y005071D01*
X005785Y005169D01*
X005805Y005217D01*
X005824Y005169D01*
X005922Y005071D01*
X006050Y005018D01*
X006189Y005018D01*
X006317Y005071D01*
X006415Y005169D01*
X006468Y005297D01*
X006468Y005435D01*
X006447Y005485D01*
X006478Y005485D01*
X006553Y005500D01*
X006623Y005529D01*
X006687Y005572D01*
X006741Y005626D01*
X006783Y005689D01*
X006812Y005760D01*
X006827Y005835D01*
X006827Y005873D01*
X006827Y006327D01*
X006812Y006402D01*
X006783Y006472D01*
X006741Y006536D01*
X006687Y006590D01*
X006651Y006614D01*
X006696Y006659D01*
X006768Y006832D01*
X006768Y007559D01*
X006696Y007732D01*
X006564Y007864D01*
X006391Y007936D01*
X006204Y007936D01*
X006032Y007864D01*
X005899Y007732D01*
X005828Y007559D01*
X005828Y006832D01*
X005899Y006659D01*
X006032Y006527D01*
X006111Y006494D01*
X006096Y006472D01*
X005618Y006472D01*
X005618Y006581D02*
X005618Y006345D01*
X005587Y006271D01*
X005587Y006146D01*
X005612Y006171D01*
X005740Y006224D01*
X005879Y006224D01*
X006007Y006171D01*
X006052Y006126D01*
X006052Y006327D01*
X006067Y006402D01*
X006096Y006472D01*
X006052Y006314D02*
X005605Y006314D01*
X005596Y006155D02*
X005587Y006155D01*
X005618Y006581D02*
X005696Y006659D01*
X005768Y006832D01*
X005768Y007559D01*
X005696Y007732D01*
X005618Y007810D01*
X005618Y008283D01*
X005569Y008401D01*
X005365Y008604D01*
X005391Y008629D01*
X005450Y008772D01*
X005450Y008926D01*
X005391Y009069D01*
X005318Y009141D01*
X005696Y009141D01*
X005731Y009177D01*
X005766Y009141D01*
X006444Y009141D01*
X006493Y009191D01*
X009103Y006580D01*
X009103Y005099D01*
X009141Y005007D01*
X009535Y004613D01*
X009605Y004543D01*
X009697Y004505D01*
X011450Y004505D01*
X011542Y004543D01*
X011612Y004613D01*
X011758Y004759D01*
X011790Y004759D01*
X011972Y004834D01*
X012112Y004974D01*
X012187Y005156D01*
X012187Y005353D01*
X012112Y005535D01*
X011972Y005674D01*
X011790Y005749D01*
X011593Y005749D01*
X011563Y005737D01*
X011147Y006152D01*
X011147Y006355D01*
X011178Y006355D01*
X011338Y006196D01*
X011338Y006030D01*
X011455Y005913D01*
X011857Y005913D01*
X011974Y006030D01*
X011974Y006432D01*
X011861Y006546D01*
X011885Y006560D01*
X011918Y006593D01*
X011942Y006634D01*
X011954Y006680D01*
X011954Y006900D01*
X011656Y006900D01*
X011358Y006900D01*
X011358Y006844D01*
X011332Y006855D01*
X011147Y006855D01*
X011147Y007180D01*
X011030Y007297D01*
X010628Y007297D01*
X010590Y007259D01*
X010538Y007259D01*
X010538Y007606D01*
X011325Y007606D01*
X011443Y007723D01*
X011443Y008952D01*
X011325Y009069D01*
X010530Y009069D01*
X010413Y008952D01*
X010413Y008617D01*
X010389Y008617D01*
X010346Y008621D01*
X010334Y008617D01*
X010321Y008617D01*
X010281Y008601D01*
X010240Y008588D01*
X010230Y008580D01*
X010218Y008575D01*
X010188Y008544D01*
X010169Y008529D01*
X010063Y008529D01*
X009920Y008470D01*
X009842Y008392D01*
X009842Y008448D01*
X009842Y008717D01*
X009832Y008781D01*
X009812Y008844D01*
X009782Y008902D01*
X009744Y008955D01*
X009697Y009001D01*
X009644Y009040D01*
X009586Y009070D01*
X009524Y009090D01*
X009459Y009100D01*
X009426Y009100D01*
X009393Y009100D01*
X009329Y009090D01*
X009266Y009070D01*
X009208Y009040D01*
X009155Y009001D01*
X009109Y008955D01*
X009070Y008902D01*
X009040Y008844D01*
X009020Y008781D01*
X009010Y008717D01*
X009010Y008448D01*
X009426Y008448D01*
X009426Y009100D01*
X009426Y008448D01*
X009426Y008448D01*
X009426Y008448D01*
X009842Y008448D01*
X009426Y008448D01*
X009426Y008448D01*
X009432Y008217D01*
X009432Y008456D01*
X010337Y009361D01*
X010469Y009008D02*
X009688Y009008D01*
X009809Y008850D02*
X010413Y008850D01*
X010413Y008691D02*
X009842Y008691D01*
X009842Y008533D02*
X010173Y008533D01*
X010377Y008337D02*
X010140Y008141D01*
X010258Y008062D01*
X010258Y007038D01*
X010317Y006979D01*
X010829Y006979D01*
X011147Y006948D02*
X011358Y006948D01*
X011358Y006900D02*
X011656Y006900D01*
X011656Y006900D01*
X011656Y006900D01*
X011954Y006900D01*
X011954Y007121D01*
X011942Y007167D01*
X011918Y007208D01*
X011885Y007241D01*
X011844Y007265D01*
X011798Y007277D01*
X011656Y007277D01*
X011514Y007277D01*
X011468Y007265D01*
X011063Y007265D01*
X011147Y007106D02*
X011358Y007106D01*
X011358Y007121D02*
X011358Y006900D01*
X011358Y007121D02*
X011370Y007167D01*
X011394Y007208D01*
X011427Y007241D01*
X011468Y007265D01*
X011656Y007265D02*
X011656Y007265D01*
X011656Y007277D02*
X011656Y006900D01*
X011656Y006900D01*
X011656Y007277D01*
X011656Y007106D02*
X011656Y007106D01*
X011656Y006948D02*
X011656Y006948D01*
X011954Y006948D02*
X013241Y006948D01*
X013184Y006810D02*
X013184Y006471D01*
X013313Y006159D01*
X013552Y005920D01*
X013864Y005791D01*
X014203Y005791D01*
X014515Y005920D01*
X014754Y006159D01*
X014884Y006471D01*
X014884Y006810D01*
X014754Y007122D01*
X014515Y007361D01*
X014203Y007491D01*
X013864Y007491D01*
X013552Y007361D01*
X013313Y007122D01*
X013184Y006810D01*
X013184Y006789D02*
X011954Y006789D01*
X011940Y006631D02*
X013184Y006631D01*
X013184Y006472D02*
X011934Y006472D01*
X011974Y006314D02*
X013249Y006314D01*
X013317Y006155D02*
X011974Y006155D01*
X011941Y005997D02*
X013475Y005997D01*
X013750Y005838D02*
X011462Y005838D01*
X011371Y005997D02*
X011303Y005997D01*
X011338Y006155D02*
X011147Y006155D01*
X011147Y006314D02*
X011220Y006314D01*
X010511Y006308D02*
X010511Y006107D01*
X010296Y006107D01*
X010321Y006118D01*
X010392Y006188D01*
X010511Y006308D01*
X010511Y006155D02*
X010359Y006155D01*
X010081Y006585D02*
X007083Y009583D01*
X007083Y010075D01*
X007095Y010047D01*
X007204Y009938D01*
X007347Y009878D01*
X007501Y009878D01*
X007644Y009938D01*
X007753Y010047D01*
X007779Y010109D01*
X008188Y009700D01*
X008280Y009662D01*
X011690Y009662D01*
X012304Y009049D01*
X012108Y009049D01*
X012108Y008415D01*
X012525Y008415D01*
X012525Y008605D01*
X012547Y008553D01*
X012686Y008414D01*
X012861Y008341D01*
X012686Y008269D01*
X012547Y008130D01*
X012525Y008077D01*
X012525Y008260D01*
X012108Y008260D01*
X012108Y008415D01*
X011953Y008415D01*
X011953Y009049D01*
X011691Y009049D01*
X011646Y009037D01*
X011605Y009013D01*
X011571Y008979D01*
X011547Y008938D01*
X011535Y008893D01*
X011535Y008415D01*
X011953Y008415D01*
X011953Y008260D01*
X012108Y008260D01*
X012108Y007626D01*
X012369Y007626D01*
X012414Y007638D01*
X012456Y007662D01*
X012489Y007695D01*
X012492Y007701D01*
X012547Y007569D01*
X012686Y007429D01*
X012868Y007354D01*
X013065Y007354D01*
X013247Y007429D01*
X013386Y007569D01*
X013462Y007751D01*
X013462Y007948D01*
X013386Y008130D01*
X013247Y008269D01*
X013073Y008341D01*
X013247Y008414D01*
X013386Y008553D01*
X013462Y008735D01*
X013462Y008932D01*
X013386Y009114D01*
X013273Y009227D01*
X013386Y009340D01*
X013462Y009522D01*
X013462Y009719D01*
X013386Y009901D01*
X013247Y010041D01*
X013065Y010116D01*
X012868Y010116D01*
X012686Y010041D01*
X012547Y009901D01*
X012471Y009719D01*
X012471Y009588D01*
X012006Y010054D01*
X011935Y010124D01*
X011844Y010162D01*
X008433Y010162D01*
X007988Y010607D01*
X009786Y010607D01*
X009865Y010528D01*
X010008Y010469D01*
X010162Y010469D01*
X010305Y010528D01*
X010414Y010637D01*
X010473Y010780D01*
X010473Y010934D01*
X010414Y011077D01*
X010305Y011186D01*
X010252Y011208D01*
X011188Y011208D01*
X011193Y011214D01*
X011219Y011189D01*
X011414Y011189D01*
X011274Y011048D01*
X011205Y011048D01*
X011062Y010989D01*
X010953Y010880D01*
X010894Y010737D01*
X010894Y010583D01*
X010953Y010440D01*
X011062Y010331D01*
X011205Y010272D01*
X011359Y010272D01*
X011502Y010331D01*
X011611Y010440D01*
X011670Y010583D01*
X011670Y010652D01*
X011992Y010974D01*
X012071Y011053D01*
X012113Y011156D01*
X012113Y011189D01*
X012448Y011189D01*
X012565Y011306D01*
X012565Y012062D01*
X012448Y012179D01*
X011247Y012179D01*
X011188Y012238D01*
X009959Y012238D01*
X009842Y012121D01*
X009842Y011325D01*
X009947Y011220D01*
X009865Y011186D01*
X009786Y011107D01*
X009640Y011107D01*
X009721Y011188D01*
X009780Y011331D01*
X009780Y011486D01*
X009721Y011628D01*
X009612Y011737D01*
X009469Y011796D01*
X009315Y011796D01*
X009172Y011737D01*
X009063Y011628D01*
X009004Y011486D01*
X009004Y011343D01*
X008433Y011343D01*
X008469Y011364D01*
X008503Y011397D01*
X008526Y011438D01*
X008539Y011484D01*
X008539Y011803D01*
X008307Y011803D01*
X008307Y011803D01*
X008539Y011803D01*
X008539Y012081D01*
X008589Y012102D01*
X008659Y012172D01*
X009929Y013442D01*
X011337Y013442D01*
X011428Y013480D01*
X012369Y014420D01*
X012439Y014490D01*
X012477Y014582D01*
X012477Y014826D01*
X012492Y014820D01*
X012628Y014820D01*
X012645Y014815D01*
X012677Y014820D01*
X012699Y014820D01*
X012572Y014693D01*
X012496Y014511D01*
X012496Y014314D01*
X012497Y014313D01*
X011596Y013412D01*
X011566Y013341D01*
X011219Y013341D01*
X011182Y013304D01*
X011174Y013308D01*
X011129Y013321D01*
X010651Y013321D01*
X010651Y012903D01*
X010496Y012903D01*
X010496Y012748D01*
X010651Y012748D01*
X010651Y012331D01*
X011129Y012331D01*
X011174Y012343D01*
X011207Y012362D01*
X011219Y012350D01*
X012448Y012350D01*
X012565Y012467D01*
X012565Y013223D01*
X012448Y013341D01*
X012316Y013341D01*
X012893Y013917D01*
X013090Y013917D01*
X013272Y013992D01*
X013411Y014132D01*
X013487Y014314D01*
X013487Y014511D01*
X013411Y014693D01*
X013272Y014832D01*
X013098Y014904D01*
X013272Y014977D01*
X013411Y015116D01*
X013487Y015298D01*
X013487Y015495D01*
X013411Y015677D01*
X013298Y015790D01*
X013411Y015903D01*
X013487Y016085D01*
X013487Y016282D01*
X013411Y016464D01*
X013272Y016604D01*
X013090Y016679D01*
X012893Y016679D01*
X012711Y016604D01*
X012647Y016540D01*
X012098Y016540D01*
X012007Y016502D01*
X011936Y016432D01*
X011818Y016314D01*
X011780Y016222D01*
X011780Y014819D01*
X011100Y014139D01*
X009878Y014139D01*
X010676Y014937D01*
X010746Y015007D01*
X010784Y015099D01*
X010784Y018224D01*
X011122Y018561D01*
X011122Y018533D01*
X011756Y018533D01*
X011756Y018951D01*
X011511Y018951D01*
X011825Y019264D01*
X011855Y019252D01*
X012052Y019252D01*
X012234Y019327D01*
X012374Y019466D01*
X012446Y019641D01*
X012518Y019466D01*
X012658Y019327D01*
X012840Y019252D01*
X013037Y019252D01*
X013219Y019327D01*
X013358Y019466D01*
X013433Y019648D01*
X013433Y019846D01*
X013358Y020028D01*
X013219Y020167D01*
X013037Y020242D01*
X012840Y020242D01*
X012658Y020167D01*
X012518Y020028D01*
X012446Y019853D01*
X012374Y020028D01*
X012234Y020167D01*
X012052Y020242D01*
X011855Y020242D01*
X011673Y020167D01*
X011560Y020054D01*
X011447Y020167D01*
X011265Y020242D01*
X011068Y020242D01*
X010886Y020167D01*
X010747Y020028D01*
X010671Y019846D01*
X010671Y019648D01*
X010684Y019618D01*
X010676Y019610D01*
X010638Y019519D01*
X010638Y019198D01*
X010631Y019203D01*
X010607Y019208D01*
X010584Y019217D01*
X010558Y019217D01*
X010534Y019222D01*
X010509Y019217D01*
X010406Y019217D01*
X010314Y019179D01*
X010243Y019109D01*
X010125Y018991D01*
X010087Y018899D01*
X010087Y015370D01*
X009387Y014670D01*
X009387Y014714D01*
X009328Y014856D01*
X009218Y014966D01*
X009076Y015025D01*
X008921Y015025D01*
X008779Y014966D01*
X008700Y014887D01*
X008594Y014887D01*
X008503Y014849D01*
X008432Y014778D01*
X008078Y014424D01*
X008070Y014404D01*
X008057Y014404D01*
X008786Y015133D01*
X008856Y015204D01*
X008894Y015296D01*
X008894Y015598D01*
X008973Y015677D01*
X009010Y015765D01*
X009010Y015748D01*
X009426Y015748D01*
X009426Y016400D01*
X009393Y016400D01*
X009329Y016390D01*
X009266Y016370D01*
X009208Y016340D01*
X009155Y016301D01*
X009109Y016255D01*
X009070Y016202D01*
X009040Y016144D01*
X009020Y016081D01*
X009011Y016025D01*
X008973Y016116D01*
X008864Y016226D01*
X008738Y016278D01*
X008825Y016365D01*
X008825Y017042D01*
X008789Y017078D01*
X008825Y017113D01*
X008825Y017790D01*
X008707Y017908D01*
X008521Y017908D01*
X008521Y017982D01*
X008461Y018124D01*
X008352Y018233D01*
X008210Y018292D01*
X008055Y018292D01*
X007913Y018233D01*
X007831Y018152D01*
X007831Y018310D01*
X007959Y018363D01*
X008068Y018472D01*
X008127Y018615D01*
X008127Y018769D01*
X008068Y018912D01*
X007959Y019021D01*
X007816Y019080D01*
X007662Y019080D01*
X007519Y019021D01*
X007516Y019018D01*
X007516Y019883D01*
X007478Y019975D01*
X007360Y020093D01*
X007290Y020164D01*
X007198Y020202D01*
X006911Y020202D01*
X006962Y020253D01*
X007024Y020402D01*
X007024Y020564D01*
X006962Y020714D01*
X006848Y020828D01*
X006698Y020890D01*
X006536Y020890D01*
X006386Y020828D01*
X006272Y020714D01*
X006210Y020564D01*
X006210Y020402D01*
X006272Y020253D01*
X006323Y020202D01*
X005725Y020202D01*
X006041Y020518D01*
X006090Y020636D01*
X006090Y020933D01*
X006683Y020933D01*
X006770Y021019D01*
X008109Y019680D01*
X008226Y019632D01*
X009495Y019632D01*
X009613Y019680D01*
X009707Y019774D01*
X009707Y019765D01*
X010164Y019765D01*
X010164Y019729D01*
X009707Y019729D01*
X009707Y019710D01*
X009719Y019636D01*
X009742Y019565D01*
X009776Y019498D01*
X009820Y019437D01*
X009873Y019384D01*
X009933Y019341D01*
X010000Y019307D01*
X010071Y019283D01*
X010145Y019272D01*
X010164Y019272D01*
X010164Y019729D01*
X010201Y019729D01*
X010201Y019765D01*
X010657Y019765D01*
X010657Y019784D01*
X010646Y019858D01*
X010623Y019929D01*
X010589Y019996D01*
X010545Y020057D01*
X010492Y020110D01*
X010431Y020153D01*
X010365Y020187D01*
X010293Y020211D01*
X010220Y020222D01*
X010201Y020222D01*
X010201Y019765D01*
X010164Y019765D01*
X010164Y020222D01*
X010155Y020222D01*
X010164Y020232D01*
X010254Y020322D01*
X010303Y020439D01*
X010303Y020685D01*
X010400Y020725D01*
X010509Y020834D01*
X010568Y020977D01*
X010568Y021131D01*
X010509Y021274D01*
X010400Y021383D01*
X010257Y021442D01*
X010102Y021442D01*
X009960Y021383D01*
X009851Y021274D01*
X009792Y021131D01*
X009792Y021118D01*
X009774Y021101D01*
X009694Y021295D01*
X009455Y021535D01*
X009143Y021664D01*
X008804Y021664D01*
X008492Y021535D01*
X008253Y021295D01*
X008124Y020983D01*
X008124Y020645D01*
X008176Y020518D01*
X006975Y021719D01*
X006857Y021768D01*
X006800Y021768D01*
X006800Y021846D01*
X006683Y021963D01*
X004857Y021963D01*
X004740Y021846D01*
X004740Y021768D01*
X003777Y021768D01*
X003660Y021719D01*
X003185Y021244D01*
X003174Y021275D01*
X003021Y021352D01*
X003041Y021371D02*
X003312Y021371D01*
X003199Y021530D02*
X003471Y021530D01*
X003629Y021688D02*
X003216Y021688D01*
X003107Y021847D02*
X004741Y021847D01*
X004740Y021054D02*
X003900Y021054D01*
X003742Y020896D02*
X005450Y020896D01*
X005355Y020737D02*
X005206Y020737D01*
X005785Y020262D02*
X006268Y020262D01*
X006210Y020420D02*
X005943Y020420D01*
X006066Y020579D02*
X006216Y020579D01*
X006295Y020737D02*
X006090Y020737D01*
X006090Y020896D02*
X006893Y020896D01*
X006939Y020737D02*
X007052Y020737D01*
X007018Y020579D02*
X007210Y020579D01*
X007369Y020420D02*
X007024Y020420D01*
X006966Y020262D02*
X007527Y020262D01*
X007686Y020103D02*
X007350Y020103D01*
X007491Y019945D02*
X007844Y019945D01*
X008003Y019786D02*
X007516Y019786D01*
X007516Y019628D02*
X009721Y019628D01*
X009797Y019469D02*
X007516Y019469D01*
X007516Y019311D02*
X009992Y019311D01*
X010164Y019311D02*
X010201Y019311D01*
X010201Y019272D02*
X010220Y019272D01*
X010293Y019283D01*
X010365Y019307D01*
X010431Y019341D01*
X010492Y019384D01*
X010545Y019437D01*
X010589Y019498D01*
X010623Y019565D01*
X010646Y019636D01*
X010657Y019710D01*
X010657Y019729D01*
X010201Y019729D01*
X010201Y019272D01*
X010287Y019152D02*
X007516Y019152D01*
X007986Y018994D02*
X010128Y018994D01*
X010087Y018835D02*
X008099Y018835D01*
X008127Y018677D02*
X010087Y018677D01*
X010087Y018518D02*
X008087Y018518D01*
X007951Y018360D02*
X010087Y018360D01*
X010087Y018201D02*
X008384Y018201D01*
X008495Y018043D02*
X010087Y018043D01*
X010087Y017884D02*
X008731Y017884D01*
X008825Y017726D02*
X010087Y017726D01*
X010087Y017567D02*
X008825Y017567D01*
X008825Y017409D02*
X010087Y017409D01*
X010087Y017250D02*
X008825Y017250D01*
X008803Y017092D02*
X010087Y017092D01*
X010087Y016933D02*
X008825Y016933D01*
X008825Y016775D02*
X010087Y016775D01*
X010087Y016616D02*
X008825Y016616D01*
X008825Y016458D02*
X010087Y016458D01*
X010087Y016299D02*
X009699Y016299D01*
X009697Y016301D02*
X009644Y016340D01*
X009586Y016370D01*
X009524Y016390D01*
X009459Y016400D01*
X009426Y016400D01*
X009426Y015748D01*
X009426Y015748D01*
X009426Y015748D01*
X009842Y015748D01*
X009842Y016017D01*
X009832Y016081D01*
X009812Y016144D01*
X009782Y016202D01*
X009744Y016255D01*
X009697Y016301D01*
X009813Y016141D02*
X010087Y016141D01*
X010087Y015982D02*
X009842Y015982D01*
X009786Y016054D02*
X009786Y016802D01*
X009235Y017353D01*
X009235Y018456D01*
X009038Y018456D01*
X009235Y018456D02*
X009235Y019479D01*
X010164Y019469D02*
X010201Y019469D01*
X010201Y019628D02*
X010164Y019628D01*
X010164Y019786D02*
X010201Y019786D01*
X010201Y019945D02*
X010164Y019945D01*
X010164Y020103D02*
X010201Y020103D01*
X010194Y020262D02*
X013497Y020262D01*
X013426Y020332D02*
X013665Y020093D01*
X013978Y019964D01*
X014316Y019964D01*
X014628Y020093D01*
X014867Y020332D01*
X014997Y020645D01*
X014997Y020983D01*
X014867Y021295D01*
X014628Y021535D01*
X014316Y021664D01*
X013978Y021664D01*
X013665Y021535D01*
X013426Y021295D01*
X013297Y020983D01*
X013297Y020645D01*
X013426Y020332D01*
X013390Y020420D02*
X010295Y020420D01*
X010303Y020579D02*
X013324Y020579D01*
X013297Y020737D02*
X010412Y020737D01*
X010534Y020896D02*
X013297Y020896D01*
X013326Y021054D02*
X010568Y021054D01*
X010534Y021213D02*
X013392Y021213D01*
X013502Y021371D02*
X010411Y021371D01*
X009948Y021371D02*
X009618Y021371D01*
X009728Y021213D02*
X009825Y021213D01*
X009460Y021530D02*
X013660Y021530D01*
X014633Y021530D02*
X015573Y021530D01*
X015562Y021522D02*
X015562Y021522D01*
X015605Y021543D02*
X015605Y021543D01*
X015589Y021563D02*
X015589Y021563D01*
X015545Y021623D02*
X015545Y021623D01*
X015501Y021683D02*
X015501Y021683D01*
X015496Y021688D02*
X007006Y021688D01*
X007164Y021530D02*
X008487Y021530D01*
X008329Y021371D02*
X007323Y021371D01*
X007481Y021213D02*
X008219Y021213D01*
X008153Y021054D02*
X007640Y021054D01*
X007798Y020896D02*
X008124Y020896D01*
X008124Y020737D02*
X007957Y020737D01*
X008115Y020579D02*
X008151Y020579D01*
X006799Y021847D02*
X015401Y021847D01*
X015425Y021783D02*
X015425Y021783D01*
X015441Y021763D02*
X015441Y021763D01*
X015485Y021703D02*
X015485Y021703D01*
X015405Y021993D02*
X015405Y021993D01*
X015417Y022005D02*
X003069Y022005D01*
X003583Y020737D02*
X004563Y020737D01*
X004484Y020579D02*
X003425Y020579D01*
X003266Y020420D02*
X004477Y020420D01*
X004536Y020262D02*
X003108Y020262D01*
X003087Y020103D02*
X004721Y020103D01*
X004563Y019945D02*
X003003Y019945D01*
X002844Y019786D02*
X004423Y019786D01*
X004526Y019908D02*
X004526Y019908D01*
X004387Y019628D02*
X002849Y019628D01*
X002627Y019628D02*
X002607Y019628D01*
X002607Y019469D02*
X002627Y019469D01*
X002627Y019311D02*
X002607Y019311D01*
X002617Y019223D02*
X003251Y018589D01*
X003251Y016802D01*
X003366Y016775D02*
X002833Y016775D01*
X002888Y016616D02*
X003366Y016616D01*
X003366Y016458D02*
X003047Y016458D01*
X003087Y016299D02*
X003443Y016299D01*
X003366Y016933D02*
X002991Y016933D01*
X003087Y017092D02*
X003367Y017092D01*
X003346Y017250D02*
X003087Y017250D01*
X003087Y017409D02*
X003346Y017409D01*
X003346Y017567D02*
X002937Y017567D01*
X002942Y017884D02*
X003440Y017884D01*
X003346Y017726D02*
X001356Y017726D01*
X001356Y016775D02*
X001401Y016775D01*
X001356Y015665D02*
X001394Y015665D01*
X002607Y015665D02*
X002627Y015665D01*
X002627Y015507D02*
X002607Y015507D01*
X002607Y015348D02*
X002627Y015348D01*
X002949Y014556D02*
X003127Y014556D01*
X003127Y014397D02*
X003087Y014397D01*
X003087Y014239D02*
X003127Y014239D01*
X003127Y014080D02*
X003087Y014080D01*
X003127Y013922D02*
X002980Y013922D01*
X003127Y013763D02*
X002821Y013763D01*
X002900Y013605D02*
X003127Y013605D01*
X003127Y013446D02*
X003058Y013446D01*
X003087Y013288D02*
X003127Y013288D01*
X003127Y013129D02*
X003087Y013129D01*
X003127Y012971D02*
X003029Y012971D01*
X003127Y012812D02*
X002870Y012812D01*
X002851Y012654D02*
X003127Y012654D01*
X003127Y012495D02*
X003009Y012495D01*
X003087Y012337D02*
X003127Y012337D01*
X003127Y012178D02*
X003087Y012178D01*
X003078Y012020D02*
X003127Y012020D01*
X003127Y011861D02*
X002919Y011861D01*
X003127Y011703D02*
X001356Y011703D01*
X001356Y010752D02*
X003127Y010752D01*
X003127Y010910D02*
X002968Y010910D01*
X003087Y011069D02*
X003127Y011069D01*
X003127Y011227D02*
X003087Y011227D01*
X003087Y011386D02*
X003127Y011386D01*
X003127Y011544D02*
X002960Y011544D01*
X003767Y011544D02*
X003875Y011544D01*
X003875Y011386D02*
X003767Y011386D01*
X003767Y011227D02*
X003875Y011227D01*
X003875Y011069D02*
X003767Y011069D01*
X003767Y010910D02*
X003875Y010910D01*
X003875Y010752D02*
X003767Y010752D01*
X003767Y010593D02*
X003875Y010593D01*
X003875Y010435D02*
X003767Y010435D01*
X003767Y010276D02*
X003875Y010276D01*
X003875Y010118D02*
X003767Y010118D01*
X003767Y009959D02*
X003875Y009959D01*
X003875Y009809D02*
X003924Y009692D01*
X004387Y009229D01*
X004387Y009089D01*
X004313Y009120D01*
X004139Y009120D01*
X003979Y009054D01*
X003856Y008931D01*
X003790Y008771D01*
X003790Y008125D01*
X003856Y007964D01*
X003979Y007842D01*
X004000Y007833D01*
X003899Y007732D01*
X003828Y007559D01*
X003828Y006832D01*
X003899Y006659D01*
X003978Y006581D01*
X003978Y006531D01*
X003816Y006531D01*
X003767Y006580D01*
X003767Y014836D01*
X004045Y015114D01*
X004139Y015075D01*
X004313Y015075D01*
X004387Y015106D01*
X004387Y015045D01*
X003924Y014582D01*
X003875Y014464D01*
X003875Y009809D01*
X003879Y009801D02*
X003767Y009801D01*
X003767Y009642D02*
X003974Y009642D01*
X004132Y009484D02*
X003767Y009484D01*
X003767Y009325D02*
X004291Y009325D01*
X004387Y009167D02*
X003767Y009167D01*
X003767Y009008D02*
X003933Y009008D01*
X003823Y008850D02*
X003767Y008850D01*
X003767Y008691D02*
X003790Y008691D01*
X003790Y008533D02*
X003767Y008533D01*
X003767Y008374D02*
X003790Y008374D01*
X003790Y008216D02*
X003767Y008216D01*
X003767Y008057D02*
X003818Y008057D01*
X003767Y007899D02*
X003922Y007899D01*
X003908Y007740D02*
X003767Y007740D01*
X003767Y007582D02*
X003837Y007582D01*
X003828Y007423D02*
X003767Y007423D01*
X003767Y007265D02*
X003828Y007265D01*
X003828Y007106D02*
X003767Y007106D01*
X003767Y006948D02*
X003828Y006948D01*
X003846Y006789D02*
X003767Y006789D01*
X003767Y006631D02*
X003928Y006631D01*
X003978Y005838D02*
X002896Y005838D01*
X002825Y005680D02*
X003978Y005680D01*
X003978Y005521D02*
X002983Y005521D01*
X003087Y005363D02*
X003978Y005363D01*
X003978Y005204D02*
X003087Y005204D01*
X003087Y005046D02*
X003978Y005046D01*
X003978Y004887D02*
X002945Y004887D01*
X002934Y004570D02*
X003754Y004570D01*
X003595Y004412D02*
X003087Y004412D01*
X003087Y004253D02*
X003513Y004253D01*
X003448Y004095D02*
X003087Y004095D01*
X002994Y003936D02*
X003423Y003936D01*
X003423Y003778D02*
X002836Y003778D01*
X002885Y003619D02*
X003438Y003619D01*
X003504Y003461D02*
X003044Y003461D01*
X003087Y003302D02*
X003572Y003302D01*
X003731Y003144D02*
X003087Y003144D01*
X003043Y002985D02*
X003967Y002985D01*
X004778Y002985D02*
X006841Y002985D01*
X006411Y003144D02*
X006311Y003144D01*
X006311Y003302D02*
X006411Y003302D01*
X006378Y003461D02*
X006311Y003461D01*
X006311Y003619D02*
X006312Y003619D01*
X006311Y004095D02*
X006322Y004095D01*
X006311Y004253D02*
X006387Y004253D01*
X006411Y004412D02*
X006311Y004412D01*
X006311Y004570D02*
X006411Y004570D01*
X005943Y004570D02*
X004991Y004570D01*
X005150Y004412D02*
X005785Y004412D01*
X005626Y004253D02*
X005232Y004253D01*
X005298Y004095D02*
X005556Y004095D01*
X005556Y003936D02*
X005323Y003936D01*
X005323Y003778D02*
X005556Y003778D01*
X005556Y003619D02*
X005307Y003619D01*
X005242Y003461D02*
X005611Y003461D01*
X005769Y003302D02*
X005173Y003302D01*
X005014Y003144D02*
X005928Y003144D01*
X006897Y004729D02*
X004722Y004729D01*
X004618Y004887D02*
X008209Y004887D01*
X008051Y004729D02*
X007596Y004729D01*
X007865Y004570D02*
X007950Y004570D01*
X008116Y003461D02*
X008245Y003461D01*
X008047Y003302D02*
X015147Y003302D01*
X015147Y003144D02*
X007888Y003144D01*
X007652Y002985D02*
X015207Y002985D01*
X015206Y003461D02*
X014352Y003461D01*
X014366Y003467D02*
X014605Y003706D01*
X014735Y004018D01*
X014735Y004356D01*
X014605Y004669D01*
X014366Y004908D01*
X014054Y005037D01*
X013716Y005037D01*
X013403Y004908D01*
X013164Y004669D01*
X013035Y004356D01*
X013035Y004018D01*
X013164Y003706D01*
X013403Y003467D01*
X013716Y003337D01*
X014054Y003337D01*
X014366Y003467D01*
X014519Y003619D02*
X015348Y003619D01*
X015422Y003753D02*
X015811Y003753D01*
X016087Y004029D01*
X016087Y004418D01*
X015811Y004693D01*
X015422Y004693D01*
X015147Y004418D01*
X015147Y004029D01*
X015422Y003753D01*
X015398Y003778D02*
X014635Y003778D01*
X014701Y003936D02*
X015239Y003936D01*
X015147Y004095D02*
X014735Y004095D01*
X014735Y004253D02*
X015147Y004253D01*
X015147Y004412D02*
X014712Y004412D01*
X014646Y004570D02*
X015299Y004570D01*
X015422Y004753D02*
X015811Y004753D01*
X016087Y005029D01*
X016087Y005418D01*
X015811Y005693D01*
X015422Y005693D01*
X015147Y005418D01*
X015147Y005029D01*
X015422Y004753D01*
X015288Y004887D02*
X014387Y004887D01*
X014546Y004729D02*
X016878Y004729D01*
X016299Y004570D02*
X015934Y004570D01*
X016087Y004412D02*
X016147Y004412D01*
X016147Y004253D02*
X016087Y004253D01*
X016087Y004095D02*
X016147Y004095D01*
X016239Y003936D02*
X015994Y003936D01*
X015836Y003778D02*
X016398Y003778D01*
X016348Y003619D02*
X015885Y003619D01*
X016027Y003461D02*
X016189Y003461D01*
X016147Y003302D02*
X016087Y003302D01*
X016087Y003144D02*
X016147Y003144D01*
X016190Y002985D02*
X016027Y002985D01*
X016836Y003778D02*
X016878Y003778D01*
X016288Y004887D02*
X015945Y004887D01*
X016087Y005046D02*
X016147Y005046D01*
X016147Y005204D02*
X016087Y005204D01*
X016087Y005363D02*
X016147Y005363D01*
X016250Y005521D02*
X015983Y005521D01*
X015825Y005680D02*
X016408Y005680D01*
X016337Y005838D02*
X015896Y005838D01*
X015811Y005753D02*
X016087Y006029D01*
X016087Y006418D01*
X015811Y006693D01*
X015422Y006693D01*
X015147Y006418D01*
X015147Y006029D01*
X015422Y005753D01*
X015811Y005753D01*
X016055Y005997D02*
X016179Y005997D01*
X016147Y006155D02*
X016087Y006155D01*
X016087Y006314D02*
X016147Y006314D01*
X016201Y006472D02*
X016032Y006472D01*
X015874Y006631D02*
X016359Y006631D01*
X016386Y006789D02*
X015847Y006789D01*
X015811Y006753D02*
X016087Y007029D01*
X016087Y007418D01*
X015811Y007693D01*
X015422Y007693D01*
X015147Y007418D01*
X015147Y007029D01*
X015422Y006753D01*
X015811Y006753D01*
X016006Y006948D02*
X016228Y006948D01*
X016147Y007106D02*
X016087Y007106D01*
X016087Y007265D02*
X016147Y007265D01*
X016152Y007423D02*
X016081Y007423D01*
X015923Y007582D02*
X016310Y007582D01*
X016277Y007899D02*
X015957Y007899D01*
X016087Y008029D02*
X015811Y007753D01*
X015422Y007753D01*
X015147Y008029D01*
X015147Y008418D01*
X015422Y008693D01*
X015811Y008693D01*
X016087Y008418D01*
X016087Y008029D01*
X016087Y008057D02*
X016147Y008057D01*
X016147Y008216D02*
X016087Y008216D01*
X016087Y008374D02*
X016147Y008374D01*
X016261Y008533D02*
X015972Y008533D01*
X015813Y008691D02*
X016420Y008691D01*
X016326Y008850D02*
X015908Y008850D01*
X015811Y008753D02*
X016087Y009029D01*
X016087Y009418D01*
X015811Y009693D01*
X015422Y009693D01*
X015147Y009418D01*
X015147Y009029D01*
X015422Y008753D01*
X015811Y008753D01*
X016066Y009008D02*
X016167Y009008D01*
X016147Y009167D02*
X016087Y009167D01*
X016087Y009325D02*
X016147Y009325D01*
X016212Y009484D02*
X016021Y009484D01*
X015862Y009642D02*
X016371Y009642D01*
X016375Y009801D02*
X015830Y009801D01*
X015803Y009773D02*
X016067Y010037D01*
X016067Y010213D01*
X015627Y010213D01*
X015627Y010233D01*
X016067Y010233D01*
X016067Y010410D01*
X015803Y010673D01*
X015627Y010673D01*
X015627Y010233D01*
X015607Y010233D01*
X015607Y010673D01*
X015430Y010673D01*
X015167Y010410D01*
X015167Y010233D01*
X015607Y010233D01*
X015607Y010213D01*
X015627Y010213D01*
X015627Y009773D01*
X015803Y009773D01*
X015627Y009801D02*
X015607Y009801D01*
X015607Y009773D02*
X015607Y010213D01*
X015167Y010213D01*
X015167Y010037D01*
X015430Y009773D01*
X015607Y009773D01*
X015607Y009959D02*
X015627Y009959D01*
X015627Y010118D02*
X015607Y010118D01*
X015607Y010276D02*
X015627Y010276D01*
X015627Y010435D02*
X015607Y010435D01*
X015607Y010593D02*
X015627Y010593D01*
X015811Y010753D02*
X015422Y010753D01*
X015147Y011029D01*
X015147Y011418D01*
X015422Y011693D01*
X015811Y011693D01*
X016087Y011418D01*
X016087Y011029D01*
X015811Y010753D01*
X015883Y010593D02*
X016322Y010593D01*
X016163Y010435D02*
X016042Y010435D01*
X016067Y010276D02*
X016147Y010276D01*
X016147Y010118D02*
X016067Y010118D01*
X015989Y009959D02*
X016216Y009959D01*
X016859Y009801D02*
X016878Y009801D01*
X016862Y009642D02*
X016878Y009642D01*
X016878Y008691D02*
X016813Y008691D01*
X016878Y007740D02*
X013457Y007740D01*
X013462Y007899D02*
X015277Y007899D01*
X015147Y008057D02*
X013417Y008057D01*
X013301Y008216D02*
X015147Y008216D01*
X015147Y008374D02*
X013152Y008374D01*
X013366Y008533D02*
X015261Y008533D01*
X015420Y008691D02*
X013444Y008691D01*
X013462Y008850D02*
X015326Y008850D01*
X015167Y009008D02*
X013430Y009008D01*
X013334Y009167D02*
X015147Y009167D01*
X015147Y009325D02*
X013371Y009325D01*
X013446Y009484D02*
X015212Y009484D01*
X015371Y009642D02*
X013462Y009642D01*
X013428Y009801D02*
X015403Y009801D01*
X015244Y009959D02*
X013329Y009959D01*
X013216Y010199D02*
X013276Y010243D01*
X013329Y010296D01*
X013373Y010356D01*
X013407Y010423D01*
X013430Y010494D01*
X013442Y010568D01*
X013442Y010587D01*
X012985Y010587D01*
X012985Y010624D01*
X012948Y010624D01*
X012948Y011080D01*
X012929Y011080D01*
X012855Y011069D01*
X012077Y011069D01*
X011992Y010974D02*
X011992Y010974D01*
X011928Y010910D02*
X012601Y010910D01*
X012604Y010915D02*
X012560Y010854D01*
X012526Y010788D01*
X012503Y010716D01*
X012491Y010643D01*
X012491Y010624D01*
X012948Y010624D01*
X012948Y010587D01*
X012491Y010587D01*
X012491Y010568D01*
X012503Y010494D01*
X012526Y010423D01*
X012560Y010356D01*
X012604Y010296D01*
X012657Y010243D01*
X012717Y010199D01*
X012784Y010165D01*
X012855Y010142D01*
X012929Y010130D01*
X012948Y010130D01*
X012948Y010587D01*
X012985Y010587D01*
X012985Y010130D01*
X013004Y010130D01*
X013078Y010142D01*
X013149Y010165D01*
X013216Y010199D01*
X013310Y010276D02*
X015167Y010276D01*
X015167Y010118D02*
X011942Y010118D01*
X012006Y010054D02*
X012006Y010054D01*
X012100Y009959D02*
X012604Y009959D01*
X012505Y009801D02*
X012259Y009801D01*
X012417Y009642D02*
X012471Y009642D01*
X012027Y009325D02*
X007341Y009325D01*
X007499Y009167D02*
X012186Y009167D01*
X012108Y009008D02*
X011953Y009008D01*
X011953Y008850D02*
X012108Y008850D01*
X012108Y008691D02*
X011953Y008691D01*
X011953Y008533D02*
X012108Y008533D01*
X012108Y008374D02*
X012781Y008374D01*
X012633Y008216D02*
X012525Y008216D01*
X012525Y008533D02*
X012567Y008533D01*
X012108Y008216D02*
X011953Y008216D01*
X011953Y008260D02*
X011953Y007626D01*
X011691Y007626D01*
X011646Y007638D01*
X011605Y007662D01*
X011571Y007695D01*
X011547Y007736D01*
X011535Y007782D01*
X011535Y008260D01*
X011953Y008260D01*
X012030Y008337D02*
X013526Y008337D01*
X013392Y007582D02*
X015310Y007582D01*
X015152Y007423D02*
X014365Y007423D01*
X014611Y007265D02*
X015147Y007265D01*
X015147Y007106D02*
X014761Y007106D01*
X014826Y006948D02*
X015228Y006948D01*
X015386Y006789D02*
X014884Y006789D01*
X014884Y006631D02*
X015359Y006631D01*
X015201Y006472D02*
X014884Y006472D01*
X014818Y006314D02*
X015147Y006314D01*
X015147Y006155D02*
X014750Y006155D01*
X014592Y005997D02*
X015179Y005997D01*
X015337Y005838D02*
X014318Y005838D01*
X015147Y005363D02*
X013140Y005363D01*
X013140Y005366D02*
X013117Y005437D01*
X013083Y005503D01*
X013039Y005564D01*
X012986Y005617D01*
X012925Y005661D01*
X012859Y005695D01*
X012788Y005718D01*
X012714Y005729D01*
X012695Y005729D01*
X012695Y005273D01*
X013152Y005273D01*
X013152Y005292D01*
X013140Y005366D01*
X013152Y005236D02*
X012695Y005236D01*
X012695Y005273D01*
X012658Y005273D01*
X012658Y005729D01*
X012639Y005729D01*
X012565Y005718D01*
X012494Y005695D01*
X012427Y005661D01*
X012367Y005617D01*
X012314Y005564D01*
X012270Y005503D01*
X012236Y005437D01*
X012213Y005366D01*
X012201Y005292D01*
X012201Y005273D01*
X012658Y005273D01*
X012658Y005236D01*
X012695Y005236D01*
X012695Y004779D01*
X012714Y004779D01*
X012788Y004791D01*
X012859Y004814D01*
X012925Y004848D01*
X012986Y004892D01*
X013039Y004945D01*
X013083Y005005D01*
X013117Y005072D01*
X013140Y005143D01*
X013152Y005217D01*
X013152Y005236D01*
X013150Y005204D02*
X015147Y005204D01*
X015147Y005046D02*
X013103Y005046D01*
X012980Y004887D02*
X013383Y004887D01*
X013224Y004729D02*
X011728Y004729D01*
X011569Y004570D02*
X013123Y004570D01*
X013058Y004412D02*
X009539Y004412D01*
X009562Y004253D02*
X013035Y004253D01*
X013035Y004095D02*
X009562Y004095D01*
X009528Y003936D02*
X013069Y003936D01*
X013135Y003778D02*
X009462Y003778D01*
X009346Y003619D02*
X013251Y003619D01*
X013418Y003461D02*
X009178Y003461D01*
X009473Y004570D02*
X009578Y004570D01*
X009419Y004729D02*
X009372Y004729D01*
X009261Y004887D02*
X009214Y004887D01*
X009125Y005046D02*
X006256Y005046D01*
X006429Y005204D02*
X009103Y005204D01*
X009103Y005363D02*
X006468Y005363D01*
X006440Y005503D02*
X006439Y005503D01*
X006440Y005503D02*
X006440Y005873D01*
X006827Y005873D01*
X006440Y005873D01*
X006440Y005873D01*
X006439Y005873D01*
X006158Y005873D01*
X006158Y005873D01*
X006439Y005873D01*
X006439Y005873D01*
X006439Y006476D01*
X006440Y006476D01*
X006440Y005873D01*
X006439Y005873D01*
X006439Y005503D01*
X006439Y005521D02*
X006440Y005521D01*
X006439Y005680D02*
X006440Y005680D01*
X006439Y005838D02*
X006440Y005838D01*
X006439Y005997D02*
X006440Y005997D01*
X006439Y006155D02*
X006440Y006155D01*
X006439Y006314D02*
X006440Y006314D01*
X006439Y006472D02*
X006440Y006472D01*
X006667Y006631D02*
X009053Y006631D01*
X009103Y006472D02*
X006783Y006472D01*
X006827Y006314D02*
X009103Y006314D01*
X009103Y006155D02*
X006827Y006155D01*
X006827Y005997D02*
X009103Y005997D01*
X009103Y005838D02*
X006827Y005838D01*
X006777Y005680D02*
X009103Y005680D01*
X009103Y005521D02*
X006604Y005521D01*
X005984Y005046D02*
X005626Y005046D01*
X005799Y005204D02*
X005810Y005204D01*
X005805Y005515D02*
X005799Y005528D01*
X005810Y005528D01*
X005805Y005515D01*
X005802Y005521D02*
X005807Y005521D01*
X005354Y005046D02*
X004618Y005046D01*
X004618Y005204D02*
X005180Y005204D01*
X005141Y005363D02*
X004618Y005363D01*
X004618Y005521D02*
X004963Y005521D01*
X004818Y005680D02*
X004618Y005680D01*
X004618Y005838D02*
X004772Y005838D01*
X004772Y005997D02*
X004618Y005997D01*
X004618Y006155D02*
X004772Y006155D01*
X004772Y006314D02*
X004618Y006314D01*
X004618Y006472D02*
X004814Y006472D01*
X004928Y006631D02*
X004667Y006631D01*
X004750Y006789D02*
X004846Y006789D01*
X004828Y006948D02*
X004768Y006948D01*
X004768Y007106D02*
X004828Y007106D01*
X004828Y007265D02*
X004768Y007265D01*
X004768Y007423D02*
X004828Y007423D01*
X004837Y007582D02*
X004758Y007582D01*
X004688Y007740D02*
X004908Y007740D01*
X004978Y007899D02*
X004530Y007899D01*
X004634Y008057D02*
X004978Y008057D01*
X004849Y008216D02*
X004662Y008216D01*
X004662Y008374D02*
X004690Y008374D01*
X004707Y008810D02*
X004747Y008849D01*
X005062Y008849D01*
X005450Y008850D02*
X006834Y008850D01*
X006992Y008691D02*
X005416Y008691D01*
X005437Y008533D02*
X007151Y008533D01*
X007309Y008374D02*
X005580Y008374D01*
X005618Y008216D02*
X007468Y008216D01*
X007626Y008057D02*
X005618Y008057D01*
X005618Y007899D02*
X006115Y007899D01*
X005908Y007740D02*
X005688Y007740D01*
X005758Y007582D02*
X005837Y007582D01*
X005828Y007423D02*
X005768Y007423D01*
X005768Y007265D02*
X005828Y007265D01*
X005828Y007106D02*
X005768Y007106D01*
X005768Y006948D02*
X005828Y006948D01*
X005846Y006789D02*
X005750Y006789D01*
X005667Y006631D02*
X005928Y006631D01*
X006023Y006155D02*
X006052Y006155D01*
X006750Y006789D02*
X008894Y006789D01*
X008736Y006948D02*
X006768Y006948D01*
X006768Y007106D02*
X008577Y007106D01*
X008419Y007265D02*
X006768Y007265D01*
X006768Y007423D02*
X008260Y007423D01*
X008102Y007582D02*
X006758Y007582D01*
X006688Y007740D02*
X007943Y007740D01*
X007785Y007899D02*
X006481Y007899D01*
X006675Y009008D02*
X005416Y009008D01*
X005721Y009167D02*
X005741Y009167D01*
X006469Y009167D02*
X006517Y009167D01*
X007182Y009484D02*
X011869Y009484D01*
X011710Y009642D02*
X007083Y009642D01*
X007083Y009801D02*
X008087Y009801D01*
X007929Y009959D02*
X007665Y009959D01*
X008160Y010435D02*
X010959Y010435D01*
X010894Y010593D02*
X010370Y010593D01*
X010462Y010752D02*
X010900Y010752D01*
X010983Y010910D02*
X010473Y010910D01*
X010418Y011069D02*
X011294Y011069D01*
X011282Y010660D02*
X011833Y011211D01*
X011833Y011684D01*
X010613Y011684D01*
X010573Y011723D01*
X010691Y012274D02*
X010573Y012393D01*
X010573Y012826D01*
X010062Y012826D01*
X008684Y011448D01*
X008369Y011448D01*
X008290Y011527D01*
X008290Y011803D01*
X008539Y011861D02*
X009842Y011861D01*
X009842Y011703D02*
X009647Y011703D01*
X009756Y011544D02*
X009842Y011544D01*
X009842Y011386D02*
X009780Y011386D01*
X009737Y011227D02*
X009940Y011227D01*
X009800Y010593D02*
X008002Y010593D01*
X008319Y010276D02*
X011195Y010276D01*
X011369Y010276D02*
X012623Y010276D01*
X012522Y010435D02*
X011605Y010435D01*
X011670Y010593D02*
X012948Y010593D01*
X012985Y010593D02*
X015350Y010593D01*
X015192Y010435D02*
X013411Y010435D01*
X013442Y010624D02*
X013442Y010643D01*
X013430Y010716D01*
X013407Y010788D01*
X013373Y010854D01*
X013329Y010915D01*
X013276Y010968D01*
X013216Y011012D01*
X013149Y011046D01*
X013078Y011069D01*
X013004Y011080D01*
X012985Y011080D01*
X012985Y010624D01*
X013442Y010624D01*
X013419Y010752D02*
X016878Y010752D01*
X016265Y010910D02*
X015968Y010910D01*
X016087Y011069D02*
X016147Y011069D01*
X016147Y011227D02*
X016087Y011227D01*
X016087Y011386D02*
X016147Y011386D01*
X016273Y011544D02*
X015960Y011544D01*
X015811Y011753D02*
X016087Y012029D01*
X016087Y012418D01*
X015811Y012693D01*
X015422Y012693D01*
X015147Y012418D01*
X015147Y012029D01*
X015422Y011753D01*
X015811Y011753D01*
X015919Y011861D02*
X016314Y011861D01*
X016156Y012020D02*
X016078Y012020D01*
X016087Y012178D02*
X016147Y012178D01*
X016147Y012337D02*
X016087Y012337D01*
X016009Y012495D02*
X016224Y012495D01*
X016382Y012654D02*
X015851Y012654D01*
X015811Y012753D02*
X016087Y013029D01*
X016087Y013418D01*
X015811Y013693D01*
X015422Y013693D01*
X015147Y013418D01*
X015147Y013029D01*
X015422Y012753D01*
X015811Y012753D01*
X015870Y012812D02*
X016363Y012812D01*
X016205Y012971D02*
X016029Y012971D01*
X016087Y013129D02*
X016147Y013129D01*
X016147Y013288D02*
X016087Y013288D01*
X016058Y013446D02*
X016175Y013446D01*
X016333Y013605D02*
X015900Y013605D01*
X015811Y013753D02*
X016087Y014029D01*
X016087Y014418D01*
X015811Y014693D01*
X015422Y014693D01*
X015147Y014418D01*
X015147Y014029D01*
X015422Y013753D01*
X015811Y013753D01*
X015821Y013763D02*
X016412Y013763D01*
X016254Y013922D02*
X015980Y013922D01*
X016087Y014080D02*
X016147Y014080D01*
X016147Y014239D02*
X016087Y014239D01*
X016087Y014397D02*
X016147Y014397D01*
X016284Y014556D02*
X015949Y014556D01*
X015811Y014753D02*
X016087Y015029D01*
X016087Y015418D01*
X015811Y015693D01*
X015422Y015693D01*
X015147Y015418D01*
X015147Y015029D01*
X015422Y014753D01*
X015811Y014753D01*
X015931Y014873D02*
X016303Y014873D01*
X016147Y015031D02*
X016087Y015031D01*
X016087Y015190D02*
X016147Y015190D01*
X016147Y015348D02*
X016087Y015348D01*
X015998Y015507D02*
X016235Y015507D01*
X016394Y015665D02*
X015839Y015665D01*
X015811Y015753D02*
X016087Y016029D01*
X016087Y016418D01*
X015811Y016693D01*
X015422Y016693D01*
X015147Y016418D01*
X015147Y016029D01*
X015422Y015753D01*
X015811Y015753D01*
X015882Y015824D02*
X016352Y015824D01*
X016193Y015982D02*
X016040Y015982D01*
X016087Y016141D02*
X016147Y016141D01*
X016147Y016299D02*
X016087Y016299D01*
X016047Y016458D02*
X016186Y016458D01*
X016345Y016616D02*
X015888Y016616D01*
X015811Y016753D02*
X016087Y017029D01*
X016087Y017418D01*
X015811Y017693D01*
X015422Y017693D01*
X015147Y017418D01*
X015147Y017029D01*
X015422Y016753D01*
X015811Y016753D01*
X015833Y016775D02*
X016401Y016775D01*
X016242Y016933D02*
X015991Y016933D01*
X016087Y017092D02*
X016147Y017092D01*
X016147Y017250D02*
X016087Y017250D01*
X016087Y017409D02*
X016147Y017409D01*
X016296Y017567D02*
X015937Y017567D01*
X015811Y017753D02*
X016087Y018029D01*
X016087Y018418D01*
X015811Y018693D01*
X015422Y018693D01*
X015147Y018418D01*
X015147Y018029D01*
X015422Y017753D01*
X015811Y017753D01*
X015942Y017884D02*
X016291Y017884D01*
X016147Y018043D02*
X016087Y018043D01*
X016087Y018201D02*
X016147Y018201D01*
X016147Y018360D02*
X016087Y018360D01*
X015986Y018518D02*
X016247Y018518D01*
X016405Y018677D02*
X015828Y018677D01*
X015811Y018753D02*
X016087Y019029D01*
X016087Y019418D01*
X015811Y019693D01*
X015422Y019693D01*
X015147Y019418D01*
X015147Y019029D01*
X015422Y018753D01*
X015811Y018753D01*
X015893Y018835D02*
X016340Y018835D01*
X016182Y018994D02*
X016052Y018994D01*
X016087Y019152D02*
X016147Y019152D01*
X016147Y019311D02*
X016087Y019311D01*
X016035Y019469D02*
X016198Y019469D01*
X016356Y019628D02*
X015877Y019628D01*
X015803Y019773D02*
X015627Y019773D01*
X015627Y020213D01*
X015627Y020233D01*
X015607Y020233D01*
X015607Y020673D01*
X015430Y020673D01*
X015167Y020410D01*
X015167Y020233D01*
X015607Y020233D01*
X015607Y020213D01*
X015627Y020213D01*
X016067Y020213D01*
X016067Y020037D01*
X015803Y019773D01*
X015816Y019786D02*
X016389Y019786D01*
X016231Y019945D02*
X015974Y019945D01*
X016067Y020103D02*
X016147Y020103D01*
X016147Y020262D02*
X016067Y020262D01*
X016056Y020420D02*
X016149Y020420D01*
X016307Y020579D02*
X015898Y020579D01*
X015627Y020579D02*
X015607Y020579D01*
X015607Y020420D02*
X015627Y020420D01*
X015627Y020262D02*
X015607Y020262D01*
X015607Y020213D02*
X015167Y020213D01*
X015167Y020037D01*
X015430Y019773D01*
X015607Y019773D01*
X015607Y020213D01*
X015607Y020103D02*
X015627Y020103D01*
X015627Y019945D02*
X015607Y019945D01*
X015607Y019786D02*
X015627Y019786D01*
X015417Y019786D02*
X013433Y019786D01*
X013425Y019628D02*
X015356Y019628D01*
X015198Y019469D02*
X013359Y019469D01*
X013179Y019311D02*
X015147Y019311D01*
X015147Y019152D02*
X014408Y019152D01*
X014540Y019097D02*
X014228Y019227D01*
X013889Y019227D01*
X013577Y019097D01*
X013338Y018858D01*
X013209Y018546D01*
X013209Y018208D01*
X013338Y017895D01*
X013577Y017656D01*
X013889Y017527D01*
X014228Y017527D01*
X014540Y017656D01*
X014779Y017895D01*
X014909Y018208D01*
X014909Y018546D01*
X014779Y018858D01*
X014540Y019097D01*
X014644Y018994D02*
X015182Y018994D01*
X015340Y018835D02*
X014789Y018835D01*
X014854Y018677D02*
X015405Y018677D01*
X015247Y018518D02*
X014909Y018518D01*
X014909Y018360D02*
X015147Y018360D01*
X015147Y018201D02*
X014906Y018201D01*
X014840Y018043D02*
X015147Y018043D01*
X015291Y017884D02*
X014768Y017884D01*
X014609Y017726D02*
X016878Y017726D01*
X016878Y016775D02*
X016833Y016775D01*
X016839Y015665D02*
X016878Y015665D01*
X016878Y014714D02*
X013390Y014714D01*
X013468Y014556D02*
X015284Y014556D01*
X015147Y014397D02*
X013487Y014397D01*
X013456Y014239D02*
X015147Y014239D01*
X015147Y014080D02*
X013360Y014080D01*
X013575Y013922D02*
X013102Y013922D01*
X012893Y013917D02*
X012893Y013917D01*
X012739Y013763D02*
X013416Y013763D01*
X013338Y013685D02*
X013209Y013373D01*
X013209Y013034D01*
X013338Y012722D01*
X013539Y012521D01*
X013313Y012295D01*
X013184Y011983D01*
X013184Y011645D01*
X013313Y011332D01*
X013552Y011093D01*
X013864Y010964D01*
X014203Y010964D01*
X014515Y011093D01*
X014754Y011332D01*
X014884Y011645D01*
X014884Y011983D01*
X014754Y012295D01*
X014553Y012496D01*
X014779Y012722D01*
X014909Y013034D01*
X014909Y013373D01*
X014779Y013685D01*
X014540Y013924D01*
X014228Y014054D01*
X013889Y014054D01*
X013577Y013924D01*
X013338Y013685D01*
X013305Y013605D02*
X012580Y013605D01*
X012422Y013446D02*
X013239Y013446D01*
X013209Y013288D02*
X012500Y013288D01*
X012565Y013129D02*
X013209Y013129D01*
X013235Y012971D02*
X012565Y012971D01*
X012565Y012812D02*
X013301Y012812D01*
X013406Y012654D02*
X012565Y012654D01*
X012565Y012495D02*
X013513Y012495D01*
X013354Y012337D02*
X011151Y012337D01*
X010691Y012274D02*
X012967Y012274D01*
X013264Y012178D02*
X012449Y012178D01*
X012565Y012020D02*
X013199Y012020D01*
X013184Y011861D02*
X012565Y011861D01*
X012565Y011703D02*
X013184Y011703D01*
X013225Y011544D02*
X012565Y011544D01*
X012565Y011386D02*
X013291Y011386D01*
X013418Y011227D02*
X012486Y011227D01*
X012657Y010968D02*
X012604Y010915D01*
X012657Y010968D02*
X012717Y011012D01*
X012784Y011046D01*
X012855Y011069D01*
X012948Y011069D02*
X012985Y011069D01*
X013078Y011069D02*
X013611Y011069D01*
X013332Y010910D02*
X015265Y010910D01*
X015147Y011069D02*
X014456Y011069D01*
X014649Y011227D02*
X015147Y011227D01*
X015147Y011386D02*
X014776Y011386D01*
X014842Y011544D02*
X015273Y011544D01*
X015314Y011861D02*
X014884Y011861D01*
X014884Y011703D02*
X016878Y011703D01*
X016851Y012654D02*
X016878Y012654D01*
X016870Y012812D02*
X016878Y012812D01*
X016878Y013763D02*
X016821Y013763D01*
X015412Y013763D02*
X014701Y013763D01*
X014812Y013605D02*
X015333Y013605D01*
X015175Y013446D02*
X014878Y013446D01*
X014909Y013288D02*
X015147Y013288D01*
X015147Y013129D02*
X014909Y013129D01*
X014882Y012971D02*
X015205Y012971D01*
X015363Y012812D02*
X014816Y012812D01*
X014711Y012654D02*
X015382Y012654D01*
X015224Y012495D02*
X014554Y012495D01*
X014713Y012337D02*
X015147Y012337D01*
X015147Y012178D02*
X014803Y012178D01*
X014868Y012020D02*
X015156Y012020D01*
X015254Y013922D02*
X014542Y013922D01*
X015303Y014873D02*
X013174Y014873D01*
X013327Y015031D02*
X015147Y015031D01*
X015147Y015190D02*
X013442Y015190D01*
X013487Y015348D02*
X015147Y015348D01*
X015235Y015507D02*
X013482Y015507D01*
X013416Y015665D02*
X015394Y015665D01*
X015352Y015824D02*
X013332Y015824D01*
X013444Y015982D02*
X015193Y015982D01*
X015147Y016141D02*
X013487Y016141D01*
X013480Y016299D02*
X015147Y016299D01*
X015186Y016458D02*
X013414Y016458D01*
X013242Y016616D02*
X015345Y016616D01*
X015401Y016775D02*
X013259Y016775D01*
X013241Y016762D02*
X013301Y016806D01*
X013354Y016859D01*
X013398Y016919D01*
X013432Y016986D01*
X013455Y017057D01*
X013467Y017131D01*
X013467Y017150D01*
X013010Y017150D01*
X013010Y017187D01*
X012973Y017187D01*
X012973Y017643D01*
X012954Y017643D01*
X012880Y017632D01*
X012809Y017609D01*
X012742Y017575D01*
X012682Y017531D01*
X012629Y017478D01*
X012585Y017417D01*
X012565Y017377D01*
X012565Y017751D01*
X012448Y017868D01*
X011219Y017868D01*
X011102Y017751D01*
X011102Y017219D01*
X010983Y017170D01*
X010874Y017061D01*
X010815Y016919D01*
X010815Y016764D01*
X010874Y016622D01*
X010983Y016512D01*
X011126Y016453D01*
X011280Y016453D01*
X011423Y016512D01*
X011532Y016622D01*
X011591Y016764D01*
X011591Y016838D01*
X012448Y016838D01*
X012565Y016955D01*
X012565Y016959D01*
X012585Y016919D01*
X012629Y016859D01*
X012682Y016806D01*
X012742Y016762D01*
X012809Y016728D01*
X012880Y016705D01*
X012954Y016693D01*
X012973Y016693D01*
X012973Y017150D01*
X013010Y017150D01*
X013010Y016693D01*
X013029Y016693D01*
X013103Y016705D01*
X013174Y016728D01*
X013241Y016762D01*
X013010Y016775D02*
X012973Y016775D01*
X012973Y016933D02*
X013010Y016933D01*
X013010Y017092D02*
X012973Y017092D01*
X013010Y017187D02*
X013467Y017187D01*
X013467Y017206D01*
X013455Y017279D01*
X013432Y017351D01*
X013398Y017417D01*
X013354Y017478D01*
X013301Y017531D01*
X013241Y017575D01*
X013174Y017609D01*
X013103Y017632D01*
X013029Y017643D01*
X013010Y017643D01*
X013010Y017187D01*
X013010Y017250D02*
X012973Y017250D01*
X012973Y017409D02*
X013010Y017409D01*
X013010Y017567D02*
X012973Y017567D01*
X013251Y017567D02*
X013792Y017567D01*
X013508Y017726D02*
X012565Y017726D01*
X012565Y017567D02*
X012732Y017567D01*
X012581Y017409D02*
X012565Y017409D01*
X012542Y016933D02*
X012578Y016933D01*
X012725Y016775D02*
X011591Y016775D01*
X011527Y016616D02*
X012741Y016616D01*
X012515Y016040D02*
X012280Y016040D01*
X012280Y016028D01*
X012360Y016028D01*
X012385Y016033D01*
X012409Y016028D01*
X012434Y016028D01*
X012457Y016019D01*
X012482Y016014D01*
X012503Y016000D01*
X012526Y015990D01*
X012543Y015974D01*
X012515Y016040D01*
X012534Y015982D02*
X012539Y015982D01*
X012676Y015799D02*
X012685Y015790D01*
X012681Y015787D01*
X012676Y015799D01*
X012859Y014915D02*
X012886Y014904D01*
X012831Y014882D01*
X012849Y014905D01*
X012859Y014915D01*
X012593Y014714D02*
X012477Y014714D01*
X012466Y014556D02*
X012515Y014556D01*
X012496Y014397D02*
X012346Y014397D01*
X012422Y014239D02*
X012187Y014239D01*
X012264Y014080D02*
X012029Y014080D01*
X012105Y013922D02*
X011870Y013922D01*
X011947Y013763D02*
X011712Y013763D01*
X011788Y013605D02*
X011553Y013605D01*
X011630Y013446D02*
X011347Y013446D01*
X011833Y013254D02*
X011833Y012845D01*
X011833Y013254D02*
X012992Y014412D01*
X011780Y014873D02*
X010612Y014873D01*
X010676Y014937D02*
X010676Y014937D01*
X010756Y015031D02*
X011780Y015031D01*
X011780Y015190D02*
X010784Y015190D01*
X010784Y015348D02*
X011780Y015348D01*
X011780Y015507D02*
X010784Y015507D01*
X010784Y015665D02*
X011780Y015665D01*
X011780Y015824D02*
X010784Y015824D01*
X010784Y015982D02*
X011780Y015982D01*
X011780Y016141D02*
X010784Y016141D01*
X010784Y016299D02*
X011812Y016299D01*
X011962Y016458D02*
X011291Y016458D01*
X011115Y016458D02*
X010784Y016458D01*
X010784Y016616D02*
X010880Y016616D01*
X010815Y016775D02*
X010784Y016775D01*
X010784Y016933D02*
X010821Y016933D01*
X010784Y017092D02*
X010905Y017092D01*
X010784Y017250D02*
X011102Y017250D01*
X011102Y017409D02*
X010784Y017409D01*
X010784Y017567D02*
X011102Y017567D01*
X011102Y017726D02*
X010784Y017726D01*
X010784Y017884D02*
X013349Y017884D01*
X013277Y018043D02*
X012516Y018043D01*
X012509Y018030D02*
X012532Y018071D01*
X012545Y018117D01*
X012545Y018378D01*
X011911Y018378D01*
X011911Y018533D01*
X012545Y018533D01*
X012545Y018794D01*
X012532Y018840D01*
X012509Y018881D01*
X012475Y018915D01*
X012434Y018938D01*
X012388Y018951D01*
X011911Y018951D01*
X011911Y018533D01*
X011756Y018533D01*
X011756Y018378D01*
X011911Y018378D01*
X011911Y017961D01*
X012388Y017961D01*
X012434Y017973D01*
X012475Y017997D01*
X012509Y018030D01*
X012545Y018201D02*
X013211Y018201D01*
X013209Y018360D02*
X012545Y018360D01*
X012545Y018677D02*
X013263Y018677D01*
X013209Y018518D02*
X011911Y018518D01*
X011833Y018456D02*
X013132Y018456D01*
X013328Y018835D02*
X012534Y018835D01*
X012697Y019311D02*
X012195Y019311D01*
X012375Y019469D02*
X012517Y019469D01*
X012452Y019628D02*
X012441Y019628D01*
X012408Y019945D02*
X012484Y019945D01*
X012594Y020103D02*
X012298Y020103D01*
X011610Y020103D02*
X011511Y020103D01*
X010822Y020103D02*
X010498Y020103D01*
X010615Y019945D02*
X010712Y019945D01*
X010671Y019786D02*
X010657Y019786D01*
X010643Y019628D02*
X010680Y019628D01*
X010638Y019469D02*
X010568Y019469D01*
X010638Y019311D02*
X010373Y019311D01*
X011079Y018518D02*
X011756Y018518D01*
X011756Y018378D02*
X011122Y018378D01*
X011122Y018117D01*
X011134Y018071D01*
X011158Y018030D01*
X011191Y017997D01*
X011232Y017973D01*
X011278Y017961D01*
X011756Y017961D01*
X011756Y018378D01*
X011756Y018360D02*
X011911Y018360D01*
X011911Y018201D02*
X011756Y018201D01*
X011756Y018043D02*
X011911Y018043D01*
X011911Y018677D02*
X011756Y018677D01*
X011756Y018835D02*
X011911Y018835D01*
X011713Y019152D02*
X013709Y019152D01*
X013473Y018994D02*
X011554Y018994D01*
X011122Y018360D02*
X010920Y018360D01*
X010784Y018201D02*
X011122Y018201D01*
X011150Y018043D02*
X010784Y018043D01*
X009426Y016299D02*
X009426Y016299D01*
X009426Y016141D02*
X009426Y016141D01*
X009426Y015982D02*
X009426Y015982D01*
X009426Y015824D02*
X009426Y015824D01*
X009426Y015748D02*
X009426Y015748D01*
X009426Y015694D01*
X009786Y016054D01*
X009842Y015824D02*
X010087Y015824D01*
X010087Y015665D02*
X009842Y015665D01*
X009842Y015748D02*
X009426Y015748D01*
X009010Y015748D01*
X009010Y015479D01*
X009020Y015414D01*
X009040Y015352D01*
X009070Y015293D01*
X009109Y015240D01*
X009155Y015194D01*
X009208Y015155D01*
X009266Y015126D01*
X009329Y015105D01*
X009393Y015095D01*
X009426Y015095D01*
X009426Y015748D01*
X009426Y015748D01*
X009426Y015095D01*
X009459Y015095D01*
X009524Y015105D01*
X009586Y015126D01*
X009644Y015155D01*
X009697Y015194D01*
X009744Y015240D01*
X009782Y015293D01*
X009812Y015352D01*
X009832Y015414D01*
X009842Y015479D01*
X009842Y015748D01*
X009842Y015507D02*
X010087Y015507D01*
X010065Y015348D02*
X009810Y015348D01*
X009907Y015190D02*
X009691Y015190D01*
X009748Y015031D02*
X008684Y015031D01*
X008561Y014873D02*
X008525Y014873D01*
X008368Y014714D02*
X008367Y014714D01*
X008210Y014556D02*
X008208Y014556D01*
X008038Y014385D02*
X008038Y014324D01*
X008038Y014324D01*
X008038Y014324D01*
X008038Y014385D01*
X008038Y014385D01*
X008559Y014197D02*
X008559Y013842D01*
X008966Y014249D01*
X008921Y014249D01*
X008779Y014308D01*
X008724Y014363D01*
X008559Y014197D01*
X008600Y014239D02*
X008956Y014239D01*
X008797Y014080D02*
X008559Y014080D01*
X008559Y013922D02*
X008639Y013922D01*
X008151Y013434D02*
X008108Y013391D01*
X006776Y013391D01*
X006776Y013434D01*
X006922Y013434D01*
X007937Y013434D01*
X007957Y013454D01*
X008038Y013454D01*
X008118Y013454D01*
X008138Y013434D01*
X008151Y013434D01*
X008126Y013446D02*
X007950Y013446D01*
X008038Y013454D02*
X008038Y013534D01*
X008038Y013454D01*
X008038Y013534D02*
X008038Y013534D01*
X008038Y013534D01*
X008982Y012495D02*
X009862Y012495D01*
X009862Y012487D02*
X009874Y012441D01*
X009898Y012400D01*
X009931Y012367D01*
X009972Y012343D01*
X010018Y012331D01*
X010496Y012331D01*
X010496Y012748D01*
X009862Y012748D01*
X009862Y012487D01*
X009862Y012654D02*
X009141Y012654D01*
X009299Y012812D02*
X010496Y012812D01*
X010496Y012903D02*
X009862Y012903D01*
X009862Y013164D01*
X009874Y013210D01*
X009898Y013251D01*
X009931Y013285D01*
X009972Y013308D01*
X010018Y013321D01*
X010496Y013321D01*
X010496Y012903D01*
X010496Y012971D02*
X010651Y012971D01*
X010651Y013129D02*
X010496Y013129D01*
X010496Y013288D02*
X010651Y013288D01*
X010651Y012654D02*
X010496Y012654D01*
X010496Y012495D02*
X010651Y012495D01*
X010651Y012337D02*
X010496Y012337D01*
X009996Y012337D02*
X008824Y012337D01*
X008665Y012178D02*
X009899Y012178D01*
X009842Y012020D02*
X008539Y012020D01*
X008659Y012172D02*
X008659Y012172D01*
X008539Y011703D02*
X009138Y011703D01*
X009028Y011544D02*
X008539Y011544D01*
X008491Y011386D02*
X009004Y011386D01*
X008290Y011386D02*
X008290Y011386D01*
X008290Y011408D02*
X008290Y011343D01*
X008290Y011343D01*
X008290Y011408D01*
X008290Y011408D01*
X007182Y009959D02*
X007083Y009959D01*
X007658Y009008D02*
X009164Y009008D01*
X009043Y008850D02*
X007816Y008850D01*
X007975Y008691D02*
X009010Y008691D01*
X009010Y008533D02*
X008133Y008533D01*
X008292Y008374D02*
X009010Y008374D01*
X009010Y008448D02*
X009010Y008179D01*
X009020Y008114D01*
X009040Y008052D01*
X009070Y007993D01*
X009109Y007940D01*
X009155Y007894D01*
X009208Y007855D01*
X009266Y007826D01*
X009329Y007805D01*
X009393Y007795D01*
X009426Y007795D01*
X009426Y008448D01*
X009010Y008448D01*
X009010Y008216D02*
X008450Y008216D01*
X008609Y008057D02*
X009039Y008057D01*
X009150Y007899D02*
X008767Y007899D01*
X008926Y007740D02*
X009978Y007740D01*
X009978Y007788D02*
X009978Y006983D01*
X010021Y006880D01*
X010100Y006801D01*
X010159Y006742D01*
X010215Y006719D01*
X010081Y006585D01*
X010035Y006631D02*
X010127Y006631D01*
X010111Y006789D02*
X009877Y006789D01*
X009993Y006948D02*
X009718Y006948D01*
X009560Y007106D02*
X009978Y007106D01*
X009978Y007265D02*
X009401Y007265D01*
X009243Y007423D02*
X009978Y007423D01*
X009978Y007582D02*
X009084Y007582D01*
X009426Y007795D02*
X009459Y007795D01*
X009524Y007805D01*
X009586Y007826D01*
X009644Y007855D01*
X009697Y007894D01*
X009744Y007940D01*
X009782Y007993D01*
X009811Y007921D01*
X009920Y007812D01*
X009978Y007788D01*
X009833Y007899D02*
X009702Y007899D01*
X009426Y007899D02*
X009426Y007899D01*
X009426Y007795D02*
X009426Y008448D01*
X009426Y008448D01*
X009426Y008374D02*
X009426Y008374D01*
X009426Y008216D02*
X009426Y008216D01*
X009426Y008057D02*
X009426Y008057D01*
X009426Y008533D02*
X009426Y008533D01*
X009426Y008691D02*
X009426Y008691D01*
X009426Y008850D02*
X009426Y008850D01*
X009426Y009008D02*
X009426Y009008D01*
X010377Y008337D02*
X010928Y008337D01*
X011443Y008374D02*
X011953Y008374D01*
X011953Y008057D02*
X012108Y008057D01*
X012108Y007899D02*
X011953Y007899D01*
X011953Y007740D02*
X012108Y007740D01*
X011844Y007265D02*
X013456Y007265D01*
X013306Y007106D02*
X011954Y007106D01*
X011546Y007740D02*
X011443Y007740D01*
X011443Y007899D02*
X011535Y007899D01*
X011535Y008057D02*
X011443Y008057D01*
X011443Y008216D02*
X011535Y008216D01*
X011535Y008533D02*
X011443Y008533D01*
X011443Y008691D02*
X011535Y008691D01*
X011535Y008850D02*
X011443Y008850D01*
X011386Y009008D02*
X011600Y009008D01*
X012541Y007582D02*
X010538Y007582D01*
X010538Y007423D02*
X012701Y007423D01*
X013232Y007423D02*
X013702Y007423D01*
X012888Y005680D02*
X015408Y005680D01*
X015250Y005521D02*
X013070Y005521D01*
X012695Y005521D02*
X012658Y005521D01*
X012658Y005363D02*
X012695Y005363D01*
X012658Y005236D02*
X012201Y005236D01*
X012201Y005217D01*
X012213Y005143D01*
X012236Y005072D01*
X012270Y005005D01*
X012314Y004945D01*
X012367Y004892D01*
X012427Y004848D01*
X012494Y004814D01*
X012565Y004791D01*
X012639Y004779D01*
X012658Y004779D01*
X012658Y005236D01*
X012658Y005204D02*
X012695Y005204D01*
X012695Y005046D02*
X012658Y005046D01*
X012658Y004887D02*
X012695Y004887D01*
X012373Y004887D02*
X012025Y004887D01*
X012142Y005046D02*
X012249Y005046D01*
X012203Y005204D02*
X012187Y005204D01*
X012183Y005363D02*
X012212Y005363D01*
X012283Y005521D02*
X012117Y005521D01*
X011959Y005680D02*
X012464Y005680D01*
X012658Y005680D02*
X012695Y005680D01*
X010513Y005564D02*
X010470Y005607D01*
X010268Y005607D01*
X010340Y005535D01*
X010412Y005360D01*
X010485Y005535D01*
X010513Y005564D01*
X010479Y005521D02*
X010346Y005521D01*
X010411Y005363D02*
X010413Y005363D01*
X010412Y005148D02*
X010353Y005005D01*
X010472Y005005D01*
X010412Y005148D01*
X010370Y005046D02*
X010455Y005046D01*
X009628Y005662D02*
X009603Y005687D01*
X009603Y005637D01*
X009628Y005662D01*
X009610Y005680D02*
X009603Y005680D01*
X009603Y006303D02*
X009603Y006356D01*
X009639Y006320D01*
X009605Y006305D01*
X009603Y006303D01*
X009603Y006314D02*
X009625Y006314D01*
X010100Y006801D02*
X010100Y006801D01*
X010538Y007265D02*
X010596Y007265D01*
X012948Y010276D02*
X012985Y010276D01*
X012985Y010435D02*
X012948Y010435D01*
X012948Y010752D02*
X012985Y010752D01*
X012985Y010910D02*
X012948Y010910D01*
X012514Y010752D02*
X011769Y010752D01*
X012927Y011841D02*
X012967Y011802D01*
X011200Y014239D02*
X009978Y014239D01*
X010136Y014397D02*
X011358Y014397D01*
X011517Y014556D02*
X010295Y014556D01*
X010453Y014714D02*
X011675Y014714D01*
X009937Y013288D02*
X009775Y013288D01*
X009862Y013129D02*
X009616Y013129D01*
X009458Y012971D02*
X009862Y012971D01*
X009431Y014714D02*
X009387Y014714D01*
X009311Y014873D02*
X009590Y014873D01*
X009426Y015190D02*
X009426Y015190D01*
X009426Y015348D02*
X009426Y015348D01*
X009426Y015507D02*
X009426Y015507D01*
X009426Y015665D02*
X009426Y015665D01*
X009010Y015665D02*
X008962Y015665D01*
X009010Y015507D02*
X008894Y015507D01*
X008894Y015348D02*
X009042Y015348D01*
X009161Y015190D02*
X008842Y015190D01*
X008949Y016141D02*
X009039Y016141D01*
X009153Y016299D02*
X008759Y016299D01*
X008001Y016248D02*
X007997Y016248D01*
X008001Y016244D01*
X008001Y016248D01*
X007607Y015931D02*
X007607Y015646D01*
X007398Y015437D01*
X007398Y015828D01*
X007360Y015920D01*
X007308Y015972D01*
X007565Y015972D01*
X007607Y015931D01*
X007607Y015824D02*
X007398Y015824D01*
X007398Y015665D02*
X007607Y015665D01*
X007468Y015507D02*
X007398Y015507D01*
X006968Y016458D02*
X006910Y016481D01*
X006756Y016481D01*
X006613Y016422D01*
X006532Y016341D01*
X006532Y017407D01*
X006543Y017418D01*
X006822Y017418D01*
X006819Y017416D01*
X006760Y017273D01*
X006760Y017119D01*
X006819Y016976D01*
X006928Y016867D01*
X006968Y016850D01*
X006968Y016837D01*
X007003Y016802D01*
X006968Y016767D01*
X006968Y016458D01*
X006968Y016458D01*
X006968Y016616D02*
X006532Y016616D01*
X006532Y016458D02*
X006699Y016458D01*
X006532Y016775D02*
X006976Y016775D01*
X006862Y016933D02*
X006532Y016933D01*
X006532Y017092D02*
X006771Y017092D01*
X006760Y017250D02*
X006532Y017250D01*
X006534Y017409D02*
X006816Y017409D01*
X006190Y017772D02*
X006070Y017652D01*
X006032Y017560D01*
X006032Y017461D01*
X006032Y016236D01*
X005968Y016172D01*
X005942Y016234D01*
X005833Y016344D01*
X005690Y016403D01*
X005536Y016403D01*
X005516Y016395D01*
X005516Y017769D01*
X005519Y017772D01*
X006190Y017772D01*
X006143Y017726D02*
X005516Y017726D01*
X005516Y017567D02*
X006035Y017567D01*
X006032Y017409D02*
X005516Y017409D01*
X005516Y017250D02*
X006032Y017250D01*
X006032Y017092D02*
X005516Y017092D01*
X005516Y016933D02*
X006032Y016933D01*
X006032Y016775D02*
X005516Y016775D01*
X005516Y016616D02*
X006032Y016616D01*
X006032Y016458D02*
X005516Y016458D01*
X005877Y016299D02*
X006032Y016299D01*
X006424Y015921D02*
X006467Y015964D01*
X006504Y015873D01*
X006543Y015835D01*
X006535Y015832D01*
X006499Y015796D01*
X006462Y015832D01*
X006372Y015869D01*
X006424Y015921D01*
X006471Y015824D02*
X006526Y015824D01*
X007465Y017632D02*
X007723Y017889D01*
X007744Y017911D01*
X007744Y017827D01*
X007803Y017685D01*
X007834Y017654D01*
X007834Y017632D01*
X007465Y017632D01*
X007559Y017726D02*
X007786Y017726D01*
X007744Y017884D02*
X007718Y017884D01*
X007831Y018201D02*
X007880Y018201D01*
X006819Y018805D02*
X006808Y018833D01*
X006805Y018835D01*
X006819Y018835D01*
X006806Y018835D01*
X006819Y018835D02*
X006819Y018805D01*
X006229Y018912D02*
X006150Y018833D01*
X006091Y018690D01*
X006091Y018536D01*
X006102Y018509D01*
X005528Y018509D01*
X005528Y018651D01*
X005469Y018794D01*
X005390Y018873D01*
X005390Y019494D01*
X005550Y019654D01*
X005530Y019552D01*
X005520Y019529D01*
X005520Y019504D01*
X005515Y019479D01*
X005520Y019455D01*
X005520Y019429D01*
X005530Y019406D01*
X005535Y019382D01*
X005549Y019361D01*
X005558Y019338D01*
X005576Y019320D01*
X005590Y019299D01*
X005611Y019285D01*
X005707Y019188D01*
X005799Y019150D01*
X006269Y019150D01*
X006267Y019148D01*
X006229Y019056D01*
X006229Y018912D01*
X006229Y018994D02*
X005390Y018994D01*
X005390Y019152D02*
X005795Y019152D01*
X005582Y019311D02*
X005390Y019311D01*
X005390Y019469D02*
X005517Y019469D01*
X005524Y019628D02*
X005545Y019628D01*
X005428Y018835D02*
X006152Y018835D01*
X006091Y018677D02*
X005518Y018677D01*
X005528Y018518D02*
X006098Y018518D01*
X004707Y018101D02*
X004668Y018062D01*
X004471Y018062D01*
X004220Y018360D02*
X003087Y018360D01*
X003087Y018201D02*
X004109Y018201D01*
X004387Y018518D02*
X002986Y018518D01*
X002828Y018677D02*
X004387Y018677D01*
X004387Y018835D02*
X002865Y018835D01*
X002803Y018773D02*
X003067Y019037D01*
X003067Y019213D01*
X002627Y019213D01*
X002627Y018773D01*
X002803Y018773D01*
X002627Y018835D02*
X002607Y018835D01*
X002607Y018994D02*
X002627Y018994D01*
X002627Y019152D02*
X002607Y019152D01*
X003023Y018994D02*
X004387Y018994D01*
X004387Y019152D02*
X003067Y019152D01*
X003067Y019311D02*
X004387Y019311D01*
X004387Y019469D02*
X003007Y019469D01*
X003087Y018043D02*
X003549Y018043D01*
X004336Y017567D02*
X004387Y017567D01*
X004387Y017409D02*
X004336Y017409D01*
X004336Y017250D02*
X004387Y017250D01*
X004387Y017092D02*
X004315Y017092D01*
X004316Y016933D02*
X004387Y016933D01*
X004387Y016775D02*
X004316Y016775D01*
X004316Y016616D02*
X004387Y016616D01*
X004387Y016458D02*
X004316Y016458D01*
X004374Y015031D02*
X003962Y015031D01*
X003804Y014873D02*
X004215Y014873D01*
X004057Y014714D02*
X003767Y014714D01*
X003767Y014556D02*
X003913Y014556D01*
X003875Y014397D02*
X003767Y014397D01*
X003767Y014239D02*
X003875Y014239D01*
X003875Y014080D02*
X003767Y014080D01*
X003767Y013922D02*
X003875Y013922D01*
X003875Y013763D02*
X003767Y013763D01*
X003767Y013605D02*
X003875Y013605D01*
X003875Y013446D02*
X003767Y013446D01*
X003767Y013288D02*
X003875Y013288D01*
X003875Y013129D02*
X003767Y013129D01*
X003767Y012971D02*
X003875Y012971D01*
X003875Y012812D02*
X003767Y012812D01*
X003767Y012654D02*
X003875Y012654D01*
X003875Y012495D02*
X003767Y012495D01*
X003767Y012337D02*
X003875Y012337D01*
X003875Y012178D02*
X003767Y012178D01*
X003767Y012020D02*
X003875Y012020D01*
X003875Y011861D02*
X003767Y011861D01*
X003767Y011703D02*
X003875Y011703D01*
X004515Y011954D02*
X004515Y012964D01*
X004551Y012949D01*
X004706Y012949D01*
X004848Y013008D01*
X004958Y013118D01*
X005017Y013260D01*
X005017Y013372D01*
X005062Y013417D01*
X005146Y013333D01*
X005146Y013221D01*
X005205Y013078D01*
X005314Y012969D01*
X005457Y012910D01*
X005611Y012910D01*
X005725Y012957D01*
X005756Y012881D01*
X005772Y012866D01*
X005588Y012682D01*
X005287Y012682D01*
X005196Y012644D01*
X005125Y012574D01*
X005046Y012495D01*
X005008Y012403D01*
X005008Y012299D01*
X004862Y012299D01*
X004745Y012181D01*
X004745Y011841D01*
X004691Y011895D01*
X004548Y011954D01*
X004515Y011954D01*
X004515Y012020D02*
X004745Y012020D01*
X004745Y012178D02*
X004515Y012178D01*
X004515Y012337D02*
X005008Y012337D01*
X005047Y012495D02*
X004515Y012495D01*
X004515Y012654D02*
X005219Y012654D01*
X005313Y012971D02*
X004757Y012971D01*
X004515Y012812D02*
X005718Y012812D01*
X006024Y012411D02*
X006024Y012299D01*
X005912Y012299D01*
X006024Y012411D01*
X006024Y012337D02*
X005950Y012337D01*
X005184Y013129D02*
X004962Y013129D01*
X005017Y013288D02*
X005146Y013288D01*
X004745Y014203D02*
X004651Y014296D01*
X004575Y014328D01*
X004764Y014517D01*
X004764Y014326D01*
X004745Y014307D01*
X004745Y014203D01*
X004745Y014239D02*
X004709Y014239D01*
X004764Y014397D02*
X004645Y014397D01*
X004724Y011861D02*
X004745Y011861D01*
X004764Y011310D02*
X004764Y009930D01*
X004802Y009838D01*
X004901Y009739D01*
X004901Y009620D01*
X004888Y009632D01*
X004515Y010005D01*
X004515Y011178D01*
X004548Y011178D01*
X004691Y011237D01*
X004764Y011310D01*
X004764Y011227D02*
X004668Y011227D01*
X004764Y011069D02*
X004515Y011069D01*
X004515Y010910D02*
X004764Y010910D01*
X004764Y010752D02*
X004515Y010752D01*
X004515Y010593D02*
X004764Y010593D01*
X004764Y010435D02*
X004515Y010435D01*
X004515Y010276D02*
X004764Y010276D01*
X004764Y010118D02*
X004515Y010118D01*
X004562Y009959D02*
X004764Y009959D01*
X004720Y009801D02*
X004839Y009801D01*
X004879Y009642D02*
X004901Y009642D01*
X005264Y010132D02*
X005264Y011308D01*
X005268Y011308D01*
X005268Y010902D01*
X005306Y010810D01*
X005796Y010321D01*
X005796Y010132D01*
X005766Y010132D01*
X005731Y010097D01*
X005696Y010132D01*
X005264Y010132D01*
X005264Y010276D02*
X005796Y010276D01*
X005752Y010118D02*
X005710Y010118D01*
X005682Y010435D02*
X005264Y010435D01*
X005264Y010593D02*
X005523Y010593D01*
X005365Y010752D02*
X005264Y010752D01*
X005264Y010910D02*
X005268Y010910D01*
X005264Y011069D02*
X005268Y011069D01*
X005264Y011227D02*
X005268Y011227D01*
X006138Y010686D02*
X006140Y010683D01*
X006146Y010686D01*
X006138Y010686D01*
X006738Y011227D02*
X007032Y011227D01*
X007032Y011308D02*
X007032Y010933D01*
X006975Y010990D01*
X006657Y011308D01*
X007032Y011308D01*
X007032Y011069D02*
X006896Y011069D01*
X003127Y010593D02*
X002911Y010593D01*
X003070Y010435D02*
X003127Y010435D01*
X003127Y010276D02*
X003087Y010276D01*
X003087Y010118D02*
X003127Y010118D01*
X003127Y009959D02*
X003017Y009959D01*
X003127Y009801D02*
X002859Y009801D01*
X002862Y009642D02*
X003127Y009642D01*
X003127Y009484D02*
X003021Y009484D01*
X003087Y009325D02*
X003127Y009325D01*
X003127Y009167D02*
X003087Y009167D01*
X003066Y009008D02*
X003127Y009008D01*
X003127Y008850D02*
X002908Y008850D01*
X002813Y008691D02*
X003127Y008691D01*
X003127Y008533D02*
X002972Y008533D01*
X003087Y008374D02*
X003127Y008374D01*
X003127Y008216D02*
X003087Y008216D01*
X003087Y008057D02*
X003127Y008057D01*
X003127Y007899D02*
X002957Y007899D01*
X003127Y007740D02*
X001356Y007740D01*
X001356Y006789D02*
X001386Y006789D01*
X001356Y006631D02*
X001359Y006631D01*
X001356Y005680D02*
X001408Y005680D01*
X001356Y004729D02*
X003978Y004729D01*
X003446Y005997D02*
X003055Y005997D01*
X003087Y006155D02*
X003287Y006155D01*
X003157Y006314D02*
X003087Y006314D01*
X003127Y006472D02*
X003032Y006472D01*
X003127Y006631D02*
X002874Y006631D01*
X002847Y006789D02*
X003127Y006789D01*
X003127Y006948D02*
X003006Y006948D01*
X003087Y007106D02*
X003127Y007106D01*
X003127Y007265D02*
X003087Y007265D01*
X003081Y007423D02*
X003127Y007423D01*
X003127Y007582D02*
X002923Y007582D01*
X001420Y008691D02*
X001356Y008691D01*
X001356Y009642D02*
X001371Y009642D01*
X001356Y009801D02*
X001375Y009801D01*
X001356Y012654D02*
X001382Y012654D01*
X001363Y012812D02*
X001356Y012812D01*
X001356Y013763D02*
X001412Y013763D01*
X001356Y018677D02*
X001405Y018677D01*
X013282Y020103D02*
X013656Y020103D01*
X013392Y019945D02*
X015259Y019945D01*
X015167Y020103D02*
X014638Y020103D01*
X014797Y020262D02*
X015167Y020262D01*
X015177Y020420D02*
X014904Y020420D01*
X014969Y020579D02*
X015336Y020579D01*
X015559Y020737D02*
X014997Y020737D01*
X014997Y020896D02*
X015429Y020896D01*
X015409Y020939D02*
X015409Y020939D01*
X015325Y021023D02*
X015325Y021023D01*
X015309Y021054D02*
X014967Y021054D01*
X014902Y021213D02*
X015305Y021213D01*
X015329Y021273D02*
X015329Y021273D01*
X015411Y021371D02*
X014792Y021371D01*
X015413Y021373D02*
X015413Y021373D01*
X015429Y021393D02*
X015429Y021393D01*
X016267Y021530D02*
X016878Y021530D01*
X016878Y021688D02*
X016386Y021688D01*
X016381Y021683D02*
X016381Y021683D01*
X016357Y021651D02*
X016357Y021651D01*
X016277Y021543D02*
X016277Y021543D01*
X016463Y021371D02*
X016878Y021371D01*
X016878Y021213D02*
X016577Y021213D01*
X016577Y021054D02*
X016878Y021054D01*
X016878Y020896D02*
X016453Y020896D01*
X016323Y020737D02*
X016878Y020737D01*
X016844Y019786D02*
X016878Y019786D01*
X016877Y019628D02*
X016878Y019628D01*
X016878Y018677D02*
X016828Y018677D01*
X015296Y017567D02*
X014325Y017567D01*
X015147Y017409D02*
X013402Y017409D01*
X013460Y017250D02*
X015147Y017250D01*
X015147Y017092D02*
X013461Y017092D01*
X013405Y016933D02*
X015242Y016933D01*
X016441Y021763D02*
X016441Y021763D01*
X016457Y021783D02*
X016457Y021783D01*
X016481Y021847D02*
X016878Y021847D01*
X016878Y022005D02*
X016465Y022005D01*
X016477Y021993D02*
X016477Y021993D01*
X016847Y006789D02*
X016878Y006789D01*
X016874Y006631D02*
X016878Y006631D01*
X016878Y005680D02*
X016825Y005680D01*
D11*
X002839Y020818D02*
X002986Y021112D01*
X002693Y021112D02*
X002839Y020818D01*
X002526Y020892D02*
X002526Y021185D01*
X002452Y021259D01*
X002306Y021259D01*
X002232Y021185D01*
X002526Y020892D01*
X002452Y020818D01*
X002306Y020818D01*
X002232Y020892D01*
X002232Y021185D01*
X002065Y020892D02*
X001992Y020892D01*
X001992Y020818D01*
X002065Y020818D01*
X002065Y020892D01*
X001835Y020818D02*
X001542Y020818D01*
X001688Y020818D02*
X001688Y021259D01*
X001835Y021112D01*
X001772Y021568D02*
X001772Y022009D01*
X002065Y022009D02*
X002065Y021568D01*
X001919Y021715D01*
X001772Y021568D01*
X002232Y021568D02*
X002452Y021789D01*
X002526Y021715D02*
X002232Y022009D01*
X002526Y022009D02*
X002526Y021568D01*
X002766Y021642D02*
X002766Y022009D01*
X002839Y022009D02*
X002693Y022009D01*
X002766Y021642D02*
X002839Y021568D01*
X002913Y021568D01*
X002986Y021642D01*
D12*
X001617Y003223D03*
X015617Y003223D03*
D13*
X015617Y004223D03*
X015617Y005223D03*
X015617Y006223D03*
X015617Y007223D03*
X015617Y008223D03*
X015617Y009223D03*
X015617Y010223D03*
X015617Y011223D03*
X015617Y012223D03*
X015617Y013223D03*
X015617Y014223D03*
X015617Y015223D03*
X015617Y016223D03*
X015617Y017223D03*
X015617Y018223D03*
X015617Y019223D03*
X015617Y020223D03*
X016617Y020223D03*
X016617Y019223D03*
X016617Y018223D03*
X016617Y017223D03*
X016617Y016223D03*
X016617Y015223D03*
X016617Y014223D03*
X016617Y013223D03*
X016617Y012223D03*
X016617Y011223D03*
X016617Y010223D03*
X016617Y009223D03*
X016617Y008223D03*
X016617Y007223D03*
X016617Y006223D03*
X016617Y005223D03*
X016617Y004223D03*
X016617Y003223D03*
X002617Y003223D03*
X002617Y004223D03*
X002617Y005223D03*
X002617Y006223D03*
X002617Y007223D03*
X002617Y008223D03*
X002617Y009223D03*
X002617Y010223D03*
X002617Y011223D03*
X002617Y012223D03*
X002617Y013223D03*
X002617Y014223D03*
X002617Y015223D03*
X002617Y016223D03*
X002617Y017223D03*
X002617Y018223D03*
X002617Y019223D03*
X002617Y020223D03*
X001617Y020223D03*
X001617Y019223D03*
X001617Y018223D03*
X001617Y017223D03*
X001617Y016223D03*
X001617Y015223D03*
X001617Y014223D03*
X001617Y013223D03*
X001617Y012223D03*
X001617Y011223D03*
X001617Y010223D03*
X001617Y009223D03*
X001617Y008223D03*
X001617Y007223D03*
X001617Y006223D03*
X001617Y005223D03*
X001617Y004223D03*
D14*
X015941Y020840D03*
X015937Y021352D03*
X015941Y021652D03*
X015941Y021656D03*
D15*
X015941Y020844D03*
D16*
X015941Y020848D03*
D17*
X015941Y020852D03*
X015965Y021336D03*
D18*
X015941Y021716D03*
X015941Y021720D03*
X015941Y021976D03*
X015941Y020856D03*
D19*
X015941Y020860D03*
D20*
X015941Y020864D03*
X015941Y021736D03*
X015941Y021972D03*
D21*
X015941Y020868D03*
D22*
X015941Y020872D03*
D23*
X015941Y020876D03*
D24*
X015941Y020880D03*
X015941Y021964D03*
D25*
X015941Y021772D03*
X015941Y020884D03*
D26*
X015941Y020888D03*
D27*
X015941Y020892D03*
X015941Y021784D03*
D28*
X015941Y021956D03*
X015941Y020896D03*
D29*
X015941Y020900D03*
X015941Y021792D03*
X015941Y021796D03*
D30*
X015941Y021800D03*
X015941Y020904D03*
D31*
X015941Y020908D03*
D32*
X015941Y020912D03*
X015941Y021804D03*
X015941Y021952D03*
D33*
X015941Y021812D03*
X015941Y020916D03*
D34*
X015941Y020920D03*
X015941Y021816D03*
D35*
X015941Y021820D03*
X015941Y020924D03*
D36*
X015941Y020928D03*
D37*
X015941Y020932D03*
X015941Y021824D03*
X015941Y021944D03*
D38*
X015941Y020940D03*
X015941Y020936D03*
D39*
X015941Y020944D03*
X015941Y021940D03*
D40*
X015941Y020948D03*
D41*
X015941Y020952D03*
D42*
X015941Y020956D03*
X015941Y020960D03*
D43*
X015941Y020964D03*
X015941Y021932D03*
D44*
X015941Y020968D03*
D45*
X015941Y020972D03*
X015941Y020976D03*
D46*
X015941Y020980D03*
X015941Y020984D03*
D47*
X015941Y020988D03*
D48*
X015941Y020992D03*
X015941Y021924D03*
D49*
X015941Y021000D03*
X015941Y020996D03*
D50*
X015941Y021004D03*
X015941Y021012D03*
X015941Y021920D03*
D51*
X015941Y021008D03*
D52*
X015941Y021016D03*
X015941Y021020D03*
X015941Y021884D03*
X015941Y021916D03*
D53*
X015941Y021912D03*
X015941Y021892D03*
X015941Y021024D03*
D54*
X015941Y021028D03*
X015941Y021888D03*
D55*
X015941Y021896D03*
X015937Y021264D03*
X015941Y021040D03*
X015941Y021036D03*
X015941Y021032D03*
D56*
X015941Y021044D03*
X015941Y021260D03*
X015941Y021900D03*
X015941Y021904D03*
D57*
X015941Y021048D03*
D58*
X015941Y021052D03*
X015941Y021056D03*
X015941Y021256D03*
D59*
X015941Y021064D03*
X015941Y021060D03*
D60*
X015939Y021068D03*
D61*
X015939Y021072D03*
X015939Y021076D03*
D62*
X015939Y021080D03*
X015939Y021084D03*
D63*
X015941Y021088D03*
D64*
X015941Y021092D03*
D65*
X015943Y021096D03*
D66*
X015941Y021100D03*
X015941Y021192D03*
D67*
X015941Y021104D03*
D68*
X015941Y021108D03*
D69*
X015941Y021112D03*
X015941Y021180D03*
D70*
X015941Y021176D03*
X015941Y021116D03*
D71*
X015941Y021120D03*
X015941Y021172D03*
D72*
X015943Y021124D03*
D73*
X015941Y021128D03*
D74*
X015941Y021132D03*
X015941Y021160D03*
X015941Y021164D03*
D75*
X015943Y021156D03*
X015943Y021140D03*
X015943Y021136D03*
D76*
X015941Y021144D03*
X015941Y021152D03*
D77*
X015941Y021148D03*
D78*
X015943Y021168D03*
D79*
X015941Y021184D03*
D80*
X015941Y021188D03*
D81*
X015951Y021224D03*
X015947Y021236D03*
D82*
X015949Y021228D03*
D83*
X015949Y021232D03*
D84*
X015947Y021240D03*
X015947Y021244D03*
D85*
X015945Y021248D03*
D86*
X015943Y021252D03*
D87*
X015935Y021268D03*
D88*
X015935Y021272D03*
X015935Y021276D03*
D89*
X015835Y021280D03*
D90*
X016167Y021296D03*
X016171Y021284D03*
X016171Y021280D03*
D91*
X015833Y021284D03*
D92*
X015833Y021288D03*
D93*
X016169Y021288D03*
D94*
X015833Y021292D03*
D95*
X016169Y021292D03*
D96*
X015829Y021296D03*
D97*
X015827Y021300D03*
D98*
X016129Y021304D03*
X016133Y021300D03*
X016049Y021676D03*
X016053Y021680D03*
D99*
X016239Y021300D03*
D100*
X015825Y021304D03*
X015941Y021712D03*
D101*
X015941Y021452D03*
X016257Y021304D03*
D102*
X015823Y021308D03*
D103*
X016123Y021308D03*
X015779Y021748D03*
D104*
X015829Y021836D03*
X015813Y021312D03*
D105*
X015941Y021380D03*
X015941Y021536D03*
X016061Y021696D03*
X016121Y021312D03*
D106*
X015807Y021316D03*
D107*
X016115Y021316D03*
X016063Y021700D03*
D108*
X015873Y021756D03*
X015809Y021320D03*
D109*
X016109Y021320D03*
D110*
X015811Y021324D03*
D111*
X015939Y021376D03*
X016103Y021324D03*
D112*
X015817Y021328D03*
X015941Y021988D03*
D113*
X016059Y021708D03*
X016095Y021328D03*
D114*
X015823Y021332D03*
D115*
X016077Y021332D03*
D116*
X015941Y021496D03*
X015941Y021500D03*
X015713Y021336D03*
D117*
X015715Y021340D03*
X015815Y021364D03*
D118*
X015963Y021340D03*
D119*
X015959Y021344D03*
D120*
X015955Y021348D03*
X015835Y021828D03*
D121*
X016107Y021352D03*
D122*
X015935Y021356D03*
D123*
X015815Y021360D03*
D124*
X015969Y021360D03*
X015941Y021604D03*
X015741Y021872D03*
X015941Y021996D03*
D125*
X015753Y021852D03*
X015749Y021856D03*
X015969Y021364D03*
D126*
X015811Y021368D03*
D127*
X015939Y021368D03*
D128*
X016053Y021368D03*
D129*
X015811Y021372D03*
D130*
X015939Y021372D03*
D131*
X015941Y021476D03*
X016057Y021372D03*
D132*
X015809Y021376D03*
D133*
X015939Y021400D03*
X016059Y021376D03*
D134*
X016065Y021384D03*
X015809Y021380D03*
D135*
X016063Y021380D03*
D136*
X015807Y021384D03*
D137*
X015939Y021384D03*
X015783Y021740D03*
X016115Y021764D03*
D138*
X015939Y021388D03*
D139*
X016069Y021388D03*
D140*
X015939Y021392D03*
D141*
X015939Y021396D03*
D142*
X015941Y021448D03*
D143*
X015941Y021456D03*
D144*
X015941Y021460D03*
D145*
X015941Y021464D03*
D146*
X015941Y021468D03*
D147*
X015941Y021472D03*
D148*
X015941Y021480D03*
X015941Y021484D03*
D149*
X015941Y021488D03*
D150*
X015941Y021492D03*
D151*
X015941Y021504D03*
D152*
X015941Y021508D03*
D153*
X015941Y021512D03*
X015941Y021516D03*
D154*
X015941Y021520D03*
D155*
X015941Y021524D03*
X016117Y021760D03*
D156*
X015939Y021528D03*
D157*
X015941Y021532D03*
X016057Y021684D03*
X016061Y021692D03*
X015781Y021744D03*
D158*
X015941Y021540D03*
X016061Y021704D03*
D159*
X015941Y021544D03*
D160*
X015941Y021548D03*
D161*
X015941Y021552D03*
D162*
X015941Y021556D03*
X015941Y021560D03*
D163*
X015941Y021564D03*
D164*
X015941Y021568D03*
D165*
X015941Y021572D03*
X015941Y021576D03*
D166*
X015941Y021580D03*
X015869Y021676D03*
X015865Y021680D03*
X015861Y021684D03*
D167*
X015857Y021696D03*
X015941Y021584D03*
D168*
X015941Y021588D03*
D169*
X015941Y021592D03*
D170*
X015941Y021596D03*
D171*
X015941Y021600D03*
X015745Y021864D03*
D172*
X015941Y021608D03*
D173*
X015941Y021612D03*
D174*
X015941Y021616D03*
D175*
X015941Y021620D03*
X015941Y021624D03*
D176*
X015941Y021628D03*
D177*
X015941Y021632D03*
X015941Y021992D03*
D178*
X015941Y021640D03*
X015941Y021636D03*
D179*
X015941Y021644D03*
D180*
X015941Y021648D03*
D181*
X015941Y021660D03*
D182*
X015941Y021664D03*
D183*
X015941Y021668D03*
D184*
X015941Y021672D03*
D185*
X015861Y021688D03*
D186*
X016057Y021688D03*
D187*
X016127Y021832D03*
X015859Y021692D03*
D188*
X015857Y021700D03*
X015857Y021704D03*
D189*
X015859Y021708D03*
D190*
X015941Y021724D03*
D191*
X015941Y021728D03*
D192*
X015943Y021732D03*
D193*
X016009Y021740D03*
D194*
X015951Y021744D03*
X015947Y021752D03*
D195*
X016109Y021744D03*
X016113Y021752D03*
D196*
X015949Y021748D03*
D197*
X016113Y021748D03*
D198*
X015779Y021752D03*
D199*
X016115Y021756D03*
D200*
X015871Y021760D03*
D201*
X015873Y021764D03*
D202*
X015941Y021768D03*
D203*
X015941Y021776D03*
X015941Y021780D03*
X015941Y021960D03*
D204*
X015941Y021788D03*
D205*
X015941Y021808D03*
D206*
X016121Y021828D03*
D207*
X016071Y021856D03*
X016071Y021860D03*
X015831Y021832D03*
D208*
X016129Y021836D03*
D209*
X015827Y021840D03*
D210*
X016131Y021840D03*
D211*
X015829Y021844D03*
D212*
X016127Y021844D03*
D213*
X015941Y021848D03*
D214*
X016067Y021852D03*
X016075Y021864D03*
D215*
X015747Y021860D03*
D216*
X015743Y021868D03*
D217*
X016077Y021868D03*
D218*
X016077Y021872D03*
X016077Y021876D03*
D219*
X015743Y021876D03*
D220*
X015743Y021880D03*
D221*
X016077Y021880D03*
D222*
X015941Y021908D03*
D223*
X015941Y021928D03*
D224*
X015943Y021936D03*
D225*
X015941Y021948D03*
D226*
X015941Y021968D03*
D227*
X015941Y021980D03*
D228*
X015941Y021984D03*
D229*
X015939Y022000D03*
D230*
X015943Y022004D03*
D231*
X008290Y013929D03*
X008038Y013929D03*
X007786Y013929D03*
X007534Y013929D03*
X007282Y013929D03*
X007030Y013929D03*
X006770Y013929D03*
X006526Y013929D03*
X006274Y013929D03*
X006022Y013929D03*
X005770Y013929D03*
X005518Y013929D03*
X005266Y013929D03*
X005014Y013929D03*
X005014Y011803D03*
X005266Y011803D03*
X005518Y011803D03*
X005770Y011803D03*
X006022Y011803D03*
X006274Y011803D03*
X006526Y011803D03*
X006778Y011803D03*
X007030Y011803D03*
X007282Y011803D03*
X007534Y011803D03*
X007786Y011803D03*
X008038Y011803D03*
X008290Y011803D03*
D232*
X012967Y010605D03*
X012967Y009621D03*
X012967Y008834D03*
X012967Y007849D03*
X012676Y005254D03*
X011692Y005254D03*
X010905Y005254D03*
X009920Y005254D03*
X012992Y014412D03*
X012992Y015396D03*
X012992Y016184D03*
X012992Y017168D03*
X012938Y019747D03*
X011954Y019747D03*
X011166Y019747D03*
X010182Y019747D03*
D233*
X008974Y020814D03*
X014059Y018377D03*
X014147Y020814D03*
X014059Y013204D03*
X014034Y011814D03*
X014034Y006641D03*
X013885Y004187D03*
X008712Y004187D03*
D234*
X006002Y005366D02*
X006004Y005387D01*
X006010Y005407D01*
X006019Y005427D01*
X006031Y005444D01*
X006046Y005458D01*
X006064Y005470D01*
X006084Y005478D01*
X006104Y005483D01*
X006125Y005484D01*
X006146Y005481D01*
X006166Y005475D01*
X006185Y005464D01*
X006202Y005451D01*
X006215Y005435D01*
X006226Y005417D01*
X006234Y005397D01*
X006238Y005377D01*
X006238Y005355D01*
X006234Y005335D01*
X006226Y005315D01*
X006215Y005297D01*
X006202Y005281D01*
X006185Y005268D01*
X006166Y005257D01*
X006146Y005251D01*
X006125Y005248D01*
X006104Y005249D01*
X006084Y005254D01*
X006064Y005262D01*
X006046Y005274D01*
X006031Y005288D01*
X006019Y005305D01*
X006010Y005325D01*
X006004Y005345D01*
X006002Y005366D01*
X005692Y005876D02*
X005694Y005897D01*
X005700Y005917D01*
X005709Y005937D01*
X005721Y005954D01*
X005736Y005968D01*
X005754Y005980D01*
X005774Y005988D01*
X005794Y005993D01*
X005815Y005994D01*
X005836Y005991D01*
X005856Y005985D01*
X005875Y005974D01*
X005892Y005961D01*
X005905Y005945D01*
X005916Y005927D01*
X005924Y005907D01*
X005928Y005887D01*
X005928Y005865D01*
X005924Y005845D01*
X005916Y005825D01*
X005905Y005807D01*
X005892Y005791D01*
X005875Y005778D01*
X005856Y005767D01*
X005836Y005761D01*
X005815Y005758D01*
X005794Y005759D01*
X005774Y005764D01*
X005754Y005772D01*
X005736Y005784D01*
X005721Y005798D01*
X005709Y005815D01*
X005700Y005835D01*
X005694Y005855D01*
X005692Y005876D01*
X005372Y005366D02*
X005374Y005387D01*
X005380Y005407D01*
X005389Y005427D01*
X005401Y005444D01*
X005416Y005458D01*
X005434Y005470D01*
X005454Y005478D01*
X005474Y005483D01*
X005495Y005484D01*
X005516Y005481D01*
X005536Y005475D01*
X005555Y005464D01*
X005572Y005451D01*
X005585Y005435D01*
X005596Y005417D01*
X005604Y005397D01*
X005608Y005377D01*
X005608Y005355D01*
X005604Y005335D01*
X005596Y005315D01*
X005585Y005297D01*
X005572Y005281D01*
X005555Y005268D01*
X005536Y005257D01*
X005516Y005251D01*
X005495Y005248D01*
X005474Y005249D01*
X005454Y005254D01*
X005434Y005262D01*
X005416Y005274D01*
X005401Y005288D01*
X005389Y005305D01*
X005380Y005325D01*
X005374Y005345D01*
X005372Y005366D01*
X004708Y020483D02*
X004710Y020509D01*
X004716Y020535D01*
X004726Y020560D01*
X004739Y020583D01*
X004755Y020603D01*
X004775Y020621D01*
X004797Y020636D01*
X004820Y020648D01*
X004846Y020656D01*
X004872Y020660D01*
X004898Y020660D01*
X004924Y020656D01*
X004950Y020648D01*
X004974Y020636D01*
X004995Y020621D01*
X005015Y020603D01*
X005031Y020583D01*
X005044Y020560D01*
X005054Y020535D01*
X005060Y020509D01*
X005062Y020483D01*
X005060Y020457D01*
X005054Y020431D01*
X005044Y020406D01*
X005031Y020383D01*
X005015Y020363D01*
X004995Y020345D01*
X004973Y020330D01*
X004950Y020318D01*
X004924Y020310D01*
X004898Y020306D01*
X004872Y020306D01*
X004846Y020310D01*
X004820Y020318D01*
X004796Y020330D01*
X004775Y020345D01*
X004755Y020363D01*
X004739Y020383D01*
X004726Y020406D01*
X004716Y020431D01*
X004710Y020457D01*
X004708Y020483D01*
X006440Y020483D02*
X006442Y020509D01*
X006448Y020535D01*
X006458Y020560D01*
X006471Y020583D01*
X006487Y020603D01*
X006507Y020621D01*
X006529Y020636D01*
X006552Y020648D01*
X006578Y020656D01*
X006604Y020660D01*
X006630Y020660D01*
X006656Y020656D01*
X006682Y020648D01*
X006706Y020636D01*
X006727Y020621D01*
X006747Y020603D01*
X006763Y020583D01*
X006776Y020560D01*
X006786Y020535D01*
X006792Y020509D01*
X006794Y020483D01*
X006792Y020457D01*
X006786Y020431D01*
X006776Y020406D01*
X006763Y020383D01*
X006747Y020363D01*
X006727Y020345D01*
X006705Y020330D01*
X006682Y020318D01*
X006656Y020310D01*
X006630Y020306D01*
X006604Y020306D01*
X006578Y020310D01*
X006552Y020318D01*
X006528Y020330D01*
X006507Y020345D01*
X006487Y020363D01*
X006471Y020383D01*
X006458Y020406D01*
X006448Y020431D01*
X006442Y020457D01*
X006440Y020483D01*
D235*
X006361Y003849D03*
X004392Y003849D03*
D236*
X004226Y008211D02*
X004226Y008684D01*
X009426Y008684D02*
X009426Y008211D01*
X009426Y015511D02*
X009426Y015984D01*
X004226Y015984D02*
X004226Y015511D01*
D237*
X004298Y007466D02*
X004298Y006926D01*
X005298Y006926D02*
X005298Y007466D01*
X006298Y007466D02*
X006298Y006926D01*
D238*
X011833Y011684D03*
X011833Y012845D03*
D239*
X012030Y008337D03*
X010928Y008337D03*
D240*
X010573Y011723D03*
X010573Y012826D03*
X011833Y017353D03*
X011833Y018456D03*
D241*
X006105Y009637D03*
X005357Y009637D03*
D242*
X007463Y016428D03*
X007463Y017176D03*
X008329Y017452D03*
X008329Y016704D03*
X003841Y016704D03*
X003841Y017452D03*
D243*
X011656Y006900D03*
D244*
X011656Y006231D03*
X010829Y006231D03*
X010829Y006979D03*
D245*
X006370Y021448D03*
X005770Y021448D03*
X005170Y021448D03*
D246*
X004373Y003845D03*
X007247Y003845D03*
D247*
X006440Y005873D02*
X006440Y006288D01*
X005180Y006288D02*
X005180Y005873D01*
D248*
X012676Y005254D02*
X013002Y005254D01*
X013132Y005385D01*
X013132Y004834D01*
X012621Y004322D01*
X013132Y005385D02*
X013132Y006487D01*
X013132Y007117D01*
X013526Y007511D01*
X013526Y008337D01*
X013526Y010070D01*
X013526Y010109D01*
X013640Y010223D01*
X015617Y010223D01*
X013526Y010109D02*
X013526Y010582D01*
X013502Y010605D01*
X012967Y010605D01*
X013526Y010582D02*
X013526Y010936D01*
X012967Y011495D01*
X012967Y011802D01*
X012967Y012274D01*
X012967Y013408D01*
X013762Y014204D01*
X013762Y016330D01*
X013762Y017196D01*
X013735Y017168D01*
X012992Y017168D01*
X013762Y017196D02*
X013762Y017393D01*
X013132Y018022D01*
X013132Y018456D01*
X013132Y019007D01*
X013841Y019715D01*
X013093Y020463D01*
X010534Y020463D01*
X010182Y020112D01*
X010182Y019747D01*
X013841Y019715D02*
X013920Y019794D01*
X015188Y019794D01*
X015617Y020223D01*
D249*
X011203Y016841D03*
X009235Y019479D03*
X009038Y018456D03*
X008132Y017904D03*
X007739Y018692D03*
X006479Y018613D03*
X007148Y017196D03*
X006833Y016093D03*
X006754Y015503D03*
X006243Y015503D03*
X005613Y016015D03*
X004471Y018062D03*
X003841Y017786D03*
X005140Y018574D03*
X008644Y015896D03*
X008999Y014637D03*
X009392Y011408D03*
X010085Y010857D03*
X011282Y010660D03*
X010337Y009361D03*
X010140Y008141D03*
X008014Y006802D03*
X006951Y008180D03*
X007778Y009440D03*
X007424Y010267D03*
X006243Y010306D03*
X005062Y008849D03*
X004471Y011566D03*
X004628Y013337D03*
X004432Y013967D03*
X005534Y013298D03*
X006085Y013101D03*
X010180Y021054D03*
X012621Y004322D03*
D250*
X011692Y005047D02*
X011692Y005254D01*
X010829Y006117D01*
X010829Y006231D01*
X010573Y005857D02*
X009786Y005857D01*
X009707Y005936D01*
X009707Y006054D01*
X009747Y006093D01*
X009865Y006093D01*
X009983Y006211D01*
X009983Y006330D01*
X010180Y006330D01*
X010455Y006605D01*
X011282Y006605D01*
X011656Y006231D01*
X011656Y006900D02*
X012404Y006900D01*
X012660Y006645D01*
X012975Y006645D01*
X013132Y006487D01*
X013251Y008416D02*
X012542Y008416D01*
X012384Y008574D01*
X012384Y009007D01*
X011676Y009715D01*
X008172Y009715D01*
X007896Y009991D01*
X007739Y009991D01*
X007660Y009912D01*
X007227Y009912D01*
X007069Y010070D01*
X007069Y009479D01*
X009983Y006566D01*
X010101Y006566D01*
X009983Y006330D02*
X006833Y009479D01*
X006833Y010778D01*
X006440Y011172D01*
X006085Y011172D01*
X006022Y011235D01*
X006022Y011803D01*
X006274Y011803D02*
X006274Y012660D01*
X006754Y013141D01*
X008211Y013141D01*
X010337Y015267D01*
X010337Y018849D01*
X010455Y018967D01*
X010534Y018967D01*
X010652Y018889D01*
X010770Y018889D01*
X010888Y019007D01*
X010888Y019469D01*
X011166Y019747D01*
X010691Y019597D02*
X010691Y020070D01*
X010810Y020188D01*
X012345Y020188D01*
X012463Y020070D01*
X012463Y019479D01*
X012266Y019282D01*
X011754Y019282D01*
X010731Y018259D01*
X010731Y015109D01*
X008369Y012747D01*
X006951Y012747D01*
X006833Y012944D02*
X008329Y012944D01*
X010534Y015148D01*
X010534Y018327D01*
X011954Y019747D01*
X010691Y019597D02*
X010140Y019046D01*
X010140Y015345D01*
X008565Y013771D01*
X008290Y013929D02*
X008290Y014282D01*
X008644Y014637D01*
X008999Y014637D01*
X008644Y015345D02*
X008644Y015896D01*
X008644Y015660D01*
X007534Y014550D01*
X007534Y013929D01*
X007786Y013929D02*
X007786Y014487D01*
X008644Y015345D01*
X008251Y015621D02*
X008251Y016625D01*
X008329Y016704D01*
X008231Y016605D01*
X007857Y016034D02*
X007463Y016428D01*
X007857Y016034D02*
X007857Y015542D01*
X007030Y014715D01*
X007030Y013929D01*
X006770Y013929D02*
X006770Y014888D01*
X007148Y015267D01*
X007148Y015778D01*
X006833Y016093D01*
X006282Y016133D02*
X006282Y017511D01*
X006440Y017668D01*
X007148Y017668D01*
X007581Y018101D01*
X007581Y018534D01*
X007739Y018692D01*
X007266Y018337D02*
X007266Y019834D01*
X007148Y019952D01*
X005495Y019952D01*
X005140Y019597D01*
X005140Y018574D01*
X005377Y018259D02*
X006912Y018259D01*
X007069Y018416D01*
X007069Y019637D01*
X006951Y019755D01*
X005888Y019755D01*
X005810Y019676D01*
X005770Y019479D01*
X005849Y019400D01*
X006794Y019400D01*
X006873Y019322D01*
X006873Y019164D01*
X006794Y019085D01*
X006558Y019085D01*
X006479Y019007D01*
X006479Y018613D01*
X006951Y018022D02*
X007266Y018337D01*
X006951Y018022D02*
X005416Y018022D01*
X005266Y017873D01*
X005266Y013929D01*
X005258Y013922D01*
X005258Y013574D01*
X005534Y013298D01*
X006085Y013101D02*
X006184Y013003D01*
X006184Y012924D01*
X006526Y013266D01*
X006526Y013929D01*
X006274Y013929D02*
X006274Y014353D01*
X006558Y014637D01*
X006558Y015070D01*
X006754Y015267D01*
X006754Y015503D01*
X006282Y016133D02*
X005770Y015621D01*
X005770Y013929D01*
X006022Y013929D02*
X006022Y014416D01*
X006243Y014637D01*
X006243Y015503D01*
X005613Y016015D02*
X005518Y015920D01*
X005518Y013929D01*
X005014Y013929D02*
X005014Y013723D01*
X004628Y013337D01*
X004432Y013967D02*
X004195Y013967D01*
X005014Y013929D02*
X005014Y017896D01*
X005377Y018259D01*
X003841Y017786D02*
X003841Y017452D01*
X007148Y017196D02*
X007168Y017176D01*
X007463Y017176D01*
X008132Y017648D02*
X008132Y017904D01*
X008132Y017648D02*
X008329Y017452D01*
X008251Y015621D02*
X007282Y014652D01*
X007282Y013929D01*
X008038Y013929D02*
X008038Y014345D01*
X009204Y015511D01*
X009426Y015748D01*
X009747Y014085D02*
X011164Y014085D01*
X011833Y014794D01*
X011833Y016487D01*
X011951Y016605D01*
X013329Y016605D01*
X013408Y016526D01*
X013408Y016290D01*
X013447Y016330D01*
X013762Y016330D01*
X013408Y016290D02*
X013408Y015109D01*
X013211Y014912D01*
X012817Y014912D01*
X011400Y013495D01*
X009865Y013495D01*
X008605Y012235D01*
X008447Y012314D02*
X007109Y012314D01*
X007030Y012235D01*
X007030Y011804D01*
X007030Y011803D01*
X006778Y011803D02*
X006778Y012337D01*
X006951Y012511D01*
X008369Y012511D01*
X009747Y013889D01*
X011203Y013889D01*
X012030Y014715D01*
X012030Y016172D01*
X012148Y016290D01*
X012885Y016290D01*
X012992Y016184D01*
X012384Y015778D02*
X012463Y015660D01*
X012463Y015148D01*
X012542Y015070D01*
X012660Y015070D01*
X012908Y015396D01*
X012992Y015396D01*
X012384Y015778D02*
X012306Y015778D01*
X012227Y015700D01*
X012227Y014632D01*
X011287Y013692D01*
X009825Y013692D01*
X008447Y012314D01*
X008038Y011803D02*
X008038Y011188D01*
X008132Y011093D01*
X009314Y011093D01*
X009392Y011172D01*
X009392Y011408D01*
X009865Y010857D02*
X010085Y010857D01*
X009865Y010857D02*
X007975Y010857D01*
X007786Y011046D01*
X007786Y011803D01*
X007534Y011803D02*
X007534Y010708D01*
X008329Y009912D01*
X011794Y009912D01*
X012873Y008834D01*
X012967Y008834D01*
X013251Y008416D02*
X013408Y008574D01*
X013408Y009991D01*
X013447Y009991D01*
X013526Y010070D01*
X013408Y009991D02*
X013290Y010109D01*
X008447Y010109D01*
X007778Y010778D01*
X007282Y010409D02*
X007424Y010267D01*
X007282Y010409D02*
X007282Y011803D01*
X007069Y011290D02*
X007069Y010070D01*
X006636Y010660D02*
X006636Y009400D01*
X009353Y006684D01*
X009353Y005148D01*
X009747Y004755D01*
X011400Y004755D01*
X011692Y005047D01*
X010905Y005254D02*
X010905Y005526D01*
X010573Y005857D01*
X010905Y005408D02*
X010905Y005254D01*
X009156Y006645D02*
X008172Y006645D01*
X008014Y006802D01*
X009156Y006645D02*
X006558Y009204D01*
X006105Y009637D02*
X006046Y009696D01*
X006046Y010306D01*
X006243Y010306D01*
X006046Y010306D02*
X006046Y010424D01*
X005518Y010952D01*
X005518Y011803D01*
X005266Y011803D02*
X005258Y011811D01*
X005258Y012353D01*
X005337Y012432D01*
X005691Y012432D01*
X006184Y012924D01*
X006526Y012636D02*
X006833Y012944D01*
X006526Y012636D02*
X006526Y011803D01*
X005770Y011803D02*
X005770Y011172D01*
X006006Y010936D01*
X006361Y010936D01*
X006636Y010660D01*
X005357Y009637D02*
X005014Y009979D01*
X005014Y011803D01*
X004471Y011566D02*
X004195Y011566D01*
D251*
X004195Y009873D01*
X004707Y009361D01*
X004707Y008810D01*
X005298Y008219D01*
X005298Y007196D01*
X005298Y006408D01*
X005180Y006290D01*
X005180Y005873D01*
X004298Y006211D02*
X004298Y007196D01*
X004298Y006211D02*
X003684Y006211D01*
X003447Y006448D01*
X003447Y014969D01*
X004226Y015748D01*
X004707Y014912D02*
X004707Y018101D01*
X004707Y019637D01*
X005770Y020700D01*
X005770Y021448D01*
X005170Y021448D02*
X003841Y021448D01*
X002617Y020223D01*
X002699Y020306D01*
X006370Y021448D02*
X006794Y021448D01*
X008290Y019952D01*
X009432Y019952D01*
X009983Y020503D01*
X009983Y020857D01*
X010180Y021054D01*
X004707Y014912D02*
X004195Y014400D01*
X004195Y013967D01*
X004195Y011566D01*
X004298Y006211D02*
X004298Y003944D01*
X004392Y003849D01*
M02*
