G75*
%MOIN*%
%OFA0B0*%
%FSLAX24Y24*%
%IPPOS*%
%LPD*%
%AMOC8*
5,1,8,0,0,1.08239X$1,22.5*
%
%ADD10C,0.0160*%
%ADD11C,0.0000*%
D10*
X001046Y002668D02*
X017188Y002668D01*
X017188Y022353D01*
X001046Y022353D01*
X001046Y002668D01*
D11*
X005372Y005366D02*
X005374Y005387D01*
X005380Y005407D01*
X005389Y005427D01*
X005401Y005444D01*
X005416Y005458D01*
X005434Y005470D01*
X005454Y005478D01*
X005474Y005483D01*
X005495Y005484D01*
X005516Y005481D01*
X005536Y005475D01*
X005555Y005464D01*
X005572Y005451D01*
X005585Y005435D01*
X005596Y005417D01*
X005604Y005397D01*
X005608Y005377D01*
X005608Y005355D01*
X005604Y005335D01*
X005596Y005315D01*
X005585Y005297D01*
X005572Y005281D01*
X005555Y005268D01*
X005536Y005257D01*
X005516Y005251D01*
X005495Y005248D01*
X005474Y005249D01*
X005454Y005254D01*
X005434Y005262D01*
X005416Y005274D01*
X005401Y005288D01*
X005389Y005305D01*
X005380Y005325D01*
X005374Y005345D01*
X005372Y005366D01*
X005692Y005876D02*
X005694Y005897D01*
X005700Y005917D01*
X005709Y005937D01*
X005721Y005954D01*
X005736Y005968D01*
X005754Y005980D01*
X005774Y005988D01*
X005794Y005993D01*
X005815Y005994D01*
X005836Y005991D01*
X005856Y005985D01*
X005875Y005974D01*
X005892Y005961D01*
X005905Y005945D01*
X005916Y005927D01*
X005924Y005907D01*
X005928Y005887D01*
X005928Y005865D01*
X005924Y005845D01*
X005916Y005825D01*
X005905Y005807D01*
X005892Y005791D01*
X005875Y005778D01*
X005856Y005767D01*
X005836Y005761D01*
X005815Y005758D01*
X005794Y005759D01*
X005774Y005764D01*
X005754Y005772D01*
X005736Y005784D01*
X005721Y005798D01*
X005709Y005815D01*
X005700Y005835D01*
X005694Y005855D01*
X005692Y005876D01*
X006002Y005366D02*
X006004Y005387D01*
X006010Y005407D01*
X006019Y005427D01*
X006031Y005444D01*
X006046Y005458D01*
X006064Y005470D01*
X006084Y005478D01*
X006104Y005483D01*
X006125Y005484D01*
X006146Y005481D01*
X006166Y005475D01*
X006185Y005464D01*
X006202Y005451D01*
X006215Y005435D01*
X006226Y005417D01*
X006234Y005397D01*
X006238Y005377D01*
X006238Y005355D01*
X006234Y005335D01*
X006226Y005315D01*
X006215Y005297D01*
X006202Y005281D01*
X006185Y005268D01*
X006166Y005257D01*
X006146Y005251D01*
X006125Y005248D01*
X006104Y005249D01*
X006084Y005254D01*
X006064Y005262D01*
X006046Y005274D01*
X006031Y005288D01*
X006019Y005305D01*
X006010Y005325D01*
X006004Y005345D01*
X006002Y005366D01*
X006440Y020483D02*
X006442Y020509D01*
X006448Y020535D01*
X006458Y020560D01*
X006471Y020583D01*
X006487Y020603D01*
X006507Y020621D01*
X006529Y020636D01*
X006552Y020648D01*
X006578Y020656D01*
X006604Y020660D01*
X006630Y020660D01*
X006656Y020656D01*
X006682Y020648D01*
X006706Y020636D01*
X006727Y020621D01*
X006747Y020603D01*
X006763Y020583D01*
X006776Y020560D01*
X006786Y020535D01*
X006792Y020509D01*
X006794Y020483D01*
X006792Y020457D01*
X006786Y020431D01*
X006776Y020406D01*
X006763Y020383D01*
X006747Y020363D01*
X006727Y020345D01*
X006705Y020330D01*
X006682Y020318D01*
X006656Y020310D01*
X006630Y020306D01*
X006604Y020306D01*
X006578Y020310D01*
X006552Y020318D01*
X006528Y020330D01*
X006507Y020345D01*
X006487Y020363D01*
X006471Y020383D01*
X006458Y020406D01*
X006448Y020431D01*
X006442Y020457D01*
X006440Y020483D01*
X004708Y020483D02*
X004710Y020509D01*
X004716Y020535D01*
X004726Y020560D01*
X004739Y020583D01*
X004755Y020603D01*
X004775Y020621D01*
X004797Y020636D01*
X004820Y020648D01*
X004846Y020656D01*
X004872Y020660D01*
X004898Y020660D01*
X004924Y020656D01*
X004950Y020648D01*
X004974Y020636D01*
X004995Y020621D01*
X005015Y020603D01*
X005031Y020583D01*
X005044Y020560D01*
X005054Y020535D01*
X005060Y020509D01*
X005062Y020483D01*
X005060Y020457D01*
X005054Y020431D01*
X005044Y020406D01*
X005031Y020383D01*
X005015Y020363D01*
X004995Y020345D01*
X004973Y020330D01*
X004950Y020318D01*
X004924Y020310D01*
X004898Y020306D01*
X004872Y020306D01*
X004846Y020310D01*
X004820Y020318D01*
X004796Y020330D01*
X004775Y020345D01*
X004755Y020363D01*
X004739Y020383D01*
X004726Y020406D01*
X004716Y020431D01*
X004710Y020457D01*
X004708Y020483D01*
M02*
