G75*
%MOIN*%
%OFA0B0*%
%FSLAX24Y24*%
%IPPOS*%
%LPD*%
%AMOC8*
5,1,8,0,0,1.08239X$1,22.5*
%
%ADD10C,0.0160*%
%ADD11R,0.0197X0.0984*%
%ADD12R,0.0787X0.0984*%
%ADD13C,0.0000*%
%ADD14R,0.0591X0.1063*%
%ADD15R,0.1063X0.0591*%
%ADD16R,0.0630X0.1063*%
%ADD17R,0.1063X0.0630*%
%ADD18R,0.0591X0.0512*%
%ADD19R,0.0472X0.0472*%
%ADD20R,0.0394X0.0236*%
%ADD21R,0.0236X0.0236*%
%ADD22R,0.0236X0.0394*%
%ADD23R,0.2000X0.0700*%
D10*
X001046Y002668D02*
X017188Y002668D01*
X017188Y022353D01*
X001046Y022353D01*
X001046Y002668D01*
D11*
X005121Y019499D03*
X005436Y019499D03*
X005751Y019499D03*
X006066Y019499D03*
X006381Y019499D03*
D12*
X007522Y019499D03*
X007522Y021664D03*
X003979Y021664D03*
X003979Y019499D03*
D13*
X004708Y020483D02*
X004710Y020509D01*
X004716Y020535D01*
X004726Y020560D01*
X004739Y020583D01*
X004755Y020603D01*
X004775Y020621D01*
X004797Y020636D01*
X004820Y020648D01*
X004846Y020656D01*
X004872Y020660D01*
X004898Y020660D01*
X004924Y020656D01*
X004950Y020648D01*
X004974Y020636D01*
X004995Y020621D01*
X005015Y020603D01*
X005031Y020583D01*
X005044Y020560D01*
X005054Y020535D01*
X005060Y020509D01*
X005062Y020483D01*
X005060Y020457D01*
X005054Y020431D01*
X005044Y020406D01*
X005031Y020383D01*
X005015Y020363D01*
X004995Y020345D01*
X004973Y020330D01*
X004950Y020318D01*
X004924Y020310D01*
X004898Y020306D01*
X004872Y020306D01*
X004846Y020310D01*
X004820Y020318D01*
X004796Y020330D01*
X004775Y020345D01*
X004755Y020363D01*
X004739Y020383D01*
X004726Y020406D01*
X004716Y020431D01*
X004710Y020457D01*
X004708Y020483D01*
X006440Y020483D02*
X006442Y020509D01*
X006448Y020535D01*
X006458Y020560D01*
X006471Y020583D01*
X006487Y020603D01*
X006507Y020621D01*
X006529Y020636D01*
X006552Y020648D01*
X006578Y020656D01*
X006604Y020660D01*
X006630Y020660D01*
X006656Y020656D01*
X006682Y020648D01*
X006706Y020636D01*
X006727Y020621D01*
X006747Y020603D01*
X006763Y020583D01*
X006776Y020560D01*
X006786Y020535D01*
X006792Y020509D01*
X006794Y020483D01*
X006792Y020457D01*
X006786Y020431D01*
X006776Y020406D01*
X006763Y020383D01*
X006747Y020363D01*
X006727Y020345D01*
X006705Y020330D01*
X006682Y020318D01*
X006656Y020310D01*
X006630Y020306D01*
X006604Y020306D01*
X006578Y020310D01*
X006552Y020318D01*
X006528Y020330D01*
X006507Y020345D01*
X006487Y020363D01*
X006471Y020383D01*
X006458Y020406D01*
X006448Y020431D01*
X006442Y020457D01*
X006440Y020483D01*
X005692Y005876D02*
X005694Y005897D01*
X005700Y005917D01*
X005709Y005937D01*
X005721Y005954D01*
X005736Y005968D01*
X005754Y005980D01*
X005774Y005988D01*
X005794Y005993D01*
X005815Y005994D01*
X005836Y005991D01*
X005856Y005985D01*
X005875Y005974D01*
X005892Y005961D01*
X005905Y005945D01*
X005916Y005927D01*
X005924Y005907D01*
X005928Y005887D01*
X005928Y005865D01*
X005924Y005845D01*
X005916Y005825D01*
X005905Y005807D01*
X005892Y005791D01*
X005875Y005778D01*
X005856Y005767D01*
X005836Y005761D01*
X005815Y005758D01*
X005794Y005759D01*
X005774Y005764D01*
X005754Y005772D01*
X005736Y005784D01*
X005721Y005798D01*
X005709Y005815D01*
X005700Y005835D01*
X005694Y005855D01*
X005692Y005876D01*
X005372Y005366D02*
X005374Y005387D01*
X005380Y005407D01*
X005389Y005427D01*
X005401Y005444D01*
X005416Y005458D01*
X005434Y005470D01*
X005454Y005478D01*
X005474Y005483D01*
X005495Y005484D01*
X005516Y005481D01*
X005536Y005475D01*
X005555Y005464D01*
X005572Y005451D01*
X005585Y005435D01*
X005596Y005417D01*
X005604Y005397D01*
X005608Y005377D01*
X005608Y005355D01*
X005604Y005335D01*
X005596Y005315D01*
X005585Y005297D01*
X005572Y005281D01*
X005555Y005268D01*
X005536Y005257D01*
X005516Y005251D01*
X005495Y005248D01*
X005474Y005249D01*
X005454Y005254D01*
X005434Y005262D01*
X005416Y005274D01*
X005401Y005288D01*
X005389Y005305D01*
X005380Y005325D01*
X005374Y005345D01*
X005372Y005366D01*
X006002Y005366D02*
X006004Y005387D01*
X006010Y005407D01*
X006019Y005427D01*
X006031Y005444D01*
X006046Y005458D01*
X006064Y005470D01*
X006084Y005478D01*
X006104Y005483D01*
X006125Y005484D01*
X006146Y005481D01*
X006166Y005475D01*
X006185Y005464D01*
X006202Y005451D01*
X006215Y005435D01*
X006226Y005417D01*
X006234Y005397D01*
X006238Y005377D01*
X006238Y005355D01*
X006234Y005335D01*
X006226Y005315D01*
X006215Y005297D01*
X006202Y005281D01*
X006185Y005268D01*
X006166Y005257D01*
X006146Y005251D01*
X006125Y005248D01*
X006104Y005249D01*
X006084Y005254D01*
X006064Y005262D01*
X006046Y005274D01*
X006031Y005288D01*
X006019Y005305D01*
X006010Y005325D01*
X006004Y005345D01*
X006002Y005366D01*
D14*
X010691Y008377D03*
X011853Y008377D03*
D15*
X011754Y007235D03*
X011754Y006074D03*
X011951Y017432D03*
X011951Y018593D03*
D16*
X010928Y014243D03*
X009825Y014243D03*
X009904Y006841D03*
X008802Y006841D03*
D17*
X008132Y014046D03*
X008132Y015148D03*
D18*
X006125Y014696D03*
X006125Y013948D03*
X005219Y013948D03*
X005219Y014696D03*
D19*
X005573Y016625D03*
X005573Y017452D03*
X006558Y017452D03*
X006558Y016625D03*
X007542Y016625D03*
X007542Y017452D03*
X008526Y017452D03*
X008526Y016625D03*
X009510Y016625D03*
X009510Y017452D03*
D20*
X010987Y015404D03*
X011262Y009459D03*
D21*
X011932Y009459D03*
X011932Y010286D03*
X011184Y010286D03*
X011656Y015404D03*
X011656Y016231D03*
X010908Y016231D03*
X009766Y018082D03*
X009766Y018830D03*
X010593Y018830D03*
X005475Y012885D03*
X004648Y012885D03*
X004648Y012137D03*
D22*
X005475Y012215D03*
X010593Y018160D03*
D23*
X011804Y012314D03*
X008004Y012314D03*
M02*
