G75*
%MOIN*%
%OFA0B0*%
%FSLAX24Y24*%
%IPPOS*%
%LPD*%
%AMOC8*
5,1,8,0,0,1.08239X$1,22.5*
%
%ADD10C,0.0160*%
%ADD11C,0.0600*%
%ADD12OC8,0.0600*%
%ADD13R,0.0198X0.0651*%
%ADD14OC8,0.1310*%
%ADD15C,0.0532*%
%ADD16C,0.0600*%
%ADD17R,0.0651X0.0572*%
%ADD18R,0.0572X0.0651*%
%ADD19R,0.0454X0.0296*%
%ADD20R,0.0296X0.0296*%
%ADD21R,0.0296X0.0454*%
%ADD22R,0.0296X0.0296*%
%ADD23R,0.0520X0.0690*%
%ADD24C,0.0591*%
%ADD25C,0.0946*%
%ADD26R,0.0690X0.0520*%
%ADD27C,0.0739*%
%ADD28C,0.0562*%
%ADD29R,0.1005X0.1005*%
%ADD30C,0.0436*%
D10*
X002254Y004003D02*
X018396Y004003D01*
X018396Y023688D01*
X002254Y023688D01*
X002254Y004003D01*
D11*
X002825Y004558D03*
X016825Y004558D03*
D12*
X016825Y005558D03*
X016825Y006558D03*
X016825Y007558D03*
X016825Y008558D03*
X016825Y009558D03*
X016825Y010558D03*
X016825Y011558D03*
X017825Y011558D03*
X017825Y010558D03*
X017825Y009558D03*
X017825Y008558D03*
X017825Y007558D03*
X017825Y006558D03*
X017825Y005558D03*
X017825Y004558D03*
X017825Y012558D03*
X017825Y013558D03*
X017825Y014558D03*
X017825Y015558D03*
X017825Y016558D03*
X017825Y017558D03*
X017825Y018558D03*
X017825Y019558D03*
X017825Y020558D03*
X017825Y021558D03*
X016825Y021558D03*
X016825Y020558D03*
X016825Y019558D03*
X016825Y018558D03*
X016825Y017558D03*
X016825Y016558D03*
X016825Y015558D03*
X016825Y014558D03*
X016825Y013558D03*
X016825Y012558D03*
X003825Y012558D03*
X003825Y013558D03*
X003825Y014558D03*
X003825Y015558D03*
X003825Y016558D03*
X003825Y017558D03*
X003825Y018558D03*
X003825Y019558D03*
X003825Y020558D03*
X003825Y021558D03*
X002825Y021558D03*
X002825Y020558D03*
X002825Y019558D03*
X002825Y018558D03*
X002825Y017558D03*
X002825Y016558D03*
X002825Y015558D03*
X002825Y014558D03*
X002825Y013558D03*
X002825Y012558D03*
X002825Y011558D03*
X002825Y010558D03*
X002825Y009558D03*
X002825Y008558D03*
X002825Y007558D03*
X002825Y006558D03*
X002825Y005558D03*
X003825Y005558D03*
X003825Y004558D03*
X003825Y006558D03*
X003825Y007558D03*
X003825Y008558D03*
X003825Y009558D03*
X003825Y010558D03*
X003825Y011558D03*
D13*
X008820Y011524D03*
X009072Y011524D03*
X009324Y011524D03*
X009576Y011524D03*
X009828Y011524D03*
X010080Y011524D03*
X010332Y011524D03*
X010584Y011524D03*
X010836Y011524D03*
X011088Y011524D03*
X011340Y011524D03*
X011592Y011524D03*
X011844Y011524D03*
X012096Y011524D03*
X012096Y013650D03*
X011844Y013650D03*
X011592Y013650D03*
X011340Y013650D03*
X011088Y013650D03*
X010836Y013650D03*
X010576Y013650D03*
X010332Y013650D03*
X010080Y013650D03*
X009828Y013650D03*
X009576Y013650D03*
X009324Y013650D03*
X009072Y013650D03*
X008820Y013650D03*
D14*
X012687Y022428D03*
X014655Y022428D03*
D15*
X010570Y022633D02*
X010570Y023105D01*
X005370Y023105D02*
X005370Y022633D01*
X005370Y015805D02*
X005370Y015333D01*
X006536Y013840D02*
X007009Y013840D01*
X010570Y015333D02*
X010570Y015805D01*
X013836Y013840D02*
X014309Y013840D01*
X014309Y008640D02*
X013836Y008640D01*
X007009Y008640D02*
X006536Y008640D01*
D16*
X012592Y018221D02*
X012592Y018761D01*
X013592Y018761D02*
X013592Y018221D01*
X014592Y018221D02*
X014592Y018761D01*
D17*
X014813Y016385D03*
X014813Y015637D03*
X013238Y015637D03*
X013238Y016385D03*
X011663Y016385D03*
X011663Y015637D03*
X009734Y015282D03*
X009734Y016031D03*
X007372Y012920D03*
X007372Y012172D03*
D18*
X009872Y017507D03*
X009872Y018373D03*
X010620Y018373D03*
X010620Y017507D03*
D19*
X013022Y010716D03*
G36*
X009458Y008983D02*
X009778Y009303D01*
X009988Y009093D01*
X009668Y008773D01*
X009458Y008983D01*
G37*
G36*
X006348Y009770D02*
X006668Y010090D01*
X006878Y009880D01*
X006558Y009560D01*
X006348Y009770D01*
G37*
D20*
X010974Y009180D03*
X010974Y008432D03*
X011801Y008432D03*
X012943Y009889D03*
X013691Y009889D03*
X013691Y010716D03*
D21*
X011801Y009101D03*
D22*
G36*
X009041Y008564D02*
X009250Y008773D01*
X009459Y008564D01*
X009250Y008355D01*
X009041Y008564D01*
G37*
G36*
X008457Y009149D02*
X008666Y009358D01*
X008875Y009149D01*
X008666Y008940D01*
X008457Y009149D01*
G37*
G36*
X008985Y009678D02*
X009194Y009887D01*
X009403Y009678D01*
X009194Y009469D01*
X008985Y009678D01*
G37*
G36*
X005931Y009352D02*
X006140Y009561D01*
X006349Y009352D01*
X006140Y009143D01*
X005931Y009352D01*
G37*
G36*
X005346Y009936D02*
X005555Y010145D01*
X005764Y009936D01*
X005555Y009727D01*
X005346Y009936D01*
G37*
G36*
X005875Y010465D02*
X006084Y010674D01*
X006293Y010465D01*
X006084Y010256D01*
X005875Y010465D01*
G37*
D23*
X006151Y020538D03*
X005551Y020538D03*
X006751Y020538D03*
D24*
X005856Y007342D03*
X005856Y006554D03*
X005856Y005767D03*
X005856Y004979D03*
X008809Y004979D03*
X008809Y005767D03*
X008809Y006554D03*
X008809Y007342D03*
X011762Y007342D03*
X011762Y006554D03*
X011762Y005767D03*
X011762Y004979D03*
X014714Y004979D03*
X014714Y005767D03*
X014714Y006554D03*
X014714Y007342D03*
D25*
X013644Y007448D03*
X012833Y007448D03*
X010691Y007448D03*
X009880Y007448D03*
X007738Y007448D03*
X006927Y007448D03*
X006927Y004692D03*
X007738Y004692D03*
X009880Y004692D03*
X010691Y004692D03*
X012833Y004692D03*
X013644Y004692D03*
X015785Y004692D03*
X015785Y007448D03*
X004785Y007448D03*
X004785Y004692D03*
D26*
X006112Y021434D03*
X006112Y022034D03*
X006112Y022634D03*
D27*
X006978Y023019D03*
X009734Y023019D03*
D28*
X009340Y021985D03*
X007372Y021985D03*
D29*
X011309Y019908D03*
X013041Y019908D03*
D30*
X011073Y021050D03*
X010049Y020420D03*
X010640Y019121D03*
X009183Y017979D03*
X008710Y019042D03*
X008277Y019869D03*
X007018Y019869D03*
X006270Y017625D03*
X005167Y018294D03*
X005128Y016483D03*
X005128Y013845D03*
X005207Y012271D03*
X006309Y010814D03*
X006742Y011405D03*
X007175Y009790D03*
X008002Y009830D03*
X006506Y008058D03*
X004577Y008216D03*
X008435Y013924D03*
X009813Y012704D03*
X010522Y014830D03*
X011073Y014948D03*
X011112Y015656D03*
X010285Y016562D03*
X010876Y016877D03*
X011781Y017074D03*
X012569Y016916D03*
X013317Y016916D03*
X014459Y016956D03*
X014813Y015027D03*
X016270Y015027D03*
X016270Y017113D03*
X013277Y014042D03*
X012254Y012625D03*
X013041Y011838D03*
X013592Y011680D03*
X014222Y011168D03*
X014222Y009672D03*
X012923Y009436D03*
X012726Y008491D03*
X010403Y009515D03*
X009852Y008294D03*
X016151Y010145D03*
X007529Y016759D03*
M02*
