G75*
%MOIN*%
%OFA0B0*%
%FSLAX24Y24*%
%IPPOS*%
%LPD*%
%AMOC8*
5,1,8,0,0,1.08239X$1,22.5*
%
%ADD10C,0.0531*%
%ADD11C,0.0886*%
%ADD12C,0.0160*%
D10*
X001814Y004979D03*
X001814Y005767D03*
X001814Y006554D03*
X001814Y007342D03*
X001814Y008818D03*
X001814Y009605D03*
X001814Y010393D03*
X001814Y011180D03*
X004767Y011180D03*
X004767Y010393D03*
X004767Y009605D03*
X004767Y008818D03*
X004767Y007342D03*
X004767Y006554D03*
X004767Y005767D03*
X004767Y004979D03*
X007719Y004979D03*
X007719Y005767D03*
X007719Y006554D03*
X007719Y007342D03*
X007719Y008818D03*
X007719Y009605D03*
X007719Y010393D03*
X007719Y011180D03*
X010672Y011180D03*
X010672Y010393D03*
X010672Y009605D03*
X010672Y008818D03*
X010672Y007342D03*
X010672Y006554D03*
X010672Y005767D03*
X010672Y004979D03*
D11*
X000743Y004692D03*
X002885Y004692D03*
X003696Y004692D03*
X005837Y004692D03*
X006649Y004692D03*
X008790Y004692D03*
X009601Y004692D03*
X011743Y004692D03*
X011743Y007448D03*
X011743Y008531D03*
X009601Y008531D03*
X008790Y008531D03*
X008790Y007448D03*
X009601Y007448D03*
X006649Y007448D03*
X005837Y007448D03*
X005837Y008531D03*
X006649Y008531D03*
X006649Y011286D03*
X005837Y011286D03*
X003696Y011286D03*
X002885Y011286D03*
X000743Y011286D03*
X000743Y008531D03*
X000743Y007448D03*
X002885Y007448D03*
X003696Y007448D03*
X003696Y008531D03*
X002885Y008531D03*
X008790Y011286D03*
X009601Y011286D03*
X011743Y011286D03*
D12*
X010672Y011180D02*
X010219Y010727D01*
X010219Y005432D01*
X010672Y004979D01*
X010672Y005767D02*
X011125Y006219D01*
X011125Y009940D01*
X010672Y010393D01*
X010672Y008818D02*
X010672Y007342D01*
X008172Y006219D02*
X007719Y005767D01*
X007267Y005432D02*
X007267Y010727D01*
X007719Y011180D01*
X007719Y010393D02*
X008172Y009940D01*
X008172Y006219D01*
X007267Y005432D02*
X007719Y004979D01*
X007719Y007342D02*
X007719Y008818D01*
X005219Y009940D02*
X005219Y006219D01*
X004767Y005767D01*
X004314Y005432D02*
X004767Y004979D01*
X004314Y005432D02*
X004314Y010727D01*
X004767Y011180D01*
X004767Y010393D02*
X005219Y009940D01*
X004767Y008818D02*
X004767Y007342D01*
X002267Y006219D02*
X001814Y005767D01*
X001322Y005471D02*
X001814Y004979D01*
X001322Y005471D02*
X001322Y010688D01*
X001814Y011180D01*
X001814Y010393D02*
X002267Y009940D01*
X002267Y006219D01*
X001814Y007342D02*
X001814Y008818D01*
M02*
