%
M48
M72
T01C0.0354
T02C0.0591
%
T01
X1936Y4979
X1936Y5767
X1936Y6554
X1936Y7342
X1936Y8818
X1936Y9605
X1936Y10393
X1936Y11180
X4889Y11180
X4889Y10393
X4889Y9605
X4889Y8818
X4889Y7342
X4889Y6554
X4889Y5767
X4889Y4979
X7842Y4979
X7842Y5767
X7842Y6554
X7842Y7342
X7842Y8818
X7842Y9605
X7842Y10393
X7842Y11180
X10794Y11180
X10794Y10393
X10794Y9605
X10794Y8818
X10794Y7342
X10794Y6554
X10794Y5767
X10794Y4979
X13747Y4979
X13747Y5767
X13747Y6554
X13747Y7342
X13747Y8818
X13747Y9605
X13747Y10393
X13747Y11180
X16700Y11180
X16700Y10393
X16700Y9605
X16700Y8818
X16700Y7342
X16700Y6554
X16700Y5767
X16700Y4979
X19653Y4979
X19653Y5767
X19653Y6554
X19653Y7342
X19653Y8818
X19653Y9605
X19653Y10393
X19653Y11180
X22605Y11180
X22605Y10393
X22605Y9605
X22605Y8818
X22605Y7342
X22605Y6554
X22605Y5767
X22605Y4979
X25558Y4979
X25558Y5767
X25558Y6554
X25558Y7342
X25558Y8818
X25558Y9605
X25558Y10393
X25558Y11180
X28511Y11180
X28511Y10393
X28511Y9605
X28511Y8818
X28511Y7342
X28511Y6554
X28511Y5767
X28511Y4979
X31464Y4979
X31464Y5767
X31464Y6554
X31464Y7342
X31464Y8818
X31464Y9605
X31464Y10393
X31464Y11180
X34416Y11180
X34416Y10393
X34416Y9605
X34416Y8818
X34416Y7342
X34416Y6554
X34416Y5767
X34416Y4979
X34416Y13483
X34416Y14271
X34416Y15058
X34416Y15845
X34416Y17322
X34416Y18109
X34416Y18897
X34416Y19684
X31464Y19684
X31464Y18897
X31464Y18109
X31464Y17322
X31464Y15845
X31464Y15058
X31464Y14271
X31464Y13483
X28511Y13483
X28511Y14271
X28511Y15058
X28511Y15845
X28511Y17322
X28511Y18109
X28511Y18897
X28511Y19684
X25558Y19684
X25558Y18897
X25558Y18109
X25558Y17322
X25558Y15845
X25558Y15058
X25558Y14271
X25558Y13483
X22605Y13483
X22605Y14271
X22605Y15058
X22605Y15845
X22605Y17322
X22605Y18109
X22605Y18897
X22605Y19684
X19653Y19684
X19653Y18897
X19653Y18109
X19653Y17322
X19653Y15845
X19653Y15058
X19653Y14271
X19653Y13483
X16700Y13483
X16700Y14271
X16700Y15058
X16700Y15845
X16700Y17322
X16700Y18109
X16700Y18897
X16700Y19684
X13747Y19684
X13747Y18897
X13747Y18109
X13747Y17322
X13747Y15845
X13747Y15058
X13747Y14271
X13747Y13483
X10794Y13483
X10794Y14271
X10794Y15058
X10794Y15845
X10794Y17322
X10794Y18109
X10794Y18897
X10794Y19684
X7842Y19684
X7842Y18897
X7842Y18109
X7842Y17322
X7842Y15845
X7842Y15058
X7842Y14271
X7842Y13483
X4889Y13483
X4889Y14271
X4889Y15058
X4889Y15845
X4889Y17322
X4889Y18109
X4889Y18897
X4889Y19684
X1936Y19684
X1936Y18897
X1936Y18109
X1936Y17322
X1936Y15845
X1936Y15058
X1936Y14271
X1936Y13483
T02
X865Y4692
X3007Y4692
X3818Y4692
X5960Y4692
X6771Y4692
X8912Y4692
X9723Y4692
X11865Y4692
X12676Y4692
X14818Y4692
X15629Y4692
X17771Y4692
X18582Y4692
X20723Y4692
X21534Y4692
X23676Y4692
X24487Y4692
X26629Y4692
X27440Y4692
X29582Y4692
X30393Y4692
X32534Y4692
X33345Y4692
X35487Y4692
X35487Y7448
X35487Y8531
X33345Y8531
X32534Y8531
X32534Y7448
X33345Y7448
X30393Y7448
X29582Y7448
X29582Y8531
X30393Y8531
X27440Y8531
X26629Y8531
X26629Y7448
X27440Y7448
X24487Y7448
X23676Y7448
X23676Y8531
X24487Y8531
X21534Y8531
X20723Y8531
X20723Y7448
X21534Y7448
X18582Y7448
X17771Y7448
X17771Y8531
X18582Y8531
X15629Y8531
X14818Y8531
X14818Y7448
X15629Y7448
X12676Y7448
X11865Y7448
X11865Y8531
X12676Y8531
X9723Y8531
X8912Y8531
X8912Y7448
X9723Y7448
X6771Y7448
X5960Y7448
X5960Y8531
X6771Y8531
X3818Y8531
X3007Y8531
X3007Y7448
X3818Y7448
X865Y7448
X865Y8531
X865Y11286
X3007Y11286
X3818Y11286
X5960Y11286
X6771Y11286
X8912Y11286
X9723Y11286
X11865Y11286
X12676Y11286
X14818Y11286
X15629Y11286
X17771Y11286
X18582Y11286
X20723Y11286
X21534Y11286
X23676Y11286
X24487Y11286
X26629Y11286
X27440Y11286
X29582Y11286
X30393Y11286
X32534Y11286
X33345Y11286
X35487Y11286
X35487Y13196
X33345Y13196
X32534Y13196
X30393Y13196
X29582Y13196
X27440Y13196
X26629Y13196
X24487Y13196
X23676Y13196
X21534Y13196
X20723Y13196
X18582Y13196
X17771Y13196
X15629Y13196
X14818Y13196
X12676Y13196
X11865Y13196
X9723Y13196
X8912Y13196
X6771Y13196
X5960Y13196
X3818Y13196
X3007Y13196
X865Y13196
X865Y15952
X865Y17034
X3007Y17034
X3818Y17034
X3818Y15952
X3007Y15952
X5960Y15952
X6771Y15952
X6771Y17034
X5960Y17034
X8912Y17034
X9723Y17034
X9723Y15952
X8912Y15952
X11865Y15952
X12676Y15952
X12676Y17034
X11865Y17034
X14818Y17034
X15629Y17034
X15629Y15952
X14818Y15952
X17771Y15952
X18582Y15952
X18582Y17034
X17771Y17034
X20723Y17034
X21534Y17034
X21534Y15952
X20723Y15952
X23676Y15952
X24487Y15952
X24487Y17034
X23676Y17034
X26629Y17034
X27440Y17034
X27440Y15952
X26629Y15952
X29582Y15952
X30393Y15952
X30393Y17034
X29582Y17034
X32534Y17034
X33345Y17034
X33345Y15952
X32534Y15952
X35487Y15952
X35487Y17034
X35487Y19790
X33345Y19790
X32534Y19790
X30393Y19790
X29582Y19790
X27440Y19790
X26629Y19790
X24487Y19790
X23676Y19790
X21534Y19790
X20723Y19790
X18582Y19790
X17771Y19790
X15629Y19790
X14818Y19790
X12676Y19790
X11865Y19790
X9723Y19790
X8912Y19790
X6771Y19790
X5960Y19790
X3818Y19790
X3007Y19790
X865Y19790
M30
