G75*
%MOIN*%
%OFA0B0*%
%FSLAX24Y24*%
%IPPOS*%
%LPD*%
%AMOC8*
5,1,8,0,0,1.08239X$1,22.5*
%
%ADD10C,0.0160*%
%ADD11C,0.0050*%
%ADD12C,0.0040*%
D10*
X000440Y003432D02*
X012251Y003432D01*
X024062Y003432D01*
X035873Y003432D01*
X035873Y011936D01*
X024062Y011936D01*
X024062Y020440D01*
X035873Y020440D01*
X035873Y011936D01*
X024062Y011936D01*
X024062Y003432D01*
X024062Y011936D01*
X012251Y011936D01*
X012251Y020440D01*
X024062Y020440D01*
X024062Y011936D01*
X012251Y011936D01*
X012251Y003432D01*
X012251Y011936D01*
X000440Y011936D01*
X000440Y020440D01*
X012251Y020440D01*
X012251Y011936D01*
X000440Y011936D01*
X000440Y003432D01*
D11*
X000912Y000125D02*
X000912Y007723D01*
X002960Y007723D01*
X002960Y000125D01*
X000912Y000125D01*
X003865Y000125D02*
X003865Y007723D01*
X005912Y007723D01*
X005912Y000125D01*
X003865Y000125D01*
X006818Y000125D02*
X006818Y007723D01*
X008865Y007723D01*
X008865Y000125D01*
X006818Y000125D01*
X009771Y000125D02*
X009771Y007723D01*
X011818Y007723D01*
X011818Y000125D01*
X009771Y000125D01*
X012723Y000125D02*
X012723Y007723D01*
X014771Y007723D01*
X014771Y000125D01*
X012723Y000125D01*
X015676Y000125D02*
X015676Y007723D01*
X017723Y007723D01*
X017723Y000125D01*
X015676Y000125D01*
X018629Y000125D02*
X018629Y007723D01*
X020676Y007723D01*
X020676Y000125D01*
X018629Y000125D01*
X021582Y000125D02*
X021582Y007723D01*
X023629Y007723D01*
X023629Y000125D01*
X021582Y000125D01*
X024534Y000125D02*
X024534Y007723D01*
X026582Y007723D01*
X026582Y000125D01*
X024534Y000125D01*
X027487Y000125D02*
X027487Y007723D01*
X029534Y007723D01*
X029534Y000125D01*
X027487Y000125D01*
X030440Y000125D02*
X030440Y007723D01*
X032487Y007723D01*
X032487Y000125D01*
X030440Y000125D01*
X033393Y000125D02*
X033393Y007723D01*
X035440Y007723D01*
X035440Y000125D01*
X033393Y000125D01*
X033393Y003964D02*
X033393Y011562D01*
X035440Y011562D01*
X035440Y003964D01*
X033393Y003964D01*
X032487Y003964D02*
X032487Y011562D01*
X030440Y011562D01*
X030440Y003964D01*
X032487Y003964D01*
X029534Y003964D02*
X029534Y011562D01*
X027487Y011562D01*
X027487Y003964D01*
X029534Y003964D01*
X026582Y003964D02*
X026582Y011562D01*
X024534Y011562D01*
X024534Y003964D01*
X026582Y003964D01*
X023629Y003964D02*
X023629Y011562D01*
X021582Y011562D01*
X021582Y003964D01*
X023629Y003964D01*
X020676Y003964D02*
X020676Y011562D01*
X018629Y011562D01*
X018629Y003964D01*
X020676Y003964D01*
X017723Y003964D02*
X017723Y011562D01*
X015676Y011562D01*
X015676Y003964D01*
X017723Y003964D01*
X014771Y003964D02*
X014771Y011562D01*
X012723Y011562D01*
X012723Y003964D01*
X014771Y003964D01*
X011818Y003964D02*
X011818Y011562D01*
X009771Y011562D01*
X009771Y003964D01*
X011818Y003964D01*
X008865Y003964D02*
X008865Y011562D01*
X006818Y011562D01*
X006818Y003964D01*
X008865Y003964D01*
X005912Y003964D02*
X005912Y011562D01*
X003865Y011562D01*
X003865Y003964D01*
X005912Y003964D01*
X002960Y003964D02*
X002960Y011562D01*
X000912Y011562D01*
X000912Y003964D01*
X002960Y003964D01*
X002960Y008629D02*
X000912Y008629D01*
X000912Y016227D01*
X002960Y016227D01*
X002960Y008629D01*
X003865Y008629D02*
X003865Y016227D01*
X005912Y016227D01*
X005912Y008629D01*
X003865Y008629D01*
X006818Y008629D02*
X006818Y016227D01*
X008865Y016227D01*
X008865Y008629D01*
X006818Y008629D01*
X009771Y008629D02*
X009771Y016227D01*
X011818Y016227D01*
X011818Y008629D01*
X009771Y008629D01*
X012723Y008629D02*
X012723Y016227D01*
X014771Y016227D01*
X014771Y008629D01*
X012723Y008629D01*
X015676Y008629D02*
X015676Y016227D01*
X017723Y016227D01*
X017723Y008629D01*
X015676Y008629D01*
X018629Y008629D02*
X018629Y016227D01*
X020676Y016227D01*
X020676Y008629D01*
X018629Y008629D01*
X021582Y008629D02*
X021582Y016227D01*
X023629Y016227D01*
X023629Y008629D01*
X021582Y008629D01*
X024534Y008629D02*
X024534Y016227D01*
X026582Y016227D01*
X026582Y008629D01*
X024534Y008629D01*
X027487Y008629D02*
X027487Y016227D01*
X029534Y016227D01*
X029534Y008629D01*
X027487Y008629D01*
X030440Y008629D02*
X030440Y016227D01*
X032487Y016227D01*
X032487Y008629D01*
X030440Y008629D01*
X033393Y008629D02*
X033393Y016227D01*
X035440Y016227D01*
X035440Y008629D01*
X033393Y008629D01*
X033393Y012468D02*
X033393Y020066D01*
X035440Y020066D01*
X035440Y012468D01*
X033393Y012468D01*
X032487Y012468D02*
X032487Y020066D01*
X030440Y020066D01*
X030440Y012468D01*
X032487Y012468D01*
X029534Y012468D02*
X029534Y020066D01*
X027487Y020066D01*
X027487Y012468D01*
X029534Y012468D01*
X026582Y012468D02*
X026582Y020066D01*
X024534Y020066D01*
X024534Y012468D01*
X026582Y012468D01*
X023629Y012468D02*
X023629Y020066D01*
X021582Y020066D01*
X021582Y012468D01*
X023629Y012468D01*
X020676Y012468D02*
X020676Y020066D01*
X018629Y020066D01*
X018629Y012468D01*
X020676Y012468D01*
X017723Y012468D02*
X017723Y020066D01*
X015676Y020066D01*
X015676Y012468D01*
X017723Y012468D01*
X014771Y012468D02*
X014771Y020066D01*
X012723Y020066D01*
X012723Y012468D01*
X014771Y012468D01*
X011818Y012468D02*
X011818Y020066D01*
X009771Y020066D01*
X009771Y012468D01*
X011818Y012468D01*
X008865Y012468D02*
X008865Y020066D01*
X006818Y020066D01*
X006818Y012468D01*
X008865Y012468D01*
X005912Y012468D02*
X005912Y020066D01*
X003865Y020066D01*
X003865Y012468D01*
X005912Y012468D01*
X002960Y012468D02*
X002960Y020066D01*
X000912Y020066D01*
X000912Y012468D01*
X002960Y012468D01*
D12*
X002611Y010125D02*
X002611Y009818D01*
X002381Y010048D01*
X002841Y010048D01*
X002841Y009665D02*
X002381Y009358D01*
X002381Y009665D02*
X002841Y009358D01*
X003594Y008609D02*
X003901Y008149D01*
X004055Y008226D02*
X004055Y008379D01*
X004285Y008379D01*
X004362Y008302D01*
X004362Y008226D01*
X004285Y008149D01*
X004131Y008149D01*
X004055Y008226D01*
X004055Y008379D02*
X004208Y008533D01*
X004362Y008609D01*
X003901Y008609D02*
X003594Y008149D01*
X001409Y008226D02*
X001332Y008149D01*
X001179Y008149D01*
X001102Y008226D01*
X001102Y008379D02*
X001255Y008456D01*
X001332Y008456D01*
X001409Y008379D01*
X001409Y008226D01*
X001102Y008379D02*
X001102Y008609D01*
X001409Y008609D01*
X000948Y008609D02*
X000642Y008149D01*
X000948Y008149D02*
X000642Y008609D01*
X005373Y009436D02*
X005833Y009743D01*
X005757Y009897D02*
X005833Y009973D01*
X005833Y010127D01*
X005757Y010204D01*
X005680Y010204D01*
X005603Y010127D01*
X005603Y010050D01*
X005603Y010127D02*
X005526Y010204D01*
X005450Y010204D01*
X005373Y010127D01*
X005373Y009973D01*
X005450Y009897D01*
X005373Y009743D02*
X005833Y009436D01*
X006547Y008609D02*
X006854Y008149D01*
X007007Y008149D02*
X007007Y008226D01*
X007314Y008533D01*
X007314Y008609D01*
X007007Y008609D01*
X006854Y008609D02*
X006547Y008149D01*
X008286Y009554D02*
X008747Y009861D01*
X008747Y010015D02*
X008440Y010322D01*
X008363Y010322D01*
X008286Y010245D01*
X008286Y010092D01*
X008363Y010015D01*
X008286Y009861D02*
X008747Y009554D01*
X008747Y010015D02*
X008747Y010322D01*
X011239Y010208D02*
X011393Y010054D01*
X011239Y009901D02*
X011699Y009594D01*
X011699Y009901D02*
X011239Y009594D01*
X011699Y010054D02*
X011699Y010361D01*
X011699Y010208D02*
X011239Y010208D01*
X011992Y008609D02*
X012299Y008149D01*
X012453Y008149D02*
X012759Y008456D01*
X012759Y008533D01*
X012683Y008609D01*
X012529Y008609D01*
X012453Y008533D01*
X012299Y008609D02*
X011992Y008149D01*
X012453Y008149D02*
X012759Y008149D01*
X012913Y008149D02*
X013220Y008149D01*
X013066Y008149D02*
X013066Y008609D01*
X012913Y008456D01*
X014192Y009358D02*
X014652Y009665D01*
X014652Y009818D02*
X014345Y010125D01*
X014269Y010125D01*
X014192Y010048D01*
X014192Y009895D01*
X014269Y009818D01*
X014192Y009665D02*
X014652Y009358D01*
X014652Y009818D02*
X014652Y010125D01*
X014575Y010278D02*
X014269Y010585D01*
X014575Y010585D01*
X014652Y010509D01*
X014652Y010355D01*
X014575Y010278D01*
X014269Y010278D01*
X014192Y010355D01*
X014192Y010509D01*
X014269Y010585D01*
X017184Y010587D02*
X017184Y010434D01*
X017261Y010357D01*
X017337Y010357D01*
X017414Y010434D01*
X017414Y010664D01*
X017261Y010664D02*
X017568Y010664D01*
X017644Y010587D01*
X017644Y010434D01*
X017568Y010357D01*
X017644Y010204D02*
X017644Y009897D01*
X017644Y010050D02*
X017184Y010050D01*
X017337Y009897D01*
X017184Y009743D02*
X017644Y009436D01*
X017644Y009743D02*
X017184Y009436D01*
X017898Y008609D02*
X018205Y008149D01*
X018358Y008149D02*
X018665Y008456D01*
X018665Y008533D01*
X018588Y008609D01*
X018435Y008609D01*
X018358Y008533D01*
X018205Y008609D02*
X017898Y008149D01*
X018358Y008149D02*
X018665Y008149D01*
X018818Y008226D02*
X018895Y008149D01*
X019049Y008149D01*
X019125Y008226D01*
X019125Y008302D01*
X019049Y008379D01*
X018972Y008379D01*
X019049Y008379D02*
X019125Y008456D01*
X019125Y008533D01*
X019049Y008609D01*
X018895Y008609D01*
X018818Y008533D01*
X020097Y009554D02*
X020558Y009861D01*
X020558Y010015D02*
X020558Y010322D01*
X020558Y010168D02*
X020097Y010168D01*
X020251Y010015D01*
X020097Y009861D02*
X020558Y009554D01*
X020481Y010475D02*
X020404Y010475D01*
X020328Y010552D01*
X020328Y010705D01*
X020404Y010782D01*
X020481Y010782D01*
X020558Y010705D01*
X020558Y010552D01*
X020481Y010475D01*
X020328Y010552D02*
X020251Y010475D01*
X020174Y010475D01*
X020097Y010552D01*
X020097Y010705D01*
X020174Y010782D01*
X020251Y010782D01*
X020328Y010705D01*
X023050Y010822D02*
X023050Y010515D01*
X023050Y010208D02*
X023510Y010208D01*
X023510Y010361D02*
X023510Y010054D01*
X023510Y009901D02*
X023050Y009594D01*
X023050Y009901D02*
X023510Y009594D01*
X023204Y010054D02*
X023050Y010208D01*
X023434Y010515D02*
X023510Y010515D01*
X023434Y010515D02*
X023127Y010822D01*
X023050Y010822D01*
X026003Y010585D02*
X026080Y010432D01*
X026233Y010278D01*
X026233Y010509D01*
X026310Y010585D01*
X026387Y010585D01*
X026463Y010509D01*
X026463Y010355D01*
X026387Y010278D01*
X026233Y010278D01*
X026156Y010125D02*
X026233Y010048D01*
X026310Y010125D01*
X026387Y010125D01*
X026463Y010048D01*
X026463Y009895D01*
X026387Y009818D01*
X026463Y009665D02*
X026003Y009358D01*
X026003Y009665D02*
X026463Y009358D01*
X026080Y009818D02*
X026003Y009895D01*
X026003Y010048D01*
X026080Y010125D01*
X026156Y010125D01*
X026233Y010048D02*
X026233Y009971D01*
X026756Y008609D02*
X027063Y008149D01*
X027216Y008226D02*
X027293Y008149D01*
X027447Y008149D01*
X027523Y008226D01*
X027523Y008302D01*
X027447Y008379D01*
X027370Y008379D01*
X027447Y008379D02*
X027523Y008456D01*
X027523Y008533D01*
X027447Y008609D01*
X027293Y008609D01*
X027216Y008533D01*
X027063Y008609D02*
X026756Y008149D01*
X027677Y008226D02*
X027677Y008302D01*
X027753Y008379D01*
X027907Y008379D01*
X027984Y008302D01*
X027984Y008226D01*
X027907Y008149D01*
X027753Y008149D01*
X027677Y008226D01*
X027753Y008379D02*
X027677Y008456D01*
X027677Y008533D01*
X027753Y008609D01*
X027907Y008609D01*
X027984Y008533D01*
X027984Y008456D01*
X027907Y008379D01*
X028995Y009436D02*
X029455Y009743D01*
X029379Y009897D02*
X029455Y009973D01*
X029455Y010127D01*
X029379Y010204D01*
X029302Y010204D01*
X029225Y010127D01*
X029225Y010050D01*
X029225Y010127D02*
X029148Y010204D01*
X029072Y010204D01*
X028995Y010127D01*
X028995Y009973D01*
X029072Y009897D01*
X028995Y009743D02*
X029455Y009436D01*
X029709Y008609D02*
X030016Y008149D01*
X030169Y008226D02*
X030246Y008149D01*
X030399Y008149D01*
X030476Y008226D01*
X030476Y008302D01*
X030399Y008379D01*
X030323Y008379D01*
X030399Y008379D02*
X030476Y008456D01*
X030476Y008533D01*
X030399Y008609D01*
X030246Y008609D01*
X030169Y008533D01*
X030016Y008609D02*
X029709Y008149D01*
X030629Y008226D02*
X030706Y008149D01*
X030860Y008149D01*
X030936Y008226D01*
X030936Y008533D01*
X030860Y008609D01*
X030706Y008609D01*
X030629Y008533D01*
X030629Y008456D01*
X030706Y008379D01*
X030936Y008379D01*
X032661Y008149D02*
X032968Y008609D01*
X033122Y008379D02*
X033429Y008379D01*
X033582Y008226D02*
X033889Y008533D01*
X033889Y008226D01*
X033812Y008149D01*
X033659Y008149D01*
X033582Y008226D01*
X033582Y008533D01*
X033659Y008609D01*
X033812Y008609D01*
X033889Y008533D01*
X033352Y008609D02*
X033122Y008379D01*
X032968Y008149D02*
X032661Y008609D01*
X033352Y008609D02*
X033352Y008149D01*
X032369Y009554D02*
X031908Y009861D01*
X031985Y010015D02*
X031908Y010092D01*
X031908Y010245D01*
X031985Y010322D01*
X032062Y010322D01*
X032139Y010245D01*
X032215Y010322D01*
X032292Y010322D01*
X032369Y010245D01*
X032369Y010092D01*
X032292Y010015D01*
X032369Y009861D02*
X031908Y009554D01*
X032139Y010168D02*
X032139Y010245D01*
X032139Y010475D02*
X032139Y010782D01*
X032369Y010705D02*
X031908Y010705D01*
X032139Y010475D01*
X034861Y010591D02*
X034938Y010515D01*
X034861Y010591D02*
X034861Y010745D01*
X034938Y010822D01*
X035015Y010822D01*
X035091Y010745D01*
X035168Y010822D01*
X035245Y010822D01*
X035322Y010745D01*
X035322Y010591D01*
X035245Y010515D01*
X035245Y010361D02*
X035322Y010284D01*
X035322Y010131D01*
X035245Y010054D01*
X035322Y009901D02*
X034861Y009594D01*
X034861Y009901D02*
X035322Y009594D01*
X034938Y010054D02*
X034861Y010131D01*
X034861Y010284D01*
X034938Y010361D01*
X035015Y010361D01*
X035091Y010284D01*
X035168Y010361D01*
X035245Y010361D01*
X035091Y010284D02*
X035091Y010208D01*
X035091Y010668D02*
X035091Y010745D01*
X029455Y010587D02*
X029455Y010434D01*
X029379Y010357D01*
X029225Y010357D02*
X029148Y010511D01*
X029148Y010587D01*
X029225Y010664D01*
X029379Y010664D01*
X029455Y010587D01*
X029225Y010357D02*
X028995Y010357D01*
X028995Y010664D01*
X025031Y008609D02*
X025031Y008533D01*
X024724Y008226D01*
X024724Y008149D01*
X024570Y008226D02*
X024494Y008149D01*
X024340Y008149D01*
X024264Y008226D01*
X024110Y008149D02*
X023803Y008609D01*
X024110Y008609D02*
X023803Y008149D01*
X024417Y008379D02*
X024494Y008379D01*
X024570Y008302D01*
X024570Y008226D01*
X024494Y008379D02*
X024570Y008456D01*
X024570Y008533D01*
X024494Y008609D01*
X024340Y008609D01*
X024264Y008533D01*
X024724Y008609D02*
X025031Y008609D01*
X022078Y008379D02*
X021771Y008379D01*
X022001Y008609D01*
X022001Y008149D01*
X021618Y008149D02*
X021311Y008149D01*
X021618Y008456D01*
X021618Y008533D01*
X021541Y008609D01*
X021388Y008609D01*
X021311Y008533D01*
X021157Y008609D02*
X020850Y008149D01*
X021157Y008149D02*
X020850Y008609D01*
X017261Y010664D02*
X017184Y010587D01*
X016096Y008609D02*
X015942Y008609D01*
X015866Y008533D01*
X015712Y008533D02*
X015635Y008609D01*
X015482Y008609D01*
X015405Y008533D01*
X015252Y008609D02*
X014945Y008149D01*
X015252Y008149D02*
X014945Y008609D01*
X015405Y008149D02*
X015712Y008456D01*
X015712Y008533D01*
X016096Y008609D02*
X016173Y008533D01*
X016173Y008456D01*
X015866Y008149D01*
X016173Y008149D01*
X015712Y008149D02*
X015405Y008149D01*
X010267Y008226D02*
X010190Y008149D01*
X010037Y008149D01*
X009960Y008226D01*
X009960Y008302D01*
X010037Y008379D01*
X010190Y008379D01*
X010267Y008302D01*
X010267Y008226D01*
X010190Y008379D02*
X010267Y008456D01*
X010267Y008533D01*
X010190Y008609D01*
X010037Y008609D01*
X009960Y008533D01*
X009960Y008456D01*
X010037Y008379D01*
X009807Y008149D02*
X009500Y008609D01*
X009807Y008609D02*
X009500Y008149D01*
X009500Y016653D02*
X009807Y016653D01*
X009653Y016653D02*
X009653Y017113D01*
X009500Y016960D01*
X009346Y017113D02*
X009039Y016653D01*
X009346Y016653D02*
X009039Y017113D01*
X009960Y016883D02*
X010190Y016883D01*
X010267Y016806D01*
X010267Y016730D01*
X010190Y016653D01*
X010037Y016653D01*
X009960Y016730D01*
X009960Y016883D01*
X010114Y017037D01*
X010267Y017113D01*
X011239Y018098D02*
X011699Y018405D01*
X011623Y018558D02*
X011699Y018635D01*
X011699Y018788D01*
X011623Y018865D01*
X011316Y018865D01*
X011239Y018788D01*
X011239Y018635D01*
X011316Y018558D01*
X011393Y018558D01*
X011469Y018635D01*
X011469Y018865D01*
X011239Y018405D02*
X011699Y018098D01*
X011992Y017113D02*
X012299Y016653D01*
X012453Y016653D02*
X012759Y016960D01*
X012759Y017037D01*
X012683Y017113D01*
X012529Y017113D01*
X012453Y017037D01*
X012299Y017113D02*
X011992Y016653D01*
X012453Y016653D02*
X012759Y016653D01*
X012913Y016730D02*
X012990Y016653D01*
X013143Y016653D01*
X013220Y016730D01*
X013220Y017037D01*
X013143Y017113D01*
X012990Y017113D01*
X012913Y017037D01*
X012913Y016960D01*
X012990Y016883D01*
X013220Y016883D01*
X014192Y017862D02*
X014652Y018168D01*
X014652Y018322D02*
X014345Y018629D01*
X014269Y018629D01*
X014192Y018552D01*
X014192Y018399D01*
X014269Y018322D01*
X014192Y018168D02*
X014652Y017862D01*
X014652Y018322D02*
X014652Y018629D01*
X014575Y018782D02*
X014499Y018782D01*
X014422Y018859D01*
X014422Y019013D01*
X014499Y019089D01*
X014575Y019089D01*
X014652Y019013D01*
X014652Y018859D01*
X014575Y018782D01*
X014422Y018859D02*
X014345Y018782D01*
X014269Y018782D01*
X014192Y018859D01*
X014192Y019013D01*
X014269Y019089D01*
X014345Y019089D01*
X014422Y019013D01*
X017184Y018861D02*
X017184Y019168D01*
X017261Y019168D01*
X017568Y018861D01*
X017644Y018861D01*
X017644Y018708D02*
X017644Y018401D01*
X017337Y018708D01*
X017261Y018708D01*
X017184Y018631D01*
X017184Y018477D01*
X017261Y018401D01*
X017184Y018247D02*
X017644Y017940D01*
X017644Y018247D02*
X017184Y017940D01*
X017898Y017113D02*
X018205Y016653D01*
X018358Y016730D02*
X018435Y016653D01*
X018588Y016653D01*
X018665Y016730D01*
X018665Y016806D01*
X018588Y016883D01*
X018512Y016883D01*
X018588Y016883D02*
X018665Y016960D01*
X018665Y017037D01*
X018588Y017113D01*
X018435Y017113D01*
X018358Y017037D01*
X018205Y017113D02*
X017898Y016653D01*
X018818Y016653D02*
X019125Y016653D01*
X018972Y016653D02*
X018972Y017113D01*
X018818Y016960D01*
X020097Y018058D02*
X020558Y018365D01*
X020558Y018519D02*
X020251Y018826D01*
X020174Y018826D01*
X020097Y018749D01*
X020097Y018596D01*
X020174Y018519D01*
X020097Y018365D02*
X020558Y018058D01*
X020558Y018519D02*
X020558Y018826D01*
X020481Y018979D02*
X020558Y019056D01*
X020558Y019209D01*
X020481Y019286D01*
X020404Y019286D01*
X020328Y019209D01*
X020328Y018979D01*
X020481Y018979D01*
X020328Y018979D02*
X020174Y019133D01*
X020097Y019286D01*
X023050Y019325D02*
X023050Y019019D01*
X023280Y019019D01*
X023204Y019172D01*
X023204Y019249D01*
X023280Y019325D01*
X023434Y019325D01*
X023510Y019249D01*
X023510Y019095D01*
X023434Y019019D01*
X023510Y018865D02*
X023510Y018558D01*
X023204Y018865D01*
X023127Y018865D01*
X023050Y018788D01*
X023050Y018635D01*
X023127Y018558D01*
X023050Y018405D02*
X023510Y018098D01*
X023510Y018405D02*
X023050Y018098D01*
X023803Y017113D02*
X024110Y016653D01*
X024264Y016883D02*
X024570Y016883D01*
X024724Y016883D02*
X024877Y016960D01*
X024954Y016960D01*
X025031Y016883D01*
X025031Y016730D01*
X024954Y016653D01*
X024801Y016653D01*
X024724Y016730D01*
X024724Y016883D02*
X024724Y017113D01*
X025031Y017113D01*
X024494Y017113D02*
X024494Y016653D01*
X024264Y016883D02*
X024494Y017113D01*
X024110Y017113D02*
X023803Y016653D01*
X022078Y016653D02*
X021771Y016653D01*
X022078Y016960D01*
X022078Y017037D01*
X022001Y017113D01*
X021848Y017113D01*
X021771Y017037D01*
X021618Y017037D02*
X021618Y016960D01*
X021541Y016883D01*
X021618Y016806D01*
X021618Y016730D01*
X021541Y016653D01*
X021388Y016653D01*
X021311Y016730D01*
X021157Y016653D02*
X020850Y017113D01*
X021157Y017113D02*
X020850Y016653D01*
X021311Y017037D02*
X021388Y017113D01*
X021541Y017113D01*
X021618Y017037D01*
X021541Y016883D02*
X021464Y016883D01*
X026003Y017862D02*
X026463Y018168D01*
X026233Y018322D02*
X026003Y018552D01*
X026463Y018552D01*
X026233Y018629D02*
X026233Y018322D01*
X026003Y018168D02*
X026463Y017862D01*
X026756Y017113D02*
X027063Y016653D01*
X027216Y016883D02*
X027523Y016883D01*
X027677Y016883D02*
X027907Y016883D01*
X027984Y016806D01*
X027984Y016730D01*
X027907Y016653D01*
X027753Y016653D01*
X027677Y016730D01*
X027677Y016883D01*
X027830Y017037D01*
X027984Y017113D01*
X027447Y017113D02*
X027216Y016883D01*
X027063Y017113D02*
X026756Y016653D01*
X027447Y016653D02*
X027447Y017113D01*
X028995Y017940D02*
X029455Y018247D01*
X029225Y018401D02*
X029225Y018708D01*
X029072Y018861D02*
X028995Y018938D01*
X028995Y019091D01*
X029072Y019168D01*
X029148Y019168D01*
X029225Y019091D01*
X029302Y019168D01*
X029379Y019168D01*
X029455Y019091D01*
X029455Y018938D01*
X029379Y018861D01*
X029225Y019015D02*
X029225Y019091D01*
X028995Y018631D02*
X029225Y018401D01*
X028995Y018247D02*
X029455Y017940D01*
X029455Y018631D02*
X028995Y018631D01*
X026463Y019013D02*
X026003Y019013D01*
X026233Y018782D01*
X026233Y019089D01*
X029709Y017113D02*
X030016Y016653D01*
X030169Y016883D02*
X030476Y016883D01*
X030629Y016730D02*
X030629Y016653D01*
X030629Y016730D02*
X030936Y017037D01*
X030936Y017113D01*
X030629Y017113D01*
X030399Y017113D02*
X030169Y016883D01*
X030016Y017113D02*
X029709Y016653D01*
X030399Y016653D02*
X030399Y017113D01*
X031908Y018058D02*
X032369Y018365D01*
X032139Y018519D02*
X032139Y018826D01*
X031985Y018979D02*
X031908Y019056D01*
X031908Y019209D01*
X031985Y019286D01*
X032062Y019286D01*
X032369Y018979D01*
X032369Y019286D01*
X032369Y018749D02*
X031908Y018749D01*
X032139Y018519D01*
X031908Y018365D02*
X032369Y018058D01*
X032661Y017113D02*
X032968Y016653D01*
X033122Y016883D02*
X033429Y016883D01*
X033582Y016806D02*
X033659Y016883D01*
X033812Y016883D01*
X033889Y016806D01*
X033889Y016730D01*
X033812Y016653D01*
X033659Y016653D01*
X033582Y016730D01*
X033582Y016806D01*
X033659Y016883D02*
X033582Y016960D01*
X033582Y017037D01*
X033659Y017113D01*
X033812Y017113D01*
X033889Y017037D01*
X033889Y016960D01*
X033812Y016883D01*
X033352Y016653D02*
X033352Y017113D01*
X033122Y016883D01*
X032968Y017113D02*
X032661Y016653D01*
X034861Y018098D02*
X035322Y018405D01*
X035091Y018558D02*
X035091Y018865D01*
X035015Y019019D02*
X034861Y019172D01*
X035322Y019172D01*
X035322Y019019D02*
X035322Y019325D01*
X035322Y018788D02*
X034861Y018788D01*
X035091Y018558D01*
X034861Y018405D02*
X035322Y018098D01*
X016173Y017037D02*
X016173Y016730D01*
X016096Y016653D01*
X015942Y016653D01*
X015866Y016730D01*
X016173Y017037D01*
X016096Y017113D01*
X015942Y017113D01*
X015866Y017037D01*
X015866Y016730D01*
X015712Y016730D02*
X015635Y016653D01*
X015482Y016653D01*
X015405Y016730D01*
X015252Y016653D02*
X014945Y017113D01*
X015252Y017113D02*
X014945Y016653D01*
X015405Y017037D02*
X015482Y017113D01*
X015635Y017113D01*
X015712Y017037D01*
X015712Y016960D01*
X015635Y016883D01*
X015712Y016806D01*
X015712Y016730D01*
X015635Y016883D02*
X015559Y016883D01*
X008747Y018058D02*
X008286Y018365D01*
X008440Y018519D02*
X008286Y018672D01*
X008747Y018672D01*
X008747Y018519D02*
X008747Y018826D01*
X008670Y018979D02*
X008363Y018979D01*
X008286Y019056D01*
X008286Y019209D01*
X008363Y019286D01*
X008670Y018979D01*
X008747Y019056D01*
X008747Y019209D01*
X008670Y019286D01*
X008363Y019286D01*
X008747Y018365D02*
X008286Y018058D01*
X007314Y017113D02*
X007007Y017113D01*
X007007Y016883D01*
X007161Y016960D01*
X007238Y016960D01*
X007314Y016883D01*
X007314Y016730D01*
X007238Y016653D01*
X007084Y016653D01*
X007007Y016730D01*
X006854Y016653D02*
X006547Y016653D01*
X006394Y016653D02*
X006087Y017113D01*
X006394Y017113D02*
X006087Y016653D01*
X006547Y016960D02*
X006700Y017113D01*
X006700Y016653D01*
X004362Y016883D02*
X004055Y016883D01*
X004285Y017113D01*
X004285Y016653D01*
X003901Y016653D02*
X003594Y016653D01*
X003441Y016653D02*
X003134Y017113D01*
X003441Y017113D02*
X003134Y016653D01*
X003594Y016960D02*
X003748Y017113D01*
X003748Y016653D01*
X002841Y017862D02*
X002381Y018168D01*
X002534Y018322D02*
X002381Y018475D01*
X002841Y018475D01*
X002841Y018322D02*
X002841Y018629D01*
X002841Y018782D02*
X002534Y019089D01*
X002458Y019089D01*
X002381Y019013D01*
X002381Y018859D01*
X002458Y018782D01*
X002841Y018782D02*
X002841Y019089D01*
X002841Y018168D02*
X002381Y017862D01*
X001409Y017037D02*
X001409Y016960D01*
X001332Y016883D01*
X001409Y016806D01*
X001409Y016730D01*
X001332Y016653D01*
X001179Y016653D01*
X001102Y016730D01*
X000948Y016653D02*
X000642Y016653D01*
X000795Y016653D02*
X000795Y017113D01*
X000642Y016960D01*
X000488Y017113D02*
X000181Y016653D01*
X000488Y016653D02*
X000181Y017113D01*
X001102Y017037D02*
X001179Y017113D01*
X001332Y017113D01*
X001409Y017037D01*
X001332Y016883D02*
X001255Y016883D01*
X005373Y017940D02*
X005833Y018247D01*
X005833Y018401D02*
X005833Y018708D01*
X005833Y018861D02*
X005833Y019168D01*
X005833Y019015D02*
X005373Y019015D01*
X005526Y018861D01*
X005373Y018554D02*
X005833Y018554D01*
X005526Y018401D02*
X005373Y018554D01*
X005373Y018247D02*
X005833Y017940D01*
M02*
