G75*
%MOIN*%
%OFA0B0*%
%FSLAX24Y24*%
%IPPOS*%
%LPD*%
%AMOC8*
5,1,8,0,0,1.08239X$1,22.5*
%
%ADD10C,0.0160*%
%ADD11C,0.0050*%
%ADD12C,0.0040*%
D10*
X003393Y003471D02*
X003393Y015361D01*
X012054Y015361D01*
X012054Y021267D01*
X023708Y021267D01*
X023708Y003511D01*
X024456Y003471D02*
X024456Y021267D01*
X036109Y021267D01*
X036109Y012920D01*
X012054Y012920D01*
X012054Y015361D01*
X012054Y012920D02*
X012054Y011897D01*
X036109Y011897D01*
X036109Y012920D01*
X036109Y011897D02*
X036109Y003471D01*
X024456Y003471D01*
X003393Y003471D01*
X012054Y003511D02*
X012054Y011897D01*
X023708Y021267D02*
X024456Y021267D01*
D11*
X024751Y020814D02*
X024751Y013216D01*
X026798Y013216D01*
X026798Y020814D01*
X024751Y020814D01*
X023334Y020932D02*
X023334Y013334D01*
X021286Y013334D01*
X021286Y020932D01*
X023334Y020932D01*
X020381Y020932D02*
X020381Y013334D01*
X018334Y013334D01*
X018334Y020932D01*
X020381Y020932D01*
X017428Y020932D02*
X017428Y013334D01*
X015381Y013334D01*
X015381Y020932D01*
X017428Y020932D01*
X014475Y020932D02*
X014475Y013334D01*
X012428Y013334D01*
X012428Y020932D01*
X014475Y020932D01*
X014475Y017172D02*
X014475Y024771D01*
X012428Y024771D01*
X012428Y017172D01*
X014475Y017172D01*
X015381Y017172D02*
X015381Y024771D01*
X017428Y024771D01*
X017428Y017172D01*
X015381Y017172D01*
X018334Y017172D02*
X018334Y024771D01*
X020381Y024771D01*
X020381Y017172D01*
X018334Y017172D01*
X021286Y017172D02*
X021286Y024771D01*
X023334Y024771D01*
X023334Y017172D01*
X021286Y017172D01*
X024751Y017054D02*
X024751Y024653D01*
X026798Y024653D01*
X026798Y017054D01*
X024751Y017054D01*
X027704Y017054D02*
X027704Y024653D01*
X029751Y024653D01*
X029751Y017054D01*
X027704Y017054D01*
X030656Y017054D02*
X030656Y024653D01*
X032704Y024653D01*
X032704Y017054D01*
X030656Y017054D01*
X033609Y017054D02*
X033609Y024653D01*
X035656Y024653D01*
X035656Y017054D01*
X033609Y017054D01*
X033609Y020814D02*
X033609Y013216D01*
X035656Y013216D01*
X035656Y020814D01*
X033609Y020814D01*
X032704Y020814D02*
X032704Y013216D01*
X030656Y013216D01*
X030656Y020814D01*
X032704Y020814D01*
X029751Y020814D02*
X029751Y013216D01*
X027704Y013216D01*
X027704Y020814D01*
X029751Y020814D01*
X029830Y011562D02*
X027782Y011562D01*
X027782Y003964D01*
X029830Y003964D01*
X029830Y011562D01*
X030735Y011562D02*
X030735Y003964D01*
X032782Y003964D01*
X032782Y011562D01*
X030735Y011562D01*
X033688Y011562D02*
X033688Y003964D01*
X035735Y003964D01*
X035735Y011562D01*
X033688Y011562D01*
X033688Y007723D02*
X033688Y000125D01*
X035735Y000125D01*
X035735Y007723D01*
X033688Y007723D01*
X032782Y007723D02*
X032782Y000125D01*
X030735Y000125D01*
X030735Y007723D01*
X032782Y007723D01*
X029830Y007723D02*
X029830Y000125D01*
X027782Y000125D01*
X027782Y007723D01*
X029830Y007723D01*
X026877Y007723D02*
X026877Y000125D01*
X024830Y000125D01*
X024830Y007723D01*
X026877Y007723D01*
X023373Y007723D02*
X023373Y000125D01*
X021326Y000125D01*
X021326Y007723D01*
X023373Y007723D01*
X020420Y007723D02*
X020420Y000125D01*
X018373Y000125D01*
X018373Y007723D01*
X020420Y007723D01*
X017468Y007723D02*
X017468Y000125D01*
X015420Y000125D01*
X015420Y007723D01*
X017468Y007723D01*
X014515Y007723D02*
X014515Y000125D01*
X012468Y000125D01*
X012468Y007723D01*
X014515Y007723D01*
X011562Y006916D02*
X003964Y006916D01*
X003964Y008964D01*
X011562Y008964D01*
X011562Y006916D01*
X011562Y006011D02*
X003964Y006011D01*
X003964Y003964D01*
X011562Y003964D01*
X011562Y006011D01*
X012468Y003964D02*
X012468Y011562D01*
X014515Y011562D01*
X014515Y003964D01*
X012468Y003964D01*
X015420Y003964D02*
X015420Y011562D01*
X017468Y011562D01*
X017468Y003964D01*
X015420Y003964D01*
X018373Y003964D02*
X018373Y011562D01*
X020420Y011562D01*
X020420Y003964D01*
X018373Y003964D01*
X021326Y003964D02*
X021326Y011562D01*
X023373Y011562D01*
X023373Y003964D01*
X021326Y003964D01*
X024830Y003964D02*
X024830Y011562D01*
X026877Y011562D01*
X026877Y003964D01*
X024830Y003964D01*
X011562Y009869D02*
X003964Y009869D01*
X003964Y011916D01*
X011562Y011916D01*
X011562Y009869D01*
X007723Y009869D02*
X000125Y009869D01*
X000125Y011916D01*
X007723Y011916D01*
X007723Y009869D01*
X007723Y008964D02*
X000125Y008964D01*
X000125Y006916D01*
X007723Y006916D01*
X007723Y008964D01*
X007723Y006011D02*
X000125Y006011D01*
X000125Y003964D01*
X007723Y003964D01*
X007723Y006011D01*
X007723Y012822D02*
X000125Y012822D01*
X000125Y014869D01*
X007723Y014869D01*
X007723Y012822D01*
X003964Y012822D02*
X011562Y012822D01*
X011562Y014869D01*
X003964Y014869D01*
X003964Y012822D01*
D12*
X008149Y012074D02*
X008225Y011920D01*
X008379Y011767D01*
X008379Y011997D01*
X008455Y012074D01*
X008532Y012074D01*
X008609Y011997D01*
X008609Y011844D01*
X008532Y011767D01*
X008379Y011767D01*
X008609Y011613D02*
X008149Y011306D01*
X008149Y011613D02*
X008609Y011306D01*
X009436Y010409D02*
X009743Y009948D01*
X009897Y010025D02*
X009973Y009948D01*
X010127Y009948D01*
X010204Y010025D01*
X010204Y010102D01*
X010127Y010178D01*
X010050Y010178D01*
X010127Y010178D02*
X010204Y010255D01*
X010204Y010332D01*
X010127Y010409D01*
X009973Y010409D01*
X009897Y010332D01*
X009743Y010409D02*
X009436Y009948D01*
X008532Y008814D02*
X008225Y009121D01*
X008149Y009121D01*
X008149Y008814D01*
X008149Y008661D02*
X008609Y008354D01*
X008609Y008661D02*
X008149Y008354D01*
X008532Y008814D02*
X008609Y008814D01*
X009554Y007495D02*
X009861Y007035D01*
X010015Y007035D02*
X010322Y007342D01*
X010322Y007418D01*
X010245Y007495D01*
X010092Y007495D01*
X010015Y007418D01*
X009861Y007495D02*
X009554Y007035D01*
X010015Y007035D02*
X010322Y007035D01*
X011736Y008149D02*
X012043Y008609D01*
X012197Y008456D02*
X012350Y008609D01*
X012350Y008149D01*
X012197Y008149D02*
X012504Y008149D01*
X012657Y008226D02*
X012734Y008149D01*
X012887Y008149D01*
X012964Y008226D01*
X012964Y008302D01*
X012887Y008379D01*
X012811Y008379D01*
X012887Y008379D02*
X012964Y008456D01*
X012964Y008533D01*
X012887Y008609D01*
X012734Y008609D01*
X012657Y008533D01*
X012043Y008149D02*
X011736Y008609D01*
X013936Y009358D02*
X014396Y009665D01*
X014396Y009818D02*
X014396Y010125D01*
X014396Y010278D02*
X014089Y010585D01*
X014013Y010585D01*
X013936Y010509D01*
X013936Y010355D01*
X014013Y010278D01*
X013936Y009971D02*
X014396Y009971D01*
X014396Y010278D02*
X014396Y010585D01*
X013936Y009971D02*
X014089Y009818D01*
X013936Y009665D02*
X014396Y009358D01*
X014689Y008609D02*
X014996Y008149D01*
X015149Y008149D02*
X015456Y008149D01*
X015303Y008149D02*
X015303Y008609D01*
X015149Y008456D01*
X014996Y008609D02*
X014689Y008149D01*
X015610Y008379D02*
X015917Y008379D01*
X015840Y008149D02*
X015840Y008609D01*
X015610Y008379D01*
X016928Y009436D02*
X017388Y009743D01*
X017388Y009897D02*
X017388Y010204D01*
X017388Y010357D02*
X017388Y010664D01*
X017388Y010511D02*
X016928Y010511D01*
X017082Y010357D01*
X016928Y010050D02*
X017388Y010050D01*
X017082Y009897D02*
X016928Y010050D01*
X016928Y009743D02*
X017388Y009436D01*
X017642Y008609D02*
X017949Y008149D01*
X018102Y008149D02*
X018409Y008149D01*
X018256Y008149D02*
X018256Y008609D01*
X018102Y008456D01*
X017949Y008609D02*
X017642Y008149D01*
X018563Y008226D02*
X018639Y008149D01*
X018793Y008149D01*
X018869Y008226D01*
X018869Y008379D01*
X018793Y008456D01*
X018716Y008456D01*
X018563Y008379D01*
X018563Y008609D01*
X018869Y008609D01*
X019841Y009554D02*
X020302Y009861D01*
X020302Y010015D02*
X020302Y010322D01*
X020302Y010168D02*
X019841Y010168D01*
X019995Y010015D01*
X019841Y009861D02*
X020302Y009554D01*
X020225Y010475D02*
X019918Y010475D01*
X019841Y010552D01*
X019841Y010705D01*
X019918Y010782D01*
X020225Y010475D01*
X020302Y010552D01*
X020302Y010705D01*
X020225Y010782D01*
X019918Y010782D01*
X022794Y010284D02*
X022794Y010131D01*
X022871Y010054D01*
X022948Y010054D01*
X023024Y010131D01*
X023024Y010361D01*
X022871Y010361D02*
X022794Y010284D01*
X022871Y010361D02*
X023178Y010361D01*
X023255Y010284D01*
X023255Y010131D01*
X023178Y010054D01*
X023255Y009901D02*
X022794Y009594D01*
X022794Y009901D02*
X023255Y009594D01*
X024098Y008609D02*
X024405Y008149D01*
X024559Y008226D02*
X024636Y008149D01*
X024789Y008149D01*
X024866Y008226D01*
X024866Y008379D01*
X024789Y008456D01*
X024712Y008456D01*
X024559Y008379D01*
X024559Y008609D01*
X024866Y008609D01*
X025019Y008533D02*
X025096Y008609D01*
X025249Y008609D01*
X025326Y008533D01*
X025326Y008456D01*
X025249Y008379D01*
X025326Y008302D01*
X025326Y008226D01*
X025249Y008149D01*
X025096Y008149D01*
X025019Y008226D01*
X025173Y008379D02*
X025249Y008379D01*
X024405Y008609D02*
X024098Y008149D01*
X021822Y008226D02*
X021746Y008149D01*
X021592Y008149D01*
X021515Y008226D01*
X021515Y008379D01*
X021746Y008379D01*
X021822Y008302D01*
X021822Y008226D01*
X021669Y008533D02*
X021515Y008379D01*
X021669Y008533D02*
X021822Y008609D01*
X021208Y008609D02*
X021208Y008149D01*
X021055Y008149D02*
X021362Y008149D01*
X021055Y008456D02*
X021208Y008609D01*
X020901Y008609D02*
X020595Y008149D01*
X020901Y008149D02*
X020595Y008609D01*
X026298Y009358D02*
X026759Y009665D01*
X026682Y009818D02*
X026759Y009895D01*
X026759Y010048D01*
X026682Y010125D01*
X026528Y010125D01*
X026452Y010048D01*
X026452Y009971D01*
X026528Y009818D01*
X026298Y009818D01*
X026298Y010125D01*
X026375Y010278D02*
X026298Y010355D01*
X026298Y010509D01*
X026375Y010585D01*
X026452Y010585D01*
X026759Y010278D01*
X026759Y010585D01*
X026298Y009665D02*
X026759Y009358D01*
X027051Y008609D02*
X027358Y008149D01*
X027512Y008226D02*
X027588Y008149D01*
X027742Y008149D01*
X027819Y008226D01*
X027819Y008379D01*
X027742Y008456D01*
X027665Y008456D01*
X027512Y008379D01*
X027512Y008609D01*
X027819Y008609D01*
X027972Y008379D02*
X028279Y008379D01*
X028202Y008149D02*
X028202Y008609D01*
X027972Y008379D01*
X027358Y008609D02*
X027051Y008149D01*
X029290Y009436D02*
X029751Y009743D01*
X029674Y009897D02*
X029751Y009973D01*
X029751Y010127D01*
X029674Y010204D01*
X029520Y010204D01*
X029444Y010127D01*
X029444Y010050D01*
X029520Y009897D01*
X029290Y009897D01*
X029290Y010204D01*
X029444Y010357D02*
X029290Y010511D01*
X029751Y010511D01*
X029751Y010664D02*
X029751Y010357D01*
X029290Y009743D02*
X029751Y009436D01*
X030004Y008609D02*
X030311Y008149D01*
X030464Y008226D02*
X030541Y008149D01*
X030695Y008149D01*
X030771Y008226D01*
X030771Y008379D01*
X030695Y008456D01*
X030618Y008456D01*
X030464Y008379D01*
X030464Y008609D01*
X030771Y008609D01*
X030925Y008609D02*
X030925Y008379D01*
X031078Y008456D01*
X031155Y008456D01*
X031232Y008379D01*
X031232Y008226D01*
X031155Y008149D01*
X031001Y008149D01*
X030925Y008226D01*
X030925Y008609D02*
X031232Y008609D01*
X030311Y008609D02*
X030004Y008149D01*
X032204Y009554D02*
X032664Y009861D01*
X032587Y010015D02*
X032664Y010092D01*
X032664Y010245D01*
X032587Y010322D01*
X032434Y010322D01*
X032357Y010245D01*
X032357Y010168D01*
X032434Y010015D01*
X032204Y010015D01*
X032204Y010322D01*
X032280Y010475D02*
X032204Y010552D01*
X032204Y010705D01*
X032280Y010782D01*
X032587Y010475D01*
X032664Y010552D01*
X032664Y010705D01*
X032587Y010782D01*
X032280Y010782D01*
X032280Y010475D02*
X032587Y010475D01*
X032204Y009861D02*
X032664Y009554D01*
X032957Y008609D02*
X033264Y008149D01*
X033417Y008226D02*
X033494Y008149D01*
X033647Y008149D01*
X033724Y008226D01*
X033724Y008379D01*
X033647Y008456D01*
X033571Y008456D01*
X033417Y008379D01*
X033417Y008609D01*
X033724Y008609D01*
X033878Y008379D02*
X034108Y008379D01*
X034184Y008302D01*
X034184Y008226D01*
X034108Y008149D01*
X033954Y008149D01*
X033878Y008226D01*
X033878Y008379D01*
X034031Y008533D01*
X034184Y008609D01*
X033264Y008609D02*
X032957Y008149D01*
X035156Y009594D02*
X035617Y009901D01*
X035387Y010054D02*
X035387Y010361D01*
X035310Y010515D02*
X035387Y010591D01*
X035387Y010822D01*
X035540Y010822D02*
X035233Y010822D01*
X035156Y010745D01*
X035156Y010591D01*
X035233Y010515D01*
X035310Y010515D01*
X035540Y010515D02*
X035617Y010591D01*
X035617Y010745D01*
X035540Y010822D01*
X035617Y010284D02*
X035156Y010284D01*
X035387Y010054D01*
X035156Y009901D02*
X035617Y009594D01*
X034188Y014079D02*
X033727Y014386D01*
X033804Y014539D02*
X033727Y014616D01*
X033727Y014769D01*
X033804Y014846D01*
X033881Y014846D01*
X034188Y014539D01*
X034188Y014846D01*
X034111Y015000D02*
X034034Y015000D01*
X033957Y015076D01*
X033957Y015230D01*
X034034Y015306D01*
X034111Y015306D01*
X034188Y015230D01*
X034188Y015076D01*
X034111Y015000D01*
X033957Y015076D02*
X033881Y015000D01*
X033804Y015000D01*
X033727Y015076D01*
X033727Y015230D01*
X033804Y015306D01*
X033881Y015306D01*
X033957Y015230D01*
X033245Y016169D02*
X033091Y016169D01*
X033015Y016245D01*
X033322Y016552D01*
X033322Y016245D01*
X033245Y016169D01*
X033015Y016245D02*
X033015Y016552D01*
X033091Y016629D01*
X033245Y016629D01*
X033322Y016552D01*
X032861Y016552D02*
X032861Y016476D01*
X032784Y016399D01*
X032861Y016322D01*
X032861Y016245D01*
X032784Y016169D01*
X032631Y016169D01*
X032554Y016245D01*
X032401Y016169D02*
X032094Y016629D01*
X032401Y016629D02*
X032094Y016169D01*
X032554Y016552D02*
X032631Y016629D01*
X032784Y016629D01*
X032861Y016552D01*
X032784Y016399D02*
X032708Y016399D01*
X031196Y015341D02*
X030736Y015034D01*
X030736Y014881D02*
X031042Y014574D01*
X031119Y014574D01*
X031196Y014651D01*
X031196Y014804D01*
X031119Y014881D01*
X031196Y015034D02*
X030736Y015341D01*
X030736Y014881D02*
X030736Y014574D01*
X030736Y014420D02*
X030812Y014420D01*
X031119Y014114D01*
X031196Y014114D01*
X031196Y014420D01*
X030369Y016169D02*
X030062Y016169D01*
X030215Y016169D02*
X030215Y016629D01*
X030062Y016476D01*
X029908Y016476D02*
X029832Y016399D01*
X029908Y016322D01*
X029908Y016245D01*
X029832Y016169D01*
X029678Y016169D01*
X029601Y016245D01*
X029448Y016169D02*
X029141Y016629D01*
X029448Y016629D02*
X029141Y016169D01*
X029601Y016552D02*
X029678Y016629D01*
X029832Y016629D01*
X029908Y016552D01*
X029908Y016476D01*
X029832Y016399D02*
X029755Y016399D01*
X028282Y015033D02*
X028205Y015110D01*
X028129Y015110D01*
X028052Y015033D01*
X028052Y014803D01*
X028205Y014803D01*
X028282Y014879D01*
X028282Y015033D01*
X028052Y014803D02*
X027899Y014956D01*
X027822Y015110D01*
X027899Y014649D02*
X027822Y014573D01*
X027822Y014419D01*
X027899Y014342D01*
X027822Y014189D02*
X028282Y013882D01*
X028282Y014189D02*
X027822Y013882D01*
X028282Y014342D02*
X027975Y014649D01*
X027899Y014649D01*
X028282Y014649D02*
X028282Y014342D01*
X027416Y016169D02*
X027109Y016169D01*
X027416Y016476D01*
X027416Y016552D01*
X027339Y016629D01*
X027186Y016629D01*
X027109Y016552D01*
X026956Y016552D02*
X026956Y016476D01*
X026879Y016399D01*
X026956Y016322D01*
X026956Y016245D01*
X026879Y016169D01*
X026725Y016169D01*
X026649Y016245D01*
X026495Y016169D02*
X026188Y016629D01*
X026495Y016629D02*
X026188Y016169D01*
X026649Y016552D02*
X026725Y016629D01*
X026879Y016629D01*
X026956Y016552D01*
X026879Y016399D02*
X026802Y016399D01*
X025329Y014994D02*
X025329Y014840D01*
X025253Y014763D01*
X025099Y014763D02*
X025022Y014917D01*
X025022Y014994D01*
X025099Y015070D01*
X025253Y015070D01*
X025329Y014994D01*
X025099Y014763D02*
X024869Y014763D01*
X024869Y015070D01*
X024946Y014610D02*
X024869Y014533D01*
X024869Y014380D01*
X024946Y014303D01*
X024869Y014149D02*
X025329Y013843D01*
X025329Y014149D02*
X024869Y013843D01*
X025329Y014303D02*
X025022Y014610D01*
X024946Y014610D01*
X025329Y014610D02*
X025329Y014303D01*
X023951Y016287D02*
X023645Y016287D01*
X023798Y016287D02*
X023798Y016747D01*
X023645Y016594D01*
X023491Y016594D02*
X023491Y016670D01*
X023414Y016747D01*
X023261Y016747D01*
X023184Y016670D01*
X023031Y016747D02*
X022724Y016287D01*
X023031Y016287D02*
X022724Y016747D01*
X023184Y016287D02*
X023491Y016594D01*
X023491Y016287D02*
X023184Y016287D01*
X021865Y015348D02*
X021865Y015194D01*
X021788Y015118D01*
X021481Y015425D01*
X021788Y015425D01*
X021865Y015348D01*
X021788Y015118D02*
X021481Y015118D01*
X021404Y015194D01*
X021404Y015348D01*
X021481Y015425D01*
X021481Y014964D02*
X021404Y014887D01*
X021404Y014734D01*
X021481Y014657D01*
X021404Y014504D02*
X021865Y014197D01*
X021865Y014504D02*
X021404Y014197D01*
X021865Y014657D02*
X021558Y014964D01*
X021481Y014964D01*
X021865Y014964D02*
X021865Y014657D01*
X020999Y016287D02*
X020692Y016287D01*
X020999Y016594D01*
X020999Y016670D01*
X020922Y016747D01*
X020769Y016747D01*
X020692Y016670D01*
X020538Y016670D02*
X020462Y016747D01*
X020308Y016747D01*
X020231Y016670D01*
X020078Y016747D02*
X019771Y016287D01*
X020078Y016287D02*
X019771Y016747D01*
X020231Y016287D02*
X020538Y016594D01*
X020538Y016670D01*
X020538Y016287D02*
X020231Y016287D01*
X018873Y015459D02*
X018413Y015152D01*
X018413Y014999D02*
X018413Y014692D01*
X018413Y014845D02*
X018873Y014845D01*
X018720Y014999D01*
X018873Y015152D02*
X018413Y015459D01*
X017969Y016287D02*
X017816Y016287D01*
X017739Y016363D01*
X017586Y016287D02*
X017279Y016287D01*
X017586Y016594D01*
X017586Y016670D01*
X017509Y016747D01*
X017355Y016747D01*
X017279Y016670D01*
X017125Y016747D02*
X016818Y016287D01*
X017125Y016287D02*
X016818Y016747D01*
X017739Y016670D02*
X017816Y016747D01*
X017969Y016747D01*
X018046Y016670D01*
X018046Y016594D01*
X017969Y016517D01*
X018046Y016440D01*
X018046Y016363D01*
X017969Y016287D01*
X017969Y016517D02*
X017892Y016517D01*
X015959Y015151D02*
X015883Y015228D01*
X015806Y015228D01*
X015729Y015151D01*
X015729Y014998D01*
X015652Y014921D01*
X015576Y014921D01*
X015499Y014998D01*
X015499Y015151D01*
X015576Y015228D01*
X015652Y015228D01*
X015729Y015151D01*
X015729Y014998D02*
X015806Y014921D01*
X015883Y014921D01*
X015959Y014998D01*
X015959Y015151D01*
X015959Y014767D02*
X015959Y014460D01*
X015959Y014307D02*
X015499Y014000D01*
X015499Y014307D02*
X015959Y014000D01*
X015652Y014460D02*
X015499Y014614D01*
X015959Y014614D01*
X015016Y016287D02*
X015016Y016747D01*
X014786Y016517D01*
X015093Y016517D01*
X014633Y016594D02*
X014633Y016670D01*
X014556Y016747D01*
X014403Y016747D01*
X014326Y016670D01*
X014172Y016747D02*
X013865Y016287D01*
X014172Y016287D02*
X013865Y016747D01*
X014326Y016287D02*
X014633Y016594D01*
X014633Y016287D02*
X014326Y016287D01*
X012930Y014881D02*
X012623Y015188D01*
X012546Y015188D01*
X012546Y014881D01*
X012546Y014575D02*
X013007Y014575D01*
X013007Y014728D02*
X013007Y014421D01*
X013007Y014268D02*
X012546Y013961D01*
X012546Y014268D02*
X013007Y013961D01*
X012700Y014421D02*
X012546Y014575D01*
X012930Y014881D02*
X013007Y014881D01*
X010048Y013401D02*
X010048Y012940D01*
X010125Y013170D02*
X009818Y013170D01*
X010048Y013401D01*
X009665Y013401D02*
X009358Y012940D01*
X009665Y012940D02*
X009358Y013401D01*
X008609Y014259D02*
X008149Y014566D01*
X008149Y014720D02*
X008379Y014720D01*
X008302Y014873D01*
X008302Y014950D01*
X008379Y015026D01*
X008532Y015026D01*
X008609Y014950D01*
X008609Y014796D01*
X008532Y014720D01*
X008609Y014566D02*
X008149Y014259D01*
X008149Y014720D02*
X008149Y015026D01*
X018413Y014462D02*
X018413Y014308D01*
X018489Y014232D01*
X018796Y014232D01*
X018873Y014308D01*
X018873Y014462D01*
X018796Y014539D01*
X018720Y014539D01*
X018643Y014462D01*
X018643Y014232D01*
X018413Y014462D02*
X018489Y014539D01*
X008609Y006091D02*
X008609Y005938D01*
X008532Y005861D01*
X008455Y005861D01*
X008379Y005938D01*
X008379Y006091D01*
X008455Y006168D01*
X008532Y006168D01*
X008609Y006091D01*
X008379Y006091D02*
X008302Y006168D01*
X008225Y006168D01*
X008149Y006091D01*
X008149Y005938D01*
X008225Y005861D01*
X008302Y005861D01*
X008379Y005938D01*
X008609Y005708D02*
X008149Y005401D01*
X008149Y005708D02*
X008609Y005401D01*
X009594Y004542D02*
X009901Y004082D01*
X010054Y004082D02*
X010361Y004082D01*
X010208Y004082D02*
X010208Y004542D01*
X010054Y004389D01*
X009901Y004542D02*
X009594Y004082D01*
X033727Y014079D02*
X034188Y014386D01*
X035047Y016169D02*
X035354Y016629D01*
X035507Y016552D02*
X035584Y016629D01*
X035737Y016629D01*
X035814Y016552D01*
X035814Y016476D01*
X035507Y016169D01*
X035814Y016169D01*
X035967Y016245D02*
X036044Y016169D01*
X036198Y016169D01*
X036274Y016245D01*
X036274Y016552D01*
X036198Y016629D01*
X036044Y016629D01*
X035967Y016552D01*
X035967Y016476D01*
X036044Y016399D01*
X036274Y016399D01*
X035354Y016169D02*
X035047Y016629D01*
M02*
