G75*
%MOIN*%
%OFA0B0*%
%FSLAX24Y24*%
%IPPOS*%
%LPD*%
%AMOC8*
5,1,8,0,0,1.08239X$1,22.5*
%
%ADD10C,0.0160*%
%ADD11C,0.0531*%
%ADD12C,0.0886*%
D10*
X003393Y003471D02*
X003393Y015361D01*
X012054Y015361D01*
X012054Y021267D01*
X023708Y021267D01*
X023708Y003511D01*
X023398Y003781D02*
X023398Y004049D01*
X023292Y004049D01*
X023056Y004147D01*
X022875Y004328D01*
X022777Y004564D01*
X022777Y004795D01*
X022744Y004716D01*
X022613Y004584D01*
X022442Y004514D01*
X022257Y004514D01*
X022086Y004584D01*
X021955Y004716D01*
X021921Y004795D01*
X021921Y004564D01*
X021824Y004328D01*
X021643Y004147D01*
X021406Y004049D01*
X021151Y004049D01*
X020914Y004147D01*
X020873Y004188D01*
X020832Y004147D01*
X020595Y004049D01*
X020340Y004049D01*
X020103Y004147D01*
X019922Y004328D01*
X019825Y004564D01*
X019825Y004795D01*
X019791Y004716D01*
X019660Y004584D01*
X019489Y004514D01*
X019304Y004514D01*
X019133Y004584D01*
X019002Y004716D01*
X018969Y004795D01*
X018969Y004564D01*
X018871Y004328D01*
X018690Y004147D01*
X018454Y004049D01*
X018198Y004049D01*
X017962Y004147D01*
X017920Y004188D01*
X017879Y004147D01*
X017643Y004049D01*
X017387Y004049D01*
X017151Y004147D01*
X016970Y004328D01*
X016872Y004564D01*
X016872Y004795D01*
X016839Y004716D01*
X016708Y004584D01*
X016537Y004514D01*
X016351Y004514D01*
X016180Y004584D01*
X016049Y004716D01*
X016016Y004795D01*
X016016Y004564D01*
X015918Y004328D01*
X015737Y004147D01*
X015501Y004049D01*
X015245Y004049D01*
X015009Y004147D01*
X014968Y004188D01*
X014926Y004147D01*
X014690Y004049D01*
X014434Y004049D01*
X014198Y004147D01*
X014017Y004328D01*
X013919Y004564D01*
X013919Y004795D01*
X013886Y004716D01*
X013755Y004584D01*
X013584Y004514D01*
X013398Y004514D01*
X013227Y004584D01*
X013096Y004716D01*
X013063Y004795D01*
X013063Y004564D01*
X012965Y004328D01*
X012784Y004147D01*
X012548Y004049D01*
X012364Y004049D01*
X012364Y003781D01*
X023398Y003781D01*
X023398Y003788D02*
X012364Y003788D01*
X012364Y003947D02*
X023398Y003947D01*
X023156Y004105D02*
X021543Y004105D01*
X021760Y004264D02*
X022939Y004264D01*
X022836Y004422D02*
X021863Y004422D01*
X021921Y004581D02*
X022094Y004581D01*
X021945Y004739D02*
X021921Y004739D01*
X021884Y004911D02*
X021824Y005056D01*
X021643Y005237D01*
X021406Y005335D01*
X021151Y005335D01*
X020914Y005237D01*
X020873Y005196D01*
X020832Y005237D01*
X020595Y005335D01*
X020340Y005335D01*
X020103Y005237D01*
X019922Y005056D01*
X019862Y004911D01*
X019862Y005072D01*
X019791Y005243D01*
X019662Y005373D01*
X019791Y005503D01*
X019862Y005674D01*
X019862Y005836D01*
X020087Y006061D01*
X020129Y006164D01*
X020129Y006892D01*
X020340Y006805D01*
X020595Y006805D01*
X020832Y006903D01*
X020873Y006944D01*
X020914Y006903D01*
X021151Y006805D01*
X021406Y006805D01*
X021617Y006892D01*
X021617Y005376D01*
X021659Y005273D01*
X021738Y005195D01*
X021884Y005049D01*
X021884Y004911D01*
X021876Y005056D02*
X021823Y005056D01*
X021718Y005215D02*
X021665Y005215D01*
X021618Y005373D02*
X019662Y005373D01*
X019803Y005215D02*
X020081Y005215D01*
X019923Y005056D02*
X019862Y005056D01*
X019825Y004739D02*
X019801Y004739D01*
X019825Y004581D02*
X019652Y004581D01*
X019883Y004422D02*
X018910Y004422D01*
X018969Y004581D02*
X019141Y004581D01*
X018992Y004739D02*
X018969Y004739D01*
X018931Y004911D02*
X018871Y005056D01*
X018690Y005237D01*
X018454Y005335D01*
X018198Y005335D01*
X017962Y005237D01*
X017920Y005196D01*
X017879Y005237D01*
X017643Y005335D01*
X017387Y005335D01*
X017151Y005237D01*
X016970Y005056D01*
X016910Y004911D01*
X016910Y005072D01*
X016839Y005243D01*
X016709Y005373D01*
X016839Y005503D01*
X016910Y005674D01*
X016910Y005837D01*
X017055Y005982D01*
X017134Y006061D01*
X017177Y006164D01*
X017177Y006892D01*
X017387Y006805D01*
X017643Y006805D01*
X017879Y006903D01*
X017920Y006944D01*
X017962Y006903D01*
X018198Y006805D01*
X018454Y006805D01*
X018664Y006892D01*
X018664Y005376D01*
X018707Y005273D01*
X018785Y005195D01*
X018931Y005049D01*
X018931Y004911D01*
X018924Y005056D02*
X018870Y005056D01*
X018765Y005215D02*
X018712Y005215D01*
X018665Y005373D02*
X016709Y005373D01*
X016850Y005215D02*
X017129Y005215D01*
X016970Y005056D02*
X016910Y005056D01*
X016872Y004739D02*
X016849Y004739D01*
X016872Y004581D02*
X016699Y004581D01*
X016930Y004422D02*
X015957Y004422D01*
X016016Y004581D02*
X016189Y004581D01*
X016039Y004739D02*
X016016Y004739D01*
X015978Y004911D02*
X015978Y005049D01*
X015754Y005273D01*
X015711Y005376D01*
X015711Y006892D01*
X015501Y006805D01*
X015245Y006805D01*
X015009Y006903D01*
X014968Y006944D01*
X014926Y006903D01*
X014690Y006805D01*
X014434Y006805D01*
X014224Y006892D01*
X014224Y006164D01*
X014181Y006061D01*
X013957Y005837D01*
X013957Y005674D01*
X013886Y005503D01*
X013756Y005373D01*
X013886Y005243D01*
X013957Y005072D01*
X013957Y004911D01*
X014017Y005056D01*
X014198Y005237D01*
X014434Y005335D01*
X014690Y005335D01*
X014926Y005237D01*
X014968Y005196D01*
X015009Y005237D01*
X015245Y005335D01*
X015501Y005335D01*
X015737Y005237D01*
X015918Y005056D01*
X015978Y004911D01*
X015971Y005056D02*
X015918Y005056D01*
X015812Y005215D02*
X015759Y005215D01*
X015712Y005373D02*
X013757Y005373D01*
X013898Y005215D02*
X014176Y005215D01*
X014017Y005056D02*
X013957Y005056D01*
X013919Y004739D02*
X013896Y004739D01*
X013919Y004581D02*
X013746Y004581D01*
X013978Y004422D02*
X013005Y004422D01*
X013063Y004581D02*
X013236Y004581D01*
X013086Y004739D02*
X013063Y004739D01*
X013025Y004911D02*
X013025Y005049D01*
X012762Y005313D01*
X012719Y005416D01*
X012719Y006876D01*
X012548Y006805D01*
X012364Y006805D01*
X012364Y005335D01*
X012548Y005335D01*
X012784Y005237D01*
X012965Y005056D01*
X013025Y004911D01*
X013018Y005056D02*
X012965Y005056D01*
X012860Y005215D02*
X012806Y005215D01*
X012737Y005373D02*
X012364Y005373D01*
X012364Y005532D02*
X012719Y005532D01*
X012719Y005690D02*
X012364Y005690D01*
X012364Y005849D02*
X012719Y005849D01*
X012719Y006007D02*
X012364Y006007D01*
X012364Y006166D02*
X012719Y006166D01*
X012719Y006324D02*
X012364Y006324D01*
X012364Y006483D02*
X012719Y006483D01*
X012719Y006641D02*
X012364Y006641D01*
X012364Y006800D02*
X012719Y006800D01*
X013483Y007350D02*
X013483Y007787D01*
X013456Y007787D01*
X013387Y007776D01*
X013320Y007755D01*
X013279Y007734D01*
X013279Y008426D01*
X013320Y008405D01*
X013387Y008383D01*
X013456Y008372D01*
X013483Y008372D01*
X013483Y008809D01*
X013500Y008809D01*
X013500Y008372D01*
X013526Y008372D01*
X013596Y008383D01*
X013662Y008405D01*
X013664Y008406D01*
X013664Y007754D01*
X013662Y007755D01*
X013596Y007776D01*
X013526Y007787D01*
X013500Y007787D01*
X013500Y007350D01*
X013483Y007350D01*
X013491Y007342D02*
X013491Y008818D01*
X013483Y008702D02*
X013500Y008702D01*
X013483Y008543D02*
X013500Y008543D01*
X013483Y008385D02*
X013500Y008385D01*
X013601Y008385D02*
X013664Y008385D01*
X013664Y008226D02*
X013279Y008226D01*
X013279Y008068D02*
X013664Y008068D01*
X013664Y007909D02*
X013279Y007909D01*
X013279Y007751D02*
X013313Y007751D01*
X013483Y007751D02*
X013500Y007751D01*
X013483Y007592D02*
X013500Y007592D01*
X013483Y007434D02*
X013500Y007434D01*
X014224Y006800D02*
X015711Y006800D01*
X015711Y006641D02*
X014224Y006641D01*
X014224Y006483D02*
X015711Y006483D01*
X015711Y006324D02*
X014224Y006324D01*
X014224Y006166D02*
X015711Y006166D01*
X015711Y006007D02*
X014128Y006007D01*
X013969Y005849D02*
X015711Y005849D01*
X015711Y005690D02*
X013957Y005690D01*
X013898Y005532D02*
X015711Y005532D01*
X015991Y005432D02*
X016444Y004979D01*
X015991Y005432D02*
X015991Y010727D01*
X016444Y011180D01*
X016016Y011364D02*
X016016Y011414D01*
X015945Y011587D01*
X016208Y011587D01*
X016180Y011575D01*
X016049Y011444D01*
X016016Y011364D01*
X016016Y011396D02*
X016029Y011396D01*
X015958Y011555D02*
X016160Y011555D01*
X016679Y011587D02*
X016943Y011587D01*
X016872Y011414D01*
X016872Y011364D01*
X016839Y011444D01*
X016708Y011575D01*
X016679Y011587D01*
X016728Y011555D02*
X016930Y011555D01*
X016872Y011396D02*
X016858Y011396D01*
X016905Y011077D02*
X016970Y010922D01*
X017151Y010741D01*
X017387Y010644D01*
X017643Y010644D01*
X017879Y010741D01*
X017920Y010783D01*
X017962Y010741D01*
X018198Y010644D01*
X018454Y010644D01*
X018664Y010731D01*
X018664Y009086D01*
X018454Y009173D01*
X018198Y009173D01*
X017962Y009076D01*
X017920Y009034D01*
X017879Y009076D01*
X017643Y009173D01*
X017387Y009173D01*
X017177Y009086D01*
X017177Y009996D01*
X017134Y010099D01*
X016910Y010323D01*
X016910Y010485D01*
X016839Y010657D01*
X016709Y010786D01*
X016839Y010916D01*
X016905Y011077D01*
X016841Y010921D02*
X016971Y010921D01*
X017129Y010762D02*
X016733Y010762D01*
X016861Y010604D02*
X018664Y010604D01*
X018664Y010445D02*
X016910Y010445D01*
X016946Y010287D02*
X018664Y010287D01*
X018664Y010128D02*
X017104Y010128D01*
X017177Y009970D02*
X018664Y009970D01*
X018664Y009811D02*
X017177Y009811D01*
X017177Y009653D02*
X018664Y009653D01*
X018664Y009494D02*
X017177Y009494D01*
X017177Y009336D02*
X018664Y009336D01*
X018664Y009177D02*
X017177Y009177D01*
X016452Y008809D02*
X016452Y008372D01*
X016479Y008372D01*
X016548Y008383D01*
X016615Y008405D01*
X016617Y008406D01*
X016617Y007754D01*
X016615Y007755D01*
X016548Y007776D01*
X016479Y007787D01*
X016452Y007787D01*
X016452Y007350D01*
X016435Y007350D01*
X016435Y007787D01*
X016409Y007787D01*
X016340Y007776D01*
X016273Y007755D01*
X016271Y007754D01*
X016271Y008406D01*
X016273Y008405D01*
X016340Y008383D01*
X016409Y008372D01*
X016435Y008372D01*
X016435Y008809D01*
X016452Y008809D01*
X016444Y008818D02*
X016444Y007342D01*
X016435Y007434D02*
X016452Y007434D01*
X016435Y007592D02*
X016452Y007592D01*
X016435Y007751D02*
X016452Y007751D01*
X016617Y007909D02*
X016271Y007909D01*
X016271Y008068D02*
X016617Y008068D01*
X016617Y008226D02*
X016271Y008226D01*
X016271Y008385D02*
X016334Y008385D01*
X016435Y008385D02*
X016452Y008385D01*
X016554Y008385D02*
X016617Y008385D01*
X016452Y008543D02*
X016435Y008543D01*
X016435Y008702D02*
X016452Y008702D01*
X015711Y009086D02*
X015501Y009173D01*
X015245Y009173D01*
X015009Y009076D01*
X014968Y009034D01*
X014926Y009076D01*
X014690Y009173D01*
X014434Y009173D01*
X014224Y009086D01*
X014224Y009996D01*
X014181Y010099D01*
X014103Y010177D01*
X013957Y010323D01*
X013957Y010485D01*
X013886Y010657D01*
X013756Y010786D01*
X013886Y010916D01*
X013953Y011077D01*
X014017Y010922D01*
X014198Y010741D01*
X014434Y010644D01*
X014690Y010644D01*
X014926Y010741D01*
X014968Y010783D01*
X015009Y010741D01*
X015245Y010644D01*
X015501Y010644D01*
X015711Y010731D01*
X015711Y009086D01*
X015711Y009177D02*
X014224Y009177D01*
X014224Y009336D02*
X015711Y009336D01*
X015711Y009494D02*
X014224Y009494D01*
X014224Y009653D02*
X015711Y009653D01*
X015711Y009811D02*
X014224Y009811D01*
X014224Y009970D02*
X015711Y009970D01*
X015711Y010128D02*
X014151Y010128D01*
X014103Y010177D02*
X014103Y010177D01*
X013993Y010287D02*
X015711Y010287D01*
X015711Y010445D02*
X013957Y010445D01*
X013908Y010604D02*
X015711Y010604D01*
X014988Y010762D02*
X014947Y010762D01*
X014177Y010762D02*
X013780Y010762D01*
X013888Y010921D02*
X014018Y010921D01*
X013919Y011364D02*
X013886Y011444D01*
X013755Y011575D01*
X013727Y011587D01*
X013990Y011587D01*
X013919Y011414D01*
X013919Y011364D01*
X013919Y011396D02*
X013906Y011396D01*
X013977Y011555D02*
X013775Y011555D01*
X013256Y011587D02*
X012992Y011587D01*
X013063Y011414D01*
X013063Y011364D01*
X013096Y011444D01*
X013227Y011575D01*
X013256Y011587D01*
X013207Y011555D02*
X013005Y011555D01*
X013063Y011396D02*
X013077Y011396D01*
X013491Y011180D02*
X012999Y010688D01*
X012999Y005471D01*
X013491Y004979D01*
X012902Y004264D02*
X014081Y004264D01*
X014298Y004105D02*
X012684Y004105D01*
X012054Y003511D02*
X012054Y011897D01*
X036109Y011897D01*
X036109Y012920D01*
X012054Y012920D01*
X012054Y015361D01*
X012364Y015359D02*
X012719Y015359D01*
X012719Y015517D02*
X012364Y015517D01*
X012364Y015676D02*
X012719Y015676D01*
X012719Y015809D02*
X012719Y014900D01*
X012762Y014797D01*
X012840Y014718D01*
X012986Y014573D01*
X012986Y014410D01*
X013057Y014239D01*
X013187Y014109D01*
X013057Y013979D01*
X012990Y013818D01*
X012926Y013973D01*
X012745Y014154D01*
X012509Y014252D01*
X012364Y014252D01*
X012364Y015722D01*
X012509Y015722D01*
X012719Y015809D01*
X012719Y015200D02*
X012364Y015200D01*
X012364Y015042D02*
X012719Y015042D01*
X012726Y014883D02*
X012364Y014883D01*
X012364Y014725D02*
X012834Y014725D01*
X012986Y014566D02*
X012364Y014566D01*
X012364Y014408D02*
X012987Y014408D01*
X013053Y014249D02*
X012515Y014249D01*
X012808Y014091D02*
X013169Y014091D01*
X013038Y013932D02*
X012943Y013932D01*
X013024Y013532D02*
X013057Y013452D01*
X013188Y013321D01*
X013359Y013250D01*
X013544Y013250D01*
X013716Y013321D01*
X013847Y013452D01*
X013880Y013532D01*
X013880Y013481D01*
X013978Y013245D01*
X013992Y013230D01*
X012911Y013230D01*
X012926Y013245D01*
X013024Y013481D01*
X013024Y013532D01*
X013014Y013457D02*
X013055Y013457D01*
X012948Y013298D02*
X013242Y013298D01*
X013662Y013298D02*
X013955Y013298D01*
X013890Y013457D02*
X013849Y013457D01*
X013452Y013716D02*
X013905Y014168D01*
X013905Y019464D01*
X013452Y019916D01*
X013880Y020100D02*
X013847Y020180D01*
X013716Y020311D01*
X013544Y020382D01*
X013359Y020382D01*
X013188Y020311D01*
X013057Y020180D01*
X013024Y020100D01*
X013024Y020332D01*
X012926Y020568D01*
X012745Y020749D01*
X012509Y020847D01*
X012364Y020847D01*
X012364Y020957D01*
X023398Y020957D01*
X023398Y020847D01*
X023253Y020847D01*
X023017Y020749D01*
X022836Y020568D01*
X022738Y020332D01*
X022738Y020100D01*
X022705Y020180D01*
X022574Y020311D01*
X022403Y020382D01*
X022217Y020382D01*
X022046Y020311D01*
X021915Y020180D01*
X021882Y020100D01*
X021882Y020332D01*
X021784Y020568D01*
X021603Y020749D01*
X021367Y020847D01*
X021111Y020847D01*
X020875Y020749D01*
X020834Y020707D01*
X020792Y020749D01*
X020556Y020847D01*
X020300Y020847D01*
X020064Y020749D01*
X019883Y020568D01*
X019785Y020332D01*
X019785Y020100D01*
X019752Y020180D01*
X019621Y020311D01*
X019450Y020382D01*
X019265Y020382D01*
X019093Y020311D01*
X018962Y020180D01*
X018929Y020100D01*
X018929Y020332D01*
X018831Y020568D01*
X018651Y020749D01*
X018414Y020847D01*
X018159Y020847D01*
X017922Y020749D01*
X017881Y020707D01*
X017840Y020749D01*
X017603Y020847D01*
X017348Y020847D01*
X017111Y020749D01*
X016930Y020568D01*
X016832Y020332D01*
X016832Y020100D01*
X016799Y020180D01*
X016668Y020311D01*
X016497Y020382D01*
X016312Y020382D01*
X016141Y020311D01*
X016010Y020180D01*
X015977Y020100D01*
X015977Y020332D01*
X015879Y020568D01*
X015698Y020749D01*
X015462Y020847D01*
X015206Y020847D01*
X014969Y020749D01*
X014928Y020707D01*
X014887Y020749D01*
X014651Y020847D01*
X014395Y020847D01*
X014158Y020749D01*
X013978Y020568D01*
X013880Y020332D01*
X013880Y020100D01*
X013880Y020114D02*
X013874Y020114D01*
X013918Y019985D02*
X013978Y019840D01*
X014158Y019659D01*
X014395Y019561D01*
X014651Y019561D01*
X014887Y019659D01*
X014928Y019700D01*
X014969Y019659D01*
X015206Y019561D01*
X015462Y019561D01*
X015698Y019659D01*
X015879Y019840D01*
X015939Y019985D01*
X015939Y019824D01*
X016010Y019653D01*
X016140Y019523D01*
X016010Y019393D01*
X015939Y019222D01*
X015939Y019059D01*
X015714Y018835D01*
X015672Y018732D01*
X015672Y018004D01*
X015462Y018091D01*
X015206Y018091D01*
X014969Y017993D01*
X014928Y017952D01*
X014887Y017993D01*
X014651Y018091D01*
X014395Y018091D01*
X014185Y018004D01*
X014185Y019519D01*
X014142Y019622D01*
X014063Y019701D01*
X013918Y019847D01*
X013918Y019985D01*
X013918Y019955D02*
X013930Y019955D01*
X013967Y019797D02*
X014020Y019797D01*
X014126Y019638D02*
X014207Y019638D01*
X014185Y019480D02*
X016097Y019480D01*
X016024Y019638D02*
X015649Y019638D01*
X015836Y019797D02*
X015950Y019797D01*
X015939Y019955D02*
X015927Y019955D01*
X015977Y020114D02*
X015982Y020114D01*
X015977Y020272D02*
X016102Y020272D01*
X015935Y020431D02*
X016874Y020431D01*
X016832Y020272D02*
X016707Y020272D01*
X016827Y020114D02*
X016832Y020114D01*
X016870Y019985D02*
X016930Y019840D01*
X017111Y019659D01*
X017348Y019561D01*
X017603Y019561D01*
X017840Y019659D01*
X017881Y019700D01*
X017922Y019659D01*
X018159Y019561D01*
X018414Y019561D01*
X018651Y019659D01*
X018831Y019840D01*
X018892Y019985D01*
X018892Y019824D01*
X018962Y019653D01*
X019092Y019523D01*
X018962Y019393D01*
X018892Y019222D01*
X018892Y019059D01*
X018746Y018914D01*
X018667Y018835D01*
X018625Y018732D01*
X018625Y018004D01*
X018414Y018091D01*
X018159Y018091D01*
X017922Y017993D01*
X017881Y017952D01*
X017840Y017993D01*
X017603Y018091D01*
X017348Y018091D01*
X017137Y018004D01*
X017137Y019519D01*
X017095Y019622D01*
X017016Y019701D01*
X016870Y019847D01*
X016870Y019985D01*
X016870Y019955D02*
X016882Y019955D01*
X016920Y019797D02*
X016973Y019797D01*
X017078Y019638D02*
X017160Y019638D01*
X017137Y019480D02*
X019050Y019480D01*
X018976Y019638D02*
X018602Y019638D01*
X018789Y019797D02*
X018903Y019797D01*
X018892Y019955D02*
X018879Y019955D01*
X018929Y020114D02*
X018935Y020114D01*
X018929Y020272D02*
X019055Y020272D01*
X018888Y020431D02*
X019826Y020431D01*
X019785Y020272D02*
X019660Y020272D01*
X019780Y020114D02*
X019785Y020114D01*
X019823Y019985D02*
X019823Y019847D01*
X020047Y019622D01*
X020090Y019519D01*
X020090Y018004D01*
X020300Y018091D01*
X020556Y018091D01*
X020792Y017993D01*
X020834Y017952D01*
X020875Y017993D01*
X021111Y018091D01*
X021367Y018091D01*
X021577Y018004D01*
X021577Y018732D01*
X021620Y018835D01*
X021844Y019059D01*
X021844Y019222D01*
X021915Y019393D01*
X022045Y019523D01*
X021915Y019653D01*
X021844Y019824D01*
X021844Y019985D01*
X021784Y019840D01*
X021603Y019659D01*
X021367Y019561D01*
X021111Y019561D01*
X020875Y019659D01*
X020834Y019700D01*
X020792Y019659D01*
X020556Y019561D01*
X020300Y019561D01*
X020064Y019659D01*
X019883Y019840D01*
X019823Y019985D01*
X019823Y019955D02*
X019835Y019955D01*
X019873Y019797D02*
X019926Y019797D01*
X020031Y019638D02*
X020113Y019638D01*
X020090Y019480D02*
X022002Y019480D01*
X021929Y019638D02*
X021555Y019638D01*
X021742Y019797D02*
X021855Y019797D01*
X021844Y019955D02*
X021832Y019955D01*
X021882Y020114D02*
X021888Y020114D01*
X021882Y020272D02*
X022008Y020272D01*
X021841Y020431D02*
X022779Y020431D01*
X022738Y020272D02*
X022613Y020272D01*
X022732Y020114D02*
X022738Y020114D01*
X022776Y019985D02*
X022776Y019847D01*
X023040Y019583D01*
X023082Y019480D01*
X023398Y019480D01*
X023398Y019561D02*
X023398Y018091D01*
X023253Y018091D01*
X023082Y018020D01*
X023082Y019480D01*
X023082Y019321D02*
X023398Y019321D01*
X023398Y019163D02*
X023082Y019163D01*
X023082Y019004D02*
X023398Y019004D01*
X023398Y018846D02*
X023082Y018846D01*
X023082Y018687D02*
X023398Y018687D01*
X023398Y018529D02*
X023082Y018529D01*
X023082Y018370D02*
X023398Y018370D01*
X023398Y018212D02*
X023082Y018212D01*
X023082Y018053D02*
X023163Y018053D01*
X022319Y017546D02*
X022319Y017108D01*
X022345Y017108D01*
X022414Y017119D01*
X022481Y017141D01*
X022522Y017162D01*
X022522Y016470D01*
X022481Y016491D01*
X022414Y016513D01*
X022345Y016524D01*
X022319Y016524D01*
X022319Y016086D01*
X022301Y016086D01*
X022301Y016524D01*
X022275Y016524D01*
X022206Y016513D01*
X022139Y016491D01*
X022137Y016490D01*
X022137Y017142D01*
X022139Y017141D01*
X022206Y017119D01*
X022275Y017108D01*
X022301Y017108D01*
X022301Y017546D01*
X022319Y017546D01*
X022310Y017554D02*
X022310Y016078D01*
X022301Y016151D02*
X022319Y016151D01*
X022319Y016310D02*
X022301Y016310D01*
X022301Y016468D02*
X022319Y016468D01*
X022137Y016627D02*
X022522Y016627D01*
X022522Y016785D02*
X022137Y016785D01*
X022137Y016944D02*
X022522Y016944D01*
X022522Y017102D02*
X022137Y017102D01*
X022301Y017261D02*
X022319Y017261D01*
X022319Y017419D02*
X022301Y017419D01*
X021577Y018053D02*
X021457Y018053D01*
X021577Y018212D02*
X020090Y018212D01*
X020090Y018370D02*
X021577Y018370D01*
X021577Y018529D02*
X020090Y018529D01*
X020090Y018687D02*
X021577Y018687D01*
X021631Y018846D02*
X020090Y018846D01*
X020090Y019004D02*
X021790Y019004D01*
X021844Y019163D02*
X020090Y019163D01*
X020090Y019321D02*
X021886Y019321D01*
X022310Y019129D02*
X021857Y018676D01*
X021857Y014956D01*
X022310Y014503D01*
X022802Y014208D02*
X022802Y019424D01*
X022310Y019916D01*
X022776Y019955D02*
X022788Y019955D01*
X022776Y019985D02*
X022836Y019840D01*
X023017Y019659D01*
X023253Y019561D01*
X023398Y019561D01*
X023066Y019638D02*
X022984Y019638D01*
X022878Y019797D02*
X022825Y019797D01*
X022857Y020589D02*
X021763Y020589D01*
X021604Y020748D02*
X023016Y020748D01*
X023398Y020906D02*
X012364Y020906D01*
X012746Y020748D02*
X014158Y020748D01*
X013999Y020589D02*
X012904Y020589D01*
X012983Y020431D02*
X013921Y020431D01*
X013880Y020272D02*
X013754Y020272D01*
X013149Y020272D02*
X013024Y020272D01*
X013024Y020114D02*
X013030Y020114D01*
X012986Y019985D02*
X012986Y019824D01*
X013057Y019653D01*
X013187Y019523D01*
X013057Y019393D01*
X012986Y019222D01*
X012986Y019059D01*
X012762Y018835D01*
X012719Y018732D01*
X012719Y018004D01*
X012509Y018091D01*
X012364Y018091D01*
X012364Y019561D01*
X012509Y019561D01*
X012745Y019659D01*
X012926Y019840D01*
X012986Y019985D01*
X012986Y019955D02*
X012974Y019955D01*
X012997Y019797D02*
X012883Y019797D01*
X012696Y019638D02*
X013071Y019638D01*
X013144Y019480D02*
X012364Y019480D01*
X012364Y019321D02*
X013027Y019321D01*
X012986Y019163D02*
X012364Y019163D01*
X012364Y019004D02*
X012931Y019004D01*
X012773Y018846D02*
X012364Y018846D01*
X012364Y018687D02*
X012719Y018687D01*
X012719Y018529D02*
X012364Y018529D01*
X012364Y018370D02*
X012719Y018370D01*
X012719Y018212D02*
X012364Y018212D01*
X012599Y018053D02*
X012719Y018053D01*
X013443Y017546D02*
X013460Y017546D01*
X013460Y017108D01*
X013487Y017108D01*
X013556Y017119D01*
X013623Y017141D01*
X013625Y017142D01*
X013625Y016490D01*
X013623Y016491D01*
X013556Y016513D01*
X013487Y016524D01*
X013460Y016524D01*
X013460Y016086D01*
X013443Y016086D01*
X013443Y016524D01*
X013417Y016524D01*
X013347Y016513D01*
X013281Y016491D01*
X013279Y016490D01*
X013279Y017142D01*
X013281Y017141D01*
X013347Y017119D01*
X013417Y017108D01*
X013443Y017108D01*
X013443Y017546D01*
X013452Y017554D02*
X013452Y016078D01*
X013443Y016151D02*
X013460Y016151D01*
X013443Y016310D02*
X013460Y016310D01*
X013443Y016468D02*
X013460Y016468D01*
X013625Y016627D02*
X013279Y016627D01*
X013279Y016785D02*
X013625Y016785D01*
X013625Y016944D02*
X013279Y016944D01*
X013279Y017102D02*
X013625Y017102D01*
X013460Y017261D02*
X013443Y017261D01*
X013443Y017419D02*
X013460Y017419D01*
X014185Y018053D02*
X014305Y018053D01*
X014185Y018212D02*
X015672Y018212D01*
X015672Y018370D02*
X014185Y018370D01*
X014185Y018529D02*
X015672Y018529D01*
X015672Y018687D02*
X014185Y018687D01*
X014185Y018846D02*
X015726Y018846D01*
X015884Y019004D02*
X014185Y019004D01*
X014185Y019163D02*
X015939Y019163D01*
X015980Y019321D02*
X014185Y019321D01*
X014838Y019638D02*
X015018Y019638D01*
X015952Y018676D02*
X016405Y019129D01*
X015952Y018676D02*
X015952Y014956D01*
X016405Y014503D01*
X015939Y014566D02*
X014185Y014566D01*
X014185Y014408D02*
X015940Y014408D01*
X015939Y014410D02*
X016010Y014239D01*
X016140Y014109D01*
X016010Y013979D01*
X015943Y013818D01*
X015879Y013973D01*
X015698Y014154D01*
X015462Y014252D01*
X015206Y014252D01*
X014969Y014154D01*
X014928Y014113D01*
X014887Y014154D01*
X014651Y014252D01*
X014395Y014252D01*
X014185Y014165D01*
X014185Y015809D01*
X014395Y015722D01*
X014651Y015722D01*
X014887Y015820D01*
X014928Y015861D01*
X014969Y015820D01*
X015206Y015722D01*
X015462Y015722D01*
X015672Y015809D01*
X015672Y014900D01*
X015714Y014797D01*
X015793Y014718D01*
X015939Y014573D01*
X015939Y014410D01*
X016005Y014249D02*
X015468Y014249D01*
X015199Y014249D02*
X014657Y014249D01*
X014388Y014249D02*
X014185Y014249D01*
X014185Y014725D02*
X015787Y014725D01*
X015679Y014883D02*
X014185Y014883D01*
X014185Y015042D02*
X015672Y015042D01*
X015672Y015200D02*
X014185Y015200D01*
X014185Y015359D02*
X015672Y015359D01*
X015672Y015517D02*
X014185Y015517D01*
X014185Y015676D02*
X015672Y015676D01*
X014955Y015834D02*
X014901Y015834D01*
X014928Y016869D02*
X014891Y016906D01*
X014928Y016944D01*
X014928Y016944D01*
X014966Y016906D01*
X014928Y016869D01*
X016232Y016944D02*
X016577Y016944D01*
X016577Y017102D02*
X016232Y017102D01*
X016233Y017141D02*
X016232Y017142D01*
X016232Y016490D01*
X016233Y016491D01*
X016300Y016513D01*
X016369Y016524D01*
X016396Y016524D01*
X016396Y016086D01*
X016413Y016086D01*
X016413Y016524D01*
X016440Y016524D01*
X016509Y016513D01*
X016576Y016491D01*
X016577Y016490D01*
X016577Y017142D01*
X016576Y017141D01*
X016509Y017119D01*
X016440Y017108D01*
X016413Y017108D01*
X016413Y017546D01*
X016396Y017546D01*
X016396Y017108D01*
X016369Y017108D01*
X016300Y017119D01*
X016233Y017141D01*
X016396Y017261D02*
X016413Y017261D01*
X016396Y017419D02*
X016413Y017419D01*
X016405Y017554D02*
X016405Y016078D01*
X016396Y016151D02*
X016413Y016151D01*
X016396Y016310D02*
X016413Y016310D01*
X016396Y016468D02*
X016413Y016468D01*
X016577Y016627D02*
X016232Y016627D01*
X016232Y016785D02*
X016577Y016785D01*
X017843Y016906D02*
X017881Y016944D01*
X017881Y016944D01*
X017919Y016906D01*
X017881Y016869D01*
X017843Y016906D01*
X017881Y015861D02*
X017922Y015820D01*
X018159Y015722D01*
X018414Y015722D01*
X018625Y015809D01*
X018625Y014900D01*
X018667Y014797D01*
X018892Y014573D01*
X018892Y014410D01*
X018962Y014239D01*
X019092Y014109D01*
X018962Y013979D01*
X018896Y013818D01*
X018831Y013973D01*
X018651Y014154D01*
X018414Y014252D01*
X018159Y014252D01*
X017922Y014154D01*
X017881Y014113D01*
X017840Y014154D01*
X017603Y014252D01*
X017348Y014252D01*
X017137Y014165D01*
X017137Y015809D01*
X017348Y015722D01*
X017603Y015722D01*
X017840Y015820D01*
X017881Y015861D01*
X017854Y015834D02*
X017908Y015834D01*
X018625Y015676D02*
X017137Y015676D01*
X017137Y015517D02*
X018625Y015517D01*
X018625Y015359D02*
X017137Y015359D01*
X017137Y015200D02*
X018625Y015200D01*
X018625Y015042D02*
X017137Y015042D01*
X017137Y014883D02*
X018631Y014883D01*
X018739Y014725D02*
X017137Y014725D01*
X017137Y014566D02*
X018892Y014566D01*
X018893Y014408D02*
X017137Y014408D01*
X017137Y014249D02*
X017341Y014249D01*
X017610Y014249D02*
X018152Y014249D01*
X018421Y014249D02*
X018958Y014249D01*
X019074Y014091D02*
X018714Y014091D01*
X018848Y013932D02*
X018943Y013932D01*
X018929Y013532D02*
X018962Y013452D01*
X019093Y013321D01*
X019265Y013250D01*
X019450Y013250D01*
X019621Y013321D01*
X019752Y013452D01*
X019785Y013532D01*
X019785Y013481D01*
X019883Y013245D01*
X019898Y013230D01*
X018817Y013230D01*
X018831Y013245D01*
X018929Y013481D01*
X018929Y013532D01*
X018919Y013457D02*
X018960Y013457D01*
X018854Y013298D02*
X019147Y013298D01*
X019567Y013298D02*
X019861Y013298D01*
X019795Y013457D02*
X019754Y013457D01*
X019357Y013716D02*
X019810Y014168D01*
X019810Y019464D01*
X019357Y019916D01*
X018933Y019321D02*
X017137Y019321D01*
X017137Y019163D02*
X018892Y019163D01*
X018837Y019004D02*
X017137Y019004D01*
X017137Y018846D02*
X018678Y018846D01*
X018746Y018914D02*
X018746Y018914D01*
X018625Y018687D02*
X017137Y018687D01*
X017137Y018529D02*
X018625Y018529D01*
X018625Y018370D02*
X017137Y018370D01*
X017137Y018212D02*
X018625Y018212D01*
X018625Y018053D02*
X018504Y018053D01*
X018069Y018053D02*
X017693Y018053D01*
X017258Y018053D02*
X017137Y018053D01*
X015672Y018053D02*
X015552Y018053D01*
X015116Y018053D02*
X014740Y018053D01*
X013452Y019129D02*
X012999Y018676D01*
X012999Y014956D01*
X013452Y014503D01*
X011744Y014465D02*
X011744Y013752D01*
X011738Y013737D01*
X011738Y013481D01*
X011744Y013467D01*
X011744Y013226D01*
X011651Y013320D01*
X011414Y013418D01*
X011364Y013418D01*
X011444Y013451D01*
X011575Y013582D01*
X011646Y013753D01*
X011646Y013938D01*
X011575Y014109D01*
X011444Y014240D01*
X011364Y014273D01*
X011414Y014273D01*
X011651Y014371D01*
X011744Y014465D01*
X011744Y014408D02*
X011687Y014408D01*
X011744Y014249D02*
X011422Y014249D01*
X011583Y014091D02*
X011744Y014091D01*
X011744Y013932D02*
X011646Y013932D01*
X011646Y013774D02*
X011744Y013774D01*
X011738Y013615D02*
X011589Y013615D01*
X011450Y013457D02*
X011744Y013457D01*
X011744Y013298D02*
X011672Y013298D01*
X011077Y013384D02*
X010922Y013320D01*
X010741Y013139D01*
X010644Y012902D01*
X010644Y012647D01*
X010741Y012410D01*
X010783Y012369D01*
X010741Y012328D01*
X010644Y012091D01*
X010644Y011836D01*
X010731Y011625D01*
X009086Y011625D01*
X009173Y011836D01*
X009173Y012091D01*
X009076Y012328D01*
X009034Y012369D01*
X009076Y012410D01*
X009173Y012647D01*
X009173Y012902D01*
X009086Y013113D01*
X009996Y013113D01*
X010099Y013155D01*
X010177Y013234D01*
X010323Y013380D01*
X010485Y013380D01*
X010657Y013451D01*
X010786Y013581D01*
X010916Y013451D01*
X011077Y013384D01*
X010910Y013457D02*
X010663Y013457D01*
X010901Y013298D02*
X010242Y013298D01*
X010061Y013140D02*
X010743Y013140D01*
X010676Y012981D02*
X009141Y012981D01*
X009173Y012823D02*
X010644Y012823D01*
X010644Y012664D02*
X009173Y012664D01*
X009115Y012506D02*
X010702Y012506D01*
X010761Y012347D02*
X009056Y012347D01*
X009133Y012189D02*
X010684Y012189D01*
X010644Y012030D02*
X009173Y012030D01*
X009173Y011872D02*
X010644Y011872D01*
X010694Y011713D02*
X009123Y011713D01*
X008406Y011065D02*
X007754Y011065D01*
X007755Y011064D01*
X007776Y010997D01*
X007787Y010928D01*
X007787Y010901D01*
X007350Y010901D01*
X007350Y010884D01*
X007787Y010884D01*
X007787Y010858D01*
X007776Y010788D01*
X007755Y010722D01*
X007754Y010720D01*
X008406Y010720D01*
X008405Y010722D01*
X008383Y010788D01*
X008372Y010858D01*
X008372Y010884D01*
X008809Y010884D01*
X008809Y010901D01*
X008372Y010901D01*
X008372Y010928D01*
X008383Y010997D01*
X008405Y011064D01*
X008406Y011065D01*
X008372Y010921D02*
X007787Y010921D01*
X007768Y010762D02*
X008392Y010762D01*
X008818Y010893D02*
X007342Y010893D01*
X006892Y011625D02*
X005376Y011625D01*
X005273Y011583D01*
X005049Y011358D01*
X004911Y011358D01*
X005056Y011419D01*
X005237Y011599D01*
X005335Y011836D01*
X005335Y012091D01*
X005237Y012328D01*
X005196Y012369D01*
X005237Y012410D01*
X005335Y012647D01*
X005335Y012902D01*
X005237Y013139D01*
X005056Y013320D01*
X004911Y013380D01*
X005072Y013380D01*
X005243Y013451D01*
X005373Y013581D01*
X005503Y013451D01*
X005674Y013380D01*
X005837Y013380D01*
X006061Y013155D01*
X006164Y013113D01*
X006892Y013113D01*
X006805Y012902D01*
X006805Y012647D01*
X006903Y012410D01*
X006944Y012369D01*
X006903Y012328D01*
X006805Y012091D01*
X006805Y011836D01*
X006892Y011625D01*
X006856Y011713D02*
X005284Y011713D01*
X005246Y011555D02*
X005193Y011555D01*
X005087Y011396D02*
X005003Y011396D01*
X004795Y011321D02*
X004716Y011288D01*
X004584Y011157D01*
X004514Y010985D01*
X004514Y010800D01*
X004584Y010629D01*
X004716Y010498D01*
X004795Y010465D01*
X004564Y010465D01*
X004328Y010367D01*
X004147Y010186D01*
X004049Y009950D01*
X004049Y009694D01*
X004147Y009458D01*
X004188Y009416D01*
X004147Y009375D01*
X004049Y009139D01*
X004049Y008883D01*
X004147Y008647D01*
X004328Y008466D01*
X004564Y008368D01*
X004795Y008368D01*
X004716Y008335D01*
X004584Y008204D01*
X004514Y008033D01*
X004514Y007847D01*
X004584Y007676D01*
X004716Y007545D01*
X004795Y007512D01*
X004564Y007512D01*
X004328Y007414D01*
X004147Y007233D01*
X004049Y006997D01*
X004049Y006741D01*
X004147Y006505D01*
X004188Y006464D01*
X004147Y006422D01*
X004049Y006186D01*
X004049Y005930D01*
X004147Y005694D01*
X004328Y005513D01*
X004564Y005415D01*
X004795Y005415D01*
X004716Y005382D01*
X004584Y005251D01*
X004514Y005080D01*
X004514Y004895D01*
X004584Y004723D01*
X004716Y004592D01*
X004795Y004559D01*
X004564Y004559D01*
X004328Y004461D01*
X004147Y004281D01*
X004049Y004044D01*
X004049Y003788D01*
X004052Y003781D01*
X003703Y003781D01*
X003703Y015051D01*
X004052Y015051D01*
X004049Y015044D01*
X004049Y014788D01*
X004147Y014552D01*
X004328Y014371D01*
X004564Y014273D01*
X004795Y014273D01*
X004716Y014240D01*
X004584Y014109D01*
X004514Y013938D01*
X004514Y013753D01*
X004584Y013582D01*
X004716Y013451D01*
X004795Y013418D01*
X004564Y013418D01*
X004328Y013320D01*
X004147Y013139D01*
X004049Y012902D01*
X004049Y012647D01*
X004147Y012410D01*
X004188Y012369D01*
X004147Y012328D01*
X004049Y012091D01*
X004049Y011836D01*
X004147Y011599D01*
X004328Y011419D01*
X004564Y011321D01*
X004795Y011321D01*
X004666Y011238D02*
X003703Y011238D01*
X003703Y011396D02*
X004381Y011396D01*
X004191Y011555D02*
X003703Y011555D01*
X003703Y011713D02*
X004100Y011713D01*
X004049Y011872D02*
X003703Y011872D01*
X003703Y012030D02*
X004049Y012030D01*
X004089Y012189D02*
X003703Y012189D01*
X003703Y012347D02*
X004167Y012347D01*
X004107Y012506D02*
X003703Y012506D01*
X003703Y012664D02*
X004049Y012664D01*
X004049Y012823D02*
X003703Y012823D01*
X003703Y012981D02*
X004082Y012981D01*
X004148Y013140D02*
X003703Y013140D01*
X003703Y013298D02*
X004307Y013298D01*
X004570Y013615D02*
X003703Y013615D01*
X003703Y013457D02*
X004709Y013457D01*
X004514Y013774D02*
X003703Y013774D01*
X003703Y013932D02*
X004514Y013932D01*
X004577Y014091D02*
X003703Y014091D01*
X003703Y014249D02*
X004738Y014249D01*
X004911Y014311D02*
X005049Y014311D01*
X005313Y014575D01*
X005416Y014618D01*
X006876Y014618D01*
X006805Y014788D01*
X006805Y015044D01*
X006808Y015051D01*
X005332Y015051D01*
X005335Y015044D01*
X005335Y014788D01*
X005237Y014552D01*
X005056Y014371D01*
X004911Y014311D01*
X005093Y014408D02*
X005146Y014408D01*
X005243Y014566D02*
X005304Y014566D01*
X005309Y014725D02*
X006831Y014725D01*
X006805Y014883D02*
X005335Y014883D01*
X005335Y015042D02*
X006805Y015042D01*
X007734Y014058D02*
X008426Y014058D01*
X008405Y014017D01*
X008383Y013950D01*
X008372Y013881D01*
X008372Y013854D01*
X008809Y013854D01*
X008809Y013837D01*
X008372Y013837D01*
X008372Y013810D01*
X008383Y013741D01*
X008405Y013674D01*
X008406Y013673D01*
X007754Y013673D01*
X007755Y013674D01*
X007776Y013741D01*
X007787Y013810D01*
X007787Y013837D01*
X007350Y013837D01*
X007350Y013854D01*
X007787Y013854D01*
X007787Y013881D01*
X007776Y013950D01*
X007755Y014017D01*
X007734Y014058D01*
X007779Y013932D02*
X008380Y013932D01*
X008378Y013774D02*
X007782Y013774D01*
X007342Y013845D02*
X008818Y013845D01*
X009103Y014618D02*
X009173Y014788D01*
X009173Y015044D01*
X009171Y015051D01*
X010646Y015051D01*
X010644Y015044D01*
X010644Y014788D01*
X010714Y014618D01*
X009103Y014618D01*
X009147Y014725D02*
X010670Y014725D01*
X010644Y014883D02*
X009173Y014883D01*
X009173Y015042D02*
X010644Y015042D01*
X010688Y014338D02*
X005471Y014338D01*
X004979Y013845D01*
X005249Y013457D02*
X005497Y013457D01*
X005077Y013298D02*
X005918Y013298D01*
X006098Y013140D02*
X005236Y013140D01*
X005302Y012981D02*
X006838Y012981D01*
X006805Y012823D02*
X005335Y012823D01*
X005335Y012664D02*
X006805Y012664D01*
X006863Y012506D02*
X005277Y012506D01*
X005217Y012347D02*
X006923Y012347D01*
X006845Y012189D02*
X005294Y012189D01*
X005335Y012030D02*
X006805Y012030D01*
X006805Y011872D02*
X005335Y011872D01*
X005432Y011345D02*
X004979Y010893D01*
X004553Y011079D02*
X003703Y011079D01*
X003703Y010921D02*
X004514Y010921D01*
X004529Y010762D02*
X003703Y010762D01*
X003703Y010604D02*
X004609Y010604D01*
X004517Y010445D02*
X003703Y010445D01*
X003703Y010287D02*
X004248Y010287D01*
X004123Y010128D02*
X003703Y010128D01*
X003703Y009970D02*
X004057Y009970D01*
X004049Y009811D02*
X003703Y009811D01*
X003703Y009653D02*
X004066Y009653D01*
X004132Y009494D02*
X003703Y009494D01*
X003703Y009336D02*
X004131Y009336D01*
X004065Y009177D02*
X003703Y009177D01*
X003703Y009019D02*
X004049Y009019D01*
X004058Y008860D02*
X003703Y008860D01*
X003703Y008702D02*
X004124Y008702D01*
X004250Y008543D02*
X003703Y008543D01*
X003703Y008385D02*
X004523Y008385D01*
X004607Y008226D02*
X003703Y008226D01*
X003703Y008068D02*
X004528Y008068D01*
X004514Y007909D02*
X003703Y007909D01*
X003703Y007751D02*
X004553Y007751D01*
X004668Y007592D02*
X003703Y007592D01*
X003703Y007434D02*
X004376Y007434D01*
X004189Y007275D02*
X003703Y007275D01*
X003703Y007117D02*
X004099Y007117D01*
X004049Y006958D02*
X003703Y006958D01*
X003703Y006800D02*
X004049Y006800D01*
X004090Y006641D02*
X003703Y006641D01*
X003703Y006483D02*
X004169Y006483D01*
X004106Y006324D02*
X003703Y006324D01*
X003703Y006166D02*
X004049Y006166D01*
X004049Y006007D02*
X003703Y006007D01*
X003703Y005849D02*
X004083Y005849D01*
X004150Y005690D02*
X003703Y005690D01*
X003703Y005532D02*
X004309Y005532D01*
X004707Y005373D02*
X003703Y005373D01*
X003703Y005215D02*
X004570Y005215D01*
X004514Y005056D02*
X003703Y005056D01*
X003703Y004898D02*
X004514Y004898D01*
X004578Y004739D02*
X003703Y004739D01*
X003703Y004581D02*
X004743Y004581D01*
X004911Y004521D02*
X005056Y004461D01*
X005237Y004281D01*
X005335Y004044D01*
X005335Y003788D01*
X005332Y003781D01*
X006808Y003781D01*
X006805Y003788D01*
X006805Y004044D01*
X006892Y004254D01*
X006164Y004254D01*
X006061Y004297D01*
X005836Y004521D01*
X005674Y004521D01*
X005503Y004592D01*
X005373Y004722D01*
X005243Y004592D01*
X005072Y004521D01*
X004911Y004521D01*
X005095Y004422D02*
X005935Y004422D01*
X006141Y004264D02*
X005244Y004264D01*
X005309Y004105D02*
X006830Y004105D01*
X006805Y003947D02*
X005335Y003947D01*
X005335Y003788D02*
X006805Y003788D01*
X006219Y004534D02*
X005767Y004987D01*
X005432Y005440D02*
X010727Y005440D01*
X011180Y004987D01*
X011364Y005415D02*
X011414Y005415D01*
X011651Y005513D01*
X011744Y005607D01*
X011744Y004368D01*
X011651Y004461D01*
X011414Y004559D01*
X011364Y004559D01*
X011444Y004592D01*
X011575Y004723D01*
X011646Y004895D01*
X011646Y005080D01*
X011575Y005251D01*
X011444Y005382D01*
X011364Y005415D01*
X011453Y005373D02*
X011744Y005373D01*
X011744Y005215D02*
X011590Y005215D01*
X011646Y005056D02*
X011744Y005056D01*
X011744Y004898D02*
X011646Y004898D01*
X011582Y004739D02*
X011744Y004739D01*
X011744Y004581D02*
X011416Y004581D01*
X011690Y004422D02*
X011744Y004422D01*
X011077Y004526D02*
X010922Y004461D01*
X010741Y004281D01*
X010644Y004044D01*
X010644Y003788D01*
X010646Y003781D01*
X009171Y003781D01*
X009173Y003788D01*
X009173Y004044D01*
X009086Y004254D01*
X009996Y004254D01*
X010099Y004297D01*
X010177Y004376D01*
X010323Y004521D01*
X010485Y004521D01*
X010657Y004592D01*
X010786Y004722D01*
X010916Y004592D01*
X011077Y004526D01*
X010944Y004581D02*
X010629Y004581D01*
X010883Y004422D02*
X010224Y004422D01*
X010019Y004264D02*
X010735Y004264D01*
X010669Y004105D02*
X009148Y004105D01*
X009173Y003947D02*
X010644Y003947D01*
X010644Y003788D02*
X009173Y003788D01*
X009940Y004534D02*
X006219Y004534D01*
X005530Y004581D02*
X005216Y004581D01*
X004979Y004987D02*
X005432Y005440D01*
X005305Y005690D02*
X005234Y005690D01*
X005237Y005694D02*
X005335Y005930D01*
X005335Y006186D01*
X005237Y006422D01*
X005196Y006464D01*
X005237Y006505D01*
X005335Y006741D01*
X005335Y006997D01*
X005237Y007233D01*
X005056Y007414D01*
X004911Y007474D01*
X005072Y007474D01*
X005243Y007545D01*
X005373Y007675D01*
X005503Y007545D01*
X005674Y007474D01*
X005836Y007474D01*
X006061Y007250D01*
X006164Y007207D01*
X006892Y007207D01*
X006805Y006997D01*
X006805Y006741D01*
X006903Y006505D01*
X006944Y006464D01*
X006903Y006422D01*
X006805Y006186D01*
X006805Y005930D01*
X006892Y005720D01*
X005376Y005720D01*
X005273Y005677D01*
X005195Y005599D01*
X005049Y005453D01*
X004911Y005453D01*
X005056Y005513D01*
X005237Y005694D01*
X005301Y005849D02*
X006839Y005849D01*
X006805Y006007D02*
X005335Y006007D01*
X005335Y006166D02*
X006805Y006166D01*
X006862Y006324D02*
X005277Y006324D01*
X005215Y006483D02*
X006925Y006483D01*
X006846Y006641D02*
X005294Y006641D01*
X005335Y006800D02*
X006805Y006800D01*
X006805Y006958D02*
X005335Y006958D01*
X005285Y007117D02*
X006855Y007117D01*
X006219Y007487D02*
X005767Y007940D01*
X005456Y007592D02*
X005290Y007592D01*
X005008Y007434D02*
X005877Y007434D01*
X006035Y007275D02*
X005195Y007275D01*
X004979Y007940D02*
X005432Y008393D01*
X010727Y008393D01*
X011180Y007940D01*
X011364Y007512D02*
X011444Y007545D01*
X011575Y007676D01*
X011646Y007847D01*
X011646Y008033D01*
X011575Y008204D01*
X011444Y008335D01*
X011364Y008368D01*
X011414Y008368D01*
X011651Y008466D01*
X011744Y008559D01*
X011744Y007321D01*
X011651Y007414D01*
X011414Y007512D01*
X011364Y007512D01*
X011491Y007592D02*
X011744Y007592D01*
X011744Y007434D02*
X011603Y007434D01*
X011077Y007478D02*
X010922Y007414D01*
X010741Y007233D01*
X010644Y006997D01*
X010644Y006741D01*
X010741Y006505D01*
X010783Y006464D01*
X010741Y006422D01*
X010644Y006186D01*
X010644Y005930D01*
X010731Y005720D01*
X009086Y005720D01*
X009173Y005930D01*
X009173Y006186D01*
X009076Y006422D01*
X009034Y006464D01*
X009076Y006505D01*
X009173Y006741D01*
X009173Y006997D01*
X009086Y007207D01*
X009996Y007207D01*
X010099Y007250D01*
X010177Y007329D01*
X010323Y007474D01*
X010485Y007474D01*
X010657Y007545D01*
X010786Y007675D01*
X010916Y007545D01*
X011077Y007478D01*
X010970Y007434D02*
X010283Y007434D01*
X010124Y007275D02*
X010784Y007275D01*
X010693Y007117D02*
X009124Y007117D01*
X009173Y006958D02*
X010644Y006958D01*
X010644Y006800D02*
X009173Y006800D01*
X009132Y006641D02*
X010685Y006641D01*
X010763Y006483D02*
X009054Y006483D01*
X009116Y006324D02*
X010701Y006324D01*
X010644Y006166D02*
X009173Y006166D01*
X009173Y006007D02*
X010644Y006007D01*
X010677Y005849D02*
X009140Y005849D01*
X008809Y004996D02*
X008372Y004996D01*
X008372Y005022D01*
X008383Y005092D01*
X008405Y005158D01*
X008406Y005160D01*
X007754Y005160D01*
X007755Y005158D01*
X007776Y005092D01*
X007787Y005022D01*
X007787Y004996D01*
X007350Y004996D01*
X007350Y004979D01*
X007787Y004979D01*
X007787Y004952D01*
X007776Y004883D01*
X007755Y004816D01*
X007754Y004814D01*
X008406Y004814D01*
X008405Y004816D01*
X008383Y004883D01*
X008372Y004952D01*
X008372Y004979D01*
X008809Y004979D01*
X008809Y004996D01*
X008818Y004987D02*
X007342Y004987D01*
X007782Y005056D02*
X008378Y005056D01*
X008381Y004898D02*
X007779Y004898D01*
X007989Y006426D02*
X007952Y006464D01*
X007989Y006501D01*
X008027Y006464D01*
X007989Y006426D01*
X007971Y006483D02*
X008007Y006483D01*
X006219Y007487D02*
X009940Y007487D01*
X010393Y007940D01*
X010704Y007592D02*
X010869Y007592D01*
X011606Y007751D02*
X011744Y007751D01*
X011744Y007909D02*
X011646Y007909D01*
X011631Y008068D02*
X011744Y008068D01*
X011744Y008226D02*
X011552Y008226D01*
X011455Y008385D02*
X011744Y008385D01*
X011728Y008543D02*
X011744Y008543D01*
X012364Y009173D02*
X012364Y010644D01*
X012548Y010644D01*
X012719Y010714D01*
X012719Y009103D01*
X012548Y009173D01*
X012364Y009173D01*
X012364Y009177D02*
X012719Y009177D01*
X012719Y009336D02*
X012364Y009336D01*
X012364Y009494D02*
X012719Y009494D01*
X012719Y009653D02*
X012364Y009653D01*
X012364Y009811D02*
X012719Y009811D01*
X012719Y009970D02*
X012364Y009970D01*
X012364Y010128D02*
X012719Y010128D01*
X012719Y010287D02*
X012364Y010287D01*
X012364Y010445D02*
X012719Y010445D01*
X012719Y010604D02*
X012364Y010604D01*
X011744Y010604D02*
X011550Y010604D01*
X011575Y010629D02*
X011646Y010800D01*
X011646Y010985D01*
X011575Y011157D01*
X011444Y011288D01*
X011364Y011321D01*
X011414Y011321D01*
X011651Y011419D01*
X011744Y011512D01*
X011744Y010273D01*
X011651Y010367D01*
X011414Y010465D01*
X011364Y010465D01*
X011444Y010498D01*
X011575Y010629D01*
X011630Y010762D02*
X011744Y010762D01*
X011744Y010921D02*
X011646Y010921D01*
X011607Y011079D02*
X011744Y011079D01*
X011744Y011238D02*
X011494Y011238D01*
X011597Y011396D02*
X011744Y011396D01*
X012054Y011897D02*
X012054Y012920D01*
X011180Y013845D02*
X010688Y014338D01*
X010393Y013845D02*
X009940Y013393D01*
X006219Y013393D01*
X005767Y013845D01*
X004291Y014408D02*
X003703Y014408D01*
X003703Y014566D02*
X004141Y014566D01*
X004075Y014725D02*
X003703Y014725D01*
X003703Y014883D02*
X004049Y014883D01*
X004049Y015042D02*
X003703Y015042D01*
X007952Y012369D02*
X007989Y012407D01*
X008027Y012369D01*
X007989Y012331D01*
X007952Y012369D01*
X007973Y012347D02*
X008005Y012347D01*
X006219Y010440D02*
X005767Y010893D01*
X005397Y010604D02*
X005349Y010604D01*
X005373Y010628D02*
X005503Y010498D01*
X005674Y010427D01*
X005836Y010427D01*
X005982Y010281D01*
X006061Y010203D01*
X006164Y010160D01*
X006892Y010160D01*
X006805Y009950D01*
X006805Y009694D01*
X006903Y009458D01*
X006944Y009416D01*
X006903Y009375D01*
X006805Y009139D01*
X006805Y008883D01*
X006892Y008673D01*
X005376Y008673D01*
X005273Y008630D01*
X005195Y008551D01*
X005049Y008406D01*
X004911Y008406D01*
X005056Y008466D01*
X005237Y008647D01*
X005335Y008883D01*
X005335Y009139D01*
X005237Y009375D01*
X005196Y009416D01*
X005237Y009458D01*
X005335Y009694D01*
X005335Y009950D01*
X005237Y010186D01*
X005056Y010367D01*
X004911Y010427D01*
X005072Y010427D01*
X005243Y010498D01*
X005373Y010628D01*
X005117Y010445D02*
X005629Y010445D01*
X005977Y010287D02*
X005136Y010287D01*
X005261Y010128D02*
X006879Y010128D01*
X006813Y009970D02*
X005326Y009970D01*
X005335Y009811D02*
X006805Y009811D01*
X006822Y009653D02*
X005318Y009653D01*
X005252Y009494D02*
X006888Y009494D01*
X006887Y009336D02*
X005253Y009336D01*
X005319Y009177D02*
X006821Y009177D01*
X006805Y009019D02*
X005335Y009019D01*
X005326Y008860D02*
X006814Y008860D01*
X006880Y008702D02*
X005260Y008702D01*
X005187Y008543D02*
X005134Y008543D01*
X007342Y007940D02*
X008818Y007940D01*
X008809Y007949D02*
X008809Y007931D01*
X008372Y007931D01*
X008372Y007905D01*
X008383Y007836D01*
X008405Y007769D01*
X008406Y007767D01*
X007754Y007767D01*
X007755Y007769D01*
X007776Y007836D01*
X007787Y007905D01*
X007787Y007931D01*
X007350Y007931D01*
X007350Y007949D01*
X007787Y007949D01*
X007787Y007975D01*
X007776Y008044D01*
X007755Y008111D01*
X007754Y008113D01*
X008406Y008113D01*
X008405Y008111D01*
X008383Y008044D01*
X008372Y007975D01*
X008372Y007949D01*
X008809Y007949D01*
X008391Y008068D02*
X007769Y008068D01*
X007787Y007909D02*
X008372Y007909D01*
X009086Y008673D02*
X009173Y008883D01*
X009173Y009139D01*
X009076Y009375D01*
X009034Y009416D01*
X009076Y009458D01*
X009173Y009694D01*
X009173Y009950D01*
X009086Y010160D01*
X009996Y010160D01*
X010099Y010203D01*
X010323Y010427D01*
X010485Y010427D01*
X010657Y010498D01*
X010786Y010628D01*
X010916Y010498D01*
X011077Y010431D01*
X010922Y010367D01*
X010741Y010186D01*
X010644Y009950D01*
X010644Y009694D01*
X010741Y009458D01*
X010783Y009416D01*
X010741Y009375D01*
X010644Y009139D01*
X010644Y008883D01*
X010731Y008673D01*
X009086Y008673D01*
X009098Y008702D02*
X010718Y008702D01*
X010653Y008860D02*
X009164Y008860D01*
X009173Y009019D02*
X010644Y009019D01*
X010660Y009177D02*
X009157Y009177D01*
X009092Y009336D02*
X010725Y009336D01*
X010726Y009494D02*
X009091Y009494D01*
X009156Y009653D02*
X010660Y009653D01*
X010644Y009811D02*
X009173Y009811D01*
X009165Y009970D02*
X010652Y009970D01*
X010718Y010128D02*
X009099Y010128D01*
X009940Y010440D02*
X010393Y010893D01*
X010763Y010604D02*
X010810Y010604D01*
X011043Y010445D02*
X010530Y010445D01*
X010842Y010287D02*
X010183Y010287D01*
X009940Y010440D02*
X006219Y010440D01*
X005432Y011345D02*
X010727Y011345D01*
X011180Y010893D01*
X011461Y010445D02*
X011744Y010445D01*
X011731Y010287D02*
X011744Y010287D01*
X013491Y010393D02*
X013944Y009940D01*
X013944Y006219D01*
X013491Y005767D01*
X014948Y005215D02*
X014987Y005215D01*
X015854Y004264D02*
X017034Y004264D01*
X017251Y004105D02*
X015637Y004105D01*
X015109Y004105D02*
X014826Y004105D01*
X016851Y005532D02*
X018664Y005532D01*
X018664Y005690D02*
X016910Y005690D01*
X016922Y005849D02*
X018664Y005849D01*
X018664Y006007D02*
X017081Y006007D01*
X017177Y006166D02*
X018664Y006166D01*
X018664Y006324D02*
X017177Y006324D01*
X017177Y006483D02*
X018664Y006483D01*
X018664Y006641D02*
X017177Y006641D01*
X017177Y006800D02*
X018664Y006800D01*
X019388Y007350D02*
X019388Y007787D01*
X019362Y007787D01*
X019292Y007776D01*
X019226Y007755D01*
X019224Y007754D01*
X019224Y008406D01*
X019226Y008405D01*
X019292Y008383D01*
X019362Y008372D01*
X019388Y008372D01*
X019388Y008809D01*
X019405Y008809D01*
X019405Y008372D01*
X019432Y008372D01*
X019501Y008383D01*
X019568Y008405D01*
X019569Y008406D01*
X019569Y007754D01*
X019568Y007755D01*
X019501Y007776D01*
X019432Y007787D01*
X019405Y007787D01*
X019405Y007350D01*
X019388Y007350D01*
X019397Y007342D02*
X019397Y008818D01*
X019388Y008702D02*
X019405Y008702D01*
X019388Y008543D02*
X019405Y008543D01*
X019388Y008385D02*
X019405Y008385D01*
X019507Y008385D02*
X019569Y008385D01*
X019569Y008226D02*
X019224Y008226D01*
X019224Y008068D02*
X019569Y008068D01*
X019569Y007909D02*
X019224Y007909D01*
X019388Y007751D02*
X019405Y007751D01*
X019388Y007592D02*
X019405Y007592D01*
X019388Y007434D02*
X019405Y007434D01*
X020129Y006800D02*
X021617Y006800D01*
X021617Y006641D02*
X020129Y006641D01*
X020129Y006483D02*
X021617Y006483D01*
X021617Y006324D02*
X020129Y006324D01*
X020129Y006166D02*
X021617Y006166D01*
X021617Y006007D02*
X020033Y006007D01*
X019875Y005849D02*
X021617Y005849D01*
X021617Y005690D02*
X019862Y005690D01*
X019804Y005532D02*
X021617Y005532D01*
X021897Y005432D02*
X021897Y010727D01*
X022349Y011180D01*
X021921Y011364D02*
X021955Y011444D01*
X022086Y011575D01*
X022114Y011587D01*
X021850Y011587D01*
X021921Y011414D01*
X021921Y011364D01*
X021921Y011396D02*
X021935Y011396D01*
X021863Y011555D02*
X022066Y011555D01*
X022585Y011587D02*
X022849Y011587D01*
X022777Y011414D01*
X022777Y011364D01*
X022744Y011444D01*
X022613Y011575D01*
X022585Y011587D01*
X022633Y011555D02*
X022836Y011555D01*
X022777Y011396D02*
X022764Y011396D01*
X022811Y011077D02*
X022875Y010922D01*
X023056Y010741D01*
X023292Y010644D01*
X023398Y010644D01*
X023398Y009173D01*
X023292Y009173D01*
X023082Y009086D01*
X023082Y009996D01*
X023040Y010099D01*
X022961Y010177D01*
X022815Y010323D01*
X022815Y010485D01*
X022744Y010657D01*
X022614Y010786D01*
X022744Y010916D01*
X022811Y011077D01*
X022746Y010921D02*
X022877Y010921D01*
X023035Y010762D02*
X022638Y010762D01*
X022766Y010604D02*
X023398Y010604D01*
X023398Y010445D02*
X022815Y010445D01*
X022851Y010287D02*
X023398Y010287D01*
X023398Y010128D02*
X023010Y010128D01*
X023082Y009970D02*
X023398Y009970D01*
X023398Y009811D02*
X023082Y009811D01*
X023082Y009653D02*
X023398Y009653D01*
X023398Y009494D02*
X023082Y009494D01*
X023082Y009336D02*
X023398Y009336D01*
X023398Y009177D02*
X023082Y009177D01*
X022358Y008809D02*
X022358Y008372D01*
X022384Y008372D01*
X022454Y008383D01*
X022521Y008405D01*
X022522Y008406D01*
X022522Y007754D01*
X022521Y007755D01*
X022454Y007776D01*
X022384Y007787D01*
X022358Y007787D01*
X022358Y007350D01*
X022341Y007350D01*
X022341Y007787D01*
X022314Y007787D01*
X022245Y007776D01*
X022178Y007755D01*
X022177Y007754D01*
X022177Y008406D01*
X022178Y008405D01*
X022245Y008383D01*
X022314Y008372D01*
X022341Y008372D01*
X022341Y008809D01*
X022358Y008809D01*
X022349Y008818D02*
X022349Y007342D01*
X022341Y007434D02*
X022358Y007434D01*
X022341Y007592D02*
X022358Y007592D01*
X022341Y007751D02*
X022358Y007751D01*
X022522Y007909D02*
X022177Y007909D01*
X022177Y008068D02*
X022522Y008068D01*
X022522Y008226D02*
X022177Y008226D01*
X022177Y008385D02*
X022239Y008385D01*
X022341Y008385D02*
X022358Y008385D01*
X022459Y008385D02*
X022522Y008385D01*
X022358Y008543D02*
X022341Y008543D01*
X022341Y008702D02*
X022358Y008702D01*
X021617Y009086D02*
X021406Y009173D01*
X021151Y009173D01*
X020914Y009076D01*
X020873Y009034D01*
X020832Y009076D01*
X020595Y009173D01*
X020340Y009173D01*
X020129Y009086D01*
X020129Y009996D01*
X020087Y010099D01*
X020008Y010177D01*
X019862Y010323D01*
X019862Y010485D01*
X019791Y010657D01*
X019662Y010786D01*
X019791Y010916D01*
X019858Y011077D01*
X019922Y010922D01*
X020103Y010741D01*
X020340Y010644D01*
X020595Y010644D01*
X020832Y010741D01*
X020873Y010783D01*
X020914Y010741D01*
X021151Y010644D01*
X021406Y010644D01*
X021617Y010731D01*
X021617Y009086D01*
X021617Y009177D02*
X020129Y009177D01*
X020129Y009336D02*
X021617Y009336D01*
X021617Y009494D02*
X020129Y009494D01*
X020129Y009653D02*
X021617Y009653D01*
X021617Y009811D02*
X020129Y009811D01*
X020129Y009970D02*
X021617Y009970D01*
X021617Y010128D02*
X020057Y010128D01*
X019898Y010287D02*
X021617Y010287D01*
X021617Y010445D02*
X019862Y010445D01*
X019813Y010604D02*
X021617Y010604D01*
X020893Y010762D02*
X020853Y010762D01*
X020082Y010762D02*
X019686Y010762D01*
X019793Y010921D02*
X019924Y010921D01*
X019397Y011180D02*
X018944Y010727D01*
X018944Y005432D01*
X019397Y004979D01*
X018807Y004264D02*
X019986Y004264D01*
X020203Y004105D02*
X018590Y004105D01*
X018062Y004105D02*
X017779Y004105D01*
X017901Y005215D02*
X017940Y005215D01*
X016897Y006219D02*
X016897Y009940D01*
X016444Y010393D01*
X017900Y010762D02*
X017941Y010762D01*
X018969Y011364D02*
X018969Y011414D01*
X018897Y011587D01*
X019161Y011587D01*
X019133Y011575D01*
X019002Y011444D01*
X018969Y011364D01*
X018969Y011396D02*
X018982Y011396D01*
X018910Y011555D02*
X019113Y011555D01*
X019632Y011587D02*
X019896Y011587D01*
X019825Y011414D01*
X019825Y011364D01*
X019791Y011444D01*
X019660Y011575D01*
X019632Y011587D01*
X019680Y011555D02*
X019883Y011555D01*
X019825Y011396D02*
X019811Y011396D01*
X019397Y010393D02*
X019849Y009940D01*
X019849Y006219D01*
X019397Y005767D01*
X020854Y005215D02*
X020892Y005215D01*
X021897Y005432D02*
X022349Y004979D01*
X022756Y005215D02*
X023034Y005215D01*
X023056Y005237D02*
X022875Y005056D01*
X022815Y004911D01*
X022815Y005072D01*
X022744Y005243D01*
X022614Y005373D01*
X022744Y005503D01*
X022815Y005674D01*
X022815Y005836D01*
X023040Y006061D01*
X023082Y006164D01*
X023082Y006892D01*
X023292Y006805D01*
X023398Y006805D01*
X023398Y005335D01*
X023292Y005335D01*
X023056Y005237D01*
X022876Y005056D02*
X022815Y005056D01*
X022777Y004739D02*
X022754Y004739D01*
X022777Y004581D02*
X022605Y004581D01*
X022615Y005373D02*
X023398Y005373D01*
X023398Y005532D02*
X022756Y005532D01*
X022815Y005690D02*
X023398Y005690D01*
X023398Y005849D02*
X022828Y005849D01*
X022986Y006007D02*
X023398Y006007D01*
X023398Y006166D02*
X023082Y006166D01*
X023082Y006324D02*
X023398Y006324D01*
X023398Y006483D02*
X023082Y006483D01*
X023082Y006641D02*
X023398Y006641D01*
X023398Y006800D02*
X023082Y006800D01*
X022802Y006219D02*
X022349Y005767D01*
X022802Y006219D02*
X022802Y009940D01*
X022349Y010393D01*
X024766Y010445D02*
X025081Y010445D01*
X025081Y010287D02*
X024766Y010287D01*
X024766Y010128D02*
X025081Y010128D01*
X025081Y009970D02*
X024766Y009970D01*
X024766Y009811D02*
X025081Y009811D01*
X025081Y009653D02*
X024766Y009653D01*
X024766Y009494D02*
X025081Y009494D01*
X025081Y009336D02*
X024766Y009336D01*
X024766Y009177D02*
X025081Y009177D01*
X025081Y009103D02*
X024910Y009173D01*
X024766Y009173D01*
X024766Y010644D01*
X024910Y010644D01*
X025081Y010714D01*
X025081Y009103D01*
X025845Y008809D02*
X025862Y008809D01*
X025862Y008372D01*
X025888Y008372D01*
X025958Y008383D01*
X026024Y008405D01*
X026026Y008406D01*
X026026Y007754D01*
X026024Y007755D01*
X025958Y007776D01*
X025888Y007787D01*
X025862Y007787D01*
X025862Y007350D01*
X025845Y007350D01*
X025845Y007787D01*
X025818Y007787D01*
X025749Y007776D01*
X025682Y007755D01*
X025641Y007734D01*
X025641Y008426D01*
X025682Y008405D01*
X025749Y008383D01*
X025818Y008372D01*
X025845Y008372D01*
X025845Y008809D01*
X025853Y008818D02*
X025853Y007342D01*
X025845Y007434D02*
X025862Y007434D01*
X025845Y007592D02*
X025862Y007592D01*
X025845Y007751D02*
X025862Y007751D01*
X025675Y007751D02*
X025641Y007751D01*
X025641Y007909D02*
X026026Y007909D01*
X026026Y008068D02*
X025641Y008068D01*
X025641Y008226D02*
X026026Y008226D01*
X026026Y008385D02*
X025963Y008385D01*
X025862Y008385D02*
X025845Y008385D01*
X025743Y008385D02*
X025641Y008385D01*
X025845Y008543D02*
X025862Y008543D01*
X025845Y008702D02*
X025862Y008702D01*
X026586Y009086D02*
X026586Y009996D01*
X026543Y010099D01*
X026465Y010177D01*
X026319Y010323D01*
X026319Y010485D01*
X026248Y010657D01*
X026118Y010786D01*
X026248Y010916D01*
X026315Y011077D01*
X026379Y010922D01*
X026560Y010741D01*
X026796Y010644D01*
X027052Y010644D01*
X027288Y010741D01*
X027330Y010783D01*
X027371Y010741D01*
X027607Y010644D01*
X027863Y010644D01*
X028073Y010731D01*
X028073Y009086D01*
X027863Y009173D01*
X027607Y009173D01*
X027371Y009076D01*
X027330Y009034D01*
X027288Y009076D01*
X027052Y009173D01*
X026796Y009173D01*
X026586Y009086D01*
X026586Y009177D02*
X028073Y009177D01*
X028073Y009336D02*
X026586Y009336D01*
X026586Y009494D02*
X028073Y009494D01*
X028073Y009653D02*
X026586Y009653D01*
X026586Y009811D02*
X028073Y009811D01*
X028073Y009970D02*
X026586Y009970D01*
X026514Y010128D02*
X028073Y010128D01*
X028073Y010287D02*
X026355Y010287D01*
X026319Y010445D02*
X028073Y010445D01*
X028073Y010604D02*
X026270Y010604D01*
X026142Y010762D02*
X026539Y010762D01*
X026380Y010921D02*
X026250Y010921D01*
X025853Y011180D02*
X025361Y010688D01*
X025361Y005471D01*
X025853Y004979D01*
X025425Y004795D02*
X025459Y004716D01*
X025590Y004584D01*
X025761Y004514D01*
X025946Y004514D01*
X026117Y004584D01*
X026248Y004716D01*
X026281Y004795D01*
X026281Y004564D01*
X026379Y004328D01*
X026560Y004147D01*
X026796Y004049D01*
X027052Y004049D01*
X027288Y004147D01*
X027330Y004188D01*
X027371Y004147D01*
X027607Y004049D01*
X027863Y004049D01*
X028099Y004147D01*
X028280Y004328D01*
X028378Y004564D01*
X028378Y004795D01*
X028411Y004716D01*
X028542Y004584D01*
X028713Y004514D01*
X028899Y004514D01*
X029070Y004584D01*
X029201Y004716D01*
X029234Y004795D01*
X029234Y004564D01*
X029332Y004328D01*
X029513Y004147D01*
X029749Y004049D01*
X030005Y004049D01*
X030241Y004147D01*
X030282Y004188D01*
X030324Y004147D01*
X030560Y004049D01*
X030816Y004049D01*
X031052Y004147D01*
X031233Y004328D01*
X031331Y004564D01*
X031331Y004795D01*
X031364Y004716D01*
X031495Y004584D01*
X031666Y004514D01*
X031852Y004514D01*
X032023Y004584D01*
X032154Y004716D01*
X032187Y004795D01*
X032187Y004564D01*
X032285Y004328D01*
X032466Y004147D01*
X032702Y004049D01*
X032958Y004049D01*
X033194Y004147D01*
X033235Y004188D01*
X033277Y004147D01*
X033513Y004049D01*
X033769Y004049D01*
X034005Y004147D01*
X034186Y004328D01*
X034284Y004564D01*
X034284Y004795D01*
X034317Y004716D01*
X034448Y004584D01*
X034619Y004514D01*
X034804Y004514D01*
X034975Y004584D01*
X035106Y004716D01*
X035140Y004795D01*
X035140Y004564D01*
X035237Y004328D01*
X035418Y004147D01*
X035655Y004049D01*
X035799Y004049D01*
X035799Y003781D01*
X024766Y003781D01*
X024766Y004049D01*
X024910Y004049D01*
X025147Y004147D01*
X025328Y004328D01*
X025425Y004564D01*
X025425Y004795D01*
X025425Y004739D02*
X025449Y004739D01*
X025425Y004581D02*
X025598Y004581D01*
X025367Y004422D02*
X026340Y004422D01*
X026281Y004581D02*
X026109Y004581D01*
X026258Y004739D02*
X026281Y004739D01*
X026319Y004911D02*
X026319Y005072D01*
X026248Y005243D01*
X026118Y005373D01*
X026248Y005503D01*
X026319Y005674D01*
X026319Y005836D01*
X026543Y006061D01*
X026586Y006164D01*
X026586Y006892D01*
X026796Y006805D01*
X027052Y006805D01*
X027288Y006903D01*
X027330Y006944D01*
X027371Y006903D01*
X027607Y006805D01*
X027863Y006805D01*
X028073Y006892D01*
X028073Y005376D01*
X028116Y005273D01*
X028340Y005049D01*
X028340Y004911D01*
X028280Y005056D01*
X028099Y005237D01*
X027863Y005335D01*
X027607Y005335D01*
X027371Y005237D01*
X027330Y005196D01*
X027288Y005237D01*
X027052Y005335D01*
X026796Y005335D01*
X026560Y005237D01*
X026379Y005056D01*
X026319Y004911D01*
X026319Y005056D02*
X026380Y005056D01*
X026260Y005215D02*
X026538Y005215D01*
X026119Y005373D02*
X028075Y005373D01*
X028073Y005532D02*
X026260Y005532D01*
X026319Y005690D02*
X028073Y005690D01*
X028073Y005849D02*
X026332Y005849D01*
X026490Y006007D02*
X028073Y006007D01*
X028073Y006166D02*
X026586Y006166D01*
X026586Y006324D02*
X028073Y006324D01*
X028073Y006483D02*
X026586Y006483D01*
X026586Y006641D02*
X028073Y006641D01*
X028073Y006800D02*
X026586Y006800D01*
X026306Y006219D02*
X025853Y005767D01*
X026306Y006219D02*
X026306Y009940D01*
X025853Y010393D01*
X025081Y010604D02*
X024766Y010604D01*
X025425Y011364D02*
X025425Y011414D01*
X025354Y011587D01*
X025618Y011587D01*
X025590Y011575D01*
X025459Y011444D01*
X025425Y011364D01*
X025425Y011396D02*
X025439Y011396D01*
X025367Y011555D02*
X025570Y011555D01*
X026089Y011587D02*
X026353Y011587D01*
X026281Y011414D01*
X026281Y011364D01*
X026248Y011444D01*
X026117Y011575D01*
X026089Y011587D01*
X026137Y011555D02*
X026340Y011555D01*
X026281Y011396D02*
X026268Y011396D01*
X027309Y010762D02*
X027350Y010762D01*
X028353Y010727D02*
X028353Y005432D01*
X028806Y004979D01*
X029213Y005215D02*
X029491Y005215D01*
X029513Y005237D02*
X029332Y005056D01*
X029272Y004911D01*
X029272Y005072D01*
X029201Y005243D01*
X029071Y005373D01*
X029201Y005503D01*
X029272Y005674D01*
X029272Y005837D01*
X029417Y005982D01*
X029496Y006061D01*
X029539Y006164D01*
X029539Y006892D01*
X029749Y006805D01*
X030005Y006805D01*
X030241Y006903D01*
X030282Y006944D01*
X030324Y006903D01*
X030560Y006805D01*
X030816Y006805D01*
X031026Y006892D01*
X031026Y005376D01*
X031069Y005273D01*
X031147Y005195D01*
X031293Y005049D01*
X031293Y004911D01*
X031233Y005056D01*
X031052Y005237D01*
X030816Y005335D01*
X030560Y005335D01*
X030324Y005237D01*
X030282Y005196D01*
X030241Y005237D01*
X030005Y005335D01*
X029749Y005335D01*
X029513Y005237D01*
X029332Y005056D02*
X029272Y005056D01*
X029234Y004739D02*
X029211Y004739D01*
X029234Y004581D02*
X029061Y004581D01*
X029293Y004422D02*
X028320Y004422D01*
X028378Y004581D02*
X028551Y004581D01*
X028401Y004739D02*
X028378Y004739D01*
X028333Y005056D02*
X028280Y005056D01*
X028174Y005215D02*
X028121Y005215D01*
X027349Y005215D02*
X027310Y005215D01*
X026443Y004264D02*
X025264Y004264D01*
X025047Y004105D02*
X026660Y004105D01*
X027188Y004105D02*
X027471Y004105D01*
X027999Y004105D02*
X029613Y004105D01*
X029396Y004264D02*
X028216Y004264D01*
X029071Y005373D02*
X031027Y005373D01*
X031026Y005532D02*
X029213Y005532D01*
X029272Y005690D02*
X031026Y005690D01*
X031026Y005849D02*
X029284Y005849D01*
X029443Y006007D02*
X031026Y006007D01*
X031026Y006166D02*
X029539Y006166D01*
X029539Y006324D02*
X031026Y006324D01*
X031026Y006483D02*
X029539Y006483D01*
X029539Y006641D02*
X031026Y006641D01*
X031026Y006800D02*
X029539Y006800D01*
X028815Y007350D02*
X028798Y007350D01*
X028798Y007787D01*
X028771Y007787D01*
X028702Y007776D01*
X028635Y007755D01*
X028633Y007754D01*
X028633Y008406D01*
X028635Y008405D01*
X028702Y008383D01*
X028771Y008372D01*
X028798Y008372D01*
X028798Y008809D01*
X028815Y008809D01*
X028815Y008372D01*
X028841Y008372D01*
X028910Y008383D01*
X028977Y008405D01*
X028979Y008406D01*
X028979Y007754D01*
X028977Y007755D01*
X028910Y007776D01*
X028841Y007787D01*
X028815Y007787D01*
X028815Y007350D01*
X028806Y007342D02*
X028806Y008818D01*
X028798Y008702D02*
X028815Y008702D01*
X028798Y008543D02*
X028815Y008543D01*
X028798Y008385D02*
X028815Y008385D01*
X028916Y008385D02*
X028979Y008385D01*
X028979Y008226D02*
X028633Y008226D01*
X028633Y008068D02*
X028979Y008068D01*
X028979Y007909D02*
X028633Y007909D01*
X028798Y007751D02*
X028815Y007751D01*
X028798Y007592D02*
X028815Y007592D01*
X028798Y007434D02*
X028815Y007434D01*
X028696Y008385D02*
X028633Y008385D01*
X029539Y009086D02*
X029539Y009996D01*
X029496Y010099D01*
X029272Y010323D01*
X029272Y010485D01*
X029201Y010657D01*
X029071Y010786D01*
X029201Y010916D01*
X029268Y011077D01*
X029332Y010922D01*
X029513Y010741D01*
X029749Y010644D01*
X030005Y010644D01*
X030241Y010741D01*
X030282Y010783D01*
X030324Y010741D01*
X030560Y010644D01*
X030816Y010644D01*
X031026Y010731D01*
X031026Y009086D01*
X030816Y009173D01*
X030560Y009173D01*
X030324Y009076D01*
X030282Y009034D01*
X030241Y009076D01*
X030005Y009173D01*
X029749Y009173D01*
X029539Y009086D01*
X029539Y009177D02*
X031026Y009177D01*
X031026Y009336D02*
X029539Y009336D01*
X029539Y009494D02*
X031026Y009494D01*
X031026Y009653D02*
X029539Y009653D01*
X029539Y009811D02*
X031026Y009811D01*
X031026Y009970D02*
X029539Y009970D01*
X029466Y010128D02*
X031026Y010128D01*
X031026Y010287D02*
X029308Y010287D01*
X029272Y010445D02*
X031026Y010445D01*
X031026Y010604D02*
X029223Y010604D01*
X029095Y010762D02*
X029492Y010762D01*
X029333Y010921D02*
X029203Y010921D01*
X028806Y011180D02*
X028353Y010727D01*
X028806Y010393D02*
X029259Y009940D01*
X029259Y006219D01*
X028806Y005767D01*
X030263Y005215D02*
X030302Y005215D01*
X031074Y005215D02*
X031127Y005215D01*
X031233Y005056D02*
X031286Y005056D01*
X031331Y004739D02*
X031354Y004739D01*
X031331Y004581D02*
X031504Y004581D01*
X031272Y004422D02*
X032245Y004422D01*
X032187Y004581D02*
X032014Y004581D01*
X032164Y004739D02*
X032187Y004739D01*
X032225Y004911D02*
X032225Y005072D01*
X032154Y005243D01*
X032024Y005373D01*
X032154Y005503D01*
X032225Y005674D01*
X032225Y005836D01*
X032449Y006061D01*
X032492Y006164D01*
X032492Y006892D01*
X032702Y006805D01*
X032958Y006805D01*
X033194Y006903D01*
X033235Y006944D01*
X033277Y006903D01*
X033513Y006805D01*
X033769Y006805D01*
X033979Y006892D01*
X033979Y005376D01*
X034021Y005273D01*
X034100Y005195D01*
X034246Y005049D01*
X034246Y004911D01*
X034186Y005056D01*
X034005Y005237D01*
X033769Y005335D01*
X033513Y005335D01*
X033277Y005237D01*
X033235Y005196D01*
X033194Y005237D01*
X032958Y005335D01*
X032702Y005335D01*
X032466Y005237D01*
X032285Y005056D01*
X032225Y004911D01*
X032225Y005056D02*
X032285Y005056D01*
X032165Y005215D02*
X032444Y005215D01*
X032024Y005373D02*
X033980Y005373D01*
X033979Y005532D02*
X032166Y005532D01*
X032225Y005690D02*
X033979Y005690D01*
X033979Y005849D02*
X032237Y005849D01*
X032396Y006007D02*
X033979Y006007D01*
X033979Y006166D02*
X032492Y006166D01*
X032492Y006324D02*
X033979Y006324D01*
X033979Y006483D02*
X032492Y006483D01*
X032492Y006641D02*
X033979Y006641D01*
X033979Y006800D02*
X032492Y006800D01*
X031767Y007350D02*
X031750Y007350D01*
X031750Y007787D01*
X031724Y007787D01*
X031654Y007776D01*
X031588Y007755D01*
X031586Y007754D01*
X031586Y008406D01*
X031588Y008405D01*
X031654Y008383D01*
X031724Y008372D01*
X031750Y008372D01*
X031750Y008809D01*
X031767Y008809D01*
X031767Y008372D01*
X031794Y008372D01*
X031863Y008383D01*
X031930Y008405D01*
X031932Y008406D01*
X031932Y007754D01*
X031930Y007755D01*
X031863Y007776D01*
X031794Y007787D01*
X031767Y007787D01*
X031767Y007350D01*
X031759Y007342D02*
X031759Y008818D01*
X031750Y008702D02*
X031767Y008702D01*
X031750Y008543D02*
X031767Y008543D01*
X031750Y008385D02*
X031767Y008385D01*
X031869Y008385D02*
X031932Y008385D01*
X031932Y008226D02*
X031586Y008226D01*
X031586Y008068D02*
X031932Y008068D01*
X031932Y007909D02*
X031586Y007909D01*
X031750Y007751D02*
X031767Y007751D01*
X031750Y007592D02*
X031767Y007592D01*
X031750Y007434D02*
X031767Y007434D01*
X031649Y008385D02*
X031586Y008385D01*
X032492Y009086D02*
X032492Y009996D01*
X032449Y010099D01*
X032370Y010177D01*
X032225Y010323D01*
X032225Y010485D01*
X032154Y010657D01*
X032024Y010786D01*
X032154Y010916D01*
X032220Y011077D01*
X032285Y010922D01*
X032466Y010741D01*
X032702Y010644D01*
X032958Y010644D01*
X033194Y010741D01*
X033235Y010783D01*
X033277Y010741D01*
X033513Y010644D01*
X033769Y010644D01*
X033979Y010731D01*
X033979Y009086D01*
X033769Y009173D01*
X033513Y009173D01*
X033277Y009076D01*
X033235Y009034D01*
X033194Y009076D01*
X032958Y009173D01*
X032702Y009173D01*
X032492Y009086D01*
X032492Y009177D02*
X033979Y009177D01*
X033979Y009336D02*
X032492Y009336D01*
X032492Y009494D02*
X033979Y009494D01*
X033979Y009653D02*
X032492Y009653D01*
X032492Y009811D02*
X033979Y009811D01*
X033979Y009970D02*
X032492Y009970D01*
X032419Y010128D02*
X033979Y010128D01*
X033979Y010287D02*
X032261Y010287D01*
X032225Y010445D02*
X033979Y010445D01*
X033979Y010604D02*
X032175Y010604D01*
X032048Y010762D02*
X032444Y010762D01*
X032286Y010921D02*
X032156Y010921D01*
X031759Y011180D02*
X031306Y010727D01*
X031306Y005432D01*
X031759Y004979D01*
X031169Y004264D02*
X032348Y004264D01*
X032566Y004105D02*
X030952Y004105D01*
X030424Y004105D02*
X030141Y004105D01*
X031759Y005767D02*
X032212Y006219D01*
X032212Y009940D01*
X031759Y010393D01*
X032187Y011364D02*
X032154Y011444D01*
X032023Y011575D01*
X031994Y011587D01*
X032258Y011587D01*
X032187Y011414D01*
X032187Y011364D01*
X032187Y011396D02*
X032173Y011396D01*
X032245Y011555D02*
X032043Y011555D01*
X031523Y011587D02*
X031260Y011587D01*
X031331Y011414D01*
X031331Y011364D01*
X031364Y011444D01*
X031495Y011575D01*
X031523Y011587D01*
X031475Y011555D02*
X031273Y011555D01*
X031331Y011396D02*
X031344Y011396D01*
X030303Y010762D02*
X030262Y010762D01*
X029234Y011364D02*
X029201Y011444D01*
X029070Y011575D01*
X029042Y011587D01*
X029305Y011587D01*
X029234Y011414D01*
X029234Y011364D01*
X029234Y011396D02*
X029221Y011396D01*
X029292Y011555D02*
X029090Y011555D01*
X028571Y011587D02*
X028307Y011587D01*
X028378Y011414D01*
X028378Y011364D01*
X028411Y011444D01*
X028542Y011575D01*
X028571Y011587D01*
X028522Y011555D02*
X028320Y011555D01*
X028378Y011396D02*
X028392Y011396D01*
X028436Y013230D02*
X028244Y013230D01*
X028299Y013363D01*
X028299Y013414D01*
X028333Y013334D01*
X028436Y013230D01*
X028368Y013298D02*
X028273Y013298D01*
X028727Y013597D02*
X029180Y014050D01*
X029180Y019345D01*
X028727Y019798D01*
X028262Y019797D02*
X028233Y019797D01*
X028262Y019867D02*
X028262Y019706D01*
X028333Y019534D01*
X028462Y019405D01*
X028333Y019275D01*
X028262Y019103D01*
X028262Y018941D01*
X028037Y018717D01*
X027995Y018614D01*
X027995Y017886D01*
X027784Y017973D01*
X027529Y017973D01*
X027292Y017875D01*
X027251Y017833D01*
X027210Y017875D01*
X026973Y017973D01*
X026718Y017973D01*
X026507Y017886D01*
X026507Y019401D01*
X026465Y019504D01*
X026386Y019583D01*
X026240Y019728D01*
X026240Y019867D01*
X026300Y019721D01*
X026481Y019541D01*
X026718Y019443D01*
X026973Y019443D01*
X027210Y019541D01*
X027251Y019582D01*
X027292Y019541D01*
X027529Y019443D01*
X027784Y019443D01*
X028021Y019541D01*
X028202Y019721D01*
X028262Y019867D01*
X028299Y019982D02*
X028299Y020214D01*
X028202Y020450D01*
X028021Y020631D01*
X027784Y020729D01*
X027529Y020729D01*
X027292Y020631D01*
X027251Y020589D01*
X027210Y020631D01*
X026973Y020729D01*
X026718Y020729D01*
X026481Y020631D01*
X026300Y020450D01*
X026203Y020214D01*
X026203Y019982D01*
X026169Y020062D01*
X026038Y020193D01*
X025867Y020264D01*
X025682Y020264D01*
X025511Y020193D01*
X025380Y020062D01*
X025347Y019982D01*
X025347Y020214D01*
X025249Y020450D01*
X025068Y020631D01*
X024832Y020729D01*
X024766Y020729D01*
X024766Y020957D01*
X035799Y020957D01*
X035799Y020729D01*
X035576Y020729D01*
X035340Y020631D01*
X035159Y020450D01*
X035061Y020214D01*
X035061Y019982D01*
X035028Y020062D01*
X034897Y020193D01*
X034726Y020264D01*
X034540Y020264D01*
X034369Y020193D01*
X034238Y020062D01*
X034205Y019982D01*
X034205Y020214D01*
X034107Y020450D01*
X033926Y020631D01*
X033690Y020729D01*
X033434Y020729D01*
X033198Y020631D01*
X033156Y020589D01*
X033157Y020589D01*
X033156Y020589D02*
X033115Y020631D01*
X032879Y020729D01*
X032623Y020729D01*
X032387Y020631D01*
X032206Y020450D01*
X032108Y020214D01*
X032108Y019982D01*
X032075Y020062D01*
X031944Y020193D01*
X031773Y020264D01*
X031587Y020264D01*
X031416Y020193D01*
X031285Y020062D01*
X031252Y019982D01*
X031252Y020214D01*
X031154Y020450D01*
X030973Y020631D01*
X030737Y020729D01*
X030481Y020729D01*
X030245Y020631D01*
X030204Y020589D01*
X030162Y020631D01*
X029926Y020729D01*
X029670Y020729D01*
X029434Y020631D01*
X029253Y020450D01*
X029155Y020214D01*
X029155Y019982D01*
X029122Y020062D01*
X028991Y020193D01*
X028820Y020264D01*
X028635Y020264D01*
X028464Y020193D01*
X028333Y020062D01*
X028299Y019982D01*
X028299Y020114D02*
X028384Y020114D01*
X028275Y020272D02*
X029180Y020272D01*
X029155Y020114D02*
X029070Y020114D01*
X029193Y019867D02*
X029253Y019721D01*
X029434Y019541D01*
X029670Y019443D01*
X029926Y019443D01*
X030162Y019541D01*
X030204Y019582D01*
X030245Y019541D01*
X030481Y019443D01*
X030737Y019443D01*
X030973Y019541D01*
X031154Y019721D01*
X031214Y019867D01*
X031214Y019706D01*
X031285Y019534D01*
X031415Y019405D01*
X031285Y019275D01*
X031214Y019103D01*
X031214Y018941D01*
X031069Y018795D01*
X030990Y018717D01*
X030947Y018614D01*
X030947Y017886D01*
X030737Y017973D01*
X030481Y017973D01*
X030245Y017875D01*
X030204Y017833D01*
X030162Y017875D01*
X029926Y017973D01*
X029670Y017973D01*
X029460Y017886D01*
X029460Y019401D01*
X029417Y019504D01*
X029339Y019583D01*
X029193Y019728D01*
X029193Y019867D01*
X029193Y019797D02*
X029222Y019797D01*
X029283Y019638D02*
X029336Y019638D01*
X029427Y019480D02*
X029580Y019480D01*
X029460Y019321D02*
X031332Y019321D01*
X031340Y019480D02*
X030827Y019480D01*
X031071Y019638D02*
X031242Y019638D01*
X031214Y019797D02*
X031186Y019797D01*
X031252Y020114D02*
X031337Y020114D01*
X031228Y020272D02*
X032132Y020272D01*
X032108Y020114D02*
X032023Y020114D01*
X032146Y019867D02*
X032146Y019728D01*
X032370Y019504D01*
X032413Y019401D01*
X032413Y017886D01*
X032623Y017973D01*
X032879Y017973D01*
X033115Y017875D01*
X033156Y017833D01*
X033198Y017875D01*
X033434Y017973D01*
X033690Y017973D01*
X033900Y017886D01*
X033900Y018614D01*
X033943Y018717D01*
X034167Y018941D01*
X034167Y019103D01*
X034238Y019275D01*
X034368Y019405D01*
X034238Y019534D01*
X034167Y019706D01*
X034167Y019867D01*
X034107Y019721D01*
X033926Y019541D01*
X033690Y019443D01*
X033434Y019443D01*
X033198Y019541D01*
X033156Y019582D01*
X033115Y019541D01*
X032879Y019443D01*
X032623Y019443D01*
X032387Y019541D01*
X032206Y019721D01*
X032146Y019867D01*
X032146Y019797D02*
X032175Y019797D01*
X032236Y019638D02*
X032289Y019638D01*
X032380Y019480D02*
X032533Y019480D01*
X032413Y019321D02*
X034285Y019321D01*
X034292Y019480D02*
X033780Y019480D01*
X034024Y019638D02*
X034195Y019638D01*
X034167Y019797D02*
X034138Y019797D01*
X034205Y020114D02*
X034290Y020114D01*
X034180Y020272D02*
X035085Y020272D01*
X035061Y020114D02*
X034976Y020114D01*
X035099Y019867D02*
X035099Y019728D01*
X035362Y019465D01*
X035405Y019362D01*
X035405Y017902D01*
X035576Y017973D01*
X035799Y017973D01*
X035799Y019443D01*
X035576Y019443D01*
X035340Y019541D01*
X035159Y019721D01*
X035099Y019867D01*
X035099Y019797D02*
X035127Y019797D01*
X035189Y019638D02*
X035242Y019638D01*
X035347Y019480D02*
X035486Y019480D01*
X035405Y019321D02*
X035799Y019321D01*
X035799Y019163D02*
X035405Y019163D01*
X035405Y019004D02*
X035799Y019004D01*
X035799Y018846D02*
X035405Y018846D01*
X035405Y018687D02*
X035799Y018687D01*
X035799Y018529D02*
X035405Y018529D01*
X035405Y018370D02*
X035799Y018370D01*
X035799Y018212D02*
X035405Y018212D01*
X035405Y018053D02*
X035799Y018053D01*
X034641Y017427D02*
X034641Y016990D01*
X034668Y016990D01*
X034737Y017001D01*
X034804Y017023D01*
X034845Y017044D01*
X034845Y016352D01*
X034804Y016373D01*
X034737Y016394D01*
X034668Y016405D01*
X034641Y016405D01*
X034641Y015968D01*
X034624Y015968D01*
X034624Y016405D01*
X034598Y016405D01*
X034528Y016394D01*
X034462Y016373D01*
X034460Y016372D01*
X034460Y017024D01*
X034462Y017023D01*
X034528Y017001D01*
X034598Y016990D01*
X034624Y016990D01*
X034624Y017427D01*
X034641Y017427D01*
X034641Y017419D02*
X034624Y017419D01*
X034633Y017436D02*
X034633Y015960D01*
X034641Y015993D02*
X034624Y015993D01*
X034624Y016151D02*
X034641Y016151D01*
X034624Y016310D02*
X034641Y016310D01*
X034460Y016468D02*
X034845Y016468D01*
X034845Y016627D02*
X034460Y016627D01*
X034460Y016785D02*
X034845Y016785D01*
X034845Y016944D02*
X034460Y016944D01*
X034624Y017102D02*
X034641Y017102D01*
X034624Y017261D02*
X034641Y017261D01*
X033900Y017895D02*
X033877Y017895D01*
X033900Y018053D02*
X032413Y018053D01*
X032413Y017895D02*
X032436Y017895D01*
X032413Y018212D02*
X033900Y018212D01*
X033900Y018370D02*
X032413Y018370D01*
X032413Y018529D02*
X033900Y018529D01*
X033931Y018687D02*
X032413Y018687D01*
X032413Y018846D02*
X034072Y018846D01*
X034167Y019004D02*
X032413Y019004D01*
X032413Y019163D02*
X034192Y019163D01*
X034633Y019011D02*
X034180Y018558D01*
X034180Y014838D01*
X034633Y014385D01*
X034167Y014408D02*
X032413Y014408D01*
X032413Y014566D02*
X034055Y014566D01*
X034022Y014600D02*
X034167Y014455D01*
X034167Y014292D01*
X034238Y014121D01*
X034368Y013991D01*
X034238Y013861D01*
X034171Y013700D01*
X034107Y013855D01*
X033926Y014036D01*
X033690Y014134D01*
X033434Y014134D01*
X033198Y014036D01*
X033156Y013995D01*
X033115Y014036D01*
X032879Y014134D01*
X032623Y014134D01*
X032413Y014047D01*
X032413Y015691D01*
X032623Y015604D01*
X032879Y015604D01*
X033115Y015702D01*
X033156Y015743D01*
X033198Y015702D01*
X033434Y015604D01*
X033690Y015604D01*
X033900Y015691D01*
X033900Y014782D01*
X033943Y014679D01*
X034022Y014600D01*
X033924Y014725D02*
X032413Y014725D01*
X032413Y014883D02*
X033900Y014883D01*
X033900Y015042D02*
X032413Y015042D01*
X032413Y015200D02*
X033900Y015200D01*
X033900Y015359D02*
X032413Y015359D01*
X032413Y015517D02*
X033900Y015517D01*
X033900Y015676D02*
X033863Y015676D01*
X033261Y015676D02*
X033052Y015676D01*
X032450Y015676D02*
X032413Y015676D01*
X031689Y015968D02*
X031672Y015968D01*
X031672Y016405D01*
X031645Y016405D01*
X031576Y016394D01*
X031509Y016373D01*
X031507Y016372D01*
X031507Y017024D01*
X031509Y017023D01*
X031576Y017001D01*
X031645Y016990D01*
X031672Y016990D01*
X031672Y017427D01*
X031689Y017427D01*
X031689Y016990D01*
X031715Y016990D01*
X031784Y017001D01*
X031851Y017023D01*
X031853Y017024D01*
X031853Y016372D01*
X031851Y016373D01*
X031784Y016394D01*
X031715Y016405D01*
X031689Y016405D01*
X031689Y015968D01*
X031680Y015960D02*
X031680Y017436D01*
X031672Y017419D02*
X031689Y017419D01*
X031672Y017261D02*
X031689Y017261D01*
X031672Y017102D02*
X031689Y017102D01*
X031853Y016944D02*
X031507Y016944D01*
X031507Y016785D02*
X031853Y016785D01*
X031853Y016627D02*
X031507Y016627D01*
X031507Y016468D02*
X031853Y016468D01*
X031689Y016310D02*
X031672Y016310D01*
X031672Y016151D02*
X031689Y016151D01*
X031672Y015993D02*
X031689Y015993D01*
X030947Y015691D02*
X030737Y015604D01*
X030481Y015604D01*
X030245Y015702D01*
X030204Y015743D01*
X030162Y015702D01*
X029926Y015604D01*
X029670Y015604D01*
X029460Y015691D01*
X029460Y014047D01*
X029670Y014134D01*
X029926Y014134D01*
X030162Y014036D01*
X030204Y013995D01*
X030245Y014036D01*
X030481Y014134D01*
X030737Y014134D01*
X030973Y014036D01*
X031154Y013855D01*
X031219Y013700D01*
X031285Y013861D01*
X031415Y013991D01*
X031285Y014121D01*
X031214Y014292D01*
X031214Y014455D01*
X030990Y014679D01*
X030947Y014782D01*
X030947Y015691D01*
X030947Y015676D02*
X030911Y015676D01*
X030947Y015517D02*
X029460Y015517D01*
X029460Y015359D02*
X030947Y015359D01*
X030947Y015200D02*
X029460Y015200D01*
X029460Y015042D02*
X030947Y015042D01*
X030947Y014883D02*
X029460Y014883D01*
X029460Y014725D02*
X030971Y014725D01*
X031103Y014566D02*
X029460Y014566D01*
X029460Y014408D02*
X031214Y014408D01*
X031232Y014249D02*
X029460Y014249D01*
X029460Y014091D02*
X029566Y014091D01*
X030030Y014091D02*
X030377Y014091D01*
X030841Y014091D02*
X031315Y014091D01*
X031356Y013932D02*
X031077Y013932D01*
X031188Y013774D02*
X031249Y013774D01*
X031680Y013597D02*
X032133Y014050D01*
X032133Y019345D01*
X031680Y019798D01*
X031239Y019163D02*
X029460Y019163D01*
X029460Y019004D02*
X031214Y019004D01*
X031119Y018846D02*
X029460Y018846D01*
X029460Y018687D02*
X030978Y018687D01*
X030947Y018529D02*
X029460Y018529D01*
X029460Y018370D02*
X030947Y018370D01*
X030947Y018212D02*
X029460Y018212D01*
X029460Y018053D02*
X030947Y018053D01*
X030947Y017895D02*
X030925Y017895D01*
X030294Y017895D02*
X030114Y017895D01*
X029483Y017895D02*
X029460Y017895D01*
X028736Y017427D02*
X028736Y016990D01*
X028762Y016990D01*
X028832Y017001D01*
X028898Y017023D01*
X028900Y017024D01*
X028900Y016372D01*
X028898Y016373D01*
X028832Y016394D01*
X028762Y016405D01*
X028736Y016405D01*
X028736Y015968D01*
X028719Y015968D01*
X028719Y016405D01*
X028692Y016405D01*
X028623Y016394D01*
X028556Y016373D01*
X028555Y016372D01*
X028555Y017024D01*
X028556Y017023D01*
X028623Y017001D01*
X028692Y016990D01*
X028719Y016990D01*
X028719Y017427D01*
X028736Y017427D01*
X028736Y017419D02*
X028719Y017419D01*
X028727Y017436D02*
X028727Y015960D01*
X028719Y015993D02*
X028736Y015993D01*
X028719Y016151D02*
X028736Y016151D01*
X028719Y016310D02*
X028736Y016310D01*
X028900Y016468D02*
X028555Y016468D01*
X028555Y016627D02*
X028900Y016627D01*
X028900Y016785D02*
X028555Y016785D01*
X028555Y016944D02*
X028900Y016944D01*
X028736Y017102D02*
X028719Y017102D01*
X028719Y017261D02*
X028736Y017261D01*
X027995Y017895D02*
X027972Y017895D01*
X027995Y018053D02*
X026507Y018053D01*
X026507Y017895D02*
X026530Y017895D01*
X026507Y018212D02*
X027995Y018212D01*
X027995Y018370D02*
X026507Y018370D01*
X026507Y018529D02*
X027995Y018529D01*
X028025Y018687D02*
X026507Y018687D01*
X026507Y018846D02*
X028167Y018846D01*
X028262Y019004D02*
X026507Y019004D01*
X026507Y019163D02*
X028286Y019163D01*
X028379Y019321D02*
X026507Y019321D01*
X026475Y019480D02*
X026628Y019480D01*
X026383Y019638D02*
X026330Y019638D01*
X026269Y019797D02*
X026240Y019797D01*
X026203Y020114D02*
X026118Y020114D01*
X026227Y020272D02*
X025322Y020272D01*
X025347Y020114D02*
X025432Y020114D01*
X025309Y019867D02*
X025309Y019706D01*
X025380Y019534D01*
X025510Y019405D01*
X025380Y019275D01*
X025309Y019103D01*
X025309Y018941D01*
X025163Y018795D01*
X025084Y018717D01*
X025042Y018614D01*
X025042Y017886D01*
X024832Y017973D01*
X024766Y017973D01*
X024766Y019443D01*
X024832Y019443D01*
X025068Y019541D01*
X025249Y019721D01*
X025309Y019867D01*
X025309Y019797D02*
X025280Y019797D01*
X025337Y019638D02*
X025166Y019638D01*
X024922Y019480D02*
X025434Y019480D01*
X025427Y019321D02*
X024766Y019321D01*
X024766Y019163D02*
X025334Y019163D01*
X025309Y019004D02*
X024766Y019004D01*
X024766Y018846D02*
X025214Y018846D01*
X025163Y018795D02*
X025163Y018795D01*
X025072Y018687D02*
X024766Y018687D01*
X024766Y018529D02*
X025042Y018529D01*
X025042Y018370D02*
X024766Y018370D01*
X024766Y018212D02*
X025042Y018212D01*
X025042Y018053D02*
X024766Y018053D01*
X025019Y017895D02*
X025042Y017895D01*
X025766Y017427D02*
X025783Y017427D01*
X025783Y016990D01*
X025810Y016990D01*
X025879Y017001D01*
X025946Y017023D01*
X025947Y017024D01*
X025947Y016372D01*
X025946Y016373D01*
X025879Y016394D01*
X025810Y016405D01*
X025783Y016405D01*
X025783Y015968D01*
X025766Y015968D01*
X025766Y016405D01*
X025740Y016405D01*
X025670Y016394D01*
X025603Y016373D01*
X025602Y016372D01*
X025602Y017024D01*
X025603Y017023D01*
X025670Y017001D01*
X025740Y016990D01*
X025766Y016990D01*
X025766Y017427D01*
X025766Y017419D02*
X025783Y017419D01*
X025775Y017436D02*
X025775Y015960D01*
X025783Y015993D02*
X025766Y015993D01*
X025766Y016151D02*
X025783Y016151D01*
X025766Y016310D02*
X025783Y016310D01*
X025947Y016468D02*
X025602Y016468D01*
X025602Y016627D02*
X025947Y016627D01*
X025947Y016785D02*
X025602Y016785D01*
X025602Y016944D02*
X025947Y016944D01*
X025783Y017102D02*
X025766Y017102D01*
X025766Y017261D02*
X025783Y017261D01*
X027213Y016788D02*
X027251Y016826D01*
X027289Y016788D01*
X027251Y016751D01*
X027213Y016788D01*
X027216Y016785D02*
X027286Y016785D01*
X027251Y015743D02*
X027292Y015702D01*
X027529Y015604D01*
X027784Y015604D01*
X027995Y015691D01*
X027995Y014782D01*
X028037Y014679D01*
X028116Y014600D01*
X028262Y014455D01*
X028262Y014292D01*
X028333Y014121D01*
X028462Y013991D01*
X028333Y013861D01*
X028266Y013700D01*
X028202Y013855D01*
X028021Y014036D01*
X027784Y014134D01*
X027529Y014134D01*
X027292Y014036D01*
X027251Y013995D01*
X027210Y014036D01*
X026973Y014134D01*
X026718Y014134D01*
X026507Y014047D01*
X026507Y015691D01*
X026718Y015604D01*
X026973Y015604D01*
X027210Y015702D01*
X027251Y015743D01*
X027147Y015676D02*
X027355Y015676D01*
X027958Y015676D02*
X027995Y015676D01*
X027995Y015517D02*
X026507Y015517D01*
X026507Y015359D02*
X027995Y015359D01*
X027995Y015200D02*
X026507Y015200D01*
X026507Y015042D02*
X027995Y015042D01*
X027995Y014883D02*
X026507Y014883D01*
X026507Y014725D02*
X028018Y014725D01*
X028150Y014566D02*
X026507Y014566D01*
X026507Y014408D02*
X028262Y014408D01*
X028279Y014249D02*
X026507Y014249D01*
X026507Y014091D02*
X026614Y014091D01*
X026227Y014050D02*
X025775Y013597D01*
X026203Y013414D02*
X026203Y013363D01*
X026258Y013230D01*
X026066Y013230D01*
X026169Y013334D01*
X026203Y013414D01*
X026229Y013298D02*
X026134Y013298D01*
X025483Y013230D02*
X025292Y013230D01*
X025347Y013363D01*
X025347Y013414D01*
X025380Y013334D01*
X025483Y013230D01*
X025415Y013298D02*
X025320Y013298D01*
X025313Y013700D02*
X025249Y013855D01*
X025068Y014036D01*
X024832Y014134D01*
X024766Y014134D01*
X024766Y015604D01*
X024832Y015604D01*
X025042Y015691D01*
X025042Y014782D01*
X025084Y014679D01*
X025163Y014600D01*
X025309Y014455D01*
X025309Y014292D01*
X025380Y014121D01*
X025510Y013991D01*
X025380Y013861D01*
X025313Y013700D01*
X025282Y013774D02*
X025344Y013774D01*
X025451Y013932D02*
X025172Y013932D01*
X024936Y014091D02*
X025410Y014091D01*
X025327Y014249D02*
X024766Y014249D01*
X024766Y014408D02*
X025309Y014408D01*
X025197Y014566D02*
X024766Y014566D01*
X024766Y014725D02*
X025065Y014725D01*
X025042Y014883D02*
X024766Y014883D01*
X024766Y015042D02*
X025042Y015042D01*
X025042Y015200D02*
X024766Y015200D01*
X024766Y015359D02*
X025042Y015359D01*
X025042Y015517D02*
X024766Y015517D01*
X025005Y015676D02*
X025042Y015676D01*
X025322Y014838D02*
X025322Y018558D01*
X025775Y019011D01*
X026227Y019345D02*
X026227Y014050D01*
X025775Y014385D02*
X025322Y014838D01*
X026507Y015676D02*
X026544Y015676D01*
X028275Y014838D02*
X028275Y018558D01*
X028727Y019011D01*
X028387Y019480D02*
X027874Y019480D01*
X028119Y019638D02*
X028289Y019638D01*
X027439Y019480D02*
X027063Y019480D01*
X026227Y019345D02*
X025775Y019798D01*
X025257Y020431D02*
X026293Y020431D01*
X026440Y020589D02*
X025109Y020589D01*
X024766Y020748D02*
X035799Y020748D01*
X035799Y020906D02*
X024766Y020906D01*
X024456Y021267D02*
X024456Y003471D01*
X036109Y003471D01*
X036109Y011897D01*
X035211Y011587D02*
X035140Y011414D01*
X035140Y011364D01*
X035106Y011444D01*
X034975Y011575D01*
X034947Y011587D01*
X035211Y011587D01*
X035198Y011555D02*
X034995Y011555D01*
X035126Y011396D02*
X035140Y011396D01*
X035173Y011077D02*
X035237Y010922D01*
X035418Y010741D01*
X035655Y010644D01*
X035799Y010644D01*
X035799Y009173D01*
X035655Y009173D01*
X035444Y009086D01*
X035444Y009996D01*
X035402Y010099D01*
X035323Y010177D01*
X035177Y010323D01*
X035177Y010485D01*
X035106Y010657D01*
X034977Y010786D01*
X035106Y010916D01*
X035173Y011077D01*
X035108Y010921D02*
X035239Y010921D01*
X035397Y010762D02*
X035001Y010762D01*
X035128Y010604D02*
X035799Y010604D01*
X035799Y010445D02*
X035177Y010445D01*
X035213Y010287D02*
X035799Y010287D01*
X035799Y010128D02*
X035372Y010128D01*
X035444Y009970D02*
X035799Y009970D01*
X035799Y009811D02*
X035444Y009811D01*
X035444Y009653D02*
X035799Y009653D01*
X035799Y009494D02*
X035444Y009494D01*
X035444Y009336D02*
X035799Y009336D01*
X035799Y009177D02*
X035444Y009177D01*
X034720Y008809D02*
X034720Y008372D01*
X034747Y008372D01*
X034816Y008383D01*
X034883Y008405D01*
X034884Y008406D01*
X034884Y007754D01*
X034883Y007755D01*
X034816Y007776D01*
X034747Y007787D01*
X034720Y007787D01*
X034720Y007350D01*
X034703Y007350D01*
X034703Y007787D01*
X034677Y007787D01*
X034607Y007776D01*
X034541Y007755D01*
X034539Y007754D01*
X034539Y008406D01*
X034541Y008405D01*
X034607Y008383D01*
X034677Y008372D01*
X034703Y008372D01*
X034703Y008809D01*
X034720Y008809D01*
X034712Y008818D02*
X034712Y007342D01*
X034703Y007434D02*
X034720Y007434D01*
X034703Y007592D02*
X034720Y007592D01*
X034703Y007751D02*
X034720Y007751D01*
X034884Y007909D02*
X034539Y007909D01*
X034539Y008068D02*
X034884Y008068D01*
X034884Y008226D02*
X034539Y008226D01*
X034539Y008385D02*
X034602Y008385D01*
X034703Y008385D02*
X034720Y008385D01*
X034822Y008385D02*
X034884Y008385D01*
X034720Y008543D02*
X034703Y008543D01*
X034703Y008702D02*
X034720Y008702D01*
X033273Y007989D02*
X033235Y007952D01*
X033198Y007989D01*
X033235Y008027D01*
X033273Y007989D01*
X035444Y006892D02*
X035655Y006805D01*
X035799Y006805D01*
X035799Y005335D01*
X035655Y005335D01*
X035418Y005237D01*
X035237Y005056D01*
X035177Y004911D01*
X035177Y005072D01*
X035106Y005243D01*
X034977Y005373D01*
X035106Y005503D01*
X035177Y005674D01*
X035177Y005836D01*
X035402Y006061D01*
X035444Y006164D01*
X035444Y006892D01*
X035444Y006800D02*
X035799Y006800D01*
X035799Y006641D02*
X035444Y006641D01*
X035444Y006483D02*
X035799Y006483D01*
X035799Y006324D02*
X035444Y006324D01*
X035444Y006166D02*
X035799Y006166D01*
X035799Y006007D02*
X035348Y006007D01*
X035190Y005849D02*
X035799Y005849D01*
X035799Y005690D02*
X035177Y005690D01*
X035118Y005532D02*
X035799Y005532D01*
X035799Y005373D02*
X034977Y005373D01*
X035118Y005215D02*
X035396Y005215D01*
X035238Y005056D02*
X035177Y005056D01*
X035140Y004739D02*
X035116Y004739D01*
X035140Y004581D02*
X034967Y004581D01*
X035198Y004422D02*
X034225Y004422D01*
X034284Y004581D02*
X034456Y004581D01*
X034307Y004739D02*
X034284Y004739D01*
X034239Y005056D02*
X034185Y005056D01*
X034080Y005215D02*
X034027Y005215D01*
X034259Y005432D02*
X034259Y010727D01*
X034712Y011180D01*
X034284Y011364D02*
X034284Y011414D01*
X034212Y011587D01*
X034476Y011587D01*
X034448Y011575D01*
X034317Y011444D01*
X034284Y011364D01*
X034284Y011396D02*
X034297Y011396D01*
X034225Y011555D02*
X034428Y011555D01*
X033255Y010762D02*
X033215Y010762D01*
X034712Y010393D02*
X035164Y009940D01*
X035164Y006219D01*
X034712Y005767D01*
X034259Y005432D02*
X034712Y004979D01*
X034122Y004264D02*
X035301Y004264D01*
X035518Y004105D02*
X033905Y004105D01*
X033377Y004105D02*
X033094Y004105D01*
X033216Y005215D02*
X033255Y005215D01*
X035799Y003947D02*
X024766Y003947D01*
X024766Y003788D02*
X035799Y003788D01*
X030320Y007989D02*
X030282Y007952D01*
X030245Y007989D01*
X030282Y008027D01*
X030320Y007989D01*
X027367Y007989D02*
X027330Y007952D01*
X027292Y007989D01*
X027330Y008027D01*
X027367Y007989D01*
X025081Y006876D02*
X025081Y005416D01*
X025124Y005313D01*
X025388Y005049D01*
X025388Y004911D01*
X025328Y005056D01*
X025147Y005237D01*
X024910Y005335D01*
X024766Y005335D01*
X024766Y006805D01*
X024910Y006805D01*
X025081Y006876D01*
X025081Y006800D02*
X024766Y006800D01*
X024766Y006641D02*
X025081Y006641D01*
X025081Y006483D02*
X024766Y006483D01*
X024766Y006324D02*
X025081Y006324D01*
X025081Y006166D02*
X024766Y006166D01*
X024766Y006007D02*
X025081Y006007D01*
X025081Y005849D02*
X024766Y005849D01*
X024766Y005690D02*
X025081Y005690D01*
X025081Y005532D02*
X024766Y005532D01*
X024766Y005373D02*
X025099Y005373D01*
X025169Y005215D02*
X025222Y005215D01*
X025327Y005056D02*
X025380Y005056D01*
X024456Y003471D02*
X003393Y003471D01*
X003703Y003788D02*
X004049Y003788D01*
X004049Y003947D02*
X003703Y003947D01*
X003703Y004105D02*
X004074Y004105D01*
X004140Y004264D02*
X003703Y004264D01*
X003703Y004422D02*
X004289Y004422D01*
X005075Y005532D02*
X005128Y005532D01*
X009940Y004534D02*
X010393Y004987D01*
X011670Y005532D02*
X011744Y005532D01*
X014930Y007989D02*
X014968Y007952D01*
X015005Y007989D01*
X014968Y008027D01*
X014930Y007989D01*
X013381Y008385D02*
X013279Y008385D01*
X016444Y005767D02*
X016897Y006219D01*
X017920Y007952D02*
X017883Y007989D01*
X017920Y008027D01*
X017958Y007989D01*
X017920Y007952D01*
X019224Y008385D02*
X019287Y008385D01*
X020835Y007989D02*
X020873Y007952D01*
X020911Y007989D01*
X020873Y008027D01*
X020835Y007989D01*
X020732Y004105D02*
X021014Y004105D01*
X008027Y009416D02*
X007989Y009379D01*
X007952Y009416D01*
X007989Y009454D01*
X008027Y009416D01*
X015864Y013230D02*
X015879Y013245D01*
X015977Y013481D01*
X015977Y013532D01*
X016010Y013452D01*
X016141Y013321D01*
X016312Y013250D01*
X016497Y013250D01*
X016668Y013321D01*
X016799Y013452D01*
X016832Y013532D01*
X016832Y013481D01*
X016930Y013245D01*
X016945Y013230D01*
X015864Y013230D01*
X015901Y013298D02*
X016194Y013298D01*
X016008Y013457D02*
X015966Y013457D01*
X015990Y013932D02*
X015896Y013932D01*
X015761Y014091D02*
X016121Y014091D01*
X016405Y013716D02*
X016857Y014168D01*
X016857Y019464D01*
X016405Y019916D01*
X015857Y020589D02*
X016952Y020589D01*
X017110Y020748D02*
X015699Y020748D01*
X014969Y020748D02*
X014888Y020748D01*
X017840Y020748D02*
X017921Y020748D01*
X018651Y020748D02*
X020063Y020748D01*
X019905Y020589D02*
X018810Y020589D01*
X017971Y019638D02*
X017791Y019638D01*
X018905Y018676D02*
X018905Y014956D01*
X019357Y014503D01*
X020090Y014566D02*
X021844Y014566D01*
X021844Y014573D02*
X021844Y014410D01*
X021915Y014239D01*
X022045Y014109D01*
X021915Y013979D01*
X021848Y013818D01*
X021784Y013973D01*
X021603Y014154D01*
X021367Y014252D01*
X021111Y014252D01*
X020875Y014154D01*
X020834Y014113D01*
X020792Y014154D01*
X020556Y014252D01*
X020300Y014252D01*
X020090Y014165D01*
X020090Y015809D01*
X020300Y015722D01*
X020556Y015722D01*
X020792Y015820D01*
X020834Y015861D01*
X020875Y015820D01*
X021111Y015722D01*
X021367Y015722D01*
X021577Y015809D01*
X021577Y014900D01*
X021620Y014797D01*
X021699Y014718D01*
X021844Y014573D01*
X021845Y014408D02*
X020090Y014408D01*
X020090Y014249D02*
X020294Y014249D01*
X020563Y014249D02*
X021105Y014249D01*
X021374Y014249D02*
X021911Y014249D01*
X022027Y014091D02*
X021667Y014091D01*
X021801Y013932D02*
X021896Y013932D01*
X021882Y013532D02*
X021915Y013452D01*
X022046Y013321D01*
X022217Y013250D01*
X022403Y013250D01*
X022574Y013321D01*
X022705Y013452D01*
X022738Y013532D01*
X022738Y013481D01*
X022836Y013245D01*
X022851Y013230D01*
X021769Y013230D01*
X021784Y013245D01*
X021882Y013481D01*
X021882Y013532D01*
X021872Y013457D02*
X021913Y013457D01*
X021806Y013298D02*
X022100Y013298D01*
X022520Y013298D02*
X022814Y013298D01*
X022748Y013457D02*
X022707Y013457D01*
X022310Y013716D02*
X022802Y014208D01*
X023082Y014181D02*
X023082Y015793D01*
X023253Y015722D01*
X023398Y015722D01*
X023398Y014252D01*
X023253Y014252D01*
X023082Y014181D01*
X023082Y014249D02*
X023247Y014249D01*
X023398Y014408D02*
X023082Y014408D01*
X023082Y014566D02*
X023398Y014566D01*
X023398Y014725D02*
X023082Y014725D01*
X023082Y014883D02*
X023398Y014883D01*
X023398Y015042D02*
X023082Y015042D01*
X023082Y015200D02*
X023398Y015200D01*
X023398Y015359D02*
X023082Y015359D01*
X023082Y015517D02*
X023398Y015517D01*
X023398Y015676D02*
X023082Y015676D01*
X021577Y015676D02*
X020090Y015676D01*
X020090Y015517D02*
X021577Y015517D01*
X021577Y015359D02*
X020090Y015359D01*
X020090Y015200D02*
X021577Y015200D01*
X021577Y015042D02*
X020090Y015042D01*
X020090Y014883D02*
X021584Y014883D01*
X021692Y014725D02*
X020090Y014725D01*
X020807Y015834D02*
X020861Y015834D01*
X020834Y016869D02*
X020796Y016906D01*
X020834Y016944D01*
X020834Y016944D01*
X020871Y016906D01*
X020834Y016869D01*
X019530Y016944D02*
X019185Y016944D01*
X019185Y017102D02*
X019530Y017102D01*
X019528Y017141D02*
X019530Y017142D01*
X019530Y016490D01*
X019528Y016491D01*
X019462Y016513D01*
X019392Y016524D01*
X019366Y016524D01*
X019366Y016086D01*
X019349Y016086D01*
X019349Y016524D01*
X019322Y016524D01*
X019253Y016513D01*
X019186Y016491D01*
X019185Y016490D01*
X019185Y017142D01*
X019186Y017141D01*
X019253Y017119D01*
X019322Y017108D01*
X019349Y017108D01*
X019349Y017546D01*
X019366Y017546D01*
X019366Y017108D01*
X019392Y017108D01*
X019462Y017119D01*
X019528Y017141D01*
X019366Y017261D02*
X019349Y017261D01*
X019349Y017419D02*
X019366Y017419D01*
X019357Y017554D02*
X019357Y016078D01*
X019349Y016151D02*
X019366Y016151D01*
X019349Y016310D02*
X019366Y016310D01*
X019349Y016468D02*
X019366Y016468D01*
X019530Y016627D02*
X019185Y016627D01*
X019185Y016785D02*
X019530Y016785D01*
X020090Y018053D02*
X020210Y018053D01*
X020646Y018053D02*
X021021Y018053D01*
X019357Y019129D02*
X018905Y018676D01*
X020744Y019638D02*
X020924Y019638D01*
X020874Y020748D02*
X020793Y020748D01*
X023708Y021267D02*
X024456Y021267D01*
X036109Y021267D01*
X036109Y012920D01*
X035116Y013230D02*
X034924Y013230D01*
X035028Y013334D01*
X035061Y013414D01*
X035061Y013363D01*
X035116Y013230D01*
X035088Y013298D02*
X034993Y013298D01*
X034633Y013597D02*
X035125Y014090D01*
X035125Y019306D01*
X034633Y019798D01*
X034115Y020431D02*
X035151Y020431D01*
X035298Y020589D02*
X033967Y020589D01*
X033344Y019480D02*
X032969Y019480D01*
X032198Y020431D02*
X031162Y020431D01*
X031015Y020589D02*
X032346Y020589D01*
X030391Y019480D02*
X030016Y019480D01*
X030204Y020589D02*
X030204Y020589D01*
X029393Y020589D02*
X028062Y020589D01*
X028209Y020431D02*
X029245Y020431D01*
X027251Y020589D02*
X027251Y020589D01*
X027161Y017895D02*
X027341Y017895D01*
X030166Y016788D02*
X030204Y016826D01*
X030241Y016788D01*
X030204Y016751D01*
X030166Y016788D01*
X030169Y016785D02*
X030238Y016785D01*
X030308Y015676D02*
X030100Y015676D01*
X029497Y015676D02*
X029460Y015676D01*
X028275Y014838D02*
X028727Y014385D01*
X028363Y014091D02*
X027888Y014091D01*
X028124Y013932D02*
X028404Y013932D01*
X028296Y013774D02*
X028235Y013774D01*
X027425Y014091D02*
X027077Y014091D01*
X029019Y013230D02*
X029210Y013230D01*
X029155Y013363D01*
X029155Y013414D01*
X029122Y013334D01*
X029019Y013230D01*
X029087Y013298D02*
X029182Y013298D01*
X031197Y013230D02*
X031252Y013363D01*
X031252Y013414D01*
X031285Y013334D01*
X031389Y013230D01*
X031197Y013230D01*
X031225Y013298D02*
X031320Y013298D01*
X031972Y013230D02*
X032163Y013230D01*
X032108Y013363D01*
X032108Y013414D01*
X032075Y013334D01*
X031972Y013230D01*
X032040Y013298D02*
X032135Y013298D01*
X032413Y014091D02*
X032519Y014091D01*
X032413Y014249D02*
X034185Y014249D01*
X034268Y014091D02*
X033794Y014091D01*
X034030Y013932D02*
X034309Y013932D01*
X034202Y013774D02*
X034141Y013774D01*
X034205Y013414D02*
X034238Y013334D01*
X034341Y013230D01*
X034150Y013230D01*
X034205Y013363D01*
X034205Y013414D01*
X034178Y013298D02*
X034273Y013298D01*
X033330Y014091D02*
X032983Y014091D01*
X031680Y014385D02*
X031227Y014838D01*
X031227Y018558D01*
X031680Y019011D01*
X033066Y017895D02*
X033247Y017895D01*
X033156Y016826D02*
X033194Y016788D01*
X033156Y016751D01*
X033119Y016788D01*
X033156Y016826D01*
X033122Y016785D02*
X033191Y016785D01*
X035405Y015675D02*
X035576Y015604D01*
X035799Y015604D01*
X035799Y014134D01*
X035576Y014134D01*
X035405Y014063D01*
X035405Y015675D01*
X035405Y015517D02*
X035799Y015517D01*
X035799Y015359D02*
X035405Y015359D01*
X035405Y015200D02*
X035799Y015200D01*
X035799Y015042D02*
X035405Y015042D01*
X035405Y014883D02*
X035799Y014883D01*
X035799Y014725D02*
X035405Y014725D01*
X035405Y014566D02*
X035799Y014566D01*
X035799Y014408D02*
X035405Y014408D01*
X035405Y014249D02*
X035799Y014249D01*
X035472Y014091D02*
X035405Y014091D01*
X016908Y013298D02*
X016615Y013298D01*
X016802Y013457D02*
X016843Y013457D01*
D11*
X016405Y013716D03*
X016405Y014503D03*
X016405Y015290D03*
X016405Y016078D03*
X016405Y017554D03*
X016405Y018342D03*
X016405Y019129D03*
X016405Y019916D03*
X019357Y019916D03*
X019357Y019129D03*
X019357Y018342D03*
X019357Y017554D03*
X019357Y016078D03*
X019357Y015290D03*
X019357Y014503D03*
X019357Y013716D03*
X022310Y013716D03*
X022310Y014503D03*
X022310Y015290D03*
X022310Y016078D03*
X022310Y017554D03*
X022310Y018342D03*
X022310Y019129D03*
X022310Y019916D03*
X025775Y019798D03*
X025775Y019011D03*
X025775Y018223D03*
X025775Y017436D03*
X025775Y015960D03*
X025775Y015172D03*
X025775Y014385D03*
X025775Y013597D03*
X028727Y013597D03*
X028727Y014385D03*
X028727Y015172D03*
X028727Y015960D03*
X028727Y017436D03*
X028727Y018223D03*
X028727Y019011D03*
X028727Y019798D03*
X031680Y019798D03*
X031680Y019011D03*
X031680Y018223D03*
X031680Y017436D03*
X031680Y015960D03*
X031680Y015172D03*
X031680Y014385D03*
X031680Y013597D03*
X034633Y013597D03*
X034633Y014385D03*
X034633Y015172D03*
X034633Y015960D03*
X034633Y017436D03*
X034633Y018223D03*
X034633Y019011D03*
X034633Y019798D03*
X034712Y011180D03*
X034712Y010393D03*
X034712Y009605D03*
X034712Y008818D03*
X034712Y007342D03*
X034712Y006554D03*
X034712Y005767D03*
X034712Y004979D03*
X031759Y004979D03*
X031759Y005767D03*
X031759Y006554D03*
X031759Y007342D03*
X031759Y008818D03*
X031759Y009605D03*
X031759Y010393D03*
X031759Y011180D03*
X028806Y011180D03*
X028806Y010393D03*
X028806Y009605D03*
X028806Y008818D03*
X028806Y007342D03*
X028806Y006554D03*
X028806Y005767D03*
X028806Y004979D03*
X025853Y004979D03*
X025853Y005767D03*
X025853Y006554D03*
X025853Y007342D03*
X025853Y008818D03*
X025853Y009605D03*
X025853Y010393D03*
X025853Y011180D03*
X022349Y011180D03*
X022349Y010393D03*
X022349Y009605D03*
X022349Y008818D03*
X022349Y007342D03*
X022349Y006554D03*
X022349Y005767D03*
X022349Y004979D03*
X019397Y004979D03*
X019397Y005767D03*
X019397Y006554D03*
X019397Y007342D03*
X019397Y008818D03*
X019397Y009605D03*
X019397Y010393D03*
X019397Y011180D03*
X016444Y011180D03*
X016444Y010393D03*
X016444Y009605D03*
X016444Y008818D03*
X016444Y007342D03*
X016444Y006554D03*
X016444Y005767D03*
X016444Y004979D03*
X013491Y004979D03*
X013491Y005767D03*
X013491Y006554D03*
X013491Y007342D03*
X013491Y008818D03*
X013491Y009605D03*
X013491Y010393D03*
X013491Y011180D03*
X011180Y010893D03*
X010393Y010893D03*
X009605Y010893D03*
X008818Y010893D03*
X007342Y010893D03*
X006554Y010893D03*
X005767Y010893D03*
X004979Y010893D03*
X004979Y013845D03*
X005767Y013845D03*
X006554Y013845D03*
X007342Y013845D03*
X008818Y013845D03*
X009605Y013845D03*
X010393Y013845D03*
X011180Y013845D03*
X013452Y013716D03*
X013452Y014503D03*
X013452Y015290D03*
X013452Y016078D03*
X013452Y017554D03*
X013452Y018342D03*
X013452Y019129D03*
X013452Y019916D03*
X011180Y007940D03*
X010393Y007940D03*
X009605Y007940D03*
X008818Y007940D03*
X007342Y007940D03*
X006554Y007940D03*
X005767Y007940D03*
X004979Y007940D03*
X004979Y004987D03*
X005767Y004987D03*
X006554Y004987D03*
X007342Y004987D03*
X008818Y004987D03*
X009605Y004987D03*
X010393Y004987D03*
X011180Y004987D03*
D12*
X012420Y004692D03*
X011286Y003916D03*
X008531Y003916D03*
X007448Y003916D03*
X004692Y003916D03*
X004692Y006058D03*
X004692Y006869D03*
X007448Y006869D03*
X007448Y006058D03*
X008531Y006058D03*
X008531Y006869D03*
X011286Y006869D03*
X011286Y006058D03*
X012420Y007448D03*
X012420Y008531D03*
X011286Y009011D03*
X011286Y009822D03*
X012420Y011286D03*
X011286Y011964D03*
X011286Y012775D03*
X012381Y013609D03*
X011286Y014916D03*
X012381Y016365D03*
X012381Y017448D03*
X014523Y017448D03*
X015334Y017448D03*
X015334Y016365D03*
X014523Y016365D03*
X017475Y016365D03*
X018286Y016365D03*
X018286Y017448D03*
X017475Y017448D03*
X020428Y017448D03*
X021239Y017448D03*
X021239Y016365D03*
X020428Y016365D03*
X023381Y016365D03*
X024704Y016247D03*
X024704Y017330D03*
X023381Y017448D03*
X024704Y020086D03*
X023381Y020204D03*
X021239Y020204D03*
X020428Y020204D03*
X018286Y020204D03*
X017475Y020204D03*
X015334Y020204D03*
X014523Y020204D03*
X012381Y020204D03*
X008531Y014916D03*
X007448Y014916D03*
X007448Y012775D03*
X007448Y011964D03*
X008531Y011964D03*
X008531Y012775D03*
X004692Y012775D03*
X004692Y011964D03*
X004692Y009822D03*
X004692Y009011D03*
X007448Y009011D03*
X007448Y009822D03*
X008531Y009822D03*
X008531Y009011D03*
X014562Y008531D03*
X015373Y008531D03*
X015373Y007448D03*
X014562Y007448D03*
X017515Y007448D03*
X018326Y007448D03*
X018326Y008531D03*
X017515Y008531D03*
X020468Y008531D03*
X021279Y008531D03*
X021279Y007448D03*
X020468Y007448D03*
X023420Y007448D03*
X024782Y007448D03*
X024782Y008531D03*
X023420Y008531D03*
X026924Y008531D03*
X027735Y008531D03*
X027735Y007448D03*
X026924Y007448D03*
X029877Y007448D03*
X030688Y007448D03*
X030688Y008531D03*
X029877Y008531D03*
X032830Y008531D03*
X033641Y008531D03*
X033641Y007448D03*
X032830Y007448D03*
X035782Y007448D03*
X035782Y008531D03*
X035782Y011286D03*
X033641Y011286D03*
X032830Y011286D03*
X030688Y011286D03*
X029877Y011286D03*
X027735Y011286D03*
X026924Y011286D03*
X024782Y011286D03*
X023420Y011286D03*
X021279Y011286D03*
X020468Y011286D03*
X018326Y011286D03*
X017515Y011286D03*
X015373Y011286D03*
X014562Y011286D03*
X014523Y013609D03*
X015334Y013609D03*
X017475Y013609D03*
X018286Y013609D03*
X020428Y013609D03*
X021239Y013609D03*
X023381Y013609D03*
X024704Y013491D03*
X026845Y013491D03*
X027656Y013491D03*
X029798Y013491D03*
X030609Y013491D03*
X032751Y013491D03*
X033562Y013491D03*
X035704Y013491D03*
X035704Y016247D03*
X035704Y017330D03*
X033562Y017330D03*
X032751Y017330D03*
X032751Y016247D03*
X033562Y016247D03*
X030609Y016247D03*
X029798Y016247D03*
X029798Y017330D03*
X030609Y017330D03*
X027656Y017330D03*
X026845Y017330D03*
X026845Y016247D03*
X027656Y016247D03*
X027656Y020086D03*
X026845Y020086D03*
X029798Y020086D03*
X030609Y020086D03*
X032751Y020086D03*
X033562Y020086D03*
X035704Y020086D03*
X035782Y004692D03*
X033641Y004692D03*
X032830Y004692D03*
X030688Y004692D03*
X029877Y004692D03*
X027735Y004692D03*
X026924Y004692D03*
X024782Y004692D03*
X023420Y004692D03*
X021279Y004692D03*
X020468Y004692D03*
X018326Y004692D03*
X017515Y004692D03*
X015373Y004692D03*
X014562Y004692D03*
X004692Y014916D03*
M02*
