%
M48
M72
T01C0.0354
T02C0.0591
%
T01
X1676Y4979
X1676Y5767
X1676Y6554
X1676Y7342
X1676Y8818
X1676Y9605
X1676Y10393
X1676Y11180
X4629Y11180
X4629Y10393
X4629Y9605
X4629Y8818
X4629Y7342
X4629Y6554
X4629Y5767
X4629Y4979
X7582Y4979
X7582Y5767
X7582Y6554
X7582Y7342
X7582Y8818
X7582Y9605
X7582Y10393
X7582Y11180
X10534Y11180
X10534Y10393
X10534Y9605
X10534Y8818
X10534Y7342
X10534Y6554
X10534Y5767
X10534Y4979
T02
X605Y4692
X2747Y4692
X3558Y4692
X5700Y4692
X6511Y4692
X8652Y4692
X9463Y4692
X11605Y4692
X11605Y7448
X11605Y8531
X9463Y8531
X8652Y8531
X8652Y7448
X9463Y7448
X6511Y7448
X5700Y7448
X5700Y8531
X6511Y8531
X6511Y11286
X5700Y11286
X3558Y11286
X2747Y11286
X605Y11286
X605Y8531
X605Y7448
X2747Y7448
X3558Y7448
X3558Y8531
X2747Y8531
X8652Y11286
X9463Y11286
X11605Y11286
M30
