%
M48
M72
T01C0.0354
T02C0.0591
%
T01
X4979Y4987
X5767Y4987
X6554Y4987
X7342Y4987
X8818Y4987
X9605Y4987
X10393Y4987
X11180Y4987
X13491Y4979
X13491Y5767
X13491Y6554
X13491Y7342
X13491Y8818
X13491Y9605
X13491Y10393
X13491Y11180
X11180Y10893
X10393Y10893
X9605Y10893
X8818Y10893
X7342Y10893
X6554Y10893
X5767Y10893
X4979Y10893
X4979Y13845
X5767Y13845
X6554Y13845
X7342Y13845
X8818Y13845
X9605Y13845
X10393Y13845
X11180Y13845
X13452Y13716
X13452Y14503
X13452Y15290
X13452Y16078
X13452Y17554
X13452Y18342
X13452Y19129
X13452Y19916
X16405Y19916
X16405Y19129
X16405Y18342
X16405Y17554
X16405Y16078
X16405Y15290
X16405Y14503
X16405Y13716
X19357Y13716
X19357Y14503
X19357Y15290
X19357Y16078
X19357Y17554
X19357Y18342
X19357Y19129
X19357Y19916
X22310Y19916
X22310Y19129
X22310Y18342
X22310Y17554
X22310Y16078
X22310Y15290
X22310Y14503
X22310Y13716
X25775Y13597
X25775Y14385
X25775Y15172
X25775Y15960
X25775Y17436
X25775Y18223
X25775Y19011
X25775Y19798
X28727Y19798
X28727Y19011
X28727Y18223
X28727Y17436
X28727Y15960
X28727Y15172
X28727Y14385
X28727Y13597
X31680Y13597
X31680Y14385
X31680Y15172
X31680Y15960
X31680Y17436
X31680Y18223
X31680Y19011
X31680Y19798
X34633Y19798
X34633Y19011
X34633Y18223
X34633Y17436
X34633Y15960
X34633Y15172
X34633Y14385
X34633Y13597
X34712Y11180
X34712Y10393
X34712Y9605
X34712Y8818
X34712Y7342
X34712Y6554
X34712Y5767
X34712Y4979
X31759Y4979
X31759Y5767
X31759Y6554
X31759Y7342
X31759Y8818
X31759Y9605
X31759Y10393
X31759Y11180
X28806Y11180
X28806Y10393
X28806Y9605
X28806Y8818
X28806Y7342
X28806Y6554
X28806Y5767
X28806Y4979
X25853Y4979
X25853Y5767
X25853Y6554
X25853Y7342
X25853Y8818
X25853Y9605
X25853Y10393
X25853Y11180
X22349Y11180
X22349Y10393
X22349Y9605
X22349Y8818
X22349Y7342
X22349Y6554
X22349Y5767
X22349Y4979
X19397Y4979
X19397Y5767
X19397Y6554
X19397Y7342
X19397Y8818
X19397Y9605
X19397Y10393
X19397Y11180
X16444Y11180
X16444Y10393
X16444Y9605
X16444Y8818
X16444Y7342
X16444Y6554
X16444Y5767
X16444Y4979
X11180Y7940
X10393Y7940
X9605Y7940
X8818Y7940
X7342Y7940
X6554Y7940
X5767Y7940
X4979Y7940
T02
X4692Y3916
X7448Y3916
X8531Y3916
X11286Y3916
X12420Y4692
X11286Y6058
X11286Y6869
X12420Y7448
X12420Y8531
X11286Y9011
X11286Y9822
X12420Y11286
X11286Y11964
X11286Y12775
X12381Y13609
X11286Y14916
X12381Y16365
X12381Y17448
X14523Y17448
X15334Y17448
X15334Y16365
X14523Y16365
X17475Y16365
X18286Y16365
X18286Y17448
X17475Y17448
X20428Y17448
X21239Y17448
X21239Y16365
X20428Y16365
X23381Y16365
X24704Y16247
X24704Y17330
X23381Y17448
X24704Y20086
X23381Y20204
X21239Y20204
X20428Y20204
X18286Y20204
X17475Y20204
X15334Y20204
X14523Y20204
X12381Y20204
X8531Y14916
X7448Y14916
X7448Y12775
X7448Y11964
X8531Y11964
X8531Y12775
X4692Y12775
X4692Y11964
X4692Y9822
X4692Y9011
X7448Y9011
X7448Y9822
X8531Y9822
X8531Y9011
X8531Y6869
X8531Y6058
X7448Y6058
X7448Y6869
X4692Y6869
X4692Y6058
X14562Y4692
X15373Y4692
X17515Y4692
X18326Y4692
X20468Y4692
X21279Y4692
X23420Y4692
X24782Y4692
X26924Y4692
X27735Y4692
X29877Y4692
X30688Y4692
X32830Y4692
X33641Y4692
X35782Y4692
X35782Y7448
X35782Y8531
X33641Y8531
X32830Y8531
X32830Y7448
X33641Y7448
X30688Y7448
X29877Y7448
X29877Y8531
X30688Y8531
X27735Y8531
X26924Y8531
X26924Y7448
X27735Y7448
X24782Y7448
X23420Y7448
X23420Y8531
X24782Y8531
X21279Y8531
X20468Y8531
X20468Y7448
X21279Y7448
X18326Y7448
X17515Y7448
X17515Y8531
X18326Y8531
X15373Y8531
X14562Y8531
X14562Y7448
X15373Y7448
X15373Y11286
X14562Y11286
X17515Y11286
X18326Y11286
X20468Y11286
X21279Y11286
X23420Y11286
X24782Y11286
X26924Y11286
X27735Y11286
X29877Y11286
X30688Y11286
X32830Y11286
X33641Y11286
X35782Y11286
X35704Y13491
X33562Y13491
X32751Y13491
X30609Y13491
X29798Y13491
X27656Y13491
X26845Y13491
X24704Y13491
X23381Y13609
X21239Y13609
X20428Y13609
X18286Y13609
X17475Y13609
X15334Y13609
X14523Y13609
X4692Y14916
X26845Y16247
X27656Y16247
X27656Y17330
X26845Y17330
X29798Y17330
X30609Y17330
X30609Y16247
X29798Y16247
X32751Y16247
X33562Y16247
X33562Y17330
X32751Y17330
X35704Y17330
X35704Y16247
X35704Y20086
X33562Y20086
X32751Y20086
X30609Y20086
X29798Y20086
X27656Y20086
X26845Y20086
M30
