G75*
%MOIN*%
%OFA0B0*%
%FSLAX24Y24*%
%IPPOS*%
%LPD*%
%AMOC8*
5,1,8,0,0,1.08239X$1,22.5*
%
%ADD10C,0.0160*%
%ADD11C,0.0531*%
%ADD12C,0.0886*%
D10*
X000180Y003432D02*
X011991Y003432D01*
X011991Y011936D01*
X000180Y011936D01*
X000180Y003432D01*
X000490Y003742D02*
X000490Y004109D01*
X000721Y004109D01*
X000935Y004198D01*
X001099Y004362D01*
X001188Y004576D01*
X001188Y004808D01*
X001099Y005022D01*
X000935Y005186D01*
X000721Y005275D01*
X000490Y005275D01*
X000490Y006865D01*
X000721Y006865D01*
X000935Y006954D01*
X001099Y007118D01*
X001188Y007332D01*
X001188Y007564D01*
X001099Y007778D01*
X000935Y007942D01*
X000822Y007989D01*
X000935Y008036D01*
X001099Y008200D01*
X001188Y008415D01*
X001188Y008646D01*
X001099Y008861D01*
X000935Y009025D01*
X000721Y009113D01*
X000490Y009113D01*
X000490Y010704D01*
X000721Y010704D01*
X000935Y010792D01*
X001099Y010956D01*
X001188Y011170D01*
X001188Y011402D01*
X001099Y011617D01*
X001090Y011626D01*
X002262Y011626D01*
X002253Y011617D01*
X002164Y011402D01*
X002164Y011170D01*
X002253Y010956D01*
X002417Y010792D01*
X002631Y010704D01*
X002863Y010704D01*
X003077Y010792D01*
X003152Y010868D01*
X003228Y010792D01*
X003442Y010704D01*
X003674Y010704D01*
X003888Y010792D01*
X004052Y010956D01*
X004141Y011170D01*
X004141Y011402D01*
X004052Y011617D01*
X004043Y011626D01*
X005215Y011626D01*
X005206Y011617D01*
X005117Y011402D01*
X005117Y011170D01*
X005206Y010956D01*
X005369Y010792D01*
X005584Y010704D01*
X005816Y010704D01*
X006030Y010792D01*
X006105Y010868D01*
X006181Y010792D01*
X006395Y010704D01*
X006627Y010704D01*
X006841Y010792D01*
X007005Y010956D01*
X007094Y011170D01*
X007094Y011402D01*
X007005Y011617D01*
X006995Y011626D01*
X008168Y011626D01*
X008158Y011617D01*
X008070Y011402D01*
X008070Y011170D01*
X008158Y010956D01*
X008322Y010792D01*
X008536Y010704D01*
X008768Y010704D01*
X008983Y010792D01*
X009058Y010868D01*
X009133Y010792D01*
X009348Y010704D01*
X009579Y010704D01*
X009794Y010792D01*
X009958Y010956D01*
X010046Y011170D01*
X010046Y011402D01*
X009958Y011617D01*
X009948Y011626D01*
X011120Y011626D01*
X011111Y011617D01*
X011022Y011402D01*
X011022Y011170D01*
X011111Y010956D01*
X011275Y010792D01*
X011489Y010704D01*
X011681Y010704D01*
X011681Y009113D01*
X011489Y009113D01*
X011275Y009025D01*
X011207Y008957D01*
X011207Y009244D01*
X010936Y009515D01*
X010940Y009525D01*
X010940Y009686D01*
X010878Y009835D01*
X010764Y009949D01*
X010644Y009999D01*
X010764Y010049D01*
X010878Y010163D01*
X010940Y010312D01*
X010940Y010473D01*
X010878Y010623D01*
X010764Y010737D01*
X010644Y010786D01*
X010764Y010836D01*
X010878Y010950D01*
X010940Y011099D01*
X010940Y011261D01*
X010878Y011410D01*
X010764Y011524D01*
X010615Y011586D01*
X010454Y011586D01*
X010304Y011524D01*
X010190Y011410D01*
X010129Y011261D01*
X010129Y011099D01*
X010190Y010950D01*
X010304Y010836D01*
X010425Y010786D01*
X010304Y010737D01*
X010190Y010623D01*
X010129Y010473D01*
X010129Y010312D01*
X010190Y010163D01*
X010304Y010049D01*
X010425Y009999D01*
X010304Y009949D01*
X010190Y009835D01*
X010129Y009686D01*
X010129Y009525D01*
X010190Y009375D01*
X010304Y009261D01*
X010425Y009212D01*
X010304Y009162D01*
X010190Y009048D01*
X010129Y008899D01*
X010129Y008737D01*
X010190Y008588D01*
X010304Y008474D01*
X010454Y008412D01*
X010615Y008412D01*
X010764Y008474D01*
X010767Y008477D01*
X010767Y007683D01*
X010764Y007686D01*
X010615Y007747D01*
X010454Y007747D01*
X010304Y007686D01*
X010190Y007571D01*
X010129Y007422D01*
X010129Y007261D01*
X010190Y007112D01*
X010304Y006998D01*
X010425Y006948D01*
X010304Y006898D01*
X010190Y006784D01*
X010129Y006635D01*
X010129Y006473D01*
X010190Y006324D01*
X010304Y006210D01*
X010425Y006160D01*
X010304Y006111D01*
X010190Y005997D01*
X010129Y005847D01*
X010129Y005686D01*
X010190Y005537D01*
X010304Y005423D01*
X010425Y005373D01*
X010304Y005323D01*
X010190Y005209D01*
X010129Y005060D01*
X010129Y004899D01*
X010190Y004749D01*
X010304Y004635D01*
X010454Y004574D01*
X010615Y004574D01*
X010764Y004635D01*
X010878Y004749D01*
X010940Y004899D01*
X010940Y005060D01*
X010878Y005209D01*
X010764Y005323D01*
X010644Y005373D01*
X010764Y005423D01*
X010878Y005537D01*
X010940Y005686D01*
X010940Y005847D01*
X010878Y005997D01*
X010764Y006111D01*
X010644Y006160D01*
X010764Y006210D01*
X010878Y006324D01*
X010940Y006473D01*
X010940Y006635D01*
X010936Y006645D01*
X011078Y006787D01*
X011207Y006916D01*
X011207Y007022D01*
X011275Y006954D01*
X011489Y006865D01*
X011681Y006865D01*
X011681Y005275D01*
X011489Y005275D01*
X011275Y005186D01*
X011111Y005022D01*
X011022Y004808D01*
X011022Y004576D01*
X011111Y004362D01*
X011275Y004198D01*
X011489Y004109D01*
X011681Y004109D01*
X011681Y003742D01*
X000490Y003742D01*
X000490Y003788D02*
X011681Y003788D01*
X011681Y003947D02*
X000490Y003947D01*
X000490Y004105D02*
X011681Y004105D01*
X011209Y004264D02*
X009860Y004264D01*
X009794Y004198D02*
X009958Y004362D01*
X010046Y004576D01*
X010046Y004808D01*
X009958Y005022D01*
X009794Y005186D01*
X009579Y005275D01*
X009348Y005275D01*
X009133Y005186D01*
X009058Y005111D01*
X008983Y005186D01*
X008768Y005275D01*
X008536Y005275D01*
X008322Y005186D01*
X008158Y005022D01*
X008070Y004808D01*
X008070Y004576D01*
X008158Y004362D01*
X008322Y004198D01*
X008536Y004109D01*
X008768Y004109D01*
X008983Y004198D01*
X009058Y004273D01*
X009133Y004198D01*
X009348Y004109D01*
X009579Y004109D01*
X009794Y004198D01*
X009983Y004422D02*
X011086Y004422D01*
X011022Y004581D02*
X010633Y004581D01*
X010436Y004581D02*
X010046Y004581D01*
X010046Y004739D02*
X010200Y004739D01*
X010129Y004898D02*
X010009Y004898D01*
X009923Y005056D02*
X010129Y005056D01*
X010196Y005215D02*
X009724Y005215D01*
X009203Y005215D02*
X008913Y005215D01*
X008392Y005215D02*
X007920Y005215D01*
X007926Y005209D02*
X007811Y005323D01*
X007691Y005373D01*
X007811Y005423D01*
X007926Y005537D01*
X007987Y005686D01*
X007987Y005847D01*
X007926Y005997D01*
X007811Y006111D01*
X007691Y006160D01*
X007811Y006210D01*
X007926Y006324D01*
X007987Y006473D01*
X007987Y006635D01*
X007983Y006645D01*
X008125Y006787D01*
X008254Y006916D01*
X008254Y007022D01*
X008322Y006954D01*
X008536Y006865D01*
X008768Y006865D01*
X008983Y006954D01*
X009058Y007029D01*
X009133Y006954D01*
X009348Y006865D01*
X009579Y006865D01*
X009794Y006954D01*
X009958Y007118D01*
X010046Y007332D01*
X010046Y007564D01*
X009958Y007778D01*
X009794Y007942D01*
X009680Y007989D01*
X009794Y008036D01*
X009958Y008200D01*
X010046Y008415D01*
X010046Y008646D01*
X009958Y008861D01*
X009794Y009025D01*
X009579Y009113D01*
X009348Y009113D01*
X009133Y009025D01*
X009058Y008949D01*
X008983Y009025D01*
X008768Y009113D01*
X008536Y009113D01*
X008322Y009025D01*
X008254Y008957D01*
X008254Y009244D01*
X007983Y009515D01*
X007987Y009525D01*
X007987Y009686D01*
X007926Y009835D01*
X007811Y009949D01*
X007691Y009999D01*
X007811Y010049D01*
X007926Y010163D01*
X007987Y010312D01*
X007987Y010473D01*
X007926Y010623D01*
X007811Y010737D01*
X007691Y010786D01*
X007811Y010836D01*
X007926Y010950D01*
X007987Y011099D01*
X007987Y011261D01*
X007926Y011410D01*
X007811Y011524D01*
X007662Y011586D01*
X007501Y011586D01*
X007352Y011524D01*
X007238Y011410D01*
X007176Y011261D01*
X007176Y011099D01*
X007238Y010950D01*
X007352Y010836D01*
X007472Y010786D01*
X007352Y010737D01*
X007238Y010623D01*
X007176Y010473D01*
X007176Y010312D01*
X007238Y010163D01*
X007352Y010049D01*
X007472Y009999D01*
X007352Y009949D01*
X007238Y009835D01*
X007176Y009686D01*
X007176Y009525D01*
X007238Y009375D01*
X007352Y009261D01*
X007472Y009212D01*
X007352Y009162D01*
X007238Y009048D01*
X007176Y008899D01*
X007176Y008737D01*
X007238Y008588D01*
X007352Y008474D01*
X007501Y008412D01*
X007662Y008412D01*
X007811Y008474D01*
X007814Y008477D01*
X007814Y007683D01*
X007811Y007686D01*
X007662Y007747D01*
X007501Y007747D01*
X007352Y007686D01*
X007238Y007571D01*
X007176Y007422D01*
X007176Y007261D01*
X007238Y007112D01*
X007352Y006998D01*
X007472Y006948D01*
X007352Y006898D01*
X007238Y006784D01*
X007176Y006635D01*
X007176Y006473D01*
X007238Y006324D01*
X007352Y006210D01*
X007472Y006160D01*
X007352Y006111D01*
X007238Y005997D01*
X007176Y005847D01*
X007176Y005686D01*
X007238Y005537D01*
X007352Y005423D01*
X007472Y005373D01*
X007352Y005323D01*
X007238Y005209D01*
X007176Y005060D01*
X007176Y004899D01*
X007238Y004749D01*
X007352Y004635D01*
X007501Y004574D01*
X007662Y004574D01*
X007811Y004635D01*
X007926Y004749D01*
X007987Y004899D01*
X007987Y005060D01*
X007926Y005209D01*
X007987Y005056D02*
X008193Y005056D01*
X008107Y004898D02*
X007987Y004898D01*
X007916Y004739D02*
X008070Y004739D01*
X008070Y004581D02*
X007680Y004581D01*
X007483Y004581D02*
X007094Y004581D01*
X007094Y004576D02*
X007094Y004808D01*
X007005Y005022D01*
X006841Y005186D01*
X006627Y005275D01*
X006395Y005275D01*
X006181Y005186D01*
X006105Y005111D01*
X006030Y005186D01*
X005816Y005275D01*
X005584Y005275D01*
X005369Y005186D01*
X005206Y005022D01*
X005117Y004808D01*
X005117Y004576D01*
X005206Y004362D01*
X005369Y004198D01*
X005584Y004109D01*
X005816Y004109D01*
X006030Y004198D01*
X006105Y004273D01*
X006181Y004198D01*
X006395Y004109D01*
X006627Y004109D01*
X006841Y004198D01*
X007005Y004362D01*
X007094Y004576D01*
X007030Y004422D02*
X008133Y004422D01*
X008256Y004264D02*
X006907Y004264D01*
X007094Y004739D02*
X007248Y004739D01*
X007176Y004898D02*
X007056Y004898D01*
X006971Y005056D02*
X007176Y005056D01*
X007243Y005215D02*
X006771Y005215D01*
X007176Y005690D02*
X005035Y005690D01*
X005035Y005686D02*
X005035Y005847D01*
X004973Y005997D01*
X004859Y006111D01*
X004739Y006160D01*
X004859Y006210D01*
X004973Y006324D01*
X005035Y006473D01*
X005035Y006635D01*
X005030Y006645D01*
X005173Y006787D01*
X005302Y006916D01*
X005302Y007022D01*
X005369Y006954D01*
X005584Y006865D01*
X005816Y006865D01*
X006030Y006954D01*
X006105Y007029D01*
X006181Y006954D01*
X006395Y006865D01*
X006627Y006865D01*
X006841Y006954D01*
X007005Y007118D01*
X007094Y007332D01*
X007094Y007564D01*
X007005Y007778D01*
X006841Y007942D01*
X006727Y007989D01*
X006841Y008036D01*
X007005Y008200D01*
X007094Y008415D01*
X007094Y008646D01*
X007005Y008861D01*
X006841Y009025D01*
X006627Y009113D01*
X006395Y009113D01*
X006181Y009025D01*
X006105Y008949D01*
X006030Y009025D01*
X005816Y009113D01*
X005584Y009113D01*
X005369Y009025D01*
X005302Y008957D01*
X005302Y009244D01*
X005030Y009515D01*
X005035Y009525D01*
X005035Y009686D01*
X004973Y009835D01*
X004859Y009949D01*
X004739Y009999D01*
X004859Y010049D01*
X004973Y010163D01*
X005035Y010312D01*
X005035Y010473D01*
X004973Y010623D01*
X004859Y010737D01*
X004739Y010786D01*
X004859Y010836D01*
X004973Y010950D01*
X005035Y011099D01*
X005035Y011261D01*
X004973Y011410D01*
X004859Y011524D01*
X004710Y011586D01*
X004548Y011586D01*
X004399Y011524D01*
X004285Y011410D01*
X004223Y011261D01*
X004223Y011099D01*
X004285Y010950D01*
X004399Y010836D01*
X004519Y010786D01*
X004399Y010737D01*
X004285Y010623D01*
X004223Y010473D01*
X004223Y010312D01*
X004285Y010163D01*
X004399Y010049D01*
X004519Y009999D01*
X004399Y009949D01*
X004285Y009835D01*
X004223Y009686D01*
X004223Y009525D01*
X004285Y009375D01*
X004399Y009261D01*
X004519Y009212D01*
X004399Y009162D01*
X004285Y009048D01*
X004223Y008899D01*
X004223Y008737D01*
X004285Y008588D01*
X004399Y008474D01*
X004548Y008412D01*
X004710Y008412D01*
X004859Y008474D01*
X004862Y008477D01*
X004862Y007683D01*
X004859Y007686D01*
X004710Y007747D01*
X004548Y007747D01*
X004399Y007686D01*
X004285Y007571D01*
X004223Y007422D01*
X004223Y007261D01*
X004285Y007112D01*
X004399Y006998D01*
X004519Y006948D01*
X004399Y006898D01*
X004285Y006784D01*
X004223Y006635D01*
X004223Y006473D01*
X004285Y006324D01*
X004399Y006210D01*
X004519Y006160D01*
X004399Y006111D01*
X004285Y005997D01*
X004223Y005847D01*
X004223Y005686D01*
X004285Y005537D01*
X004399Y005423D01*
X004519Y005373D01*
X004399Y005323D01*
X004285Y005209D01*
X004223Y005060D01*
X004223Y004899D01*
X004285Y004749D01*
X004399Y004635D01*
X004548Y004574D01*
X004710Y004574D01*
X004859Y004635D01*
X004973Y004749D01*
X005035Y004899D01*
X005035Y005060D01*
X004973Y005209D01*
X004859Y005323D01*
X004739Y005373D01*
X004859Y005423D01*
X004973Y005537D01*
X005035Y005686D01*
X004968Y005532D02*
X007243Y005532D01*
X007471Y005373D02*
X004740Y005373D01*
X004518Y005373D02*
X001787Y005373D01*
X001786Y005373D02*
X001906Y005423D01*
X002020Y005537D01*
X002082Y005686D01*
X002082Y005847D01*
X002020Y005997D01*
X001906Y006111D01*
X001839Y006138D01*
X001847Y006141D01*
X001910Y006173D01*
X001966Y006214D01*
X002016Y006264D01*
X002057Y006321D01*
X002089Y006383D01*
X002111Y006450D01*
X002122Y006519D01*
X002122Y006546D01*
X001685Y006546D01*
X001685Y006563D01*
X002122Y006563D01*
X002122Y006589D01*
X002111Y006659D01*
X002089Y006725D01*
X002057Y006788D01*
X002016Y006845D01*
X001966Y006894D01*
X001910Y006935D01*
X001847Y006967D01*
X001839Y006970D01*
X001906Y006998D01*
X002020Y007112D01*
X002082Y007261D01*
X002082Y007422D01*
X002020Y007571D01*
X001906Y007686D01*
X001757Y007747D01*
X001595Y007747D01*
X001446Y007686D01*
X001332Y007571D01*
X001270Y007422D01*
X001270Y007261D01*
X001332Y007112D01*
X001446Y006998D01*
X001513Y006970D01*
X001505Y006967D01*
X001442Y006935D01*
X001386Y006894D01*
X001336Y006845D01*
X001295Y006788D01*
X001263Y006725D01*
X001241Y006659D01*
X001230Y006589D01*
X001230Y006563D01*
X001667Y006563D01*
X001667Y006546D01*
X001230Y006546D01*
X001230Y006519D01*
X001241Y006450D01*
X001263Y006383D01*
X001295Y006321D01*
X001336Y006264D01*
X001386Y006214D01*
X001442Y006173D01*
X001505Y006141D01*
X001513Y006138D01*
X001446Y006111D01*
X001332Y005997D01*
X001270Y005847D01*
X001270Y005686D01*
X001332Y005537D01*
X001446Y005423D01*
X001566Y005373D01*
X001446Y005323D01*
X001332Y005209D01*
X001270Y005060D01*
X001270Y004899D01*
X001332Y004749D01*
X001446Y004635D01*
X001595Y004574D01*
X001757Y004574D01*
X001906Y004635D01*
X002020Y004749D01*
X002082Y004899D01*
X002082Y005060D01*
X002020Y005209D01*
X001906Y005323D01*
X001786Y005373D01*
X001565Y005373D02*
X000490Y005373D01*
X000490Y005532D02*
X001337Y005532D01*
X001270Y005690D02*
X000490Y005690D01*
X000490Y005849D02*
X001271Y005849D01*
X001343Y006007D02*
X000490Y006007D01*
X000490Y006166D02*
X001456Y006166D01*
X001293Y006324D02*
X000490Y006324D01*
X000490Y006483D02*
X001236Y006483D01*
X001239Y006641D02*
X000490Y006641D01*
X000490Y006800D02*
X001304Y006800D01*
X001488Y006958D02*
X000940Y006958D01*
X001099Y007117D02*
X001330Y007117D01*
X001270Y007275D02*
X001165Y007275D01*
X001188Y007434D02*
X001275Y007434D01*
X001353Y007592D02*
X001176Y007592D01*
X001111Y007751D02*
X002242Y007751D01*
X002253Y007778D02*
X002164Y007564D01*
X002164Y007332D01*
X002253Y007118D01*
X002417Y006954D01*
X002631Y006865D01*
X002863Y006865D01*
X003077Y006954D01*
X003152Y007029D01*
X003228Y006954D01*
X003442Y006865D01*
X003674Y006865D01*
X003888Y006954D01*
X004052Y007118D01*
X004141Y007332D01*
X004141Y007564D01*
X004052Y007778D01*
X003888Y007942D01*
X003774Y007989D01*
X003888Y008036D01*
X004052Y008200D01*
X004141Y008415D01*
X004141Y008646D01*
X004052Y008861D01*
X003888Y009025D01*
X003674Y009113D01*
X003442Y009113D01*
X003228Y009025D01*
X003152Y008949D01*
X003077Y009025D01*
X002863Y009113D01*
X002631Y009113D01*
X002417Y009025D01*
X002253Y008861D01*
X002164Y008646D01*
X002164Y008415D01*
X002253Y008200D01*
X002417Y008036D01*
X002531Y007989D01*
X002417Y007942D01*
X002253Y007778D01*
X002384Y007909D02*
X000968Y007909D01*
X000967Y008068D02*
X002385Y008068D01*
X002242Y008226D02*
X001110Y008226D01*
X001176Y008385D02*
X002176Y008385D01*
X002164Y008543D02*
X001975Y008543D01*
X002020Y008588D02*
X002082Y008737D01*
X002082Y008899D01*
X002020Y009048D01*
X001906Y009162D01*
X001839Y009190D01*
X001847Y009192D01*
X001910Y009224D01*
X001966Y009265D01*
X002016Y009315D01*
X002057Y009372D01*
X002089Y009434D01*
X002111Y009501D01*
X002122Y009570D01*
X002122Y009597D01*
X001685Y009597D01*
X001685Y009614D01*
X002122Y009614D01*
X002122Y009640D01*
X002111Y009710D01*
X002089Y009776D01*
X002057Y009839D01*
X002016Y009896D01*
X001966Y009945D01*
X001910Y009987D01*
X001847Y010018D01*
X001839Y010021D01*
X001906Y010049D01*
X002020Y010163D01*
X002082Y010312D01*
X002082Y010473D01*
X002020Y010623D01*
X001906Y010737D01*
X001786Y010786D01*
X001906Y010836D01*
X002020Y010950D01*
X002082Y011099D01*
X002082Y011261D01*
X002020Y011410D01*
X001906Y011524D01*
X001757Y011586D01*
X001595Y011586D01*
X001446Y011524D01*
X001332Y011410D01*
X001270Y011261D01*
X001270Y011099D01*
X001332Y010950D01*
X001446Y010836D01*
X001566Y010786D01*
X001446Y010737D01*
X001332Y010623D01*
X001270Y010473D01*
X001270Y010312D01*
X001332Y010163D01*
X001446Y010049D01*
X001513Y010021D01*
X001505Y010018D01*
X001442Y009987D01*
X001386Y009945D01*
X001336Y009896D01*
X001295Y009839D01*
X001263Y009776D01*
X001241Y009710D01*
X001230Y009640D01*
X001230Y009614D01*
X001667Y009614D01*
X001667Y009597D01*
X001230Y009597D01*
X001230Y009570D01*
X001241Y009501D01*
X001263Y009434D01*
X001295Y009372D01*
X001336Y009315D01*
X001386Y009265D01*
X001442Y009224D01*
X001505Y009192D01*
X001513Y009190D01*
X001446Y009162D01*
X001332Y009048D01*
X001270Y008899D01*
X001270Y008737D01*
X001332Y008588D01*
X001446Y008474D01*
X001595Y008412D01*
X001757Y008412D01*
X001906Y008474D01*
X002020Y008588D01*
X002067Y008702D02*
X002187Y008702D01*
X002253Y008860D02*
X002082Y008860D01*
X002032Y009019D02*
X002411Y009019D01*
X002129Y009153D02*
X001676Y009605D01*
X001321Y009336D02*
X000490Y009336D01*
X000490Y009494D02*
X001243Y009494D01*
X001232Y009653D02*
X000490Y009653D01*
X000490Y009811D02*
X001281Y009811D01*
X001420Y009970D02*
X000490Y009970D01*
X000490Y010128D02*
X001366Y010128D01*
X001281Y010287D02*
X000490Y010287D01*
X000490Y010445D02*
X001270Y010445D01*
X001324Y010604D02*
X000490Y010604D01*
X000863Y010762D02*
X001508Y010762D01*
X001361Y010921D02*
X001064Y010921D01*
X001150Y011079D02*
X001279Y011079D01*
X001270Y011238D02*
X001188Y011238D01*
X001188Y011396D02*
X001327Y011396D01*
X001521Y011555D02*
X001125Y011555D01*
X001831Y011555D02*
X002227Y011555D01*
X002164Y011396D02*
X002026Y011396D01*
X002082Y011238D02*
X002164Y011238D01*
X002202Y011079D02*
X002074Y011079D01*
X001991Y010921D02*
X002288Y010921D01*
X002489Y010762D02*
X001844Y010762D01*
X002028Y010604D02*
X004277Y010604D01*
X004223Y010445D02*
X002082Y010445D01*
X002071Y010287D02*
X004233Y010287D01*
X004319Y010128D02*
X001986Y010128D01*
X001933Y009970D02*
X004449Y009970D01*
X004275Y009811D02*
X002071Y009811D01*
X002120Y009653D02*
X004223Y009653D01*
X004236Y009494D02*
X002109Y009494D01*
X002031Y009336D02*
X004324Y009336D01*
X004437Y009177D02*
X001868Y009177D01*
X002129Y009153D02*
X002129Y007007D01*
X001676Y006554D01*
X001864Y006958D02*
X002412Y006958D01*
X002253Y007117D02*
X002022Y007117D01*
X002082Y007275D02*
X002187Y007275D01*
X002164Y007434D02*
X002077Y007434D01*
X001999Y007592D02*
X002176Y007592D01*
X002048Y006800D02*
X004301Y006800D01*
X004493Y006958D02*
X003893Y006958D01*
X004051Y007117D02*
X004283Y007117D01*
X004223Y007275D02*
X004117Y007275D01*
X004141Y007434D02*
X004228Y007434D01*
X004306Y007592D02*
X004129Y007592D01*
X004063Y007751D02*
X004862Y007751D01*
X004862Y007909D02*
X003921Y007909D01*
X003920Y008068D02*
X004862Y008068D01*
X004862Y008226D02*
X004063Y008226D01*
X004129Y008385D02*
X004862Y008385D01*
X004329Y008543D02*
X004141Y008543D01*
X004118Y008702D02*
X004238Y008702D01*
X004223Y008860D02*
X004052Y008860D01*
X003894Y009019D02*
X004273Y009019D01*
X004629Y009605D02*
X005082Y009153D01*
X005082Y007007D01*
X004629Y006554D01*
X004973Y006324D02*
X007238Y006324D01*
X007176Y006483D02*
X005035Y006483D01*
X005032Y006641D02*
X007179Y006641D01*
X007254Y006800D02*
X005186Y006800D01*
X005302Y006958D02*
X005365Y006958D01*
X006035Y006958D02*
X006176Y006958D01*
X006846Y006958D02*
X007446Y006958D01*
X007235Y007117D02*
X007004Y007117D01*
X007070Y007275D02*
X007176Y007275D01*
X007181Y007434D02*
X007094Y007434D01*
X007082Y007592D02*
X007259Y007592D01*
X007016Y007751D02*
X007814Y007751D01*
X007814Y007909D02*
X006873Y007909D01*
X006873Y008068D02*
X007814Y008068D01*
X007814Y008226D02*
X007016Y008226D01*
X007081Y008385D02*
X007814Y008385D01*
X007282Y008543D02*
X007094Y008543D01*
X007071Y008702D02*
X007190Y008702D01*
X007176Y008860D02*
X007005Y008860D01*
X006847Y009019D02*
X007226Y009019D01*
X007389Y009177D02*
X005302Y009177D01*
X005302Y009019D02*
X005364Y009019D01*
X005209Y009336D02*
X007277Y009336D01*
X007188Y009494D02*
X005051Y009494D01*
X005035Y009653D02*
X007176Y009653D01*
X007228Y009811D02*
X004983Y009811D01*
X004809Y009970D02*
X007402Y009970D01*
X007272Y010128D02*
X004938Y010128D01*
X005024Y010287D02*
X007186Y010287D01*
X007176Y010445D02*
X005035Y010445D01*
X004980Y010604D02*
X007230Y010604D01*
X007414Y010762D02*
X006769Y010762D01*
X006970Y010921D02*
X007267Y010921D01*
X007184Y011079D02*
X007056Y011079D01*
X007094Y011238D02*
X007176Y011238D01*
X007232Y011396D02*
X007094Y011396D01*
X007030Y011555D02*
X007426Y011555D01*
X007737Y011555D02*
X008133Y011555D01*
X008070Y011396D02*
X007931Y011396D01*
X007987Y011238D02*
X008070Y011238D01*
X008107Y011079D02*
X007979Y011079D01*
X007896Y010921D02*
X008194Y010921D01*
X008394Y010762D02*
X007749Y010762D01*
X007933Y010604D02*
X010183Y010604D01*
X010129Y010445D02*
X007987Y010445D01*
X007977Y010287D02*
X010139Y010287D01*
X010225Y010128D02*
X007891Y010128D01*
X007761Y009970D02*
X010354Y009970D01*
X010181Y009811D02*
X007935Y009811D01*
X007987Y009653D02*
X010129Y009653D01*
X010141Y009494D02*
X008004Y009494D01*
X008162Y009336D02*
X010230Y009336D01*
X010342Y009177D02*
X008254Y009177D01*
X008254Y009019D02*
X008317Y009019D01*
X008034Y009153D02*
X007582Y009605D01*
X008034Y009153D02*
X008034Y007007D01*
X007582Y006554D01*
X007987Y006483D02*
X010129Y006483D01*
X010131Y006641D02*
X007985Y006641D01*
X008139Y006800D02*
X010206Y006800D01*
X010399Y006958D02*
X009798Y006958D01*
X009957Y007117D02*
X010188Y007117D01*
X010129Y007275D02*
X010023Y007275D01*
X010046Y007434D02*
X010133Y007434D01*
X010211Y007592D02*
X010034Y007592D01*
X009969Y007751D02*
X010767Y007751D01*
X010767Y007909D02*
X009826Y007909D01*
X009825Y008068D02*
X010767Y008068D01*
X010767Y008226D02*
X009968Y008226D01*
X010034Y008385D02*
X010767Y008385D01*
X010235Y008543D02*
X010046Y008543D01*
X010023Y008702D02*
X010143Y008702D01*
X010129Y008860D02*
X009958Y008860D01*
X009799Y009019D02*
X010178Y009019D01*
X010534Y009605D02*
X010987Y009153D01*
X010987Y007007D01*
X010534Y006554D01*
X010940Y006483D02*
X011681Y006483D01*
X011681Y006641D02*
X010937Y006641D01*
X011091Y006800D02*
X011681Y006800D01*
X011270Y006958D02*
X011207Y006958D01*
X010878Y006324D02*
X011681Y006324D01*
X011681Y006166D02*
X010657Y006166D01*
X010411Y006166D02*
X007705Y006166D01*
X007915Y006007D02*
X010201Y006007D01*
X010129Y005849D02*
X007987Y005849D01*
X007987Y005690D02*
X010129Y005690D01*
X010195Y005532D02*
X007921Y005532D01*
X007692Y005373D02*
X010424Y005373D01*
X010645Y005373D02*
X011681Y005373D01*
X011681Y005532D02*
X010873Y005532D01*
X010940Y005690D02*
X011681Y005690D01*
X011681Y005849D02*
X010939Y005849D01*
X010867Y006007D02*
X011681Y006007D01*
X011345Y005215D02*
X010873Y005215D01*
X010940Y005056D02*
X011145Y005056D01*
X011060Y004898D02*
X010940Y004898D01*
X010868Y004739D02*
X011022Y004739D01*
X010190Y006324D02*
X007926Y006324D01*
X007458Y006166D02*
X004752Y006166D01*
X004962Y006007D02*
X007248Y006007D01*
X007176Y005849D02*
X005034Y005849D01*
X004506Y006166D02*
X001896Y006166D01*
X002009Y006007D02*
X004296Y006007D01*
X004224Y005849D02*
X002081Y005849D01*
X002082Y005690D02*
X004223Y005690D01*
X004290Y005532D02*
X002015Y005532D01*
X002014Y005215D02*
X002486Y005215D01*
X002417Y005186D02*
X002253Y005022D01*
X002164Y004808D01*
X002164Y004576D01*
X002253Y004362D01*
X002417Y004198D01*
X002631Y004109D01*
X002863Y004109D01*
X003077Y004198D01*
X003152Y004273D01*
X003228Y004198D01*
X003442Y004109D01*
X003674Y004109D01*
X003888Y004198D01*
X004052Y004362D01*
X004141Y004576D01*
X004141Y004808D01*
X004052Y005022D01*
X003888Y005186D01*
X003674Y005275D01*
X003442Y005275D01*
X003228Y005186D01*
X003152Y005111D01*
X003077Y005186D01*
X002863Y005275D01*
X002631Y005275D01*
X002417Y005186D01*
X002287Y005056D02*
X002082Y005056D01*
X002082Y004898D02*
X002201Y004898D01*
X002164Y004739D02*
X002010Y004739D01*
X002164Y004581D02*
X001775Y004581D01*
X001578Y004581D02*
X001188Y004581D01*
X001125Y004422D02*
X002228Y004422D01*
X002351Y004264D02*
X001002Y004264D01*
X001188Y004739D02*
X001342Y004739D01*
X001271Y004898D02*
X001151Y004898D01*
X001065Y005056D02*
X001270Y005056D01*
X001338Y005215D02*
X000866Y005215D01*
X002059Y006324D02*
X004285Y006324D01*
X004223Y006483D02*
X002116Y006483D01*
X002114Y006641D02*
X004226Y006641D01*
X003223Y006958D02*
X003082Y006958D01*
X003007Y005215D02*
X003297Y005215D01*
X003818Y005215D02*
X004291Y005215D01*
X004223Y005056D02*
X004018Y005056D01*
X004104Y004898D02*
X004223Y004898D01*
X004295Y004739D02*
X004141Y004739D01*
X004141Y004581D02*
X004530Y004581D01*
X004727Y004581D02*
X005117Y004581D01*
X005180Y004422D02*
X004077Y004422D01*
X003954Y004264D02*
X005303Y004264D01*
X005117Y004739D02*
X004963Y004739D01*
X005034Y004898D02*
X005154Y004898D01*
X005240Y005056D02*
X005035Y005056D01*
X004967Y005215D02*
X005439Y005215D01*
X005960Y005215D02*
X006250Y005215D01*
X006114Y004264D02*
X006096Y004264D01*
X008254Y006958D02*
X008317Y006958D01*
X008987Y006958D02*
X009128Y006958D01*
X009128Y009019D02*
X008988Y009019D01*
X008911Y010762D02*
X009205Y010762D01*
X009722Y010762D02*
X010367Y010762D01*
X010220Y010921D02*
X009922Y010921D01*
X010009Y011079D02*
X010137Y011079D01*
X010129Y011238D02*
X010046Y011238D01*
X010046Y011396D02*
X010185Y011396D01*
X010379Y011555D02*
X009983Y011555D01*
X010690Y011555D02*
X011085Y011555D01*
X011022Y011396D02*
X010884Y011396D01*
X010940Y011238D02*
X011022Y011238D01*
X011060Y011079D02*
X010932Y011079D01*
X010849Y010921D02*
X011146Y010921D01*
X011347Y010762D02*
X010702Y010762D01*
X010886Y010604D02*
X011681Y010604D01*
X011681Y010445D02*
X010940Y010445D01*
X010930Y010287D02*
X011681Y010287D01*
X011681Y010128D02*
X010844Y010128D01*
X010714Y009970D02*
X011681Y009970D01*
X011681Y009811D02*
X010888Y009811D01*
X010940Y009653D02*
X011681Y009653D01*
X011681Y009494D02*
X010956Y009494D01*
X011115Y009336D02*
X011681Y009336D01*
X011681Y009177D02*
X011207Y009177D01*
X011207Y009019D02*
X011269Y009019D01*
X009067Y004264D02*
X009049Y004264D01*
X006175Y009019D02*
X006036Y009019D01*
X005958Y010762D02*
X006252Y010762D01*
X005441Y010762D02*
X004796Y010762D01*
X004943Y010921D02*
X005241Y010921D01*
X005154Y011079D02*
X005026Y011079D01*
X005035Y011238D02*
X005117Y011238D01*
X005117Y011396D02*
X004978Y011396D01*
X004784Y011555D02*
X005180Y011555D01*
X004474Y011555D02*
X004078Y011555D01*
X004141Y011396D02*
X004279Y011396D01*
X004223Y011238D02*
X004141Y011238D01*
X004103Y011079D02*
X004231Y011079D01*
X004314Y010921D02*
X004017Y010921D01*
X003816Y010762D02*
X004461Y010762D01*
X003300Y010762D02*
X003005Y010762D01*
X001484Y009177D02*
X000490Y009177D01*
X000941Y009019D02*
X001320Y009019D01*
X001270Y008860D02*
X001099Y008860D01*
X001165Y008702D02*
X001285Y008702D01*
X001377Y008543D02*
X001188Y008543D01*
X003083Y009019D02*
X003222Y009019D01*
X003143Y004264D02*
X003162Y004264D01*
D11*
X001676Y004979D03*
X001676Y005767D03*
X001676Y006554D03*
X001676Y007342D03*
X001676Y008818D03*
X001676Y009605D03*
X001676Y010393D03*
X001676Y011180D03*
X004629Y011180D03*
X004629Y010393D03*
X004629Y009605D03*
X004629Y008818D03*
X004629Y007342D03*
X004629Y006554D03*
X004629Y005767D03*
X004629Y004979D03*
X007582Y004979D03*
X007582Y005767D03*
X007582Y006554D03*
X007582Y007342D03*
X007582Y008818D03*
X007582Y009605D03*
X007582Y010393D03*
X007582Y011180D03*
X010534Y011180D03*
X010534Y010393D03*
X010534Y009605D03*
X010534Y008818D03*
X010534Y007342D03*
X010534Y006554D03*
X010534Y005767D03*
X010534Y004979D03*
D12*
X009463Y004692D03*
X008652Y004692D03*
X006511Y004692D03*
X005700Y004692D03*
X003558Y004692D03*
X002747Y004692D03*
X000605Y004692D03*
X000605Y007448D03*
X000605Y008531D03*
X002747Y008531D03*
X003558Y008531D03*
X003558Y007448D03*
X002747Y007448D03*
X005700Y007448D03*
X006511Y007448D03*
X006511Y008531D03*
X005700Y008531D03*
X005700Y011286D03*
X006511Y011286D03*
X008652Y011286D03*
X009463Y011286D03*
X011605Y011286D03*
X011605Y008531D03*
X011605Y007448D03*
X009463Y007448D03*
X008652Y007448D03*
X008652Y008531D03*
X009463Y008531D03*
X011605Y004692D03*
X003558Y011286D03*
X002747Y011286D03*
X000605Y011286D03*
M02*
