G75*
%MOIN*%
%OFA0B0*%
%FSLAX24Y24*%
%IPPOS*%
%LPD*%
%AMOC8*
5,1,8,0,0,1.08239X$1,22.5*
%
%ADD10C,0.0160*%
%ADD11C,0.0531*%
%ADD12C,0.0886*%
D10*
X000180Y003432D02*
X011991Y003432D01*
X011991Y011936D01*
X000180Y011936D01*
X000180Y003432D01*
X000490Y003742D02*
X000490Y004049D01*
X000733Y004049D01*
X000969Y004147D01*
X001150Y004328D01*
X001248Y004564D01*
X001248Y004795D01*
X001281Y004716D01*
X001412Y004584D01*
X001583Y004514D01*
X001769Y004514D01*
X001940Y004584D01*
X002071Y004716D01*
X002104Y004795D01*
X002104Y004564D01*
X002202Y004328D01*
X002383Y004147D01*
X002619Y004049D01*
X002875Y004049D01*
X003111Y004147D01*
X003152Y004188D01*
X003194Y004147D01*
X003430Y004049D01*
X003686Y004049D01*
X003922Y004147D01*
X004103Y004328D01*
X004201Y004564D01*
X004201Y004795D01*
X004234Y004716D01*
X004365Y004584D01*
X004536Y004514D01*
X004721Y004514D01*
X004893Y004584D01*
X005024Y004716D01*
X005057Y004795D01*
X005057Y004564D01*
X005155Y004328D01*
X005336Y004147D01*
X005572Y004049D01*
X005828Y004049D01*
X006064Y004147D01*
X006105Y004188D01*
X006147Y004147D01*
X006383Y004049D01*
X006639Y004049D01*
X006875Y004147D01*
X007056Y004328D01*
X007154Y004564D01*
X007154Y004795D01*
X007187Y004716D01*
X007318Y004584D01*
X007489Y004514D01*
X007674Y004514D01*
X007845Y004584D01*
X007976Y004716D01*
X008010Y004795D01*
X008010Y004564D01*
X008107Y004328D01*
X008288Y004147D01*
X008525Y004049D01*
X008780Y004049D01*
X009017Y004147D01*
X009058Y004188D01*
X009099Y004147D01*
X009336Y004049D01*
X009591Y004049D01*
X009828Y004147D01*
X010008Y004328D01*
X010106Y004564D01*
X010106Y004795D01*
X010139Y004716D01*
X010271Y004584D01*
X010442Y004514D01*
X010627Y004514D01*
X010798Y004584D01*
X010929Y004716D01*
X010962Y004795D01*
X010962Y004564D01*
X011060Y004328D01*
X011241Y004147D01*
X011477Y004049D01*
X011681Y004049D01*
X011681Y003742D01*
X000490Y003742D01*
X000490Y003788D02*
X011681Y003788D01*
X011681Y003947D02*
X000490Y003947D01*
X000869Y004105D02*
X002483Y004105D01*
X002266Y004264D02*
X001086Y004264D01*
X001189Y004422D02*
X002163Y004422D01*
X002104Y004581D02*
X001931Y004581D01*
X002081Y004739D02*
X002104Y004739D01*
X002142Y004911D02*
X002142Y005072D01*
X002071Y005243D01*
X001941Y005373D01*
X002071Y005503D01*
X002142Y005674D01*
X002142Y005836D01*
X002366Y006061D01*
X002409Y006164D01*
X002409Y006892D01*
X002619Y006805D01*
X002875Y006805D01*
X003111Y006903D01*
X003152Y006944D01*
X003194Y006903D01*
X003430Y006805D01*
X003686Y006805D01*
X003896Y006892D01*
X003896Y005376D01*
X003939Y005273D01*
X004163Y005049D01*
X004163Y004911D01*
X004103Y005056D01*
X003922Y005237D01*
X003686Y005335D01*
X003430Y005335D01*
X003194Y005237D01*
X003152Y005196D01*
X003111Y005237D01*
X002875Y005335D01*
X002619Y005335D01*
X002383Y005237D01*
X002202Y005056D01*
X002142Y004911D01*
X002142Y005056D02*
X002202Y005056D01*
X002083Y005215D02*
X002361Y005215D01*
X002083Y005532D02*
X003896Y005532D01*
X003896Y005690D02*
X002142Y005690D01*
X002154Y005849D02*
X003896Y005849D01*
X003896Y006007D02*
X002313Y006007D01*
X002409Y006166D02*
X003896Y006166D01*
X003896Y006324D02*
X002409Y006324D01*
X002409Y006483D02*
X003896Y006483D01*
X003896Y006641D02*
X002409Y006641D01*
X002409Y006800D02*
X003896Y006800D01*
X004620Y007350D02*
X004620Y007787D01*
X004594Y007787D01*
X004524Y007776D01*
X004458Y007755D01*
X004456Y007754D01*
X004456Y008406D01*
X004458Y008405D01*
X004524Y008383D01*
X004594Y008372D01*
X004620Y008372D01*
X004620Y008809D01*
X004637Y008809D01*
X004637Y008372D01*
X004664Y008372D01*
X004733Y008383D01*
X004800Y008405D01*
X004802Y008406D01*
X004802Y007754D01*
X004800Y007755D01*
X004733Y007776D01*
X004664Y007787D01*
X004637Y007787D01*
X004637Y007350D01*
X004620Y007350D01*
X004629Y007342D02*
X004629Y008818D01*
X004620Y008702D02*
X004637Y008702D01*
X004620Y008543D02*
X004637Y008543D01*
X004620Y008385D02*
X004637Y008385D01*
X004739Y008385D02*
X004802Y008385D01*
X004802Y008226D02*
X004456Y008226D01*
X004456Y008068D02*
X004802Y008068D01*
X004802Y007909D02*
X004456Y007909D01*
X004620Y007751D02*
X004637Y007751D01*
X004620Y007592D02*
X004637Y007592D01*
X004620Y007434D02*
X004637Y007434D01*
X005362Y006892D02*
X005572Y006805D01*
X005828Y006805D01*
X006064Y006903D01*
X006105Y006944D01*
X006147Y006903D01*
X006383Y006805D01*
X006639Y006805D01*
X006849Y006892D01*
X006849Y005376D01*
X006891Y005273D01*
X006970Y005195D01*
X007116Y005049D01*
X007116Y004911D01*
X007056Y005056D01*
X006875Y005237D01*
X006639Y005335D01*
X006383Y005335D01*
X006147Y005237D01*
X006105Y005196D01*
X006064Y005237D01*
X005828Y005335D01*
X005572Y005335D01*
X005336Y005237D01*
X005155Y005056D01*
X005095Y004911D01*
X005095Y005072D01*
X005024Y005243D01*
X004894Y005373D01*
X005024Y005503D01*
X005095Y005674D01*
X005095Y005837D01*
X005240Y005982D01*
X005319Y006061D01*
X005362Y006164D01*
X005362Y006892D01*
X005362Y006800D02*
X006849Y006800D01*
X006849Y006641D02*
X005362Y006641D01*
X005362Y006483D02*
X006849Y006483D01*
X006849Y006324D02*
X005362Y006324D01*
X005362Y006166D02*
X006849Y006166D01*
X006849Y006007D02*
X005266Y006007D01*
X005107Y005849D02*
X006849Y005849D01*
X006849Y005690D02*
X005095Y005690D01*
X005036Y005532D02*
X006849Y005532D01*
X006850Y005373D02*
X004894Y005373D01*
X005035Y005215D02*
X005313Y005215D01*
X005155Y005056D02*
X005095Y005056D01*
X005057Y004739D02*
X005034Y004739D01*
X005057Y004581D02*
X004884Y004581D01*
X005115Y004422D02*
X004142Y004422D01*
X004201Y004581D02*
X004374Y004581D01*
X004224Y004739D02*
X004201Y004739D01*
X004156Y005056D02*
X004103Y005056D01*
X003997Y005215D02*
X003944Y005215D01*
X003897Y005373D02*
X001941Y005373D01*
X001676Y004979D02*
X001184Y005471D01*
X001184Y010688D01*
X001676Y011180D01*
X001248Y011364D02*
X001248Y011414D01*
X001160Y011626D01*
X001536Y011626D01*
X001412Y011575D01*
X001281Y011444D01*
X001248Y011364D01*
X001248Y011396D02*
X001262Y011396D01*
X001190Y011555D02*
X001392Y011555D01*
X001817Y011626D02*
X002192Y011626D01*
X002104Y011414D01*
X002104Y011364D01*
X002071Y011444D01*
X001940Y011575D01*
X001817Y011626D01*
X001960Y011555D02*
X002162Y011555D01*
X002104Y011396D02*
X002091Y011396D01*
X002138Y011077D02*
X002202Y010922D01*
X002383Y010741D01*
X002619Y010644D01*
X002875Y010644D01*
X003111Y010741D01*
X003152Y010783D01*
X003194Y010741D01*
X003430Y010644D01*
X003686Y010644D01*
X003896Y010731D01*
X003896Y009086D01*
X003686Y009173D01*
X003430Y009173D01*
X003194Y009076D01*
X003152Y009034D01*
X003111Y009076D01*
X002875Y009173D01*
X002619Y009173D01*
X002409Y009086D01*
X002409Y009996D01*
X002366Y010099D01*
X002287Y010177D01*
X002142Y010323D01*
X002142Y010485D01*
X002071Y010657D01*
X001941Y010786D01*
X002071Y010916D01*
X002138Y011077D01*
X002073Y010921D02*
X002203Y010921D01*
X002362Y010762D02*
X001965Y010762D01*
X002093Y010604D02*
X003896Y010604D01*
X003896Y010445D02*
X002142Y010445D01*
X002178Y010287D02*
X003896Y010287D01*
X003896Y010128D02*
X002336Y010128D01*
X002409Y009970D02*
X003896Y009970D01*
X003896Y009811D02*
X002409Y009811D01*
X002409Y009653D02*
X003896Y009653D01*
X003896Y009494D02*
X002409Y009494D01*
X002409Y009336D02*
X003896Y009336D01*
X003896Y009177D02*
X002409Y009177D01*
X001685Y008809D02*
X001685Y008372D01*
X001711Y008372D01*
X001780Y008383D01*
X001847Y008405D01*
X001849Y008406D01*
X001849Y007754D01*
X001847Y007755D01*
X001780Y007776D01*
X001711Y007787D01*
X001685Y007787D01*
X001685Y007350D01*
X001667Y007350D01*
X001667Y007787D01*
X001641Y007787D01*
X001572Y007776D01*
X001505Y007755D01*
X001464Y007734D01*
X001464Y008426D01*
X001505Y008405D01*
X001572Y008383D01*
X001641Y008372D01*
X001667Y008372D01*
X001667Y008809D01*
X001685Y008809D01*
X001676Y008818D02*
X001676Y007342D01*
X001667Y007434D02*
X001685Y007434D01*
X001685Y007592D02*
X001667Y007592D01*
X001667Y007751D02*
X001685Y007751D01*
X001498Y007751D02*
X001464Y007751D01*
X001464Y007909D02*
X001849Y007909D01*
X001849Y008068D02*
X001464Y008068D01*
X001464Y008226D02*
X001849Y008226D01*
X001849Y008385D02*
X001786Y008385D01*
X001685Y008385D02*
X001667Y008385D01*
X001566Y008385D02*
X001464Y008385D01*
X001667Y008543D02*
X001685Y008543D01*
X001685Y008702D02*
X001667Y008702D01*
X000904Y009103D02*
X000733Y009173D01*
X000490Y009173D01*
X000490Y010644D01*
X000733Y010644D01*
X000904Y010714D01*
X000904Y009103D01*
X000904Y009177D02*
X000490Y009177D01*
X000490Y009336D02*
X000904Y009336D01*
X000904Y009494D02*
X000490Y009494D01*
X000490Y009653D02*
X000904Y009653D01*
X000904Y009811D02*
X000490Y009811D01*
X000490Y009970D02*
X000904Y009970D01*
X000904Y010128D02*
X000490Y010128D01*
X000490Y010287D02*
X000904Y010287D01*
X000904Y010445D02*
X000490Y010445D01*
X000490Y010604D02*
X000904Y010604D01*
X001676Y010393D02*
X002129Y009940D01*
X002129Y006219D01*
X001676Y005767D01*
X001044Y005215D02*
X000991Y005215D01*
X000969Y005237D02*
X000733Y005335D01*
X000490Y005335D01*
X000490Y006805D01*
X000733Y006805D01*
X000904Y006876D01*
X000904Y005416D01*
X000947Y005313D01*
X001210Y005049D01*
X001210Y004911D01*
X001150Y005056D01*
X000969Y005237D01*
X000921Y005373D02*
X000490Y005373D01*
X000490Y005532D02*
X000904Y005532D01*
X000904Y005690D02*
X000490Y005690D01*
X000490Y005849D02*
X000904Y005849D01*
X000904Y006007D02*
X000490Y006007D01*
X000490Y006166D02*
X000904Y006166D01*
X000904Y006324D02*
X000490Y006324D01*
X000490Y006483D02*
X000904Y006483D01*
X000904Y006641D02*
X000490Y006641D01*
X000490Y006800D02*
X000904Y006800D01*
X001150Y005056D02*
X001203Y005056D01*
X001248Y004739D02*
X001271Y004739D01*
X001248Y004581D02*
X001421Y004581D01*
X003011Y004105D02*
X003294Y004105D01*
X003822Y004105D02*
X005436Y004105D01*
X005218Y004264D02*
X004039Y004264D01*
X004629Y004979D02*
X004176Y005432D01*
X004176Y010727D01*
X004629Y011180D01*
X005057Y011364D02*
X005024Y011444D01*
X004893Y011575D01*
X004769Y011626D01*
X005144Y011626D01*
X005057Y011414D01*
X005057Y011364D01*
X005057Y011396D02*
X005043Y011396D01*
X005115Y011555D02*
X004913Y011555D01*
X004488Y011626D02*
X004113Y011626D01*
X004201Y011414D01*
X004201Y011364D01*
X004234Y011444D01*
X004365Y011575D01*
X004488Y011626D01*
X004345Y011555D02*
X004143Y011555D01*
X004201Y011396D02*
X004214Y011396D01*
X004894Y010786D02*
X005024Y010916D01*
X005090Y011077D01*
X005155Y010922D01*
X005336Y010741D01*
X005572Y010644D01*
X005828Y010644D01*
X006064Y010741D01*
X006105Y010783D01*
X006147Y010741D01*
X006383Y010644D01*
X006639Y010644D01*
X006849Y010731D01*
X006849Y009086D01*
X006639Y009173D01*
X006383Y009173D01*
X006147Y009076D01*
X006105Y009034D01*
X006064Y009076D01*
X005828Y009173D01*
X005572Y009173D01*
X005362Y009086D01*
X005362Y009996D01*
X005319Y010099D01*
X005095Y010323D01*
X005095Y010485D01*
X005024Y010657D01*
X004894Y010786D01*
X004918Y010762D02*
X005314Y010762D01*
X005156Y010921D02*
X005026Y010921D01*
X005045Y010604D02*
X006849Y010604D01*
X006849Y010445D02*
X005095Y010445D01*
X005131Y010287D02*
X006849Y010287D01*
X006849Y010128D02*
X005289Y010128D01*
X005362Y009970D02*
X006849Y009970D01*
X006849Y009811D02*
X005362Y009811D01*
X005362Y009653D02*
X006849Y009653D01*
X006849Y009494D02*
X005362Y009494D01*
X005362Y009336D02*
X006849Y009336D01*
X006849Y009177D02*
X005362Y009177D01*
X005082Y009940D02*
X004629Y010393D01*
X005082Y009940D02*
X005082Y006219D01*
X004629Y005767D01*
X006086Y005215D02*
X006125Y005215D01*
X006897Y005215D02*
X006950Y005215D01*
X007129Y005432D02*
X007129Y010727D01*
X007582Y011180D01*
X008010Y011364D02*
X007976Y011444D01*
X007845Y011575D01*
X007722Y011626D01*
X008097Y011626D01*
X008010Y011414D01*
X008010Y011364D01*
X008010Y011396D02*
X007996Y011396D01*
X008068Y011555D02*
X007865Y011555D01*
X007441Y011626D02*
X007066Y011626D01*
X007154Y011414D01*
X007154Y011364D01*
X007187Y011444D01*
X007318Y011575D01*
X007441Y011626D01*
X007298Y011555D02*
X007095Y011555D01*
X007154Y011396D02*
X007167Y011396D01*
X007847Y010786D02*
X007976Y010916D01*
X008043Y011077D01*
X008107Y010922D01*
X008288Y010741D01*
X008525Y010644D01*
X008780Y010644D01*
X009017Y010741D01*
X009058Y010783D01*
X009099Y010741D01*
X009336Y010644D01*
X009591Y010644D01*
X009802Y010731D01*
X009802Y009086D01*
X009591Y009173D01*
X009336Y009173D01*
X009099Y009076D01*
X009058Y009034D01*
X009017Y009076D01*
X008780Y009173D01*
X008525Y009173D01*
X008314Y009086D01*
X008314Y009996D01*
X008272Y010099D01*
X008193Y010177D01*
X008047Y010323D01*
X008047Y010485D01*
X007976Y010657D01*
X007847Y010786D01*
X007870Y010762D02*
X008267Y010762D01*
X008109Y010921D02*
X007978Y010921D01*
X007998Y010604D02*
X009802Y010604D01*
X009802Y010445D02*
X008047Y010445D01*
X008083Y010287D02*
X009802Y010287D01*
X009802Y010128D02*
X008242Y010128D01*
X008314Y009970D02*
X009802Y009970D01*
X009802Y009811D02*
X008314Y009811D01*
X008314Y009653D02*
X009802Y009653D01*
X009802Y009494D02*
X008314Y009494D01*
X008314Y009336D02*
X009802Y009336D01*
X009802Y009177D02*
X008314Y009177D01*
X007590Y008809D02*
X007590Y008372D01*
X007617Y008372D01*
X007686Y008383D01*
X007753Y008405D01*
X007754Y008406D01*
X007754Y007754D01*
X007753Y007755D01*
X007686Y007776D01*
X007617Y007787D01*
X007590Y007787D01*
X007590Y007350D01*
X007573Y007350D01*
X007573Y007787D01*
X007546Y007787D01*
X007477Y007776D01*
X007410Y007755D01*
X007409Y007754D01*
X007409Y008406D01*
X007410Y008405D01*
X007477Y008383D01*
X007546Y008372D01*
X007573Y008372D01*
X007573Y008809D01*
X007590Y008809D01*
X007582Y008818D02*
X007582Y007342D01*
X007573Y007434D02*
X007590Y007434D01*
X007573Y007592D02*
X007590Y007592D01*
X007573Y007751D02*
X007590Y007751D01*
X007754Y007909D02*
X007409Y007909D01*
X007409Y008068D02*
X007754Y008068D01*
X007754Y008226D02*
X007409Y008226D01*
X007409Y008385D02*
X007472Y008385D01*
X007573Y008385D02*
X007590Y008385D01*
X007692Y008385D02*
X007754Y008385D01*
X007590Y008543D02*
X007573Y008543D01*
X007573Y008702D02*
X007590Y008702D01*
X008034Y009940D02*
X008034Y006219D01*
X007582Y005767D01*
X007988Y005532D02*
X009802Y005532D01*
X009802Y005376D02*
X009844Y005273D01*
X009923Y005195D01*
X010069Y005049D01*
X010069Y004911D01*
X010008Y005056D01*
X010061Y005056D01*
X010008Y005056D02*
X009828Y005237D01*
X009591Y005335D01*
X009336Y005335D01*
X009099Y005237D01*
X009058Y005196D01*
X009017Y005237D01*
X008780Y005335D01*
X008525Y005335D01*
X008288Y005237D01*
X008107Y005056D01*
X008047Y004911D01*
X008047Y005072D01*
X007976Y005243D01*
X007847Y005373D01*
X009803Y005373D01*
X009802Y005376D02*
X009802Y006892D01*
X009591Y006805D01*
X009336Y006805D01*
X009099Y006903D01*
X009058Y006944D01*
X009017Y006903D01*
X008780Y006805D01*
X008525Y006805D01*
X008314Y006892D01*
X008314Y006164D01*
X008272Y006061D01*
X008047Y005836D01*
X008047Y005674D01*
X007976Y005503D01*
X007847Y005373D01*
X007988Y005215D02*
X008266Y005215D01*
X008108Y005056D02*
X008047Y005056D01*
X008010Y004739D02*
X007986Y004739D01*
X008010Y004581D02*
X007837Y004581D01*
X008068Y004422D02*
X007095Y004422D01*
X007154Y004581D02*
X007326Y004581D01*
X007177Y004739D02*
X007154Y004739D01*
X007108Y005056D02*
X007055Y005056D01*
X007129Y005432D02*
X007582Y004979D01*
X008047Y005690D02*
X009802Y005690D01*
X009802Y005849D02*
X008060Y005849D01*
X008218Y006007D02*
X009802Y006007D01*
X009802Y006166D02*
X008314Y006166D01*
X008314Y006324D02*
X009802Y006324D01*
X009802Y006483D02*
X008314Y006483D01*
X008314Y006641D02*
X009802Y006641D01*
X009802Y006800D02*
X008314Y006800D01*
X009058Y007952D02*
X009020Y007989D01*
X009058Y008027D01*
X009096Y007989D01*
X009058Y007952D01*
X010362Y007909D02*
X010707Y007909D01*
X010639Y007776D02*
X010569Y007787D01*
X010543Y007787D01*
X010543Y007350D01*
X010526Y007350D01*
X010526Y007787D01*
X010499Y007787D01*
X010430Y007776D01*
X010363Y007755D01*
X010362Y007754D01*
X010362Y008406D01*
X010363Y008405D01*
X010430Y008383D01*
X010499Y008372D01*
X010526Y008372D01*
X010526Y008809D01*
X010543Y008809D01*
X010543Y008372D01*
X010569Y008372D01*
X010639Y008383D01*
X010705Y008405D01*
X010707Y008406D01*
X010707Y007754D01*
X010705Y007755D01*
X010639Y007776D01*
X010543Y007751D02*
X010526Y007751D01*
X010526Y007592D02*
X010543Y007592D01*
X010526Y007434D02*
X010543Y007434D01*
X010534Y007342D02*
X010534Y008818D01*
X010526Y008702D02*
X010543Y008702D01*
X010526Y008543D02*
X010543Y008543D01*
X010526Y008385D02*
X010543Y008385D01*
X010644Y008385D02*
X010707Y008385D01*
X010707Y008226D02*
X010362Y008226D01*
X010362Y008068D02*
X010707Y008068D01*
X010424Y008385D02*
X010362Y008385D01*
X011267Y009086D02*
X011267Y009996D01*
X011224Y010099D01*
X011146Y010177D01*
X011000Y010323D01*
X011000Y010485D01*
X010929Y010657D01*
X010799Y010786D01*
X010929Y010916D01*
X010996Y011077D01*
X011060Y010922D01*
X011241Y010741D01*
X011477Y010644D01*
X011681Y010644D01*
X011681Y009173D01*
X011477Y009173D01*
X011267Y009086D01*
X011267Y009177D02*
X011681Y009177D01*
X011681Y009336D02*
X011267Y009336D01*
X011267Y009494D02*
X011681Y009494D01*
X011681Y009653D02*
X011267Y009653D01*
X011267Y009811D02*
X011681Y009811D01*
X011681Y009970D02*
X011267Y009970D01*
X011195Y010128D02*
X011681Y010128D01*
X011681Y010287D02*
X011036Y010287D01*
X011000Y010445D02*
X011681Y010445D01*
X011681Y010604D02*
X010951Y010604D01*
X010823Y010762D02*
X011220Y010762D01*
X011061Y010921D02*
X010931Y010921D01*
X010962Y011364D02*
X010929Y011444D01*
X010798Y011575D01*
X010675Y011626D01*
X011050Y011626D01*
X010962Y011414D01*
X010962Y011364D01*
X010962Y011396D02*
X010949Y011396D01*
X011021Y011555D02*
X010818Y011555D01*
X010394Y011626D02*
X010019Y011626D01*
X010106Y011414D01*
X010106Y011364D01*
X010139Y011444D01*
X010271Y011575D01*
X010394Y011626D01*
X010251Y011555D02*
X010048Y011555D01*
X010106Y011396D02*
X010120Y011396D01*
X010534Y011180D02*
X010082Y010727D01*
X010082Y005432D01*
X010534Y004979D01*
X010130Y004739D02*
X010106Y004739D01*
X010106Y004581D02*
X010279Y004581D01*
X010048Y004422D02*
X011021Y004422D01*
X010962Y004581D02*
X010790Y004581D01*
X010939Y004739D02*
X010962Y004739D01*
X011000Y004911D02*
X011000Y005072D01*
X010929Y005243D01*
X010799Y005373D01*
X010929Y005503D01*
X011000Y005674D01*
X011000Y005836D01*
X011224Y006061D01*
X011267Y006164D01*
X011267Y006892D01*
X011477Y006805D01*
X011681Y006805D01*
X011681Y005335D01*
X011477Y005335D01*
X011241Y005237D01*
X011060Y005056D01*
X011000Y004911D01*
X011000Y005056D02*
X011061Y005056D01*
X010941Y005215D02*
X011219Y005215D01*
X010941Y005532D02*
X011681Y005532D01*
X011681Y005690D02*
X011000Y005690D01*
X011013Y005849D02*
X011681Y005849D01*
X011681Y006007D02*
X011171Y006007D01*
X011267Y006166D02*
X011681Y006166D01*
X011681Y006324D02*
X011267Y006324D01*
X011267Y006483D02*
X011681Y006483D01*
X011681Y006641D02*
X011267Y006641D01*
X011267Y006800D02*
X011681Y006800D01*
X010987Y006219D02*
X010534Y005767D01*
X010800Y005373D02*
X011681Y005373D01*
X010987Y006219D02*
X010987Y009940D01*
X010534Y010393D01*
X009078Y010762D02*
X009038Y010762D01*
X008034Y009940D02*
X007582Y010393D01*
X006125Y010762D02*
X006085Y010762D01*
X004519Y008385D02*
X004456Y008385D01*
X003190Y007989D02*
X003152Y007952D01*
X003115Y007989D01*
X003152Y008027D01*
X003190Y007989D01*
X003133Y005215D02*
X003172Y005215D01*
X005964Y004105D02*
X006247Y004105D01*
X006775Y004105D02*
X008388Y004105D01*
X008171Y004264D02*
X006992Y004264D01*
X008917Y004105D02*
X009199Y004105D01*
X009728Y004105D02*
X011341Y004105D01*
X011124Y004264D02*
X009945Y004264D01*
X009903Y005215D02*
X009850Y005215D01*
X009077Y005215D02*
X009039Y005215D01*
X006143Y007989D02*
X006105Y007952D01*
X006068Y007989D01*
X006105Y008027D01*
X006143Y007989D01*
X003173Y010762D02*
X003132Y010762D01*
D11*
X001676Y010393D03*
X001676Y009605D03*
X001676Y008818D03*
X001676Y007342D03*
X001676Y006554D03*
X001676Y005767D03*
X001676Y004979D03*
X004629Y004979D03*
X004629Y005767D03*
X004629Y006554D03*
X004629Y007342D03*
X004629Y008818D03*
X004629Y009605D03*
X004629Y010393D03*
X004629Y011180D03*
X007582Y011180D03*
X007582Y010393D03*
X007582Y009605D03*
X007582Y008818D03*
X007582Y007342D03*
X007582Y006554D03*
X007582Y005767D03*
X007582Y004979D03*
X010534Y004979D03*
X010534Y005767D03*
X010534Y006554D03*
X010534Y007342D03*
X010534Y008818D03*
X010534Y009605D03*
X010534Y010393D03*
X010534Y011180D03*
X001676Y011180D03*
D12*
X000605Y011286D03*
X002747Y011286D03*
X003558Y011286D03*
X005700Y011286D03*
X006511Y011286D03*
X008652Y011286D03*
X009463Y011286D03*
X011605Y011286D03*
X011605Y008531D03*
X011605Y007448D03*
X009463Y007448D03*
X008652Y007448D03*
X008652Y008531D03*
X009463Y008531D03*
X006511Y008531D03*
X005700Y008531D03*
X005700Y007448D03*
X006511Y007448D03*
X006511Y004692D03*
X005700Y004692D03*
X003558Y004692D03*
X002747Y004692D03*
X000605Y004692D03*
X000605Y007448D03*
X000605Y008531D03*
X002747Y008531D03*
X003558Y008531D03*
X003558Y007448D03*
X002747Y007448D03*
X008652Y004692D03*
X009463Y004692D03*
X011605Y004692D03*
M02*
