G75*
%MOIN*%
%OFA0B0*%
%FSLAX24Y24*%
%IPPOS*%
%LPD*%
%AMOC8*
5,1,8,0,0,1.08239X$1,22.5*
%
%ADD10C,0.0160*%
%ADD11C,0.0591*%
%ADD12C,0.0946*%
D10*
X000180Y003432D02*
X011991Y003432D01*
X011991Y011936D01*
X000180Y011936D01*
X000180Y003432D01*
D11*
X001676Y004979D03*
X001676Y005767D03*
X001676Y006554D03*
X001676Y007342D03*
X001676Y008818D03*
X001676Y009605D03*
X001676Y010393D03*
X001676Y011180D03*
X004629Y011180D03*
X004629Y010393D03*
X004629Y009605D03*
X004629Y008818D03*
X004629Y007342D03*
X004629Y006554D03*
X004629Y005767D03*
X004629Y004979D03*
X007582Y004979D03*
X007582Y005767D03*
X007582Y006554D03*
X007582Y007342D03*
X007582Y008818D03*
X007582Y009605D03*
X007582Y010393D03*
X007582Y011180D03*
X010534Y011180D03*
X010534Y010393D03*
X010534Y009605D03*
X010534Y008818D03*
X010534Y007342D03*
X010534Y006554D03*
X010534Y005767D03*
X010534Y004979D03*
D12*
X009463Y004692D03*
X008652Y004692D03*
X006511Y004692D03*
X005700Y004692D03*
X003558Y004692D03*
X002747Y004692D03*
X000605Y004692D03*
X000605Y007448D03*
X000605Y008531D03*
X002747Y008531D03*
X003558Y008531D03*
X003558Y007448D03*
X002747Y007448D03*
X005700Y007448D03*
X006511Y007448D03*
X006511Y008531D03*
X005700Y008531D03*
X005700Y011286D03*
X006511Y011286D03*
X008652Y011286D03*
X009463Y011286D03*
X011605Y011286D03*
X011605Y008531D03*
X011605Y007448D03*
X009463Y007448D03*
X008652Y007448D03*
X008652Y008531D03*
X009463Y008531D03*
X011605Y004692D03*
X003558Y011286D03*
X002747Y011286D03*
X000605Y011286D03*
M02*
