G75*
%MOIN*%
%OFA0B0*%
%FSLAX24Y24*%
%IPPOS*%
%LPD*%
%AMOC8*
5,1,8,0,0,1.08239X$1,22.5*
%
%ADD10C,0.0160*%
%ADD11C,0.0050*%
%ADD12C,0.0240*%
%ADD13C,0.0040*%
%ADD14C,0.0060*%
%ADD15C,0.0100*%
%ADD16R,0.0059X0.0118*%
%ADD17R,0.0118X0.0118*%
%ADD18C,0.0020*%
%ADD19C,0.0080*%
%ADD20R,0.1455X0.0013*%
%ADD21R,0.1573X0.0013*%
%ADD22R,0.1665X0.0013*%
%ADD23R,0.1731X0.0013*%
%ADD24R,0.1796X0.0013*%
%ADD25R,0.1849X0.0013*%
%ADD26R,0.1888X0.0013*%
%ADD27R,0.1927X0.0013*%
%ADD28R,0.1967X0.0013*%
%ADD29R,0.2006X0.0013*%
%ADD30R,0.2045X0.0013*%
%ADD31R,0.2071X0.0013*%
%ADD32R,0.2098X0.0013*%
%ADD33R,0.2137X0.0013*%
%ADD34R,0.2150X0.0013*%
%ADD35R,0.2176X0.0013*%
%ADD36R,0.2203X0.0013*%
%ADD37R,0.2229X0.0013*%
%ADD38R,0.2242X0.0013*%
%ADD39R,0.2268X0.0013*%
%ADD40R,0.2281X0.0013*%
%ADD41R,0.2307X0.0013*%
%ADD42R,0.2321X0.0013*%
%ADD43R,0.2334X0.0013*%
%ADD44R,0.2360X0.0013*%
%ADD45R,0.2373X0.0013*%
%ADD46R,0.2386X0.0013*%
%ADD47R,0.2399X0.0013*%
%ADD48R,0.2412X0.0013*%
%ADD49R,0.2439X0.0013*%
%ADD50R,0.2452X0.0013*%
%ADD51R,0.2465X0.0013*%
%ADD52R,0.2478X0.0013*%
%ADD53R,0.2491X0.0013*%
%ADD54R,0.2504X0.0013*%
%ADD55R,0.2517X0.0013*%
%ADD56R,0.2530X0.0013*%
%ADD57R,0.2543X0.0013*%
%ADD58R,0.2556X0.0013*%
%ADD59R,0.2570X0.0013*%
%ADD60R,0.2583X0.0013*%
%ADD61R,0.2596X0.0013*%
%ADD62R,0.2609X0.0013*%
%ADD63R,0.2622X0.0013*%
%ADD64R,0.2635X0.0013*%
%ADD65R,0.2648X0.0013*%
%ADD66R,0.2661X0.0013*%
%ADD67R,0.2674X0.0013*%
%ADD68R,0.2688X0.0013*%
%ADD69R,0.2701X0.0013*%
%ADD70R,0.2714X0.0013*%
%ADD71R,0.2727X0.0013*%
%ADD72R,0.2740X0.0013*%
%ADD73R,0.2753X0.0013*%
%ADD74R,0.2766X0.0013*%
%ADD75R,0.2779X0.0013*%
%ADD76R,0.2792X0.0013*%
%ADD77R,0.2806X0.0013*%
%ADD78R,0.3081X0.0013*%
%ADD79R,0.3146X0.0013*%
%ADD80R,0.3186X0.0013*%
%ADD81R,0.3225X0.0013*%
%ADD82R,0.3251X0.0013*%
%ADD83R,0.3264X0.0013*%
%ADD84R,0.3278X0.0013*%
%ADD85R,0.3238X0.0013*%
%ADD86R,0.3199X0.0013*%
%ADD87R,0.3160X0.0013*%
%ADD88R,0.3107X0.0013*%
%ADD89R,0.0774X0.0013*%
%ADD90R,0.0760X0.0013*%
%ADD91R,0.1822X0.0013*%
%ADD92R,0.0747X0.0013*%
%ADD93R,0.0734X0.0013*%
%ADD94R,0.1783X0.0013*%
%ADD95R,0.1770X0.0013*%
%ADD96R,0.1757X0.0013*%
%ADD97R,0.1704X0.0013*%
%ADD98R,0.1678X0.0013*%
%ADD99R,0.1639X0.0013*%
%ADD100R,0.1613X0.0013*%
%ADD101R,0.1586X0.0013*%
%ADD102R,0.1560X0.0013*%
%ADD103R,0.1508X0.0013*%
%ADD104R,0.1232X0.0013*%
%ADD105R,0.0184X0.0013*%
%ADD106R,0.1193X0.0013*%
%ADD107R,0.1180X0.0013*%
%ADD108R,0.1141X0.0013*%
%ADD109R,0.1101X0.0013*%
%ADD110R,0.1075X0.0013*%
%ADD111R,0.1036X0.0013*%
%ADD112R,0.1023X0.0013*%
%ADD113R,0.1009X0.0013*%
%ADD114R,0.0249X0.0013*%
%ADD115R,0.0446X0.0013*%
%ADD116R,0.1495X0.0013*%
%ADD117R,0.1481X0.0013*%
%ADD118R,0.1468X0.0013*%
%ADD119R,0.1442X0.0013*%
%ADD120R,0.1206X0.0013*%
%ADD121R,0.0197X0.0013*%
%ADD122R,0.0118X0.0013*%
%ADD123R,0.0052X0.0013*%
%ADD124R,0.1154X0.0013*%
%ADD125R,0.0210X0.0013*%
%ADD126R,0.0616X0.0013*%
%ADD127R,0.0144X0.0013*%
%ADD128R,0.0564X0.0013*%
%ADD129R,0.0026X0.0013*%
%ADD130R,0.0498X0.0013*%
%ADD131R,0.0170X0.0013*%
%ADD132R,0.0420X0.0013*%
%ADD133R,0.0341X0.0013*%
%ADD134R,0.0105X0.0013*%
%ADD135R,0.0066X0.0013*%
%ADD136R,0.0039X0.0013*%
%ADD137R,0.0013X0.0013*%
%ADD138R,0.0092X0.0013*%
%ADD139R,0.0223X0.0013*%
%ADD140R,0.0275X0.0013*%
%ADD141R,0.0302X0.0013*%
%ADD142R,0.0328X0.0013*%
%ADD143R,0.0354X0.0013*%
%ADD144R,0.0367X0.0013*%
%ADD145R,0.0380X0.0013*%
%ADD146R,0.0406X0.0013*%
%ADD147R,0.0433X0.0013*%
%ADD148R,0.0459X0.0013*%
%ADD149R,0.0485X0.0013*%
%ADD150R,0.0511X0.0013*%
%ADD151R,0.0538X0.0013*%
%ADD152R,0.0590X0.0013*%
%ADD153R,0.0642X0.0013*%
%ADD154R,0.0669X0.0013*%
%ADD155R,0.0695X0.0013*%
%ADD156R,0.0721X0.0013*%
%ADD157R,0.0800X0.0013*%
%ADD158R,0.0813X0.0013*%
%ADD159R,0.0826X0.0013*%
%ADD160R,0.0852X0.0013*%
%ADD161R,0.0878X0.0013*%
%ADD162R,0.0891X0.0013*%
%ADD163R,0.0905X0.0013*%
%ADD164R,0.0931X0.0013*%
%ADD165R,0.0957X0.0013*%
%ADD166R,0.0970X0.0013*%
%ADD167R,0.0983X0.0013*%
%ADD168R,0.0551X0.0013*%
%ADD169R,0.0524X0.0013*%
%ADD170R,0.0472X0.0013*%
%ADD171R,0.0629X0.0013*%
%ADD172R,0.1219X0.0013*%
%ADD173R,0.1245X0.0013*%
%ADD174R,0.1259X0.0013*%
%ADD175R,0.1272X0.0013*%
%ADD176R,0.1298X0.0013*%
%ADD177R,0.1324X0.0013*%
%ADD178R,0.1337X0.0013*%
%ADD179R,0.1350X0.0013*%
%ADD180R,0.1377X0.0013*%
%ADD181R,0.1403X0.0013*%
%ADD182R,0.1416X0.0013*%
%ADD183R,0.1429X0.0013*%
%ADD184R,0.1534X0.0013*%
%ADD185R,0.1547X0.0013*%
%ADD186R,0.1626X0.0013*%
%ADD187R,0.1652X0.0013*%
%ADD188R,0.1691X0.0013*%
%ADD189R,0.1744X0.0013*%
%ADD190R,0.1809X0.0013*%
%ADD191R,0.1862X0.0013*%
%ADD192R,0.1901X0.0013*%
%ADD193R,0.1940X0.0013*%
%ADD194R,0.1363X0.0013*%
%ADD195R,0.0577X0.0013*%
%ADD196R,0.0603X0.0013*%
%ADD197R,0.2111X0.0013*%
%ADD198R,0.2189X0.0013*%
%ADD199R,0.2216X0.0013*%
%ADD200R,0.2255X0.0013*%
%ADD201R,0.2294X0.0013*%
%ADD202R,0.1521X0.0013*%
%ADD203R,0.0839X0.0013*%
%ADD204R,0.2425X0.0013*%
%ADD205R,0.0315X0.0013*%
%ADD206R,0.2085X0.0013*%
%ADD207R,0.0787X0.0013*%
%ADD208R,0.2163X0.0013*%
%ADD209R,0.2124X0.0013*%
%ADD210R,0.2019X0.0013*%
%ADD211R,0.1953X0.0013*%
%ADD212R,0.1717X0.0013*%
%ADD213R,0.1599X0.0013*%
%ADD214R,0.1114X0.0013*%
D10*
X002254Y004003D02*
X018396Y004003D01*
X018396Y023688D01*
X002254Y023688D01*
X002254Y004003D01*
X004419Y004003D02*
X016230Y004003D01*
X016230Y023688D02*
X015640Y023688D01*
X011703Y023688D02*
X004419Y023688D01*
D11*
X004670Y023569D02*
X011270Y023569D01*
X011270Y014869D01*
X004670Y014869D01*
X004670Y023569D01*
X004371Y023276D02*
X004312Y023334D01*
X004195Y023334D01*
X004137Y023276D01*
X004137Y023042D01*
X004195Y022984D01*
X004312Y022984D01*
X004371Y023042D01*
X004371Y023276D01*
X004002Y023276D02*
X003944Y023334D01*
X003827Y023334D01*
X003769Y023276D01*
X003769Y023217D01*
X003827Y023159D01*
X003944Y023159D01*
X004002Y023101D01*
X004002Y023042D01*
X003944Y022984D01*
X003827Y022984D01*
X003769Y023042D01*
X003634Y022984D02*
X003400Y022984D01*
X003400Y023334D01*
X003634Y023334D01*
X003517Y023159D02*
X003400Y023159D01*
X003266Y023042D02*
X003266Y023334D01*
X003032Y023334D02*
X003032Y023042D01*
X003090Y022984D01*
X003207Y022984D01*
X003266Y023042D01*
X003278Y022734D02*
X003394Y022734D01*
X003336Y022734D02*
X003336Y022384D01*
X003278Y022384D02*
X003394Y022384D01*
X003523Y022384D02*
X003523Y022734D01*
X003698Y022734D01*
X003757Y022676D01*
X003757Y022559D01*
X003698Y022501D01*
X003523Y022501D01*
X003143Y022442D02*
X003143Y022676D01*
X003084Y022734D01*
X002909Y022734D01*
X002909Y022384D01*
X003084Y022384D01*
X003143Y022442D01*
X002897Y022984D02*
X002780Y023101D01*
X002664Y023042D02*
X002664Y023276D01*
X002722Y023334D01*
X002839Y023334D01*
X002897Y023276D01*
X002897Y023042D01*
X002839Y022984D01*
X002722Y022984D01*
X002664Y023042D01*
X004699Y021994D02*
X004774Y021844D01*
X004924Y021693D01*
X004924Y021919D01*
X005000Y021994D01*
X005075Y021994D01*
X005150Y021919D01*
X005150Y021769D01*
X005075Y021693D01*
X004924Y021693D01*
X004849Y021533D02*
X004924Y021458D01*
X005000Y021533D01*
X005075Y021533D01*
X005150Y021458D01*
X005150Y021308D01*
X005075Y021233D01*
X004924Y021383D02*
X004924Y021458D01*
X004849Y021533D02*
X004774Y021533D01*
X004699Y021458D01*
X004699Y021308D01*
X004774Y021233D01*
X007392Y018924D02*
X007903Y018924D01*
X007903Y017743D01*
X007392Y017743D01*
X007392Y018924D01*
X006073Y014540D02*
X014773Y014540D01*
X014773Y007940D01*
X006073Y007940D01*
X006073Y014540D01*
X007539Y012703D02*
X007990Y012703D01*
X007990Y012553D02*
X007990Y012854D01*
X007690Y012553D02*
X007539Y012703D01*
X007615Y012393D02*
X007539Y012318D01*
X007539Y012168D01*
X007615Y012093D01*
X007915Y012093D01*
X007990Y012168D01*
X007990Y012318D01*
X007915Y012393D01*
X007615Y012393D01*
X007840Y012243D02*
X007990Y012393D01*
X007785Y007723D02*
X007785Y000125D01*
X009833Y000125D01*
X009833Y007723D01*
X007785Y007723D01*
X006880Y007723D02*
X006880Y000125D01*
X004833Y000125D01*
X004833Y007723D01*
X006880Y007723D01*
X010738Y007723D02*
X010738Y000125D01*
X012785Y000125D01*
X012785Y007723D01*
X010738Y007723D01*
X013691Y007723D02*
X013691Y000125D01*
X015738Y000125D01*
X015738Y007723D01*
X013691Y007723D01*
X015950Y004733D02*
X015950Y004433D01*
X015950Y004583D02*
X015499Y004583D01*
X015649Y004433D01*
X014788Y017466D02*
X014674Y017466D01*
X014617Y017523D01*
X014731Y017636D02*
X014788Y017636D01*
X014844Y017580D01*
X014844Y017523D01*
X014788Y017466D01*
X014788Y017636D02*
X014844Y017693D01*
X014844Y017750D01*
X014788Y017806D01*
X014674Y017806D01*
X014617Y017750D01*
X013844Y017750D02*
X013844Y017693D01*
X013617Y017466D01*
X013844Y017466D01*
X013844Y017750D02*
X013788Y017806D01*
X013674Y017806D01*
X013617Y017750D01*
X012844Y017466D02*
X012617Y017466D01*
X012731Y017466D02*
X012731Y017806D01*
X012617Y017693D01*
X018699Y021308D02*
X018699Y021458D01*
X018774Y021533D01*
X018849Y021533D01*
X018924Y021458D01*
X019000Y021533D01*
X019075Y021533D01*
X019150Y021458D01*
X019150Y021308D01*
X019075Y021233D01*
X018924Y021383D02*
X018924Y021458D01*
X018924Y021693D02*
X018774Y021844D01*
X018699Y021994D01*
X018924Y021919D02*
X018924Y021693D01*
X019075Y021693D01*
X019150Y021769D01*
X019150Y021919D01*
X019075Y021994D01*
X019000Y021994D01*
X018924Y021919D01*
X018699Y021308D02*
X018774Y021233D01*
X001950Y004733D02*
X001950Y004433D01*
X001950Y004583D02*
X001499Y004583D01*
X001649Y004433D01*
D12*
X011703Y020656D02*
X015640Y020656D01*
X015640Y023688D01*
X011703Y023688D01*
X011703Y020656D01*
D13*
X011762Y020428D02*
X011762Y020121D01*
X011915Y019968D01*
X012069Y020121D01*
X012069Y020428D01*
X012222Y020428D02*
X012376Y020428D01*
X012299Y020428D02*
X012299Y019968D01*
X012222Y019968D02*
X012376Y019968D01*
X012529Y019968D02*
X012529Y020428D01*
X012836Y019968D01*
X012836Y020428D01*
X012844Y019759D02*
X012844Y019452D01*
X012691Y019299D01*
X012537Y019452D01*
X012537Y019759D01*
X012384Y019759D02*
X012077Y019759D01*
X012077Y019529D01*
X012230Y019605D01*
X012307Y019605D01*
X012384Y019529D01*
X012384Y019375D01*
X012307Y019299D01*
X012154Y019299D01*
X012077Y019375D01*
X013458Y019299D02*
X013458Y019759D01*
X013612Y019759D02*
X013612Y019299D01*
X013604Y019968D02*
X013604Y020428D01*
X013450Y020428D02*
X013450Y019968D01*
X014217Y020045D02*
X014294Y019968D01*
X014448Y019968D01*
X014524Y020045D01*
X014524Y020198D01*
X014371Y020198D01*
X014524Y020351D02*
X014448Y020428D01*
X014294Y020428D01*
X014217Y020351D01*
X014217Y020045D01*
X014225Y019759D02*
X014225Y019529D01*
X014379Y019605D01*
X014456Y019605D01*
X014532Y019529D01*
X014532Y019375D01*
X014456Y019299D01*
X014302Y019299D01*
X014225Y019375D01*
X014225Y019759D02*
X014532Y019759D01*
X014678Y019968D02*
X014678Y020428D01*
X014985Y019968D01*
X014985Y020428D01*
X015138Y020428D02*
X015368Y020428D01*
X015445Y020351D01*
X015445Y020045D01*
X015368Y019968D01*
X015138Y019968D01*
X015138Y020428D01*
X015223Y019759D02*
X015146Y019682D01*
X015223Y019759D02*
X015376Y019759D01*
X015453Y019682D01*
X015453Y019605D01*
X015146Y019299D01*
X015453Y019299D01*
X015607Y019375D02*
X015607Y019452D01*
X015683Y019529D01*
X015837Y019529D01*
X015914Y019452D01*
X015914Y019375D01*
X015837Y019299D01*
X015683Y019299D01*
X015607Y019375D01*
X015683Y019529D02*
X015607Y019605D01*
X015607Y019682D01*
X015683Y019759D01*
X015837Y019759D01*
X015914Y019682D01*
X015914Y019605D01*
X015837Y019529D01*
X016067Y019452D02*
X016067Y019759D01*
X016067Y019452D02*
X016220Y019299D01*
X016374Y019452D01*
X016374Y019759D01*
X014993Y019529D02*
X014686Y019529D01*
X014719Y015192D02*
X014873Y015192D01*
X014949Y015115D01*
X014949Y015039D01*
X014873Y014962D01*
X014949Y014885D01*
X014949Y014808D01*
X014873Y014732D01*
X014719Y014732D01*
X014642Y014808D01*
X014796Y014962D02*
X014873Y014962D01*
X014719Y015192D02*
X014642Y015115D01*
X013568Y014962D02*
X013261Y014962D01*
X013491Y015192D01*
X013491Y014732D01*
X014212Y013410D02*
X014212Y013103D01*
X014443Y013103D01*
X014366Y013257D01*
X014366Y013334D01*
X014443Y013410D01*
X014596Y013410D01*
X014673Y013334D01*
X014673Y013180D01*
X014596Y013103D01*
X014596Y012950D02*
X014673Y012873D01*
X014673Y012720D01*
X014596Y012643D01*
X014289Y012643D01*
X014212Y012720D01*
X014212Y012873D01*
X014289Y012950D01*
X014156Y011887D02*
X014002Y011887D01*
X013925Y011810D01*
X013925Y011503D01*
X014002Y011426D01*
X014156Y011426D01*
X014232Y011503D01*
X014386Y011426D02*
X014693Y011426D01*
X014539Y011426D02*
X014539Y011887D01*
X014386Y011733D01*
X014232Y011810D02*
X014156Y011887D01*
X012893Y011194D02*
X012893Y010887D01*
X012586Y011194D01*
X012510Y011194D01*
X012433Y011118D01*
X012433Y010964D01*
X012510Y010887D01*
X012510Y010734D02*
X012433Y010657D01*
X012433Y010504D01*
X012510Y010427D01*
X012817Y010427D01*
X012893Y010504D01*
X012893Y010657D01*
X012817Y010734D01*
X012872Y009538D02*
X012872Y009231D01*
X012872Y009384D02*
X012412Y009384D01*
X012565Y009231D01*
X012412Y009077D02*
X012412Y008770D01*
X012872Y008770D01*
X012642Y008770D02*
X012642Y008924D01*
X013850Y008925D02*
X013850Y009385D01*
X014157Y009385D01*
X014310Y009309D02*
X014387Y009385D01*
X014540Y009385D01*
X014617Y009309D01*
X014617Y009232D01*
X014310Y008925D01*
X014617Y008925D01*
X014003Y009155D02*
X013850Y009155D01*
X012667Y006483D02*
X012667Y006176D01*
X012360Y006483D01*
X012283Y006483D01*
X012206Y006406D01*
X012206Y006253D01*
X012283Y006176D01*
X012206Y006023D02*
X012667Y005716D01*
X012667Y006023D02*
X012206Y005716D01*
X009753Y005598D02*
X009293Y005905D01*
X009370Y006058D02*
X009293Y006135D01*
X009293Y006288D01*
X009370Y006365D01*
X009447Y006365D01*
X009523Y006288D01*
X009600Y006365D01*
X009677Y006365D01*
X009753Y006288D01*
X009753Y006135D01*
X009677Y006058D01*
X009753Y005905D02*
X009293Y005598D01*
X009523Y006212D02*
X009523Y006288D01*
X009577Y008770D02*
X009577Y009077D01*
X009654Y009231D02*
X009577Y009307D01*
X009577Y009461D01*
X009654Y009538D01*
X009730Y009538D01*
X009807Y009461D01*
X009884Y009538D01*
X009961Y009538D01*
X010037Y009461D01*
X010037Y009307D01*
X009961Y009231D01*
X009807Y009384D02*
X009807Y009461D01*
X009807Y008924D02*
X009807Y008770D01*
X010037Y008770D02*
X009577Y008770D01*
X009675Y010466D02*
X009982Y010466D01*
X010059Y010543D01*
X010059Y010697D01*
X009982Y010773D01*
X009982Y010927D02*
X010059Y011003D01*
X010059Y011157D01*
X009982Y011234D01*
X009905Y011234D01*
X009828Y011157D01*
X009828Y011080D01*
X009828Y011157D02*
X009752Y011234D01*
X009675Y011234D01*
X009598Y011157D01*
X009598Y011003D01*
X009675Y010927D01*
X009675Y010773D02*
X009598Y010697D01*
X009598Y010543D01*
X009675Y010466D01*
X006663Y009754D02*
X006202Y009754D01*
X006432Y009524D01*
X006432Y009831D01*
X006202Y009370D02*
X006202Y009064D01*
X006663Y009064D01*
X006432Y009064D02*
X006432Y009217D01*
X006289Y011411D02*
X006212Y011488D01*
X006212Y011641D01*
X006289Y011718D01*
X006443Y011872D02*
X006443Y012179D01*
X006673Y012102D02*
X006212Y012102D01*
X006443Y011872D01*
X006596Y011718D02*
X006673Y011641D01*
X006673Y011488D01*
X006596Y011411D01*
X006289Y011411D01*
X008415Y015073D02*
X008338Y015149D01*
X008338Y015303D01*
X008415Y015380D01*
X008569Y015533D02*
X008569Y015763D01*
X008645Y015840D01*
X008722Y015840D01*
X008799Y015763D01*
X008799Y015610D01*
X008722Y015533D01*
X008569Y015533D01*
X008415Y015686D01*
X008338Y015840D01*
X008722Y015380D02*
X008799Y015303D01*
X008799Y015149D01*
X008722Y015073D01*
X008415Y015073D01*
X007905Y019141D02*
X007521Y019141D01*
X007521Y019448D02*
X007905Y019448D01*
X007982Y019371D01*
X007982Y019218D01*
X007905Y019141D01*
X007905Y019601D02*
X007982Y019678D01*
X007982Y019832D01*
X007905Y019908D01*
X007752Y019908D01*
X007675Y019832D01*
X007675Y019755D01*
X007752Y019601D01*
X007521Y019601D01*
X007521Y019908D01*
X012034Y015192D02*
X012187Y015039D01*
X012187Y014732D01*
X012187Y014962D02*
X011880Y014962D01*
X011880Y015039D02*
X011880Y014732D01*
X011880Y015039D02*
X012034Y015192D01*
X016024Y015115D02*
X016100Y015192D01*
X016254Y015192D01*
X016331Y015115D01*
X016331Y015039D01*
X016024Y014732D01*
X016331Y014732D01*
X017405Y014732D02*
X017712Y014732D01*
X017558Y014732D02*
X017558Y015192D01*
X017405Y015039D01*
X015620Y006523D02*
X015620Y006216D01*
X015620Y006369D02*
X015159Y006369D01*
X015313Y006216D01*
X015159Y006062D02*
X015620Y005755D01*
X015620Y006062D02*
X015159Y005755D01*
X006761Y005826D02*
X006301Y005519D01*
X006301Y005826D02*
X006761Y005519D01*
X006531Y005979D02*
X006531Y006286D01*
X006301Y006210D02*
X006531Y005979D01*
X006761Y006210D02*
X006301Y006210D01*
D14*
X004525Y004308D02*
X004525Y021808D01*
X004523Y021838D01*
X004518Y021868D01*
X004509Y021897D01*
X004496Y021924D01*
X004481Y021950D01*
X004462Y021974D01*
X004441Y021995D01*
X004417Y022014D01*
X004391Y022029D01*
X004364Y022042D01*
X004335Y022051D01*
X004305Y022056D01*
X004275Y022058D01*
X002375Y022058D01*
X002345Y022056D01*
X002315Y022051D01*
X002286Y022042D01*
X002259Y022029D01*
X002233Y022014D01*
X002209Y021995D01*
X002188Y021974D01*
X002169Y021950D01*
X002154Y021924D01*
X002141Y021897D01*
X002132Y021868D01*
X002127Y021838D01*
X002125Y021808D01*
X002125Y004308D01*
X002127Y004278D01*
X002132Y004248D01*
X002141Y004219D01*
X002154Y004192D01*
X002169Y004166D01*
X002188Y004142D01*
X002209Y004121D01*
X002233Y004102D01*
X002259Y004087D01*
X002286Y004074D01*
X002315Y004065D01*
X002345Y004060D01*
X002375Y004058D01*
X004275Y004058D01*
X004305Y004060D01*
X004335Y004065D01*
X004364Y004074D01*
X004391Y004087D01*
X004417Y004102D01*
X004441Y004121D01*
X004462Y004142D01*
X004481Y004166D01*
X004496Y004192D01*
X004509Y004219D01*
X004518Y004248D01*
X004523Y004278D01*
X004525Y004308D01*
X007086Y010052D02*
X007086Y010372D01*
X007193Y010479D01*
X007407Y010479D01*
X007513Y010372D01*
X007513Y010052D01*
X007727Y010052D02*
X007086Y010052D01*
X007193Y010697D02*
X007300Y010697D01*
X007407Y010803D01*
X007407Y011017D01*
X007513Y011124D01*
X007620Y011124D01*
X007727Y011017D01*
X007727Y010803D01*
X007620Y010697D01*
X007193Y010697D02*
X007086Y010803D01*
X007086Y011017D01*
X007193Y011124D01*
X007300Y011341D02*
X007086Y011555D01*
X007727Y011555D01*
X007727Y011768D02*
X007727Y011341D01*
X008372Y012305D02*
X012672Y012305D01*
X012689Y012307D01*
X012706Y012311D01*
X012722Y012318D01*
X012736Y012328D01*
X012749Y012341D01*
X012759Y012355D01*
X012766Y012371D01*
X012770Y012388D01*
X012772Y012405D01*
X012772Y012805D01*
X012772Y013705D02*
X012772Y014105D01*
X012770Y014122D01*
X012766Y014139D01*
X012759Y014155D01*
X012749Y014169D01*
X012736Y014182D01*
X012722Y014192D01*
X012706Y014199D01*
X012689Y014203D01*
X012672Y014205D01*
X008372Y014205D01*
X008355Y014203D01*
X008338Y014199D01*
X008322Y014192D01*
X008308Y014182D01*
X008295Y014169D01*
X008285Y014155D01*
X008278Y014139D01*
X008274Y014122D01*
X008272Y014105D01*
X008272Y013705D01*
X008272Y012805D02*
X008272Y012405D01*
X008274Y012388D01*
X008278Y012371D01*
X008285Y012355D01*
X008295Y012341D01*
X008308Y012328D01*
X008322Y012318D01*
X008338Y012311D01*
X008355Y012307D01*
X008372Y012305D01*
X010272Y013005D02*
X010272Y013255D01*
X010272Y013505D01*
X010422Y013505D02*
X010622Y013505D01*
X010622Y013005D01*
X010422Y013005D01*
X010422Y013505D01*
X010772Y013505D02*
X010772Y013255D01*
X010772Y013005D01*
X012192Y017991D02*
X012992Y017991D01*
X013092Y018091D01*
X013192Y017991D01*
X013992Y017991D01*
X014092Y018091D01*
X014192Y017991D01*
X014992Y017991D01*
X015092Y018091D01*
X015092Y018891D01*
X014992Y018991D01*
X014192Y018991D01*
X014092Y018891D01*
X013992Y018991D01*
X013192Y018991D01*
X013092Y018891D01*
X012992Y018991D01*
X012192Y018991D01*
X012092Y018891D01*
X012092Y018091D01*
X012192Y017991D01*
X011087Y019505D02*
X010660Y019505D01*
X011087Y019932D01*
X011087Y020039D01*
X010980Y020146D01*
X010766Y020146D01*
X010660Y020039D01*
X010442Y020039D02*
X010335Y020146D01*
X010122Y020146D01*
X010015Y020039D01*
X010015Y019932D01*
X010122Y019826D01*
X010335Y019826D01*
X010442Y019719D01*
X010442Y019612D01*
X010335Y019505D01*
X010122Y019505D01*
X010015Y019612D01*
X009797Y019826D02*
X009691Y019719D01*
X009370Y019719D01*
X009370Y019505D02*
X009370Y020146D01*
X009691Y020146D01*
X009797Y020039D01*
X009797Y019826D01*
X012087Y021828D02*
X012087Y022028D01*
X012087Y021828D02*
X012287Y021828D01*
X013087Y021828D02*
X013287Y021828D01*
X013287Y022028D01*
X013287Y022828D02*
X013287Y023028D01*
X013087Y023028D01*
X012287Y023028D02*
X012087Y023028D01*
X012087Y022828D01*
X014055Y022828D02*
X014055Y023028D01*
X014255Y023028D01*
X015055Y023028D02*
X015255Y023028D01*
X015255Y022828D01*
X015255Y022028D02*
X015255Y021828D01*
X015055Y021828D01*
X014255Y021828D02*
X014055Y021828D01*
X014055Y022028D01*
X016125Y021808D02*
X016125Y004308D01*
X016127Y004278D01*
X016132Y004248D01*
X016141Y004219D01*
X016154Y004192D01*
X016169Y004166D01*
X016188Y004142D01*
X016209Y004121D01*
X016233Y004102D01*
X016259Y004087D01*
X016286Y004074D01*
X016315Y004065D01*
X016345Y004060D01*
X016375Y004058D01*
X018275Y004058D01*
X018305Y004060D01*
X018335Y004065D01*
X018364Y004074D01*
X018391Y004087D01*
X018417Y004102D01*
X018441Y004121D01*
X018462Y004142D01*
X018481Y004166D01*
X018496Y004192D01*
X018509Y004219D01*
X018518Y004248D01*
X018523Y004278D01*
X018525Y004308D01*
X018525Y021808D01*
X018523Y021838D01*
X018518Y021868D01*
X018509Y021897D01*
X018496Y021924D01*
X018481Y021950D01*
X018462Y021974D01*
X018441Y021995D01*
X018417Y022014D01*
X018391Y022029D01*
X018364Y022042D01*
X018335Y022051D01*
X018305Y022056D01*
X018275Y022058D01*
X016375Y022058D01*
X016345Y022056D01*
X016315Y022051D01*
X016286Y022042D01*
X016259Y022029D01*
X016233Y022014D01*
X016209Y021995D01*
X016188Y021974D01*
X016169Y021950D01*
X016154Y021924D01*
X016141Y021897D01*
X016132Y021868D01*
X016127Y021838D01*
X016125Y021808D01*
D15*
X015805Y009361D02*
X015805Y008901D01*
X014845Y008901D02*
X014845Y009361D01*
X012222Y009361D02*
X012222Y008901D01*
X011262Y008901D02*
X011262Y009361D01*
X009387Y009361D02*
X009387Y008901D01*
X008427Y008901D02*
X008427Y009361D01*
X006002Y009479D02*
X006002Y009019D01*
X005042Y009019D02*
X005042Y009479D01*
D16*
X011860Y016070D03*
X012333Y016070D03*
X012648Y015952D03*
X013120Y015952D03*
X013435Y015952D03*
X013907Y015952D03*
X014222Y016070D03*
X014695Y016070D03*
X015010Y016070D03*
X015482Y016070D03*
D17*
X015246Y016070D03*
X014459Y016070D03*
X013671Y015952D03*
X012884Y015952D03*
X012096Y016070D03*
D18*
X011872Y014055D02*
X009172Y014055D01*
X009172Y013755D02*
X011872Y013755D01*
X011910Y013754D01*
X011947Y013749D01*
X011984Y013742D01*
X012020Y013733D01*
X012056Y013720D01*
X012090Y013705D01*
X011872Y014055D02*
X011928Y014053D01*
X011983Y014047D01*
X012038Y014038D01*
X012092Y014024D01*
X012145Y014007D01*
X012196Y013986D01*
X012246Y013962D01*
X012294Y013934D01*
X012341Y013903D01*
X012384Y013869D01*
X012426Y013832D01*
X012465Y013792D01*
X012501Y013750D01*
X012533Y013705D01*
X012090Y012805D02*
X012056Y012790D01*
X012020Y012777D01*
X011984Y012768D01*
X011947Y012761D01*
X011910Y012756D01*
X011872Y012755D01*
X009172Y012755D01*
X009172Y012455D02*
X011872Y012455D01*
X011871Y012455D02*
X011927Y012457D01*
X011982Y012463D01*
X012037Y012472D01*
X012091Y012486D01*
X012144Y012503D01*
X012195Y012524D01*
X012245Y012548D01*
X012293Y012576D01*
X012340Y012607D01*
X012384Y012641D01*
X012425Y012678D01*
X012464Y012718D01*
X012500Y012760D01*
X012532Y012805D01*
X010972Y013255D02*
X010772Y013255D01*
X010272Y013255D02*
X010072Y013255D01*
X009172Y014055D02*
X009116Y014053D01*
X009061Y014047D01*
X009006Y014038D01*
X008952Y014024D01*
X008899Y014007D01*
X008848Y013986D01*
X008798Y013962D01*
X008750Y013934D01*
X008703Y013903D01*
X008659Y013869D01*
X008618Y013832D01*
X008579Y013792D01*
X008543Y013750D01*
X008511Y013705D01*
X008511Y012805D02*
X008543Y012760D01*
X008579Y012718D01*
X008618Y012678D01*
X008660Y012641D01*
X008703Y012607D01*
X008750Y012576D01*
X008798Y012548D01*
X008848Y012524D01*
X008899Y012503D01*
X008952Y012486D01*
X009006Y012472D01*
X009061Y012463D01*
X009116Y012457D01*
X009172Y012455D01*
X009172Y012755D02*
X009134Y012756D01*
X009097Y012761D01*
X009060Y012768D01*
X009024Y012777D01*
X008988Y012790D01*
X008954Y012805D01*
X008954Y013705D02*
X008988Y013720D01*
X009024Y013733D01*
X009060Y013742D01*
X009097Y013749D01*
X009134Y013754D01*
X009172Y013755D01*
X009316Y021174D02*
X009410Y021174D01*
X009457Y021220D01*
X009457Y021454D01*
X009546Y021407D02*
X009546Y021360D01*
X009593Y021314D01*
X009686Y021314D01*
X009733Y021267D01*
X009733Y021220D01*
X009686Y021174D01*
X009593Y021174D01*
X009546Y021220D01*
X009546Y021407D02*
X009593Y021454D01*
X009686Y021454D01*
X009733Y021407D01*
X009822Y021454D02*
X009962Y021454D01*
X010009Y021407D01*
X010009Y021360D01*
X009962Y021314D01*
X009822Y021314D01*
X009822Y021174D02*
X009822Y021454D01*
X009962Y021314D02*
X010009Y021267D01*
X010009Y021220D01*
X009962Y021174D01*
X009822Y021174D01*
X009316Y021174D02*
X009270Y021220D01*
X009270Y021454D01*
D19*
X009695Y021936D02*
X007018Y021936D01*
X007018Y022566D01*
X007018Y023590D02*
X009695Y023590D01*
X009695Y022566D02*
X009695Y021936D01*
D20*
X005940Y020311D03*
X005940Y019301D03*
X005940Y016024D03*
D21*
X005933Y016037D03*
X005946Y019380D03*
D22*
X005940Y019446D03*
X005940Y020272D03*
X005940Y016050D03*
D23*
X005933Y016063D03*
X006340Y017663D03*
X005946Y019485D03*
D24*
X005940Y020245D03*
X006346Y017610D03*
X005940Y016076D03*
D25*
X005940Y016089D03*
X006333Y017571D03*
X005940Y019564D03*
X005940Y020232D03*
D26*
X005946Y019590D03*
X005933Y016103D03*
D27*
X005940Y016116D03*
X005940Y019616D03*
D28*
X005933Y016129D03*
D29*
X005940Y016142D03*
D30*
X005933Y016155D03*
D31*
X005933Y016168D03*
X006130Y019970D03*
X006143Y019983D03*
X006156Y019996D03*
X006156Y020009D03*
X005946Y020180D03*
D32*
X006143Y020062D03*
X006156Y020049D03*
X006169Y020036D03*
X005946Y019734D03*
X005933Y016181D03*
D33*
X005940Y016194D03*
X005940Y019760D03*
D34*
X005946Y019773D03*
X005933Y016207D03*
D35*
X005933Y016221D03*
X005946Y019787D03*
D36*
X005933Y016234D03*
D37*
X005933Y016247D03*
X005946Y019826D03*
D38*
X005940Y016260D03*
D39*
X005940Y016273D03*
X005940Y019852D03*
X005940Y020127D03*
D40*
X005933Y016286D03*
D41*
X005933Y016299D03*
X005946Y019878D03*
D42*
X005940Y016312D03*
D43*
X005933Y016325D03*
X005946Y019891D03*
D44*
X005933Y016339D03*
D45*
X005940Y016352D03*
D46*
X005933Y016365D03*
D47*
X005940Y016378D03*
D48*
X005933Y016391D03*
D49*
X005933Y016404D03*
D50*
X005940Y016417D03*
D51*
X005933Y016430D03*
D52*
X005940Y016443D03*
D53*
X005933Y016457D03*
D54*
X005940Y016470D03*
D55*
X005933Y016483D03*
X005933Y016496D03*
D56*
X005940Y016509D03*
D57*
X005933Y016522D03*
D58*
X005940Y016535D03*
D59*
X005933Y016548D03*
X005933Y016561D03*
D60*
X005940Y016575D03*
D61*
X005933Y016588D03*
D62*
X005940Y016601D03*
X005940Y016614D03*
D63*
X005933Y016627D03*
D64*
X005940Y016640D03*
X005940Y016653D03*
D65*
X005933Y016666D03*
X005933Y016679D03*
X005946Y017558D03*
D66*
X005940Y017545D03*
X005940Y017532D03*
X005940Y016693D03*
D67*
X005933Y016706D03*
X005933Y016719D03*
X005946Y017505D03*
X005946Y017519D03*
D68*
X005940Y017492D03*
X005940Y017479D03*
X005940Y017466D03*
X005940Y017453D03*
X005940Y016732D03*
D69*
X005933Y016745D03*
X005933Y016758D03*
D70*
X005940Y016771D03*
X005940Y016784D03*
D71*
X005933Y016797D03*
X005933Y016811D03*
D72*
X005940Y016824D03*
X005940Y016837D03*
D73*
X005933Y016850D03*
X005933Y016863D03*
X005933Y016876D03*
D74*
X005940Y016889D03*
X005940Y016902D03*
D75*
X005933Y016915D03*
X005933Y016929D03*
D76*
X005940Y016942D03*
X005940Y016955D03*
D77*
X005933Y016968D03*
D78*
X005940Y016981D03*
D79*
X005946Y016994D03*
D80*
X005940Y017007D03*
D81*
X005946Y017020D03*
X005946Y017033D03*
X005946Y017309D03*
D82*
X005946Y017283D03*
X005946Y017047D03*
D83*
X005940Y017060D03*
X005940Y017269D03*
D84*
X005946Y017256D03*
X005946Y017243D03*
X005946Y017230D03*
X005946Y017217D03*
X005946Y017204D03*
X005946Y017191D03*
X005946Y017178D03*
X005946Y017165D03*
X005946Y017151D03*
X005946Y017138D03*
X005946Y017125D03*
X005946Y017112D03*
X005946Y017099D03*
X005946Y017086D03*
X005946Y017073D03*
D85*
X005940Y017296D03*
D86*
X005946Y017322D03*
D87*
X005940Y017335D03*
D88*
X005940Y017348D03*
D89*
X005245Y017859D03*
X005219Y017846D03*
X005206Y017833D03*
X005179Y017820D03*
X005166Y017807D03*
X005153Y017794D03*
X005127Y017781D03*
X005009Y017571D03*
X005940Y018843D03*
D90*
X005278Y017872D03*
X005107Y017768D03*
X005002Y017584D03*
D91*
X006346Y017584D03*
X006346Y017597D03*
X005940Y019551D03*
D92*
X005940Y018830D03*
X005101Y017754D03*
X005088Y017741D03*
X005075Y017728D03*
X005061Y017715D03*
X005061Y017702D03*
X005048Y017689D03*
X005035Y017663D03*
X005022Y017650D03*
X005022Y017636D03*
X005009Y017610D03*
X005009Y017597D03*
D93*
X005016Y017623D03*
X005042Y017676D03*
X005946Y018816D03*
D94*
X005946Y019524D03*
X006340Y017623D03*
D95*
X006346Y017636D03*
X005940Y019511D03*
D96*
X006340Y017650D03*
D97*
X006340Y017676D03*
X005946Y019472D03*
D98*
X006353Y017689D03*
D99*
X006359Y017702D03*
D100*
X006346Y017715D03*
X005940Y019406D03*
D101*
X005940Y019393D03*
X006346Y017728D03*
D102*
X006346Y017741D03*
X005507Y020075D03*
D103*
X005520Y020101D03*
X005940Y019341D03*
X006359Y019905D03*
X006372Y019918D03*
X006346Y017754D03*
D104*
X006222Y017768D03*
D105*
X006969Y017768D03*
D106*
X006228Y017781D03*
D107*
X006235Y017794D03*
X005868Y017964D03*
X005868Y017977D03*
X005868Y017990D03*
D108*
X005874Y018017D03*
X006241Y017807D03*
D109*
X006248Y017820D03*
D110*
X006261Y017833D03*
D111*
X006268Y017846D03*
X006241Y017886D03*
X005940Y020377D03*
D112*
X006261Y017859D03*
D113*
X006254Y017872D03*
X005940Y019000D03*
D114*
X005940Y018489D03*
X005075Y017886D03*
D115*
X005461Y017886D03*
X006287Y019079D03*
X006287Y019092D03*
D116*
X005946Y019328D03*
X005540Y020114D03*
X005999Y017899D03*
D117*
X005992Y017912D03*
X005940Y019315D03*
D118*
X005986Y017925D03*
D119*
X005986Y017938D03*
D120*
X005868Y017951D03*
D121*
X006333Y018043D03*
X006595Y017951D03*
X005940Y018449D03*
D122*
X005940Y018397D03*
X006346Y018082D03*
X006608Y017964D03*
D123*
X006615Y017977D03*
D124*
X005868Y018004D03*
D125*
X005920Y018095D03*
X006327Y018030D03*
X005409Y018030D03*
D126*
X005887Y018030D03*
X005940Y018738D03*
D127*
X005940Y018423D03*
X005940Y018410D03*
X006346Y018069D03*
X005389Y018043D03*
D128*
X005887Y018043D03*
X005940Y018698D03*
X005651Y019092D03*
X006687Y019695D03*
D129*
X005370Y018056D03*
D130*
X005894Y018056D03*
D131*
X005940Y018436D03*
X006333Y018056D03*
D132*
X005907Y018069D03*
X006261Y019026D03*
X006261Y019039D03*
X006274Y019052D03*
D133*
X005907Y018082D03*
X004845Y020036D03*
X004871Y020062D03*
D134*
X006353Y018095D03*
D135*
X006359Y018108D03*
X005940Y018358D03*
X005940Y018371D03*
D136*
X005940Y018344D03*
X006359Y018122D03*
D137*
X005940Y018331D03*
D138*
X005940Y018384D03*
D139*
X005940Y018462D03*
X005940Y018476D03*
D140*
X005940Y018502D03*
D141*
X005940Y018515D03*
X005940Y018528D03*
D142*
X005940Y018541D03*
X004852Y020009D03*
X004852Y020023D03*
D143*
X004852Y020049D03*
X005940Y018554D03*
D144*
X005946Y018567D03*
D145*
X005940Y018580D03*
D146*
X005940Y018594D03*
D147*
X005940Y018607D03*
X005940Y018620D03*
X006241Y019013D03*
X006281Y019066D03*
X005940Y020429D03*
D148*
X005940Y018633D03*
D149*
X005940Y018646D03*
X006294Y019118D03*
D150*
X005940Y018672D03*
X005940Y018659D03*
D151*
X005940Y018685D03*
X005678Y019039D03*
X005665Y019052D03*
X006661Y019655D03*
X006674Y019669D03*
D152*
X005940Y018725D03*
X005940Y018712D03*
X005651Y019105D03*
X005651Y019118D03*
D153*
X005940Y018751D03*
X005940Y020416D03*
D154*
X005940Y018777D03*
X005940Y018764D03*
D155*
X005940Y018790D03*
D156*
X005940Y018803D03*
D157*
X005940Y018856D03*
X005166Y019918D03*
X006726Y020101D03*
D158*
X006733Y020088D03*
X005946Y018869D03*
X005173Y019905D03*
X005160Y019931D03*
D159*
X005940Y018882D03*
D160*
X005940Y018895D03*
X006740Y020075D03*
D161*
X005940Y018908D03*
D162*
X005946Y018921D03*
D163*
X005940Y018934D03*
X005940Y020390D03*
D164*
X005940Y018948D03*
D165*
X005940Y018961D03*
D166*
X005946Y018974D03*
D167*
X005940Y018987D03*
D168*
X005697Y019013D03*
X005658Y019066D03*
X005658Y019079D03*
X006654Y019642D03*
X006681Y019682D03*
D169*
X006287Y019131D03*
X005684Y019026D03*
D170*
X006287Y019105D03*
D171*
X005658Y019131D03*
D172*
X005940Y019144D03*
X005940Y020350D03*
D173*
X005940Y019157D03*
D174*
X005946Y019170D03*
D175*
X005940Y019184D03*
D176*
X005940Y019197D03*
X005940Y020337D03*
D177*
X005940Y019210D03*
D178*
X005946Y019223D03*
D179*
X005940Y019236D03*
X005625Y019669D03*
D180*
X005612Y019695D03*
X005940Y019249D03*
X005940Y020324D03*
D181*
X005612Y019708D03*
X005940Y019262D03*
D182*
X005946Y019275D03*
X005619Y019721D03*
D183*
X005940Y019288D03*
D184*
X005940Y019354D03*
X005507Y020088D03*
X005940Y020298D03*
D185*
X006379Y019944D03*
X005946Y019367D03*
D186*
X005946Y019419D03*
D187*
X005946Y019433D03*
D188*
X005940Y019459D03*
D189*
X005940Y019498D03*
D190*
X005946Y019537D03*
D191*
X005946Y019577D03*
D192*
X005940Y019603D03*
X005940Y020219D03*
D193*
X005946Y019629D03*
D194*
X005645Y019642D03*
X005632Y019655D03*
X005619Y019682D03*
D195*
X006681Y019708D03*
D196*
X006681Y019721D03*
D197*
X005940Y019747D03*
D198*
X005940Y019800D03*
D199*
X005940Y019813D03*
X005940Y020141D03*
D200*
X005946Y019839D03*
D201*
X005940Y019865D03*
D202*
X006379Y019931D03*
D203*
X005160Y019944D03*
D204*
X005940Y019957D03*
D205*
X004884Y019970D03*
X004871Y019983D03*
X004858Y019996D03*
D206*
X006163Y020023D03*
D207*
X005933Y020403D03*
X006707Y020114D03*
D208*
X005940Y020154D03*
D209*
X005946Y020167D03*
D210*
X005946Y020193D03*
D211*
X005940Y020206D03*
D212*
X005940Y020259D03*
D213*
X005946Y020285D03*
D214*
X005940Y020363D03*
M02*
