G75*
%MOIN*%
%OFA0B0*%
%FSLAX24Y24*%
%IPPOS*%
%LPD*%
%AMOC8*
5,1,8,0,0,1.08239X$1,22.5*
%
%ADD10C,0.0160*%
%ADD11C,0.0600*%
%ADD12OC8,0.0600*%
%ADD13OC8,0.1310*%
%ADD14C,0.0532*%
%ADD15C,0.0600*%
%ADD16R,0.1123X0.0651*%
%ADD17R,0.1123X0.0690*%
%ADD18R,0.0532X0.0532*%
%ADD19R,0.0296X0.0454*%
%ADD20R,0.0296X0.0296*%
%ADD21R,0.2060X0.0760*%
%ADD22C,0.0591*%
%ADD23C,0.0946*%
%ADD24R,0.0217X0.0591*%
%ADD25R,0.0651X0.0808*%
%ADD26C,0.0739*%
%ADD27C,0.0562*%
%ADD28C,0.0436*%
D10*
X002254Y004003D02*
X018396Y004003D01*
X018396Y023688D01*
X002254Y023688D01*
X002254Y004003D01*
D11*
X002825Y004558D03*
X016825Y004558D03*
D12*
X016825Y005558D03*
X016825Y006558D03*
X016825Y007558D03*
X016825Y008558D03*
X016825Y009558D03*
X016825Y010558D03*
X016825Y011558D03*
X017825Y011558D03*
X017825Y010558D03*
X017825Y009558D03*
X017825Y008558D03*
X017825Y007558D03*
X017825Y006558D03*
X017825Y005558D03*
X017825Y004558D03*
X017825Y012558D03*
X017825Y013558D03*
X017825Y014558D03*
X017825Y015558D03*
X017825Y016558D03*
X017825Y017558D03*
X017825Y018558D03*
X017825Y019558D03*
X017825Y020558D03*
X017825Y021558D03*
X016825Y021558D03*
X016825Y020558D03*
X016825Y019558D03*
X016825Y018558D03*
X016825Y017558D03*
X016825Y016558D03*
X016825Y015558D03*
X016825Y014558D03*
X016825Y013558D03*
X016825Y012558D03*
X003825Y012558D03*
X003825Y013558D03*
X003825Y014558D03*
X003825Y015558D03*
X003825Y016558D03*
X003825Y017558D03*
X003825Y018558D03*
X003825Y019558D03*
X003825Y020558D03*
X003825Y021558D03*
X002825Y021558D03*
X002825Y020558D03*
X002825Y019558D03*
X002825Y018558D03*
X002825Y017558D03*
X002825Y016558D03*
X002825Y015558D03*
X002825Y014558D03*
X002825Y013558D03*
X002825Y012558D03*
X002825Y011558D03*
X002825Y010558D03*
X002825Y009558D03*
X002825Y008558D03*
X002825Y007558D03*
X002825Y006558D03*
X002825Y005558D03*
X003825Y005558D03*
X003825Y004558D03*
X003825Y006558D03*
X003825Y007558D03*
X003825Y008558D03*
X003825Y009558D03*
X003825Y010558D03*
X003825Y011558D03*
D13*
X012687Y022428D03*
X014655Y022428D03*
D14*
X010570Y022633D02*
X010570Y023105D01*
X005370Y023105D02*
X005370Y022633D01*
X005370Y015805D02*
X005370Y015333D01*
X006536Y013840D02*
X007009Y013840D01*
X010570Y015333D02*
X010570Y015805D01*
X013836Y013840D02*
X014309Y013840D01*
X014309Y008640D02*
X013836Y008640D01*
X007009Y008640D02*
X006536Y008640D01*
D15*
X012592Y018221D02*
X012592Y018761D01*
X013592Y018761D02*
X013592Y018221D01*
X014592Y018221D02*
X014592Y018761D01*
D16*
X015325Y009712D03*
X015325Y008550D03*
X011742Y008550D03*
X011742Y009712D03*
X008907Y009712D03*
X008907Y008550D03*
X005522Y008668D03*
X005522Y009830D03*
D17*
X005522Y010538D03*
X005522Y011641D03*
X008907Y011641D03*
X008907Y010538D03*
X011703Y010538D03*
X011703Y011641D03*
X009498Y014751D03*
X009498Y015853D03*
X015364Y014357D03*
X015364Y013255D03*
X015325Y011641D03*
X015325Y010538D03*
D18*
X015246Y015597D03*
X015246Y016424D03*
X014459Y016424D03*
X014459Y015597D03*
X013671Y015597D03*
X013671Y016424D03*
X012884Y016424D03*
X012884Y015597D03*
X012096Y015597D03*
X012096Y016424D03*
D19*
X008061Y018038D03*
D20*
X008061Y018708D03*
X007234Y018708D03*
X007234Y017960D03*
D21*
X008622Y013255D03*
X012422Y013255D03*
D22*
X011762Y007342D03*
X011762Y006554D03*
X011762Y005767D03*
X011762Y004979D03*
X014714Y004979D03*
X014714Y005767D03*
X014714Y006554D03*
X014714Y007342D03*
X008809Y007342D03*
X008809Y006554D03*
X008809Y005767D03*
X008809Y004979D03*
X005856Y004979D03*
X005856Y005767D03*
X005856Y006554D03*
X005856Y007342D03*
D23*
X006927Y007448D03*
X007738Y007448D03*
X009880Y007448D03*
X010691Y007448D03*
X012833Y007448D03*
X013644Y007448D03*
X015785Y007448D03*
X015785Y004692D03*
X013644Y004692D03*
X012833Y004692D03*
X010691Y004692D03*
X009880Y004692D03*
X007738Y004692D03*
X006927Y004692D03*
X004785Y004692D03*
X004785Y007448D03*
D24*
X007844Y021966D03*
X008100Y021966D03*
X008356Y021966D03*
X008612Y021966D03*
X008868Y021966D03*
D25*
X008750Y023019D03*
X007962Y023015D03*
D26*
X006978Y023019D03*
X009734Y023019D03*
D27*
X009340Y021985D03*
X007372Y021985D03*
D28*
X007018Y019869D03*
X008277Y019869D03*
X008710Y019042D03*
X009183Y017979D03*
X009419Y016562D03*
X010600Y016759D03*
X011112Y016247D03*
X011781Y017074D03*
X012569Y016916D03*
X013317Y016916D03*
X014459Y016956D03*
X014813Y015027D03*
X016270Y015027D03*
X016270Y017113D03*
X013277Y014042D03*
X012254Y012625D03*
X013041Y011838D03*
X014065Y012310D03*
X014222Y011168D03*
X014222Y009672D03*
X012923Y009436D03*
X012726Y008491D03*
X010403Y009515D03*
X009852Y008294D03*
X008002Y009830D03*
X007175Y009790D03*
X006309Y010814D03*
X006742Y011405D03*
X005207Y012271D03*
X005128Y013845D03*
X005128Y016483D03*
X006270Y017625D03*
X005167Y018294D03*
X007529Y016759D03*
X008435Y013924D03*
X009813Y012704D03*
X010522Y014830D03*
X011073Y014948D03*
X010640Y019121D03*
X010049Y020420D03*
X011073Y021050D03*
X016151Y010145D03*
X006506Y008058D03*
X004577Y008216D03*
M02*
