G75*
%MOIN*%
%OFA0B0*%
%FSLAX24Y24*%
%IPPOS*%
%LPD*%
%AMOC8*
5,1,8,0,0,1.08239X$1,22.5*
%
%ADD10C,0.0160*%
%ADD11R,0.1063X0.0591*%
%ADD12R,0.1063X0.0630*%
%ADD13R,0.0472X0.0472*%
%ADD14R,0.0236X0.0394*%
%ADD15R,0.0236X0.0236*%
%ADD16R,0.2000X0.0700*%
%ADD17R,0.0157X0.0531*%
%ADD18R,0.0591X0.0748*%
D10*
X002254Y004003D02*
X018396Y004003D01*
X018396Y023688D01*
X002254Y023688D01*
X002254Y004003D01*
D11*
X005522Y008668D03*
X005522Y009830D03*
X008907Y009712D03*
X008907Y008550D03*
X011742Y008550D03*
X011742Y009712D03*
X015325Y009712D03*
X015325Y008550D03*
D12*
X015325Y010538D03*
X015325Y011641D03*
X015364Y013255D03*
X015364Y014357D03*
X011703Y011641D03*
X011703Y010538D03*
X008907Y010538D03*
X008907Y011641D03*
X009498Y014751D03*
X009498Y015853D03*
X005522Y011641D03*
X005522Y010538D03*
D13*
X012096Y015597D03*
X012096Y016424D03*
X012884Y016424D03*
X012884Y015597D03*
X013671Y015597D03*
X013671Y016424D03*
X014459Y016424D03*
X014459Y015597D03*
X015246Y015597D03*
X015246Y016424D03*
D14*
X008061Y018038D03*
D15*
X008061Y018708D03*
X007234Y018708D03*
X007234Y017960D03*
D16*
X008622Y013255D03*
X012422Y013255D03*
D17*
X008868Y021966D03*
X008612Y021966D03*
X008356Y021966D03*
X008100Y021966D03*
X007844Y021966D03*
D18*
X007962Y023015D03*
X008750Y023019D03*
M02*
