G75*
%MOIN*%
%OFA0B0*%
%FSLAX24Y24*%
%IPPOS*%
%LPD*%
%AMOC8*
5,1,8,0,0,1.08239X$1,22.5*
%
%ADD10C,0.0160*%
%ADD11C,0.0540*%
%ADD12OC8,0.0540*%
%ADD13R,0.0138X0.0591*%
%ADD14OC8,0.1250*%
%ADD15C,0.0472*%
%ADD16C,0.0540*%
%ADD17R,0.0591X0.0512*%
%ADD18R,0.0512X0.0591*%
%ADD19R,0.0394X0.0236*%
%ADD20R,0.0236X0.0236*%
%ADD21R,0.0236X0.0394*%
%ADD22R,0.0236X0.0236*%
%ADD23R,0.0460X0.0630*%
%ADD24C,0.0531*%
%ADD25C,0.0886*%
%ADD26R,0.0630X0.0460*%
%ADD27C,0.0679*%
%ADD28C,0.0502*%
%ADD29R,0.0421X0.0004*%
%ADD30R,0.0465X0.0004*%
%ADD31R,0.0492X0.0004*%
%ADD32R,0.0516X0.0004*%
%ADD33R,0.0531X0.0004*%
%ADD34R,0.0547X0.0004*%
%ADD35R,0.0563X0.0004*%
%ADD36R,0.0575X0.0004*%
%ADD37R,0.0587X0.0004*%
%ADD38R,0.0598X0.0004*%
%ADD39R,0.0610X0.0004*%
%ADD40R,0.0618X0.0004*%
%ADD41R,0.0626X0.0004*%
%ADD42R,0.0638X0.0004*%
%ADD43R,0.0646X0.0004*%
%ADD44R,0.0650X0.0004*%
%ADD45R,0.0657X0.0004*%
%ADD46R,0.0665X0.0004*%
%ADD47R,0.0673X0.0004*%
%ADD48R,0.0677X0.0004*%
%ADD49R,0.0685X0.0004*%
%ADD50R,0.0689X0.0004*%
%ADD51R,0.0693X0.0004*%
%ADD52R,0.0701X0.0004*%
%ADD53R,0.0705X0.0004*%
%ADD54R,0.0709X0.0004*%
%ADD55R,0.0717X0.0004*%
%ADD56R,0.0720X0.0004*%
%ADD57R,0.0724X0.0004*%
%ADD58R,0.0728X0.0004*%
%ADD59R,0.0732X0.0004*%
%ADD60R,0.0736X0.0004*%
%ADD61R,0.0740X0.0004*%
%ADD62R,0.0744X0.0004*%
%ADD63R,0.0748X0.0004*%
%ADD64R,0.0752X0.0004*%
%ADD65R,0.0756X0.0004*%
%ADD66R,0.0760X0.0004*%
%ADD67R,0.0764X0.0004*%
%ADD68R,0.0768X0.0004*%
%ADD69R,0.0772X0.0004*%
%ADD70R,0.0776X0.0004*%
%ADD71R,0.0780X0.0004*%
%ADD72R,0.0783X0.0004*%
%ADD73R,0.0787X0.0004*%
%ADD74R,0.0791X0.0004*%
%ADD75R,0.0795X0.0004*%
%ADD76R,0.0799X0.0004*%
%ADD77R,0.0803X0.0004*%
%ADD78R,0.0807X0.0004*%
%ADD79R,0.0811X0.0004*%
%ADD80R,0.0815X0.0004*%
%ADD81R,0.0819X0.0004*%
%ADD82R,0.0823X0.0004*%
%ADD83R,0.0827X0.0004*%
%ADD84R,0.0831X0.0004*%
%ADD85R,0.0835X0.0004*%
%ADD86R,0.0839X0.0004*%
%ADD87R,0.0909X0.0004*%
%ADD88R,0.0937X0.0004*%
%ADD89R,0.0953X0.0004*%
%ADD90R,0.0961X0.0004*%
%ADD91R,0.0969X0.0004*%
%ADD92R,0.0976X0.0004*%
%ADD93R,0.0980X0.0004*%
%ADD94R,0.0984X0.0004*%
%ADD95R,0.0965X0.0004*%
%ADD96R,0.0957X0.0004*%
%ADD97R,0.0945X0.0004*%
%ADD98R,0.0921X0.0004*%
%ADD99R,0.0232X0.0004*%
%ADD100R,0.0555X0.0004*%
%ADD101R,0.0224X0.0004*%
%ADD102R,0.0543X0.0004*%
%ADD103R,0.0539X0.0004*%
%ADD104R,0.0220X0.0004*%
%ADD105R,0.0535X0.0004*%
%ADD106R,0.0528X0.0004*%
%ADD107R,0.0520X0.0004*%
%ADD108R,0.0512X0.0004*%
%ADD109R,0.0500X0.0004*%
%ADD110R,0.0488X0.0004*%
%ADD111R,0.0484X0.0004*%
%ADD112R,0.0476X0.0004*%
%ADD113R,0.0449X0.0004*%
%ADD114R,0.0370X0.0004*%
%ADD115R,0.0043X0.0004*%
%ADD116R,0.0228X0.0004*%
%ADD117R,0.0358X0.0004*%
%ADD118R,0.0350X0.0004*%
%ADD119R,0.0343X0.0004*%
%ADD120R,0.0331X0.0004*%
%ADD121R,0.0319X0.0004*%
%ADD122R,0.0311X0.0004*%
%ADD123R,0.0307X0.0004*%
%ADD124R,0.0303X0.0004*%
%ADD125R,0.0063X0.0004*%
%ADD126R,0.0130X0.0004*%
%ADD127R,0.0445X0.0004*%
%ADD128R,0.0437X0.0004*%
%ADD129R,0.0433X0.0004*%
%ADD130R,0.0362X0.0004*%
%ADD131R,0.0047X0.0004*%
%ADD132R,0.0354X0.0004*%
%ADD133R,0.0031X0.0004*%
%ADD134R,0.0346X0.0004*%
%ADD135R,0.0339X0.0004*%
%ADD136R,0.0055X0.0004*%
%ADD137R,0.0177X0.0004*%
%ADD138R,0.0035X0.0004*%
%ADD139R,0.0161X0.0004*%
%ADD140R,0.0051X0.0004*%
%ADD141R,0.0142X0.0004*%
%ADD142R,0.0118X0.0004*%
%ADD143R,0.0091X0.0004*%
%ADD144R,0.0024X0.0004*%
%ADD145R,0.0020X0.0004*%
%ADD146R,0.0008X0.0004*%
%ADD147R,0.0004X0.0004*%
%ADD148R,0.0012X0.0004*%
%ADD149R,0.0028X0.0004*%
%ADD150R,0.0059X0.0004*%
%ADD151R,0.0067X0.0004*%
%ADD152R,0.0075X0.0004*%
%ADD153R,0.0083X0.0004*%
%ADD154R,0.0098X0.0004*%
%ADD155R,0.0106X0.0004*%
%ADD156R,0.0114X0.0004*%
%ADD157R,0.0122X0.0004*%
%ADD158R,0.0138X0.0004*%
%ADD159R,0.0146X0.0004*%
%ADD160R,0.0154X0.0004*%
%ADD161R,0.0165X0.0004*%
%ADD162R,0.0169X0.0004*%
%ADD163R,0.0185X0.0004*%
%ADD164R,0.0189X0.0004*%
%ADD165R,0.0193X0.0004*%
%ADD166R,0.0201X0.0004*%
%ADD167R,0.0209X0.0004*%
%ADD168R,0.0213X0.0004*%
%ADD169R,0.0217X0.0004*%
%ADD170R,0.0236X0.0004*%
%ADD171R,0.0240X0.0004*%
%ADD172R,0.0248X0.0004*%
%ADD173R,0.0256X0.0004*%
%ADD174R,0.0264X0.0004*%
%ADD175R,0.0272X0.0004*%
%ADD176R,0.0280X0.0004*%
%ADD177R,0.0287X0.0004*%
%ADD178R,0.0295X0.0004*%
%ADD179R,0.0299X0.0004*%
%ADD180R,0.0126X0.0004*%
%ADD181R,0.0157X0.0004*%
%ADD182R,0.0134X0.0004*%
%ADD183R,0.0173X0.0004*%
%ADD184R,0.0366X0.0004*%
%ADD185R,0.0374X0.0004*%
%ADD186R,0.0382X0.0004*%
%ADD187R,0.0390X0.0004*%
%ADD188R,0.0394X0.0004*%
%ADD189R,0.0398X0.0004*%
%ADD190R,0.0406X0.0004*%
%ADD191R,0.0409X0.0004*%
%ADD192R,0.0417X0.0004*%
%ADD193R,0.0429X0.0004*%
%ADD194R,0.0441X0.0004*%
%ADD195R,0.0453X0.0004*%
%ADD196R,0.0457X0.0004*%
%ADD197R,0.0469X0.0004*%
%ADD198R,0.0480X0.0004*%
%ADD199R,0.0504X0.0004*%
%ADD200R,0.0508X0.0004*%
%ADD201R,0.0551X0.0004*%
%ADD202R,0.0567X0.0004*%
%ADD203R,0.0579X0.0004*%
%ADD204R,0.0413X0.0004*%
%ADD205R,0.0425X0.0004*%
%ADD206R,0.0181X0.0004*%
%ADD207R,0.0634X0.0004*%
%ADD208R,0.0654X0.0004*%
%ADD209R,0.0661X0.0004*%
%ADD210R,0.0669X0.0004*%
%ADD211R,0.0697X0.0004*%
%ADD212R,0.0244X0.0004*%
%ADD213R,0.0252X0.0004*%
%ADD214R,0.0461X0.0004*%
%ADD215R,0.0094X0.0004*%
%ADD216R,0.0622X0.0004*%
%ADD217R,0.0102X0.0004*%
%ADD218R,0.0630X0.0004*%
%ADD219R,0.0614X0.0004*%
%ADD220R,0.0583X0.0004*%
%ADD221R,0.0327X0.0004*%
%ADD222C,0.0320*%
%ADD223C,0.0376*%
%ADD224C,0.0100*%
%ADD225C,0.0240*%
D10*
X002254Y004003D02*
X018396Y004003D01*
X018396Y023688D01*
X002254Y023688D01*
X002254Y004003D01*
X002574Y005006D02*
X002675Y005048D01*
X002613Y005048D01*
X002574Y005088D01*
X002574Y005006D01*
X002974Y005048D02*
X003036Y005048D01*
X003325Y005337D01*
X003603Y005058D01*
X003315Y004769D01*
X003315Y004708D01*
X003257Y004847D01*
X003114Y004990D01*
X002974Y005048D01*
X003100Y005112D02*
X003549Y005112D01*
X003499Y004954D02*
X003150Y004954D01*
X003278Y004795D02*
X003341Y004795D01*
X003315Y004408D02*
X003279Y004323D01*
X003339Y004323D01*
X003315Y004347D01*
X003315Y004408D01*
X004046Y005058D02*
X004335Y005347D01*
X004335Y005769D01*
X004046Y006058D01*
X004335Y006347D01*
X004335Y006769D01*
X004046Y007058D01*
X004160Y007172D01*
X004206Y007061D01*
X004398Y006869D01*
X004649Y006765D01*
X004921Y006765D01*
X005153Y006861D01*
X005153Y006063D01*
X005197Y005957D01*
X005350Y005803D01*
X005350Y005666D01*
X005427Y005480D01*
X005570Y005338D01*
X005584Y005332D01*
X005566Y005319D01*
X005516Y005270D01*
X005475Y005213D01*
X005443Y005150D01*
X005421Y005084D01*
X005410Y005014D01*
X005410Y004988D01*
X005848Y004988D01*
X005848Y004971D01*
X005865Y004971D01*
X005865Y004988D01*
X006302Y004988D01*
X006302Y005014D01*
X006291Y005084D01*
X006269Y005150D01*
X006237Y005213D01*
X006196Y005270D01*
X006147Y005319D01*
X006129Y005332D01*
X006143Y005338D01*
X006285Y005480D01*
X006362Y005666D01*
X006362Y005867D01*
X006285Y006053D01*
X006178Y006160D01*
X006285Y006268D01*
X006362Y006454D01*
X006362Y006650D01*
X006515Y006803D01*
X006542Y006868D01*
X006791Y006765D01*
X007063Y006765D01*
X007314Y006869D01*
X007333Y006888D01*
X007351Y006869D01*
X007602Y006765D01*
X007874Y006765D01*
X008066Y006845D01*
X008066Y006103D01*
X008110Y005996D01*
X008303Y005803D01*
X008303Y005666D01*
X008380Y005480D01*
X008522Y005338D01*
X008536Y005332D01*
X008519Y005319D01*
X008469Y005270D01*
X008428Y005213D01*
X008396Y005150D01*
X008374Y005084D01*
X008363Y005014D01*
X008363Y004988D01*
X008800Y004988D01*
X008800Y004971D01*
X008363Y004971D01*
X008363Y004967D01*
X008317Y005079D01*
X008125Y005271D01*
X007874Y005375D01*
X007602Y005375D01*
X007351Y005271D01*
X007333Y005252D01*
X007314Y005271D01*
X007063Y005375D01*
X006791Y005375D01*
X006540Y005271D01*
X006348Y005079D01*
X006302Y004967D01*
X006302Y004971D01*
X005865Y004971D01*
X005865Y004534D01*
X005891Y004534D01*
X005961Y004545D01*
X006027Y004566D01*
X006090Y004598D01*
X006147Y004639D01*
X006196Y004689D01*
X006237Y004746D01*
X006244Y004759D01*
X006244Y004556D01*
X006341Y004323D01*
X005372Y004323D01*
X005468Y004556D01*
X005468Y004759D01*
X005475Y004746D01*
X005516Y004689D01*
X005566Y004639D01*
X005623Y004598D01*
X005685Y004566D01*
X005752Y004545D01*
X005821Y004534D01*
X005848Y004534D01*
X005848Y004971D01*
X005410Y004971D01*
X005410Y004967D01*
X005364Y005079D01*
X005172Y005271D01*
X005517Y005271D01*
X005478Y005429D02*
X004335Y005429D01*
X004335Y005588D02*
X005383Y005588D01*
X005350Y005746D02*
X004335Y005746D01*
X004199Y005905D02*
X005249Y005905D01*
X005153Y006063D02*
X004051Y006063D01*
X004210Y006222D02*
X005153Y006222D01*
X005153Y006380D02*
X004335Y006380D01*
X004335Y006539D02*
X005153Y006539D01*
X005153Y006697D02*
X004335Y006697D01*
X004248Y006856D02*
X004430Y006856D01*
X004253Y007014D02*
X004090Y007014D01*
X003603Y007058D02*
X003325Y006779D01*
X003046Y007058D01*
X003325Y007337D01*
X003603Y007058D01*
X003560Y007014D02*
X003090Y007014D01*
X003161Y007173D02*
X003489Y007173D01*
X003330Y007331D02*
X003319Y007331D01*
X003325Y007779D02*
X003603Y008058D01*
X003325Y008337D01*
X003046Y008058D01*
X003325Y007779D01*
X003352Y007807D02*
X003297Y007807D01*
X003139Y007965D02*
X003511Y007965D01*
X003538Y008124D02*
X003112Y008124D01*
X003270Y008282D02*
X003379Y008282D01*
X003325Y008779D02*
X003603Y009058D01*
X003325Y009337D01*
X003046Y009058D01*
X003325Y008779D01*
X003188Y008916D02*
X003462Y008916D01*
X003587Y009075D02*
X003063Y009075D01*
X003221Y009233D02*
X003428Y009233D01*
X003325Y009779D02*
X003603Y010058D01*
X003325Y010337D01*
X003046Y010058D01*
X003325Y009779D01*
X003237Y009867D02*
X003413Y009867D01*
X003571Y010026D02*
X003078Y010026D01*
X003172Y010184D02*
X003477Y010184D01*
X003325Y010779D02*
X003603Y011058D01*
X003325Y011337D01*
X003046Y011058D01*
X003325Y010779D01*
X003286Y010818D02*
X003364Y010818D01*
X003522Y010977D02*
X003127Y010977D01*
X003123Y011135D02*
X003526Y011135D01*
X003368Y011294D02*
X003282Y011294D01*
X003325Y011779D02*
X003603Y012058D01*
X003325Y012337D01*
X003046Y012058D01*
X003325Y011779D01*
X003176Y011928D02*
X003473Y011928D01*
X003575Y012086D02*
X003074Y012086D01*
X003233Y012245D02*
X003417Y012245D01*
X003325Y012779D02*
X003603Y013058D01*
X003325Y013337D01*
X003046Y013058D01*
X003325Y012779D01*
X003424Y012879D02*
X003225Y012879D01*
X003067Y013037D02*
X003583Y013037D01*
X003466Y013196D02*
X003184Y013196D01*
X003325Y013779D02*
X003603Y014058D01*
X003325Y014337D01*
X003046Y014058D01*
X003325Y013779D01*
X003375Y013830D02*
X003274Y013830D01*
X003116Y013988D02*
X003534Y013988D01*
X003515Y014147D02*
X003135Y014147D01*
X003293Y014305D02*
X003356Y014305D01*
X003325Y014779D02*
X003603Y015058D01*
X003325Y015337D01*
X003046Y015058D01*
X003325Y014779D01*
X003323Y014781D02*
X003326Y014781D01*
X003485Y014939D02*
X003165Y014939D01*
X003086Y015098D02*
X003564Y015098D01*
X003405Y015256D02*
X003244Y015256D01*
X003325Y015779D02*
X003046Y016058D01*
X003335Y016347D01*
X003335Y016769D01*
X003046Y017058D01*
X003325Y017337D01*
X003613Y017048D01*
X004036Y017048D01*
X004335Y017347D01*
X004335Y017769D01*
X004046Y018058D01*
X004335Y018347D01*
X004335Y018769D01*
X004046Y019058D01*
X004335Y019347D01*
X004335Y019769D01*
X004036Y020068D01*
X003613Y020068D01*
X003325Y019779D01*
X003046Y020058D01*
X003335Y020347D01*
X003335Y020769D01*
X003036Y021068D01*
X002613Y021068D01*
X002574Y021028D01*
X002574Y021173D01*
X002638Y021108D01*
X002815Y021108D01*
X002815Y021548D01*
X002835Y021548D01*
X002835Y021568D01*
X003275Y021568D01*
X003275Y021744D01*
X003011Y022008D01*
X002835Y022008D01*
X002835Y021568D01*
X002815Y021568D01*
X002815Y022008D01*
X002638Y022008D01*
X002574Y021944D01*
X002574Y023368D01*
X005046Y023368D01*
X005014Y023323D01*
X004984Y023265D01*
X004964Y023203D01*
X004953Y023138D01*
X004953Y022869D01*
X004953Y022600D01*
X004964Y022535D01*
X004984Y022473D01*
X005014Y022415D01*
X005052Y022362D01*
X005098Y022315D01*
X005151Y022277D01*
X005210Y022247D01*
X005272Y022227D01*
X005337Y022217D01*
X005370Y022217D01*
X005402Y022217D01*
X005467Y022227D01*
X005529Y022247D01*
X005557Y022261D01*
X005557Y022215D01*
X005515Y022114D01*
X005515Y021955D01*
X005557Y021854D01*
X005557Y021794D01*
X005532Y021794D01*
X005489Y021837D01*
X005463Y021863D01*
X005331Y021918D01*
X004186Y021918D01*
X004036Y022068D01*
X003613Y022068D01*
X003315Y021769D01*
X003315Y021347D01*
X003613Y021048D01*
X004036Y021048D01*
X004186Y021198D01*
X004925Y021198D01*
X004925Y020860D01*
X004980Y020728D01*
X005081Y020627D01*
X005081Y020627D01*
X005081Y020176D01*
X005118Y020087D01*
X005185Y020020D01*
X005274Y019983D01*
X005791Y019983D01*
X005791Y017672D01*
X005841Y017551D01*
X005841Y017540D01*
X005907Y017382D01*
X006027Y017262D01*
X006184Y017197D01*
X006355Y017197D01*
X006512Y017262D01*
X006632Y017382D01*
X006698Y017540D01*
X006698Y017710D01*
X006632Y017868D01*
X006512Y017988D01*
X006511Y017988D01*
X006511Y018767D01*
X006520Y018788D01*
X006520Y018903D01*
X006511Y018924D01*
X006511Y019983D01*
X007029Y019983D01*
X007117Y020020D01*
X007185Y020087D01*
X007221Y020176D01*
X007221Y020556D01*
X007396Y020730D01*
X010787Y020730D01*
X010830Y020687D01*
X010988Y020622D01*
X011158Y020622D01*
X011315Y020687D01*
X011436Y020808D01*
X011501Y020965D01*
X011501Y021135D01*
X011436Y021293D01*
X011315Y021413D01*
X011158Y021478D01*
X010988Y021478D01*
X010830Y021413D01*
X010787Y021370D01*
X010305Y021370D01*
X010796Y021861D01*
X010909Y021974D01*
X010970Y022121D01*
X010970Y022359D01*
X010973Y022363D01*
X011046Y022538D01*
X011046Y023200D01*
X010976Y023368D01*
X016516Y023368D01*
X016516Y023351D01*
X016552Y023263D01*
X016557Y023258D01*
X016560Y023251D01*
X016569Y023242D01*
X016572Y023235D01*
X016581Y023226D01*
X016584Y023219D01*
X016593Y023210D01*
X016596Y023204D01*
X016605Y023195D01*
X016607Y023188D01*
X016616Y023179D01*
X016619Y023172D01*
X016628Y023163D01*
X016631Y023156D01*
X016640Y023147D01*
X016643Y023141D01*
X016652Y023132D01*
X016655Y023125D01*
X016664Y023116D01*
X016666Y023109D01*
X016676Y023100D01*
X016678Y023093D01*
X016683Y023088D01*
X016686Y023082D01*
X016695Y023073D01*
X016698Y023066D01*
X016707Y023057D01*
X016710Y023050D01*
X016719Y023041D01*
X016722Y023034D01*
X016731Y023025D01*
X016733Y023019D01*
X016742Y023010D01*
X016745Y023003D01*
X016754Y022994D01*
X016757Y022987D01*
X016765Y022979D01*
X016766Y022978D01*
X016766Y022977D01*
X016754Y022965D01*
X016746Y022961D01*
X016743Y022961D01*
X016655Y022925D01*
X016654Y022924D01*
X016647Y022921D01*
X016646Y022920D01*
X016640Y022917D01*
X016572Y022850D01*
X016568Y022846D01*
X016564Y022842D01*
X016560Y022838D01*
X016556Y022834D01*
X016552Y022830D01*
X016548Y022826D01*
X016546Y022819D01*
X016544Y022818D01*
X016541Y022814D01*
X016538Y022807D01*
X016537Y022806D01*
X016535Y022803D01*
X016525Y022799D01*
X016458Y022731D01*
X016454Y022727D01*
X016450Y022724D01*
X016446Y022720D01*
X016442Y022716D01*
X016406Y022627D01*
X016406Y022625D01*
X016402Y022616D01*
X016402Y022469D01*
X016406Y022459D01*
X016406Y022457D01*
X016442Y022369D01*
X016454Y022357D01*
X016518Y022293D01*
X016520Y022289D01*
X016520Y022288D01*
X016556Y022200D01*
X016557Y022199D01*
X016560Y022192D01*
X016561Y022191D01*
X016564Y022184D01*
X016565Y022183D01*
X016568Y022176D01*
X016569Y022175D01*
X016572Y022168D01*
X016577Y022163D01*
X016580Y022156D01*
X016585Y022151D01*
X016588Y022145D01*
X016593Y022139D01*
X016596Y022133D01*
X016663Y022065D01*
X016667Y022061D01*
X016671Y022057D01*
X016675Y022053D01*
X016679Y022049D01*
X016683Y022046D01*
X016687Y022042D01*
X016691Y022038D01*
X016695Y022034D01*
X016701Y022031D01*
X016703Y022030D01*
X016706Y022026D01*
X016713Y022023D01*
X016714Y022022D01*
X016714Y022022D01*
X016718Y022018D01*
X016725Y022015D01*
X016726Y022014D01*
X016733Y022011D01*
X016734Y022010D01*
X016739Y022008D01*
X016638Y022008D01*
X016375Y021744D01*
X016375Y021568D01*
X016815Y021568D01*
X016815Y021548D01*
X016835Y021548D01*
X016835Y021568D01*
X017275Y021568D01*
X017275Y021744D01*
X017061Y021958D01*
X017394Y021958D01*
X017404Y021962D01*
X017418Y021962D01*
X017427Y021966D01*
X017429Y021966D01*
X017439Y021970D01*
X017441Y021970D01*
X017530Y022006D01*
X017531Y022007D01*
X017537Y022010D01*
X017539Y022011D01*
X017545Y022014D01*
X017546Y022015D01*
X017553Y022018D01*
X017554Y022019D01*
X017561Y022022D01*
X017565Y022026D01*
X017566Y022027D01*
X017573Y022030D01*
X017577Y022034D01*
X017581Y022038D01*
X017585Y022042D01*
X017586Y022043D01*
X017590Y022044D01*
X017315Y021769D01*
X017315Y021347D01*
X017603Y021058D01*
X017325Y020779D01*
X017036Y021068D01*
X016613Y021068D01*
X016315Y020769D01*
X016315Y020347D01*
X016603Y020058D01*
X016315Y019769D01*
X016315Y019484D01*
X016260Y019539D01*
X016024Y019775D01*
X015877Y019836D01*
X014182Y019836D01*
X014035Y019775D01*
X013531Y019271D01*
X013491Y019271D01*
X013303Y019193D01*
X013160Y019050D01*
X013092Y018887D01*
X013025Y019050D01*
X012992Y019082D01*
X012992Y021563D01*
X013045Y021563D01*
X013552Y022070D01*
X013552Y022786D01*
X013045Y023293D01*
X012329Y023293D01*
X011822Y022786D01*
X011822Y022070D01*
X012192Y021699D01*
X012192Y019082D01*
X012160Y019050D01*
X012094Y018891D01*
X011702Y018891D01*
X011555Y018830D01*
X011442Y018718D01*
X011442Y018718D01*
X011116Y018391D01*
X011116Y018716D01*
X011079Y018804D01*
X011012Y018872D01*
X011000Y018876D01*
X011003Y018879D01*
X011068Y019036D01*
X011068Y019206D01*
X011003Y019364D01*
X010882Y019484D01*
X010725Y019549D01*
X010554Y019549D01*
X010397Y019484D01*
X010277Y019364D01*
X010212Y019206D01*
X010212Y019036D01*
X010272Y018890D01*
X010246Y018879D01*
X010176Y018908D01*
X009568Y018908D01*
X009480Y018872D01*
X009413Y018804D01*
X009376Y018716D01*
X009376Y018663D01*
X009115Y018663D01*
X009107Y018666D01*
X009057Y018663D01*
X009007Y018663D01*
X009000Y018660D01*
X008992Y018660D01*
X008947Y018638D01*
X008901Y018619D01*
X008895Y018613D01*
X008888Y018610D01*
X008854Y018573D01*
X008819Y018537D01*
X008816Y018530D01*
X008607Y018298D01*
X008607Y018528D01*
X008693Y018614D01*
X008796Y018614D01*
X008953Y018679D01*
X009073Y018800D01*
X009139Y018957D01*
X009139Y019127D01*
X009073Y019285D01*
X008953Y019405D01*
X008796Y019470D01*
X008625Y019470D01*
X008468Y019405D01*
X008410Y019347D01*
X008410Y019461D01*
X008520Y019506D01*
X008640Y019627D01*
X008706Y019784D01*
X008706Y019954D01*
X008640Y020112D01*
X008520Y020232D01*
X008363Y020297D01*
X008192Y020297D01*
X008035Y020232D01*
X007914Y020112D01*
X007849Y019954D01*
X007849Y019816D01*
X007830Y019769D01*
X007830Y017064D01*
X007772Y017122D01*
X007615Y017187D01*
X007444Y017187D01*
X007287Y017122D01*
X007166Y017001D01*
X007101Y016844D01*
X007101Y016840D01*
X005786Y015524D01*
X005786Y015569D01*
X005370Y015569D01*
X005370Y015569D01*
X005786Y015569D01*
X005786Y015838D01*
X005776Y015903D01*
X005755Y015965D01*
X005726Y016023D01*
X005687Y016076D01*
X005641Y016123D01*
X005588Y016161D01*
X005529Y016191D01*
X005467Y016211D01*
X005402Y016222D01*
X005370Y016222D01*
X005370Y015569D01*
X005370Y014917D01*
X005402Y014917D01*
X005467Y014927D01*
X005529Y014947D01*
X005588Y014977D01*
X005634Y015011D01*
X005634Y012081D01*
X005689Y011949D01*
X005790Y011847D01*
X006314Y011324D01*
X006314Y011319D01*
X006346Y011242D01*
X006224Y011242D01*
X006066Y011177D01*
X005946Y011056D01*
X005881Y010899D01*
X005881Y010768D01*
X005714Y010601D01*
X005677Y010513D01*
X005677Y010418D01*
X005714Y010329D01*
X005879Y010164D01*
X005856Y010142D01*
X005691Y010307D01*
X005603Y010343D01*
X005508Y010343D01*
X005419Y010307D01*
X005185Y010072D01*
X005148Y009984D01*
X005148Y009889D01*
X005185Y009800D01*
X005265Y009720D01*
X005265Y009551D01*
X005197Y009482D01*
X005153Y009376D01*
X005153Y008035D01*
X004921Y008131D01*
X004649Y008131D01*
X004398Y008027D01*
X004238Y007866D01*
X004046Y008058D01*
X004335Y008347D01*
X004335Y008769D01*
X004046Y009058D01*
X004335Y009347D01*
X004335Y009769D01*
X004046Y010058D01*
X004335Y010347D01*
X004335Y010769D01*
X004046Y011058D01*
X004335Y011347D01*
X004335Y011769D01*
X004046Y012058D01*
X004335Y012347D01*
X004335Y012769D01*
X004046Y013058D01*
X004335Y013347D01*
X004335Y013769D01*
X004046Y014058D01*
X004335Y014347D01*
X004335Y014769D01*
X004046Y015058D01*
X004335Y015347D01*
X004335Y015769D01*
X004036Y016068D01*
X003613Y016068D01*
X003325Y015779D01*
X003214Y015890D02*
X003436Y015890D01*
X003594Y016049D02*
X003055Y016049D01*
X003195Y016207D02*
X003539Y016207D01*
X003638Y016108D02*
X003375Y016372D01*
X003375Y016548D01*
X003815Y016548D01*
X003835Y016548D01*
X003835Y016568D01*
X004275Y016568D01*
X004275Y016744D01*
X004011Y017008D01*
X003835Y017008D01*
X003835Y016568D01*
X003815Y016568D01*
X003815Y017008D01*
X003638Y017008D01*
X003375Y016744D01*
X003375Y016568D01*
X003815Y016568D01*
X003815Y016548D01*
X003815Y016108D01*
X003638Y016108D01*
X003835Y016108D02*
X004011Y016108D01*
X004275Y016372D01*
X004275Y016548D01*
X003835Y016548D01*
X003835Y016108D01*
X003835Y016207D02*
X003815Y016207D01*
X003815Y016366D02*
X003835Y016366D01*
X003835Y016524D02*
X003815Y016524D01*
X003815Y016683D02*
X003835Y016683D01*
X003835Y016841D02*
X003815Y016841D01*
X003815Y017000D02*
X003835Y017000D01*
X004019Y017000D02*
X007166Y017000D01*
X007101Y016841D02*
X004178Y016841D01*
X004275Y016683D02*
X006944Y016683D01*
X006786Y016524D02*
X004275Y016524D01*
X004269Y016366D02*
X006627Y016366D01*
X006469Y016207D02*
X005479Y016207D01*
X005370Y016207D02*
X005370Y016207D01*
X005370Y016222D02*
X005337Y016222D01*
X005272Y016211D01*
X005210Y016191D01*
X005151Y016161D01*
X005098Y016123D01*
X005052Y016076D01*
X005014Y016023D01*
X004984Y015965D01*
X004964Y015903D01*
X004953Y015838D01*
X004953Y015569D01*
X004953Y015300D01*
X004964Y015235D01*
X004984Y015173D01*
X005014Y015115D01*
X005052Y015062D01*
X005098Y015015D01*
X005151Y014977D01*
X005210Y014947D01*
X005272Y014927D01*
X005337Y014917D01*
X005370Y014917D01*
X005370Y015569D01*
X005370Y015569D01*
X005370Y015569D01*
X005370Y016222D01*
X005260Y016207D02*
X004110Y016207D01*
X004055Y016049D02*
X005032Y016049D01*
X004962Y015890D02*
X004214Y015890D01*
X004335Y015732D02*
X004953Y015732D01*
X004953Y015573D02*
X004335Y015573D01*
X004335Y015415D02*
X004953Y015415D01*
X004953Y015569D02*
X005370Y015569D01*
X005370Y015569D01*
X004953Y015569D01*
X004960Y015256D02*
X004244Y015256D01*
X004086Y015098D02*
X005026Y015098D01*
X005233Y014939D02*
X004165Y014939D01*
X004323Y014781D02*
X005634Y014781D01*
X005634Y014939D02*
X005506Y014939D01*
X005370Y014939D02*
X005370Y014939D01*
X005370Y015098D02*
X005370Y015098D01*
X005370Y015256D02*
X005370Y015256D01*
X005370Y015415D02*
X005370Y015415D01*
X005370Y015573D02*
X005370Y015573D01*
X005370Y015732D02*
X005370Y015732D01*
X005370Y015890D02*
X005370Y015890D01*
X005370Y016049D02*
X005370Y016049D01*
X005128Y016483D02*
X004852Y016483D01*
X004146Y017158D02*
X007375Y017158D01*
X007683Y017158D02*
X007830Y017158D01*
X007830Y017317D02*
X006567Y017317D01*
X006671Y017475D02*
X007830Y017475D01*
X007830Y017634D02*
X006698Y017634D01*
X006664Y017792D02*
X007830Y017792D01*
X007830Y017951D02*
X006549Y017951D01*
X006511Y018109D02*
X007830Y018109D01*
X007830Y018268D02*
X006511Y018268D01*
X006511Y018426D02*
X007830Y018426D01*
X007830Y018585D02*
X006511Y018585D01*
X006511Y018743D02*
X007830Y018743D01*
X007830Y018902D02*
X006520Y018902D01*
X006511Y019060D02*
X007830Y019060D01*
X007830Y019219D02*
X006511Y019219D01*
X006511Y019377D02*
X007830Y019377D01*
X007830Y019536D02*
X006511Y019536D01*
X006511Y019694D02*
X007830Y019694D01*
X007849Y019853D02*
X006511Y019853D01*
X007097Y020011D02*
X007873Y020011D01*
X007973Y020170D02*
X007219Y020170D01*
X007221Y020328D02*
X012192Y020328D01*
X012192Y020170D02*
X008582Y020170D01*
X008682Y020011D02*
X012192Y020011D01*
X012192Y019853D02*
X008706Y019853D01*
X008668Y019694D02*
X012192Y019694D01*
X012192Y019536D02*
X010757Y019536D01*
X010523Y019536D02*
X008550Y019536D01*
X008440Y019377D02*
X008410Y019377D01*
X008981Y019377D02*
X010291Y019377D01*
X010217Y019219D02*
X009101Y019219D01*
X009139Y019060D02*
X010212Y019060D01*
X010191Y018902D02*
X010267Y018902D01*
X009553Y018902D02*
X009116Y018902D01*
X009017Y018743D02*
X009387Y018743D01*
X008865Y018585D02*
X008663Y018585D01*
X008607Y018426D02*
X008723Y018426D01*
X009408Y017086D02*
X009413Y017076D01*
X009480Y017008D01*
X009568Y016972D01*
X009995Y016972D01*
X009995Y016466D01*
X009782Y016466D01*
X009782Y016078D01*
X009686Y016078D01*
X009686Y016466D01*
X009415Y016466D01*
X009394Y016461D01*
X009394Y017072D01*
X009408Y017086D01*
X009394Y017000D02*
X009500Y017000D01*
X009394Y016841D02*
X009995Y016841D01*
X009995Y016683D02*
X009394Y016683D01*
X009394Y016524D02*
X009995Y016524D01*
X009782Y016366D02*
X009686Y016366D01*
X009686Y016207D02*
X009782Y016207D01*
X010970Y016207D02*
X011128Y016207D01*
X011128Y016081D02*
X011165Y015993D01*
X011199Y015958D01*
X011188Y015916D01*
X011188Y015685D01*
X011615Y015685D01*
X011615Y015589D01*
X011188Y015589D01*
X011188Y015363D01*
X011158Y015376D01*
X011046Y015376D01*
X011046Y015900D01*
X010973Y016075D01*
X010970Y016079D01*
X010970Y016248D01*
X011004Y016282D01*
X011128Y016406D01*
X011128Y016081D01*
X011141Y016049D02*
X010984Y016049D01*
X011046Y015890D02*
X011188Y015890D01*
X011188Y015732D02*
X011046Y015732D01*
X011046Y015573D02*
X011188Y015573D01*
X011188Y015415D02*
X011046Y015415D01*
X011425Y015201D02*
X011467Y015201D01*
X011442Y015176D01*
X011436Y015190D01*
X011425Y015201D01*
X011711Y015589D02*
X011711Y015685D01*
X012139Y015685D01*
X012139Y015916D01*
X012127Y015958D01*
X012162Y015993D01*
X012199Y016081D01*
X012199Y016688D01*
X012162Y016777D01*
X012126Y016813D01*
X012142Y016829D01*
X012206Y016674D01*
X012326Y016553D01*
X012484Y016488D01*
X012654Y016488D01*
X012703Y016508D01*
X012703Y016081D01*
X012732Y016011D01*
X012703Y015940D01*
X012703Y015356D01*
X012138Y015356D01*
X012139Y015357D01*
X012139Y015589D01*
X011711Y015589D01*
X012139Y015573D02*
X012703Y015573D01*
X012703Y015415D02*
X012139Y015415D01*
X012139Y015732D02*
X012703Y015732D01*
X012703Y015890D02*
X012139Y015890D01*
X012185Y016049D02*
X012716Y016049D01*
X012703Y016207D02*
X012199Y016207D01*
X012199Y016366D02*
X012703Y016366D01*
X012396Y016524D02*
X012199Y016524D01*
X012199Y016683D02*
X012202Y016683D01*
X012208Y017161D02*
X012144Y017316D01*
X012024Y017437D01*
X011867Y017502D01*
X011696Y017502D01*
X011670Y017491D01*
X011670Y017814D01*
X011947Y018091D01*
X012094Y018091D01*
X012160Y017932D01*
X012303Y017789D01*
X012491Y017711D01*
X012694Y017711D01*
X012881Y017789D01*
X013025Y017932D01*
X013092Y018096D01*
X013160Y017932D01*
X013303Y017789D01*
X013491Y017711D01*
X013694Y017711D01*
X013881Y017789D01*
X014025Y017932D01*
X014092Y018096D01*
X014160Y017932D01*
X014303Y017789D01*
X014491Y017711D01*
X014694Y017711D01*
X014881Y017789D01*
X015022Y017929D01*
X015122Y017829D01*
X015122Y016881D01*
X014944Y016881D01*
X014887Y016938D01*
X014887Y017041D01*
X014821Y017198D01*
X014701Y017319D01*
X014544Y017384D01*
X014441Y017384D01*
X014268Y017556D01*
X014162Y017600D01*
X012629Y017600D01*
X012523Y017556D01*
X012441Y017474D01*
X012323Y017356D01*
X012279Y017250D01*
X012279Y017232D01*
X012208Y017161D01*
X012144Y017317D02*
X012307Y017317D01*
X012442Y017475D02*
X011930Y017475D01*
X011807Y017951D02*
X012152Y017951D01*
X012300Y017792D02*
X011670Y017792D01*
X011670Y017634D02*
X015122Y017634D01*
X015122Y017792D02*
X014885Y017792D01*
X015122Y017475D02*
X014349Y017475D01*
X014300Y017792D02*
X013885Y017792D01*
X014033Y017951D02*
X014152Y017951D01*
X014703Y017317D02*
X015122Y017317D01*
X015122Y017158D02*
X014838Y017158D01*
X014887Y017000D02*
X015122Y017000D01*
X014278Y016567D02*
X014278Y016081D01*
X014307Y016011D01*
X014278Y015940D01*
X014278Y015512D01*
X013925Y015159D01*
X013625Y015159D01*
X013669Y015177D01*
X013737Y015245D01*
X013773Y015333D01*
X013773Y015940D01*
X013744Y016011D01*
X013773Y016081D01*
X013773Y016688D01*
X013737Y016777D01*
X013727Y016787D01*
X013745Y016831D01*
X013745Y017001D01*
X013737Y017020D01*
X013984Y017020D01*
X014030Y016974D01*
X014030Y016871D01*
X014096Y016713D01*
X014216Y016593D01*
X014278Y016567D01*
X014278Y016524D02*
X013773Y016524D01*
X013773Y016366D02*
X014278Y016366D01*
X014278Y016207D02*
X013773Y016207D01*
X013760Y016049D02*
X014291Y016049D01*
X014278Y015890D02*
X013773Y015890D01*
X013773Y015732D02*
X014278Y015732D01*
X014278Y015573D02*
X013773Y015573D01*
X013773Y015415D02*
X014181Y015415D01*
X014022Y015256D02*
X013742Y015256D01*
X013649Y014264D02*
X014398Y014264D01*
X014505Y014308D01*
X014795Y014598D01*
X014898Y014598D01*
X015055Y014664D01*
X015122Y014730D01*
X015122Y012577D01*
X014141Y011596D01*
X014137Y011596D01*
X013980Y011531D01*
X013859Y011411D01*
X013794Y011253D01*
X013794Y011083D01*
X013798Y011074D01*
X013525Y011074D01*
X013437Y011037D01*
X013369Y010970D01*
X013360Y010947D01*
X013329Y010978D01*
X013288Y011001D01*
X013242Y011014D01*
X013022Y011014D01*
X013022Y010716D01*
X013022Y010716D01*
X013022Y011014D01*
X012801Y011014D01*
X012755Y011001D01*
X012714Y010978D01*
X012681Y010944D01*
X012657Y010903D01*
X012645Y010857D01*
X012645Y010716D01*
X013022Y010716D01*
X013022Y010716D01*
X012645Y010716D01*
X012645Y010671D01*
X011901Y010671D01*
X011630Y010942D01*
X011630Y010989D01*
X011709Y010989D01*
X011718Y010992D01*
X011727Y010989D01*
X011961Y010989D01*
X012049Y011025D01*
X012072Y011049D01*
X012096Y011049D01*
X012096Y011072D01*
X012096Y011072D01*
X012096Y011049D01*
X012189Y011049D01*
X012234Y011061D01*
X012275Y011085D01*
X012309Y011118D01*
X012333Y011159D01*
X012345Y011205D01*
X012345Y011524D01*
X012345Y011843D01*
X012333Y011889D01*
X012309Y011930D01*
X012275Y011963D01*
X012234Y011987D01*
X012189Y011999D01*
X012134Y011999D01*
X012134Y012155D01*
X012185Y012197D01*
X012339Y012197D01*
X012496Y012262D01*
X012617Y012382D01*
X012682Y012540D01*
X012682Y012710D01*
X012617Y012868D01*
X012496Y012988D01*
X012342Y013052D01*
X012386Y013158D01*
X012386Y013261D01*
X012405Y013307D01*
X012405Y013752D01*
X012962Y013752D01*
X013035Y013679D01*
X013192Y013614D01*
X013363Y013614D01*
X013463Y013656D01*
X013480Y013622D01*
X013519Y013569D01*
X013565Y013522D01*
X013618Y013484D01*
X013677Y013454D01*
X013739Y013434D01*
X013804Y013424D01*
X014073Y013424D01*
X014342Y013424D01*
X014406Y013434D01*
X014469Y013454D01*
X014527Y013484D01*
X014580Y013522D01*
X014626Y013569D01*
X014665Y013622D01*
X014695Y013680D01*
X014715Y013742D01*
X014725Y013807D01*
X014725Y013840D01*
X014725Y013873D01*
X014715Y013937D01*
X014695Y014000D01*
X014665Y014058D01*
X014626Y014111D01*
X014580Y014157D01*
X014527Y014196D01*
X014469Y014226D01*
X014406Y014246D01*
X014342Y014256D01*
X014073Y014256D01*
X014073Y013840D01*
X014725Y013840D01*
X014073Y013840D01*
X014073Y013840D01*
X014073Y013840D01*
X014073Y013424D01*
X014073Y013840D01*
X014073Y013840D01*
X014073Y014256D01*
X013804Y014256D01*
X013739Y014246D01*
X013677Y014226D01*
X013667Y014221D01*
X013649Y014264D01*
X014073Y014147D02*
X014073Y014147D01*
X014073Y013988D02*
X014073Y013988D01*
X014073Y013830D02*
X014073Y013830D01*
X014073Y013671D02*
X014073Y013671D01*
X014073Y013513D02*
X014073Y013513D01*
X014567Y013513D02*
X015122Y013513D01*
X015122Y013671D02*
X014690Y013671D01*
X014725Y013830D02*
X015122Y013830D01*
X015122Y013988D02*
X014698Y013988D01*
X014591Y014147D02*
X015122Y014147D01*
X015122Y014305D02*
X014498Y014305D01*
X014660Y014464D02*
X015122Y014464D01*
X015122Y014622D02*
X014956Y014622D01*
X015122Y013354D02*
X012405Y013354D01*
X012405Y013513D02*
X013578Y013513D01*
X013054Y013671D02*
X012405Y013671D01*
X012386Y013196D02*
X015122Y013196D01*
X015122Y013037D02*
X012377Y013037D01*
X012605Y012879D02*
X015122Y012879D01*
X015122Y012720D02*
X012678Y012720D01*
X012682Y012562D02*
X015107Y012562D01*
X014948Y012403D02*
X012625Y012403D01*
X012455Y012245D02*
X014790Y012245D01*
X014631Y012086D02*
X012134Y012086D01*
X012310Y011928D02*
X014473Y011928D01*
X014314Y011769D02*
X012345Y011769D01*
X012345Y011611D02*
X014156Y011611D01*
X013901Y011452D02*
X012345Y011452D01*
X012345Y011524D02*
X012153Y011524D01*
X012345Y011524D01*
X012153Y011524D02*
X012153Y011524D01*
X012345Y011294D02*
X013811Y011294D01*
X013794Y011135D02*
X012319Y011135D01*
X012713Y010977D02*
X011630Y010977D01*
X011754Y010818D02*
X012645Y010818D01*
X013022Y010818D02*
X013022Y010818D01*
X013022Y010977D02*
X013022Y010977D01*
X013330Y010977D02*
X013377Y010977D01*
X014049Y010777D02*
X014049Y010768D01*
X014146Y010671D01*
X014280Y010671D01*
X014387Y010627D01*
X014468Y010545D01*
X015098Y009915D01*
X015142Y009809D01*
X015142Y008060D01*
X015287Y007915D01*
X015398Y008027D01*
X015649Y008131D01*
X015921Y008131D01*
X016172Y008027D01*
X016364Y007835D01*
X016369Y007824D01*
X016603Y008058D01*
X016315Y008347D01*
X016315Y008769D01*
X016603Y009058D01*
X016315Y009347D01*
X016315Y009749D01*
X016237Y009717D01*
X016066Y009717D01*
X015909Y009782D01*
X015789Y009902D01*
X015760Y009970D01*
X015694Y010036D01*
X015633Y010183D01*
X015633Y012070D01*
X014650Y011087D01*
X014650Y011083D01*
X014585Y010926D01*
X014465Y010805D01*
X014307Y010740D01*
X014137Y010740D01*
X014049Y010777D01*
X014306Y010660D02*
X015633Y010660D01*
X015633Y010818D02*
X014478Y010818D01*
X014606Y010977D02*
X015633Y010977D01*
X015633Y011135D02*
X014699Y011135D01*
X014857Y011294D02*
X015633Y011294D01*
X015633Y011452D02*
X015016Y011452D01*
X015174Y011611D02*
X015633Y011611D01*
X015633Y011769D02*
X015333Y011769D01*
X015491Y011928D02*
X015633Y011928D01*
X016433Y011928D02*
X016558Y011928D01*
X016638Y012008D02*
X016433Y011803D01*
X016433Y012228D01*
X016613Y012048D01*
X017036Y012048D01*
X017325Y012337D01*
X017603Y012058D01*
X017315Y011769D01*
X017315Y011347D01*
X017603Y011058D01*
X017325Y010779D01*
X017036Y011068D01*
X016613Y011068D01*
X016433Y010888D01*
X016433Y011313D01*
X016638Y011108D01*
X016815Y011108D01*
X016815Y011548D01*
X016835Y011548D01*
X016835Y011568D01*
X017275Y011568D01*
X017275Y011744D01*
X017011Y012008D01*
X016835Y012008D01*
X016835Y011568D01*
X016815Y011568D01*
X016815Y012008D01*
X016638Y012008D01*
X016575Y012086D02*
X016433Y012086D01*
X016815Y011928D02*
X016835Y011928D01*
X016835Y011769D02*
X016815Y011769D01*
X016815Y011611D02*
X016835Y011611D01*
X016835Y011548D02*
X017275Y011548D01*
X017275Y011372D01*
X017011Y011108D01*
X016835Y011108D01*
X016835Y011548D01*
X016835Y011452D02*
X016815Y011452D01*
X016815Y011294D02*
X016835Y011294D01*
X016835Y011135D02*
X016815Y011135D01*
X016611Y011135D02*
X016433Y011135D01*
X016433Y010977D02*
X016522Y010977D01*
X016452Y011294D02*
X016433Y011294D01*
X017038Y011135D02*
X017526Y011135D01*
X017522Y010977D02*
X017127Y010977D01*
X017286Y010818D02*
X017364Y010818D01*
X017325Y010337D02*
X017603Y010058D01*
X017325Y009779D01*
X017046Y010058D01*
X017325Y010337D01*
X017477Y010184D02*
X017172Y010184D01*
X017078Y010026D02*
X017571Y010026D01*
X017413Y009867D02*
X017237Y009867D01*
X017325Y009337D02*
X017603Y009058D01*
X017325Y008779D01*
X017046Y009058D01*
X017325Y009337D01*
X017428Y009233D02*
X017221Y009233D01*
X017063Y009075D02*
X017587Y009075D01*
X017462Y008916D02*
X017188Y008916D01*
X017325Y008337D02*
X017603Y008058D01*
X017325Y007779D01*
X017046Y008058D01*
X017325Y008337D01*
X017270Y008282D02*
X017379Y008282D01*
X017538Y008124D02*
X017112Y008124D01*
X017139Y007965D02*
X017511Y007965D01*
X017352Y007807D02*
X017297Y007807D01*
X017325Y007337D02*
X017603Y007058D01*
X017325Y006779D01*
X017046Y007058D01*
X017325Y007337D01*
X017330Y007331D02*
X017319Y007331D01*
X017161Y007173D02*
X017489Y007173D01*
X017560Y007014D02*
X017090Y007014D01*
X017248Y006856D02*
X017401Y006856D01*
X017325Y006337D02*
X017603Y006058D01*
X017325Y005779D01*
X017046Y006058D01*
X017325Y006337D01*
X017210Y006222D02*
X017440Y006222D01*
X017598Y006063D02*
X017051Y006063D01*
X017199Y005905D02*
X017450Y005905D01*
X017325Y005337D02*
X017603Y005058D01*
X017315Y004769D01*
X017315Y004708D01*
X017257Y004847D01*
X017114Y004990D01*
X016974Y005048D01*
X017036Y005048D01*
X017325Y005337D01*
X017259Y005271D02*
X017391Y005271D01*
X017549Y005112D02*
X017100Y005112D01*
X017150Y004954D02*
X017499Y004954D01*
X017341Y004795D02*
X017278Y004795D01*
X017315Y004408D02*
X017315Y004347D01*
X017339Y004323D01*
X017279Y004323D01*
X017315Y004408D01*
X016675Y005048D02*
X016536Y004990D01*
X016440Y004895D01*
X016364Y005079D01*
X016172Y005271D01*
X016391Y005271D01*
X016315Y005347D02*
X016613Y005048D01*
X016675Y005048D01*
X016549Y005112D02*
X016331Y005112D01*
X016416Y004954D02*
X016499Y004954D01*
X016315Y005347D02*
X016315Y005769D01*
X016603Y006058D01*
X016315Y006347D01*
X016315Y006769D01*
X016603Y007058D01*
X016433Y007228D01*
X016364Y007061D01*
X016172Y006869D01*
X015921Y006765D01*
X015851Y006765D01*
X015851Y006544D01*
X015807Y006437D01*
X015740Y006370D01*
X015740Y006370D01*
X015658Y006289D01*
X015552Y006244D01*
X015120Y006244D01*
X015036Y006160D01*
X015143Y006053D01*
X015220Y005867D01*
X015220Y005666D01*
X015143Y005480D01*
X015001Y005338D01*
X014987Y005332D01*
X015005Y005319D01*
X015054Y005270D01*
X015096Y005213D01*
X015128Y005150D01*
X015149Y005084D01*
X015160Y005014D01*
X015160Y004988D01*
X014723Y004988D01*
X014723Y004971D01*
X015160Y004971D01*
X015160Y004967D01*
X015206Y005079D01*
X015398Y005271D01*
X015649Y005375D01*
X015921Y005375D01*
X016172Y005271D01*
X016315Y005429D02*
X015092Y005429D01*
X015053Y005271D02*
X015399Y005271D01*
X015240Y005112D02*
X015140Y005112D01*
X015102Y004759D02*
X015102Y004556D01*
X015199Y004323D01*
X014230Y004323D01*
X014326Y004556D01*
X014326Y004759D01*
X014333Y004746D01*
X014374Y004689D01*
X014424Y004639D01*
X014481Y004598D01*
X014543Y004566D01*
X014610Y004545D01*
X014679Y004534D01*
X014706Y004534D01*
X014706Y004971D01*
X014269Y004971D01*
X014269Y004967D01*
X014223Y005079D01*
X014030Y005271D01*
X014376Y005271D01*
X014374Y005270D02*
X014333Y005213D01*
X014301Y005150D01*
X014280Y005084D01*
X014269Y005014D01*
X014269Y004988D01*
X014706Y004988D01*
X014706Y004971D01*
X014723Y004971D01*
X014723Y004534D01*
X014750Y004534D01*
X014819Y004545D01*
X014886Y004566D01*
X014948Y004598D01*
X015005Y004639D01*
X015054Y004689D01*
X015096Y004746D01*
X015102Y004759D01*
X015102Y004637D02*
X015002Y004637D01*
X015135Y004478D02*
X014294Y004478D01*
X014326Y004637D02*
X014427Y004637D01*
X014706Y004637D02*
X014723Y004637D01*
X014706Y004795D02*
X014723Y004795D01*
X014706Y004954D02*
X014723Y004954D01*
X014374Y005270D02*
X014424Y005319D01*
X014442Y005332D01*
X014428Y005338D01*
X014286Y005480D01*
X014209Y005666D01*
X014209Y005843D01*
X014055Y005996D01*
X014011Y006103D01*
X014011Y006861D01*
X013779Y006765D01*
X013508Y006765D01*
X013257Y006869D01*
X013238Y006888D01*
X013219Y006869D01*
X012968Y006765D01*
X012697Y006765D01*
X012465Y006861D01*
X012465Y006583D01*
X012421Y006476D01*
X012253Y006308D01*
X012198Y006286D01*
X012190Y006268D01*
X012083Y006160D01*
X012190Y006053D01*
X012267Y005867D01*
X012267Y005666D01*
X012190Y005480D01*
X012048Y005338D01*
X012034Y005332D01*
X012052Y005319D01*
X012102Y005270D01*
X012143Y005213D01*
X012175Y005150D01*
X012196Y005084D01*
X012207Y005014D01*
X012207Y004988D01*
X011770Y004988D01*
X011770Y004971D01*
X011770Y004534D01*
X011797Y004534D01*
X011866Y004545D01*
X011933Y004566D01*
X011995Y004598D01*
X012052Y004639D01*
X012102Y004689D01*
X012143Y004746D01*
X012150Y004759D01*
X012150Y004556D01*
X012246Y004323D01*
X011277Y004323D01*
X011374Y004556D01*
X011374Y004759D01*
X011380Y004746D01*
X011422Y004689D01*
X011471Y004639D01*
X011528Y004598D01*
X011591Y004566D01*
X011657Y004545D01*
X011727Y004534D01*
X011753Y004534D01*
X011753Y004971D01*
X011316Y004971D01*
X011316Y004967D01*
X011270Y005079D01*
X011078Y005271D01*
X010827Y005375D01*
X010555Y005375D01*
X010304Y005271D01*
X010285Y005252D01*
X010267Y005271D01*
X010016Y005375D01*
X009744Y005375D01*
X009493Y005271D01*
X009301Y005079D01*
X009255Y004967D01*
X009255Y004971D01*
X008818Y004971D01*
X008818Y004988D01*
X009255Y004988D01*
X009255Y005014D01*
X009244Y005084D01*
X009222Y005150D01*
X009190Y005213D01*
X009149Y005270D01*
X009099Y005319D01*
X009082Y005332D01*
X009095Y005338D01*
X009238Y005480D01*
X009315Y005666D01*
X009315Y005867D01*
X009238Y006053D01*
X009130Y006160D01*
X009238Y006268D01*
X009278Y006365D01*
X009303Y006390D01*
X009547Y006634D01*
X009591Y006741D01*
X009591Y006828D01*
X009744Y006765D01*
X010016Y006765D01*
X010267Y006869D01*
X010285Y006888D01*
X010304Y006869D01*
X010555Y006765D01*
X010827Y006765D01*
X011019Y006845D01*
X011019Y006103D01*
X011063Y005996D01*
X011256Y005803D01*
X011256Y005666D01*
X011333Y005480D01*
X011475Y005338D01*
X011489Y005332D01*
X011471Y005319D01*
X011422Y005270D01*
X011380Y005213D01*
X011349Y005150D01*
X011327Y005084D01*
X011316Y005014D01*
X011316Y004988D01*
X011753Y004988D01*
X011753Y004971D01*
X011770Y004971D01*
X012207Y004971D01*
X012207Y004967D01*
X012254Y005079D01*
X012446Y005271D01*
X012100Y005271D01*
X012140Y005429D02*
X014336Y005429D01*
X014241Y005588D02*
X012235Y005588D01*
X012267Y005746D02*
X014209Y005746D01*
X014146Y005905D02*
X012252Y005905D01*
X012180Y006063D02*
X014027Y006063D01*
X014011Y006222D02*
X012145Y006222D01*
X012325Y006380D02*
X014011Y006380D01*
X014011Y006539D02*
X012447Y006539D01*
X012465Y006697D02*
X014011Y006697D01*
X013999Y006856D02*
X014011Y006856D01*
X013288Y006856D02*
X013188Y006856D01*
X012477Y006856D02*
X012465Y006856D01*
X012334Y007915D02*
X012300Y007950D01*
X012266Y007964D01*
X012224Y008065D01*
X012185Y008104D01*
X012117Y008172D01*
X012123Y008178D01*
X012159Y008266D01*
X012159Y008598D01*
X012123Y008686D01*
X012055Y008754D01*
X012032Y008763D01*
X012063Y008794D01*
X012087Y008835D01*
X012099Y008881D01*
X012099Y009101D01*
X011801Y009101D01*
X011801Y009101D01*
X012099Y009101D01*
X012099Y009322D01*
X012087Y009368D01*
X012063Y009409D01*
X012030Y009442D01*
X011989Y009466D01*
X011943Y009478D01*
X011801Y009478D01*
X011770Y009478D01*
X011752Y009522D01*
X011670Y009603D01*
X011048Y010225D01*
X011048Y010429D01*
X011457Y010020D01*
X011538Y009938D01*
X011645Y009894D01*
X012585Y009894D01*
X012585Y009723D01*
X012590Y009709D01*
X011564Y009709D01*
X011670Y009603D02*
X011670Y009603D01*
X011723Y009550D02*
X012507Y009550D01*
X012495Y009521D02*
X012495Y009351D01*
X012560Y009194D01*
X012681Y009073D01*
X012838Y009008D01*
X013008Y009008D01*
X013166Y009073D01*
X013286Y009194D01*
X013351Y009351D01*
X013351Y009521D01*
X013286Y009679D01*
X013284Y009681D01*
X013301Y009723D01*
X013301Y009894D01*
X013333Y009894D01*
X013333Y009723D01*
X013369Y009635D01*
X013437Y009567D01*
X013525Y009531D01*
X013818Y009531D01*
X013859Y009430D01*
X013862Y009427D01*
X013862Y009116D01*
X013742Y009116D01*
X013567Y009044D01*
X013433Y008910D01*
X013360Y008735D01*
X013360Y008545D01*
X013433Y008370D01*
X013567Y008236D01*
X013742Y008164D01*
X014365Y008164D01*
X014365Y008099D01*
X014162Y007896D01*
X014030Y008027D01*
X013779Y008131D01*
X013508Y008131D01*
X013257Y008027D01*
X013238Y008008D01*
X013219Y008027D01*
X012968Y008131D01*
X012697Y008131D01*
X012446Y008027D01*
X012334Y007915D01*
X012384Y007965D02*
X012265Y007965D01*
X012165Y008124D02*
X012680Y008124D01*
X012985Y008124D02*
X013491Y008124D01*
X013521Y008282D02*
X012159Y008282D01*
X012159Y008441D02*
X013403Y008441D01*
X013360Y008599D02*
X012159Y008599D01*
X012045Y008758D02*
X013370Y008758D01*
X013440Y008916D02*
X012099Y008916D01*
X012099Y009075D02*
X012679Y009075D01*
X012544Y009233D02*
X012099Y009233D01*
X012073Y009392D02*
X012495Y009392D01*
X012495Y009521D02*
X012560Y009679D01*
X012590Y009709D01*
X012585Y009867D02*
X011406Y009867D01*
X011451Y010026D02*
X011247Y010026D01*
X011292Y010184D02*
X011089Y010184D01*
X011048Y010343D02*
X011134Y010343D01*
X011801Y009478D02*
X011801Y009101D01*
X011801Y009101D01*
X011801Y009478D01*
X011801Y009392D02*
X011801Y009392D01*
X011801Y009233D02*
X011801Y009233D01*
X011019Y008822D02*
X011019Y008790D01*
X010808Y008790D01*
X010720Y008754D01*
X010653Y008686D01*
X010616Y008598D01*
X010616Y008266D01*
X010653Y008178D01*
X010700Y008131D01*
X010555Y008131D01*
X010304Y008027D01*
X010285Y008008D01*
X010267Y008027D01*
X010016Y008131D01*
X009744Y008131D01*
X009493Y008027D01*
X009362Y007896D01*
X009268Y007989D01*
X009162Y008033D01*
X008843Y008033D01*
X008843Y008253D01*
X008864Y008274D01*
X009034Y008274D01*
X009114Y008194D01*
X009202Y008157D01*
X009298Y008157D01*
X009386Y008194D01*
X009621Y008428D01*
X009657Y008517D01*
X009657Y008612D01*
X009648Y008635D01*
X009691Y008635D01*
X009737Y008647D01*
X009778Y008671D01*
X009934Y008827D01*
X010090Y008983D01*
X010114Y009024D01*
X010126Y009070D01*
X010126Y009117D01*
X010114Y009163D01*
X010090Y009204D01*
X009990Y009304D01*
X009723Y009038D01*
X009990Y009304D01*
X009942Y009352D01*
X009988Y009398D01*
X010040Y009272D01*
X010161Y009152D01*
X010318Y009087D01*
X010489Y009087D01*
X010608Y009136D01*
X010616Y009128D01*
X010616Y009014D01*
X010653Y008926D01*
X010720Y008859D01*
X010808Y008822D01*
X011019Y008822D01*
X010731Y008758D02*
X009865Y008758D01*
X009934Y008827D02*
X009723Y009038D01*
X009723Y009038D01*
X009934Y008827D01*
X009845Y008916D02*
X009844Y008916D01*
X009723Y009038D02*
X009723Y009038D01*
X009761Y009075D02*
X009761Y009075D01*
X009919Y009233D02*
X009919Y009233D01*
X010060Y009233D02*
X010079Y009233D01*
X010126Y009075D02*
X010616Y009075D01*
X010662Y008916D02*
X010024Y008916D01*
X009982Y009392D02*
X009991Y009392D01*
X009560Y010026D02*
X009353Y010026D01*
X009330Y010048D02*
X009456Y009923D01*
X009790Y010257D01*
X009790Y010381D01*
X009626Y010217D01*
X009626Y010217D01*
X009544Y010135D01*
X009437Y010091D01*
X009170Y010091D01*
X009184Y010085D01*
X009242Y010085D01*
X009330Y010048D01*
X009593Y010184D02*
X009718Y010184D01*
X009752Y010343D02*
X009790Y010343D01*
X009220Y010868D02*
X009017Y010868D01*
X009066Y010917D01*
X009096Y010989D01*
X009189Y010989D01*
X009198Y010992D01*
X009208Y010989D01*
X009286Y010989D01*
X009286Y010934D01*
X009220Y010868D01*
X009286Y010977D02*
X009091Y010977D01*
X008512Y011301D02*
X007701Y011301D01*
X007701Y011676D01*
X007715Y011676D01*
X007803Y011713D01*
X007871Y011780D01*
X007907Y011869D01*
X007907Y012476D01*
X007871Y012564D01*
X007836Y012599D01*
X007847Y012641D01*
X007847Y012872D01*
X007420Y012872D01*
X007420Y012968D01*
X007847Y012968D01*
X007847Y013200D01*
X007835Y013246D01*
X007811Y013287D01*
X007778Y013320D01*
X007737Y013344D01*
X007691Y013356D01*
X007420Y013356D01*
X007420Y012968D01*
X007324Y012968D01*
X007324Y012872D01*
X006897Y012872D01*
X006897Y012641D01*
X006908Y012599D01*
X006873Y012564D01*
X006837Y012476D01*
X006837Y011869D01*
X006857Y011820D01*
X006827Y011833D01*
X006823Y011833D01*
X006354Y012302D01*
X006354Y013466D01*
X006377Y013454D01*
X006439Y013434D01*
X006504Y013424D01*
X006773Y013424D01*
X007042Y013424D01*
X007106Y013434D01*
X007169Y013454D01*
X007227Y013484D01*
X007280Y013522D01*
X007326Y013569D01*
X007365Y013622D01*
X007395Y013680D01*
X007415Y013742D01*
X007425Y013807D01*
X007425Y013840D01*
X007425Y013873D01*
X007415Y013937D01*
X007395Y014000D01*
X007365Y014058D01*
X007326Y014111D01*
X007280Y014157D01*
X007227Y014196D01*
X007169Y014226D01*
X007106Y014246D01*
X007042Y014256D01*
X006773Y014256D01*
X006773Y013840D01*
X007425Y013840D01*
X006773Y013840D01*
X006773Y013840D01*
X006773Y013840D01*
X006773Y013424D01*
X006773Y013840D01*
X006773Y013840D01*
X006773Y014256D01*
X006504Y014256D01*
X006439Y014246D01*
X006377Y014226D01*
X006354Y014214D01*
X006354Y015074D01*
X007610Y016331D01*
X007615Y016331D01*
X007772Y016396D01*
X007830Y016454D01*
X007830Y014674D01*
X007717Y014561D01*
X007672Y014454D01*
X007672Y014103D01*
X007717Y013996D01*
X007756Y013957D01*
X007838Y013875D01*
X007944Y013831D01*
X008010Y013831D01*
X008072Y013682D01*
X008145Y013609D01*
X008145Y012331D01*
X008189Y012225D01*
X008271Y012143D01*
X008377Y012099D01*
X008493Y012099D01*
X008782Y012099D01*
X008782Y012059D01*
X008704Y012059D01*
X008616Y012023D01*
X008548Y011955D01*
X008512Y011867D01*
X008512Y011301D01*
X008512Y011452D02*
X007701Y011452D01*
X007701Y011611D02*
X008512Y011611D01*
X008512Y011769D02*
X007860Y011769D01*
X007907Y011928D02*
X008537Y011928D01*
X008181Y012245D02*
X007907Y012245D01*
X007907Y012403D02*
X008145Y012403D01*
X008145Y012562D02*
X007872Y012562D01*
X007847Y012720D02*
X008145Y012720D01*
X008145Y012879D02*
X007420Y012879D01*
X007324Y012879D02*
X006354Y012879D01*
X006354Y013037D02*
X006897Y013037D01*
X006897Y012968D02*
X007324Y012968D01*
X007324Y013356D01*
X007053Y013356D01*
X007007Y013344D01*
X006966Y013320D01*
X006933Y013287D01*
X006909Y013246D01*
X006897Y013200D01*
X006897Y012968D01*
X006897Y013196D02*
X006354Y013196D01*
X006354Y013354D02*
X007047Y013354D01*
X007267Y013513D02*
X008145Y013513D01*
X008145Y013354D02*
X007697Y013354D01*
X007847Y013196D02*
X008145Y013196D01*
X008145Y013037D02*
X007847Y013037D01*
X007420Y013037D02*
X007324Y013037D01*
X007324Y013196D02*
X007420Y013196D01*
X007420Y013354D02*
X007324Y013354D01*
X007390Y013671D02*
X008082Y013671D01*
X008011Y013830D02*
X007425Y013830D01*
X007398Y013988D02*
X007724Y013988D01*
X007672Y014147D02*
X007291Y014147D01*
X007672Y014305D02*
X006354Y014305D01*
X006354Y014464D02*
X007676Y014464D01*
X007778Y014622D02*
X006354Y014622D01*
X006354Y014781D02*
X007830Y014781D01*
X007830Y014939D02*
X006354Y014939D01*
X006378Y015098D02*
X007830Y015098D01*
X007830Y015256D02*
X006536Y015256D01*
X006695Y015415D02*
X007830Y015415D01*
X007830Y015573D02*
X006853Y015573D01*
X007012Y015732D02*
X007830Y015732D01*
X007830Y015890D02*
X007170Y015890D01*
X007329Y016049D02*
X007830Y016049D01*
X007830Y016207D02*
X007487Y016207D01*
X007700Y016366D02*
X007830Y016366D01*
X006310Y016049D02*
X005707Y016049D01*
X005777Y015890D02*
X006152Y015890D01*
X005993Y015732D02*
X005786Y015732D01*
X005786Y015573D02*
X005835Y015573D01*
X005634Y014622D02*
X004335Y014622D01*
X004335Y014464D02*
X005634Y014464D01*
X005634Y014305D02*
X004293Y014305D01*
X004135Y014147D02*
X005634Y014147D01*
X005634Y013988D02*
X004116Y013988D01*
X004274Y013830D02*
X005634Y013830D01*
X005634Y013671D02*
X004335Y013671D01*
X004335Y013513D02*
X005634Y013513D01*
X005634Y013354D02*
X004335Y013354D01*
X004184Y013196D02*
X005634Y013196D01*
X005634Y013037D02*
X004067Y013037D01*
X004225Y012879D02*
X005634Y012879D01*
X005634Y012720D02*
X004335Y012720D01*
X004335Y012562D02*
X005634Y012562D01*
X005634Y012403D02*
X004335Y012403D01*
X004233Y012245D02*
X005634Y012245D01*
X005634Y012086D02*
X004074Y012086D01*
X004176Y011928D02*
X005709Y011928D01*
X005868Y011769D02*
X004335Y011769D01*
X004335Y011611D02*
X006026Y011611D01*
X006185Y011452D02*
X004335Y011452D01*
X004282Y011294D02*
X006324Y011294D01*
X006025Y011135D02*
X004123Y011135D01*
X004127Y010977D02*
X005913Y010977D01*
X005881Y010818D02*
X004286Y010818D01*
X004335Y010660D02*
X005773Y010660D01*
X005677Y010501D02*
X004335Y010501D01*
X004331Y010343D02*
X005507Y010343D01*
X005604Y010343D02*
X005708Y010343D01*
X005814Y010184D02*
X005859Y010184D01*
X005297Y010184D02*
X004172Y010184D01*
X004078Y010026D02*
X005166Y010026D01*
X005157Y009867D02*
X004237Y009867D01*
X004335Y009709D02*
X005265Y009709D01*
X005265Y009550D02*
X004335Y009550D01*
X004335Y009392D02*
X005160Y009392D01*
X005153Y009233D02*
X004221Y009233D01*
X004063Y009075D02*
X005153Y009075D01*
X005153Y008916D02*
X004188Y008916D01*
X004335Y008758D02*
X005153Y008758D01*
X005153Y008599D02*
X004335Y008599D01*
X004335Y008441D02*
X005153Y008441D01*
X005153Y008282D02*
X004270Y008282D01*
X004112Y008124D02*
X004633Y008124D01*
X004577Y008216D02*
X004852Y008216D01*
X004938Y008124D02*
X005153Y008124D01*
X005930Y008387D02*
X005930Y009056D01*
X006004Y008981D01*
X006092Y008945D01*
X006168Y008945D01*
X006133Y008910D01*
X006060Y008735D01*
X006060Y008545D01*
X006126Y008387D01*
X005930Y008387D01*
X005930Y008441D02*
X006103Y008441D01*
X006060Y008599D02*
X005930Y008599D01*
X005930Y008758D02*
X006070Y008758D01*
X006140Y008916D02*
X005930Y008916D01*
X006389Y009094D02*
X006413Y009104D01*
X006413Y009118D01*
X006389Y009094D01*
X006657Y009781D02*
X006618Y009821D01*
X006657Y009781D01*
X006657Y009781D01*
X006618Y009821D02*
X006618Y009821D01*
X007133Y009239D02*
X007133Y009104D01*
X007279Y009044D01*
X007413Y008910D01*
X007485Y008735D01*
X007485Y008545D01*
X007413Y008370D01*
X007279Y008236D01*
X007104Y008164D01*
X006442Y008164D01*
X006398Y008182D01*
X006441Y008076D01*
X006441Y007928D01*
X006540Y008027D01*
X006791Y008131D01*
X007063Y008131D01*
X007314Y008027D01*
X007333Y008008D01*
X007351Y008027D01*
X007602Y008131D01*
X007874Y008131D01*
X008066Y008051D01*
X008066Y008470D01*
X008110Y008577D01*
X008192Y008658D01*
X008393Y008859D01*
X008393Y008915D01*
X008295Y009013D01*
X008259Y009101D01*
X008259Y009197D01*
X008295Y009285D01*
X008530Y009519D01*
X008579Y009540D01*
X008317Y009540D01*
X008244Y009467D01*
X008087Y009402D01*
X007917Y009402D01*
X007759Y009467D01*
X007639Y009587D01*
X007597Y009689D01*
X007538Y009548D01*
X007418Y009427D01*
X007260Y009362D01*
X007256Y009362D01*
X007133Y009239D01*
X007133Y009233D02*
X008274Y009233D01*
X008269Y009075D02*
X007203Y009075D01*
X007406Y008916D02*
X008392Y008916D01*
X008292Y008758D02*
X007476Y008758D01*
X007485Y008599D02*
X008133Y008599D01*
X008066Y008441D02*
X007442Y008441D01*
X007325Y008282D02*
X008066Y008282D01*
X008066Y008124D02*
X007890Y008124D01*
X007586Y008124D02*
X007079Y008124D01*
X006775Y008124D02*
X006422Y008124D01*
X006441Y007965D02*
X006479Y007965D01*
X006537Y006856D02*
X006571Y006856D01*
X006410Y006697D02*
X008066Y006697D01*
X008066Y006539D02*
X006362Y006539D01*
X006332Y006380D02*
X008066Y006380D01*
X008066Y006222D02*
X006239Y006222D01*
X006275Y006063D02*
X008082Y006063D01*
X008202Y005905D02*
X006346Y005905D01*
X006362Y005746D02*
X008303Y005746D01*
X008336Y005588D02*
X006330Y005588D01*
X006234Y005429D02*
X008431Y005429D01*
X008470Y005271D02*
X008125Y005271D01*
X008283Y005112D02*
X008383Y005112D01*
X008421Y004759D02*
X008428Y004746D01*
X008469Y004689D01*
X008519Y004639D01*
X008575Y004598D01*
X008638Y004566D01*
X008705Y004545D01*
X008774Y004534D01*
X008800Y004534D01*
X008800Y004971D01*
X008818Y004971D01*
X008818Y004534D01*
X008844Y004534D01*
X008913Y004545D01*
X008980Y004566D01*
X009043Y004598D01*
X009099Y004639D01*
X009149Y004689D01*
X009190Y004746D01*
X009197Y004759D01*
X009197Y004556D01*
X009293Y004323D01*
X008324Y004323D01*
X008421Y004556D01*
X008421Y004759D01*
X008421Y004637D02*
X008522Y004637D01*
X008389Y004478D02*
X009229Y004478D01*
X009197Y004637D02*
X009096Y004637D01*
X008818Y004637D02*
X008800Y004637D01*
X008800Y004795D02*
X008818Y004795D01*
X008818Y004954D02*
X008800Y004954D01*
X009148Y005271D02*
X009493Y005271D01*
X009335Y005112D02*
X009234Y005112D01*
X009187Y005429D02*
X011384Y005429D01*
X011423Y005271D02*
X011077Y005271D01*
X011236Y005112D02*
X011336Y005112D01*
X011753Y004954D02*
X011770Y004954D01*
X011753Y004795D02*
X011770Y004795D01*
X011753Y004637D02*
X011770Y004637D01*
X012049Y004637D02*
X012150Y004637D01*
X012182Y004478D02*
X011342Y004478D01*
X011374Y004637D02*
X011475Y004637D01*
X012187Y005112D02*
X012287Y005112D01*
X012446Y005271D02*
X012697Y005375D01*
X012968Y005375D01*
X013219Y005271D01*
X013257Y005271D01*
X013238Y005252D01*
X013219Y005271D01*
X013257Y005271D02*
X013508Y005375D01*
X013779Y005375D01*
X014030Y005271D01*
X014189Y005112D02*
X014289Y005112D01*
X015188Y005588D02*
X016315Y005588D01*
X016315Y005746D02*
X015220Y005746D01*
X015205Y005905D02*
X016450Y005905D01*
X016598Y006063D02*
X015133Y006063D01*
X015097Y006222D02*
X016440Y006222D01*
X016315Y006380D02*
X015750Y006380D01*
X015849Y006539D02*
X016315Y006539D01*
X016315Y006697D02*
X015851Y006697D01*
X016141Y006856D02*
X016401Y006856D01*
X016318Y007014D02*
X016560Y007014D01*
X016489Y007173D02*
X016411Y007173D01*
X016511Y007965D02*
X016233Y007965D01*
X015938Y008124D02*
X016538Y008124D01*
X016379Y008282D02*
X015142Y008282D01*
X015142Y008124D02*
X015633Y008124D01*
X015337Y007965D02*
X015237Y007965D01*
X015142Y008441D02*
X016315Y008441D01*
X016315Y008599D02*
X015142Y008599D01*
X015142Y008758D02*
X016315Y008758D01*
X016462Y008916D02*
X015142Y008916D01*
X015142Y009075D02*
X016587Y009075D01*
X016428Y009233D02*
X015142Y009233D01*
X015142Y009392D02*
X016315Y009392D01*
X016315Y009550D02*
X015142Y009550D01*
X015142Y009709D02*
X016315Y009709D01*
X016562Y010016D02*
X016580Y010060D01*
X016580Y010082D01*
X016603Y010058D01*
X016562Y010016D01*
X016566Y010026D02*
X016571Y010026D01*
X015823Y009867D02*
X015118Y009867D01*
X014987Y010026D02*
X015704Y010026D01*
X015633Y010184D02*
X014829Y010184D01*
X014670Y010343D02*
X015633Y010343D01*
X015633Y010501D02*
X014512Y010501D01*
X013862Y009392D02*
X013351Y009392D01*
X013339Y009550D02*
X013477Y009550D01*
X013338Y009709D02*
X013295Y009709D01*
X013301Y009867D02*
X013333Y009867D01*
X013303Y009233D02*
X013862Y009233D01*
X013642Y009075D02*
X013167Y009075D01*
X013796Y008124D02*
X014365Y008124D01*
X014231Y007965D02*
X014092Y007965D01*
X011154Y005905D02*
X009299Y005905D01*
X009315Y005746D02*
X011256Y005746D01*
X011288Y005588D02*
X009282Y005588D01*
X009227Y006063D02*
X011035Y006063D01*
X011019Y006222D02*
X009192Y006222D01*
X009293Y006380D02*
X011019Y006380D01*
X011019Y006539D02*
X009452Y006539D01*
X009573Y006697D02*
X011019Y006697D01*
X010335Y006856D02*
X010235Y006856D01*
X009432Y007965D02*
X009292Y007965D01*
X009475Y008282D02*
X010616Y008282D01*
X010616Y008441D02*
X009626Y008441D01*
X009657Y008599D02*
X010617Y008599D01*
X010539Y008124D02*
X010032Y008124D01*
X009728Y008124D02*
X008843Y008124D01*
X008927Y009394D02*
X008801Y009519D01*
X008752Y009540D01*
X008826Y009540D01*
X008950Y009416D01*
X008927Y009394D01*
X008402Y009392D02*
X007332Y009392D01*
X007539Y009550D02*
X007676Y009550D01*
X007580Y009931D02*
X007538Y010033D01*
X007480Y010091D01*
X007658Y010091D01*
X007639Y010072D01*
X007580Y009931D01*
X007541Y010026D02*
X007620Y010026D01*
X007302Y010868D02*
X006760Y010868D01*
X006737Y010868D01*
X006737Y010899D01*
X006705Y010976D01*
X006827Y010976D01*
X006984Y011042D01*
X007105Y011162D01*
X007121Y011202D01*
X007121Y011111D01*
X007165Y011004D01*
X007247Y010922D01*
X007302Y010868D01*
X007193Y010977D02*
X006828Y010977D01*
X007078Y011135D02*
X007121Y011135D01*
X007121Y011608D02*
X007105Y011647D01*
X007076Y011676D01*
X007121Y011676D01*
X007121Y011608D01*
X007120Y011611D02*
X007121Y011611D01*
X006837Y011928D02*
X006728Y011928D01*
X006837Y012086D02*
X006569Y012086D01*
X006411Y012245D02*
X006837Y012245D01*
X006837Y012403D02*
X006354Y012403D01*
X006354Y012562D02*
X006872Y012562D01*
X006897Y012720D02*
X006354Y012720D01*
X006773Y013513D02*
X006773Y013513D01*
X006773Y013671D02*
X006773Y013671D01*
X006773Y013830D02*
X006773Y013830D01*
X006773Y013988D02*
X006773Y013988D01*
X006773Y014147D02*
X006773Y014147D01*
X007907Y012086D02*
X008782Y012086D01*
X009340Y012720D02*
X009385Y012720D01*
X009385Y012676D02*
X009214Y012847D01*
X009409Y012847D01*
X009385Y012789D01*
X009385Y012676D01*
X009614Y012323D02*
X009728Y012276D01*
X009898Y012276D01*
X010055Y012341D01*
X010128Y012414D01*
X011031Y012414D01*
X011302Y012143D01*
X011302Y012059D01*
X011224Y012059D01*
X011214Y012055D01*
X011205Y012059D01*
X010972Y012059D01*
X010962Y012055D01*
X010953Y012059D01*
X010720Y012059D01*
X010710Y012055D01*
X010701Y012059D01*
X010468Y012059D01*
X010458Y012055D01*
X010449Y012059D01*
X010216Y012059D01*
X010206Y012055D01*
X010197Y012059D01*
X009964Y012059D01*
X009954Y012055D01*
X009945Y012059D01*
X009712Y012059D01*
X009702Y012055D01*
X009693Y012059D01*
X009614Y012059D01*
X009614Y012323D01*
X009614Y012245D02*
X011200Y012245D01*
X011302Y012086D02*
X009614Y012086D01*
X010118Y012403D02*
X011042Y012403D01*
X011418Y012847D02*
X011882Y012847D01*
X011826Y012710D01*
X011826Y012652D01*
X011708Y012557D01*
X011418Y012847D01*
X011545Y012720D02*
X011830Y012720D01*
X011714Y012562D02*
X011703Y012562D01*
X011882Y014185D02*
X011908Y014185D01*
X011929Y014207D01*
X011987Y014264D01*
X011941Y014264D01*
X011882Y014205D01*
X011882Y014185D01*
X011128Y016366D02*
X011088Y016366D01*
X011116Y018426D02*
X011151Y018426D01*
X011116Y018585D02*
X011310Y018585D01*
X011468Y018743D02*
X011104Y018743D01*
X011012Y018902D02*
X012099Y018902D01*
X012170Y019060D02*
X011068Y019060D01*
X011062Y019219D02*
X012192Y019219D01*
X012192Y019377D02*
X010989Y019377D01*
X010931Y020645D02*
X007311Y020645D01*
X007221Y020487D02*
X012192Y020487D01*
X012192Y020645D02*
X011214Y020645D01*
X011432Y020804D02*
X012192Y020804D01*
X012192Y020962D02*
X011500Y020962D01*
X011501Y021121D02*
X012192Y021121D01*
X012192Y021279D02*
X011441Y021279D01*
X011255Y021438D02*
X012192Y021438D01*
X012192Y021596D02*
X010531Y021596D01*
X010373Y021438D02*
X010890Y021438D01*
X010690Y021755D02*
X012137Y021755D01*
X011978Y021913D02*
X010848Y021913D01*
X010949Y022072D02*
X011822Y022072D01*
X011822Y022230D02*
X010970Y022230D01*
X010984Y022389D02*
X011822Y022389D01*
X011822Y022547D02*
X011046Y022547D01*
X011046Y022706D02*
X011822Y022706D01*
X011900Y022864D02*
X011046Y022864D01*
X011046Y023023D02*
X012058Y023023D01*
X012217Y023181D02*
X011046Y023181D01*
X010988Y023340D02*
X016520Y023340D01*
X016614Y023181D02*
X015040Y023181D01*
X014989Y023233D02*
X014705Y023233D01*
X014705Y022478D01*
X014605Y022478D01*
X014605Y022378D01*
X013850Y022378D01*
X013850Y022095D01*
X014322Y021623D01*
X014605Y021623D01*
X014605Y022378D01*
X014705Y022378D01*
X014705Y021623D01*
X014989Y021623D01*
X015460Y022095D01*
X015460Y022378D01*
X014705Y022378D01*
X014705Y022478D01*
X015460Y022478D01*
X015460Y022762D01*
X014989Y023233D01*
X014705Y023181D02*
X014605Y023181D01*
X014605Y023233D02*
X014322Y023233D01*
X013850Y022762D01*
X013850Y022478D01*
X014605Y022478D01*
X014605Y023233D01*
X014605Y023023D02*
X014705Y023023D01*
X014705Y022864D02*
X014605Y022864D01*
X014605Y022706D02*
X014705Y022706D01*
X014705Y022547D02*
X014605Y022547D01*
X014605Y022389D02*
X013552Y022389D01*
X013552Y022547D02*
X013850Y022547D01*
X013850Y022706D02*
X013552Y022706D01*
X013474Y022864D02*
X013953Y022864D01*
X014112Y023023D02*
X013315Y023023D01*
X013157Y023181D02*
X014270Y023181D01*
X014705Y022389D02*
X016434Y022389D01*
X016454Y022357D02*
X016454Y022357D01*
X016543Y022230D02*
X015460Y022230D01*
X015438Y022072D02*
X016656Y022072D01*
X016544Y021913D02*
X015279Y021913D01*
X015121Y021755D02*
X016385Y021755D01*
X016375Y021596D02*
X013079Y021596D01*
X012992Y021438D02*
X016375Y021438D01*
X016375Y021372D02*
X016375Y021548D01*
X016815Y021548D01*
X016815Y021108D01*
X016638Y021108D01*
X016375Y021372D01*
X016467Y021279D02*
X012992Y021279D01*
X012992Y021121D02*
X016625Y021121D01*
X016815Y021121D02*
X016835Y021121D01*
X016835Y021108D02*
X017011Y021108D01*
X017275Y021372D01*
X017275Y021548D01*
X016835Y021548D01*
X016835Y021108D01*
X016835Y021279D02*
X016815Y021279D01*
X016815Y021438D02*
X016835Y021438D01*
X017024Y021121D02*
X017541Y021121D01*
X017508Y020962D02*
X017142Y020962D01*
X017300Y020804D02*
X017349Y020804D01*
X017325Y020337D02*
X017603Y020058D01*
X017325Y019779D01*
X017046Y020058D01*
X017325Y020337D01*
X017316Y020328D02*
X017333Y020328D01*
X017492Y020170D02*
X017158Y020170D01*
X017093Y020011D02*
X017557Y020011D01*
X017398Y019853D02*
X017251Y019853D01*
X017325Y019337D02*
X017603Y019058D01*
X017325Y018779D01*
X017046Y019058D01*
X017325Y019337D01*
X017207Y019219D02*
X017443Y019219D01*
X017601Y019060D02*
X017048Y019060D01*
X017202Y018902D02*
X017447Y018902D01*
X017325Y018337D02*
X017603Y018058D01*
X017325Y017779D01*
X017046Y018058D01*
X017325Y018337D01*
X017256Y018268D02*
X017394Y018268D01*
X017552Y018109D02*
X017097Y018109D01*
X017153Y017951D02*
X017496Y017951D01*
X017338Y017792D02*
X017312Y017792D01*
X017325Y017337D02*
X017603Y017058D01*
X017325Y016779D01*
X017046Y017058D01*
X017325Y017337D01*
X017305Y017317D02*
X017345Y017317D01*
X017503Y017158D02*
X017146Y017158D01*
X017104Y017000D02*
X017545Y017000D01*
X017387Y016841D02*
X017263Y016841D01*
X017325Y016337D02*
X017603Y016058D01*
X017325Y015779D01*
X017046Y016058D01*
X017325Y016337D01*
X017195Y016207D02*
X017454Y016207D01*
X017594Y016049D02*
X017055Y016049D01*
X017214Y015890D02*
X017436Y015890D01*
X017325Y015337D02*
X017603Y015058D01*
X017325Y014779D01*
X017046Y015058D01*
X017325Y015337D01*
X017405Y015256D02*
X017244Y015256D01*
X017086Y015098D02*
X017564Y015098D01*
X017485Y014939D02*
X017165Y014939D01*
X017323Y014781D02*
X017326Y014781D01*
X017325Y014337D02*
X017603Y014058D01*
X017325Y013779D01*
X017046Y014058D01*
X017325Y014337D01*
X017356Y014305D02*
X017293Y014305D01*
X017135Y014147D02*
X017515Y014147D01*
X017534Y013988D02*
X017116Y013988D01*
X017274Y013830D02*
X017375Y013830D01*
X017325Y013337D02*
X017603Y013058D01*
X017325Y012779D01*
X017046Y013058D01*
X017325Y013337D01*
X017184Y013196D02*
X017466Y013196D01*
X017583Y013037D02*
X017067Y013037D01*
X017225Y012879D02*
X017424Y012879D01*
X017417Y012245D02*
X017233Y012245D01*
X017074Y012086D02*
X017575Y012086D01*
X017473Y011928D02*
X017091Y011928D01*
X017250Y011769D02*
X017315Y011769D01*
X017315Y011611D02*
X017275Y011611D01*
X017275Y011452D02*
X017315Y011452D01*
X017368Y011294D02*
X017197Y011294D01*
X018046Y011058D02*
X018076Y011088D01*
X018076Y011028D01*
X018046Y011058D01*
X018076Y010088D02*
X018076Y010028D01*
X018046Y010058D01*
X018076Y010088D01*
X018076Y009088D02*
X018076Y009028D01*
X018046Y009058D01*
X018076Y009088D01*
X018076Y009075D02*
X018063Y009075D01*
X018076Y008088D02*
X018076Y008028D01*
X018046Y008058D01*
X018076Y008088D01*
X018076Y007088D02*
X018076Y007028D01*
X018046Y007058D01*
X018076Y007088D01*
X018076Y006088D02*
X018076Y006028D01*
X018046Y006058D01*
X018076Y006088D01*
X018076Y006063D02*
X018051Y006063D01*
X018076Y005088D02*
X018076Y005028D01*
X018046Y005058D01*
X018076Y005088D01*
X018076Y012028D02*
X018076Y012088D01*
X018046Y012058D01*
X018076Y012028D01*
X018074Y012086D02*
X018076Y012086D01*
X018076Y013028D02*
X018076Y013088D01*
X018046Y013058D01*
X018076Y013028D01*
X018076Y013037D02*
X018067Y013037D01*
X018076Y014028D02*
X018076Y014088D01*
X018046Y014058D01*
X018076Y014028D01*
X018076Y015028D02*
X018076Y015088D01*
X018046Y015058D01*
X018076Y015028D01*
X018076Y016028D02*
X018076Y016088D01*
X018046Y016058D01*
X018076Y016028D01*
X018076Y016049D02*
X018055Y016049D01*
X018076Y017028D02*
X018076Y017088D01*
X018046Y017058D01*
X018076Y017028D01*
X018076Y018028D02*
X018076Y018088D01*
X018046Y018058D01*
X018076Y018028D01*
X018076Y019028D02*
X018076Y019088D01*
X018046Y019058D01*
X018076Y019028D01*
X018076Y019060D02*
X018048Y019060D01*
X018076Y020028D02*
X018076Y020088D01*
X018046Y020058D01*
X018076Y020028D01*
X018076Y021028D02*
X018076Y021088D01*
X018046Y021058D01*
X018076Y021028D01*
X017382Y021279D02*
X017182Y021279D01*
X017275Y021438D02*
X017315Y021438D01*
X017315Y021596D02*
X017275Y021596D01*
X017264Y021755D02*
X017315Y021755D01*
X017459Y021913D02*
X017106Y021913D01*
X017615Y022068D02*
X017664Y022117D01*
X017667Y022124D01*
X017684Y022141D01*
X017686Y022147D01*
X017692Y022152D01*
X017694Y022159D01*
X017699Y022164D01*
X017702Y022171D01*
X017703Y022172D01*
X017706Y022179D01*
X017707Y022180D01*
X017710Y022187D01*
X017711Y022188D01*
X017714Y022195D01*
X017715Y022196D01*
X017718Y022202D01*
X017719Y022204D01*
X017756Y022292D01*
X017756Y022293D01*
X017760Y022304D01*
X017814Y022357D01*
X017825Y022369D01*
X017828Y022376D01*
X017829Y022377D01*
X017866Y022465D01*
X017866Y022620D01*
X017829Y022708D01*
X017828Y022709D01*
X017825Y022716D01*
X017824Y022717D01*
X017821Y022724D01*
X017818Y022727D01*
X017750Y022795D01*
X017743Y022798D01*
X017742Y022799D01*
X017736Y022801D01*
X017731Y022814D01*
X017730Y022815D01*
X017727Y022822D01*
X017726Y022823D01*
X017723Y022830D01*
X017722Y022831D01*
X017719Y022838D01*
X017715Y022842D01*
X017714Y022843D01*
X017711Y022850D01*
X017707Y022853D01*
X017703Y022857D01*
X017699Y022861D01*
X017695Y022865D01*
X017692Y022869D01*
X017624Y022937D01*
X017620Y022941D01*
X017613Y022943D01*
X017608Y022949D01*
X017602Y022951D01*
X017600Y022952D01*
X017594Y022955D01*
X017593Y022956D01*
X017513Y022989D01*
X017513Y022990D01*
X017522Y022999D01*
X017525Y023006D01*
X017534Y023015D01*
X017537Y023021D01*
X017542Y023026D01*
X017545Y023033D01*
X017554Y023042D01*
X017557Y023049D01*
X017566Y023058D01*
X017568Y023065D01*
X017577Y023074D01*
X017580Y023080D01*
X017589Y023089D01*
X017592Y023096D01*
X017597Y023101D01*
X017600Y023108D01*
X017601Y023109D01*
X017601Y023109D01*
X017609Y023117D01*
X017612Y023124D01*
X017621Y023133D01*
X017623Y023139D01*
X017632Y023148D01*
X017635Y023155D01*
X017644Y023164D01*
X017647Y023171D01*
X017656Y023180D01*
X017659Y023187D01*
X017664Y023192D01*
X017667Y023199D01*
X017676Y023208D01*
X017679Y023214D01*
X017688Y023223D01*
X017690Y023230D01*
X017699Y023239D01*
X017702Y023246D01*
X017711Y023255D01*
X017714Y023262D01*
X017719Y023267D01*
X017756Y023355D01*
X017756Y023368D01*
X018076Y023368D01*
X018076Y022028D01*
X018036Y022068D01*
X017615Y022068D01*
X017619Y022072D02*
X018076Y022072D01*
X018076Y022230D02*
X017730Y022230D01*
X017814Y022357D02*
X017814Y022357D01*
X017834Y022389D02*
X018076Y022389D01*
X018076Y022547D02*
X017866Y022547D01*
X017830Y022706D02*
X018076Y022706D01*
X018076Y022864D02*
X017696Y022864D01*
X017624Y022937D02*
X017624Y022937D01*
X017538Y023023D02*
X018076Y023023D01*
X018076Y023181D02*
X017657Y023181D01*
X017749Y023340D02*
X018076Y023340D01*
X016765Y022979D02*
X016765Y022979D01*
X016732Y023023D02*
X015199Y023023D01*
X015357Y022864D02*
X016587Y022864D01*
X016438Y022706D02*
X015460Y022706D01*
X015460Y022547D02*
X016402Y022547D01*
X016508Y020962D02*
X012992Y020962D01*
X012992Y020804D02*
X016349Y020804D01*
X016315Y020645D02*
X012992Y020645D01*
X012992Y020487D02*
X016315Y020487D01*
X016333Y020328D02*
X012992Y020328D01*
X012992Y020170D02*
X016492Y020170D01*
X016557Y020011D02*
X012992Y020011D01*
X012992Y019853D02*
X016398Y019853D01*
X016315Y019694D02*
X016104Y019694D01*
X016263Y019536D02*
X016315Y019536D01*
X016433Y019228D02*
X016603Y019058D01*
X016433Y018888D01*
X016433Y019228D01*
X016433Y019219D02*
X016443Y019219D01*
X016433Y019060D02*
X016601Y019060D01*
X016447Y018902D02*
X016433Y018902D01*
X016433Y018228D02*
X016603Y018058D01*
X016433Y017888D01*
X016433Y018228D01*
X016433Y018109D02*
X016552Y018109D01*
X016496Y017951D02*
X016433Y017951D01*
X015633Y018449D02*
X015252Y018830D01*
X015105Y018891D01*
X015091Y018891D01*
X015031Y019036D01*
X015631Y019036D01*
X015633Y019034D01*
X015633Y018449D01*
X015633Y018585D02*
X015497Y018585D01*
X015633Y018743D02*
X015339Y018743D01*
X015086Y018902D02*
X015633Y018902D01*
X014042Y016841D02*
X013745Y016841D01*
X013745Y017000D02*
X014004Y017000D01*
X014126Y016683D02*
X013773Y016683D01*
X013300Y017792D02*
X012885Y017792D01*
X013033Y017951D02*
X013152Y017951D01*
X013099Y018902D02*
X013086Y018902D01*
X013014Y019060D02*
X013170Y019060D01*
X012992Y019219D02*
X013365Y019219D01*
X013637Y019377D02*
X012992Y019377D01*
X012992Y019536D02*
X013796Y019536D01*
X013954Y019694D02*
X012992Y019694D01*
X013237Y021755D02*
X014190Y021755D01*
X014032Y021913D02*
X013396Y021913D01*
X013552Y022072D02*
X013873Y022072D01*
X013850Y022230D02*
X013552Y022230D01*
X014605Y022230D02*
X014705Y022230D01*
X014705Y022072D02*
X014605Y022072D01*
X014605Y021913D02*
X014705Y021913D01*
X014705Y021755D02*
X014605Y021755D01*
X011073Y021050D02*
X007263Y021050D01*
X006751Y020538D01*
X006842Y021093D02*
X006641Y021093D01*
X006667Y021157D01*
X006667Y021268D01*
X006757Y021178D01*
X006842Y021093D01*
X006814Y021121D02*
X006652Y021121D01*
X006998Y022305D02*
X006929Y022374D01*
X006782Y022434D01*
X006667Y022434D01*
X006667Y022603D01*
X006706Y022574D01*
X006779Y022537D01*
X006857Y022512D01*
X006937Y022499D01*
X006945Y022499D01*
X006945Y022986D01*
X007011Y022986D01*
X007011Y023052D01*
X007498Y023052D01*
X007498Y023060D01*
X007485Y023140D01*
X007460Y023218D01*
X007423Y023291D01*
X007375Y023357D01*
X007364Y023368D01*
X009349Y023368D01*
X009338Y023357D01*
X009290Y023291D01*
X009253Y023218D01*
X009227Y023140D01*
X009215Y023060D01*
X009215Y023052D01*
X009701Y023052D01*
X009701Y022986D01*
X009215Y022986D01*
X009215Y022978D01*
X009227Y022897D01*
X009253Y022819D01*
X009290Y022746D01*
X009338Y022680D01*
X009396Y022622D01*
X009462Y022574D01*
X009535Y022537D01*
X009612Y022512D01*
X009693Y022499D01*
X009701Y022499D01*
X009701Y022986D01*
X009767Y022986D01*
X009767Y022499D01*
X009775Y022499D01*
X009856Y022512D01*
X009934Y022537D01*
X010006Y022574D01*
X010073Y022622D01*
X010093Y022643D01*
X010093Y022538D01*
X010166Y022363D01*
X009831Y022028D01*
X009831Y022083D01*
X009757Y022263D01*
X009619Y022401D01*
X009438Y022476D01*
X009243Y022476D01*
X009062Y022401D01*
X008924Y022263D01*
X008849Y022083D01*
X008849Y021888D01*
X008884Y021805D01*
X007828Y021805D01*
X007863Y021888D01*
X007863Y022083D01*
X007788Y022263D01*
X007650Y022401D01*
X007470Y022476D01*
X007274Y022476D01*
X007094Y022401D01*
X006998Y022305D01*
X007081Y022389D02*
X006892Y022389D01*
X007011Y022499D02*
X007019Y022499D01*
X007100Y022512D01*
X007178Y022537D01*
X007251Y022574D01*
X007317Y022622D01*
X007375Y022680D01*
X007423Y022746D01*
X007460Y022819D01*
X007485Y022897D01*
X007498Y022978D01*
X007498Y022986D01*
X007011Y022986D01*
X007011Y022499D01*
X007011Y022547D02*
X006945Y022547D01*
X006945Y022706D02*
X007011Y022706D01*
X007011Y022864D02*
X006945Y022864D01*
X007011Y023023D02*
X009701Y023023D01*
X009701Y022864D02*
X009767Y022864D01*
X009767Y022706D02*
X009701Y022706D01*
X009701Y022547D02*
X009767Y022547D01*
X009954Y022547D02*
X010093Y022547D01*
X010155Y022389D02*
X009631Y022389D01*
X009514Y022547D02*
X007198Y022547D01*
X007393Y022706D02*
X009319Y022706D01*
X009238Y022864D02*
X007474Y022864D01*
X007472Y023181D02*
X009241Y023181D01*
X009325Y023340D02*
X007387Y023340D01*
X006759Y022547D02*
X006667Y022547D01*
X006466Y023104D02*
X005786Y023104D01*
X005786Y023138D01*
X005776Y023203D01*
X005755Y023265D01*
X005726Y023323D01*
X005693Y023368D01*
X006593Y023368D01*
X006582Y023357D01*
X006534Y023291D01*
X006497Y023218D01*
X006471Y023140D01*
X006466Y023104D01*
X006485Y023181D02*
X005779Y023181D01*
X005714Y023340D02*
X006569Y023340D01*
X005557Y022230D02*
X005478Y022230D01*
X005370Y022230D02*
X005370Y022230D01*
X005370Y022217D02*
X005370Y022869D01*
X005370Y022869D01*
X005370Y022217D01*
X005261Y022230D02*
X002574Y022230D01*
X002574Y022072D02*
X005515Y022072D01*
X005532Y021913D02*
X005342Y021913D01*
X005370Y022389D02*
X005370Y022389D01*
X005370Y022547D02*
X005370Y022547D01*
X005370Y022706D02*
X005370Y022706D01*
X005370Y022864D02*
X005370Y022864D01*
X005370Y022869D02*
X004953Y022869D01*
X005370Y022869D01*
X005370Y022869D01*
X004953Y022864D02*
X002574Y022864D01*
X002574Y022706D02*
X004953Y022706D01*
X004962Y022547D02*
X002574Y022547D01*
X002574Y022389D02*
X005032Y022389D01*
X004953Y023023D02*
X002574Y023023D01*
X002574Y023181D02*
X004960Y023181D01*
X005026Y023340D02*
X002574Y023340D01*
X002815Y021913D02*
X002835Y021913D01*
X002835Y021755D02*
X002815Y021755D01*
X002815Y021596D02*
X002835Y021596D01*
X002835Y021548D02*
X003275Y021548D01*
X003275Y021372D01*
X003011Y021108D01*
X002835Y021108D01*
X002835Y021548D01*
X002835Y021438D02*
X002815Y021438D01*
X002815Y021279D02*
X002835Y021279D01*
X002835Y021121D02*
X002815Y021121D01*
X002625Y021121D02*
X002574Y021121D01*
X003024Y021121D02*
X003541Y021121D01*
X003638Y021008D02*
X003375Y020744D01*
X003375Y020568D01*
X003815Y020568D01*
X003815Y021008D01*
X003638Y021008D01*
X003593Y020962D02*
X003142Y020962D01*
X003300Y020804D02*
X003434Y020804D01*
X003375Y020645D02*
X003335Y020645D01*
X003375Y020548D02*
X003375Y020372D01*
X003638Y020108D01*
X003815Y020108D01*
X003815Y020548D01*
X003835Y020548D01*
X003835Y020568D01*
X004275Y020568D01*
X004275Y020744D01*
X004011Y021008D01*
X003835Y021008D01*
X003835Y020568D01*
X003815Y020568D01*
X003815Y020548D01*
X003375Y020548D01*
X003375Y020487D02*
X003335Y020487D01*
X003316Y020328D02*
X003418Y020328D01*
X003576Y020170D02*
X003158Y020170D01*
X003093Y020011D02*
X003557Y020011D01*
X003398Y019853D02*
X003251Y019853D01*
X003325Y019337D02*
X003603Y019058D01*
X003325Y018779D01*
X003046Y019058D01*
X003325Y019337D01*
X003207Y019219D02*
X003443Y019219D01*
X003601Y019060D02*
X003048Y019060D01*
X003202Y018902D02*
X003447Y018902D01*
X003325Y018337D02*
X003603Y018058D01*
X003325Y017779D01*
X003046Y018058D01*
X003325Y018337D01*
X003256Y018268D02*
X003394Y018268D01*
X003552Y018109D02*
X003097Y018109D01*
X003153Y017951D02*
X003496Y017951D01*
X003338Y017792D02*
X003312Y017792D01*
X003305Y017317D02*
X003345Y017317D01*
X003503Y017158D02*
X003146Y017158D01*
X003104Y017000D02*
X003630Y017000D01*
X003472Y016841D02*
X003263Y016841D01*
X003335Y016683D02*
X003375Y016683D01*
X003375Y016524D02*
X003335Y016524D01*
X003335Y016366D02*
X003380Y016366D01*
X002603Y016058D02*
X002574Y016028D01*
X002574Y016088D01*
X002603Y016058D01*
X002594Y016049D02*
X002574Y016049D01*
X002574Y015088D02*
X002603Y015058D01*
X002574Y015028D01*
X002574Y015088D01*
X002574Y014088D02*
X002603Y014058D01*
X002574Y014028D01*
X002574Y014088D01*
X002574Y013088D02*
X002603Y013058D01*
X002574Y013028D01*
X002574Y013088D01*
X002574Y013037D02*
X002583Y013037D01*
X002574Y012088D02*
X002603Y012058D01*
X002574Y012028D01*
X002574Y012088D01*
X002574Y012086D02*
X002575Y012086D01*
X002574Y011088D02*
X002603Y011058D01*
X002574Y011028D01*
X002574Y011088D01*
X002574Y010088D02*
X002603Y010058D01*
X002574Y010028D01*
X002574Y010088D01*
X002574Y009088D02*
X002603Y009058D01*
X002574Y009028D01*
X002574Y009088D01*
X002574Y009075D02*
X002587Y009075D01*
X002574Y008088D02*
X002603Y008058D01*
X002574Y008028D01*
X002574Y008088D01*
X002574Y007088D02*
X002603Y007058D01*
X002574Y007028D01*
X002574Y007088D01*
X003248Y006856D02*
X003401Y006856D01*
X003325Y006337D02*
X003603Y006058D01*
X003325Y005779D01*
X003046Y006058D01*
X003325Y006337D01*
X003210Y006222D02*
X003440Y006222D01*
X003598Y006063D02*
X003051Y006063D01*
X003199Y005905D02*
X003450Y005905D01*
X003391Y005271D02*
X003259Y005271D01*
X002574Y006028D02*
X002603Y006058D01*
X002574Y006088D01*
X002574Y006028D01*
X002574Y006063D02*
X002598Y006063D01*
X004046Y005058D02*
X004153Y004951D01*
X004206Y005079D01*
X004398Y005271D01*
X004649Y005375D01*
X004921Y005375D01*
X005172Y005271D01*
X005331Y005112D02*
X005431Y005112D01*
X005468Y004637D02*
X005569Y004637D01*
X005436Y004478D02*
X006276Y004478D01*
X006244Y004637D02*
X006143Y004637D01*
X005865Y004637D02*
X005848Y004637D01*
X005848Y004795D02*
X005865Y004795D01*
X005848Y004954D02*
X005865Y004954D01*
X006195Y005271D02*
X006540Y005271D01*
X006382Y005112D02*
X006282Y005112D01*
X007314Y005271D02*
X007351Y005271D01*
X007382Y006856D02*
X007283Y006856D01*
X005153Y006856D02*
X005141Y006856D01*
X004337Y007965D02*
X004139Y007965D01*
X004259Y005271D02*
X004399Y005271D01*
X004240Y005112D02*
X004100Y005112D01*
X004150Y004954D02*
X004155Y004954D01*
X010266Y005271D02*
X010304Y005271D01*
X016433Y012888D02*
X016433Y013228D01*
X016603Y013058D01*
X016433Y012888D01*
X016433Y013037D02*
X016583Y013037D01*
X016466Y013196D02*
X016433Y013196D01*
X016433Y013888D02*
X016433Y014228D01*
X016603Y014058D01*
X016433Y013888D01*
X016433Y013988D02*
X016534Y013988D01*
X016515Y014147D02*
X016433Y014147D01*
X016433Y015888D02*
X016433Y016228D01*
X016603Y016058D01*
X016433Y015888D01*
X016433Y015890D02*
X016436Y015890D01*
X016433Y016049D02*
X016594Y016049D01*
X016454Y016207D02*
X016433Y016207D01*
X010166Y022363D02*
X010166Y022363D01*
X010034Y022230D02*
X009770Y022230D01*
X009831Y022072D02*
X009875Y022072D01*
X009050Y022389D02*
X007663Y022389D01*
X007802Y022230D02*
X008911Y022230D01*
X008849Y022072D02*
X007863Y022072D01*
X007863Y021913D02*
X008849Y021913D01*
X010130Y023357D02*
X010120Y023368D01*
X010163Y023368D01*
X010148Y023333D01*
X010130Y023357D01*
X010143Y023340D02*
X010151Y023340D01*
X005791Y019853D02*
X004251Y019853D01*
X004335Y019694D02*
X005791Y019694D01*
X005791Y019536D02*
X004335Y019536D01*
X004335Y019377D02*
X005791Y019377D01*
X005791Y019219D02*
X004207Y019219D01*
X004048Y019060D02*
X005791Y019060D01*
X005791Y018902D02*
X004202Y018902D01*
X004335Y018743D02*
X005791Y018743D01*
X005791Y018585D02*
X004335Y018585D01*
X004335Y018426D02*
X005791Y018426D01*
X005791Y018268D02*
X004256Y018268D01*
X004097Y018109D02*
X005791Y018109D01*
X005791Y017951D02*
X004153Y017951D01*
X004312Y017792D02*
X005791Y017792D01*
X005807Y017634D02*
X004335Y017634D01*
X004335Y017475D02*
X005868Y017475D01*
X005972Y017317D02*
X004305Y017317D01*
X002603Y017058D02*
X002574Y017028D01*
X002574Y017088D01*
X002603Y017058D01*
X002574Y018028D02*
X002603Y018058D01*
X002574Y018088D01*
X002574Y018028D01*
X002574Y019028D02*
X002603Y019058D01*
X002574Y019088D01*
X002574Y019028D01*
X002574Y019060D02*
X002601Y019060D01*
X002574Y020028D02*
X002603Y020058D01*
X002574Y020088D01*
X002574Y020028D01*
X003182Y021279D02*
X003382Y021279D01*
X003315Y021438D02*
X003275Y021438D01*
X003275Y021596D02*
X003315Y021596D01*
X003315Y021755D02*
X003264Y021755D01*
X003106Y021913D02*
X003459Y021913D01*
X003815Y020962D02*
X003835Y020962D01*
X003835Y020804D02*
X003815Y020804D01*
X003815Y020645D02*
X003835Y020645D01*
X003835Y020548D02*
X004275Y020548D01*
X004275Y020372D01*
X004011Y020108D01*
X003835Y020108D01*
X003835Y020548D01*
X003835Y020487D02*
X003815Y020487D01*
X003815Y020328D02*
X003835Y020328D01*
X003835Y020170D02*
X003815Y020170D01*
X004073Y020170D02*
X005084Y020170D01*
X005081Y020328D02*
X004231Y020328D01*
X004275Y020487D02*
X005081Y020487D01*
X005063Y020645D02*
X004275Y020645D01*
X004215Y020804D02*
X004949Y020804D01*
X004925Y020962D02*
X004057Y020962D01*
X004109Y021121D02*
X004925Y021121D01*
X005206Y020011D02*
X004093Y020011D01*
D11*
X002825Y004558D03*
X016825Y004558D03*
D12*
X016825Y005558D03*
X016825Y006558D03*
X016825Y007558D03*
X016825Y008558D03*
X016825Y009558D03*
X016825Y010558D03*
X016825Y011558D03*
X017825Y011558D03*
X017825Y010558D03*
X017825Y009558D03*
X017825Y008558D03*
X017825Y007558D03*
X017825Y006558D03*
X017825Y005558D03*
X017825Y004558D03*
X017825Y012558D03*
X017825Y013558D03*
X017825Y014558D03*
X017825Y015558D03*
X017825Y016558D03*
X017825Y017558D03*
X017825Y018558D03*
X017825Y019558D03*
X017825Y020558D03*
X017825Y021558D03*
X016825Y021558D03*
X016825Y020558D03*
X016825Y019558D03*
X016825Y018558D03*
X016825Y017558D03*
X016825Y016558D03*
X016825Y015558D03*
X016825Y014558D03*
X016825Y013558D03*
X016825Y012558D03*
X003825Y012558D03*
X003825Y013558D03*
X003825Y014558D03*
X003825Y015558D03*
X003825Y016558D03*
X003825Y017558D03*
X003825Y018558D03*
X003825Y019558D03*
X003825Y020558D03*
X003825Y021558D03*
X002825Y021558D03*
X002825Y020558D03*
X002825Y019558D03*
X002825Y018558D03*
X002825Y017558D03*
X002825Y016558D03*
X002825Y015558D03*
X002825Y014558D03*
X002825Y013558D03*
X002825Y012558D03*
X002825Y011558D03*
X002825Y010558D03*
X002825Y009558D03*
X002825Y008558D03*
X002825Y007558D03*
X002825Y006558D03*
X002825Y005558D03*
X003825Y005558D03*
X003825Y004558D03*
X003825Y006558D03*
X003825Y007558D03*
X003825Y008558D03*
X003825Y009558D03*
X003825Y010558D03*
X003825Y011558D03*
D13*
X008820Y011524D03*
X009072Y011524D03*
X009324Y011524D03*
X009576Y011524D03*
X009828Y011524D03*
X010080Y011524D03*
X010332Y011524D03*
X010584Y011524D03*
X010836Y011524D03*
X011088Y011524D03*
X011340Y011524D03*
X011592Y011524D03*
X011844Y011524D03*
X012096Y011524D03*
X012096Y013650D03*
X011844Y013650D03*
X011592Y013650D03*
X011340Y013650D03*
X011088Y013650D03*
X010836Y013650D03*
X010576Y013650D03*
X010332Y013650D03*
X010080Y013650D03*
X009828Y013650D03*
X009576Y013650D03*
X009324Y013650D03*
X009072Y013650D03*
X008820Y013650D03*
D14*
X012687Y022428D03*
X014655Y022428D03*
D15*
X010570Y022633D02*
X010570Y023105D01*
X005370Y023105D02*
X005370Y022633D01*
X005370Y015805D02*
X005370Y015333D01*
X006536Y013840D02*
X007009Y013840D01*
X010570Y015333D02*
X010570Y015805D01*
X013836Y013840D02*
X014309Y013840D01*
X014309Y008640D02*
X013836Y008640D01*
X007009Y008640D02*
X006536Y008640D01*
D16*
X012592Y018221D02*
X012592Y018761D01*
X013592Y018761D02*
X013592Y018221D01*
X014592Y018221D02*
X014592Y018761D01*
D17*
X014813Y016385D03*
X014813Y015637D03*
X013238Y015637D03*
X013238Y016385D03*
X011663Y016385D03*
X011663Y015637D03*
X009734Y015282D03*
X009734Y016031D03*
X007372Y012920D03*
X007372Y012172D03*
D18*
X009872Y017507D03*
X009872Y018373D03*
X010620Y018373D03*
X010620Y017507D03*
D19*
X013022Y010716D03*
G36*
X009501Y008983D02*
X009778Y009260D01*
X009945Y009093D01*
X009668Y008816D01*
X009501Y008983D01*
G37*
G36*
X006391Y009770D02*
X006668Y010047D01*
X006835Y009880D01*
X006558Y009603D01*
X006391Y009770D01*
G37*
D20*
X010974Y009180D03*
X010974Y008432D03*
X011801Y008432D03*
X012943Y009889D03*
X013691Y009889D03*
X013691Y010716D03*
D21*
X011801Y009101D03*
D22*
G36*
X009084Y008564D02*
X009250Y008730D01*
X009416Y008564D01*
X009250Y008398D01*
X009084Y008564D01*
G37*
G36*
X008500Y009149D02*
X008666Y009315D01*
X008832Y009149D01*
X008666Y008983D01*
X008500Y009149D01*
G37*
G36*
X009028Y009678D02*
X009194Y009844D01*
X009360Y009678D01*
X009194Y009512D01*
X009028Y009678D01*
G37*
G36*
X005974Y009352D02*
X006140Y009518D01*
X006306Y009352D01*
X006140Y009186D01*
X005974Y009352D01*
G37*
G36*
X005389Y009936D02*
X005555Y010102D01*
X005721Y009936D01*
X005555Y009770D01*
X005389Y009936D01*
G37*
G36*
X005918Y010465D02*
X006084Y010631D01*
X006250Y010465D01*
X006084Y010299D01*
X005918Y010465D01*
G37*
D23*
X006151Y020538D03*
X005551Y020538D03*
X006751Y020538D03*
D24*
X005856Y007342D03*
X005856Y006554D03*
X005856Y005767D03*
X005856Y004979D03*
X008809Y004979D03*
X008809Y005767D03*
X008809Y006554D03*
X008809Y007342D03*
X011762Y007342D03*
X011762Y006554D03*
X011762Y005767D03*
X011762Y004979D03*
X014714Y004979D03*
X014714Y005767D03*
X014714Y006554D03*
X014714Y007342D03*
D25*
X013644Y007448D03*
X012833Y007448D03*
X010691Y007448D03*
X009880Y007448D03*
X007738Y007448D03*
X006927Y007448D03*
X004785Y007448D03*
X004785Y004692D03*
X006927Y004692D03*
X007738Y004692D03*
X009880Y004692D03*
X010691Y004692D03*
X012833Y004692D03*
X013644Y004692D03*
X015785Y004692D03*
X015785Y007448D03*
D26*
X006112Y021434D03*
X006112Y022034D03*
X006112Y022634D03*
D27*
X006978Y023019D03*
X009734Y023019D03*
D28*
X009340Y021985D03*
X007372Y021985D03*
D29*
X017136Y022200D03*
X017136Y023176D03*
D30*
X017134Y023204D03*
X017016Y022716D03*
X017138Y022204D03*
D31*
X017136Y022208D03*
X017136Y023223D03*
X017136Y023475D03*
D32*
X017136Y023471D03*
X017136Y023239D03*
X017136Y022212D03*
D33*
X017136Y022216D03*
X017136Y023251D03*
X017136Y023468D03*
D34*
X017136Y023464D03*
X017014Y022668D03*
X017136Y022219D03*
D35*
X017136Y022223D03*
X017136Y023271D03*
D36*
X017134Y023279D03*
X017138Y022227D03*
D37*
X017136Y022231D03*
D38*
X017138Y022235D03*
X017134Y023452D03*
D39*
X017136Y022239D03*
D40*
X017136Y022243D03*
X017073Y023393D03*
D41*
X017069Y023401D03*
X017069Y023405D03*
X017077Y023412D03*
X017136Y023314D03*
X017136Y022247D03*
D42*
X017138Y022251D03*
X017134Y023322D03*
D43*
X017134Y023326D03*
X017134Y023440D03*
X017138Y022255D03*
D44*
X017136Y022259D03*
X017136Y023330D03*
D45*
X017136Y022263D03*
D46*
X017136Y022267D03*
D47*
X017136Y022271D03*
X017136Y023345D03*
X017136Y023432D03*
D48*
X017134Y023349D03*
X017138Y022275D03*
D49*
X017138Y022279D03*
X017134Y023353D03*
D50*
X017136Y022282D03*
D51*
X017138Y022286D03*
X017134Y023357D03*
D52*
X017138Y022290D03*
D53*
X017136Y022294D03*
D54*
X017138Y022298D03*
D55*
X017138Y022302D03*
D56*
X017136Y022306D03*
D57*
X017138Y022310D03*
X017134Y023381D03*
D58*
X017136Y022314D03*
D59*
X017138Y022318D03*
D60*
X017136Y022322D03*
D61*
X017138Y022326D03*
D62*
X017136Y022330D03*
D63*
X017138Y022334D03*
D64*
X017136Y022338D03*
D65*
X017138Y022342D03*
X017138Y022345D03*
D66*
X017136Y022349D03*
D67*
X017138Y022353D03*
D68*
X017136Y022357D03*
D69*
X017138Y022361D03*
X017138Y022365D03*
D70*
X017136Y022369D03*
D71*
X017138Y022373D03*
D72*
X017136Y022377D03*
X017136Y022381D03*
D73*
X017138Y022385D03*
D74*
X017136Y022389D03*
X017136Y022393D03*
X017136Y022660D03*
D75*
X017134Y022656D03*
X017138Y022401D03*
X017138Y022397D03*
D76*
X017136Y022405D03*
X017136Y022649D03*
X017136Y022653D03*
D77*
X017134Y022645D03*
X017134Y022641D03*
X017138Y022412D03*
X017138Y022408D03*
D78*
X017136Y022416D03*
X017136Y022420D03*
X017136Y022629D03*
X017136Y022633D03*
X017136Y022637D03*
D79*
X017138Y022428D03*
X017138Y022424D03*
D80*
X017136Y022432D03*
D81*
X017138Y022436D03*
X017138Y022440D03*
X017138Y022444D03*
D82*
X017136Y022448D03*
X017136Y022452D03*
D83*
X017138Y022456D03*
X017138Y022460D03*
D84*
X017136Y022464D03*
X017136Y022468D03*
D85*
X017138Y022471D03*
X017138Y022475D03*
D86*
X017136Y022479D03*
X017136Y022483D03*
D87*
X017136Y022487D03*
D88*
X017134Y022491D03*
D89*
X017134Y022495D03*
D90*
X017134Y022499D03*
D91*
X017134Y022503D03*
X017134Y022582D03*
D92*
X017134Y022578D03*
X017134Y022574D03*
X017134Y022511D03*
X017134Y022507D03*
D93*
X017136Y022515D03*
X017136Y022570D03*
D94*
X017134Y022566D03*
X017134Y022562D03*
X017134Y022558D03*
X017134Y022554D03*
X017134Y022550D03*
X017134Y022546D03*
X017134Y022542D03*
X017134Y022538D03*
X017134Y022534D03*
X017134Y022531D03*
X017134Y022527D03*
X017134Y022523D03*
X017134Y022519D03*
D95*
X017136Y022586D03*
D96*
X017136Y022590D03*
D97*
X017134Y022594D03*
D98*
X017134Y022597D03*
D99*
X017356Y022743D03*
X017368Y022735D03*
X017372Y022731D03*
X017415Y022664D03*
X017136Y023046D03*
X016907Y023428D03*
D100*
X017136Y023267D03*
X017018Y022664D03*
D101*
X017136Y023042D03*
X017333Y022755D03*
X017384Y022723D03*
X017388Y022719D03*
X017392Y022716D03*
X017396Y022712D03*
X017399Y022704D03*
X017403Y022700D03*
X017407Y022692D03*
X017411Y022684D03*
X017415Y022676D03*
X017415Y022672D03*
X017415Y022668D03*
X017136Y023515D03*
D102*
X017134Y023259D03*
X017016Y022672D03*
D103*
X017014Y022676D03*
X017136Y023255D03*
D104*
X017398Y022708D03*
X017405Y022696D03*
X017409Y022688D03*
X017413Y022680D03*
D105*
X017016Y022680D03*
D106*
X017016Y022684D03*
X017016Y022688D03*
X017134Y023247D03*
D107*
X017134Y023243D03*
X017016Y022692D03*
D108*
X017016Y022696D03*
D109*
X017014Y022700D03*
X017136Y023227D03*
D110*
X017134Y023219D03*
X017012Y022704D03*
D111*
X017014Y022708D03*
D112*
X017014Y022712D03*
X017136Y023212D03*
X017136Y023479D03*
D113*
X017256Y023428D03*
X017260Y023424D03*
X017016Y022719D03*
D114*
X017051Y022723D03*
X017134Y023141D03*
D115*
X017136Y022920D03*
X017014Y022814D03*
X016825Y022723D03*
D116*
X017342Y022751D03*
X017350Y022747D03*
X017362Y022739D03*
X017378Y022727D03*
D117*
X017049Y022727D03*
X017136Y023499D03*
D118*
X017049Y022731D03*
D119*
X017045Y022735D03*
D120*
X017043Y022739D03*
D121*
X017041Y022743D03*
D122*
X017037Y022747D03*
D123*
X017039Y022751D03*
X017047Y022759D03*
D124*
X017041Y022755D03*
D125*
X017020Y022802D03*
X017398Y022759D03*
D126*
X017277Y022759D03*
X017136Y022979D03*
X017033Y023117D03*
D127*
X017136Y023192D03*
X017120Y022767D03*
X017120Y022763D03*
D128*
X017120Y022771D03*
D129*
X017122Y022775D03*
X017134Y023184D03*
D130*
X017157Y022779D03*
D131*
X017142Y022822D03*
X017016Y022810D03*
X016937Y022779D03*
D132*
X017157Y022782D03*
X017157Y022786D03*
D133*
X017138Y022912D03*
X017012Y022818D03*
X016933Y022782D03*
D134*
X017157Y022790D03*
X017157Y022794D03*
D135*
X017157Y022798D03*
D136*
X017295Y022802D03*
D137*
X017151Y022802D03*
X017136Y023011D03*
X017222Y023129D03*
X017136Y023519D03*
D138*
X017136Y022916D03*
X017301Y022806D03*
D139*
X017151Y022806D03*
X017136Y022999D03*
X017207Y023097D03*
X017214Y023105D03*
X017218Y023113D03*
X016923Y023286D03*
X016919Y023290D03*
X016915Y023294D03*
X016915Y023298D03*
D140*
X017136Y022928D03*
X017136Y022924D03*
X017018Y022806D03*
D141*
X017149Y022810D03*
X017031Y023125D03*
X017031Y023129D03*
D142*
X017146Y022814D03*
D143*
X017144Y022818D03*
X017136Y022952D03*
D144*
X017012Y022822D03*
D145*
X017010Y022826D03*
X017136Y022905D03*
D146*
X017008Y022830D03*
D147*
X017136Y022893D03*
D148*
X017136Y022897D03*
X017136Y022901D03*
D149*
X017136Y022908D03*
D150*
X017136Y022932D03*
D151*
X017136Y022936D03*
D152*
X017136Y022940D03*
X017136Y022944D03*
D153*
X017136Y022948D03*
D154*
X017136Y022956D03*
X017136Y022960D03*
X017462Y023401D03*
D155*
X017136Y023523D03*
X017136Y022964D03*
D156*
X017136Y022968D03*
D157*
X017136Y022971D03*
X017136Y022975D03*
X017041Y023101D03*
D158*
X017136Y022983D03*
D159*
X017136Y022987D03*
X017136Y022991D03*
D160*
X017136Y022995D03*
X017033Y023133D03*
D161*
X017134Y023003D03*
X017220Y023117D03*
X016913Y023302D03*
D162*
X017136Y023007D03*
X017222Y023121D03*
D163*
X017136Y023015D03*
D164*
X017134Y023019D03*
X017220Y023133D03*
D165*
X017136Y023023D03*
D166*
X017136Y023027D03*
D167*
X017136Y023031D03*
D168*
X017134Y023034D03*
D169*
X017136Y023038D03*
D170*
X017134Y023050D03*
X016901Y023424D03*
D171*
X017136Y023054D03*
X017364Y023365D03*
X017368Y023369D03*
D172*
X017136Y023058D03*
D173*
X017136Y023062D03*
X017136Y023066D03*
X016896Y023416D03*
D174*
X017136Y023511D03*
X017136Y023070D03*
D175*
X017136Y023074D03*
D176*
X017136Y023078D03*
X017136Y023082D03*
D177*
X017136Y023086D03*
D178*
X017136Y023090D03*
X017136Y023507D03*
D179*
X017134Y023094D03*
D180*
X017047Y023097D03*
X017039Y023105D03*
X017035Y023109D03*
X017035Y023113D03*
D181*
X017212Y023101D03*
X017216Y023109D03*
D182*
X017031Y023121D03*
D183*
X017220Y023125D03*
X016913Y023306D03*
D184*
X017136Y023137D03*
D185*
X017136Y023145D03*
D186*
X017136Y023149D03*
X017136Y023495D03*
D187*
X017136Y023153D03*
D188*
X017134Y023156D03*
D189*
X017136Y023160D03*
D190*
X017136Y023164D03*
X017226Y023290D03*
X017230Y023294D03*
X017136Y023491D03*
D191*
X017232Y023298D03*
X017224Y023286D03*
X017134Y023168D03*
D192*
X017134Y023172D03*
X017232Y023306D03*
D193*
X017136Y023180D03*
X017136Y023487D03*
D194*
X017134Y023188D03*
D195*
X017136Y023196D03*
X017010Y023365D03*
X017006Y023369D03*
X017136Y023483D03*
D196*
X017264Y023420D03*
X017134Y023200D03*
X017004Y023373D03*
D197*
X017136Y023208D03*
X017266Y023416D03*
D198*
X017134Y023216D03*
D199*
X017134Y023231D03*
D200*
X017136Y023235D03*
D201*
X017134Y023263D03*
D202*
X017134Y023275D03*
X017134Y023460D03*
D203*
X017136Y023282D03*
D204*
X017234Y023302D03*
D205*
X017232Y023310D03*
D206*
X016913Y023310D03*
D207*
X017136Y023318D03*
D208*
X017134Y023334D03*
D209*
X017134Y023338D03*
X017134Y023436D03*
D210*
X017134Y023342D03*
D211*
X017136Y023361D03*
D212*
X016898Y023420D03*
X017370Y023373D03*
D213*
X017370Y023377D03*
D214*
X017006Y023377D03*
D215*
X017453Y023385D03*
X017457Y023389D03*
X017460Y023393D03*
X017460Y023397D03*
D216*
X017079Y023385D03*
X017075Y023389D03*
X017071Y023397D03*
D217*
X017457Y023412D03*
X017460Y023408D03*
X017464Y023405D03*
D218*
X017134Y023444D03*
X017071Y023408D03*
D219*
X017134Y023448D03*
D220*
X017134Y023456D03*
D221*
X017136Y023503D03*
D222*
X015797Y019436D02*
X014262Y019436D01*
X013592Y018767D01*
X013592Y018491D01*
X012592Y018491D02*
X012592Y022334D01*
X012687Y022428D01*
X010570Y022201D02*
X010570Y022869D01*
X010570Y022201D02*
X009773Y021405D01*
X007096Y021405D01*
X006703Y021798D01*
X006703Y022034D01*
X006112Y022034D01*
X005915Y022034D01*
X005555Y020542D02*
X005551Y020538D01*
X004852Y020223D02*
X004852Y018294D01*
X004852Y016680D01*
X004730Y016558D01*
X003825Y016558D01*
X004852Y016483D02*
X004852Y015538D01*
X004883Y015569D01*
X005370Y015569D01*
X004852Y015538D02*
X004852Y013845D01*
X005128Y013845D01*
X004852Y013845D02*
X004852Y012074D01*
X005049Y012271D01*
X005207Y012271D01*
X004852Y012074D02*
X004852Y008216D01*
X010570Y015569D02*
X010570Y016413D01*
X010777Y016621D01*
X011270Y017113D01*
X011270Y017979D01*
X011781Y018491D01*
X012592Y018491D01*
X014592Y018491D02*
X015025Y018491D01*
X015522Y017995D01*
X015522Y012468D01*
X016033Y014633D02*
X016033Y010263D01*
X016151Y010145D01*
X016033Y014633D02*
X016033Y015027D01*
X016033Y017113D01*
X016033Y019200D01*
X015797Y019436D01*
X010049Y020420D02*
X007648Y020420D01*
X007096Y019869D01*
X007018Y019869D01*
X004852Y020223D02*
X004518Y020558D01*
X003825Y020558D01*
X004852Y016680D02*
X004852Y016483D01*
D223*
X005128Y016483D03*
X006270Y017625D03*
X005167Y018294D03*
X007018Y019869D03*
X008277Y019869D03*
X008710Y019042D03*
X009183Y017979D03*
X009419Y016562D03*
X010600Y016759D03*
X011112Y016247D03*
X011781Y017074D03*
X012569Y016916D03*
X013317Y016916D03*
X014459Y016956D03*
X014813Y015027D03*
X016270Y015027D03*
X016270Y017113D03*
X013277Y014042D03*
X012254Y012625D03*
X013041Y011838D03*
X014065Y012310D03*
X014222Y011168D03*
X014222Y009672D03*
X012923Y009436D03*
X012726Y008491D03*
X010403Y009515D03*
X009852Y008294D03*
X008002Y009830D03*
X007175Y009790D03*
X006309Y010814D03*
X006742Y011405D03*
X005207Y012271D03*
X005128Y013845D03*
X007529Y016759D03*
X008435Y013924D03*
X009813Y012704D03*
X010522Y014830D03*
X011073Y014948D03*
X010640Y019121D03*
X010049Y020420D03*
X011073Y021050D03*
X016151Y010145D03*
X006506Y008058D03*
X004577Y008216D03*
D224*
X005443Y009318D02*
X005555Y009430D01*
X005555Y009936D01*
X005555Y009430D02*
X006703Y010578D01*
X009340Y010578D01*
X009576Y010814D01*
X009576Y011524D01*
X009828Y011524D02*
X009828Y010829D01*
X009380Y010381D01*
X006781Y010381D01*
X005713Y009352D01*
X005640Y009279D01*
X005640Y008216D01*
X005758Y008097D01*
X006073Y008097D01*
X006151Y008019D01*
X006151Y007940D01*
X006033Y007822D01*
X006033Y007704D01*
X006270Y007468D01*
X006270Y006968D01*
X005856Y006554D01*
X005443Y006121D02*
X005797Y005767D01*
X005856Y005767D01*
X005443Y006121D02*
X005443Y009318D01*
X005713Y009352D02*
X006140Y009352D01*
X006466Y009121D02*
X006151Y008806D01*
X006151Y008452D01*
X006506Y008097D01*
X006506Y008058D01*
X006466Y009121D02*
X006466Y009678D01*
X006613Y009825D01*
X006613Y009898D01*
X006899Y010184D01*
X009498Y010184D01*
X009813Y010499D01*
X010080Y010137D02*
X008683Y008739D01*
X008683Y009149D01*
X008666Y009149D01*
X008683Y008739D02*
X008356Y008412D01*
X008356Y006160D01*
X008750Y005767D01*
X008809Y005767D01*
X008809Y006554D02*
X009057Y006554D01*
X009301Y006798D01*
X009301Y007546D01*
X009104Y007743D01*
X008671Y007743D01*
X008553Y007861D01*
X008553Y008373D01*
X008744Y008564D01*
X009250Y008564D01*
X009723Y009038D02*
X009723Y009307D01*
X010010Y009594D01*
X010423Y009987D01*
X010423Y010696D01*
X010246Y010814D02*
X010332Y010900D01*
X010332Y011524D01*
X010584Y011524D02*
X010584Y010043D01*
X011309Y009318D01*
X011309Y008097D01*
X010974Y008432D01*
X011309Y008097D02*
X011309Y006160D01*
X011703Y005767D01*
X011762Y005767D01*
X011762Y006554D02*
X012088Y006554D01*
X012175Y006641D01*
X012175Y007664D01*
X012136Y007704D01*
X012018Y007704D01*
X011978Y007743D01*
X011978Y007901D01*
X011939Y007940D01*
X011545Y007940D01*
X011506Y007979D01*
X011506Y008137D01*
X011762Y008432D01*
X011801Y008432D01*
X011506Y008137D02*
X011506Y009357D01*
X010758Y010105D01*
X010758Y010814D01*
X010836Y010893D01*
X010836Y011524D01*
X010836Y011524D01*
X011088Y011524D02*
X011088Y010799D01*
X011703Y010184D01*
X013907Y010184D01*
X013691Y009968D01*
X013691Y009889D01*
X013907Y010184D02*
X014183Y010184D01*
X014655Y009712D01*
X014655Y007979D01*
X014301Y007625D01*
X014301Y006160D01*
X014695Y005767D01*
X014714Y005767D01*
X014734Y006534D02*
X015494Y006534D01*
X015561Y006601D01*
X015561Y006719D01*
X015443Y006838D01*
X015325Y006838D01*
X015167Y006995D01*
X015167Y007625D01*
X014852Y007940D01*
X014852Y009751D01*
X014222Y010381D01*
X014025Y010381D01*
X013691Y010716D01*
X014025Y010381D02*
X011781Y010381D01*
X011340Y010822D01*
X011340Y011524D01*
X011592Y011524D02*
X011592Y012263D01*
X011151Y012704D01*
X009813Y012704D01*
X009324Y012326D02*
X009324Y011524D01*
X009072Y011524D02*
X009072Y012224D01*
X008907Y012389D01*
X008435Y012389D01*
X008435Y013924D01*
X008553Y014279D02*
X008238Y014279D01*
X008081Y014121D01*
X008002Y014121D01*
X007962Y014160D01*
X007962Y014397D01*
X008120Y014554D01*
X008120Y019712D01*
X008277Y019869D01*
X008710Y019042D02*
X008317Y018649D01*
X008317Y014869D01*
X009072Y014113D01*
X009072Y013650D01*
X008820Y013650D02*
X008820Y014011D01*
X008553Y014279D01*
X008907Y014830D02*
X008710Y015027D01*
X008710Y017979D01*
X009065Y018373D01*
X009872Y018373D01*
X009183Y017979D02*
X008907Y017704D01*
X008907Y015066D01*
X009576Y014397D01*
X009576Y013650D01*
X009828Y013650D02*
X009828Y014460D01*
X009262Y014987D01*
X009104Y015145D01*
X009104Y017192D01*
X009262Y017349D01*
X009380Y017468D01*
X009833Y017468D01*
X009872Y017507D01*
X010285Y016956D02*
X010620Y017290D01*
X010620Y017507D01*
X010620Y018373D01*
X010620Y019101D01*
X010640Y019121D01*
X009183Y017979D02*
X009065Y017861D01*
X009419Y016562D02*
X009419Y016345D01*
X009734Y016031D01*
X010080Y015570D02*
X010207Y015696D01*
X010207Y015991D01*
X010285Y016070D01*
X010285Y016956D01*
X011112Y016247D02*
X011112Y015696D01*
X011171Y015637D01*
X011663Y015637D01*
X011742Y015066D02*
X011230Y014554D01*
X010994Y014554D01*
X010836Y014396D01*
X010836Y013650D01*
X011088Y013650D02*
X011088Y014255D01*
X011191Y014357D01*
X011309Y014357D01*
X011821Y014869D01*
X014045Y014869D01*
X014813Y015637D01*
X014813Y015027D02*
X014340Y014554D01*
X011821Y014554D01*
X011592Y014326D01*
X011592Y013650D01*
X011340Y013650D02*
X011340Y014074D01*
X011592Y014326D01*
X011844Y014105D02*
X012096Y014357D01*
X013555Y014357D01*
X014073Y013840D01*
X013277Y014042D02*
X012175Y014042D01*
X012096Y013963D01*
X012096Y013650D01*
X012096Y013215D01*
X012018Y013137D01*
X008947Y013137D01*
X008829Y013019D01*
X008829Y012822D01*
X009324Y012326D01*
X008820Y011524D02*
X008820Y011081D01*
X008750Y011011D01*
X007569Y011011D01*
X007411Y011168D01*
X007411Y012133D01*
X007372Y012172D01*
X007372Y012920D02*
X007372Y013241D01*
X006773Y013840D01*
X005285Y012271D02*
X005207Y012271D01*
X005285Y012271D02*
X006781Y010775D01*
X009262Y010775D01*
X009043Y009830D02*
X008002Y009830D01*
X009043Y009830D02*
X009194Y009678D01*
X009723Y009038D02*
X009852Y008909D01*
X009852Y008294D01*
X010403Y009515D02*
X010640Y009515D01*
X010974Y009180D01*
X011801Y009101D02*
X012411Y008491D01*
X012726Y008491D01*
X012923Y009436D02*
X012923Y009869D01*
X012943Y009889D01*
X013022Y010716D02*
X013041Y010735D01*
X013041Y011286D01*
X012529Y011286D01*
X012333Y011090D01*
X012214Y011090D01*
X012096Y011208D01*
X012096Y011524D01*
X011844Y011524D02*
X011844Y012294D01*
X012254Y012625D01*
X013041Y011838D02*
X013041Y011286D01*
X010576Y013650D02*
X010576Y014451D01*
X011073Y014948D01*
X010522Y014830D02*
X010332Y014640D01*
X010332Y013650D01*
X010080Y013650D02*
X010080Y015302D01*
X010061Y015282D01*
X009734Y015282D01*
X010080Y015302D02*
X010080Y015570D01*
X008907Y014830D02*
X009324Y014373D01*
X009324Y013650D01*
X010080Y011524D02*
X010080Y010137D01*
X010246Y010066D02*
X010246Y010814D01*
X010246Y010066D02*
X008744Y008564D01*
X006309Y010690D02*
X006309Y010814D01*
X006309Y010690D02*
X006084Y010465D01*
X011663Y016385D02*
X011663Y016956D01*
X011781Y017074D01*
X012569Y017192D02*
X012569Y016916D01*
X012569Y017192D02*
X012687Y017310D01*
X014104Y017310D01*
X014459Y016956D01*
X014813Y016601D01*
X014813Y016385D01*
X016033Y015027D02*
X016270Y015027D01*
X016033Y014633D02*
X015955Y014554D01*
X013317Y016464D02*
X013238Y016385D01*
X013317Y016464D02*
X013317Y016916D01*
X013238Y015637D02*
X013238Y015145D01*
X013159Y015066D01*
X011742Y015066D01*
X006230Y018845D02*
X006151Y018767D01*
X005167Y018294D02*
X004852Y018294D01*
X014714Y006554D02*
X014734Y006534D01*
D225*
X014073Y008640D02*
X014222Y008790D01*
X014222Y009672D01*
X014222Y011168D02*
X015522Y012468D01*
X014073Y012318D02*
X014065Y012310D01*
X014073Y012318D02*
X014073Y013840D01*
X016033Y017113D02*
X016270Y017113D01*
X010777Y016621D02*
X010640Y016759D01*
X010600Y016759D01*
X007529Y016759D02*
X007451Y016680D01*
X007529Y016759D02*
X005994Y015223D01*
X005994Y012153D01*
X006742Y011405D01*
X007175Y009790D02*
X006773Y009388D01*
X006773Y008640D01*
X006270Y017625D02*
X006151Y017743D01*
X006151Y018767D01*
X006151Y020538D01*
X005555Y020542D02*
X005555Y020662D01*
X005285Y020932D01*
X005285Y021532D01*
X005383Y021434D01*
X006112Y021434D01*
X005285Y021532D02*
X005259Y021558D01*
X003825Y021558D01*
M02*
