G75*
%MOIN*%
%OFA0B0*%
%FSLAX25Y25*%
%IPPOS*%
%LPD*%
%AMOC8*
5,1,8,0,0,1.08239X$1,22.5*
%
%ADD10C,0.01600*%
%ADD11C,0.00000*%
%ADD12R,0.01378X0.05906*%
%ADD13R,0.05906X0.05118*%
%ADD14R,0.05118X0.05906*%
%ADD15R,0.04600X0.06300*%
%ADD16R,0.06300X0.04600*%
%ADD17R,0.04724X0.02362*%
D10*
X0022538Y0040030D02*
X0183955Y0040030D01*
X0183955Y0236880D01*
X0039073Y0236880D01*
X0022538Y0220344D01*
X0022538Y0040030D01*
D11*
X0036317Y0227037D02*
X0036319Y0227149D01*
X0036325Y0227260D01*
X0036335Y0227372D01*
X0036349Y0227483D01*
X0036366Y0227593D01*
X0036388Y0227703D01*
X0036414Y0227812D01*
X0036443Y0227920D01*
X0036476Y0228026D01*
X0036513Y0228132D01*
X0036554Y0228236D01*
X0036599Y0228339D01*
X0036647Y0228440D01*
X0036698Y0228539D01*
X0036753Y0228636D01*
X0036812Y0228731D01*
X0036873Y0228825D01*
X0036938Y0228916D01*
X0037007Y0229004D01*
X0037078Y0229090D01*
X0037152Y0229174D01*
X0037230Y0229254D01*
X0037310Y0229332D01*
X0037393Y0229408D01*
X0037478Y0229480D01*
X0037566Y0229549D01*
X0037656Y0229615D01*
X0037749Y0229677D01*
X0037844Y0229737D01*
X0037941Y0229793D01*
X0038039Y0229845D01*
X0038140Y0229894D01*
X0038242Y0229939D01*
X0038346Y0229981D01*
X0038451Y0230019D01*
X0038558Y0230053D01*
X0038665Y0230083D01*
X0038774Y0230110D01*
X0038883Y0230132D01*
X0038994Y0230151D01*
X0039104Y0230166D01*
X0039216Y0230177D01*
X0039327Y0230184D01*
X0039439Y0230187D01*
X0039551Y0230186D01*
X0039663Y0230181D01*
X0039774Y0230172D01*
X0039885Y0230159D01*
X0039996Y0230142D01*
X0040106Y0230122D01*
X0040215Y0230097D01*
X0040323Y0230069D01*
X0040430Y0230036D01*
X0040536Y0230000D01*
X0040640Y0229960D01*
X0040743Y0229917D01*
X0040845Y0229870D01*
X0040944Y0229819D01*
X0041042Y0229765D01*
X0041138Y0229707D01*
X0041232Y0229646D01*
X0041323Y0229582D01*
X0041412Y0229515D01*
X0041499Y0229444D01*
X0041583Y0229370D01*
X0041665Y0229294D01*
X0041743Y0229214D01*
X0041819Y0229132D01*
X0041892Y0229047D01*
X0041962Y0228960D01*
X0042028Y0228870D01*
X0042092Y0228778D01*
X0042152Y0228684D01*
X0042209Y0228588D01*
X0042262Y0228489D01*
X0042312Y0228389D01*
X0042358Y0228288D01*
X0042401Y0228184D01*
X0042440Y0228079D01*
X0042475Y0227973D01*
X0042506Y0227866D01*
X0042534Y0227757D01*
X0042557Y0227648D01*
X0042577Y0227538D01*
X0042593Y0227427D01*
X0042605Y0227316D01*
X0042613Y0227205D01*
X0042617Y0227093D01*
X0042617Y0226981D01*
X0042613Y0226869D01*
X0042605Y0226758D01*
X0042593Y0226647D01*
X0042577Y0226536D01*
X0042557Y0226426D01*
X0042534Y0226317D01*
X0042506Y0226208D01*
X0042475Y0226101D01*
X0042440Y0225995D01*
X0042401Y0225890D01*
X0042358Y0225786D01*
X0042312Y0225685D01*
X0042262Y0225585D01*
X0042209Y0225486D01*
X0042152Y0225390D01*
X0042092Y0225296D01*
X0042028Y0225204D01*
X0041962Y0225114D01*
X0041892Y0225027D01*
X0041819Y0224942D01*
X0041743Y0224860D01*
X0041665Y0224780D01*
X0041583Y0224704D01*
X0041499Y0224630D01*
X0041412Y0224559D01*
X0041323Y0224492D01*
X0041232Y0224428D01*
X0041138Y0224367D01*
X0041042Y0224309D01*
X0040944Y0224255D01*
X0040845Y0224204D01*
X0040743Y0224157D01*
X0040640Y0224114D01*
X0040536Y0224074D01*
X0040430Y0224038D01*
X0040323Y0224005D01*
X0040215Y0223977D01*
X0040106Y0223952D01*
X0039996Y0223932D01*
X0039885Y0223915D01*
X0039774Y0223902D01*
X0039663Y0223893D01*
X0039551Y0223888D01*
X0039439Y0223887D01*
X0039327Y0223890D01*
X0039216Y0223897D01*
X0039104Y0223908D01*
X0038994Y0223923D01*
X0038883Y0223942D01*
X0038774Y0223964D01*
X0038665Y0223991D01*
X0038558Y0224021D01*
X0038451Y0224055D01*
X0038346Y0224093D01*
X0038242Y0224135D01*
X0038140Y0224180D01*
X0038039Y0224229D01*
X0037941Y0224281D01*
X0037844Y0224337D01*
X0037749Y0224397D01*
X0037656Y0224459D01*
X0037566Y0224525D01*
X0037478Y0224594D01*
X0037393Y0224666D01*
X0037310Y0224742D01*
X0037230Y0224820D01*
X0037152Y0224900D01*
X0037078Y0224984D01*
X0037007Y0225070D01*
X0036938Y0225158D01*
X0036873Y0225249D01*
X0036812Y0225343D01*
X0036753Y0225438D01*
X0036698Y0225535D01*
X0036647Y0225634D01*
X0036599Y0225735D01*
X0036554Y0225838D01*
X0036513Y0225942D01*
X0036476Y0226048D01*
X0036443Y0226154D01*
X0036414Y0226262D01*
X0036388Y0226371D01*
X0036366Y0226481D01*
X0036349Y0226591D01*
X0036335Y0226702D01*
X0036325Y0226814D01*
X0036319Y0226925D01*
X0036317Y0227037D01*
D12*
X0088205Y0136498D03*
X0090724Y0136498D03*
X0093244Y0136498D03*
X0095764Y0136498D03*
X0098283Y0136498D03*
X0100803Y0136498D03*
X0103323Y0136498D03*
X0105764Y0136498D03*
X0108362Y0136498D03*
X0110882Y0136498D03*
X0113401Y0136498D03*
X0115921Y0136498D03*
X0118441Y0136498D03*
X0120960Y0136498D03*
X0120960Y0115239D03*
X0118441Y0115239D03*
X0115921Y0115239D03*
X0113401Y0115239D03*
X0110882Y0115239D03*
X0108362Y0115239D03*
X0105842Y0115239D03*
X0103323Y0115239D03*
X0100803Y0115239D03*
X0098283Y0115239D03*
X0095764Y0115239D03*
X0093244Y0115239D03*
X0090724Y0115239D03*
X0088205Y0115239D03*
D13*
X0073719Y0121722D03*
X0073719Y0129203D03*
X0097341Y0152825D03*
X0097341Y0160305D03*
X0116633Y0163848D03*
X0116633Y0156368D03*
X0132381Y0156368D03*
X0132381Y0163848D03*
X0148129Y0163848D03*
X0148129Y0156368D03*
D14*
X0106199Y0175069D03*
X0106199Y0183730D03*
X0098719Y0183730D03*
X0098719Y0175069D03*
D15*
X0067514Y0205384D03*
X0061514Y0205384D03*
X0055514Y0205384D03*
X0129924Y0177825D03*
X0135924Y0177825D03*
X0141924Y0177825D03*
D16*
X0061121Y0214344D03*
X0061121Y0220344D03*
X0061121Y0226344D03*
D17*
X0067026Y0063848D03*
X0067026Y0060108D03*
X0067026Y0056368D03*
X0076081Y0056368D03*
X0076081Y0060108D03*
X0076081Y0063848D03*
X0128050Y0064636D03*
X0128050Y0060896D03*
X0128050Y0057156D03*
X0137105Y0057156D03*
X0137105Y0060896D03*
X0137105Y0064636D03*
M02*
