G75*
%MOIN*%
%OFA0B0*%
%FSLAX25Y25*%
%IPPOS*%
%LPD*%
%AMOC8*
5,1,8,0,0,1.08239X$1,22.5*
%
%ADD10C,0.01600*%
%ADD11C,0.00000*%
%ADD12C,0.05400*%
%ADD13OC8,0.05400*%
%ADD14OC8,0.12500*%
%ADD15C,0.04724*%
%ADD16R,0.10630X0.05906*%
%ADD17R,0.10630X0.06299*%
%ADD18R,0.04724X0.04724*%
%ADD19R,0.20000X0.07000*%
%ADD20C,0.05315*%
%ADD21C,0.08858*%
%ADD22R,0.01575X0.05315*%
%ADD23R,0.05906X0.07480*%
%ADD24C,0.06791*%
%ADD25C,0.05020*%
%ADD26R,0.04213X0.00039*%
%ADD27R,0.04646X0.00039*%
%ADD28R,0.04921X0.00039*%
%ADD29R,0.05157X0.00039*%
%ADD30R,0.05315X0.00039*%
%ADD31R,0.05472X0.00039*%
%ADD32R,0.05630X0.00039*%
%ADD33R,0.05748X0.00039*%
%ADD34R,0.05866X0.00039*%
%ADD35R,0.05984X0.00039*%
%ADD36R,0.06102X0.00039*%
%ADD37R,0.06181X0.00039*%
%ADD38R,0.06260X0.00039*%
%ADD39R,0.06378X0.00039*%
%ADD40R,0.06457X0.00039*%
%ADD41R,0.06496X0.00039*%
%ADD42R,0.06575X0.00039*%
%ADD43R,0.06654X0.00039*%
%ADD44R,0.06732X0.00039*%
%ADD45R,0.06772X0.00039*%
%ADD46R,0.06850X0.00039*%
%ADD47R,0.06890X0.00039*%
%ADD48R,0.06929X0.00039*%
%ADD49R,0.07008X0.00039*%
%ADD50R,0.07047X0.00039*%
%ADD51R,0.07087X0.00039*%
%ADD52R,0.07165X0.00039*%
%ADD53R,0.07205X0.00039*%
%ADD54R,0.07244X0.00039*%
%ADD55R,0.07283X0.00039*%
%ADD56R,0.07323X0.00039*%
%ADD57R,0.07362X0.00039*%
%ADD58R,0.07402X0.00039*%
%ADD59R,0.07441X0.00039*%
%ADD60R,0.07480X0.00039*%
%ADD61R,0.07520X0.00039*%
%ADD62R,0.07559X0.00039*%
%ADD63R,0.07598X0.00039*%
%ADD64R,0.07638X0.00039*%
%ADD65R,0.07677X0.00039*%
%ADD66R,0.07717X0.00039*%
%ADD67R,0.07756X0.00039*%
%ADD68R,0.07795X0.00039*%
%ADD69R,0.07835X0.00039*%
%ADD70R,0.07874X0.00039*%
%ADD71R,0.07913X0.00039*%
%ADD72R,0.07953X0.00039*%
%ADD73R,0.07992X0.00039*%
%ADD74R,0.08031X0.00039*%
%ADD75R,0.08071X0.00039*%
%ADD76R,0.08110X0.00039*%
%ADD77R,0.08150X0.00039*%
%ADD78R,0.08189X0.00039*%
%ADD79R,0.08228X0.00039*%
%ADD80R,0.08268X0.00039*%
%ADD81R,0.08307X0.00039*%
%ADD82R,0.08346X0.00039*%
%ADD83R,0.08386X0.00039*%
%ADD84R,0.09094X0.00039*%
%ADD85R,0.09370X0.00039*%
%ADD86R,0.09528X0.00039*%
%ADD87R,0.09606X0.00039*%
%ADD88R,0.09685X0.00039*%
%ADD89R,0.09764X0.00039*%
%ADD90R,0.09803X0.00039*%
%ADD91R,0.09843X0.00039*%
%ADD92R,0.09646X0.00039*%
%ADD93R,0.09567X0.00039*%
%ADD94R,0.09449X0.00039*%
%ADD95R,0.09213X0.00039*%
%ADD96R,0.02323X0.00039*%
%ADD97R,0.05551X0.00039*%
%ADD98R,0.02244X0.00039*%
%ADD99R,0.05433X0.00039*%
%ADD100R,0.05394X0.00039*%
%ADD101R,0.02205X0.00039*%
%ADD102R,0.05354X0.00039*%
%ADD103R,0.05276X0.00039*%
%ADD104R,0.05197X0.00039*%
%ADD105R,0.05118X0.00039*%
%ADD106R,0.05000X0.00039*%
%ADD107R,0.04882X0.00039*%
%ADD108R,0.04843X0.00039*%
%ADD109R,0.04764X0.00039*%
%ADD110R,0.04488X0.00039*%
%ADD111R,0.03701X0.00039*%
%ADD112R,0.00433X0.00039*%
%ADD113R,0.02283X0.00039*%
%ADD114R,0.03583X0.00039*%
%ADD115R,0.03504X0.00039*%
%ADD116R,0.03425X0.00039*%
%ADD117R,0.03307X0.00039*%
%ADD118R,0.03189X0.00039*%
%ADD119R,0.03110X0.00039*%
%ADD120R,0.03071X0.00039*%
%ADD121R,0.03031X0.00039*%
%ADD122R,0.00630X0.00039*%
%ADD123R,0.01299X0.00039*%
%ADD124R,0.04449X0.00039*%
%ADD125R,0.04370X0.00039*%
%ADD126R,0.04331X0.00039*%
%ADD127R,0.03622X0.00039*%
%ADD128R,0.00472X0.00039*%
%ADD129R,0.03543X0.00039*%
%ADD130R,0.00315X0.00039*%
%ADD131R,0.03465X0.00039*%
%ADD132R,0.03386X0.00039*%
%ADD133R,0.00551X0.00039*%
%ADD134R,0.01772X0.00039*%
%ADD135R,0.00354X0.00039*%
%ADD136R,0.01614X0.00039*%
%ADD137R,0.00512X0.00039*%
%ADD138R,0.01417X0.00039*%
%ADD139R,0.01181X0.00039*%
%ADD140R,0.00906X0.00039*%
%ADD141R,0.00236X0.00039*%
%ADD142R,0.00197X0.00039*%
%ADD143R,0.00079X0.00039*%
%ADD144R,0.00039X0.00039*%
%ADD145R,0.00118X0.00039*%
%ADD146R,0.00276X0.00039*%
%ADD147R,0.00591X0.00039*%
%ADD148R,0.00669X0.00039*%
%ADD149R,0.00748X0.00039*%
%ADD150R,0.00827X0.00039*%
%ADD151R,0.00984X0.00039*%
%ADD152R,0.01063X0.00039*%
%ADD153R,0.01142X0.00039*%
%ADD154R,0.01220X0.00039*%
%ADD155R,0.01378X0.00039*%
%ADD156R,0.01457X0.00039*%
%ADD157R,0.01535X0.00039*%
%ADD158R,0.01654X0.00039*%
%ADD159R,0.01693X0.00039*%
%ADD160R,0.01850X0.00039*%
%ADD161R,0.01890X0.00039*%
%ADD162R,0.01929X0.00039*%
%ADD163R,0.02008X0.00039*%
%ADD164R,0.02087X0.00039*%
%ADD165R,0.02126X0.00039*%
%ADD166R,0.02165X0.00039*%
%ADD167R,0.02362X0.00039*%
%ADD168R,0.02402X0.00039*%
%ADD169R,0.02480X0.00039*%
%ADD170R,0.02559X0.00039*%
%ADD171R,0.02638X0.00039*%
%ADD172R,0.02717X0.00039*%
%ADD173R,0.02795X0.00039*%
%ADD174R,0.02874X0.00039*%
%ADD175R,0.02953X0.00039*%
%ADD176R,0.02992X0.00039*%
%ADD177R,0.01260X0.00039*%
%ADD178R,0.01575X0.00039*%
%ADD179R,0.01339X0.00039*%
%ADD180R,0.01732X0.00039*%
%ADD181R,0.03661X0.00039*%
%ADD182R,0.03740X0.00039*%
%ADD183R,0.03819X0.00039*%
%ADD184R,0.03898X0.00039*%
%ADD185R,0.03937X0.00039*%
%ADD186R,0.03976X0.00039*%
%ADD187R,0.04055X0.00039*%
%ADD188R,0.04094X0.00039*%
%ADD189R,0.04173X0.00039*%
%ADD190R,0.04291X0.00039*%
%ADD191R,0.04409X0.00039*%
%ADD192R,0.04528X0.00039*%
%ADD193R,0.04567X0.00039*%
%ADD194R,0.04685X0.00039*%
%ADD195R,0.04803X0.00039*%
%ADD196R,0.05039X0.00039*%
%ADD197R,0.05079X0.00039*%
%ADD198R,0.05512X0.00039*%
%ADD199R,0.05669X0.00039*%
%ADD200R,0.05787X0.00039*%
%ADD201R,0.04134X0.00039*%
%ADD202R,0.04252X0.00039*%
%ADD203R,0.01811X0.00039*%
%ADD204R,0.06339X0.00039*%
%ADD205R,0.06535X0.00039*%
%ADD206R,0.06614X0.00039*%
%ADD207R,0.06693X0.00039*%
%ADD208R,0.06969X0.00039*%
%ADD209R,0.02441X0.00039*%
%ADD210R,0.02520X0.00039*%
%ADD211R,0.04606X0.00039*%
%ADD212R,0.00945X0.00039*%
%ADD213R,0.06220X0.00039*%
%ADD214R,0.01024X0.00039*%
%ADD215R,0.06299X0.00039*%
%ADD216R,0.06142X0.00039*%
%ADD217R,0.05827X0.00039*%
%ADD218R,0.03268X0.00039*%
%ADD219R,0.09449X0.09449*%
%ADD220R,0.05906X0.05118*%
%ADD221R,0.04724X0.02362*%
%ADD222C,0.03200*%
%ADD223C,0.02400*%
%ADD224C,0.01000*%
%ADD225C,0.02400*%
%ADD226C,0.03562*%
%ADD227C,0.04000*%
D10*
X0022538Y0040030D02*
X0183955Y0040030D01*
X0183955Y0236880D01*
X0039073Y0236880D01*
X0022538Y0220344D01*
X0022538Y0040030D01*
X0026138Y0049795D02*
X0026138Y0051043D01*
X0026300Y0050881D01*
X0030194Y0050881D01*
X0032947Y0053634D01*
X0032947Y0057527D01*
X0030194Y0060281D01*
X0026300Y0060281D01*
X0026138Y0060119D01*
X0026138Y0061043D01*
X0026300Y0060881D01*
X0030194Y0060881D01*
X0032947Y0063634D01*
X0032947Y0067527D01*
X0030194Y0070281D01*
X0026300Y0070281D01*
X0026138Y0070119D01*
X0026138Y0071043D01*
X0026300Y0070881D01*
X0030194Y0070881D01*
X0032947Y0073634D01*
X0032947Y0077527D01*
X0030194Y0080281D01*
X0026300Y0080281D01*
X0026138Y0080119D01*
X0026138Y0081043D01*
X0026300Y0080881D01*
X0030194Y0080881D01*
X0032947Y0083634D01*
X0032947Y0087527D01*
X0030194Y0090281D01*
X0026300Y0090281D01*
X0026138Y0090119D01*
X0026138Y0091043D01*
X0026300Y0090881D01*
X0030194Y0090881D01*
X0032947Y0093634D01*
X0032947Y0097527D01*
X0030194Y0100281D01*
X0026300Y0100281D01*
X0026138Y0100119D01*
X0026138Y0101043D01*
X0026300Y0100881D01*
X0030194Y0100881D01*
X0032947Y0103634D01*
X0032947Y0107527D01*
X0030194Y0110281D01*
X0026300Y0110281D01*
X0026138Y0110119D01*
X0026138Y0111043D01*
X0026300Y0110881D01*
X0030194Y0110881D01*
X0032947Y0113634D01*
X0032947Y0117527D01*
X0030194Y0120281D01*
X0026300Y0120281D01*
X0026138Y0120119D01*
X0026138Y0121043D01*
X0026300Y0120881D01*
X0030194Y0120881D01*
X0032947Y0123634D01*
X0032947Y0127527D01*
X0030194Y0130281D01*
X0026300Y0130281D01*
X0026138Y0130119D01*
X0026138Y0131043D01*
X0026300Y0130881D01*
X0030194Y0130881D01*
X0032947Y0133634D01*
X0032947Y0137527D01*
X0030194Y0140281D01*
X0026300Y0140281D01*
X0026138Y0140119D01*
X0026138Y0141043D01*
X0026300Y0140881D01*
X0030194Y0140881D01*
X0032947Y0143634D01*
X0032947Y0147527D01*
X0030194Y0150281D01*
X0026300Y0150281D01*
X0026138Y0150119D01*
X0026138Y0151043D01*
X0026300Y0150881D01*
X0030194Y0150881D01*
X0032947Y0153634D01*
X0032947Y0157527D01*
X0030194Y0160281D01*
X0026300Y0160281D01*
X0026138Y0160119D01*
X0026138Y0161043D01*
X0026300Y0160881D01*
X0030194Y0160881D01*
X0032947Y0163634D01*
X0032947Y0167527D01*
X0030194Y0170281D01*
X0026300Y0170281D01*
X0026138Y0170119D01*
X0026138Y0171043D01*
X0026300Y0170881D01*
X0030194Y0170881D01*
X0032947Y0173634D01*
X0032947Y0177527D01*
X0030194Y0180281D01*
X0026300Y0180281D01*
X0026138Y0180119D01*
X0026138Y0181043D01*
X0026300Y0180881D01*
X0030194Y0180881D01*
X0032947Y0183634D01*
X0032947Y0187527D01*
X0030194Y0190281D01*
X0026300Y0190281D01*
X0026138Y0190119D01*
X0026138Y0191043D01*
X0026300Y0190881D01*
X0030194Y0190881D01*
X0032947Y0193634D01*
X0032947Y0197527D01*
X0030194Y0200281D01*
X0026300Y0200281D01*
X0026138Y0200119D01*
X0026138Y0201043D01*
X0026300Y0200881D01*
X0030194Y0200881D01*
X0032947Y0203634D01*
X0032947Y0207527D01*
X0030194Y0210281D01*
X0026300Y0210281D01*
X0026138Y0210119D01*
X0026138Y0211325D01*
X0026383Y0211081D01*
X0028147Y0211081D01*
X0028147Y0215481D01*
X0028347Y0215481D01*
X0028347Y0215681D01*
X0028147Y0215681D01*
X0028147Y0220081D01*
X0027365Y0220081D01*
X0033518Y0226233D01*
X0033518Y0225854D01*
X0034423Y0223667D01*
X0036097Y0221994D01*
X0038284Y0221088D01*
X0040651Y0221088D01*
X0042837Y0221994D01*
X0044511Y0223667D01*
X0045417Y0225854D01*
X0045417Y0228221D01*
X0044511Y0230408D01*
X0042837Y0232081D01*
X0040651Y0232987D01*
X0040272Y0232987D01*
X0040565Y0233280D01*
X0050169Y0233280D01*
X0050136Y0233235D01*
X0049838Y0232651D01*
X0049636Y0232028D01*
X0049533Y0231381D01*
X0049533Y0228691D01*
X0053695Y0228691D01*
X0053695Y0228691D01*
X0049533Y0228691D01*
X0049533Y0226001D01*
X0049636Y0225354D01*
X0049838Y0224731D01*
X0050136Y0224147D01*
X0050521Y0223617D01*
X0050984Y0223154D01*
X0051514Y0222769D01*
X0052098Y0222471D01*
X0052721Y0222269D01*
X0053368Y0222167D01*
X0053695Y0222167D01*
X0053695Y0228691D01*
X0053696Y0228691D01*
X0057858Y0228691D01*
X0057858Y0231381D01*
X0057755Y0232028D01*
X0057553Y0232651D01*
X0057255Y0233235D01*
X0057222Y0233280D01*
X0065607Y0233280D01*
X0065338Y0232910D01*
X0064967Y0232181D01*
X0064714Y0231404D01*
X0064586Y0230596D01*
X0064586Y0230519D01*
X0069450Y0230519D01*
X0069450Y0229855D01*
X0064586Y0229855D01*
X0064586Y0229778D01*
X0064714Y0228970D01*
X0064967Y0228193D01*
X0065338Y0227464D01*
X0065819Y0226802D01*
X0066397Y0226224D01*
X0067059Y0225743D01*
X0067788Y0225372D01*
X0068565Y0225119D01*
X0069373Y0224991D01*
X0069450Y0224991D01*
X0069450Y0229855D01*
X0070114Y0229855D01*
X0070114Y0224991D01*
X0070191Y0224991D01*
X0070999Y0225119D01*
X0071777Y0225372D01*
X0072505Y0225743D01*
X0073167Y0226224D01*
X0073745Y0226802D01*
X0074226Y0227464D01*
X0074597Y0228193D01*
X0074672Y0228423D01*
X0074672Y0225579D01*
X0075843Y0224407D01*
X0083406Y0224407D01*
X0083581Y0224583D01*
X0083717Y0224447D01*
X0091280Y0224447D01*
X0092451Y0225618D01*
X0092451Y0228423D01*
X0092526Y0228193D01*
X0092897Y0227464D01*
X0093378Y0226802D01*
X0093956Y0226224D01*
X0094618Y0225743D01*
X0095347Y0225372D01*
X0096125Y0225119D01*
X0096932Y0224991D01*
X0097009Y0224991D01*
X0097009Y0229855D01*
X0097673Y0229855D01*
X0097673Y0224991D01*
X0097750Y0224991D01*
X0098558Y0225119D01*
X0099336Y0225372D01*
X0100064Y0225743D01*
X0100726Y0226224D01*
X0101304Y0226802D01*
X0101333Y0226842D01*
X0101333Y0225461D01*
X0101997Y0223858D01*
X0095518Y0223858D01*
X0095959Y0223676D02*
X0094301Y0224362D01*
X0092507Y0224362D01*
X0090909Y0223700D01*
X0090296Y0224313D01*
X0079387Y0224313D01*
X0079187Y0224113D01*
X0078444Y0224113D01*
X0078444Y0223370D01*
X0078443Y0223370D01*
X0078443Y0224113D01*
X0077419Y0224113D01*
X0076961Y0223990D01*
X0076551Y0223753D01*
X0076373Y0223576D01*
X0076274Y0223676D01*
X0074616Y0224362D01*
X0072822Y0224362D01*
X0071165Y0223676D01*
X0069896Y0222407D01*
X0069209Y0220749D01*
X0069209Y0218955D01*
X0069896Y0217298D01*
X0071165Y0216029D01*
X0072822Y0215343D01*
X0074616Y0215343D01*
X0076163Y0215983D01*
X0076216Y0215893D01*
X0076551Y0215558D01*
X0076961Y0215321D01*
X0077419Y0215198D01*
X0078443Y0215198D01*
X0078443Y0215941D01*
X0078444Y0215941D01*
X0078444Y0215198D01*
X0079187Y0215198D01*
X0079387Y0214998D01*
X0081062Y0214998D01*
X0081062Y0207207D01*
X0076127Y0202272D01*
X0075747Y0201354D01*
X0075747Y0196951D01*
X0074466Y0196951D01*
X0073294Y0195779D01*
X0073294Y0192233D01*
X0073090Y0192149D01*
X0072963Y0192022D01*
X0072963Y0195779D01*
X0071792Y0196951D01*
X0065410Y0196951D01*
X0064239Y0195779D01*
X0064239Y0191760D01*
X0064463Y0191536D01*
X0064439Y0191448D01*
X0064439Y0190030D01*
X0068601Y0190030D01*
X0068601Y0190029D01*
X0064439Y0190029D01*
X0064439Y0188611D01*
X0064463Y0188523D01*
X0064239Y0188299D01*
X0064239Y0184280D01*
X0065410Y0183108D01*
X0070432Y0183108D01*
X0070432Y0177088D01*
X0066441Y0177088D01*
X0065901Y0178392D01*
X0064837Y0179455D01*
X0063448Y0180031D01*
X0061943Y0180031D01*
X0060554Y0179455D01*
X0059490Y0178392D01*
X0058914Y0177002D01*
X0058914Y0175498D01*
X0059490Y0174108D01*
X0060554Y0173045D01*
X0061943Y0172469D01*
X0061951Y0172469D01*
X0062345Y0172075D01*
X0063245Y0171175D01*
X0064421Y0170688D01*
X0073868Y0170688D01*
X0072581Y0169401D01*
X0072094Y0168225D01*
X0072094Y0166952D01*
X0072581Y0165776D01*
X0073481Y0164876D01*
X0074657Y0164389D01*
X0075930Y0164389D01*
X0077107Y0164876D01*
X0078588Y0166357D01*
X0087864Y0166357D01*
X0087864Y0164820D01*
X0094204Y0164820D01*
X0094204Y0163270D01*
X0095754Y0163270D01*
X0095754Y0159096D01*
X0100531Y0159096D01*
X0100989Y0159218D01*
X0101399Y0159455D01*
X0101665Y0159721D01*
X0101333Y0158921D01*
X0101333Y0157960D01*
X0101122Y0158171D01*
X0088836Y0158171D01*
X0087664Y0157000D01*
X0087664Y0155428D01*
X0086548Y0155428D01*
X0085519Y0155002D01*
X0084731Y0154214D01*
X0081975Y0151458D01*
X0081549Y0150429D01*
X0081549Y0140844D01*
X0081149Y0139879D01*
X0081149Y0138606D01*
X0081380Y0138049D01*
X0075387Y0138049D01*
X0074215Y0136878D01*
X0074215Y0135349D01*
X0072925Y0135349D01*
X0073264Y0135688D01*
X0073649Y0136218D01*
X0073946Y0136802D01*
X0074149Y0137425D01*
X0074251Y0138072D01*
X0074251Y0138400D01*
X0074251Y0138727D01*
X0074149Y0139374D01*
X0073946Y0139997D01*
X0073649Y0140581D01*
X0073264Y0141111D01*
X0072801Y0141574D01*
X0072271Y0141959D01*
X0071687Y0142257D01*
X0071064Y0142459D01*
X0070417Y0142562D01*
X0067727Y0142562D01*
X0065037Y0142562D01*
X0064390Y0142459D01*
X0063767Y0142257D01*
X0063183Y0141959D01*
X0062653Y0141574D01*
X0062190Y0141111D01*
X0061805Y0140581D01*
X0061508Y0139997D01*
X0061305Y0139374D01*
X0061203Y0138727D01*
X0061203Y0138400D01*
X0067727Y0138400D01*
X0067727Y0142562D01*
X0067727Y0138400D01*
X0067727Y0138400D01*
X0067727Y0138400D01*
X0074251Y0138400D01*
X0067727Y0138400D01*
X0067727Y0138400D01*
X0061203Y0138400D01*
X0061203Y0138072D01*
X0061305Y0137425D01*
X0061508Y0136802D01*
X0061805Y0136218D01*
X0062190Y0135688D01*
X0062653Y0135225D01*
X0063183Y0134840D01*
X0063767Y0134542D01*
X0064390Y0134340D01*
X0065037Y0134237D01*
X0065295Y0134237D01*
X0064829Y0133771D01*
X0064829Y0126996D01*
X0065341Y0126485D01*
X0065152Y0126157D01*
X0065029Y0125700D01*
X0065029Y0123383D01*
X0069303Y0123383D01*
X0069303Y0122424D01*
X0070262Y0122424D01*
X0070262Y0123383D01*
X0074535Y0123383D01*
X0074535Y0125700D01*
X0074412Y0126157D01*
X0074223Y0126485D01*
X0074735Y0126996D01*
X0074735Y0127701D01*
X0075387Y0127049D01*
X0090644Y0127049D01*
X0092072Y0125621D01*
X0092775Y0124918D01*
X0093694Y0124537D01*
X0096103Y0124537D01*
X0096316Y0124325D01*
X0097492Y0123837D01*
X0098765Y0123837D01*
X0099941Y0124325D01*
X0100841Y0125225D01*
X0101329Y0126401D01*
X0101329Y0127674D01*
X0100841Y0128850D01*
X0099941Y0129750D01*
X0098765Y0130237D01*
X0098215Y0130237D01*
X0098215Y0136878D01*
X0097044Y0138049D01*
X0087319Y0138049D01*
X0087549Y0138606D01*
X0087549Y0139879D01*
X0087149Y0140844D01*
X0087149Y0148712D01*
X0087664Y0149227D01*
X0087664Y0149044D01*
X0088836Y0147872D01*
X0098925Y0147872D01*
X0100873Y0145924D01*
X0101902Y0145497D01*
X0103613Y0145497D01*
X0104579Y0145097D01*
X0105852Y0145097D01*
X0107028Y0145584D01*
X0107928Y0146485D01*
X0108299Y0147381D01*
X0108914Y0146766D01*
X0110091Y0146278D01*
X0111364Y0146278D01*
X0112540Y0146766D01*
X0113440Y0147666D01*
X0113927Y0148842D01*
X0113927Y0149143D01*
X0117085Y0152300D01*
X0117773Y0151612D01*
X0124154Y0151612D01*
X0124900Y0152359D01*
X0125647Y0151612D01*
X0132028Y0151612D01*
X0132774Y0152359D01*
X0133521Y0151612D01*
X0139902Y0151612D01*
X0140648Y0152359D01*
X0141395Y0151612D01*
X0144594Y0151612D01*
X0144348Y0151018D01*
X0144348Y0149514D01*
X0144923Y0148124D01*
X0145987Y0147060D01*
X0146325Y0146920D01*
X0146325Y0146073D01*
X0135427Y0146073D01*
X0134508Y0145692D01*
X0133804Y0144989D01*
X0133020Y0144204D01*
X0132022Y0144204D01*
X0130632Y0143629D01*
X0129569Y0142565D01*
X0128993Y0141175D01*
X0128993Y0139671D01*
X0129569Y0138281D01*
X0129801Y0138049D01*
X0113387Y0138049D01*
X0112215Y0136878D01*
X0112215Y0128221D01*
X0113387Y0127049D01*
X0119405Y0127049D01*
X0119338Y0126887D01*
X0119338Y0125613D01*
X0119825Y0124437D01*
X0120725Y0123537D01*
X0121902Y0123050D01*
X0123175Y0123050D01*
X0124351Y0123537D01*
X0125251Y0124437D01*
X0125738Y0125613D01*
X0125738Y0126887D01*
X0125671Y0127049D01*
X0134908Y0127049D01*
X0134908Y0126996D01*
X0135420Y0126485D01*
X0135231Y0126157D01*
X0135108Y0125700D01*
X0135108Y0123383D01*
X0139381Y0123383D01*
X0139381Y0122424D01*
X0135108Y0122424D01*
X0135108Y0120108D01*
X0135231Y0119650D01*
X0135468Y0119239D01*
X0135803Y0118904D01*
X0136213Y0118667D01*
X0136671Y0118544D01*
X0139381Y0118544D01*
X0139381Y0122424D01*
X0140340Y0122424D01*
X0140340Y0118544D01*
X0143051Y0118544D01*
X0143508Y0118667D01*
X0143919Y0118904D01*
X0144254Y0119239D01*
X0144491Y0119650D01*
X0144614Y0120108D01*
X0144614Y0122424D01*
X0140340Y0122424D01*
X0140340Y0123383D01*
X0144614Y0123383D01*
X0144614Y0125700D01*
X0144491Y0126157D01*
X0144302Y0126485D01*
X0144814Y0126996D01*
X0144814Y0133771D01*
X0144201Y0134384D01*
X0144687Y0134542D01*
X0145271Y0134840D01*
X0145801Y0135225D01*
X0146264Y0135688D01*
X0146573Y0136114D01*
X0146525Y0135936D01*
X0146525Y0133324D01*
X0152866Y0133324D01*
X0152866Y0137499D01*
X0148088Y0137499D01*
X0147631Y0137376D01*
X0147220Y0137139D01*
X0146977Y0136896D01*
X0147149Y0137425D01*
X0147251Y0138072D01*
X0147251Y0138400D01*
X0147251Y0138669D01*
X0147497Y0138423D01*
X0159784Y0138423D01*
X0160955Y0139595D01*
X0160955Y0146894D01*
X0161943Y0146485D01*
X0163448Y0146485D01*
X0163547Y0146526D01*
X0163547Y0143634D01*
X0166300Y0140881D01*
X0170194Y0140881D01*
X0172947Y0143634D01*
X0172947Y0147527D01*
X0170194Y0150281D01*
X0166477Y0150281D01*
X0166477Y0150881D01*
X0170194Y0150881D01*
X0172947Y0153634D01*
X0172947Y0157527D01*
X0170194Y0160281D01*
X0166300Y0160281D01*
X0163547Y0157527D01*
X0163547Y0154006D01*
X0163448Y0154047D01*
X0161943Y0154047D01*
X0160554Y0153471D01*
X0159848Y0152766D01*
X0156803Y0152766D01*
X0156822Y0152784D01*
X0156822Y0159165D01*
X0155878Y0160108D01*
X0156822Y0161051D01*
X0156822Y0167433D01*
X0155650Y0168604D01*
X0154959Y0168604D01*
X0154959Y0169267D01*
X0154579Y0170186D01*
X0153297Y0171467D01*
X0153297Y0171768D01*
X0152810Y0172945D01*
X0151910Y0173845D01*
X0150734Y0174332D01*
X0149461Y0174332D01*
X0149341Y0174282D01*
X0149341Y0184559D01*
X0148170Y0185730D01*
X0140984Y0185730D01*
X0130469Y0196245D01*
X0130469Y0200466D01*
X0134305Y0204302D01*
X0134305Y0200102D01*
X0134731Y0199073D01*
X0139849Y0193955D01*
X0140637Y0193168D01*
X0141666Y0192741D01*
X0152087Y0192741D01*
X0152415Y0192413D01*
X0152415Y0180338D01*
X0152109Y0180031D01*
X0151622Y0178855D01*
X0151622Y0177582D01*
X0152109Y0176406D01*
X0153009Y0175506D01*
X0154185Y0175019D01*
X0155458Y0175019D01*
X0156634Y0175506D01*
X0157534Y0176406D01*
X0158022Y0177582D01*
X0158022Y0178855D01*
X0158015Y0178870D01*
X0158015Y0194130D01*
X0157589Y0195159D01*
X0156801Y0195947D01*
X0154833Y0197915D01*
X0153804Y0198341D01*
X0143383Y0198341D01*
X0139905Y0201819D01*
X0139905Y0203798D01*
X0143219Y0200483D01*
X0146054Y0200483D01*
X0146054Y0208033D01*
X0147054Y0208033D01*
X0147054Y0200483D01*
X0149888Y0200483D01*
X0154604Y0205199D01*
X0154604Y0208033D01*
X0147054Y0208033D01*
X0147054Y0209033D01*
X0154604Y0209033D01*
X0154604Y0211868D01*
X0149888Y0216583D01*
X0149663Y0216583D01*
X0150377Y0217298D01*
X0151064Y0218955D01*
X0151064Y0220749D01*
X0150377Y0222407D01*
X0149108Y0223676D01*
X0147451Y0224362D01*
X0145657Y0224362D01*
X0144058Y0223700D01*
X0143445Y0224313D01*
X0132536Y0224313D01*
X0132336Y0224113D01*
X0131593Y0224113D01*
X0130569Y0224113D01*
X0130111Y0223990D01*
X0129701Y0223753D01*
X0129523Y0223576D01*
X0129423Y0223676D01*
X0127766Y0224362D01*
X0125972Y0224362D01*
X0124314Y0223676D01*
X0123045Y0222407D01*
X0122359Y0220749D01*
X0122359Y0218955D01*
X0123045Y0217298D01*
X0123560Y0216783D01*
X0123452Y0216783D01*
X0118619Y0211951D01*
X0118619Y0205116D01*
X0123269Y0200466D01*
X0123269Y0194038D01*
X0123817Y0192715D01*
X0130801Y0185730D01*
X0119741Y0185730D01*
X0118570Y0184559D01*
X0118570Y0182606D01*
X0115523Y0182606D01*
X0114200Y0182058D01*
X0112006Y0179864D01*
X0111458Y0178541D01*
X0111458Y0177145D01*
X0111171Y0177837D01*
X0111171Y0190272D01*
X0110684Y0191448D01*
X0109784Y0192349D01*
X0109784Y0192349D01*
X0109109Y0193023D01*
X0109109Y0193023D01*
X0108209Y0193923D01*
X0107033Y0194411D01*
X0105760Y0194411D01*
X0104584Y0193923D01*
X0103683Y0193023D01*
X0103196Y0191847D01*
X0103196Y0190574D01*
X0103683Y0189398D01*
X0104584Y0188498D01*
X0104771Y0188310D01*
X0104771Y0177182D01*
X0104677Y0177088D01*
X0093649Y0177088D01*
X0094542Y0177981D01*
X0095029Y0179157D01*
X0095029Y0179458D01*
X0095524Y0179952D01*
X0095904Y0180871D01*
X0095904Y0194070D01*
X0095524Y0194989D01*
X0094820Y0195692D01*
X0091180Y0199333D01*
X0091180Y0215882D01*
X0091187Y0215889D01*
X0092507Y0215343D01*
X0094301Y0215343D01*
X0095959Y0216029D01*
X0097227Y0217298D01*
X0097914Y0218955D01*
X0097914Y0220749D01*
X0097227Y0222407D01*
X0095959Y0223676D01*
X0097288Y0222260D02*
X0104120Y0222260D01*
X0104828Y0221967D02*
X0103225Y0222631D01*
X0101997Y0223858D01*
X0101335Y0225457D02*
X0099502Y0225457D01*
X0097673Y0225457D02*
X0097009Y0225457D01*
X0097009Y0227055D02*
X0097673Y0227055D01*
X0097673Y0228654D02*
X0097009Y0228654D01*
X0095180Y0225457D02*
X0092290Y0225457D01*
X0092451Y0227055D02*
X0093194Y0227055D01*
X0091291Y0223858D02*
X0090750Y0223858D01*
X0092451Y0231951D02*
X0092451Y0233280D01*
X0093166Y0233280D01*
X0092897Y0232910D01*
X0092526Y0232181D01*
X0092451Y0231951D01*
X0101516Y0233280D02*
X0101758Y0232947D01*
X0101896Y0233280D01*
X0101516Y0233280D01*
X0109495Y0233280D02*
X0110058Y0231921D01*
X0110058Y0225461D01*
X0109394Y0223858D01*
X0124755Y0223858D01*
X0124148Y0225119D02*
X0124926Y0225372D01*
X0125655Y0225743D01*
X0126316Y0226224D01*
X0126895Y0226802D01*
X0127375Y0227464D01*
X0127747Y0228193D01*
X0127822Y0228423D01*
X0127822Y0225579D01*
X0128993Y0224407D01*
X0136555Y0224407D01*
X0136731Y0224583D01*
X0136867Y0224447D01*
X0144429Y0224447D01*
X0145601Y0225618D01*
X0145601Y0228423D01*
X0145676Y0228193D01*
X0146047Y0227464D01*
X0146528Y0226802D01*
X0147106Y0226224D01*
X0147768Y0225743D01*
X0148496Y0225372D01*
X0149274Y0225119D01*
X0150082Y0224991D01*
X0150159Y0224991D01*
X0150159Y0229855D01*
X0150823Y0229855D01*
X0150823Y0230519D01*
X0155686Y0230519D01*
X0155686Y0230596D01*
X0155559Y0231404D01*
X0155306Y0232181D01*
X0154935Y0232910D01*
X0154666Y0233280D01*
X0165558Y0233280D01*
X0165558Y0233197D01*
X0165636Y0233118D01*
X0165636Y0233079D01*
X0165755Y0232961D01*
X0165755Y0232922D01*
X0165873Y0232803D01*
X0165873Y0232764D01*
X0165991Y0232646D01*
X0165991Y0232607D01*
X0166070Y0232528D01*
X0166109Y0232488D01*
X0166109Y0232449D01*
X0166188Y0232370D01*
X0166188Y0232331D01*
X0166306Y0232213D01*
X0166306Y0232174D01*
X0166424Y0232055D01*
X0166424Y0232016D01*
X0166542Y0231898D01*
X0166542Y0231859D01*
X0166660Y0231740D01*
X0166660Y0231701D01*
X0166778Y0231583D01*
X0166778Y0231544D01*
X0166857Y0231465D01*
X0166857Y0231426D01*
X0166896Y0231386D01*
X0166975Y0231307D01*
X0166975Y0231268D01*
X0167093Y0231150D01*
X0167093Y0231111D01*
X0167211Y0230992D01*
X0167211Y0230953D01*
X0167329Y0230835D01*
X0167329Y0230796D01*
X0167408Y0230717D01*
X0167408Y0230677D01*
X0167526Y0230559D01*
X0167526Y0230520D01*
X0167644Y0230402D01*
X0167644Y0230363D01*
X0167762Y0230244D01*
X0167762Y0230205D01*
X0167881Y0230087D01*
X0167881Y0230048D01*
X0167959Y0229969D01*
X0167959Y0229929D01*
X0168077Y0229811D01*
X0168077Y0229772D01*
X0168196Y0229654D01*
X0168196Y0229614D01*
X0168202Y0229608D01*
X0167595Y0229608D01*
X0167556Y0229569D01*
X0167438Y0229569D01*
X0167399Y0229530D01*
X0167320Y0229530D01*
X0167280Y0229490D01*
X0167241Y0229490D01*
X0167202Y0229451D01*
X0167162Y0229451D01*
X0167084Y0229372D01*
X0167044Y0229372D01*
X0166926Y0229254D01*
X0165755Y0228082D01*
X0165715Y0228043D01*
X0165676Y0228004D01*
X0165636Y0227964D01*
X0165636Y0227925D01*
X0165597Y0227886D01*
X0165558Y0227846D01*
X0165558Y0227807D01*
X0165518Y0227767D01*
X0165518Y0227728D01*
X0165479Y0227689D01*
X0165479Y0227649D01*
X0164573Y0226744D01*
X0164534Y0226704D01*
X0164534Y0226665D01*
X0164495Y0226626D01*
X0164495Y0226586D01*
X0164455Y0226547D01*
X0164455Y0224300D01*
X0164495Y0224260D01*
X0164495Y0224221D01*
X0165282Y0223433D01*
X0165282Y0223394D01*
X0165322Y0223355D01*
X0165322Y0223237D01*
X0165361Y0223197D01*
X0165361Y0223118D01*
X0165400Y0223079D01*
X0165400Y0223000D01*
X0165440Y0222961D01*
X0165440Y0222882D01*
X0165479Y0222843D01*
X0165479Y0222764D01*
X0165518Y0222725D01*
X0165518Y0222685D01*
X0165558Y0222646D01*
X0165558Y0222567D01*
X0165597Y0222528D01*
X0165597Y0222488D01*
X0165636Y0222449D01*
X0165636Y0222410D01*
X0165676Y0222370D01*
X0165676Y0222331D01*
X0165715Y0222292D01*
X0165715Y0222252D01*
X0165755Y0222213D01*
X0165755Y0222174D01*
X0165833Y0222095D01*
X0165833Y0222055D01*
X0165912Y0221977D01*
X0165912Y0221937D01*
X0166109Y0221740D01*
X0166109Y0221701D01*
X0167280Y0220530D01*
X0167320Y0220490D01*
X0167359Y0220490D01*
X0167399Y0220451D01*
X0167438Y0220411D01*
X0167477Y0220372D01*
X0167517Y0220333D01*
X0167556Y0220333D01*
X0167595Y0220293D01*
X0167635Y0220254D01*
X0167674Y0220254D01*
X0167714Y0220215D01*
X0167753Y0220215D01*
X0167792Y0220175D01*
X0167832Y0220175D01*
X0167871Y0220136D01*
X0167910Y0220136D01*
X0167950Y0220096D01*
X0168029Y0220096D01*
X0168044Y0220081D01*
X0166383Y0220081D01*
X0163747Y0217445D01*
X0163747Y0215681D01*
X0168147Y0215681D01*
X0168147Y0215481D01*
X0168347Y0215481D01*
X0168347Y0215681D01*
X0172747Y0215681D01*
X0172747Y0217445D01*
X0170213Y0219978D01*
X0174292Y0219978D01*
X0174331Y0220018D01*
X0174489Y0220018D01*
X0174528Y0220057D01*
X0174646Y0220057D01*
X0174685Y0220096D01*
X0174764Y0220096D01*
X0174803Y0220136D01*
X0174843Y0220136D01*
X0174882Y0220175D01*
X0174922Y0220175D01*
X0174961Y0220215D01*
X0175000Y0220215D01*
X0175040Y0220254D01*
X0175079Y0220293D01*
X0175118Y0220293D01*
X0175158Y0220333D01*
X0175197Y0220372D01*
X0175237Y0220372D01*
X0175276Y0220411D01*
X0175315Y0220451D01*
X0175355Y0220490D01*
X0175394Y0220530D01*
X0175433Y0220569D01*
X0175473Y0220608D01*
X0175512Y0220648D01*
X0175552Y0220687D01*
X0176723Y0221859D01*
X0176723Y0221898D01*
X0176802Y0221977D01*
X0176802Y0222016D01*
X0176881Y0222095D01*
X0176881Y0222134D01*
X0176959Y0222213D01*
X0176959Y0222252D01*
X0176999Y0222292D01*
X0176999Y0222331D01*
X0177038Y0222370D01*
X0177038Y0222410D01*
X0177077Y0222449D01*
X0177077Y0222489D01*
X0177117Y0222528D01*
X0177117Y0222607D01*
X0177156Y0222646D01*
X0177156Y0222685D01*
X0177196Y0222725D01*
X0177196Y0222803D01*
X0177235Y0222843D01*
X0177235Y0222882D01*
X0177274Y0222922D01*
X0177274Y0223000D01*
X0177314Y0223040D01*
X0177314Y0223158D01*
X0177353Y0223197D01*
X0177353Y0223276D01*
X0177392Y0223315D01*
X0177392Y0223355D01*
X0178259Y0224221D01*
X0178259Y0224300D01*
X0178298Y0224339D01*
X0178298Y0226508D01*
X0178259Y0226547D01*
X0178259Y0226626D01*
X0178219Y0226665D01*
X0178180Y0226704D01*
X0178140Y0226744D01*
X0178101Y0226783D01*
X0177196Y0227689D01*
X0177196Y0227728D01*
X0177156Y0227767D01*
X0177117Y0227807D01*
X0177077Y0227846D01*
X0177038Y0227886D01*
X0176999Y0227925D01*
X0176959Y0227964D01*
X0175788Y0229136D01*
X0175748Y0229136D01*
X0175709Y0229175D01*
X0175670Y0229175D01*
X0175630Y0229215D01*
X0175552Y0229215D01*
X0175512Y0229254D01*
X0175000Y0229254D01*
X0174559Y0229695D01*
X0174636Y0229772D01*
X0174636Y0229811D01*
X0174755Y0229929D01*
X0174755Y0229969D01*
X0174873Y0230087D01*
X0174873Y0230126D01*
X0174951Y0230205D01*
X0174991Y0230244D01*
X0174991Y0230284D01*
X0175109Y0230402D01*
X0175109Y0230441D01*
X0175227Y0230559D01*
X0175227Y0230599D01*
X0175345Y0230717D01*
X0175345Y0230756D01*
X0175463Y0230874D01*
X0175463Y0230914D01*
X0175581Y0231032D01*
X0175581Y0231071D01*
X0175699Y0231189D01*
X0175699Y0231229D01*
X0175818Y0231347D01*
X0175818Y0231386D01*
X0175896Y0231465D01*
X0175896Y0231504D01*
X0176014Y0231622D01*
X0176014Y0231662D01*
X0176133Y0231780D01*
X0176133Y0231819D01*
X0176251Y0231937D01*
X0176251Y0231977D01*
X0176369Y0232095D01*
X0176369Y0232134D01*
X0176487Y0232252D01*
X0176487Y0232292D01*
X0176605Y0232410D01*
X0176605Y0232449D01*
X0176684Y0232528D01*
X0176723Y0232567D01*
X0176723Y0232607D01*
X0176841Y0232725D01*
X0176841Y0232764D01*
X0176959Y0232882D01*
X0176959Y0232922D01*
X0177077Y0233040D01*
X0177077Y0233079D01*
X0177156Y0233158D01*
X0177156Y0233280D01*
X0180355Y0233280D01*
X0180355Y0220119D01*
X0180194Y0220281D01*
X0176300Y0220281D01*
X0173547Y0217527D01*
X0173547Y0213634D01*
X0176300Y0210881D01*
X0180194Y0210881D01*
X0180355Y0211043D01*
X0180355Y0210119D01*
X0180194Y0210281D01*
X0176300Y0210281D01*
X0173547Y0207527D01*
X0173547Y0203634D01*
X0176300Y0200881D01*
X0180194Y0200881D01*
X0180355Y0201043D01*
X0180355Y0200119D01*
X0180194Y0200281D01*
X0176300Y0200281D01*
X0173547Y0197527D01*
X0173547Y0193634D01*
X0176300Y0190881D01*
X0180194Y0190881D01*
X0180355Y0191043D01*
X0180355Y0190119D01*
X0180194Y0190281D01*
X0176300Y0190281D01*
X0173547Y0187527D01*
X0173547Y0183634D01*
X0176300Y0180881D01*
X0180194Y0180881D01*
X0180355Y0181043D01*
X0180355Y0180119D01*
X0180194Y0180281D01*
X0176300Y0180281D01*
X0173547Y0177527D01*
X0173547Y0173634D01*
X0176300Y0170881D01*
X0180194Y0170881D01*
X0180355Y0171043D01*
X0180355Y0170119D01*
X0180194Y0170281D01*
X0176300Y0170281D01*
X0173547Y0167527D01*
X0173547Y0163634D01*
X0176300Y0160881D01*
X0180194Y0160881D01*
X0180355Y0161043D01*
X0180355Y0160119D01*
X0180194Y0160281D01*
X0176300Y0160281D01*
X0173547Y0157527D01*
X0173547Y0153634D01*
X0176300Y0150881D01*
X0180194Y0150881D01*
X0180355Y0151043D01*
X0180355Y0150119D01*
X0180194Y0150281D01*
X0176300Y0150281D01*
X0173547Y0147527D01*
X0173547Y0143634D01*
X0176300Y0140881D01*
X0180194Y0140881D01*
X0180355Y0141043D01*
X0180355Y0140119D01*
X0180194Y0140281D01*
X0176300Y0140281D01*
X0173547Y0137527D01*
X0173547Y0133634D01*
X0176300Y0130881D01*
X0180194Y0130881D01*
X0180355Y0131043D01*
X0180355Y0130119D01*
X0180194Y0130281D01*
X0176300Y0130281D01*
X0173547Y0127527D01*
X0173547Y0123634D01*
X0176300Y0120881D01*
X0180194Y0120881D01*
X0180355Y0121043D01*
X0180355Y0120119D01*
X0180194Y0120281D01*
X0176300Y0120281D01*
X0173547Y0117527D01*
X0173547Y0113634D01*
X0176300Y0110881D01*
X0180194Y0110881D01*
X0180355Y0111043D01*
X0180355Y0110119D01*
X0180194Y0110281D01*
X0176300Y0110281D01*
X0173547Y0107527D01*
X0173547Y0103634D01*
X0176300Y0100881D01*
X0180194Y0100881D01*
X0180355Y0101043D01*
X0180355Y0100119D01*
X0180194Y0100281D01*
X0176300Y0100281D01*
X0173547Y0097527D01*
X0173547Y0093634D01*
X0176300Y0090881D01*
X0180194Y0090881D01*
X0180355Y0091043D01*
X0180355Y0090119D01*
X0180194Y0090281D01*
X0176300Y0090281D01*
X0173547Y0087527D01*
X0173547Y0083634D01*
X0176300Y0080881D01*
X0180194Y0080881D01*
X0180355Y0081043D01*
X0180355Y0080119D01*
X0180194Y0080281D01*
X0176300Y0080281D01*
X0173547Y0077527D01*
X0173547Y0073634D01*
X0176300Y0070881D01*
X0180194Y0070881D01*
X0180355Y0071043D01*
X0180355Y0070119D01*
X0180194Y0070281D01*
X0176300Y0070281D01*
X0173547Y0067527D01*
X0173547Y0063634D01*
X0176300Y0060881D01*
X0180194Y0060881D01*
X0180355Y0061043D01*
X0180355Y0060119D01*
X0180194Y0060281D01*
X0176300Y0060281D01*
X0173547Y0057527D01*
X0173547Y0053634D01*
X0176300Y0050881D01*
X0180194Y0050881D01*
X0180355Y0051043D01*
X0180355Y0050119D01*
X0180194Y0050281D01*
X0176300Y0050281D01*
X0173547Y0047527D01*
X0173547Y0043634D01*
X0173551Y0043630D01*
X0172526Y0043630D01*
X0172947Y0044646D01*
X0172947Y0046516D01*
X0172231Y0048243D01*
X0170909Y0049565D01*
X0169182Y0050281D01*
X0167312Y0050281D01*
X0165584Y0049565D01*
X0164263Y0048244D01*
X0163303Y0050561D01*
X0161495Y0052370D01*
X0159132Y0053348D01*
X0156574Y0053348D01*
X0154211Y0052370D01*
X0152403Y0050561D01*
X0151802Y0049111D01*
X0151802Y0050491D01*
X0154046Y0052735D01*
X0154472Y0053764D01*
X0154472Y0068920D01*
X0156574Y0068049D01*
X0159132Y0068049D01*
X0161495Y0069028D01*
X0163303Y0070837D01*
X0164194Y0072987D01*
X0166300Y0070881D01*
X0170194Y0070881D01*
X0172947Y0073634D01*
X0172947Y0077527D01*
X0170194Y0080281D01*
X0166300Y0080281D01*
X0163548Y0077529D01*
X0163303Y0078120D01*
X0161495Y0079929D01*
X0159568Y0080727D01*
X0160562Y0081721D01*
X0160562Y0089283D01*
X0159390Y0090455D01*
X0156840Y0090455D01*
X0156840Y0092163D01*
X0159390Y0092163D01*
X0160562Y0093335D01*
X0160562Y0098247D01*
X0162151Y0098247D01*
X0163327Y0098734D01*
X0164227Y0099634D01*
X0164714Y0100810D01*
X0164714Y0102083D01*
X0164444Y0102737D01*
X0166300Y0100881D01*
X0170194Y0100881D01*
X0172947Y0103634D01*
X0172947Y0107527D01*
X0170194Y0110281D01*
X0166300Y0110281D01*
X0163547Y0107527D01*
X0163547Y0103940D01*
X0163327Y0104160D01*
X0162151Y0104647D01*
X0160562Y0104647D01*
X0160562Y0109362D01*
X0159390Y0110533D01*
X0147103Y0110533D01*
X0145932Y0109362D01*
X0145932Y0101406D01*
X0146186Y0101152D01*
X0145932Y0100897D01*
X0145932Y0095985D01*
X0145381Y0095985D01*
X0145423Y0096086D01*
X0145423Y0112320D01*
X0144936Y0113496D01*
X0144036Y0114396D01*
X0142860Y0114883D01*
X0141587Y0114883D01*
X0140410Y0114396D01*
X0139510Y0113496D01*
X0139023Y0112320D01*
X0139023Y0096086D01*
X0139065Y0095985D01*
X0138824Y0095985D01*
X0138730Y0096079D01*
X0138730Y0098146D01*
X0138243Y0099322D01*
X0137343Y0100223D01*
X0133406Y0104160D01*
X0132230Y0104647D01*
X0124341Y0104647D01*
X0124341Y0109362D01*
X0123170Y0110533D01*
X0110883Y0110533D01*
X0109711Y0109362D01*
X0109711Y0105047D01*
X0096388Y0105047D01*
X0096388Y0109362D01*
X0095217Y0110533D01*
X0082930Y0110533D01*
X0081759Y0109362D01*
X0081759Y0104923D01*
X0080735Y0104499D01*
X0079722Y0103486D01*
X0076573Y0100336D01*
X0076173Y0099371D01*
X0074951Y0098149D01*
X0074951Y0109078D01*
X0074951Y0110351D01*
X0074463Y0111527D01*
X0069233Y0116758D01*
X0088299Y0116758D01*
X0088299Y0117182D02*
X0088299Y0115633D01*
X0089848Y0115633D01*
X0089848Y0111458D01*
X0094625Y0111458D01*
X0095083Y0111581D01*
X0095494Y0111818D01*
X0095829Y0112153D01*
X0096066Y0112563D01*
X0096188Y0113021D01*
X0096188Y0115633D01*
X0089848Y0115633D01*
X0089848Y0117182D01*
X0088299Y0117182D01*
X0081959Y0117182D01*
X0081959Y0119794D01*
X0082081Y0120252D01*
X0082318Y0120662D01*
X0082653Y0120997D01*
X0083064Y0121234D01*
X0083522Y0121357D01*
X0088299Y0121357D01*
X0088299Y0117182D01*
X0088299Y0118357D02*
X0089848Y0118357D01*
X0089848Y0117182D02*
X0089848Y0121357D01*
X0094625Y0121357D01*
X0095083Y0121234D01*
X0095494Y0120997D01*
X0095829Y0120662D01*
X0096066Y0120252D01*
X0096188Y0119794D01*
X0096188Y0117182D01*
X0089848Y0117182D01*
X0089848Y0116758D02*
X0116251Y0116758D01*
X0116251Y0117182D02*
X0116251Y0115633D01*
X0109911Y0115633D01*
X0109911Y0113021D01*
X0110034Y0112563D01*
X0110271Y0112153D01*
X0110606Y0111818D01*
X0111016Y0111581D01*
X0111474Y0111458D01*
X0116251Y0111458D01*
X0116251Y0115633D01*
X0117801Y0115633D01*
X0117801Y0117182D01*
X0124141Y0117182D01*
X0124141Y0119794D01*
X0124019Y0120252D01*
X0123782Y0120662D01*
X0123446Y0120997D01*
X0123036Y0121234D01*
X0122578Y0121357D01*
X0117801Y0121357D01*
X0117801Y0117182D01*
X0116251Y0117182D01*
X0109911Y0117182D01*
X0109911Y0119794D01*
X0110034Y0120252D01*
X0110271Y0120662D01*
X0110606Y0120997D01*
X0111016Y0121234D01*
X0111474Y0121357D01*
X0116251Y0121357D01*
X0116251Y0117182D01*
X0116251Y0118357D02*
X0117801Y0118357D01*
X0117801Y0119955D02*
X0116251Y0119955D01*
X0117801Y0116758D02*
X0152472Y0116758D01*
X0152472Y0117182D02*
X0152472Y0115633D01*
X0146132Y0115633D01*
X0146132Y0113021D01*
X0146254Y0112563D01*
X0146491Y0112153D01*
X0146827Y0111818D01*
X0147237Y0111581D01*
X0147695Y0111458D01*
X0152472Y0111458D01*
X0152472Y0115633D01*
X0154022Y0115633D01*
X0154022Y0117182D01*
X0160362Y0117182D01*
X0160362Y0119794D01*
X0160239Y0120252D01*
X0160002Y0120662D01*
X0159667Y0120997D01*
X0159256Y0121234D01*
X0158799Y0121357D01*
X0154022Y0121357D01*
X0154022Y0117182D01*
X0152472Y0117182D01*
X0146132Y0117182D01*
X0146132Y0119794D01*
X0146254Y0120252D01*
X0146491Y0120662D01*
X0146827Y0120997D01*
X0147237Y0121234D01*
X0147695Y0121357D01*
X0152472Y0121357D01*
X0152472Y0117182D01*
X0152472Y0118357D02*
X0154022Y0118357D01*
X0154022Y0119955D02*
X0152472Y0119955D01*
X0153247Y0120738D02*
X0153247Y0132156D01*
X0153640Y0132549D01*
X0152866Y0132743D02*
X0144814Y0132743D01*
X0144814Y0131145D02*
X0146525Y0131145D01*
X0146525Y0131774D02*
X0146525Y0129163D01*
X0146648Y0128705D01*
X0146885Y0128294D01*
X0147220Y0127959D01*
X0147631Y0127722D01*
X0148088Y0127600D01*
X0152866Y0127600D01*
X0152866Y0131774D01*
X0154415Y0131774D01*
X0154415Y0127600D01*
X0159192Y0127600D01*
X0159650Y0127722D01*
X0160061Y0127959D01*
X0160396Y0128294D01*
X0160633Y0128705D01*
X0160755Y0129163D01*
X0160755Y0131774D01*
X0154415Y0131774D01*
X0154415Y0133324D01*
X0152866Y0133324D01*
X0152866Y0131774D01*
X0146525Y0131774D01*
X0146525Y0129546D02*
X0144814Y0129546D01*
X0144814Y0127948D02*
X0147240Y0127948D01*
X0144380Y0126349D02*
X0163547Y0126349D01*
X0163547Y0127527D02*
X0163547Y0123634D01*
X0166300Y0120881D01*
X0170194Y0120881D01*
X0172947Y0123634D01*
X0172947Y0127527D01*
X0170194Y0130281D01*
X0166300Y0130281D01*
X0163547Y0127527D01*
X0163967Y0127948D02*
X0160041Y0127948D01*
X0160755Y0129546D02*
X0165565Y0129546D01*
X0166300Y0130881D02*
X0170194Y0130881D01*
X0172947Y0133634D01*
X0172947Y0137527D01*
X0170194Y0140281D01*
X0166300Y0140281D01*
X0163547Y0137527D01*
X0163547Y0133634D01*
X0166300Y0130881D01*
X0166036Y0131145D02*
X0160755Y0131145D01*
X0160755Y0133324D02*
X0160755Y0135936D01*
X0160633Y0136394D01*
X0160396Y0136804D01*
X0160061Y0137139D01*
X0159650Y0137376D01*
X0159192Y0137499D01*
X0154415Y0137499D01*
X0154415Y0133324D01*
X0160755Y0133324D01*
X0160755Y0134342D02*
X0163547Y0134342D01*
X0163547Y0135940D02*
X0160754Y0135940D01*
X0163558Y0137539D02*
X0147167Y0137539D01*
X0147251Y0138400D02*
X0140727Y0138400D01*
X0147251Y0138400D01*
X0146527Y0135940D02*
X0146447Y0135940D01*
X0146525Y0134342D02*
X0144243Y0134342D01*
X0140727Y0138400D02*
X0140727Y0138400D01*
X0136908Y0133337D02*
X0121357Y0133337D01*
X0119338Y0126349D02*
X0101307Y0126349D01*
X0101215Y0127948D02*
X0112488Y0127948D01*
X0112215Y0129546D02*
X0100145Y0129546D01*
X0098215Y0131145D02*
X0112215Y0131145D01*
X0112215Y0132743D02*
X0098215Y0132743D01*
X0098215Y0134342D02*
X0112215Y0134342D01*
X0112215Y0135940D02*
X0098215Y0135940D01*
X0097554Y0137539D02*
X0112876Y0137539D01*
X0106900Y0145531D02*
X0134347Y0145531D01*
X0131367Y0143933D02*
X0087149Y0143933D01*
X0087149Y0145531D02*
X0101820Y0145531D01*
X0099667Y0147130D02*
X0087149Y0147130D01*
X0087165Y0148728D02*
X0087979Y0148728D01*
X0084349Y0149872D02*
X0087105Y0152628D01*
X0094585Y0152628D01*
X0094979Y0153022D01*
X0097735Y0153022D01*
X0102459Y0148297D01*
X0105215Y0148297D01*
X0108195Y0147130D02*
X0108550Y0147130D01*
X0112904Y0147130D02*
X0145917Y0147130D01*
X0144673Y0148728D02*
X0113880Y0148728D01*
X0115111Y0150327D02*
X0144348Y0150327D01*
X0141082Y0151925D02*
X0140215Y0151925D01*
X0140648Y0159590D02*
X0141166Y0160108D01*
X0140648Y0160626D01*
X0140130Y0160108D01*
X0140648Y0159590D01*
X0140321Y0159918D02*
X0140976Y0159918D01*
X0148004Y0160108D02*
X0148522Y0160626D01*
X0149040Y0160108D01*
X0148522Y0159590D01*
X0148004Y0160108D01*
X0148195Y0159918D02*
X0148850Y0159918D01*
X0156069Y0159918D02*
X0165937Y0159918D01*
X0166300Y0160881D02*
X0170194Y0160881D01*
X0172947Y0163634D01*
X0172947Y0167527D01*
X0170194Y0170281D01*
X0166300Y0170281D01*
X0163547Y0167527D01*
X0163547Y0163634D01*
X0166300Y0160881D01*
X0165664Y0161516D02*
X0156822Y0161516D01*
X0156822Y0163115D02*
X0164066Y0163115D01*
X0163547Y0164713D02*
X0156822Y0164713D01*
X0156822Y0166312D02*
X0163547Y0166312D01*
X0163930Y0167910D02*
X0156344Y0167910D01*
X0154859Y0169509D02*
X0165528Y0169509D01*
X0166300Y0170881D02*
X0170194Y0170881D01*
X0172947Y0173634D01*
X0172947Y0177527D01*
X0170194Y0180281D01*
X0166300Y0180281D01*
X0163547Y0177527D01*
X0163547Y0173634D01*
X0166300Y0170881D01*
X0166073Y0171107D02*
X0153657Y0171107D01*
X0152909Y0172706D02*
X0164475Y0172706D01*
X0163547Y0174304D02*
X0150800Y0174304D01*
X0149394Y0174304D02*
X0149341Y0174304D01*
X0149341Y0175903D02*
X0152612Y0175903D01*
X0151655Y0177502D02*
X0149341Y0177502D01*
X0149341Y0179100D02*
X0151723Y0179100D01*
X0152415Y0180699D02*
X0149341Y0180699D01*
X0149341Y0182297D02*
X0152415Y0182297D01*
X0152415Y0183896D02*
X0149341Y0183896D01*
X0148406Y0185494D02*
X0152415Y0185494D01*
X0152415Y0187093D02*
X0139621Y0187093D01*
X0138023Y0188691D02*
X0152415Y0188691D01*
X0152415Y0190290D02*
X0136424Y0190290D01*
X0134826Y0191888D02*
X0152415Y0191888D01*
X0155215Y0193573D02*
X0153247Y0195541D01*
X0142223Y0195541D01*
X0137105Y0200659D01*
X0137105Y0211289D01*
X0141829Y0216014D01*
X0141829Y0219656D01*
X0143900Y0223858D02*
X0144440Y0223858D01*
X0145766Y0224675D02*
X0131593Y0224675D01*
X0131593Y0219656D01*
X0131593Y0223370D02*
X0131593Y0224113D01*
X0131593Y0223370D01*
X0131593Y0223370D01*
X0131593Y0223858D02*
X0131593Y0223858D01*
X0131593Y0224675D02*
X0128444Y0224675D01*
X0122932Y0230187D01*
X0122600Y0230252D02*
X0110058Y0230252D01*
X0110058Y0228654D02*
X0117967Y0228654D01*
X0117864Y0228970D02*
X0118117Y0228193D01*
X0118488Y0227464D01*
X0118969Y0226802D01*
X0119547Y0226224D01*
X0120209Y0225743D01*
X0120937Y0225372D01*
X0121715Y0225119D01*
X0122523Y0224991D01*
X0122600Y0224991D01*
X0122600Y0229855D01*
X0123264Y0229855D01*
X0123264Y0224991D01*
X0123341Y0224991D01*
X0124148Y0225119D01*
X0123264Y0225457D02*
X0122600Y0225457D01*
X0122600Y0227055D02*
X0123264Y0227055D01*
X0123264Y0228654D02*
X0122600Y0228654D01*
X0122600Y0229855D02*
X0117736Y0229855D01*
X0117736Y0229778D01*
X0117864Y0228970D01*
X0117736Y0230519D02*
X0122600Y0230519D01*
X0122600Y0229855D01*
X0118785Y0227055D02*
X0110058Y0227055D01*
X0110056Y0225457D02*
X0120771Y0225457D01*
X0122985Y0222260D02*
X0107271Y0222260D01*
X0106563Y0221967D02*
X0108167Y0222631D01*
X0109394Y0223858D01*
X0106563Y0221967D02*
X0104828Y0221967D01*
X0097914Y0220661D02*
X0122359Y0220661D01*
X0122359Y0219063D02*
X0097914Y0219063D01*
X0097296Y0217464D02*
X0122977Y0217464D01*
X0122534Y0215866D02*
X0095565Y0215866D01*
X0100491Y0210106D02*
X0100491Y0204203D01*
X0093829Y0196684D02*
X0123269Y0196684D01*
X0123269Y0198282D02*
X0092230Y0198282D01*
X0091180Y0199881D02*
X0123269Y0199881D01*
X0122256Y0201479D02*
X0091180Y0201479D01*
X0091180Y0203078D02*
X0120657Y0203078D01*
X0119059Y0204676D02*
X0091180Y0204676D01*
X0091180Y0206275D02*
X0118619Y0206275D01*
X0118619Y0207873D02*
X0091180Y0207873D01*
X0091180Y0209472D02*
X0118619Y0209472D01*
X0118619Y0211070D02*
X0091180Y0211070D01*
X0091180Y0212669D02*
X0119337Y0212669D01*
X0120935Y0214267D02*
X0091180Y0214267D01*
X0091180Y0215866D02*
X0091244Y0215866D01*
X0081062Y0214267D02*
X0042947Y0214267D01*
X0042947Y0213634D02*
X0040194Y0210881D01*
X0036300Y0210881D01*
X0033547Y0213634D01*
X0033547Y0217527D01*
X0036300Y0220281D01*
X0040194Y0220281D01*
X0042947Y0217527D01*
X0042947Y0213634D01*
X0041982Y0212669D02*
X0081062Y0212669D01*
X0081062Y0211070D02*
X0040383Y0211070D01*
X0040111Y0210081D02*
X0038347Y0210081D01*
X0038347Y0205681D01*
X0038147Y0205681D01*
X0038147Y0210081D01*
X0036383Y0210081D01*
X0033747Y0207445D01*
X0033747Y0205681D01*
X0038147Y0205681D01*
X0038147Y0205481D01*
X0033747Y0205481D01*
X0033747Y0203717D01*
X0036383Y0201081D01*
X0038147Y0201081D01*
X0038147Y0205481D01*
X0038347Y0205481D01*
X0038347Y0205681D01*
X0042747Y0205681D01*
X0042747Y0207445D01*
X0040111Y0210081D01*
X0040720Y0209472D02*
X0081062Y0209472D01*
X0081062Y0207873D02*
X0042318Y0207873D01*
X0042747Y0206275D02*
X0080130Y0206275D01*
X0078531Y0204676D02*
X0042747Y0204676D01*
X0042747Y0205481D02*
X0038347Y0205481D01*
X0038347Y0201081D01*
X0040111Y0201081D01*
X0042747Y0203717D01*
X0042747Y0205481D01*
X0042108Y0203078D02*
X0076933Y0203078D01*
X0075799Y0201479D02*
X0040509Y0201479D01*
X0040194Y0200281D02*
X0036300Y0200281D01*
X0033547Y0197527D01*
X0033547Y0193634D01*
X0036300Y0190881D01*
X0040194Y0190881D01*
X0042947Y0193634D01*
X0042947Y0197527D01*
X0040194Y0200281D01*
X0040594Y0199881D02*
X0075747Y0199881D01*
X0075747Y0198282D02*
X0042192Y0198282D01*
X0042947Y0196684D02*
X0065143Y0196684D01*
X0064239Y0195085D02*
X0042947Y0195085D01*
X0042799Y0193487D02*
X0064239Y0193487D01*
X0064239Y0191888D02*
X0041201Y0191888D01*
X0040194Y0190281D02*
X0036300Y0190281D01*
X0033547Y0187527D01*
X0033547Y0183634D01*
X0036300Y0180881D01*
X0040194Y0180881D01*
X0042947Y0183634D01*
X0042947Y0187527D01*
X0040194Y0190281D01*
X0041783Y0188691D02*
X0064439Y0188691D01*
X0064439Y0190290D02*
X0026138Y0190290D01*
X0031201Y0191888D02*
X0035293Y0191888D01*
X0033694Y0193487D02*
X0032799Y0193487D01*
X0032947Y0195085D02*
X0033547Y0195085D01*
X0033547Y0196684D02*
X0032947Y0196684D01*
X0032192Y0198282D02*
X0034301Y0198282D01*
X0035900Y0199881D02*
X0030594Y0199881D01*
X0030792Y0201479D02*
X0035984Y0201479D01*
X0038147Y0201479D02*
X0038347Y0201479D01*
X0038347Y0203078D02*
X0038147Y0203078D01*
X0038147Y0204676D02*
X0038347Y0204676D01*
X0038347Y0206275D02*
X0038147Y0206275D01*
X0038147Y0207873D02*
X0038347Y0207873D01*
X0038347Y0209472D02*
X0038147Y0209472D01*
X0035774Y0209472D02*
X0031002Y0209472D01*
X0030111Y0211081D02*
X0032747Y0213717D01*
X0032747Y0215481D01*
X0028347Y0215481D01*
X0028347Y0211081D01*
X0030111Y0211081D01*
X0031699Y0212669D02*
X0034512Y0212669D01*
X0033547Y0214267D02*
X0032747Y0214267D01*
X0032747Y0215681D02*
X0032747Y0217445D01*
X0030111Y0220081D01*
X0028347Y0220081D01*
X0028347Y0215681D01*
X0032747Y0215681D01*
X0032747Y0215866D02*
X0033547Y0215866D01*
X0033547Y0217464D02*
X0032727Y0217464D01*
X0031129Y0219063D02*
X0035082Y0219063D01*
X0035831Y0222260D02*
X0029545Y0222260D01*
X0031143Y0223858D02*
X0034344Y0223858D01*
X0033682Y0225457D02*
X0032742Y0225457D01*
X0028347Y0219063D02*
X0028147Y0219063D01*
X0028147Y0217464D02*
X0028347Y0217464D01*
X0028347Y0215866D02*
X0028147Y0215866D01*
X0028147Y0214267D02*
X0028347Y0214267D01*
X0028347Y0212669D02*
X0028147Y0212669D01*
X0026138Y0211070D02*
X0036110Y0211070D01*
X0034175Y0207873D02*
X0032601Y0207873D01*
X0032947Y0206275D02*
X0033747Y0206275D01*
X0033747Y0204676D02*
X0032947Y0204676D01*
X0032390Y0203078D02*
X0034386Y0203078D01*
X0042947Y0215866D02*
X0071559Y0215866D01*
X0069827Y0217464D02*
X0042947Y0217464D01*
X0041411Y0219063D02*
X0069209Y0219063D01*
X0069209Y0220661D02*
X0027946Y0220661D01*
X0043104Y0222260D02*
X0052779Y0222260D01*
X0053695Y0222260D02*
X0053696Y0222260D01*
X0053696Y0222167D02*
X0054023Y0222167D01*
X0054670Y0222269D01*
X0055293Y0222471D01*
X0055877Y0222769D01*
X0056407Y0223154D01*
X0056870Y0223617D01*
X0057255Y0224147D01*
X0057553Y0224731D01*
X0057755Y0225354D01*
X0057858Y0226001D01*
X0057858Y0228691D01*
X0053696Y0228691D01*
X0053696Y0228691D01*
X0053696Y0222167D01*
X0054612Y0222260D02*
X0069835Y0222260D01*
X0071606Y0223858D02*
X0057045Y0223858D01*
X0057772Y0225457D02*
X0067621Y0225457D01*
X0069450Y0225457D02*
X0070114Y0225457D01*
X0070114Y0227055D02*
X0069450Y0227055D01*
X0069450Y0228654D02*
X0070114Y0228654D01*
X0069450Y0230252D02*
X0057858Y0230252D01*
X0057858Y0228654D02*
X0064817Y0228654D01*
X0065635Y0227055D02*
X0057858Y0227055D01*
X0057783Y0231851D02*
X0064860Y0231851D01*
X0071943Y0225457D02*
X0074794Y0225457D01*
X0074672Y0227055D02*
X0073929Y0227055D01*
X0075833Y0223858D02*
X0076733Y0223858D01*
X0078443Y0223858D02*
X0078444Y0223858D01*
X0074672Y0231951D02*
X0074597Y0232181D01*
X0074226Y0232910D01*
X0073957Y0233280D01*
X0074672Y0233280D01*
X0074672Y0231951D01*
X0075879Y0215866D02*
X0076243Y0215866D01*
X0078443Y0215866D02*
X0078444Y0215866D01*
X0086180Y0202104D02*
X0085668Y0201592D01*
X0085668Y0200254D01*
X0085865Y0199779D01*
X0085865Y0199616D01*
X0086180Y0199616D01*
X0086180Y0202104D01*
X0086180Y0201479D02*
X0085668Y0201479D01*
X0085823Y0199881D02*
X0086180Y0199881D01*
X0083314Y0191860D02*
X0082018Y0191860D01*
X0082018Y0188299D01*
X0082018Y0187018D01*
X0087644Y0187018D01*
X0087926Y0187300D01*
X0087741Y0187223D01*
X0086468Y0187223D01*
X0085292Y0187710D01*
X0084392Y0188611D01*
X0083905Y0189787D01*
X0083905Y0191060D01*
X0083966Y0191208D01*
X0083314Y0191860D01*
X0083905Y0190290D02*
X0082018Y0190290D01*
X0082018Y0188691D02*
X0084359Y0188691D01*
X0082018Y0187093D02*
X0087719Y0187093D01*
X0090904Y0183207D02*
X0090904Y0182874D01*
X0090336Y0182638D01*
X0090904Y0183207D01*
X0089777Y0182266D02*
X0089117Y0181606D01*
X0088629Y0180430D01*
X0088629Y0179157D01*
X0089117Y0177981D01*
X0090009Y0177088D01*
X0075432Y0177088D01*
X0075432Y0183108D01*
X0077302Y0183108D01*
X0078012Y0182398D01*
X0078931Y0182018D01*
X0089177Y0182018D01*
X0089777Y0182266D01*
X0088741Y0180699D02*
X0075432Y0180699D01*
X0075432Y0182297D02*
X0078256Y0182297D01*
X0075432Y0179100D02*
X0088653Y0179100D01*
X0089596Y0177502D02*
X0075432Y0177502D01*
X0070432Y0177502D02*
X0066270Y0177502D01*
X0065193Y0179100D02*
X0070432Y0179100D01*
X0070432Y0180699D02*
X0026138Y0180699D01*
X0031374Y0179100D02*
X0035119Y0179100D01*
X0036300Y0180281D02*
X0033547Y0177527D01*
X0033547Y0173634D01*
X0036300Y0170881D01*
X0040194Y0170881D01*
X0042947Y0173634D01*
X0042947Y0177527D01*
X0040194Y0180281D01*
X0036300Y0180281D01*
X0034884Y0182297D02*
X0031610Y0182297D01*
X0032947Y0183896D02*
X0033547Y0183896D01*
X0033547Y0185494D02*
X0032947Y0185494D01*
X0032947Y0187093D02*
X0033547Y0187093D01*
X0034710Y0188691D02*
X0031783Y0188691D01*
X0032947Y0177502D02*
X0033547Y0177502D01*
X0033547Y0175903D02*
X0032947Y0175903D01*
X0032947Y0174304D02*
X0033547Y0174304D01*
X0034475Y0172706D02*
X0032019Y0172706D01*
X0030420Y0171107D02*
X0036073Y0171107D01*
X0036383Y0170081D02*
X0033747Y0167445D01*
X0033747Y0165681D01*
X0038147Y0165681D01*
X0038147Y0170081D01*
X0036383Y0170081D01*
X0035811Y0169509D02*
X0030965Y0169509D01*
X0032564Y0167910D02*
X0034212Y0167910D01*
X0033747Y0166312D02*
X0032947Y0166312D01*
X0033747Y0165481D02*
X0033747Y0163717D01*
X0036383Y0161081D01*
X0038147Y0161081D01*
X0038147Y0165481D01*
X0033747Y0165481D01*
X0033747Y0164713D02*
X0032947Y0164713D01*
X0032428Y0163115D02*
X0034349Y0163115D01*
X0035947Y0161516D02*
X0030829Y0161516D01*
X0030556Y0159918D02*
X0035937Y0159918D01*
X0036300Y0160281D02*
X0033547Y0157527D01*
X0033547Y0153634D01*
X0036300Y0150881D01*
X0040194Y0150881D01*
X0042947Y0153634D01*
X0042947Y0157527D01*
X0040194Y0160281D01*
X0036300Y0160281D01*
X0038347Y0161081D02*
X0040111Y0161081D01*
X0042747Y0163717D01*
X0042747Y0165481D01*
X0038347Y0165481D01*
X0038347Y0165681D01*
X0038147Y0165681D01*
X0038147Y0165481D01*
X0038347Y0165481D01*
X0038347Y0161081D01*
X0038347Y0161516D02*
X0038147Y0161516D01*
X0038147Y0163115D02*
X0038347Y0163115D01*
X0038347Y0164713D02*
X0038147Y0164713D01*
X0038347Y0165681D02*
X0042747Y0165681D01*
X0042747Y0167445D01*
X0040111Y0170081D01*
X0038347Y0170081D01*
X0038347Y0165681D01*
X0038347Y0166312D02*
X0038147Y0166312D01*
X0038147Y0167910D02*
X0038347Y0167910D01*
X0038347Y0169509D02*
X0038147Y0169509D01*
X0040682Y0169509D02*
X0072689Y0169509D01*
X0072094Y0167910D02*
X0042281Y0167910D01*
X0042747Y0166312D02*
X0072359Y0166312D01*
X0073873Y0164713D02*
X0042747Y0164713D01*
X0042145Y0163115D02*
X0087864Y0163115D01*
X0087864Y0163270D02*
X0087864Y0160659D01*
X0087987Y0160201D01*
X0088224Y0159790D01*
X0088559Y0159455D01*
X0088969Y0159218D01*
X0089427Y0159096D01*
X0094204Y0159096D01*
X0094204Y0163270D01*
X0087864Y0163270D01*
X0087864Y0161516D02*
X0056010Y0161516D01*
X0055877Y0161613D02*
X0056407Y0161228D01*
X0056870Y0160765D01*
X0057255Y0160235D01*
X0057553Y0159651D01*
X0057755Y0159028D01*
X0057858Y0158381D01*
X0057858Y0155691D01*
X0053696Y0155691D01*
X0053696Y0155691D01*
X0057858Y0155691D01*
X0057858Y0153001D01*
X0057755Y0152354D01*
X0057553Y0151731D01*
X0057255Y0151147D01*
X0056870Y0150617D01*
X0056407Y0150154D01*
X0055877Y0149769D01*
X0055293Y0149471D01*
X0054670Y0149269D01*
X0054023Y0149167D01*
X0053696Y0149167D01*
X0053696Y0155691D01*
X0053695Y0155691D01*
X0053695Y0155691D01*
X0049533Y0155691D01*
X0049533Y0158381D01*
X0049636Y0159028D01*
X0049838Y0159651D01*
X0050136Y0160235D01*
X0050521Y0160765D01*
X0050984Y0161228D01*
X0051514Y0161613D01*
X0052098Y0161910D01*
X0052721Y0162113D01*
X0053368Y0162215D01*
X0053695Y0162215D01*
X0053695Y0155691D01*
X0049533Y0155691D01*
X0049533Y0153001D01*
X0049636Y0152354D01*
X0049838Y0151731D01*
X0050136Y0151147D01*
X0050521Y0150617D01*
X0050984Y0150154D01*
X0051514Y0149769D01*
X0052098Y0149471D01*
X0052721Y0149269D01*
X0053368Y0149167D01*
X0053695Y0149167D01*
X0053695Y0155691D01*
X0053696Y0155691D01*
X0053696Y0162215D01*
X0054023Y0162215D01*
X0054670Y0162113D01*
X0055293Y0161910D01*
X0055877Y0161613D01*
X0053696Y0161516D02*
X0053695Y0161516D01*
X0053695Y0159918D02*
X0053696Y0159918D01*
X0053695Y0158319D02*
X0053696Y0158319D01*
X0053695Y0156721D02*
X0053696Y0156721D01*
X0053695Y0155122D02*
X0053696Y0155122D01*
X0053695Y0153524D02*
X0053696Y0153524D01*
X0053695Y0151925D02*
X0053696Y0151925D01*
X0053695Y0150327D02*
X0053696Y0150327D01*
X0050811Y0150327D02*
X0026138Y0150327D01*
X0031238Y0151925D02*
X0035255Y0151925D01*
X0036300Y0150281D02*
X0033547Y0147527D01*
X0033547Y0143634D01*
X0036300Y0140881D01*
X0040194Y0140881D01*
X0042947Y0143634D01*
X0042947Y0147527D01*
X0040194Y0150281D01*
X0036300Y0150281D01*
X0034748Y0148728D02*
X0031746Y0148728D01*
X0032947Y0147130D02*
X0033547Y0147130D01*
X0033547Y0145531D02*
X0032947Y0145531D01*
X0032947Y0143933D02*
X0033547Y0143933D01*
X0034846Y0142334D02*
X0031647Y0142334D01*
X0031337Y0139137D02*
X0035156Y0139137D01*
X0036300Y0140281D02*
X0033547Y0137527D01*
X0033547Y0133634D01*
X0036300Y0130881D01*
X0040194Y0130881D01*
X0042947Y0133634D01*
X0042947Y0137527D01*
X0040194Y0140281D01*
X0036300Y0140281D01*
X0033558Y0137539D02*
X0032935Y0137539D01*
X0032947Y0135940D02*
X0033547Y0135940D01*
X0033547Y0134342D02*
X0032947Y0134342D01*
X0032056Y0132743D02*
X0034437Y0132743D01*
X0036036Y0131145D02*
X0030457Y0131145D01*
X0030928Y0129546D02*
X0035565Y0129546D01*
X0036300Y0130281D02*
X0033547Y0127527D01*
X0033547Y0123634D01*
X0036300Y0120881D01*
X0040194Y0120881D01*
X0042947Y0123634D01*
X0042947Y0127527D01*
X0040194Y0130281D01*
X0036300Y0130281D01*
X0033967Y0127948D02*
X0032527Y0127948D01*
X0032947Y0126349D02*
X0033547Y0126349D01*
X0033547Y0124751D02*
X0032947Y0124751D01*
X0032465Y0123152D02*
X0034029Y0123152D01*
X0035627Y0121554D02*
X0030866Y0121554D01*
X0030519Y0119955D02*
X0035974Y0119955D01*
X0036300Y0120281D02*
X0033547Y0117527D01*
X0033547Y0113634D01*
X0036300Y0110881D01*
X0040194Y0110881D01*
X0042947Y0113634D01*
X0042947Y0117527D01*
X0040194Y0120281D01*
X0036300Y0120281D01*
X0034376Y0118357D02*
X0032118Y0118357D01*
X0032947Y0116758D02*
X0033547Y0116758D01*
X0033547Y0115160D02*
X0032947Y0115160D01*
X0032874Y0113561D02*
X0033620Y0113561D01*
X0035218Y0111963D02*
X0031275Y0111963D01*
X0031709Y0108766D02*
X0034785Y0108766D01*
X0033547Y0107527D02*
X0036300Y0110281D01*
X0040194Y0110281D01*
X0042947Y0107527D01*
X0042947Y0103634D01*
X0040194Y0100881D01*
X0036300Y0100881D01*
X0033547Y0103634D01*
X0033547Y0107527D01*
X0033547Y0107167D02*
X0032947Y0107167D01*
X0032947Y0105568D02*
X0033547Y0105568D01*
X0033547Y0103970D02*
X0032947Y0103970D01*
X0031684Y0102371D02*
X0034809Y0102371D01*
X0036300Y0100281D02*
X0033547Y0097527D01*
X0033547Y0093634D01*
X0036300Y0090881D01*
X0040194Y0090881D01*
X0042947Y0093634D01*
X0042947Y0097527D01*
X0040194Y0100281D01*
X0036300Y0100281D01*
X0035194Y0099174D02*
X0031300Y0099174D01*
X0032898Y0097576D02*
X0033595Y0097576D01*
X0033547Y0095977D02*
X0032947Y0095977D01*
X0032947Y0094379D02*
X0033547Y0094379D01*
X0034400Y0092780D02*
X0032093Y0092780D01*
X0030495Y0091182D02*
X0035999Y0091182D01*
X0036300Y0090281D02*
X0033547Y0087527D01*
X0033547Y0083634D01*
X0036300Y0080881D01*
X0040194Y0080881D01*
X0042947Y0083634D01*
X0042947Y0087527D01*
X0040194Y0090281D01*
X0036300Y0090281D01*
X0035603Y0089583D02*
X0030891Y0089583D01*
X0032489Y0087985D02*
X0034004Y0087985D01*
X0033547Y0086386D02*
X0032947Y0086386D01*
X0032947Y0084788D02*
X0033547Y0084788D01*
X0033991Y0083189D02*
X0032502Y0083189D01*
X0030904Y0081591D02*
X0035590Y0081591D01*
X0036300Y0080281D02*
X0033547Y0077527D01*
X0033547Y0073634D01*
X0036300Y0070881D01*
X0040194Y0070881D01*
X0041743Y0072430D01*
X0042403Y0070837D01*
X0044211Y0069028D01*
X0046574Y0068049D01*
X0049132Y0068049D01*
X0051495Y0069028D01*
X0053303Y0070837D01*
X0054138Y0072851D01*
X0054214Y0072372D01*
X0054431Y0071704D01*
X0054749Y0071079D01*
X0055162Y0070511D01*
X0055658Y0070015D01*
X0056215Y0069611D01*
X0055923Y0069490D01*
X0054613Y0068180D01*
X0053904Y0066468D01*
X0053904Y0064615D01*
X0054613Y0062903D01*
X0055912Y0061604D01*
X0054613Y0060306D01*
X0053904Y0058594D01*
X0053904Y0056741D01*
X0054613Y0055029D01*
X0055912Y0053730D01*
X0054613Y0052432D01*
X0053904Y0050720D01*
X0053904Y0049111D01*
X0053303Y0050561D01*
X0051495Y0052370D01*
X0049132Y0053348D01*
X0046574Y0053348D01*
X0044211Y0052370D01*
X0042403Y0050561D01*
X0041673Y0048801D01*
X0040194Y0050281D01*
X0036300Y0050281D01*
X0033547Y0047527D01*
X0033547Y0043634D01*
X0033551Y0043630D01*
X0032526Y0043630D01*
X0032947Y0044646D01*
X0032947Y0046516D01*
X0032231Y0048243D01*
X0030909Y0049565D01*
X0029182Y0050281D01*
X0027312Y0050281D01*
X0026138Y0049795D01*
X0030532Y0051219D02*
X0035962Y0051219D01*
X0036300Y0050881D02*
X0040194Y0050881D01*
X0042947Y0053634D01*
X0042947Y0057527D01*
X0040194Y0060281D01*
X0036300Y0060281D01*
X0033547Y0057527D01*
X0033547Y0053634D01*
X0036300Y0050881D01*
X0035640Y0049621D02*
X0030775Y0049621D01*
X0032323Y0048022D02*
X0034041Y0048022D01*
X0033547Y0046424D02*
X0032947Y0046424D01*
X0032947Y0044825D02*
X0033547Y0044825D01*
X0034363Y0052818D02*
X0032130Y0052818D01*
X0032947Y0054416D02*
X0033547Y0054416D01*
X0033547Y0056015D02*
X0032947Y0056015D01*
X0032861Y0057613D02*
X0033632Y0057613D01*
X0035231Y0059212D02*
X0031263Y0059212D01*
X0031721Y0062409D02*
X0034772Y0062409D01*
X0033547Y0063634D02*
X0036300Y0060881D01*
X0040194Y0060881D01*
X0042947Y0063634D01*
X0042947Y0067527D01*
X0040194Y0070281D01*
X0036300Y0070281D01*
X0033547Y0067527D01*
X0033547Y0063634D01*
X0033547Y0064007D02*
X0032947Y0064007D01*
X0032947Y0065606D02*
X0033547Y0065606D01*
X0033547Y0067204D02*
X0032947Y0067204D01*
X0031671Y0068803D02*
X0034822Y0068803D01*
X0035181Y0072000D02*
X0031313Y0072000D01*
X0032911Y0073598D02*
X0033582Y0073598D01*
X0033547Y0075197D02*
X0032947Y0075197D01*
X0032947Y0076795D02*
X0033547Y0076795D01*
X0034413Y0078394D02*
X0032080Y0078394D01*
X0030482Y0079992D02*
X0036012Y0079992D01*
X0036300Y0080281D02*
X0040194Y0080281D01*
X0042388Y0078086D01*
X0042403Y0078120D01*
X0044211Y0079929D01*
X0046574Y0080907D01*
X0049132Y0080907D01*
X0051495Y0079929D01*
X0053303Y0078120D01*
X0054282Y0075757D01*
X0054282Y0074669D01*
X0054431Y0075126D01*
X0054749Y0075752D01*
X0055162Y0076319D01*
X0055658Y0076815D01*
X0056225Y0077228D01*
X0056719Y0077479D01*
X0052841Y0081357D01*
X0052687Y0081730D01*
X0049072Y0081730D01*
X0047900Y0082902D01*
X0047900Y0090464D01*
X0049072Y0091636D01*
X0051622Y0091636D01*
X0051622Y0093344D01*
X0049072Y0093344D01*
X0047900Y0094516D01*
X0047900Y0109362D01*
X0049072Y0110533D01*
X0060957Y0110533D01*
X0061277Y0110853D01*
X0062453Y0111340D01*
X0063726Y0111340D01*
X0064902Y0110853D01*
X0065802Y0109952D01*
X0066289Y0108776D01*
X0066289Y0107503D01*
X0065802Y0106327D01*
X0064902Y0105427D01*
X0063726Y0104940D01*
X0063425Y0104940D01*
X0062530Y0104045D01*
X0062530Y0103775D01*
X0068551Y0097755D01*
X0068551Y0108389D01*
X0064707Y0112233D01*
X0064220Y0113409D01*
X0064220Y0114682D01*
X0064707Y0115858D01*
X0065607Y0116758D01*
X0055990Y0116758D01*
X0055990Y0117182D02*
X0062330Y0117182D01*
X0062330Y0119794D01*
X0062208Y0120252D01*
X0061971Y0120662D01*
X0061635Y0120997D01*
X0061225Y0121234D01*
X0060767Y0121357D01*
X0055990Y0121357D01*
X0055990Y0117182D01*
X0055990Y0115633D01*
X0062330Y0115633D01*
X0062330Y0113021D01*
X0062208Y0112563D01*
X0061971Y0112153D01*
X0061635Y0111818D01*
X0061225Y0111581D01*
X0060767Y0111458D01*
X0055990Y0111458D01*
X0055990Y0115633D01*
X0054440Y0115633D01*
X0048100Y0115633D01*
X0048100Y0113021D01*
X0048223Y0112563D01*
X0048460Y0112153D01*
X0048795Y0111818D01*
X0049205Y0111581D01*
X0049663Y0111458D01*
X0054440Y0111458D01*
X0054440Y0115633D01*
X0054440Y0117182D01*
X0048100Y0117182D01*
X0048100Y0119794D01*
X0048223Y0120252D01*
X0048460Y0120662D01*
X0048795Y0120997D01*
X0049205Y0121234D01*
X0049663Y0121357D01*
X0054440Y0121357D01*
X0054440Y0117182D01*
X0055990Y0117182D01*
X0055990Y0118357D02*
X0054440Y0118357D01*
X0054440Y0119955D02*
X0055990Y0119955D01*
X0054440Y0116758D02*
X0042947Y0116758D01*
X0042947Y0115160D02*
X0048100Y0115160D01*
X0048100Y0113561D02*
X0042874Y0113561D01*
X0041275Y0111963D02*
X0048650Y0111963D01*
X0048902Y0110364D02*
X0026138Y0110364D01*
X0026138Y0100773D02*
X0047900Y0100773D01*
X0047900Y0102371D02*
X0041684Y0102371D01*
X0042947Y0103970D02*
X0047900Y0103970D01*
X0047900Y0105568D02*
X0042947Y0105568D01*
X0042947Y0107167D02*
X0047900Y0107167D01*
X0047900Y0108766D02*
X0041709Y0108766D01*
X0042118Y0118357D02*
X0048100Y0118357D01*
X0048143Y0119955D02*
X0040519Y0119955D01*
X0040866Y0121554D02*
X0065029Y0121554D01*
X0065029Y0122424D02*
X0065029Y0120108D01*
X0065152Y0119650D01*
X0065389Y0119239D01*
X0065724Y0118904D01*
X0066135Y0118667D01*
X0066592Y0118544D01*
X0069303Y0118544D01*
X0069303Y0122424D01*
X0065029Y0122424D01*
X0065029Y0124751D02*
X0042947Y0124751D01*
X0042947Y0126349D02*
X0065263Y0126349D01*
X0064829Y0127948D02*
X0042527Y0127948D01*
X0040928Y0129546D02*
X0064829Y0129546D01*
X0064829Y0131145D02*
X0040457Y0131145D01*
X0042056Y0132743D02*
X0064829Y0132743D01*
X0064385Y0134342D02*
X0042947Y0134342D01*
X0042947Y0135940D02*
X0062007Y0135940D01*
X0061287Y0137539D02*
X0042935Y0137539D01*
X0041337Y0139137D02*
X0061268Y0139137D01*
X0061917Y0140736D02*
X0026138Y0140736D01*
X0032837Y0153524D02*
X0033657Y0153524D01*
X0033547Y0155122D02*
X0032947Y0155122D01*
X0032947Y0156721D02*
X0033547Y0156721D01*
X0034339Y0158319D02*
X0032155Y0158319D01*
X0040556Y0159918D02*
X0049974Y0159918D01*
X0049533Y0158319D02*
X0042155Y0158319D01*
X0042947Y0156721D02*
X0049533Y0156721D01*
X0049533Y0155122D02*
X0042947Y0155122D01*
X0042837Y0153524D02*
X0049533Y0153524D01*
X0049775Y0151925D02*
X0041238Y0151925D01*
X0041746Y0148728D02*
X0081549Y0148728D01*
X0081549Y0147130D02*
X0042947Y0147130D01*
X0042947Y0145531D02*
X0081549Y0145531D01*
X0081549Y0143933D02*
X0042947Y0143933D01*
X0041647Y0142334D02*
X0064005Y0142334D01*
X0067727Y0142334D02*
X0067727Y0142334D01*
X0067727Y0140736D02*
X0067727Y0140736D01*
X0067727Y0139137D02*
X0067727Y0139137D01*
X0071449Y0142334D02*
X0081549Y0142334D01*
X0081504Y0140736D02*
X0073537Y0140736D01*
X0074186Y0139137D02*
X0081149Y0139137D01*
X0084349Y0139242D02*
X0084349Y0149872D01*
X0082443Y0151925D02*
X0057616Y0151925D01*
X0057858Y0153524D02*
X0084041Y0153524D01*
X0085810Y0155122D02*
X0057858Y0155122D01*
X0057858Y0156721D02*
X0087664Y0156721D01*
X0088150Y0159918D02*
X0057417Y0159918D01*
X0057858Y0158319D02*
X0101333Y0158319D01*
X0102080Y0160607D02*
X0102094Y0160659D01*
X0102094Y0163270D01*
X0095754Y0163270D01*
X0095754Y0164820D01*
X0102094Y0164820D01*
X0102094Y0166357D01*
X0106646Y0166357D01*
X0106946Y0166057D01*
X0108122Y0165570D01*
X0109395Y0165570D01*
X0110571Y0166057D01*
X0111471Y0166957D01*
X0111959Y0168133D01*
X0111959Y0169406D01*
X0111471Y0170582D01*
X0110571Y0171483D01*
X0109784Y0172270D01*
X0109166Y0172526D01*
X0111078Y0174437D01*
X0111565Y0175613D01*
X0111565Y0176850D01*
X0112006Y0175786D01*
X0113018Y0174773D01*
X0114342Y0174225D01*
X0115774Y0174225D01*
X0117097Y0174773D01*
X0117730Y0175406D01*
X0118570Y0175406D01*
X0118570Y0173889D01*
X0118450Y0173938D01*
X0117177Y0173938D01*
X0116001Y0173451D01*
X0115101Y0172551D01*
X0114614Y0171375D01*
X0114614Y0170102D01*
X0115101Y0168926D01*
X0116001Y0168025D01*
X0116844Y0167676D01*
X0116601Y0167433D01*
X0116601Y0161051D01*
X0117544Y0160108D01*
X0116601Y0159165D01*
X0116601Y0158423D01*
X0115807Y0158094D01*
X0115104Y0157391D01*
X0115104Y0157391D01*
X0110391Y0152678D01*
X0110091Y0152678D01*
X0110058Y0152665D01*
X0110058Y0158921D01*
X0109394Y0160524D01*
X0108167Y0161751D01*
X0106563Y0162415D01*
X0104828Y0162415D01*
X0103225Y0161751D01*
X0102080Y0160607D01*
X0102094Y0161516D02*
X0102990Y0161516D01*
X0102094Y0163115D02*
X0116601Y0163115D01*
X0116601Y0164713D02*
X0095754Y0164713D01*
X0094979Y0164045D02*
X0091436Y0160502D01*
X0060333Y0160502D01*
X0056003Y0164833D01*
X0051278Y0164833D01*
X0051381Y0161516D02*
X0040546Y0161516D01*
X0040420Y0171107D02*
X0063408Y0171107D01*
X0061371Y0172706D02*
X0042019Y0172706D01*
X0042947Y0174304D02*
X0059409Y0174304D01*
X0058914Y0175903D02*
X0042947Y0175903D01*
X0042947Y0177502D02*
X0059121Y0177502D01*
X0060198Y0179100D02*
X0041374Y0179100D01*
X0041610Y0182297D02*
X0070432Y0182297D01*
X0064623Y0183896D02*
X0042947Y0183896D01*
X0042947Y0185494D02*
X0064239Y0185494D01*
X0064239Y0187093D02*
X0042947Y0187093D01*
X0072059Y0196684D02*
X0074198Y0196684D01*
X0073294Y0195085D02*
X0072963Y0195085D01*
X0072963Y0193487D02*
X0073294Y0193487D01*
X0095006Y0179100D02*
X0104771Y0179100D01*
X0104771Y0177502D02*
X0094063Y0177502D01*
X0095833Y0180699D02*
X0104771Y0180699D01*
X0104771Y0182297D02*
X0095904Y0182297D01*
X0095904Y0183896D02*
X0104771Y0183896D01*
X0104771Y0185494D02*
X0095904Y0185494D01*
X0095904Y0187093D02*
X0104771Y0187093D01*
X0104584Y0188498D02*
X0104584Y0188498D01*
X0104390Y0188691D02*
X0095904Y0188691D01*
X0095904Y0190290D02*
X0103314Y0190290D01*
X0103213Y0191888D02*
X0095904Y0191888D01*
X0095904Y0193487D02*
X0104147Y0193487D01*
X0108646Y0193487D02*
X0123497Y0193487D01*
X0123269Y0195085D02*
X0095427Y0195085D01*
X0110244Y0191888D02*
X0124643Y0191888D01*
X0126242Y0190290D02*
X0111164Y0190290D01*
X0111171Y0188691D02*
X0127840Y0188691D01*
X0129439Y0187093D02*
X0111171Y0187093D01*
X0111171Y0185494D02*
X0119505Y0185494D01*
X0118570Y0183896D02*
X0111171Y0183896D01*
X0111171Y0182297D02*
X0114777Y0182297D01*
X0112840Y0180699D02*
X0111171Y0180699D01*
X0111171Y0179100D02*
X0111689Y0179100D01*
X0111458Y0177502D02*
X0111310Y0177502D01*
X0111565Y0175903D02*
X0111957Y0175903D01*
X0110945Y0174304D02*
X0114149Y0174304D01*
X0115966Y0174304D02*
X0118570Y0174304D01*
X0120638Y0172281D02*
X0127430Y0172281D01*
X0126912Y0171763D01*
X0126425Y0170587D01*
X0126425Y0169872D01*
X0126337Y0169661D01*
X0126337Y0168666D01*
X0126337Y0168604D01*
X0125647Y0168604D01*
X0124900Y0167858D01*
X0124154Y0168604D01*
X0123248Y0168604D01*
X0123083Y0169005D01*
X0121014Y0171074D01*
X0121014Y0171375D01*
X0120638Y0172281D01*
X0121014Y0171107D02*
X0126640Y0171107D01*
X0126337Y0169509D02*
X0122578Y0169509D01*
X0124848Y0167910D02*
X0124953Y0167910D01*
X0124900Y0160626D02*
X0124382Y0160108D01*
X0124900Y0159590D01*
X0125418Y0160108D01*
X0124900Y0160626D01*
X0124573Y0159918D02*
X0125228Y0159918D01*
X0132256Y0160108D02*
X0132774Y0160626D01*
X0133292Y0160108D01*
X0132774Y0159590D01*
X0132256Y0160108D01*
X0132447Y0159918D02*
X0133102Y0159918D01*
X0133208Y0151925D02*
X0132341Y0151925D01*
X0125334Y0151925D02*
X0124467Y0151925D01*
X0117459Y0151925D02*
X0116710Y0151925D01*
X0112836Y0155122D02*
X0110058Y0155122D01*
X0110058Y0153524D02*
X0111237Y0153524D01*
X0110058Y0156721D02*
X0114434Y0156721D01*
X0116352Y0158319D02*
X0110058Y0158319D01*
X0109645Y0159918D02*
X0117354Y0159918D01*
X0116601Y0161516D02*
X0108401Y0161516D01*
X0106691Y0166312D02*
X0102094Y0166312D01*
X0095754Y0163115D02*
X0094204Y0163115D01*
X0094204Y0164713D02*
X0076715Y0164713D01*
X0078543Y0166312D02*
X0087864Y0166312D01*
X0094204Y0161516D02*
X0095754Y0161516D01*
X0095754Y0159918D02*
X0094204Y0159918D01*
X0081549Y0150327D02*
X0056580Y0150327D01*
X0071948Y0132549D02*
X0069782Y0130384D01*
X0071948Y0132549D02*
X0086215Y0132549D01*
X0091344Y0126349D02*
X0074302Y0126349D01*
X0074535Y0124751D02*
X0093180Y0124751D01*
X0096145Y0119955D02*
X0109954Y0119955D01*
X0109911Y0118357D02*
X0096188Y0118357D01*
X0096188Y0115160D02*
X0109911Y0115160D01*
X0109911Y0113561D02*
X0096188Y0113561D01*
X0095639Y0111963D02*
X0110461Y0111963D01*
X0110713Y0110364D02*
X0095386Y0110364D01*
X0096388Y0108766D02*
X0109711Y0108766D01*
X0109711Y0107167D02*
X0096388Y0107167D01*
X0096388Y0105568D02*
X0109711Y0105568D01*
X0110105Y0097847D02*
X0106534Y0097847D01*
X0106534Y0097173D01*
X0106747Y0096960D01*
X0107234Y0095784D01*
X0107234Y0094511D01*
X0106747Y0093335D01*
X0105847Y0092435D01*
X0104671Y0091948D01*
X0103398Y0091948D01*
X0102221Y0092435D01*
X0101321Y0093335D01*
X0100834Y0094511D01*
X0100834Y0095784D01*
X0101321Y0096960D01*
X0101534Y0097173D01*
X0101534Y0097847D01*
X0096388Y0097847D01*
X0096388Y0093335D01*
X0095217Y0092163D01*
X0092667Y0092163D01*
X0092667Y0090455D01*
X0095217Y0090455D01*
X0096388Y0089283D01*
X0096388Y0081721D01*
X0095217Y0080549D01*
X0093852Y0080549D01*
X0094203Y0080199D01*
X0094814Y0079587D01*
X0095156Y0079929D01*
X0097519Y0080907D01*
X0100077Y0080907D01*
X0102440Y0079929D01*
X0102853Y0079515D01*
X0103266Y0079929D01*
X0105629Y0080907D01*
X0108187Y0080907D01*
X0110550Y0079929D01*
X0112358Y0078120D01*
X0113337Y0075757D01*
X0113337Y0074669D01*
X0113486Y0075126D01*
X0113804Y0075752D01*
X0114217Y0076319D01*
X0114713Y0076815D01*
X0115281Y0077228D01*
X0115906Y0077546D01*
X0116573Y0077763D01*
X0116998Y0077830D01*
X0115046Y0079782D01*
X0114728Y0080549D01*
X0111277Y0080549D01*
X0110105Y0081721D01*
X0110105Y0089283D01*
X0111277Y0090455D01*
X0114614Y0090455D01*
X0114614Y0092163D01*
X0111277Y0092163D01*
X0110105Y0093335D01*
X0110105Y0097847D01*
X0110105Y0097576D02*
X0106534Y0097576D01*
X0107154Y0095977D02*
X0110105Y0095977D01*
X0110105Y0094379D02*
X0107179Y0094379D01*
X0106192Y0092780D02*
X0110660Y0092780D01*
X0110405Y0089583D02*
X0096088Y0089583D01*
X0096388Y0087985D02*
X0110105Y0087985D01*
X0110105Y0086386D02*
X0096388Y0086386D01*
X0096388Y0084788D02*
X0110105Y0084788D01*
X0110105Y0083189D02*
X0096388Y0083189D01*
X0096258Y0081591D02*
X0110235Y0081591D01*
X0110396Y0079992D02*
X0114959Y0079992D01*
X0116434Y0078394D02*
X0112085Y0078394D01*
X0112907Y0076795D02*
X0114693Y0076795D01*
X0113522Y0075197D02*
X0113337Y0075197D01*
X0113337Y0073501D02*
X0117531Y0073501D01*
X0117531Y0073330D01*
X0113337Y0073330D01*
X0113337Y0073501D01*
X0113193Y0072851D02*
X0113269Y0072372D01*
X0113486Y0071704D01*
X0113804Y0071079D01*
X0114217Y0070511D01*
X0114713Y0070015D01*
X0115270Y0069611D01*
X0114979Y0069490D01*
X0113668Y0068180D01*
X0112959Y0066468D01*
X0112959Y0064615D01*
X0113668Y0062903D01*
X0114967Y0061604D01*
X0113668Y0060306D01*
X0112959Y0058594D01*
X0112959Y0056741D01*
X0113668Y0055029D01*
X0114967Y0053730D01*
X0113668Y0052432D01*
X0112959Y0050720D01*
X0112959Y0049111D01*
X0112358Y0050561D01*
X0110550Y0052370D01*
X0108187Y0053348D01*
X0105629Y0053348D01*
X0103266Y0052370D01*
X0102853Y0051956D01*
X0102440Y0052370D01*
X0100077Y0053348D01*
X0097519Y0053348D01*
X0095156Y0052370D01*
X0093348Y0050561D01*
X0092747Y0049111D01*
X0092747Y0050491D01*
X0094991Y0052735D01*
X0095417Y0053764D01*
X0095417Y0068920D01*
X0097519Y0068049D01*
X0100077Y0068049D01*
X0102440Y0069028D01*
X0102853Y0069441D01*
X0103266Y0069028D01*
X0105629Y0068049D01*
X0108187Y0068049D01*
X0110550Y0069028D01*
X0112358Y0070837D01*
X0113193Y0072851D01*
X0113390Y0072000D02*
X0112840Y0072000D01*
X0113089Y0070344D02*
X0113089Y0053809D01*
X0111908Y0052628D01*
X0113089Y0051447D01*
X0113089Y0045541D01*
X0113877Y0044754D01*
X0120176Y0044754D01*
X0122144Y0046722D01*
X0122144Y0049478D01*
X0126081Y0053415D01*
X0138286Y0053415D01*
X0140255Y0055384D01*
X0140255Y0066526D01*
X0142361Y0068632D01*
X0142755Y0069026D01*
X0147144Y0073415D01*
X0147059Y0073501D02*
X0147059Y0077873D01*
X0146794Y0077873D01*
X0146101Y0077763D01*
X0145433Y0077546D01*
X0144808Y0077228D01*
X0144240Y0076815D01*
X0143744Y0076319D01*
X0143332Y0075752D01*
X0143013Y0075126D01*
X0142865Y0074669D01*
X0142865Y0075757D01*
X0141886Y0078120D01*
X0140077Y0079929D01*
X0137715Y0080907D01*
X0135157Y0080907D01*
X0132794Y0079929D01*
X0132381Y0079515D01*
X0131967Y0079929D01*
X0129604Y0080907D01*
X0127047Y0080907D01*
X0124684Y0079929D01*
X0123751Y0078996D01*
X0123730Y0079017D01*
X0122199Y0080549D01*
X0123563Y0080549D01*
X0124735Y0081721D01*
X0124735Y0089283D01*
X0123563Y0090455D01*
X0121014Y0090455D01*
X0121014Y0092163D01*
X0123563Y0092163D01*
X0124735Y0093335D01*
X0124735Y0098247D01*
X0125944Y0098247D01*
X0125944Y0094650D01*
X0126031Y0094439D01*
X0126031Y0093724D01*
X0126518Y0092548D01*
X0127418Y0091647D01*
X0128594Y0091160D01*
X0129867Y0091160D01*
X0131044Y0091647D01*
X0131944Y0092548D01*
X0132431Y0093724D01*
X0132431Y0093874D01*
X0132817Y0092941D01*
X0134786Y0090973D01*
X0135686Y0090073D01*
X0135815Y0090019D01*
X0134667Y0088871D01*
X0134003Y0087267D01*
X0134003Y0085532D01*
X0134667Y0083929D01*
X0135894Y0082702D01*
X0137497Y0082037D01*
X0143957Y0082037D01*
X0145560Y0082702D01*
X0145932Y0083073D01*
X0145932Y0081721D01*
X0147103Y0080549D01*
X0150043Y0080549D01*
X0149298Y0079805D01*
X0148872Y0078775D01*
X0148872Y0077538D01*
X0148855Y0077546D01*
X0148188Y0077763D01*
X0147495Y0077873D01*
X0147230Y0077873D01*
X0147230Y0073501D01*
X0147059Y0073501D01*
X0147059Y0073598D02*
X0147230Y0073598D01*
X0147230Y0075197D02*
X0147059Y0075197D01*
X0147059Y0076795D02*
X0147230Y0076795D01*
X0148872Y0078394D02*
X0141612Y0078394D01*
X0142435Y0076795D02*
X0144220Y0076795D01*
X0143049Y0075197D02*
X0142865Y0075197D01*
X0142721Y0072851D02*
X0142797Y0072372D01*
X0143013Y0071704D01*
X0143332Y0071079D01*
X0143744Y0070511D01*
X0144240Y0070015D01*
X0144798Y0069611D01*
X0144506Y0069490D01*
X0143196Y0068180D01*
X0142487Y0066468D01*
X0142487Y0064615D01*
X0143196Y0062903D01*
X0144495Y0061604D01*
X0143196Y0060306D01*
X0142487Y0058594D01*
X0142487Y0056741D01*
X0143196Y0055029D01*
X0144495Y0053730D01*
X0143196Y0052432D01*
X0142487Y0050720D01*
X0142487Y0049111D01*
X0141886Y0050561D01*
X0140077Y0052370D01*
X0137715Y0053348D01*
X0135157Y0053348D01*
X0132794Y0052370D01*
X0132381Y0051956D01*
X0131967Y0052370D01*
X0129604Y0053348D01*
X0127047Y0053348D01*
X0124684Y0052370D01*
X0122875Y0050561D01*
X0122274Y0049111D01*
X0122274Y0050491D01*
X0124518Y0052735D01*
X0124944Y0053764D01*
X0124944Y0068920D01*
X0127047Y0068049D01*
X0129604Y0068049D01*
X0131967Y0069028D01*
X0132381Y0069441D01*
X0132794Y0069028D01*
X0135157Y0068049D01*
X0137715Y0068049D01*
X0140077Y0069028D01*
X0141886Y0070837D01*
X0142721Y0072851D01*
X0142917Y0072000D02*
X0142368Y0072000D01*
X0141451Y0070401D02*
X0143855Y0070401D01*
X0143819Y0068803D02*
X0139534Y0068803D01*
X0142792Y0067204D02*
X0124944Y0067204D01*
X0124944Y0065606D02*
X0142487Y0065606D01*
X0142739Y0064007D02*
X0124944Y0064007D01*
X0124944Y0062409D02*
X0143690Y0062409D01*
X0143701Y0060810D02*
X0124944Y0060810D01*
X0124944Y0059212D02*
X0142743Y0059212D01*
X0142487Y0057613D02*
X0124944Y0057613D01*
X0124944Y0056015D02*
X0142788Y0056015D01*
X0143809Y0054416D02*
X0124944Y0054416D01*
X0124552Y0052818D02*
X0125765Y0052818D01*
X0123533Y0051219D02*
X0123002Y0051219D01*
X0122486Y0049621D02*
X0122274Y0049621D01*
X0121896Y0047954D02*
X0121896Y0045640D01*
X0122729Y0043630D01*
X0112504Y0043630D01*
X0113337Y0045640D01*
X0113337Y0047954D01*
X0113668Y0047155D01*
X0114979Y0045845D01*
X0116690Y0045136D01*
X0118543Y0045136D01*
X0120255Y0045845D01*
X0121565Y0047155D01*
X0121896Y0047954D01*
X0121896Y0046424D02*
X0120834Y0046424D01*
X0122234Y0044825D02*
X0112999Y0044825D01*
X0113337Y0046424D02*
X0114400Y0046424D01*
X0112959Y0049621D02*
X0112748Y0049621D01*
X0113166Y0051219D02*
X0111700Y0051219D01*
X0111908Y0052628D02*
X0110333Y0054203D01*
X0097341Y0054203D01*
X0092223Y0049085D01*
X0092223Y0046722D01*
X0089861Y0044360D01*
X0085924Y0044360D01*
X0083562Y0046722D01*
X0083562Y0050659D01*
X0083562Y0068888D01*
X0088089Y0073415D01*
X0088003Y0073501D02*
X0088003Y0077873D01*
X0087738Y0077873D01*
X0087045Y0077763D01*
X0086378Y0077546D01*
X0085753Y0077228D01*
X0085185Y0076815D01*
X0084689Y0076319D01*
X0084277Y0075752D01*
X0083958Y0075126D01*
X0083810Y0074669D01*
X0083810Y0075757D01*
X0082831Y0078120D01*
X0081022Y0079929D01*
X0078659Y0080907D01*
X0076102Y0080907D01*
X0073739Y0079929D01*
X0073325Y0079515D01*
X0072912Y0079929D01*
X0070549Y0080907D01*
X0067991Y0080907D01*
X0065629Y0079929D01*
X0063909Y0078209D01*
X0060388Y0081730D01*
X0061359Y0081730D01*
X0062530Y0082902D01*
X0062530Y0083065D01*
X0062894Y0082702D01*
X0064497Y0082037D01*
X0070957Y0082037D01*
X0072560Y0082702D01*
X0073787Y0083929D01*
X0074451Y0085532D01*
X0074451Y0087267D01*
X0073787Y0088871D01*
X0073072Y0089585D01*
X0074749Y0089585D01*
X0075926Y0090073D01*
X0080698Y0094845D01*
X0081664Y0095245D01*
X0081759Y0095340D01*
X0081759Y0093335D01*
X0082930Y0092163D01*
X0086267Y0092163D01*
X0086267Y0090455D01*
X0082930Y0090455D01*
X0081759Y0089283D01*
X0081759Y0081721D01*
X0082930Y0080549D01*
X0086382Y0080549D01*
X0086700Y0079782D01*
X0088641Y0077841D01*
X0088440Y0077873D01*
X0088175Y0077873D01*
X0088175Y0073501D01*
X0088003Y0073501D01*
X0088003Y0073598D02*
X0088175Y0073598D01*
X0088175Y0075197D02*
X0088003Y0075197D01*
X0088003Y0076795D02*
X0088175Y0076795D01*
X0088088Y0078394D02*
X0082557Y0078394D01*
X0083380Y0076795D02*
X0085165Y0076795D01*
X0083994Y0075197D02*
X0083810Y0075197D01*
X0083666Y0072851D02*
X0083742Y0072372D01*
X0083958Y0071704D01*
X0084277Y0071079D01*
X0084689Y0070511D01*
X0085185Y0070015D01*
X0085743Y0069611D01*
X0085451Y0069490D01*
X0084141Y0068180D01*
X0083432Y0066468D01*
X0083432Y0064615D01*
X0084141Y0062903D01*
X0085440Y0061604D01*
X0084141Y0060306D01*
X0083432Y0058594D01*
X0083432Y0056741D01*
X0084141Y0055029D01*
X0085440Y0053730D01*
X0084141Y0052432D01*
X0083432Y0050720D01*
X0083432Y0049111D01*
X0082831Y0050561D01*
X0081022Y0052370D01*
X0078659Y0053348D01*
X0076102Y0053348D01*
X0073739Y0052370D01*
X0073325Y0051956D01*
X0072912Y0052370D01*
X0070549Y0053348D01*
X0067991Y0053348D01*
X0065629Y0052370D01*
X0063820Y0050561D01*
X0063219Y0049111D01*
X0063219Y0050491D01*
X0065463Y0052735D01*
X0065889Y0053764D01*
X0065889Y0068920D01*
X0067991Y0068049D01*
X0070549Y0068049D01*
X0072912Y0069028D01*
X0073325Y0069441D01*
X0073739Y0069028D01*
X0076102Y0068049D01*
X0078659Y0068049D01*
X0081022Y0069028D01*
X0082831Y0070837D01*
X0083666Y0072851D01*
X0083862Y0072000D02*
X0083313Y0072000D01*
X0082396Y0070401D02*
X0084800Y0070401D01*
X0084764Y0068803D02*
X0080479Y0068803D01*
X0083737Y0067204D02*
X0065889Y0067204D01*
X0065889Y0065606D02*
X0083432Y0065606D01*
X0083683Y0064007D02*
X0065889Y0064007D01*
X0065889Y0062409D02*
X0084635Y0062409D01*
X0084645Y0060810D02*
X0065889Y0060810D01*
X0065889Y0059212D02*
X0083688Y0059212D01*
X0083432Y0057613D02*
X0065889Y0057613D01*
X0065889Y0056015D02*
X0083733Y0056015D01*
X0084754Y0054416D02*
X0065889Y0054416D01*
X0065497Y0052818D02*
X0066710Y0052818D01*
X0067814Y0054990D02*
X0079231Y0054990D01*
X0083562Y0050659D01*
X0083639Y0051219D02*
X0082173Y0051219D01*
X0083220Y0049621D02*
X0083432Y0049621D01*
X0083810Y0047954D02*
X0084141Y0047155D01*
X0085451Y0045845D01*
X0087163Y0045136D01*
X0089016Y0045136D01*
X0090727Y0045845D01*
X0092038Y0047155D01*
X0092369Y0047954D01*
X0092369Y0045640D01*
X0093202Y0043630D01*
X0082977Y0043630D01*
X0083810Y0045640D01*
X0083810Y0047954D01*
X0083810Y0046424D02*
X0084872Y0046424D01*
X0083472Y0044825D02*
X0092707Y0044825D01*
X0092369Y0046424D02*
X0091306Y0046424D01*
X0092747Y0049621D02*
X0092958Y0049621D01*
X0093475Y0051219D02*
X0094006Y0051219D01*
X0095025Y0052818D02*
X0096238Y0052818D01*
X0095417Y0054416D02*
X0114281Y0054416D01*
X0114054Y0052818D02*
X0109468Y0052818D01*
X0113260Y0056015D02*
X0095417Y0056015D01*
X0095417Y0057613D02*
X0112959Y0057613D01*
X0113215Y0059212D02*
X0095417Y0059212D01*
X0095417Y0060810D02*
X0114173Y0060810D01*
X0114163Y0062409D02*
X0095417Y0062409D01*
X0095417Y0064007D02*
X0113211Y0064007D01*
X0112959Y0065606D02*
X0095417Y0065606D01*
X0095417Y0067204D02*
X0113264Y0067204D01*
X0114292Y0068803D02*
X0110006Y0068803D01*
X0111923Y0070401D02*
X0114327Y0070401D01*
X0113089Y0070344D02*
X0116160Y0073415D01*
X0117617Y0073415D01*
X0122144Y0076644D02*
X0122144Y0054321D01*
X0117617Y0049793D01*
X0130886Y0052818D02*
X0133875Y0052818D01*
X0138996Y0052818D02*
X0143582Y0052818D01*
X0142694Y0051219D02*
X0141228Y0051219D01*
X0142276Y0049621D02*
X0142487Y0049621D01*
X0142865Y0047954D02*
X0143196Y0047155D01*
X0144506Y0045845D01*
X0146218Y0045136D01*
X0148071Y0045136D01*
X0149783Y0045845D01*
X0151093Y0047155D01*
X0151424Y0047954D01*
X0151424Y0045640D01*
X0152257Y0043630D01*
X0142032Y0043630D01*
X0142865Y0045640D01*
X0142865Y0047954D01*
X0142865Y0046424D02*
X0143927Y0046424D01*
X0142527Y0044825D02*
X0151762Y0044825D01*
X0151424Y0046424D02*
X0150361Y0046424D01*
X0151802Y0049621D02*
X0152013Y0049621D01*
X0152530Y0051219D02*
X0153061Y0051219D01*
X0154080Y0052818D02*
X0155293Y0052818D01*
X0154472Y0054416D02*
X0163547Y0054416D01*
X0163547Y0053634D02*
X0166300Y0050881D01*
X0170194Y0050881D01*
X0172947Y0053634D01*
X0172947Y0057527D01*
X0170194Y0060281D01*
X0166300Y0060281D01*
X0163547Y0057527D01*
X0163547Y0053634D01*
X0164363Y0052818D02*
X0160413Y0052818D01*
X0162645Y0051219D02*
X0165962Y0051219D01*
X0165718Y0049621D02*
X0163693Y0049621D01*
X0163708Y0044255D02*
X0163968Y0043630D01*
X0163449Y0043630D01*
X0163708Y0044255D01*
X0170775Y0049621D02*
X0175640Y0049621D01*
X0175962Y0051219D02*
X0170532Y0051219D01*
X0172130Y0052818D02*
X0174363Y0052818D01*
X0173547Y0054416D02*
X0172947Y0054416D01*
X0172947Y0056015D02*
X0173547Y0056015D01*
X0173632Y0057613D02*
X0172861Y0057613D01*
X0171263Y0059212D02*
X0175231Y0059212D01*
X0174772Y0062409D02*
X0171721Y0062409D01*
X0172947Y0063634D02*
X0170194Y0060881D01*
X0166300Y0060881D01*
X0163547Y0063634D01*
X0163547Y0067527D01*
X0166300Y0070281D01*
X0170194Y0070281D01*
X0172947Y0067527D01*
X0172947Y0063634D01*
X0172947Y0064007D02*
X0173547Y0064007D01*
X0173547Y0065606D02*
X0172947Y0065606D01*
X0172947Y0067204D02*
X0173547Y0067204D01*
X0174822Y0068803D02*
X0171671Y0068803D01*
X0171313Y0072000D02*
X0175181Y0072000D01*
X0173582Y0073598D02*
X0172911Y0073598D01*
X0172947Y0075197D02*
X0173547Y0075197D01*
X0173547Y0076795D02*
X0172947Y0076795D01*
X0172080Y0078394D02*
X0174413Y0078394D01*
X0176012Y0079992D02*
X0170482Y0079992D01*
X0170194Y0080881D02*
X0172947Y0083634D01*
X0172947Y0087527D01*
X0170194Y0090281D01*
X0166300Y0090281D01*
X0163547Y0087527D01*
X0163547Y0083634D01*
X0166300Y0080881D01*
X0170194Y0080881D01*
X0170904Y0081591D02*
X0175590Y0081591D01*
X0173991Y0083189D02*
X0172502Y0083189D01*
X0172947Y0084788D02*
X0173547Y0084788D01*
X0173547Y0086386D02*
X0172947Y0086386D01*
X0172489Y0087985D02*
X0174004Y0087985D01*
X0175603Y0089583D02*
X0170891Y0089583D01*
X0170194Y0090881D02*
X0172947Y0093634D01*
X0172947Y0097527D01*
X0170194Y0100281D01*
X0166300Y0100281D01*
X0163547Y0097527D01*
X0163547Y0093634D01*
X0166300Y0090881D01*
X0170194Y0090881D01*
X0170495Y0091182D02*
X0175999Y0091182D01*
X0174400Y0092780D02*
X0172093Y0092780D01*
X0172947Y0094379D02*
X0173547Y0094379D01*
X0173547Y0095977D02*
X0172947Y0095977D01*
X0172898Y0097576D02*
X0173595Y0097576D01*
X0175194Y0099174D02*
X0171300Y0099174D01*
X0171684Y0102371D02*
X0174809Y0102371D01*
X0173547Y0103970D02*
X0172947Y0103970D01*
X0172947Y0105568D02*
X0173547Y0105568D01*
X0173547Y0107167D02*
X0172947Y0107167D01*
X0171709Y0108766D02*
X0174785Y0108766D01*
X0175218Y0111963D02*
X0170992Y0111963D01*
X0170111Y0111081D02*
X0168347Y0111081D01*
X0168347Y0115481D01*
X0168347Y0115681D01*
X0168147Y0115681D01*
X0168147Y0120081D01*
X0166383Y0120081D01*
X0163747Y0117445D01*
X0163747Y0115681D01*
X0168147Y0115681D01*
X0168147Y0115481D01*
X0163747Y0115481D01*
X0163747Y0113717D01*
X0166383Y0111081D01*
X0168147Y0111081D01*
X0168147Y0115481D01*
X0168347Y0115481D01*
X0172747Y0115481D01*
X0172747Y0113717D01*
X0170111Y0111081D01*
X0168347Y0111963D02*
X0168147Y0111963D01*
X0168147Y0113561D02*
X0168347Y0113561D01*
X0168347Y0115160D02*
X0168147Y0115160D01*
X0168347Y0115681D02*
X0172747Y0115681D01*
X0172747Y0117445D01*
X0170111Y0120081D01*
X0168347Y0120081D01*
X0168347Y0115681D01*
X0168347Y0116758D02*
X0168147Y0116758D01*
X0168147Y0118357D02*
X0168347Y0118357D01*
X0168347Y0119955D02*
X0168147Y0119955D01*
X0166257Y0119955D02*
X0160319Y0119955D01*
X0160362Y0118357D02*
X0164659Y0118357D01*
X0163747Y0116758D02*
X0154022Y0116758D01*
X0154022Y0115633D02*
X0160362Y0115633D01*
X0160362Y0113021D01*
X0160239Y0112563D01*
X0160002Y0112153D01*
X0159667Y0111818D01*
X0159256Y0111581D01*
X0158799Y0111458D01*
X0154022Y0111458D01*
X0154022Y0115633D01*
X0154022Y0115160D02*
X0152472Y0115160D01*
X0152472Y0113561D02*
X0154022Y0113561D01*
X0154022Y0111963D02*
X0152472Y0111963D01*
X0146934Y0110364D02*
X0145423Y0110364D01*
X0145423Y0108766D02*
X0145932Y0108766D01*
X0145932Y0107167D02*
X0145423Y0107167D01*
X0145423Y0105568D02*
X0145932Y0105568D01*
X0145932Y0103970D02*
X0145423Y0103970D01*
X0145423Y0102371D02*
X0145932Y0102371D01*
X0145932Y0100773D02*
X0145423Y0100773D01*
X0145423Y0099174D02*
X0145932Y0099174D01*
X0145932Y0097576D02*
X0145423Y0097576D01*
X0139023Y0097576D02*
X0138730Y0097576D01*
X0139023Y0099174D02*
X0138304Y0099174D01*
X0139023Y0100773D02*
X0136793Y0100773D01*
X0135194Y0102371D02*
X0139023Y0102371D01*
X0139023Y0103970D02*
X0133596Y0103970D01*
X0130944Y0097571D02*
X0132330Y0096184D01*
X0132330Y0095240D01*
X0131944Y0096173D01*
X0131044Y0097073D01*
X0130944Y0097114D01*
X0130944Y0097571D01*
X0132025Y0095977D02*
X0132330Y0095977D01*
X0132040Y0092780D02*
X0132978Y0092780D01*
X0134577Y0091182D02*
X0129920Y0091182D01*
X0128542Y0091182D02*
X0121014Y0091182D01*
X0124180Y0092780D02*
X0126422Y0092780D01*
X0126031Y0094379D02*
X0124735Y0094379D01*
X0124735Y0095977D02*
X0125944Y0095977D01*
X0125944Y0097576D02*
X0124735Y0097576D01*
X0124341Y0105568D02*
X0139023Y0105568D01*
X0139023Y0107167D02*
X0124341Y0107167D01*
X0124341Y0108766D02*
X0139023Y0108766D01*
X0139023Y0110364D02*
X0123339Y0110364D01*
X0123036Y0111581D02*
X0123446Y0111818D01*
X0123782Y0112153D01*
X0124019Y0112563D01*
X0124141Y0113021D01*
X0124141Y0115633D01*
X0117801Y0115633D01*
X0117801Y0111458D01*
X0122578Y0111458D01*
X0123036Y0111581D01*
X0123591Y0111963D02*
X0139023Y0111963D01*
X0139576Y0113561D02*
X0124141Y0113561D01*
X0124141Y0115160D02*
X0146132Y0115160D01*
X0146132Y0113561D02*
X0144871Y0113561D01*
X0145423Y0111963D02*
X0146681Y0111963D01*
X0146132Y0118357D02*
X0124141Y0118357D01*
X0124098Y0119955D02*
X0135149Y0119955D01*
X0135924Y0119951D02*
X0135136Y0120738D01*
X0135108Y0121554D02*
X0074535Y0121554D01*
X0074535Y0122424D02*
X0070262Y0122424D01*
X0070262Y0118544D01*
X0072972Y0118544D01*
X0073430Y0118667D01*
X0073840Y0118904D01*
X0074175Y0119239D01*
X0074412Y0119650D01*
X0074535Y0120108D01*
X0074535Y0122424D01*
X0074494Y0119955D02*
X0082002Y0119955D01*
X0081959Y0118357D02*
X0062330Y0118357D01*
X0062287Y0119955D02*
X0065070Y0119955D01*
X0066783Y0117245D02*
X0065607Y0116758D01*
X0066783Y0117245D02*
X0068056Y0117245D01*
X0069233Y0116758D01*
X0070831Y0115160D02*
X0081959Y0115160D01*
X0081959Y0115633D02*
X0081959Y0113021D01*
X0082081Y0112563D01*
X0082318Y0112153D01*
X0082653Y0111818D01*
X0083064Y0111581D01*
X0083522Y0111458D01*
X0088299Y0111458D01*
X0088299Y0115633D01*
X0081959Y0115633D01*
X0081959Y0113561D02*
X0072430Y0113561D01*
X0074028Y0111963D02*
X0082508Y0111963D01*
X0082761Y0110364D02*
X0074945Y0110364D01*
X0074951Y0108766D02*
X0081759Y0108766D01*
X0081759Y0107167D02*
X0074951Y0107167D01*
X0074951Y0105568D02*
X0081759Y0105568D01*
X0080206Y0103970D02*
X0074951Y0103970D01*
X0074951Y0102371D02*
X0078608Y0102371D01*
X0079722Y0103486D02*
X0079722Y0103486D01*
X0077009Y0100773D02*
X0074951Y0100773D01*
X0074951Y0099174D02*
X0075976Y0099174D01*
X0078633Y0092780D02*
X0082313Y0092780D01*
X0081759Y0094379D02*
X0080232Y0094379D01*
X0077035Y0091182D02*
X0086267Y0091182D01*
X0089073Y0085502D02*
X0089073Y0081368D01*
X0092617Y0077825D01*
X0092617Y0054321D01*
X0088089Y0049793D01*
X0084527Y0052818D02*
X0079941Y0052818D01*
X0074820Y0052818D02*
X0071831Y0052818D01*
X0067814Y0054990D02*
X0063089Y0050266D01*
X0063089Y0047116D01*
X0060333Y0044360D01*
X0056003Y0044360D01*
X0054034Y0046329D01*
X0054034Y0073100D01*
X0058247Y0073100D01*
X0058562Y0073415D01*
X0054335Y0072000D02*
X0053785Y0072000D01*
X0054034Y0073100D02*
X0054034Y0079400D01*
X0052459Y0080974D01*
X0046948Y0080974D01*
X0045766Y0082156D01*
X0047900Y0083189D02*
X0042502Y0083189D01*
X0042947Y0084788D02*
X0047900Y0084788D01*
X0047900Y0086386D02*
X0042947Y0086386D01*
X0042489Y0087985D02*
X0047900Y0087985D01*
X0047900Y0089583D02*
X0040891Y0089583D01*
X0040495Y0091182D02*
X0048618Y0091182D01*
X0048037Y0094379D02*
X0042947Y0094379D01*
X0042947Y0095977D02*
X0047900Y0095977D01*
X0047900Y0097576D02*
X0042898Y0097576D01*
X0041300Y0099174D02*
X0047900Y0099174D01*
X0051622Y0092780D02*
X0042093Y0092780D01*
X0040904Y0081591D02*
X0052745Y0081591D01*
X0051341Y0079992D02*
X0054206Y0079992D01*
X0053030Y0078394D02*
X0055805Y0078394D01*
X0055638Y0076795D02*
X0053852Y0076795D01*
X0054282Y0075197D02*
X0054467Y0075197D01*
X0055272Y0070401D02*
X0052868Y0070401D01*
X0050951Y0068803D02*
X0055236Y0068803D01*
X0054209Y0067204D02*
X0042947Y0067204D01*
X0042947Y0065606D02*
X0053904Y0065606D01*
X0054156Y0064007D02*
X0042947Y0064007D01*
X0041721Y0062409D02*
X0055108Y0062409D01*
X0055118Y0060810D02*
X0026138Y0060810D01*
X0026138Y0070401D02*
X0042838Y0070401D01*
X0041921Y0072000D02*
X0041313Y0072000D01*
X0041671Y0068803D02*
X0044755Y0068803D01*
X0042676Y0078394D02*
X0042080Y0078394D01*
X0040482Y0079992D02*
X0044365Y0079992D01*
X0055215Y0082943D02*
X0063089Y0075069D01*
X0063089Y0054321D01*
X0058562Y0049793D01*
X0062841Y0047954D02*
X0062841Y0045640D01*
X0063674Y0043630D01*
X0053449Y0043630D01*
X0054282Y0045640D01*
X0054282Y0047954D01*
X0054613Y0047155D01*
X0055923Y0045845D01*
X0057635Y0045136D01*
X0059488Y0045136D01*
X0061200Y0045845D01*
X0062510Y0047155D01*
X0062841Y0047954D01*
X0062841Y0046424D02*
X0061779Y0046424D01*
X0063179Y0044825D02*
X0053944Y0044825D01*
X0054282Y0046424D02*
X0055345Y0046424D01*
X0053904Y0049621D02*
X0053693Y0049621D01*
X0054111Y0051219D02*
X0052645Y0051219D01*
X0050413Y0052818D02*
X0054999Y0052818D01*
X0055226Y0054416D02*
X0042947Y0054416D01*
X0042947Y0056015D02*
X0054205Y0056015D01*
X0053904Y0057613D02*
X0042861Y0057613D01*
X0041263Y0059212D02*
X0054160Y0059212D01*
X0063219Y0049621D02*
X0063430Y0049621D01*
X0063947Y0051219D02*
X0064478Y0051219D01*
X0065889Y0068803D02*
X0066172Y0068803D01*
X0072368Y0068803D02*
X0074283Y0068803D01*
X0073892Y0079992D02*
X0072759Y0079992D01*
X0073048Y0083189D02*
X0081759Y0083189D01*
X0081759Y0084788D02*
X0074143Y0084788D01*
X0074451Y0086386D02*
X0081759Y0086386D01*
X0081759Y0087985D02*
X0074154Y0087985D01*
X0073075Y0089583D02*
X0082059Y0089583D01*
X0081888Y0081591D02*
X0060527Y0081591D01*
X0062126Y0079992D02*
X0065782Y0079992D01*
X0064094Y0078394D02*
X0063724Y0078394D01*
X0062530Y0089734D02*
X0062530Y0090464D01*
X0061359Y0091636D01*
X0058022Y0091636D01*
X0058022Y0093344D01*
X0061359Y0093344D01*
X0062530Y0094516D01*
X0062530Y0094725D01*
X0066282Y0090973D01*
X0066493Y0090762D01*
X0064497Y0090762D01*
X0062894Y0090098D01*
X0062530Y0089734D01*
X0061813Y0091182D02*
X0066073Y0091182D01*
X0064474Y0092780D02*
X0058022Y0092780D01*
X0062393Y0094379D02*
X0062876Y0094379D01*
X0067131Y0099174D02*
X0068551Y0099174D01*
X0068551Y0100773D02*
X0065533Y0100773D01*
X0063934Y0102371D02*
X0068551Y0102371D01*
X0068551Y0103970D02*
X0062530Y0103970D01*
X0065043Y0105568D02*
X0068551Y0105568D01*
X0068551Y0107167D02*
X0066150Y0107167D01*
X0066289Y0108766D02*
X0068174Y0108766D01*
X0066576Y0110364D02*
X0065390Y0110364D01*
X0064977Y0111963D02*
X0061780Y0111963D01*
X0062330Y0113561D02*
X0064220Y0113561D01*
X0064418Y0115160D02*
X0062330Y0115160D01*
X0055990Y0115160D02*
X0054440Y0115160D01*
X0054440Y0113561D02*
X0055990Y0113561D01*
X0055990Y0111963D02*
X0054440Y0111963D01*
X0042465Y0123152D02*
X0069303Y0123152D01*
X0069782Y0122904D02*
X0069782Y0120738D01*
X0069303Y0119955D02*
X0070262Y0119955D01*
X0070262Y0121554D02*
X0069303Y0121554D01*
X0070262Y0123152D02*
X0121655Y0123152D01*
X0123421Y0123152D02*
X0139381Y0123152D01*
X0140340Y0123152D02*
X0164029Y0123152D01*
X0163547Y0124751D02*
X0144614Y0124751D01*
X0144614Y0121554D02*
X0165627Y0121554D01*
X0170236Y0119955D02*
X0175974Y0119955D01*
X0175627Y0121554D02*
X0170866Y0121554D01*
X0172465Y0123152D02*
X0174029Y0123152D01*
X0173547Y0124751D02*
X0172947Y0124751D01*
X0172947Y0126349D02*
X0173547Y0126349D01*
X0173967Y0127948D02*
X0172527Y0127948D01*
X0170928Y0129546D02*
X0175565Y0129546D01*
X0176036Y0131145D02*
X0170457Y0131145D01*
X0172056Y0132743D02*
X0174437Y0132743D01*
X0173547Y0134342D02*
X0172947Y0134342D01*
X0172947Y0135940D02*
X0173547Y0135940D01*
X0173558Y0137539D02*
X0172935Y0137539D01*
X0171337Y0139137D02*
X0175156Y0139137D01*
X0174846Y0142334D02*
X0171647Y0142334D01*
X0172947Y0143933D02*
X0173547Y0143933D01*
X0173547Y0145531D02*
X0172947Y0145531D01*
X0172947Y0147130D02*
X0173547Y0147130D01*
X0174748Y0148728D02*
X0171746Y0148728D01*
X0171238Y0151925D02*
X0175255Y0151925D01*
X0173657Y0153524D02*
X0172837Y0153524D01*
X0172947Y0155122D02*
X0173547Y0155122D01*
X0173547Y0156721D02*
X0172947Y0156721D01*
X0172155Y0158319D02*
X0174339Y0158319D01*
X0175937Y0159918D02*
X0170556Y0159918D01*
X0170829Y0161516D02*
X0175664Y0161516D01*
X0174066Y0163115D02*
X0172428Y0163115D01*
X0172947Y0164713D02*
X0173547Y0164713D01*
X0173547Y0166312D02*
X0172947Y0166312D01*
X0172564Y0167910D02*
X0173930Y0167910D01*
X0175528Y0169509D02*
X0170965Y0169509D01*
X0170420Y0171107D02*
X0176073Y0171107D01*
X0174475Y0172706D02*
X0172019Y0172706D01*
X0172947Y0174304D02*
X0173547Y0174304D01*
X0173547Y0175903D02*
X0172947Y0175903D01*
X0172947Y0177502D02*
X0173547Y0177502D01*
X0175119Y0179100D02*
X0171374Y0179100D01*
X0170194Y0180881D02*
X0172947Y0183634D01*
X0172947Y0187527D01*
X0170194Y0190281D01*
X0166300Y0190281D01*
X0163547Y0187527D01*
X0163547Y0183634D01*
X0166300Y0180881D01*
X0170194Y0180881D01*
X0171610Y0182297D02*
X0174884Y0182297D01*
X0173547Y0183896D02*
X0172947Y0183896D01*
X0172947Y0185494D02*
X0173547Y0185494D01*
X0173547Y0187093D02*
X0172947Y0187093D01*
X0171783Y0188691D02*
X0174710Y0188691D01*
X0175293Y0191888D02*
X0171201Y0191888D01*
X0170194Y0190881D02*
X0172947Y0193634D01*
X0172947Y0197527D01*
X0170194Y0200281D01*
X0166300Y0200281D01*
X0163547Y0197527D01*
X0163547Y0193634D01*
X0166300Y0190881D01*
X0170194Y0190881D01*
X0172799Y0193487D02*
X0173694Y0193487D01*
X0173547Y0195085D02*
X0172947Y0195085D01*
X0172947Y0196684D02*
X0173547Y0196684D01*
X0174301Y0198282D02*
X0172192Y0198282D01*
X0170594Y0199881D02*
X0175900Y0199881D01*
X0175701Y0201479D02*
X0170792Y0201479D01*
X0170194Y0200881D02*
X0172947Y0203634D01*
X0172947Y0207527D01*
X0170194Y0210281D01*
X0166300Y0210281D01*
X0163547Y0207527D01*
X0163547Y0203634D01*
X0166300Y0200881D01*
X0170194Y0200881D01*
X0172390Y0203078D02*
X0174103Y0203078D01*
X0173547Y0204676D02*
X0172947Y0204676D01*
X0172947Y0206275D02*
X0173547Y0206275D01*
X0173892Y0207873D02*
X0172601Y0207873D01*
X0171002Y0209472D02*
X0175491Y0209472D01*
X0176110Y0211070D02*
X0154604Y0211070D01*
X0154604Y0209472D02*
X0165491Y0209472D01*
X0166383Y0211081D02*
X0168147Y0211081D01*
X0168147Y0215481D01*
X0163747Y0215481D01*
X0163747Y0213717D01*
X0166383Y0211081D01*
X0168347Y0211081D02*
X0170111Y0211081D01*
X0172747Y0213717D01*
X0172747Y0215481D01*
X0168347Y0215481D01*
X0168347Y0211081D01*
X0168347Y0212669D02*
X0168147Y0212669D01*
X0168147Y0214267D02*
X0168347Y0214267D01*
X0167892Y0215226D02*
X0168247Y0215581D01*
X0172747Y0215866D02*
X0173547Y0215866D01*
X0173547Y0217464D02*
X0172727Y0217464D01*
X0171129Y0219063D02*
X0175082Y0219063D01*
X0175526Y0220661D02*
X0180355Y0220661D01*
X0180355Y0222260D02*
X0176967Y0222260D01*
X0177896Y0223858D02*
X0180355Y0223858D01*
X0180355Y0225457D02*
X0178298Y0225457D01*
X0177829Y0227055D02*
X0180355Y0227055D01*
X0180355Y0228654D02*
X0176270Y0228654D01*
X0174951Y0230205D02*
X0174951Y0230205D01*
X0174991Y0230252D02*
X0180355Y0230252D01*
X0180355Y0231851D02*
X0176164Y0231851D01*
X0176684Y0232528D02*
X0176684Y0232528D01*
X0167754Y0230252D02*
X0150823Y0230252D01*
X0150823Y0229855D02*
X0155686Y0229855D01*
X0155686Y0229778D01*
X0155559Y0228970D01*
X0155306Y0228193D01*
X0154935Y0227464D01*
X0154454Y0226802D01*
X0153876Y0226224D01*
X0153214Y0225743D01*
X0152485Y0225372D01*
X0151707Y0225119D01*
X0150900Y0224991D01*
X0150823Y0224991D01*
X0150823Y0229855D01*
X0150491Y0229400D02*
X0145766Y0224675D01*
X0145439Y0225457D02*
X0148330Y0225457D01*
X0148667Y0223858D02*
X0164857Y0223858D01*
X0164455Y0225457D02*
X0152652Y0225457D01*
X0150823Y0225457D02*
X0150159Y0225457D01*
X0150159Y0227055D02*
X0150823Y0227055D01*
X0150823Y0228654D02*
X0150159Y0228654D01*
X0146344Y0227055D02*
X0145601Y0227055D01*
X0145601Y0231951D02*
X0145601Y0233280D01*
X0146316Y0233280D01*
X0146047Y0232910D01*
X0145676Y0232181D01*
X0145601Y0231951D01*
X0154638Y0227055D02*
X0164885Y0227055D01*
X0166326Y0228654D02*
X0155456Y0228654D01*
X0155413Y0231851D02*
X0166550Y0231851D01*
X0166896Y0231386D02*
X0166896Y0231386D01*
X0166070Y0232528D02*
X0166070Y0232528D01*
X0166926Y0229254D02*
X0166926Y0229254D01*
X0165715Y0222260D02*
X0150438Y0222260D01*
X0151064Y0220661D02*
X0167149Y0220661D01*
X0165365Y0219063D02*
X0151064Y0219063D01*
X0150446Y0217464D02*
X0163766Y0217464D01*
X0163747Y0215866D02*
X0150606Y0215866D01*
X0152204Y0214267D02*
X0163747Y0214267D01*
X0164795Y0212669D02*
X0153803Y0212669D01*
X0154604Y0207873D02*
X0163892Y0207873D01*
X0163547Y0206275D02*
X0154604Y0206275D01*
X0154081Y0204676D02*
X0163547Y0204676D01*
X0164103Y0203078D02*
X0152482Y0203078D01*
X0150884Y0201479D02*
X0165701Y0201479D01*
X0165900Y0199881D02*
X0141844Y0199881D01*
X0142224Y0201479D02*
X0140245Y0201479D01*
X0139905Y0203078D02*
X0140625Y0203078D01*
X0146054Y0203078D02*
X0147054Y0203078D01*
X0147054Y0204676D02*
X0146054Y0204676D01*
X0146054Y0206275D02*
X0147054Y0206275D01*
X0147054Y0207873D02*
X0146054Y0207873D01*
X0146054Y0201479D02*
X0147054Y0201479D01*
X0140318Y0193487D02*
X0133227Y0193487D01*
X0131629Y0195085D02*
X0138720Y0195085D01*
X0137121Y0196684D02*
X0130469Y0196684D01*
X0130469Y0198282D02*
X0135522Y0198282D01*
X0134397Y0199881D02*
X0130469Y0199881D01*
X0131482Y0201479D02*
X0134305Y0201479D01*
X0134305Y0203078D02*
X0133080Y0203078D01*
X0134574Y0212496D02*
X0131871Y0215198D01*
X0132336Y0215198D01*
X0132536Y0214998D01*
X0136854Y0214998D01*
X0135519Y0213663D01*
X0134731Y0212875D01*
X0134574Y0212496D01*
X0134646Y0212669D02*
X0134401Y0212669D01*
X0132802Y0214267D02*
X0136123Y0214267D01*
X0131593Y0215476D02*
X0131593Y0215941D01*
X0131593Y0215941D01*
X0131593Y0215476D01*
X0131593Y0215476D01*
X0131593Y0215866D02*
X0131593Y0215866D01*
X0129882Y0223858D02*
X0128982Y0223858D01*
X0127944Y0225457D02*
X0125093Y0225457D01*
X0127079Y0227055D02*
X0127822Y0227055D01*
X0127822Y0231951D02*
X0127747Y0232181D01*
X0127375Y0232910D01*
X0127107Y0233280D01*
X0127822Y0233280D01*
X0127822Y0231951D01*
X0118757Y0233280D02*
X0118488Y0232910D01*
X0118117Y0232181D01*
X0117864Y0231404D01*
X0117736Y0230596D01*
X0117736Y0230519D01*
X0118009Y0231851D02*
X0110058Y0231851D01*
X0109495Y0233280D02*
X0118757Y0233280D01*
X0153947Y0198282D02*
X0164301Y0198282D01*
X0163547Y0196684D02*
X0156064Y0196684D01*
X0157620Y0195085D02*
X0163547Y0195085D01*
X0163694Y0193487D02*
X0158015Y0193487D01*
X0158015Y0191888D02*
X0165293Y0191888D01*
X0164710Y0188691D02*
X0158015Y0188691D01*
X0158015Y0187093D02*
X0163547Y0187093D01*
X0163547Y0185494D02*
X0158015Y0185494D01*
X0158015Y0183896D02*
X0163547Y0183896D01*
X0164884Y0182297D02*
X0158015Y0182297D01*
X0158015Y0180699D02*
X0180355Y0180699D01*
X0180355Y0190290D02*
X0158015Y0190290D01*
X0155215Y0193573D02*
X0155215Y0178612D01*
X0154822Y0178219D01*
X0157031Y0175903D02*
X0163547Y0175903D01*
X0163547Y0177502D02*
X0157988Y0177502D01*
X0158015Y0179100D02*
X0165119Y0179100D01*
X0164339Y0158319D02*
X0156822Y0158319D01*
X0156822Y0156721D02*
X0163547Y0156721D01*
X0163547Y0155122D02*
X0156822Y0155122D01*
X0156822Y0153524D02*
X0160681Y0153524D01*
X0166477Y0150327D02*
X0180355Y0150327D01*
X0180355Y0140736D02*
X0160955Y0140736D01*
X0160955Y0142334D02*
X0164846Y0142334D01*
X0163547Y0143933D02*
X0160955Y0143933D01*
X0160955Y0145531D02*
X0163547Y0145531D01*
X0165156Y0139137D02*
X0160498Y0139137D01*
X0164437Y0132743D02*
X0154415Y0132743D01*
X0154415Y0131145D02*
X0152866Y0131145D01*
X0152866Y0129546D02*
X0154415Y0129546D01*
X0154415Y0127948D02*
X0152866Y0127948D01*
X0152866Y0134342D02*
X0154415Y0134342D01*
X0154415Y0135940D02*
X0152866Y0135940D01*
X0146325Y0141026D02*
X0146325Y0141073D01*
X0146292Y0141073D01*
X0146325Y0141026D01*
X0136908Y0133337D02*
X0139861Y0130384D01*
X0135342Y0126349D02*
X0125738Y0126349D01*
X0125381Y0124751D02*
X0135108Y0124751D01*
X0135924Y0119951D02*
X0135924Y0116801D01*
X0139381Y0119955D02*
X0140340Y0119955D01*
X0140340Y0121554D02*
X0139381Y0121554D01*
X0144573Y0119955D02*
X0146175Y0119955D01*
X0160362Y0115160D02*
X0163747Y0115160D01*
X0163902Y0113561D02*
X0160362Y0113561D01*
X0159812Y0111963D02*
X0165501Y0111963D01*
X0164785Y0108766D02*
X0160562Y0108766D01*
X0160562Y0107167D02*
X0163547Y0107167D01*
X0163547Y0105568D02*
X0160562Y0105568D01*
X0163517Y0103970D02*
X0163547Y0103970D01*
X0164595Y0102371D02*
X0164809Y0102371D01*
X0164699Y0100773D02*
X0180355Y0100773D01*
X0180355Y0110364D02*
X0159560Y0110364D01*
X0163768Y0099174D02*
X0165194Y0099174D01*
X0163595Y0097576D02*
X0160562Y0097576D01*
X0160562Y0095977D02*
X0163547Y0095977D01*
X0163547Y0094379D02*
X0160562Y0094379D01*
X0160007Y0092780D02*
X0164400Y0092780D01*
X0165999Y0091182D02*
X0156840Y0091182D01*
X0160261Y0089583D02*
X0165603Y0089583D01*
X0164004Y0087985D02*
X0160562Y0087985D01*
X0160562Y0086386D02*
X0163547Y0086386D01*
X0163547Y0084788D02*
X0160562Y0084788D01*
X0160562Y0083189D02*
X0163991Y0083189D01*
X0165590Y0081591D02*
X0160432Y0081591D01*
X0161341Y0079992D02*
X0166012Y0079992D01*
X0164413Y0078394D02*
X0163030Y0078394D01*
X0163785Y0072000D02*
X0165181Y0072000D01*
X0162868Y0070401D02*
X0180355Y0070401D01*
X0180355Y0060810D02*
X0154472Y0060810D01*
X0154472Y0059212D02*
X0165231Y0059212D01*
X0163632Y0057613D02*
X0154472Y0057613D01*
X0154472Y0056015D02*
X0163547Y0056015D01*
X0164772Y0062409D02*
X0154472Y0062409D01*
X0154472Y0064007D02*
X0163547Y0064007D01*
X0163547Y0065606D02*
X0154472Y0065606D01*
X0154472Y0067204D02*
X0163547Y0067204D01*
X0164822Y0068803D02*
X0160951Y0068803D01*
X0154755Y0068803D02*
X0154472Y0068803D01*
X0151672Y0078219D02*
X0151672Y0054321D01*
X0147144Y0049793D01*
X0133338Y0068803D02*
X0131423Y0068803D01*
X0125227Y0068803D02*
X0124944Y0068803D01*
X0122144Y0076644D02*
X0117420Y0081368D01*
X0117420Y0085502D01*
X0114614Y0091182D02*
X0092667Y0091182D01*
X0095834Y0092780D02*
X0101876Y0092780D01*
X0100889Y0094379D02*
X0096388Y0094379D01*
X0096388Y0095977D02*
X0100914Y0095977D01*
X0101534Y0097576D02*
X0096388Y0097576D01*
X0089848Y0111963D02*
X0088299Y0111963D01*
X0088299Y0113561D02*
X0089848Y0113561D01*
X0089848Y0115160D02*
X0088299Y0115160D01*
X0088299Y0119955D02*
X0089848Y0119955D01*
X0100367Y0124751D02*
X0119695Y0124751D01*
X0117801Y0115160D02*
X0116251Y0115160D01*
X0116251Y0113561D02*
X0117801Y0113561D01*
X0117801Y0111963D02*
X0116251Y0111963D01*
X0124435Y0089583D02*
X0135380Y0089583D01*
X0134300Y0087985D02*
X0124735Y0087985D01*
X0124735Y0086386D02*
X0134003Y0086386D01*
X0134311Y0084788D02*
X0124735Y0084788D01*
X0124735Y0083189D02*
X0135406Y0083189D01*
X0132947Y0079992D02*
X0131814Y0079992D01*
X0124837Y0079992D02*
X0122756Y0079992D01*
X0124605Y0081591D02*
X0146062Y0081591D01*
X0149486Y0079992D02*
X0139924Y0079992D01*
X0146153Y0089505D02*
X0146234Y0089585D01*
X0146072Y0089585D01*
X0146153Y0089505D01*
X0146075Y0089583D02*
X0146232Y0089583D01*
X0153247Y0085502D02*
X0153247Y0079793D01*
X0151672Y0078219D01*
X0172323Y0048022D02*
X0174041Y0048022D01*
X0173547Y0046424D02*
X0172947Y0046424D01*
X0172947Y0044825D02*
X0173547Y0044825D01*
X0173620Y0113561D02*
X0172591Y0113561D01*
X0172747Y0115160D02*
X0173547Y0115160D01*
X0173547Y0116758D02*
X0172747Y0116758D01*
X0171835Y0118357D02*
X0174376Y0118357D01*
X0148522Y0167858D02*
X0148849Y0168185D01*
X0148284Y0168419D01*
X0147384Y0169319D01*
X0147085Y0170041D01*
X0147085Y0168604D01*
X0147776Y0168604D01*
X0148522Y0167858D01*
X0148470Y0167910D02*
X0148575Y0167910D01*
X0147306Y0169509D02*
X0147085Y0169509D01*
X0146897Y0171296D02*
X0146705Y0171761D01*
X0146184Y0172281D01*
X0147110Y0172281D01*
X0146897Y0171768D01*
X0146897Y0171296D01*
X0142085Y0169309D02*
X0141880Y0169514D01*
X0141880Y0168604D01*
X0142085Y0168604D01*
X0142085Y0169309D01*
X0141885Y0169509D02*
X0141880Y0169509D01*
X0135480Y0169509D02*
X0132825Y0169509D01*
X0132825Y0169615D02*
X0133022Y0169813D01*
X0135485Y0169813D01*
X0135480Y0169800D01*
X0135480Y0169499D01*
X0134592Y0168611D01*
X0134589Y0168604D01*
X0133521Y0168604D01*
X0132774Y0167858D01*
X0132383Y0168249D01*
X0132825Y0169314D01*
X0132825Y0169615D01*
X0132827Y0167910D02*
X0132722Y0167910D01*
X0132018Y0174813D02*
X0132018Y0184513D01*
X0135892Y0180639D01*
X0135892Y0174813D01*
X0132018Y0174813D01*
X0132018Y0175903D02*
X0135892Y0175903D01*
X0135892Y0177502D02*
X0132018Y0177502D01*
X0132018Y0179100D02*
X0135892Y0179100D01*
X0135833Y0180699D02*
X0132018Y0180699D01*
X0132018Y0182297D02*
X0134234Y0182297D01*
X0132636Y0183896D02*
X0132018Y0183896D01*
X0116278Y0167910D02*
X0111866Y0167910D01*
X0111916Y0169509D02*
X0114859Y0169509D01*
X0114614Y0171107D02*
X0110946Y0171107D01*
X0109346Y0172706D02*
X0115256Y0172706D01*
X0116601Y0166312D02*
X0110826Y0166312D01*
X0129473Y0142334D02*
X0087149Y0142334D01*
X0087194Y0140736D02*
X0128993Y0140736D01*
X0129214Y0139137D02*
X0087549Y0139137D01*
X0074876Y0137539D02*
X0074167Y0137539D01*
X0074215Y0135940D02*
X0073447Y0135940D01*
X0055215Y0086683D02*
X0055215Y0082943D01*
X0045293Y0052818D02*
X0042130Y0052818D01*
X0043061Y0051219D02*
X0040532Y0051219D01*
X0040854Y0049621D02*
X0042013Y0049621D01*
X0080869Y0079992D02*
X0086613Y0079992D01*
X0094409Y0079992D02*
X0095310Y0079992D01*
X0102286Y0079992D02*
X0103420Y0079992D01*
X0103810Y0068803D02*
X0101896Y0068803D01*
X0095700Y0068803D02*
X0095417Y0068803D01*
X0101358Y0052818D02*
X0104348Y0052818D01*
X0171699Y0212669D02*
X0174512Y0212669D01*
X0173547Y0214267D02*
X0172747Y0214267D01*
X0053696Y0223858D02*
X0053695Y0223858D01*
X0053695Y0225457D02*
X0053696Y0225457D01*
X0053695Y0227055D02*
X0053696Y0227055D01*
X0053695Y0228654D02*
X0053696Y0228654D01*
X0049533Y0228654D02*
X0045237Y0228654D01*
X0045417Y0227055D02*
X0049533Y0227055D01*
X0049620Y0225457D02*
X0045252Y0225457D01*
X0044590Y0223858D02*
X0050346Y0223858D01*
X0049533Y0230252D02*
X0044575Y0230252D01*
X0043068Y0231851D02*
X0049608Y0231851D01*
D11*
X0036317Y0227037D02*
X0036319Y0227149D01*
X0036325Y0227260D01*
X0036335Y0227372D01*
X0036349Y0227483D01*
X0036366Y0227593D01*
X0036388Y0227703D01*
X0036414Y0227812D01*
X0036443Y0227920D01*
X0036476Y0228026D01*
X0036513Y0228132D01*
X0036554Y0228236D01*
X0036599Y0228339D01*
X0036647Y0228440D01*
X0036698Y0228539D01*
X0036753Y0228636D01*
X0036812Y0228731D01*
X0036873Y0228825D01*
X0036938Y0228916D01*
X0037007Y0229004D01*
X0037078Y0229090D01*
X0037152Y0229174D01*
X0037230Y0229254D01*
X0037310Y0229332D01*
X0037393Y0229408D01*
X0037478Y0229480D01*
X0037566Y0229549D01*
X0037656Y0229615D01*
X0037749Y0229677D01*
X0037844Y0229737D01*
X0037941Y0229793D01*
X0038039Y0229845D01*
X0038140Y0229894D01*
X0038242Y0229939D01*
X0038346Y0229981D01*
X0038451Y0230019D01*
X0038558Y0230053D01*
X0038665Y0230083D01*
X0038774Y0230110D01*
X0038883Y0230132D01*
X0038994Y0230151D01*
X0039104Y0230166D01*
X0039216Y0230177D01*
X0039327Y0230184D01*
X0039439Y0230187D01*
X0039551Y0230186D01*
X0039663Y0230181D01*
X0039774Y0230172D01*
X0039885Y0230159D01*
X0039996Y0230142D01*
X0040106Y0230122D01*
X0040215Y0230097D01*
X0040323Y0230069D01*
X0040430Y0230036D01*
X0040536Y0230000D01*
X0040640Y0229960D01*
X0040743Y0229917D01*
X0040845Y0229870D01*
X0040944Y0229819D01*
X0041042Y0229765D01*
X0041138Y0229707D01*
X0041232Y0229646D01*
X0041323Y0229582D01*
X0041412Y0229515D01*
X0041499Y0229444D01*
X0041583Y0229370D01*
X0041665Y0229294D01*
X0041743Y0229214D01*
X0041819Y0229132D01*
X0041892Y0229047D01*
X0041962Y0228960D01*
X0042028Y0228870D01*
X0042092Y0228778D01*
X0042152Y0228684D01*
X0042209Y0228588D01*
X0042262Y0228489D01*
X0042312Y0228389D01*
X0042358Y0228288D01*
X0042401Y0228184D01*
X0042440Y0228079D01*
X0042475Y0227973D01*
X0042506Y0227866D01*
X0042534Y0227757D01*
X0042557Y0227648D01*
X0042577Y0227538D01*
X0042593Y0227427D01*
X0042605Y0227316D01*
X0042613Y0227205D01*
X0042617Y0227093D01*
X0042617Y0226981D01*
X0042613Y0226869D01*
X0042605Y0226758D01*
X0042593Y0226647D01*
X0042577Y0226536D01*
X0042557Y0226426D01*
X0042534Y0226317D01*
X0042506Y0226208D01*
X0042475Y0226101D01*
X0042440Y0225995D01*
X0042401Y0225890D01*
X0042358Y0225786D01*
X0042312Y0225685D01*
X0042262Y0225585D01*
X0042209Y0225486D01*
X0042152Y0225390D01*
X0042092Y0225296D01*
X0042028Y0225204D01*
X0041962Y0225114D01*
X0041892Y0225027D01*
X0041819Y0224942D01*
X0041743Y0224860D01*
X0041665Y0224780D01*
X0041583Y0224704D01*
X0041499Y0224630D01*
X0041412Y0224559D01*
X0041323Y0224492D01*
X0041232Y0224428D01*
X0041138Y0224367D01*
X0041042Y0224309D01*
X0040944Y0224255D01*
X0040845Y0224204D01*
X0040743Y0224157D01*
X0040640Y0224114D01*
X0040536Y0224074D01*
X0040430Y0224038D01*
X0040323Y0224005D01*
X0040215Y0223977D01*
X0040106Y0223952D01*
X0039996Y0223932D01*
X0039885Y0223915D01*
X0039774Y0223902D01*
X0039663Y0223893D01*
X0039551Y0223888D01*
X0039439Y0223887D01*
X0039327Y0223890D01*
X0039216Y0223897D01*
X0039104Y0223908D01*
X0038994Y0223923D01*
X0038883Y0223942D01*
X0038774Y0223964D01*
X0038665Y0223991D01*
X0038558Y0224021D01*
X0038451Y0224055D01*
X0038346Y0224093D01*
X0038242Y0224135D01*
X0038140Y0224180D01*
X0038039Y0224229D01*
X0037941Y0224281D01*
X0037844Y0224337D01*
X0037749Y0224397D01*
X0037656Y0224459D01*
X0037566Y0224525D01*
X0037478Y0224594D01*
X0037393Y0224666D01*
X0037310Y0224742D01*
X0037230Y0224820D01*
X0037152Y0224900D01*
X0037078Y0224984D01*
X0037007Y0225070D01*
X0036938Y0225158D01*
X0036873Y0225249D01*
X0036812Y0225343D01*
X0036753Y0225438D01*
X0036698Y0225535D01*
X0036647Y0225634D01*
X0036599Y0225735D01*
X0036554Y0225838D01*
X0036513Y0225942D01*
X0036476Y0226048D01*
X0036443Y0226154D01*
X0036414Y0226262D01*
X0036388Y0226371D01*
X0036366Y0226481D01*
X0036349Y0226591D01*
X0036335Y0226702D01*
X0036325Y0226814D01*
X0036319Y0226925D01*
X0036317Y0227037D01*
D12*
X0028247Y0045581D03*
X0168247Y0045581D03*
D13*
X0168247Y0055581D03*
X0168247Y0065581D03*
X0168247Y0075581D03*
X0168247Y0085581D03*
X0168247Y0095581D03*
X0168247Y0105581D03*
X0168247Y0115581D03*
X0168247Y0125581D03*
X0168247Y0135581D03*
X0168247Y0145581D03*
X0168247Y0155581D03*
X0168247Y0165581D03*
X0168247Y0175581D03*
X0168247Y0185581D03*
X0168247Y0195581D03*
X0168247Y0205581D03*
X0168247Y0215581D03*
X0178247Y0215581D03*
X0178247Y0205581D03*
X0178247Y0195581D03*
X0178247Y0185581D03*
X0178247Y0175581D03*
X0178247Y0165581D03*
X0178247Y0155581D03*
X0178247Y0145581D03*
X0178247Y0135581D03*
X0178247Y0125581D03*
X0178247Y0115581D03*
X0178247Y0105581D03*
X0178247Y0095581D03*
X0178247Y0085581D03*
X0178247Y0075581D03*
X0178247Y0065581D03*
X0178247Y0055581D03*
X0178247Y0045581D03*
X0038247Y0045581D03*
X0038247Y0055581D03*
X0038247Y0065581D03*
X0038247Y0075581D03*
X0038247Y0085581D03*
X0038247Y0095581D03*
X0038247Y0105581D03*
X0038247Y0115581D03*
X0038247Y0125581D03*
X0038247Y0135581D03*
X0038247Y0145581D03*
X0038247Y0155581D03*
X0038247Y0165581D03*
X0038247Y0175581D03*
X0038247Y0185581D03*
X0038247Y0195581D03*
X0038247Y0205581D03*
X0038247Y0215581D03*
X0028247Y0215581D03*
X0028247Y0205581D03*
X0028247Y0195581D03*
X0028247Y0185581D03*
X0028247Y0175581D03*
X0028247Y0165581D03*
X0028247Y0155581D03*
X0028247Y0145581D03*
X0028247Y0135581D03*
X0028247Y0125581D03*
X0028247Y0115581D03*
X0028247Y0105581D03*
X0028247Y0095581D03*
X0028247Y0085581D03*
X0028247Y0075581D03*
X0028247Y0065581D03*
X0028247Y0055581D03*
D14*
X0126869Y0208533D03*
X0146554Y0208533D03*
D15*
X0105696Y0226329D02*
X0105696Y0231053D01*
X0053696Y0231053D02*
X0053696Y0226329D01*
X0053696Y0158053D02*
X0053696Y0153329D01*
X0065365Y0138400D02*
X0070089Y0138400D01*
X0105696Y0153329D02*
X0105696Y0158053D01*
X0138365Y0138400D02*
X0143089Y0138400D01*
X0143089Y0086400D02*
X0138365Y0086400D01*
X0070089Y0086400D02*
X0065365Y0086400D01*
D16*
X0055215Y0086683D03*
X0055215Y0098297D03*
X0089073Y0097116D03*
X0089073Y0085502D03*
X0117420Y0085502D03*
X0117420Y0097116D03*
X0153247Y0097116D03*
X0153247Y0085502D03*
D17*
X0153247Y0105384D03*
X0153247Y0116407D03*
X0153640Y0132549D03*
X0153640Y0143573D03*
X0117026Y0116407D03*
X0117026Y0105384D03*
X0089073Y0105384D03*
X0089073Y0116407D03*
X0094979Y0153022D03*
X0094979Y0164045D03*
X0055215Y0116407D03*
X0055215Y0105384D03*
D18*
X0120963Y0155974D03*
X0120963Y0164242D03*
X0128837Y0164242D03*
X0128837Y0155974D03*
X0136711Y0155974D03*
X0136711Y0164242D03*
X0144585Y0164242D03*
X0144585Y0155974D03*
X0152459Y0155974D03*
X0152459Y0164242D03*
D19*
X0124215Y0132549D03*
X0086215Y0132549D03*
D20*
X0088089Y0073415D03*
X0088089Y0065541D03*
X0088089Y0057667D03*
X0088089Y0049793D03*
X0058562Y0049793D03*
X0058562Y0057667D03*
X0058562Y0065541D03*
X0058562Y0073415D03*
X0117617Y0073415D03*
X0117617Y0065541D03*
X0117617Y0057667D03*
X0117617Y0049793D03*
X0147144Y0049793D03*
X0147144Y0057667D03*
X0147144Y0065541D03*
X0147144Y0073415D03*
D21*
X0136436Y0074478D03*
X0128325Y0074478D03*
X0106908Y0074478D03*
X0098798Y0074478D03*
X0077381Y0074478D03*
X0069270Y0074478D03*
X0069270Y0046919D03*
X0077381Y0046919D03*
X0098798Y0046919D03*
X0106908Y0046919D03*
X0128325Y0046919D03*
X0136436Y0046919D03*
X0157853Y0046919D03*
X0157853Y0074478D03*
X0047853Y0074478D03*
X0047853Y0046919D03*
D22*
X0078444Y0219656D03*
X0081003Y0219656D03*
X0083562Y0219656D03*
X0086121Y0219656D03*
X0088680Y0219656D03*
X0131593Y0219656D03*
X0134152Y0219656D03*
X0136711Y0219656D03*
X0139270Y0219656D03*
X0141829Y0219656D03*
D23*
X0140648Y0230187D03*
X0132774Y0230148D03*
X0087499Y0230187D03*
X0079625Y0230148D03*
D24*
X0069782Y0230187D03*
X0097341Y0230187D03*
X0122932Y0230187D03*
X0150491Y0230187D03*
D25*
X0146554Y0219852D03*
X0126869Y0219852D03*
X0093404Y0219852D03*
X0073719Y0219852D03*
D26*
X0171357Y0221998D03*
X0171357Y0231762D03*
D27*
X0171377Y0232037D03*
X0172558Y0227156D03*
X0171337Y0222037D03*
D28*
X0171357Y0222077D03*
X0171357Y0232234D03*
X0171357Y0234754D03*
D29*
X0171357Y0234715D03*
X0171357Y0232392D03*
X0171357Y0222116D03*
D30*
X0171357Y0222156D03*
X0171357Y0232510D03*
X0171357Y0234675D03*
D31*
X0171357Y0234636D03*
X0172577Y0226683D03*
X0171357Y0222195D03*
D32*
X0171357Y0222234D03*
X0171357Y0232707D03*
D33*
X0171377Y0232785D03*
X0171337Y0222274D03*
D34*
X0171357Y0222313D03*
D35*
X0171337Y0222352D03*
X0171377Y0234518D03*
D36*
X0171357Y0222392D03*
D37*
X0171357Y0222431D03*
X0171987Y0233927D03*
D38*
X0172026Y0234006D03*
X0172026Y0234045D03*
X0171948Y0234124D03*
X0171357Y0233140D03*
X0171357Y0222470D03*
D39*
X0171337Y0222510D03*
X0171377Y0233219D03*
D40*
X0171377Y0233258D03*
X0171377Y0234400D03*
X0171337Y0222549D03*
D41*
X0171357Y0222589D03*
X0171357Y0233297D03*
D42*
X0171357Y0222628D03*
D43*
X0171357Y0222667D03*
D44*
X0171357Y0222707D03*
X0171357Y0233455D03*
X0171357Y0234321D03*
D45*
X0171377Y0233494D03*
X0171337Y0222746D03*
D46*
X0171337Y0222785D03*
X0171377Y0233533D03*
D47*
X0171357Y0222825D03*
D48*
X0171337Y0222864D03*
X0171377Y0233573D03*
D49*
X0171337Y0222904D03*
D50*
X0171357Y0222943D03*
D51*
X0171337Y0222982D03*
D52*
X0171337Y0223022D03*
D53*
X0171357Y0223061D03*
D54*
X0171337Y0223100D03*
X0171377Y0233809D03*
D55*
X0171357Y0223140D03*
D56*
X0171337Y0223179D03*
D57*
X0171357Y0223219D03*
D58*
X0171337Y0223258D03*
D59*
X0171357Y0223297D03*
D60*
X0171337Y0223337D03*
D61*
X0171357Y0223376D03*
D62*
X0171337Y0223415D03*
X0171337Y0223455D03*
D63*
X0171357Y0223494D03*
D64*
X0171337Y0223533D03*
D65*
X0171357Y0223573D03*
D66*
X0171337Y0223612D03*
X0171337Y0223652D03*
D67*
X0171357Y0223691D03*
D68*
X0171337Y0223730D03*
D69*
X0171357Y0223770D03*
X0171357Y0223809D03*
D70*
X0171337Y0223848D03*
D71*
X0171357Y0223888D03*
X0171357Y0223927D03*
X0171357Y0226604D03*
D72*
X0171377Y0226565D03*
X0171337Y0224006D03*
X0171337Y0223967D03*
D73*
X0171357Y0224045D03*
X0171357Y0226486D03*
X0171357Y0226526D03*
D74*
X0171377Y0226447D03*
X0171377Y0226407D03*
X0171337Y0224124D03*
X0171337Y0224085D03*
D75*
X0171357Y0224163D03*
X0171357Y0224203D03*
X0171357Y0226289D03*
X0171357Y0226329D03*
X0171357Y0226368D03*
D76*
X0171337Y0224281D03*
X0171337Y0224242D03*
D77*
X0171357Y0224321D03*
D78*
X0171337Y0224360D03*
X0171337Y0224400D03*
X0171337Y0224439D03*
D79*
X0171357Y0224478D03*
X0171357Y0224518D03*
D80*
X0171337Y0224557D03*
X0171337Y0224596D03*
D81*
X0171357Y0224636D03*
X0171357Y0224675D03*
D82*
X0171337Y0224715D03*
X0171337Y0224754D03*
D83*
X0171357Y0224793D03*
X0171357Y0224833D03*
D84*
X0171357Y0224872D03*
D85*
X0171377Y0224911D03*
D86*
X0171377Y0224951D03*
D87*
X0171377Y0224990D03*
D88*
X0171377Y0225030D03*
X0171377Y0225817D03*
D89*
X0171377Y0225778D03*
X0171377Y0225738D03*
X0171377Y0225108D03*
X0171377Y0225069D03*
D90*
X0171357Y0225148D03*
X0171357Y0225699D03*
D91*
X0171377Y0225659D03*
X0171377Y0225620D03*
X0171377Y0225581D03*
X0171377Y0225541D03*
X0171377Y0225502D03*
X0171377Y0225463D03*
X0171377Y0225423D03*
X0171377Y0225384D03*
X0171377Y0225344D03*
X0171377Y0225305D03*
X0171377Y0225266D03*
X0171377Y0225226D03*
X0171377Y0225187D03*
D92*
X0171357Y0225856D03*
D93*
X0171357Y0225896D03*
D94*
X0171377Y0225935D03*
D95*
X0171377Y0225974D03*
D96*
X0169152Y0227431D03*
X0169034Y0227352D03*
X0168995Y0227313D03*
X0168562Y0226644D03*
X0171357Y0230463D03*
X0173640Y0234281D03*
D97*
X0171357Y0232667D03*
X0172538Y0226644D03*
D98*
X0171357Y0230423D03*
X0169388Y0227549D03*
X0168877Y0227234D03*
X0168837Y0227195D03*
X0168798Y0227156D03*
X0168759Y0227116D03*
X0168719Y0227037D03*
X0168680Y0226998D03*
X0168640Y0226919D03*
X0168601Y0226841D03*
X0168562Y0226762D03*
X0168562Y0226722D03*
X0168562Y0226683D03*
X0171357Y0235148D03*
D99*
X0171377Y0232589D03*
X0172558Y0226722D03*
D100*
X0172577Y0226762D03*
X0171357Y0232549D03*
D101*
X0168739Y0227077D03*
X0168660Y0226959D03*
X0168621Y0226880D03*
X0168581Y0226801D03*
D102*
X0172558Y0226801D03*
D103*
X0172558Y0226841D03*
X0172558Y0226880D03*
X0171377Y0232470D03*
D104*
X0171377Y0232431D03*
X0172558Y0226919D03*
D105*
X0172558Y0226959D03*
D106*
X0172577Y0226998D03*
X0171357Y0232274D03*
D107*
X0171377Y0232195D03*
X0172597Y0227037D03*
D108*
X0172577Y0227077D03*
D109*
X0172577Y0227116D03*
X0171357Y0232116D03*
X0171357Y0234793D03*
D110*
X0170156Y0234281D03*
X0170117Y0234242D03*
X0172558Y0227195D03*
D111*
X0172203Y0227234D03*
X0171377Y0231407D03*
D112*
X0171357Y0229203D03*
X0172577Y0228140D03*
X0174467Y0227234D03*
D113*
X0169290Y0227510D03*
X0169211Y0227470D03*
X0169093Y0227392D03*
X0168936Y0227274D03*
D114*
X0172223Y0227274D03*
X0171357Y0234990D03*
D115*
X0172223Y0227313D03*
D116*
X0172262Y0227352D03*
D117*
X0172282Y0227392D03*
D118*
X0172302Y0227431D03*
D119*
X0172341Y0227470D03*
D120*
X0172322Y0227510D03*
X0172243Y0227589D03*
D121*
X0172302Y0227549D03*
D122*
X0172518Y0228022D03*
X0168739Y0227589D03*
D123*
X0169940Y0227589D03*
X0171357Y0229793D03*
X0172381Y0231171D03*
D124*
X0171357Y0231919D03*
X0171514Y0227667D03*
X0171514Y0227628D03*
D125*
X0171514Y0227707D03*
D126*
X0171495Y0227746D03*
X0171377Y0231841D03*
D127*
X0171140Y0227785D03*
D128*
X0171298Y0228219D03*
X0172558Y0228100D03*
X0173345Y0227785D03*
D129*
X0171140Y0227825D03*
X0171140Y0227864D03*
D130*
X0171337Y0229124D03*
X0172597Y0228179D03*
X0173385Y0227825D03*
D131*
X0171140Y0227904D03*
X0171140Y0227943D03*
D132*
X0171140Y0227982D03*
D133*
X0169762Y0228022D03*
D134*
X0171199Y0228022D03*
X0171357Y0230108D03*
X0170491Y0231289D03*
X0171357Y0235187D03*
D135*
X0171357Y0229163D03*
X0169703Y0228061D03*
D136*
X0171199Y0228061D03*
X0171357Y0229990D03*
X0170648Y0230974D03*
X0170570Y0231053D03*
X0170530Y0231132D03*
X0173483Y0232864D03*
X0173522Y0232904D03*
X0173562Y0232943D03*
X0173562Y0232982D03*
D137*
X0171357Y0229281D03*
X0171357Y0229242D03*
X0172538Y0228061D03*
D138*
X0171219Y0228100D03*
X0172400Y0231250D03*
X0172400Y0231289D03*
D139*
X0171259Y0228140D03*
D140*
X0171278Y0228179D03*
X0171357Y0229518D03*
D141*
X0172597Y0228219D03*
D142*
X0172617Y0228258D03*
X0171357Y0229045D03*
D143*
X0172636Y0228297D03*
D144*
X0171357Y0228927D03*
D145*
X0171357Y0228967D03*
X0171357Y0229006D03*
D146*
X0171357Y0229085D03*
D147*
X0171357Y0229321D03*
D148*
X0171357Y0229360D03*
D149*
X0171357Y0229400D03*
X0171357Y0229439D03*
D150*
X0171357Y0229478D03*
D151*
X0171357Y0229557D03*
X0171357Y0229596D03*
X0168089Y0234006D03*
D152*
X0171357Y0235226D03*
X0171357Y0229636D03*
D153*
X0171357Y0229675D03*
D154*
X0171357Y0229715D03*
X0171357Y0229754D03*
X0172302Y0231014D03*
D155*
X0171357Y0229833D03*
D156*
X0171357Y0229872D03*
X0171357Y0229911D03*
D157*
X0171357Y0229951D03*
X0172381Y0231329D03*
D158*
X0171377Y0230030D03*
X0170510Y0231171D03*
X0173581Y0233022D03*
D159*
X0170491Y0231211D03*
X0171357Y0230069D03*
D160*
X0171357Y0230148D03*
D161*
X0171377Y0230187D03*
X0170510Y0231329D03*
D162*
X0171357Y0230226D03*
D163*
X0171357Y0230266D03*
D164*
X0171357Y0230305D03*
D165*
X0171377Y0230344D03*
D166*
X0171357Y0230384D03*
D167*
X0171377Y0230502D03*
X0173699Y0234242D03*
D168*
X0171357Y0230541D03*
X0169073Y0233652D03*
X0169034Y0233691D03*
D169*
X0171357Y0230581D03*
D170*
X0171357Y0230620D03*
X0171357Y0230659D03*
X0173759Y0234163D03*
D171*
X0171357Y0235108D03*
X0171357Y0230699D03*
D172*
X0171357Y0230738D03*
D173*
X0171357Y0230778D03*
X0171357Y0230817D03*
D174*
X0171357Y0230856D03*
D175*
X0171357Y0230896D03*
X0171357Y0235069D03*
D176*
X0171377Y0230935D03*
D177*
X0172243Y0230974D03*
X0172322Y0231053D03*
X0172361Y0231093D03*
X0172361Y0231132D03*
D178*
X0170589Y0231014D03*
X0170550Y0231093D03*
D179*
X0172400Y0231211D03*
D180*
X0170510Y0231250D03*
X0173581Y0233061D03*
D181*
X0171357Y0231368D03*
D182*
X0171357Y0231447D03*
D183*
X0171357Y0231486D03*
X0171357Y0234951D03*
D184*
X0171357Y0231526D03*
D185*
X0171377Y0231565D03*
D186*
X0171357Y0231604D03*
D187*
X0171357Y0231644D03*
X0170451Y0232904D03*
X0170412Y0232943D03*
X0171357Y0234911D03*
D188*
X0170392Y0232982D03*
X0170471Y0232864D03*
X0171377Y0231683D03*
D189*
X0171377Y0231722D03*
X0170392Y0233061D03*
D190*
X0171357Y0231801D03*
X0171357Y0234872D03*
D191*
X0171377Y0231880D03*
D192*
X0171357Y0231959D03*
X0172617Y0233652D03*
X0172656Y0233691D03*
X0171357Y0234833D03*
D193*
X0170077Y0234203D03*
X0171377Y0231998D03*
X0172676Y0233730D03*
D194*
X0171357Y0232077D03*
X0170058Y0234163D03*
D195*
X0171377Y0232156D03*
D196*
X0171377Y0232313D03*
D197*
X0171357Y0232352D03*
D198*
X0171377Y0232628D03*
D199*
X0171377Y0232746D03*
X0171377Y0234596D03*
D200*
X0171357Y0232825D03*
D201*
X0170373Y0233022D03*
D202*
X0170392Y0233100D03*
D203*
X0173581Y0233100D03*
D204*
X0171357Y0233179D03*
D205*
X0171377Y0233337D03*
D206*
X0171377Y0233376D03*
X0171377Y0234360D03*
D207*
X0171377Y0233415D03*
D208*
X0171357Y0233612D03*
D209*
X0169014Y0233730D03*
X0173739Y0234203D03*
D210*
X0169014Y0233770D03*
D211*
X0172656Y0233770D03*
D212*
X0168188Y0233848D03*
X0168148Y0233888D03*
X0168109Y0233927D03*
X0168109Y0233967D03*
D213*
X0171928Y0233848D03*
X0171967Y0233888D03*
X0172007Y0233967D03*
D214*
X0168148Y0234124D03*
X0168109Y0234085D03*
X0168070Y0234045D03*
D215*
X0171377Y0234439D03*
X0172007Y0234085D03*
D216*
X0171377Y0234478D03*
D217*
X0171377Y0234557D03*
D218*
X0171357Y0235030D03*
D219*
X0142617Y0179006D03*
X0125294Y0179006D03*
D220*
X0139861Y0130384D03*
X0139861Y0122904D03*
X0069782Y0122904D03*
X0069782Y0130384D03*
D221*
X0068601Y0186289D03*
X0068601Y0190030D03*
X0068601Y0193770D03*
X0077656Y0193770D03*
X0077656Y0190030D03*
X0077656Y0186289D03*
D222*
X0070176Y0198691D02*
X0067420Y0201447D01*
X0063286Y0205581D01*
X0052459Y0205581D01*
X0053696Y0206817D01*
X0053696Y0228691D01*
X0053814Y0228809D01*
X0052459Y0205581D02*
X0038247Y0205581D01*
X0028247Y0215581D01*
X0051278Y0138455D02*
X0051333Y0138400D01*
X0067727Y0138400D01*
X0069782Y0120738D02*
X0056003Y0120738D01*
X0055215Y0119951D01*
X0055215Y0120738D01*
X0054034Y0120738D01*
X0052066Y0122707D01*
X0055215Y0119951D02*
X0055215Y0116407D01*
X0055215Y0105384D02*
X0055215Y0100659D01*
X0056003Y0101447D01*
X0055215Y0100659D02*
X0055215Y0098297D01*
X0069782Y0120738D02*
X0089073Y0120738D01*
X0117026Y0120738D01*
X0117026Y0116407D01*
X0117026Y0120738D02*
X0130412Y0120738D01*
X0135136Y0120738D01*
X0140648Y0120738D01*
X0153247Y0120738D01*
X0163089Y0120738D01*
X0168247Y0115581D01*
X0153247Y0116407D02*
X0153247Y0120738D01*
X0153247Y0105384D02*
X0153247Y0101053D01*
X0153247Y0097116D01*
X0117420Y0097116D02*
X0117420Y0104990D01*
X0117026Y0105384D01*
X0117026Y0101447D02*
X0104034Y0101447D01*
X0089861Y0101447D01*
X0082774Y0101447D01*
X0079625Y0098297D01*
X0089073Y0097116D02*
X0090255Y0098297D01*
X0090255Y0099085D01*
X0089073Y0097116D02*
X0089073Y0105384D01*
X0089073Y0116407D02*
X0089073Y0120738D01*
X0115058Y0177825D02*
X0116239Y0179006D01*
X0125294Y0179006D01*
X0126869Y0194754D02*
X0142617Y0179006D01*
X0126869Y0194754D02*
X0126869Y0208533D01*
D223*
X0106396Y0191211D03*
X0115058Y0177825D03*
X0117814Y0170738D03*
X0108759Y0168770D03*
X0102853Y0165620D03*
X0111121Y0156565D03*
X0110727Y0149478D03*
X0105215Y0148297D03*
X0098129Y0127037D03*
X0084349Y0139242D03*
X0067420Y0114045D03*
X0063089Y0108140D03*
X0071751Y0097904D03*
X0052066Y0122707D03*
X0051278Y0138455D03*
X0075294Y0167589D03*
X0091829Y0179793D03*
X0087105Y0190423D03*
X0082774Y0198691D03*
X0100491Y0204203D03*
X0129625Y0169951D03*
X0138680Y0169163D03*
X0150097Y0171132D03*
X0154822Y0178219D03*
X0122538Y0126250D03*
X0130412Y0118376D03*
X0135924Y0116801D03*
X0142223Y0111683D03*
X0142223Y0096722D03*
X0129231Y0094360D03*
X0104034Y0095148D03*
X0072538Y0068376D03*
X0045766Y0082156D03*
X0161514Y0101447D03*
D224*
X0142755Y0069026D02*
X0142499Y0068770D01*
X0142361Y0068632D02*
X0142105Y0068376D01*
X0132774Y0068376D01*
X0129231Y0094360D02*
X0128444Y0095148D01*
X0128444Y0101447D01*
X0117026Y0101447D02*
X0117026Y0097510D01*
X0117420Y0097116D01*
X0104034Y0095148D02*
X0104034Y0101447D01*
X0090255Y0099085D02*
X0089861Y0099478D01*
X0089861Y0101447D01*
X0094192Y0127037D02*
X0098129Y0127037D01*
X0094192Y0127037D02*
X0087892Y0133337D01*
X0086215Y0132549D01*
X0098916Y0162470D02*
X0099703Y0163258D01*
X0110727Y0163258D01*
X0111121Y0162864D01*
X0111121Y0156565D01*
X0117223Y0155974D02*
X0110727Y0149478D01*
X0117223Y0155974D02*
X0120963Y0155974D01*
X0152459Y0155974D01*
X0144585Y0155974D01*
X0136711Y0155974D01*
X0128837Y0155974D01*
X0128837Y0164242D02*
X0128837Y0169163D01*
X0129625Y0169951D01*
X0131987Y0172313D01*
X0142617Y0172313D01*
X0144585Y0170344D01*
X0144585Y0164242D01*
X0138680Y0169163D02*
X0136711Y0167195D01*
X0136711Y0164242D01*
X0148129Y0150266D02*
X0162696Y0150266D01*
X0153640Y0143573D02*
X0135924Y0143573D01*
X0132774Y0140423D01*
X0124215Y0132549D02*
X0121357Y0133337D01*
X0122538Y0132156D01*
X0122538Y0126250D01*
X0130412Y0120738D02*
X0130412Y0118376D01*
X0098916Y0162470D02*
X0094979Y0164045D01*
X0094979Y0162864D01*
X0106003Y0173888D02*
X0106003Y0174281D01*
X0107971Y0176250D01*
X0117814Y0170738D02*
X0120963Y0167589D01*
X0120963Y0164242D01*
X0093404Y0181368D02*
X0091829Y0179793D01*
X0092617Y0180581D01*
X0093404Y0181368D02*
X0093404Y0193573D01*
X0088680Y0198297D01*
X0088680Y0219656D01*
X0086121Y0219656D02*
X0086121Y0205581D01*
X0083168Y0202628D01*
X0083168Y0199085D01*
X0082774Y0198691D01*
X0083365Y0199281D01*
X0082774Y0198691D02*
X0084349Y0197116D01*
X0086318Y0197116D01*
X0091042Y0192392D01*
X0091042Y0186880D01*
X0088680Y0184518D01*
X0079428Y0184518D01*
X0077656Y0186289D01*
X0077656Y0190030D02*
X0074507Y0190030D01*
X0072932Y0188455D01*
X0072932Y0175856D01*
X0070963Y0173888D01*
X0068601Y0190030D02*
X0064664Y0190030D01*
X0062696Y0191998D01*
X0062696Y0195935D01*
X0067420Y0200659D01*
X0067420Y0201447D01*
X0070176Y0198691D02*
X0078444Y0206959D01*
X0078444Y0219656D01*
X0083562Y0219656D02*
X0083562Y0206171D01*
X0078247Y0200856D01*
X0078247Y0194360D01*
X0077656Y0193770D01*
X0078247Y0194360D02*
X0084349Y0194360D01*
X0087105Y0191604D01*
X0087105Y0190423D01*
X0150097Y0171132D02*
X0152459Y0168770D01*
X0152459Y0164242D01*
X0083562Y0068888D02*
X0083050Y0068376D01*
X0072538Y0068376D01*
X0060333Y0105384D02*
X0055215Y0105384D01*
X0060333Y0105384D02*
X0063089Y0108140D01*
D225*
X0060333Y0101447D02*
X0056003Y0101447D01*
X0054822Y0097904D02*
X0054822Y0086880D01*
X0068995Y0092785D02*
X0060333Y0101447D01*
X0068995Y0092785D02*
X0074113Y0092785D01*
X0079625Y0098297D01*
X0071751Y0097904D02*
X0071751Y0109715D01*
X0067420Y0114045D01*
X0089467Y0097116D02*
X0089467Y0086093D01*
X0117026Y0101447D02*
X0128444Y0101447D01*
X0131593Y0101447D01*
X0135530Y0097510D01*
X0135530Y0094754D01*
X0137499Y0092785D01*
X0148916Y0092785D01*
X0153247Y0097116D01*
X0153640Y0096722D02*
X0153640Y0085699D01*
X0154034Y0085699D01*
X0153247Y0101053D02*
X0153640Y0101447D01*
X0161514Y0101447D01*
X0142223Y0096722D02*
X0142223Y0111683D01*
X0140648Y0120738D02*
X0140648Y0123100D01*
X0117814Y0096722D02*
X0117814Y0084911D01*
X0118207Y0084911D01*
X0108759Y0168770D02*
X0107971Y0169557D01*
X0077262Y0169557D01*
X0075294Y0167589D01*
X0070963Y0173888D02*
X0106003Y0173888D01*
X0108365Y0176250D01*
X0107971Y0176250D02*
X0107971Y0189636D01*
X0106396Y0191211D01*
X0110727Y0217195D02*
X0100491Y0217195D01*
X0100097Y0216801D01*
X0110727Y0217195D02*
X0111908Y0218376D01*
X0111908Y0227037D01*
X0115058Y0230187D01*
X0122932Y0230187D01*
X0146554Y0208533D02*
X0155215Y0217195D01*
X0155215Y0224675D01*
X0150491Y0229400D01*
X0150491Y0230187D01*
X0153247Y0215226D02*
X0146554Y0208533D01*
X0153247Y0215226D02*
X0167892Y0215226D01*
X0070963Y0173888D02*
X0065058Y0173888D01*
X0062696Y0176250D01*
D226*
X0062696Y0176250D03*
X0051278Y0164833D03*
X0070176Y0198691D03*
X0132774Y0140423D03*
X0148129Y0150266D03*
X0162696Y0150266D03*
X0132774Y0068376D03*
D227*
X0100491Y0204203D02*
X0100097Y0204596D01*
X0100097Y0216801D01*
X0100097Y0223494D01*
X0097341Y0226250D01*
X0097341Y0230187D01*
X0069782Y0230187D02*
X0055192Y0230187D01*
X0053696Y0228691D01*
M02*
