%
M48
M72
T01C0.01200
T02C0.02362
T03C0.03150
T04C0.03346
T05C0.03543
T06C0.03600
T07C0.04528
T08C0.05200
T09C0.05906
T10C0.06299
%
T01
X45766Y82156
X63089Y108140
X67420Y114045
X71751Y97904
X52066Y122707
X51278Y138455
X75294Y167589
X91829Y179793
X87105Y190423
X82774Y198691
X100491Y204203
X106396Y191211
X115058Y177825
X117814Y170738
X108759Y168770
X102853Y165620
X111121Y156565
X110727Y149478
X105215Y148297
X98129Y127037
X84349Y139242
X104034Y95148
X122538Y126250
X130412Y118376
X135924Y116801
X142223Y111683
X142223Y96722
X129231Y94360
X161514Y101447
X138680Y169163
X129625Y169951
X150097Y171132
X154822Y178219
X72538Y68376
T02
X132774Y68376
X132774Y140423
X148129Y150266
X162696Y150266
X70176Y198691
X62696Y176250
X51278Y164833
T03
X53696Y155691
X67727Y138400
X105696Y155691
X140727Y138400
X140727Y86400
X67727Y86400
X53696Y228691
X105696Y228691
T04
X93404Y219852
X73719Y219852
X126869Y219852
X146554Y219852
T05
X147144Y73415
X147144Y65541
X147144Y57667
X147144Y49793
X117617Y49793
X117617Y57667
X117617Y65541
X117617Y73415
X88089Y73415
X88089Y65541
X88089Y57667
X88089Y49793
X58562Y49793
X58562Y57667
X58562Y65541
X58562Y73415
T06
X28247Y45581
X28247Y55581
X28247Y65581
X28247Y75581
X28247Y85581
X28247Y95581
X28247Y105581
X28247Y115581
X28247Y125581
X28247Y135581
X28247Y145581
X28247Y155581
X28247Y165581
X28247Y175581
X28247Y185581
X28247Y195581
X28247Y205581
X28247Y215581
X38247Y215581
X38247Y205581
X38247Y195581
X38247Y185581
X38247Y175581
X38247Y165581
X38247Y155581
X38247Y145581
X38247Y135581
X38247Y125581
X38247Y115581
X38247Y105581
X38247Y95581
X38247Y85581
X38247Y75581
X38247Y65581
X38247Y55581
X38247Y45581
X168247Y45581
X168247Y55581
X168247Y65581
X168247Y75581
X168247Y85581
X168247Y95581
X168247Y105581
X168247Y115581
X168247Y125581
X168247Y135581
X168247Y145581
X168247Y155581
X168247Y165581
X168247Y175581
X168247Y185581
X168247Y195581
X168247Y205581
X168247Y215581
X178247Y215581
X178247Y205581
X178247Y195581
X178247Y185581
X178247Y175581
X178247Y165581
X178247Y155581
X178247Y145581
X178247Y135581
X178247Y125581
X178247Y115581
X178247Y105581
X178247Y95581
X178247Y85581
X178247Y75581
X178247Y65581
X178247Y55581
X178247Y45581
T07
X150491Y230187
X122932Y230187
X97341Y230187
X69782Y230187
T08
X126869Y208533
X146554Y208533
T09
X136436Y74478
X128325Y74478
X106908Y74478
X98798Y74478
X77381Y74478
X69270Y74478
X69270Y46919
X77381Y46919
X98798Y46919
X106908Y46919
X128325Y46919
X136436Y46919
X157853Y46919
X157853Y74478
X47853Y74478
X47853Y46919
T10
X39467Y227037
M30
