G75*
%MOIN*%
%OFA0B0*%
%FSLAX25Y25*%
%IPPOS*%
%LPD*%
%AMOC8*
5,1,8,0,0,1.08239X$1,22.5*
%
%ADD10C,0.01600*%
%ADD11C,0.00400*%
%ADD12C,0.01200*%
%ADD13C,0.00600*%
%ADD14C,0.00000*%
%ADD15C,0.00500*%
%ADD16C,0.01000*%
%ADD17C,0.00300*%
%ADD18R,0.00591X0.01181*%
%ADD19R,0.01181X0.01181*%
%ADD20C,0.00200*%
%ADD21C,0.00800*%
%ADD22R,0.14552X0.00131*%
%ADD23R,0.15732X0.00131*%
%ADD24R,0.16650X0.00131*%
%ADD25R,0.17306X0.00131*%
%ADD26R,0.17961X0.00131*%
%ADD27R,0.18485X0.00131*%
%ADD28R,0.18879X0.00131*%
%ADD29R,0.19272X0.00131*%
%ADD30R,0.19665X0.00131*%
%ADD31R,0.20059X0.00131*%
%ADD32R,0.20452X0.00131*%
%ADD33R,0.20714X0.00131*%
%ADD34R,0.20976X0.00131*%
%ADD35R,0.21370X0.00131*%
%ADD36R,0.21501X0.00131*%
%ADD37R,0.21763X0.00131*%
%ADD38R,0.22025X0.00131*%
%ADD39R,0.22287X0.00131*%
%ADD40R,0.22419X0.00131*%
%ADD41R,0.22681X0.00131*%
%ADD42R,0.22812X0.00131*%
%ADD43R,0.23074X0.00131*%
%ADD44R,0.23205X0.00131*%
%ADD45R,0.23336X0.00131*%
%ADD46R,0.23598X0.00131*%
%ADD47R,0.23730X0.00131*%
%ADD48R,0.23861X0.00131*%
%ADD49R,0.23992X0.00131*%
%ADD50R,0.24123X0.00131*%
%ADD51R,0.24385X0.00131*%
%ADD52R,0.24516X0.00131*%
%ADD53R,0.24647X0.00131*%
%ADD54R,0.24778X0.00131*%
%ADD55R,0.24909X0.00131*%
%ADD56R,0.25041X0.00131*%
%ADD57R,0.25172X0.00131*%
%ADD58R,0.25303X0.00131*%
%ADD59R,0.25434X0.00131*%
%ADD60R,0.25565X0.00131*%
%ADD61R,0.25696X0.00131*%
%ADD62R,0.25827X0.00131*%
%ADD63R,0.25958X0.00131*%
%ADD64R,0.26089X0.00131*%
%ADD65R,0.26220X0.00131*%
%ADD66R,0.26352X0.00131*%
%ADD67R,0.26483X0.00131*%
%ADD68R,0.26614X0.00131*%
%ADD69R,0.26745X0.00131*%
%ADD70R,0.26876X0.00131*%
%ADD71R,0.27007X0.00131*%
%ADD72R,0.27138X0.00131*%
%ADD73R,0.27269X0.00131*%
%ADD74R,0.27400X0.00131*%
%ADD75R,0.27531X0.00131*%
%ADD76R,0.27663X0.00131*%
%ADD77R,0.27794X0.00131*%
%ADD78R,0.27925X0.00131*%
%ADD79R,0.28056X0.00131*%
%ADD80R,0.30809X0.00131*%
%ADD81R,0.31465X0.00131*%
%ADD82R,0.31858X0.00131*%
%ADD83R,0.32251X0.00131*%
%ADD84R,0.32513X0.00131*%
%ADD85R,0.32644X0.00131*%
%ADD86R,0.32776X0.00131*%
%ADD87R,0.32382X0.00131*%
%ADD88R,0.31989X0.00131*%
%ADD89R,0.31596X0.00131*%
%ADD90R,0.31071X0.00131*%
%ADD91R,0.07735X0.00131*%
%ADD92R,0.07604X0.00131*%
%ADD93R,0.18223X0.00131*%
%ADD94R,0.07473X0.00131*%
%ADD95R,0.07342X0.00131*%
%ADD96R,0.17830X0.00131*%
%ADD97R,0.17699X0.00131*%
%ADD98R,0.17568X0.00131*%
%ADD99R,0.17043X0.00131*%
%ADD100R,0.16781X0.00131*%
%ADD101R,0.16388X0.00131*%
%ADD102R,0.16126X0.00131*%
%ADD103R,0.15863X0.00131*%
%ADD104R,0.15601X0.00131*%
%ADD105R,0.15077X0.00131*%
%ADD106R,0.12324X0.00131*%
%ADD107R,0.01835X0.00131*%
%ADD108R,0.11930X0.00131*%
%ADD109R,0.11799X0.00131*%
%ADD110R,0.11406X0.00131*%
%ADD111R,0.11013X0.00131*%
%ADD112R,0.10750X0.00131*%
%ADD113R,0.10357X0.00131*%
%ADD114R,0.10226X0.00131*%
%ADD115R,0.10095X0.00131*%
%ADD116R,0.02491X0.00131*%
%ADD117R,0.04457X0.00131*%
%ADD118R,0.14946X0.00131*%
%ADD119R,0.14815X0.00131*%
%ADD120R,0.14683X0.00131*%
%ADD121R,0.14421X0.00131*%
%ADD122R,0.12061X0.00131*%
%ADD123R,0.01967X0.00131*%
%ADD124R,0.01180X0.00131*%
%ADD125R,0.00524X0.00131*%
%ADD126R,0.11537X0.00131*%
%ADD127R,0.02098X0.00131*%
%ADD128R,0.06162X0.00131*%
%ADD129R,0.01442X0.00131*%
%ADD130R,0.05637X0.00131*%
%ADD131R,0.00262X0.00131*%
%ADD132R,0.04982X0.00131*%
%ADD133R,0.01704X0.00131*%
%ADD134R,0.04195X0.00131*%
%ADD135R,0.03409X0.00131*%
%ADD136R,0.01049X0.00131*%
%ADD137R,0.00656X0.00131*%
%ADD138R,0.00393X0.00131*%
%ADD139R,0.00131X0.00131*%
%ADD140R,0.00918X0.00131*%
%ADD141R,0.02229X0.00131*%
%ADD142R,0.02753X0.00131*%
%ADD143R,0.03015X0.00131*%
%ADD144R,0.03278X0.00131*%
%ADD145R,0.03540X0.00131*%
%ADD146R,0.03671X0.00131*%
%ADD147R,0.03802X0.00131*%
%ADD148R,0.04064X0.00131*%
%ADD149R,0.04326X0.00131*%
%ADD150R,0.04589X0.00131*%
%ADD151R,0.04851X0.00131*%
%ADD152R,0.05113X0.00131*%
%ADD153R,0.05375X0.00131*%
%ADD154R,0.05900X0.00131*%
%ADD155R,0.06424X0.00131*%
%ADD156R,0.06686X0.00131*%
%ADD157R,0.06948X0.00131*%
%ADD158R,0.07211X0.00131*%
%ADD159R,0.07997X0.00131*%
%ADD160R,0.08128X0.00131*%
%ADD161R,0.08259X0.00131*%
%ADD162R,0.08522X0.00131*%
%ADD163R,0.08784X0.00131*%
%ADD164R,0.08915X0.00131*%
%ADD165R,0.09046X0.00131*%
%ADD166R,0.09308X0.00131*%
%ADD167R,0.09570X0.00131*%
%ADD168R,0.09702X0.00131*%
%ADD169R,0.09833X0.00131*%
%ADD170R,0.05506X0.00131*%
%ADD171R,0.05244X0.00131*%
%ADD172R,0.04720X0.00131*%
%ADD173R,0.06293X0.00131*%
%ADD174R,0.12193X0.00131*%
%ADD175R,0.12455X0.00131*%
%ADD176R,0.12586X0.00131*%
%ADD177R,0.12717X0.00131*%
%ADD178R,0.12979X0.00131*%
%ADD179R,0.13241X0.00131*%
%ADD180R,0.13372X0.00131*%
%ADD181R,0.13504X0.00131*%
%ADD182R,0.13766X0.00131*%
%ADD183R,0.14028X0.00131*%
%ADD184R,0.14159X0.00131*%
%ADD185R,0.14290X0.00131*%
%ADD186R,0.15339X0.00131*%
%ADD187R,0.15470X0.00131*%
%ADD188R,0.16257X0.00131*%
%ADD189R,0.16519X0.00131*%
%ADD190R,0.16912X0.00131*%
%ADD191R,0.17437X0.00131*%
%ADD192R,0.18092X0.00131*%
%ADD193R,0.18617X0.00131*%
%ADD194R,0.19010X0.00131*%
%ADD195R,0.19403X0.00131*%
%ADD196R,0.13635X0.00131*%
%ADD197R,0.05769X0.00131*%
%ADD198R,0.06031X0.00131*%
%ADD199R,0.21107X0.00131*%
%ADD200R,0.21894X0.00131*%
%ADD201R,0.22156X0.00131*%
%ADD202R,0.22550X0.00131*%
%ADD203R,0.22943X0.00131*%
%ADD204R,0.15208X0.00131*%
%ADD205R,0.08391X0.00131*%
%ADD206R,0.24254X0.00131*%
%ADD207R,0.03146X0.00131*%
%ADD208R,0.20845X0.00131*%
%ADD209R,0.07866X0.00131*%
%ADD210R,0.21632X0.00131*%
%ADD211R,0.21239X0.00131*%
%ADD212R,0.20190X0.00131*%
%ADD213R,0.19534X0.00131*%
%ADD214R,0.17174X0.00131*%
%ADD215R,0.15994X0.00131*%
%ADD216R,0.11144X0.00131*%
D10*
X0022538Y0040030D02*
X0183955Y0040030D01*
X0183955Y0236880D01*
X0039073Y0236880D01*
X0022538Y0220344D01*
X0022538Y0040030D01*
X0044192Y0040030D02*
X0162302Y0040030D01*
D11*
X0156196Y0057552D02*
X0151592Y0060622D01*
X0153127Y0062156D02*
X0151592Y0063691D01*
X0156196Y0063691D01*
X0156196Y0062156D02*
X0156196Y0065226D01*
X0156196Y0060622D02*
X0151592Y0057552D01*
X0145759Y0089454D02*
X0141155Y0089454D01*
X0141155Y0092523D01*
X0141923Y0094058D02*
X0141155Y0094825D01*
X0141155Y0096360D01*
X0141923Y0097127D01*
X0142690Y0097127D01*
X0145759Y0094058D01*
X0145759Y0097127D01*
X0143457Y0090989D02*
X0143457Y0089454D01*
X0144701Y0104270D02*
X0141631Y0104270D01*
X0140864Y0105037D01*
X0140864Y0106572D01*
X0141631Y0107339D01*
X0142399Y0108874D02*
X0140864Y0110408D01*
X0145468Y0110408D01*
X0145468Y0108874D02*
X0145468Y0111943D01*
X0144701Y0107339D02*
X0145468Y0106572D01*
X0145468Y0105037D01*
X0144701Y0104270D01*
X0128720Y0097344D02*
X0128720Y0094275D01*
X0128720Y0095810D02*
X0124116Y0095810D01*
X0125651Y0094275D01*
X0124116Y0092741D02*
X0124116Y0089671D01*
X0128720Y0089671D01*
X0126418Y0089671D02*
X0126418Y0091206D01*
X0127772Y0104270D02*
X0124702Y0104270D01*
X0123935Y0105037D01*
X0123935Y0106572D01*
X0124702Y0107339D01*
X0124702Y0108874D02*
X0123935Y0109641D01*
X0123935Y0111176D01*
X0124702Y0111943D01*
X0125470Y0111943D01*
X0128539Y0108874D01*
X0128539Y0111943D01*
X0127772Y0107339D02*
X0128539Y0106572D01*
X0128539Y0105037D01*
X0127772Y0104270D01*
X0100586Y0104250D02*
X0100586Y0105784D01*
X0099819Y0106552D01*
X0099819Y0108086D02*
X0100586Y0108854D01*
X0100586Y0110388D01*
X0099819Y0111155D01*
X0099051Y0111155D01*
X0098284Y0110388D01*
X0098284Y0109621D01*
X0098284Y0110388D02*
X0097517Y0111155D01*
X0096749Y0111155D01*
X0095982Y0110388D01*
X0095982Y0108854D01*
X0096749Y0108086D01*
X0096749Y0106552D02*
X0095982Y0105784D01*
X0095982Y0104250D01*
X0096749Y0103482D01*
X0099819Y0103482D01*
X0100586Y0104250D01*
X0099606Y0098132D02*
X0098839Y0098132D01*
X0098072Y0097365D01*
X0098072Y0096597D01*
X0098072Y0097365D02*
X0097304Y0098132D01*
X0096537Y0098132D01*
X0095770Y0097365D01*
X0095770Y0095830D01*
X0096537Y0095063D01*
X0095770Y0093528D02*
X0095770Y0090459D01*
X0100373Y0090459D01*
X0098072Y0090459D02*
X0098072Y0091993D01*
X0099606Y0095063D02*
X0100373Y0095830D01*
X0100373Y0097365D01*
X0099606Y0098132D01*
X0096768Y0063651D02*
X0097535Y0062883D01*
X0097535Y0061349D01*
X0096768Y0060581D01*
X0097535Y0059047D02*
X0092931Y0055978D01*
X0092931Y0059047D02*
X0097535Y0055978D01*
X0093698Y0060581D02*
X0092931Y0061349D01*
X0092931Y0062883D01*
X0093698Y0063651D01*
X0094466Y0063651D01*
X0095233Y0062883D01*
X0096000Y0063651D01*
X0096768Y0063651D01*
X0095233Y0062883D02*
X0095233Y0062116D01*
X0122065Y0062530D02*
X0122832Y0061763D01*
X0122065Y0062530D02*
X0122065Y0064065D01*
X0122832Y0064832D01*
X0123599Y0064832D01*
X0126669Y0061763D01*
X0126669Y0064832D01*
X0126669Y0060228D02*
X0122065Y0057159D01*
X0122065Y0060228D02*
X0126669Y0057159D01*
X0067614Y0058259D02*
X0063010Y0055190D01*
X0063010Y0058259D02*
X0067614Y0055190D01*
X0065312Y0059794D02*
X0065312Y0062863D01*
X0067614Y0062096D02*
X0063010Y0062096D01*
X0065312Y0059794D01*
X0065001Y0090459D02*
X0065001Y0091993D01*
X0067303Y0090459D02*
X0062699Y0090459D01*
X0062699Y0093528D01*
X0065001Y0095063D02*
X0065001Y0098132D01*
X0067303Y0097365D02*
X0062699Y0097365D01*
X0065001Y0095063D01*
X0065961Y0105845D02*
X0062891Y0105845D01*
X0062124Y0106612D01*
X0062124Y0108146D01*
X0062891Y0108914D01*
X0064426Y0110448D02*
X0064426Y0113518D01*
X0066728Y0112750D02*
X0062124Y0112750D01*
X0064426Y0110448D01*
X0065961Y0108914D02*
X0066728Y0108146D01*
X0066728Y0106612D01*
X0065961Y0105845D01*
X0084151Y0156238D02*
X0083384Y0157006D01*
X0083384Y0158540D01*
X0084151Y0159307D01*
X0085686Y0160842D02*
X0085686Y0163144D01*
X0086453Y0163911D01*
X0087220Y0163911D01*
X0087988Y0163144D01*
X0087988Y0161609D01*
X0087220Y0160842D01*
X0085686Y0160842D01*
X0084151Y0162377D01*
X0083384Y0163911D01*
X0087220Y0159307D02*
X0087988Y0158540D01*
X0087988Y0157006D01*
X0087220Y0156238D01*
X0084151Y0156238D01*
X0118801Y0150779D02*
X0118801Y0147710D01*
X0118801Y0150012D02*
X0121870Y0150012D01*
X0121870Y0150779D02*
X0120336Y0152314D01*
X0118801Y0150779D01*
X0121870Y0150779D02*
X0121870Y0147710D01*
X0126675Y0150012D02*
X0129744Y0150012D01*
X0128977Y0147710D02*
X0128977Y0152314D01*
X0126675Y0150012D01*
X0134549Y0151546D02*
X0135316Y0152314D01*
X0136851Y0152314D01*
X0137618Y0151546D01*
X0137618Y0150779D01*
X0136851Y0150012D01*
X0137618Y0149244D01*
X0137618Y0148477D01*
X0136851Y0147710D01*
X0135316Y0147710D01*
X0134549Y0148477D01*
X0136084Y0150012D02*
X0136851Y0150012D01*
X0142029Y0151546D02*
X0142797Y0152314D01*
X0144331Y0152314D01*
X0145099Y0151546D01*
X0145099Y0150779D01*
X0142029Y0147710D01*
X0145099Y0147710D01*
X0150691Y0147710D02*
X0153760Y0147710D01*
X0152225Y0147710D02*
X0152225Y0152314D01*
X0150691Y0150779D01*
X0142855Y0171506D02*
X0125055Y0171506D01*
X0125055Y0186506D02*
X0142855Y0186506D01*
X0142982Y0194560D02*
X0144516Y0194560D01*
X0145284Y0195328D01*
X0145284Y0196862D01*
X0143749Y0196862D01*
X0142214Y0195328D02*
X0142982Y0194560D01*
X0142214Y0195328D02*
X0142214Y0198397D01*
X0142982Y0199164D01*
X0144516Y0199164D01*
X0145284Y0198397D01*
X0146818Y0199164D02*
X0146818Y0194560D01*
X0149888Y0194560D02*
X0146818Y0199164D01*
X0149888Y0199164D02*
X0149888Y0194560D01*
X0151422Y0194560D02*
X0153724Y0194560D01*
X0154491Y0195328D01*
X0154491Y0198397D01*
X0153724Y0199164D01*
X0151422Y0199164D01*
X0151422Y0194560D01*
X0151246Y0179711D02*
X0153548Y0179711D01*
X0154315Y0178944D01*
X0154315Y0175875D01*
X0153548Y0175107D01*
X0151246Y0175107D01*
X0151246Y0179711D01*
X0155850Y0178944D02*
X0156617Y0179711D01*
X0158152Y0179711D01*
X0158919Y0178944D01*
X0158919Y0178177D01*
X0158152Y0177409D01*
X0158919Y0176642D01*
X0158919Y0175875D01*
X0158152Y0175107D01*
X0156617Y0175107D01*
X0155850Y0175875D01*
X0157384Y0177409D02*
X0158152Y0177409D01*
X0136076Y0194560D02*
X0136076Y0199164D01*
X0129937Y0199164D02*
X0129937Y0194560D01*
X0126868Y0199164D01*
X0126868Y0194560D01*
X0125333Y0194560D02*
X0123799Y0194560D01*
X0124566Y0194560D02*
X0124566Y0199164D01*
X0123799Y0199164D02*
X0125333Y0199164D01*
X0122264Y0199164D02*
X0122264Y0196095D01*
X0120729Y0194560D01*
X0119195Y0196095D01*
X0119195Y0199164D01*
X0164061Y0224789D02*
X0165462Y0224789D01*
X0165929Y0225256D01*
X0165929Y0227125D01*
X0165462Y0227592D01*
X0164061Y0227592D01*
X0164061Y0224789D01*
X0167007Y0224789D02*
X0167941Y0224789D01*
X0167474Y0224789D02*
X0167474Y0227592D01*
X0167007Y0227592D02*
X0167941Y0227592D01*
X0168972Y0227592D02*
X0170373Y0227592D01*
X0170840Y0227125D01*
X0170840Y0226191D01*
X0170373Y0225723D01*
X0168972Y0225723D01*
X0168972Y0224789D02*
X0168972Y0227592D01*
X0169391Y0229589D02*
X0169858Y0230056D01*
X0169858Y0232392D01*
X0170936Y0232392D02*
X0170936Y0229589D01*
X0172804Y0229589D01*
X0173883Y0230056D02*
X0174350Y0229589D01*
X0175284Y0229589D01*
X0175751Y0230056D01*
X0175751Y0230523D01*
X0175284Y0230991D01*
X0174350Y0230991D01*
X0173883Y0231458D01*
X0173883Y0231925D01*
X0174350Y0232392D01*
X0175284Y0232392D01*
X0175751Y0231925D01*
X0176829Y0231925D02*
X0176829Y0230056D01*
X0177296Y0229589D01*
X0178230Y0229589D01*
X0178697Y0230056D01*
X0178697Y0231925D01*
X0178230Y0232392D01*
X0177296Y0232392D01*
X0176829Y0231925D01*
X0172804Y0232392D02*
X0170936Y0232392D01*
X0170936Y0230991D02*
X0171870Y0230991D01*
X0169391Y0229589D02*
X0168457Y0229589D01*
X0167990Y0230056D01*
X0167990Y0232392D01*
X0166911Y0231925D02*
X0166911Y0230056D01*
X0166444Y0229589D01*
X0165510Y0229589D01*
X0165043Y0230056D01*
X0165043Y0231925D01*
X0165510Y0232392D01*
X0166444Y0232392D01*
X0166911Y0231925D01*
X0165977Y0230523D02*
X0166911Y0229589D01*
X0174865Y0227592D02*
X0175799Y0227592D01*
X0175332Y0227592D02*
X0175332Y0224789D01*
X0174865Y0224789D02*
X0175799Y0224789D01*
X0176829Y0224789D02*
X0177763Y0224789D01*
X0177296Y0224789D02*
X0177296Y0227592D01*
X0176829Y0227592D02*
X0177763Y0227592D01*
X0178793Y0227592D02*
X0179728Y0227592D01*
X0179261Y0227592D02*
X0179261Y0224789D01*
X0179728Y0224789D02*
X0178793Y0224789D01*
D12*
X0156396Y0221132D02*
X0156396Y0190817D01*
X0117026Y0190817D01*
X0117026Y0221132D01*
X0156396Y0221132D01*
D13*
X0161247Y0218081D02*
X0161247Y0043081D01*
X0161249Y0042983D01*
X0161255Y0042885D01*
X0161264Y0042787D01*
X0161278Y0042690D01*
X0161295Y0042593D01*
X0161316Y0042497D01*
X0161341Y0042402D01*
X0161369Y0042308D01*
X0161402Y0042216D01*
X0161437Y0042124D01*
X0161477Y0042034D01*
X0161519Y0041946D01*
X0161566Y0041859D01*
X0161615Y0041775D01*
X0161668Y0041692D01*
X0161724Y0041612D01*
X0161784Y0041533D01*
X0161846Y0041457D01*
X0161911Y0041384D01*
X0161979Y0041313D01*
X0162050Y0041245D01*
X0162123Y0041180D01*
X0162199Y0041118D01*
X0162278Y0041058D01*
X0162358Y0041002D01*
X0162441Y0040949D01*
X0162525Y0040900D01*
X0162612Y0040853D01*
X0162700Y0040811D01*
X0162790Y0040771D01*
X0162882Y0040736D01*
X0162974Y0040703D01*
X0163068Y0040675D01*
X0163163Y0040650D01*
X0163259Y0040629D01*
X0163356Y0040612D01*
X0163453Y0040598D01*
X0163551Y0040589D01*
X0163649Y0040583D01*
X0163747Y0040581D01*
X0182747Y0040581D01*
X0182845Y0040583D01*
X0182943Y0040589D01*
X0183041Y0040598D01*
X0183138Y0040612D01*
X0183235Y0040629D01*
X0183331Y0040650D01*
X0183426Y0040675D01*
X0183520Y0040703D01*
X0183612Y0040736D01*
X0183704Y0040771D01*
X0183794Y0040811D01*
X0183882Y0040853D01*
X0183969Y0040900D01*
X0184053Y0040949D01*
X0184136Y0041002D01*
X0184216Y0041058D01*
X0184295Y0041118D01*
X0184371Y0041180D01*
X0184444Y0041245D01*
X0184515Y0041313D01*
X0184583Y0041384D01*
X0184648Y0041457D01*
X0184710Y0041533D01*
X0184770Y0041612D01*
X0184826Y0041692D01*
X0184879Y0041775D01*
X0184928Y0041859D01*
X0184975Y0041946D01*
X0185017Y0042034D01*
X0185057Y0042124D01*
X0185092Y0042216D01*
X0185125Y0042308D01*
X0185153Y0042402D01*
X0185178Y0042497D01*
X0185199Y0042593D01*
X0185216Y0042690D01*
X0185230Y0042787D01*
X0185239Y0042885D01*
X0185245Y0042983D01*
X0185247Y0043081D01*
X0185247Y0218081D01*
X0185245Y0218179D01*
X0185239Y0218277D01*
X0185230Y0218375D01*
X0185216Y0218472D01*
X0185199Y0218569D01*
X0185178Y0218665D01*
X0185153Y0218760D01*
X0185125Y0218854D01*
X0185092Y0218946D01*
X0185057Y0219038D01*
X0185017Y0219128D01*
X0184975Y0219216D01*
X0184928Y0219303D01*
X0184879Y0219387D01*
X0184826Y0219470D01*
X0184770Y0219550D01*
X0184710Y0219629D01*
X0184648Y0219705D01*
X0184583Y0219778D01*
X0184515Y0219849D01*
X0184444Y0219917D01*
X0184371Y0219982D01*
X0184295Y0220044D01*
X0184216Y0220104D01*
X0184136Y0220160D01*
X0184053Y0220213D01*
X0183969Y0220262D01*
X0183882Y0220309D01*
X0183794Y0220351D01*
X0183704Y0220391D01*
X0183612Y0220426D01*
X0183520Y0220459D01*
X0183426Y0220487D01*
X0183331Y0220512D01*
X0183235Y0220533D01*
X0183138Y0220550D01*
X0183041Y0220564D01*
X0182943Y0220573D01*
X0182845Y0220579D01*
X0182747Y0220581D01*
X0163747Y0220581D01*
X0163649Y0220579D01*
X0163551Y0220573D01*
X0163453Y0220564D01*
X0163356Y0220550D01*
X0163259Y0220533D01*
X0163163Y0220512D01*
X0163068Y0220487D01*
X0162974Y0220459D01*
X0162882Y0220426D01*
X0162790Y0220391D01*
X0162700Y0220351D01*
X0162612Y0220309D01*
X0162525Y0220262D01*
X0162441Y0220213D01*
X0162358Y0220160D01*
X0162278Y0220104D01*
X0162199Y0220044D01*
X0162123Y0219982D01*
X0162050Y0219917D01*
X0161979Y0219849D01*
X0161911Y0219778D01*
X0161846Y0219705D01*
X0161784Y0219629D01*
X0161724Y0219550D01*
X0161668Y0219470D01*
X0161615Y0219387D01*
X0161566Y0219303D01*
X0161519Y0219216D01*
X0161477Y0219128D01*
X0161437Y0219038D01*
X0161402Y0218946D01*
X0161369Y0218854D01*
X0161341Y0218760D01*
X0161316Y0218665D01*
X0161295Y0218569D01*
X0161278Y0218472D01*
X0161264Y0218375D01*
X0161255Y0218277D01*
X0161249Y0218179D01*
X0161247Y0218081D01*
X0152554Y0214533D02*
X0152554Y0212533D01*
X0152554Y0214533D02*
X0150554Y0214533D01*
X0142554Y0214533D02*
X0140554Y0214533D01*
X0140554Y0212533D01*
X0140554Y0204533D02*
X0140554Y0202533D01*
X0142554Y0202533D01*
X0150554Y0202533D02*
X0152554Y0202533D01*
X0152554Y0204533D01*
X0132869Y0204533D02*
X0132869Y0202533D01*
X0130869Y0202533D01*
X0132869Y0212533D02*
X0132869Y0214533D01*
X0130869Y0214533D01*
X0122869Y0214533D02*
X0120869Y0214533D01*
X0120869Y0212533D01*
X0120869Y0204533D02*
X0120869Y0202533D01*
X0122869Y0202533D01*
X0105747Y0199998D02*
X0105747Y0198931D01*
X0101477Y0194660D01*
X0105747Y0194660D01*
X0105747Y0199998D02*
X0104680Y0201066D01*
X0102545Y0201066D01*
X0101477Y0199998D01*
X0099302Y0199998D02*
X0098234Y0201066D01*
X0096099Y0201066D01*
X0095032Y0199998D01*
X0095032Y0198931D01*
X0096099Y0197863D01*
X0098234Y0197863D01*
X0099302Y0196795D01*
X0099302Y0195728D01*
X0098234Y0194660D01*
X0096099Y0194660D01*
X0095032Y0195728D01*
X0092856Y0197863D02*
X0091789Y0196795D01*
X0088586Y0196795D01*
X0088586Y0194660D02*
X0088586Y0201066D01*
X0091789Y0201066D01*
X0092856Y0199998D01*
X0092856Y0197863D01*
X0076487Y0195935D02*
X0076487Y0184124D01*
X0069611Y0184124D01*
X0069611Y0195935D01*
X0076487Y0195935D01*
X0067573Y0196278D02*
X0067575Y0196321D01*
X0067581Y0196363D01*
X0067591Y0196404D01*
X0067604Y0196445D01*
X0067621Y0196483D01*
X0067642Y0196521D01*
X0067666Y0196556D01*
X0067693Y0196589D01*
X0067723Y0196619D01*
X0067756Y0196646D01*
X0067791Y0196670D01*
X0067829Y0196691D01*
X0067867Y0196708D01*
X0067908Y0196721D01*
X0067949Y0196731D01*
X0067991Y0196737D01*
X0068034Y0196739D01*
X0068077Y0196737D01*
X0068119Y0196731D01*
X0068160Y0196721D01*
X0068201Y0196708D01*
X0068239Y0196691D01*
X0068277Y0196670D01*
X0068312Y0196646D01*
X0068345Y0196619D01*
X0068375Y0196589D01*
X0068402Y0196556D01*
X0068426Y0196521D01*
X0068447Y0196483D01*
X0068464Y0196445D01*
X0068477Y0196404D01*
X0068487Y0196363D01*
X0068493Y0196321D01*
X0068495Y0196278D01*
X0068493Y0196235D01*
X0068487Y0196193D01*
X0068477Y0196152D01*
X0068464Y0196111D01*
X0068447Y0196073D01*
X0068426Y0196035D01*
X0068402Y0196000D01*
X0068375Y0195967D01*
X0068345Y0195937D01*
X0068312Y0195910D01*
X0068277Y0195886D01*
X0068239Y0195865D01*
X0068201Y0195848D01*
X0068160Y0195835D01*
X0068119Y0195825D01*
X0068077Y0195819D01*
X0068034Y0195817D01*
X0067991Y0195819D01*
X0067949Y0195825D01*
X0067908Y0195835D01*
X0067867Y0195848D01*
X0067829Y0195865D01*
X0067791Y0195886D01*
X0067756Y0195910D01*
X0067723Y0195937D01*
X0067693Y0195967D01*
X0067666Y0196000D01*
X0067642Y0196035D01*
X0067621Y0196073D01*
X0067604Y0196111D01*
X0067591Y0196152D01*
X0067581Y0196193D01*
X0067575Y0196235D01*
X0067573Y0196278D01*
X0045247Y0218081D02*
X0045247Y0043081D01*
X0045245Y0042983D01*
X0045239Y0042885D01*
X0045230Y0042787D01*
X0045216Y0042690D01*
X0045199Y0042593D01*
X0045178Y0042497D01*
X0045153Y0042402D01*
X0045125Y0042308D01*
X0045092Y0042216D01*
X0045057Y0042124D01*
X0045017Y0042034D01*
X0044975Y0041946D01*
X0044928Y0041859D01*
X0044879Y0041775D01*
X0044826Y0041692D01*
X0044770Y0041612D01*
X0044710Y0041533D01*
X0044648Y0041457D01*
X0044583Y0041384D01*
X0044515Y0041313D01*
X0044444Y0041245D01*
X0044371Y0041180D01*
X0044295Y0041118D01*
X0044216Y0041058D01*
X0044136Y0041002D01*
X0044053Y0040949D01*
X0043969Y0040900D01*
X0043882Y0040853D01*
X0043794Y0040811D01*
X0043704Y0040771D01*
X0043612Y0040736D01*
X0043520Y0040703D01*
X0043426Y0040675D01*
X0043331Y0040650D01*
X0043235Y0040629D01*
X0043138Y0040612D01*
X0043041Y0040598D01*
X0042943Y0040589D01*
X0042845Y0040583D01*
X0042747Y0040581D01*
X0023747Y0040581D01*
X0023649Y0040583D01*
X0023551Y0040589D01*
X0023453Y0040598D01*
X0023356Y0040612D01*
X0023259Y0040629D01*
X0023163Y0040650D01*
X0023068Y0040675D01*
X0022974Y0040703D01*
X0022882Y0040736D01*
X0022790Y0040771D01*
X0022700Y0040811D01*
X0022612Y0040853D01*
X0022525Y0040900D01*
X0022441Y0040949D01*
X0022358Y0041002D01*
X0022278Y0041058D01*
X0022199Y0041118D01*
X0022123Y0041180D01*
X0022050Y0041245D01*
X0021979Y0041313D01*
X0021911Y0041384D01*
X0021846Y0041457D01*
X0021784Y0041533D01*
X0021724Y0041612D01*
X0021668Y0041692D01*
X0021615Y0041775D01*
X0021566Y0041859D01*
X0021519Y0041946D01*
X0021477Y0042034D01*
X0021437Y0042124D01*
X0021402Y0042216D01*
X0021369Y0042308D01*
X0021341Y0042402D01*
X0021316Y0042497D01*
X0021295Y0042593D01*
X0021278Y0042690D01*
X0021264Y0042787D01*
X0021255Y0042885D01*
X0021249Y0042983D01*
X0021247Y0043081D01*
X0021247Y0218081D01*
X0021249Y0218179D01*
X0021255Y0218277D01*
X0021264Y0218375D01*
X0021278Y0218472D01*
X0021295Y0218569D01*
X0021316Y0218665D01*
X0021341Y0218760D01*
X0021369Y0218854D01*
X0021402Y0218946D01*
X0021437Y0219038D01*
X0021477Y0219128D01*
X0021519Y0219216D01*
X0021566Y0219303D01*
X0021615Y0219387D01*
X0021668Y0219470D01*
X0021724Y0219550D01*
X0021784Y0219629D01*
X0021846Y0219705D01*
X0021911Y0219778D01*
X0021979Y0219849D01*
X0022050Y0219917D01*
X0022123Y0219982D01*
X0022199Y0220044D01*
X0022278Y0220104D01*
X0022358Y0220160D01*
X0022441Y0220213D01*
X0022525Y0220262D01*
X0022612Y0220309D01*
X0022700Y0220351D01*
X0022790Y0220391D01*
X0022882Y0220426D01*
X0022974Y0220459D01*
X0023068Y0220487D01*
X0023163Y0220512D01*
X0023259Y0220533D01*
X0023356Y0220550D01*
X0023453Y0220564D01*
X0023551Y0220573D01*
X0023649Y0220579D01*
X0023747Y0220581D01*
X0042747Y0220581D01*
X0042845Y0220579D01*
X0042943Y0220573D01*
X0043041Y0220564D01*
X0043138Y0220550D01*
X0043235Y0220533D01*
X0043331Y0220512D01*
X0043426Y0220487D01*
X0043520Y0220459D01*
X0043612Y0220426D01*
X0043704Y0220391D01*
X0043794Y0220351D01*
X0043882Y0220309D01*
X0043969Y0220262D01*
X0044053Y0220213D01*
X0044136Y0220160D01*
X0044216Y0220104D01*
X0044295Y0220044D01*
X0044371Y0219982D01*
X0044444Y0219917D01*
X0044515Y0219849D01*
X0044583Y0219778D01*
X0044648Y0219705D01*
X0044710Y0219629D01*
X0044770Y0219550D01*
X0044826Y0219470D01*
X0044879Y0219387D01*
X0044928Y0219303D01*
X0044975Y0219216D01*
X0045017Y0219128D01*
X0045057Y0219038D01*
X0045092Y0218946D01*
X0045125Y0218854D01*
X0045153Y0218760D01*
X0045178Y0218665D01*
X0045199Y0218569D01*
X0045216Y0218472D01*
X0045230Y0218375D01*
X0045239Y0218277D01*
X0045245Y0218179D01*
X0045247Y0218081D01*
X0083715Y0142049D02*
X0126715Y0142049D01*
X0126775Y0142047D01*
X0126836Y0142042D01*
X0126895Y0142033D01*
X0126954Y0142020D01*
X0127013Y0142004D01*
X0127070Y0141984D01*
X0127125Y0141961D01*
X0127180Y0141934D01*
X0127232Y0141905D01*
X0127283Y0141872D01*
X0127332Y0141836D01*
X0127378Y0141798D01*
X0127422Y0141756D01*
X0127464Y0141712D01*
X0127502Y0141666D01*
X0127538Y0141617D01*
X0127571Y0141566D01*
X0127600Y0141514D01*
X0127627Y0141459D01*
X0127650Y0141404D01*
X0127670Y0141347D01*
X0127686Y0141288D01*
X0127699Y0141229D01*
X0127708Y0141170D01*
X0127713Y0141109D01*
X0127715Y0141049D01*
X0127715Y0137049D01*
X0127715Y0128049D02*
X0127715Y0124049D01*
X0127713Y0123989D01*
X0127708Y0123928D01*
X0127699Y0123869D01*
X0127686Y0123810D01*
X0127670Y0123751D01*
X0127650Y0123694D01*
X0127627Y0123639D01*
X0127600Y0123584D01*
X0127571Y0123532D01*
X0127538Y0123481D01*
X0127502Y0123432D01*
X0127464Y0123386D01*
X0127422Y0123342D01*
X0127378Y0123300D01*
X0127332Y0123262D01*
X0127283Y0123226D01*
X0127232Y0123193D01*
X0127180Y0123164D01*
X0127125Y0123137D01*
X0127070Y0123114D01*
X0127013Y0123094D01*
X0126954Y0123078D01*
X0126895Y0123065D01*
X0126836Y0123056D01*
X0126775Y0123051D01*
X0126715Y0123049D01*
X0083715Y0123049D01*
X0083655Y0123051D01*
X0083594Y0123056D01*
X0083535Y0123065D01*
X0083476Y0123078D01*
X0083417Y0123094D01*
X0083360Y0123114D01*
X0083305Y0123137D01*
X0083250Y0123164D01*
X0083198Y0123193D01*
X0083147Y0123226D01*
X0083098Y0123262D01*
X0083052Y0123300D01*
X0083008Y0123342D01*
X0082966Y0123386D01*
X0082928Y0123432D01*
X0082892Y0123481D01*
X0082859Y0123532D01*
X0082830Y0123584D01*
X0082803Y0123639D01*
X0082780Y0123694D01*
X0082760Y0123751D01*
X0082744Y0123810D01*
X0082731Y0123869D01*
X0082722Y0123928D01*
X0082717Y0123989D01*
X0082715Y0124049D01*
X0082715Y0128049D01*
X0082715Y0137049D02*
X0082715Y0141049D01*
X0082717Y0141109D01*
X0082722Y0141170D01*
X0082731Y0141229D01*
X0082744Y0141288D01*
X0082760Y0141347D01*
X0082780Y0141404D01*
X0082803Y0141459D01*
X0082830Y0141514D01*
X0082859Y0141566D01*
X0082892Y0141617D01*
X0082928Y0141666D01*
X0082966Y0141712D01*
X0083008Y0141756D01*
X0083052Y0141798D01*
X0083098Y0141836D01*
X0083147Y0141872D01*
X0083198Y0141905D01*
X0083250Y0141934D01*
X0083305Y0141961D01*
X0083360Y0141984D01*
X0083417Y0142004D01*
X0083476Y0142020D01*
X0083535Y0142033D01*
X0083594Y0142042D01*
X0083655Y0142047D01*
X0083715Y0142049D01*
X0102715Y0135049D02*
X0102715Y0132549D01*
X0102715Y0130049D01*
X0104215Y0130049D02*
X0106215Y0130049D01*
X0106215Y0135049D01*
X0104215Y0135049D01*
X0104215Y0130049D01*
X0107715Y0130049D02*
X0107715Y0132549D01*
X0107715Y0135049D01*
X0080419Y0110202D02*
X0080419Y0105931D01*
X0080419Y0108066D02*
X0074014Y0108066D01*
X0076149Y0105931D01*
X0075081Y0103756D02*
X0074014Y0102688D01*
X0074014Y0100553D01*
X0075081Y0099486D01*
X0076149Y0099486D01*
X0077216Y0100553D01*
X0077216Y0102688D01*
X0078284Y0103756D01*
X0079352Y0103756D01*
X0080419Y0102688D01*
X0080419Y0100553D01*
X0079352Y0099486D01*
X0077216Y0097311D02*
X0078284Y0096243D01*
X0078284Y0093040D01*
X0080419Y0093040D02*
X0074014Y0093040D01*
X0074014Y0096243D01*
X0075081Y0097311D01*
X0077216Y0097311D01*
D14*
X0036317Y0227037D02*
X0036319Y0227149D01*
X0036325Y0227260D01*
X0036335Y0227372D01*
X0036349Y0227483D01*
X0036366Y0227593D01*
X0036388Y0227703D01*
X0036414Y0227812D01*
X0036443Y0227920D01*
X0036476Y0228026D01*
X0036513Y0228132D01*
X0036554Y0228236D01*
X0036599Y0228339D01*
X0036647Y0228440D01*
X0036698Y0228539D01*
X0036753Y0228636D01*
X0036812Y0228731D01*
X0036873Y0228825D01*
X0036938Y0228916D01*
X0037007Y0229004D01*
X0037078Y0229090D01*
X0037152Y0229174D01*
X0037230Y0229254D01*
X0037310Y0229332D01*
X0037393Y0229408D01*
X0037478Y0229480D01*
X0037566Y0229549D01*
X0037656Y0229615D01*
X0037749Y0229677D01*
X0037844Y0229737D01*
X0037941Y0229793D01*
X0038039Y0229845D01*
X0038140Y0229894D01*
X0038242Y0229939D01*
X0038346Y0229981D01*
X0038451Y0230019D01*
X0038558Y0230053D01*
X0038665Y0230083D01*
X0038774Y0230110D01*
X0038883Y0230132D01*
X0038994Y0230151D01*
X0039104Y0230166D01*
X0039216Y0230177D01*
X0039327Y0230184D01*
X0039439Y0230187D01*
X0039551Y0230186D01*
X0039663Y0230181D01*
X0039774Y0230172D01*
X0039885Y0230159D01*
X0039996Y0230142D01*
X0040106Y0230122D01*
X0040215Y0230097D01*
X0040323Y0230069D01*
X0040430Y0230036D01*
X0040536Y0230000D01*
X0040640Y0229960D01*
X0040743Y0229917D01*
X0040845Y0229870D01*
X0040944Y0229819D01*
X0041042Y0229765D01*
X0041138Y0229707D01*
X0041232Y0229646D01*
X0041323Y0229582D01*
X0041412Y0229515D01*
X0041499Y0229444D01*
X0041583Y0229370D01*
X0041665Y0229294D01*
X0041743Y0229214D01*
X0041819Y0229132D01*
X0041892Y0229047D01*
X0041962Y0228960D01*
X0042028Y0228870D01*
X0042092Y0228778D01*
X0042152Y0228684D01*
X0042209Y0228588D01*
X0042262Y0228489D01*
X0042312Y0228389D01*
X0042358Y0228288D01*
X0042401Y0228184D01*
X0042440Y0228079D01*
X0042475Y0227973D01*
X0042506Y0227866D01*
X0042534Y0227757D01*
X0042557Y0227648D01*
X0042577Y0227538D01*
X0042593Y0227427D01*
X0042605Y0227316D01*
X0042613Y0227205D01*
X0042617Y0227093D01*
X0042617Y0226981D01*
X0042613Y0226869D01*
X0042605Y0226758D01*
X0042593Y0226647D01*
X0042577Y0226536D01*
X0042557Y0226426D01*
X0042534Y0226317D01*
X0042506Y0226208D01*
X0042475Y0226101D01*
X0042440Y0225995D01*
X0042401Y0225890D01*
X0042358Y0225786D01*
X0042312Y0225685D01*
X0042262Y0225585D01*
X0042209Y0225486D01*
X0042152Y0225390D01*
X0042092Y0225296D01*
X0042028Y0225204D01*
X0041962Y0225114D01*
X0041892Y0225027D01*
X0041819Y0224942D01*
X0041743Y0224860D01*
X0041665Y0224780D01*
X0041583Y0224704D01*
X0041499Y0224630D01*
X0041412Y0224559D01*
X0041323Y0224492D01*
X0041232Y0224428D01*
X0041138Y0224367D01*
X0041042Y0224309D01*
X0040944Y0224255D01*
X0040845Y0224204D01*
X0040743Y0224157D01*
X0040640Y0224114D01*
X0040536Y0224074D01*
X0040430Y0224038D01*
X0040323Y0224005D01*
X0040215Y0223977D01*
X0040106Y0223952D01*
X0039996Y0223932D01*
X0039885Y0223915D01*
X0039774Y0223902D01*
X0039663Y0223893D01*
X0039551Y0223888D01*
X0039439Y0223887D01*
X0039327Y0223890D01*
X0039216Y0223897D01*
X0039104Y0223908D01*
X0038994Y0223923D01*
X0038883Y0223942D01*
X0038774Y0223964D01*
X0038665Y0223991D01*
X0038558Y0224021D01*
X0038451Y0224055D01*
X0038346Y0224093D01*
X0038242Y0224135D01*
X0038140Y0224180D01*
X0038039Y0224229D01*
X0037941Y0224281D01*
X0037844Y0224337D01*
X0037749Y0224397D01*
X0037656Y0224459D01*
X0037566Y0224525D01*
X0037478Y0224594D01*
X0037393Y0224666D01*
X0037310Y0224742D01*
X0037230Y0224820D01*
X0037152Y0224900D01*
X0037078Y0224984D01*
X0037007Y0225070D01*
X0036938Y0225158D01*
X0036873Y0225249D01*
X0036812Y0225343D01*
X0036753Y0225438D01*
X0036698Y0225535D01*
X0036647Y0225634D01*
X0036599Y0225735D01*
X0036554Y0225838D01*
X0036513Y0225942D01*
X0036476Y0226048D01*
X0036443Y0226154D01*
X0036414Y0226262D01*
X0036388Y0226371D01*
X0036366Y0226481D01*
X0036349Y0226591D01*
X0036335Y0226702D01*
X0036325Y0226814D01*
X0036319Y0226925D01*
X0036317Y0227037D01*
D15*
X0046696Y0235691D02*
X0112696Y0235691D01*
X0112696Y0148691D01*
X0046696Y0148691D01*
X0046696Y0235691D01*
X0082403Y0194928D02*
X0081652Y0194177D01*
X0081652Y0192676D01*
X0082403Y0191926D01*
X0082403Y0190324D02*
X0081652Y0189574D01*
X0081652Y0187322D01*
X0086156Y0187322D01*
X0086156Y0189574D01*
X0085406Y0190324D01*
X0082403Y0190324D01*
X0085406Y0191926D02*
X0086156Y0192676D01*
X0086156Y0194177D01*
X0085406Y0194928D01*
X0084655Y0194928D01*
X0083904Y0194177D01*
X0083904Y0193427D01*
X0083904Y0194177D02*
X0083154Y0194928D01*
X0082403Y0194928D01*
X0081652Y0185720D02*
X0084655Y0185720D01*
X0086156Y0184219D01*
X0084655Y0182718D01*
X0081652Y0182718D01*
X0060727Y0145400D02*
X0147727Y0145400D01*
X0147727Y0079400D01*
X0060727Y0079400D01*
X0060727Y0145400D01*
X0068798Y0077234D02*
X0048325Y0077234D01*
X0048325Y0001250D01*
X0068798Y0001250D01*
X0068798Y0077234D01*
X0077853Y0077234D02*
X0077853Y0001250D01*
X0098325Y0001250D01*
X0098325Y0077234D01*
X0077853Y0077234D01*
X0107381Y0077234D02*
X0107381Y0001250D01*
X0127853Y0001250D01*
X0127853Y0077234D01*
X0107381Y0077234D01*
X0136908Y0077234D02*
X0136908Y0001250D01*
X0157381Y0001250D01*
X0157381Y0077234D01*
X0136908Y0077234D01*
D16*
X0148447Y0089011D02*
X0148447Y0093611D01*
X0158047Y0093611D02*
X0158047Y0089011D01*
X0122220Y0089011D02*
X0122220Y0093611D01*
X0112620Y0093611D02*
X0112620Y0089011D01*
X0093873Y0089011D02*
X0093873Y0093611D01*
X0084273Y0093611D02*
X0084273Y0089011D01*
X0060015Y0090192D02*
X0060015Y0094792D01*
X0050415Y0094792D02*
X0050415Y0090192D01*
D17*
X0062727Y0124550D02*
X0065196Y0124550D01*
X0065813Y0125167D01*
X0065813Y0126401D01*
X0065196Y0127018D01*
X0065196Y0128233D02*
X0065813Y0128850D01*
X0065813Y0130084D01*
X0065196Y0130702D01*
X0062727Y0130702D01*
X0062110Y0130084D01*
X0062110Y0128850D01*
X0062727Y0128233D01*
X0063344Y0128233D01*
X0063962Y0128850D01*
X0063962Y0130702D01*
X0062727Y0127018D02*
X0062110Y0126401D01*
X0062110Y0125167D01*
X0062727Y0124550D01*
X0131795Y0124913D02*
X0131795Y0126147D01*
X0132412Y0126765D01*
X0133030Y0126765D01*
X0133647Y0126147D01*
X0133647Y0124913D01*
X0133030Y0124296D01*
X0132412Y0124296D01*
X0131795Y0124913D01*
X0133647Y0124913D02*
X0134264Y0124296D01*
X0134881Y0124296D01*
X0135498Y0124913D01*
X0135498Y0126147D01*
X0134881Y0126765D01*
X0134264Y0126765D01*
X0133647Y0126147D01*
X0134881Y0123081D02*
X0135498Y0122464D01*
X0135498Y0121230D01*
X0134881Y0120613D01*
X0132412Y0120613D01*
X0131795Y0121230D01*
X0131795Y0122464D01*
X0132412Y0123081D01*
X0143571Y0128726D02*
X0144188Y0128109D01*
X0146657Y0128109D01*
X0147274Y0128726D01*
X0147274Y0129960D01*
X0146657Y0130577D01*
X0146657Y0131792D02*
X0147274Y0132409D01*
X0147274Y0133643D01*
X0146657Y0134260D01*
X0145422Y0134260D01*
X0144805Y0133643D01*
X0144805Y0133026D01*
X0145422Y0131792D01*
X0143571Y0131792D01*
X0143571Y0134260D01*
X0144188Y0130577D02*
X0143571Y0129960D01*
X0143571Y0128726D01*
D18*
X0142223Y0159518D03*
X0139073Y0160699D03*
X0134349Y0160699D03*
X0131199Y0160699D03*
X0126475Y0160699D03*
X0123325Y0160699D03*
X0118601Y0160699D03*
X0146948Y0159518D03*
X0150097Y0159518D03*
X0154822Y0159518D03*
D19*
X0152459Y0159518D03*
X0144585Y0159518D03*
X0136711Y0160699D03*
X0128837Y0160699D03*
X0120963Y0160699D03*
D20*
X0118715Y0140549D02*
X0091715Y0140549D01*
X0091715Y0137549D02*
X0118715Y0137549D01*
X0118848Y0137547D01*
X0118980Y0137542D01*
X0119112Y0137533D01*
X0119245Y0137521D01*
X0119376Y0137505D01*
X0119508Y0137486D01*
X0119638Y0137463D01*
X0119768Y0137437D01*
X0119898Y0137407D01*
X0120026Y0137374D01*
X0120154Y0137338D01*
X0120280Y0137298D01*
X0120406Y0137255D01*
X0120530Y0137208D01*
X0120653Y0137158D01*
X0120774Y0137105D01*
X0120894Y0137049D01*
X0118715Y0140549D02*
X0118909Y0140547D01*
X0119104Y0140540D01*
X0119298Y0140528D01*
X0119492Y0140511D01*
X0119686Y0140490D01*
X0119879Y0140464D01*
X0120071Y0140433D01*
X0120262Y0140398D01*
X0120453Y0140358D01*
X0120642Y0140313D01*
X0120831Y0140264D01*
X0121018Y0140210D01*
X0121204Y0140152D01*
X0121388Y0140089D01*
X0121571Y0140022D01*
X0121752Y0139950D01*
X0121931Y0139874D01*
X0122108Y0139794D01*
X0122283Y0139709D01*
X0122457Y0139620D01*
X0122628Y0139527D01*
X0122796Y0139430D01*
X0122962Y0139328D01*
X0123126Y0139223D01*
X0123287Y0139114D01*
X0123446Y0139000D01*
X0123601Y0138883D01*
X0123754Y0138763D01*
X0123904Y0138638D01*
X0124050Y0138510D01*
X0124194Y0138379D01*
X0124334Y0138244D01*
X0124471Y0138105D01*
X0124604Y0137963D01*
X0124734Y0137819D01*
X0124861Y0137671D01*
X0124984Y0137519D01*
X0125103Y0137365D01*
X0125218Y0137209D01*
X0125329Y0137049D01*
X0120894Y0128049D02*
X0120774Y0127993D01*
X0120653Y0127940D01*
X0120530Y0127890D01*
X0120406Y0127843D01*
X0120280Y0127800D01*
X0120154Y0127760D01*
X0120026Y0127724D01*
X0119898Y0127691D01*
X0119768Y0127661D01*
X0119638Y0127635D01*
X0119508Y0127612D01*
X0119376Y0127593D01*
X0119245Y0127577D01*
X0119112Y0127565D01*
X0118980Y0127556D01*
X0118848Y0127551D01*
X0118715Y0127549D01*
X0091715Y0127549D01*
X0091715Y0124549D02*
X0118715Y0124549D01*
X0118910Y0124551D01*
X0119105Y0124558D01*
X0119299Y0124570D01*
X0119493Y0124587D01*
X0119686Y0124608D01*
X0119879Y0124634D01*
X0120072Y0124665D01*
X0120263Y0124700D01*
X0120454Y0124740D01*
X0120643Y0124785D01*
X0120831Y0124834D01*
X0121019Y0124888D01*
X0121204Y0124946D01*
X0121389Y0125009D01*
X0121571Y0125076D01*
X0121752Y0125148D01*
X0121931Y0125224D01*
X0122109Y0125304D01*
X0122284Y0125389D01*
X0122457Y0125478D01*
X0122628Y0125571D01*
X0122797Y0125669D01*
X0122963Y0125770D01*
X0123127Y0125875D01*
X0123288Y0125985D01*
X0123446Y0126098D01*
X0123602Y0126215D01*
X0123754Y0126336D01*
X0123904Y0126460D01*
X0124051Y0126588D01*
X0124194Y0126720D01*
X0124334Y0126855D01*
X0124471Y0126993D01*
X0124605Y0127135D01*
X0124735Y0127280D01*
X0124861Y0127428D01*
X0124984Y0127579D01*
X0125103Y0127733D01*
X0125218Y0127890D01*
X0125330Y0128049D01*
X0109715Y0132549D02*
X0107715Y0132549D01*
X0102715Y0132549D02*
X0100715Y0132549D01*
X0091716Y0140549D02*
X0091521Y0140547D01*
X0091327Y0140540D01*
X0091132Y0140528D01*
X0090938Y0140511D01*
X0090745Y0140490D01*
X0090552Y0140464D01*
X0090360Y0140433D01*
X0090168Y0140398D01*
X0089978Y0140358D01*
X0089788Y0140313D01*
X0089600Y0140264D01*
X0089413Y0140210D01*
X0089227Y0140152D01*
X0089043Y0140089D01*
X0088860Y0140022D01*
X0088679Y0139950D01*
X0088500Y0139874D01*
X0088323Y0139794D01*
X0088147Y0139709D01*
X0087974Y0139620D01*
X0087803Y0139527D01*
X0087635Y0139430D01*
X0087468Y0139328D01*
X0087305Y0139223D01*
X0087144Y0139113D01*
X0086985Y0139000D01*
X0086830Y0138883D01*
X0086677Y0138762D01*
X0086527Y0138638D01*
X0086381Y0138510D01*
X0086237Y0138378D01*
X0086097Y0138243D01*
X0085960Y0138105D01*
X0085827Y0137963D01*
X0085697Y0137818D01*
X0085570Y0137670D01*
X0085447Y0137519D01*
X0085328Y0137365D01*
X0085213Y0137208D01*
X0085101Y0137049D01*
X0085101Y0128049D02*
X0085212Y0127889D01*
X0085327Y0127733D01*
X0085446Y0127579D01*
X0085569Y0127427D01*
X0085696Y0127279D01*
X0085826Y0127135D01*
X0085959Y0126993D01*
X0086096Y0126854D01*
X0086236Y0126719D01*
X0086380Y0126588D01*
X0086526Y0126460D01*
X0086676Y0126335D01*
X0086829Y0126215D01*
X0086984Y0126098D01*
X0087143Y0125984D01*
X0087304Y0125875D01*
X0087468Y0125770D01*
X0087634Y0125668D01*
X0087802Y0125571D01*
X0087973Y0125478D01*
X0088147Y0125389D01*
X0088322Y0125304D01*
X0088499Y0125224D01*
X0088678Y0125148D01*
X0088859Y0125076D01*
X0089042Y0125009D01*
X0089226Y0124946D01*
X0089412Y0124888D01*
X0089599Y0124834D01*
X0089788Y0124785D01*
X0089977Y0124740D01*
X0090168Y0124700D01*
X0090359Y0124665D01*
X0090551Y0124634D01*
X0090744Y0124608D01*
X0090938Y0124587D01*
X0091132Y0124570D01*
X0091326Y0124558D01*
X0091521Y0124551D01*
X0091715Y0124549D01*
X0091715Y0127549D02*
X0091582Y0127551D01*
X0091450Y0127556D01*
X0091318Y0127565D01*
X0091185Y0127577D01*
X0091054Y0127593D01*
X0090922Y0127612D01*
X0090792Y0127635D01*
X0090662Y0127661D01*
X0090532Y0127691D01*
X0090404Y0127724D01*
X0090276Y0127760D01*
X0090150Y0127800D01*
X0090024Y0127843D01*
X0089900Y0127890D01*
X0089777Y0127940D01*
X0089656Y0127993D01*
X0089536Y0128049D01*
X0089536Y0137049D02*
X0089656Y0137105D01*
X0089777Y0137158D01*
X0089900Y0137208D01*
X0090024Y0137255D01*
X0090150Y0137298D01*
X0090276Y0137338D01*
X0090404Y0137374D01*
X0090532Y0137407D01*
X0090662Y0137437D01*
X0090792Y0137463D01*
X0090922Y0137486D01*
X0091054Y0137505D01*
X0091185Y0137521D01*
X0091318Y0137533D01*
X0091450Y0137542D01*
X0091582Y0137547D01*
X0091715Y0137549D01*
X0099210Y0202283D02*
X0099210Y0203684D01*
X0099678Y0204151D01*
X0101546Y0204151D01*
X0102013Y0203684D01*
X0102013Y0202283D01*
X0099210Y0202283D01*
X0100145Y0205045D02*
X0099210Y0205979D01*
X0100145Y0206913D01*
X0102013Y0206913D01*
X0100612Y0206913D02*
X0100612Y0205045D01*
X0100145Y0205045D02*
X0102013Y0205045D01*
X0102013Y0208741D02*
X0099210Y0208741D01*
X0099210Y0207807D02*
X0099210Y0209676D01*
X0100145Y0210570D02*
X0099210Y0211504D01*
X0100145Y0212438D01*
X0102013Y0212438D01*
X0102480Y0213332D02*
X0102480Y0215200D01*
X0101546Y0216094D02*
X0102013Y0216561D01*
X0102013Y0217496D01*
X0101546Y0217963D01*
X0099210Y0217963D01*
X0099678Y0218857D02*
X0100145Y0218857D01*
X0100612Y0219324D01*
X0100612Y0220258D01*
X0101079Y0220725D01*
X0101546Y0220725D01*
X0102013Y0220258D01*
X0102013Y0219324D01*
X0101546Y0218857D01*
X0099678Y0218857D02*
X0099210Y0219324D01*
X0099210Y0220258D01*
X0099678Y0220725D01*
X0099210Y0221619D02*
X0099210Y0223020D01*
X0099678Y0223487D01*
X0100145Y0223487D01*
X0100612Y0223020D01*
X0100612Y0221619D01*
X0102013Y0221619D02*
X0099210Y0221619D01*
X0100612Y0223020D02*
X0101079Y0223487D01*
X0101546Y0223487D01*
X0102013Y0223020D01*
X0102013Y0221619D01*
X0101546Y0216094D02*
X0099210Y0216094D01*
X0100612Y0212438D02*
X0100612Y0210570D01*
X0100145Y0210570D02*
X0102013Y0210570D01*
X0157872Y0210764D02*
X0158339Y0211231D01*
X0159273Y0211231D01*
X0159740Y0210764D01*
X0159740Y0209363D01*
X0160674Y0209363D02*
X0157872Y0209363D01*
X0157872Y0210764D01*
X0158339Y0212125D02*
X0160207Y0212125D01*
X0160674Y0212592D01*
X0160674Y0213526D01*
X0160207Y0213993D01*
X0158339Y0213993D01*
X0157872Y0213526D01*
X0157872Y0212592D01*
X0158339Y0212125D01*
X0157872Y0214887D02*
X0160674Y0214887D01*
X0159740Y0215822D01*
X0160674Y0216756D01*
X0157872Y0216756D01*
X0157872Y0217650D02*
X0160674Y0217650D01*
X0160674Y0219518D01*
X0160674Y0220412D02*
X0157872Y0220412D01*
X0157872Y0221813D01*
X0158339Y0222280D01*
X0159273Y0222280D01*
X0159740Y0221813D01*
X0159740Y0220412D01*
X0159740Y0221346D02*
X0160674Y0222280D01*
X0161141Y0223175D02*
X0161141Y0225043D01*
X0160207Y0225937D02*
X0160674Y0226404D01*
X0160674Y0227338D01*
X0160207Y0227805D01*
X0157872Y0227805D01*
X0158339Y0228699D02*
X0158806Y0228699D01*
X0159273Y0229166D01*
X0159273Y0230100D01*
X0159740Y0230567D01*
X0160207Y0230567D01*
X0160674Y0230100D01*
X0160674Y0229166D01*
X0160207Y0228699D01*
X0158339Y0228699D02*
X0157872Y0229166D01*
X0157872Y0230100D01*
X0158339Y0230567D01*
X0157872Y0231462D02*
X0157872Y0232863D01*
X0158339Y0233330D01*
X0158806Y0233330D01*
X0159273Y0232863D01*
X0159273Y0231462D01*
X0159273Y0232863D02*
X0159740Y0233330D01*
X0160207Y0233330D01*
X0160674Y0232863D01*
X0160674Y0231462D01*
X0157872Y0231462D01*
X0157872Y0225937D02*
X0160207Y0225937D01*
X0157872Y0219518D02*
X0157872Y0217650D01*
X0159273Y0217650D02*
X0159273Y0218584D01*
D21*
X0150097Y0219360D02*
X0123325Y0219360D01*
X0123325Y0225659D01*
X0123325Y0235896D02*
X0150097Y0235896D01*
X0150097Y0225659D02*
X0150097Y0219360D01*
X0134715Y0182943D02*
X0134715Y0175069D01*
X0130688Y0179006D01*
X0134715Y0182943D01*
X0096948Y0219360D02*
X0070176Y0219360D01*
X0070176Y0225659D01*
X0070176Y0235896D02*
X0096948Y0235896D01*
X0096948Y0225659D02*
X0096948Y0219360D01*
D22*
X0059398Y0203110D03*
X0059398Y0193015D03*
X0059398Y0160239D03*
D23*
X0059333Y0160370D03*
X0059464Y0193802D03*
D24*
X0059398Y0194457D03*
X0059398Y0202717D03*
X0059398Y0160502D03*
D25*
X0059333Y0160633D03*
X0063397Y0176627D03*
X0059464Y0194850D03*
D26*
X0059398Y0202454D03*
X0063463Y0176103D03*
X0059398Y0160764D03*
D27*
X0059398Y0160895D03*
X0063332Y0175709D03*
X0059398Y0195637D03*
X0059398Y0202323D03*
D28*
X0059464Y0195899D03*
X0059333Y0161026D03*
D29*
X0059398Y0161157D03*
X0059398Y0196161D03*
D30*
X0059333Y0161288D03*
D31*
X0059398Y0161419D03*
D32*
X0059333Y0161550D03*
D33*
X0059333Y0161681D03*
X0061299Y0199701D03*
X0061431Y0199832D03*
X0061562Y0199963D03*
X0061562Y0200094D03*
X0059464Y0201799D03*
D34*
X0061431Y0200619D03*
X0061562Y0200488D03*
X0061693Y0200357D03*
X0059464Y0197341D03*
X0059333Y0161813D03*
D35*
X0059398Y0161944D03*
X0059398Y0197604D03*
D36*
X0059464Y0197735D03*
X0059333Y0162075D03*
D37*
X0059333Y0162206D03*
X0059464Y0197866D03*
D38*
X0059333Y0162337D03*
D39*
X0059333Y0162468D03*
X0059464Y0198259D03*
D40*
X0059398Y0162599D03*
D41*
X0059398Y0162730D03*
X0059398Y0198521D03*
X0059398Y0201274D03*
D42*
X0059333Y0162861D03*
D43*
X0059333Y0162993D03*
X0059464Y0198783D03*
D44*
X0059398Y0163124D03*
D45*
X0059333Y0163255D03*
X0059464Y0198915D03*
D46*
X0059333Y0163386D03*
D47*
X0059398Y0163517D03*
D48*
X0059333Y0163648D03*
D49*
X0059398Y0163779D03*
D50*
X0059333Y0163910D03*
D51*
X0059333Y0164041D03*
D52*
X0059398Y0164172D03*
D53*
X0059333Y0164304D03*
D54*
X0059398Y0164435D03*
D55*
X0059333Y0164566D03*
D56*
X0059398Y0164697D03*
D57*
X0059333Y0164828D03*
X0059333Y0164959D03*
D58*
X0059398Y0165090D03*
D59*
X0059333Y0165221D03*
D60*
X0059398Y0165352D03*
D61*
X0059333Y0165483D03*
X0059333Y0165615D03*
D62*
X0059398Y0165746D03*
D63*
X0059333Y0165877D03*
D64*
X0059398Y0166008D03*
X0059398Y0166139D03*
D65*
X0059333Y0166270D03*
D66*
X0059398Y0166401D03*
X0059398Y0166532D03*
D67*
X0059333Y0166663D03*
X0059333Y0166794D03*
X0059464Y0175578D03*
D68*
X0059398Y0175447D03*
X0059398Y0175316D03*
X0059398Y0166926D03*
D69*
X0059333Y0167057D03*
X0059333Y0167188D03*
X0059464Y0175054D03*
X0059464Y0175185D03*
D70*
X0059398Y0174923D03*
X0059398Y0174792D03*
X0059398Y0174661D03*
X0059398Y0174530D03*
X0059398Y0167319D03*
D71*
X0059333Y0167450D03*
X0059333Y0167581D03*
D72*
X0059398Y0167712D03*
X0059398Y0167843D03*
D73*
X0059333Y0167974D03*
X0059333Y0168106D03*
D74*
X0059398Y0168237D03*
X0059398Y0168368D03*
D75*
X0059333Y0168499D03*
X0059333Y0168630D03*
X0059333Y0168761D03*
D76*
X0059398Y0168892D03*
X0059398Y0169023D03*
D77*
X0059333Y0169154D03*
X0059333Y0169285D03*
D78*
X0059398Y0169417D03*
X0059398Y0169548D03*
D79*
X0059333Y0169679D03*
D80*
X0059398Y0169810D03*
D81*
X0059464Y0169941D03*
D82*
X0059398Y0170072D03*
D83*
X0059464Y0170203D03*
X0059464Y0170334D03*
X0059464Y0173087D03*
D84*
X0059464Y0172825D03*
X0059464Y0170465D03*
D85*
X0059398Y0170596D03*
X0059398Y0172694D03*
D86*
X0059464Y0172563D03*
X0059464Y0172432D03*
X0059464Y0172301D03*
X0059464Y0172170D03*
X0059464Y0172039D03*
X0059464Y0171907D03*
X0059464Y0171776D03*
X0059464Y0171645D03*
X0059464Y0171514D03*
X0059464Y0171383D03*
X0059464Y0171252D03*
X0059464Y0171121D03*
X0059464Y0170990D03*
X0059464Y0170859D03*
X0059464Y0170728D03*
D87*
X0059398Y0172956D03*
D88*
X0059464Y0173219D03*
D89*
X0059398Y0173350D03*
D90*
X0059398Y0173481D03*
D91*
X0052450Y0178594D03*
X0052188Y0178463D03*
X0052057Y0178331D03*
X0051795Y0178200D03*
X0051663Y0178069D03*
X0051532Y0177938D03*
X0051270Y0177807D03*
X0050090Y0175709D03*
X0059398Y0188426D03*
D92*
X0052778Y0178725D03*
X0051073Y0177676D03*
X0050025Y0175841D03*
D93*
X0063463Y0175841D03*
X0063463Y0175972D03*
X0059398Y0195506D03*
D94*
X0059398Y0188295D03*
X0051008Y0177545D03*
X0050877Y0177414D03*
X0050746Y0177283D03*
X0050615Y0177152D03*
X0050615Y0177020D03*
X0050484Y0176889D03*
X0050352Y0176627D03*
X0050221Y0176496D03*
X0050221Y0176365D03*
X0050090Y0176103D03*
X0050090Y0175972D03*
D95*
X0050156Y0176234D03*
X0050418Y0176758D03*
X0059464Y0188164D03*
D96*
X0059464Y0195244D03*
X0063397Y0176234D03*
D97*
X0063463Y0176365D03*
X0059398Y0195113D03*
D98*
X0063397Y0176496D03*
D99*
X0063397Y0176758D03*
X0059464Y0194719D03*
D100*
X0063528Y0176889D03*
D101*
X0063594Y0177020D03*
D102*
X0063463Y0177152D03*
X0059398Y0194064D03*
D103*
X0059398Y0193933D03*
X0063463Y0177283D03*
D104*
X0063463Y0177414D03*
X0055072Y0200750D03*
D105*
X0055203Y0201012D03*
X0059398Y0193408D03*
X0063594Y0199046D03*
X0063725Y0199177D03*
X0063463Y0177545D03*
D106*
X0062217Y0177676D03*
D107*
X0069690Y0177676D03*
D108*
X0062283Y0177807D03*
D109*
X0062348Y0177938D03*
X0058677Y0179643D03*
X0058677Y0179774D03*
X0058677Y0179905D03*
D110*
X0058743Y0180167D03*
X0062414Y0178069D03*
D111*
X0062479Y0178200D03*
D112*
X0062610Y0178331D03*
D113*
X0062676Y0178463D03*
X0062414Y0178856D03*
X0059398Y0203765D03*
D114*
X0062610Y0178594D03*
D115*
X0062545Y0178725D03*
X0059398Y0190000D03*
D116*
X0059398Y0184887D03*
X0050746Y0178856D03*
D117*
X0054613Y0178856D03*
X0062873Y0190786D03*
X0062873Y0190917D03*
D118*
X0059464Y0193277D03*
X0055400Y0201143D03*
X0059988Y0178987D03*
D119*
X0059923Y0179118D03*
X0059398Y0193146D03*
D120*
X0059857Y0179249D03*
D121*
X0059857Y0179380D03*
D122*
X0058677Y0179511D03*
D123*
X0063332Y0180429D03*
X0065954Y0179511D03*
X0059398Y0184493D03*
D124*
X0059398Y0183969D03*
X0063463Y0180822D03*
X0066085Y0179643D03*
D125*
X0066150Y0179774D03*
D126*
X0058677Y0180036D03*
D127*
X0059202Y0180954D03*
X0063266Y0180298D03*
X0054089Y0180298D03*
D128*
X0058874Y0180298D03*
X0059398Y0187378D03*
D129*
X0059398Y0184231D03*
X0059398Y0184100D03*
X0063463Y0180691D03*
X0053892Y0180429D03*
D130*
X0058874Y0180429D03*
X0059398Y0186984D03*
X0056514Y0190917D03*
X0066871Y0196948D03*
D131*
X0053696Y0180560D03*
D132*
X0058940Y0180560D03*
D133*
X0059398Y0184362D03*
X0063332Y0180560D03*
D134*
X0059071Y0180691D03*
X0062610Y0190262D03*
X0062610Y0190393D03*
X0062742Y0190524D03*
D135*
X0059071Y0180822D03*
X0048451Y0200357D03*
X0048714Y0200619D03*
D136*
X0063528Y0180954D03*
D137*
X0063594Y0181085D03*
X0059398Y0183576D03*
X0059398Y0183707D03*
D138*
X0059398Y0183444D03*
X0063594Y0181216D03*
D139*
X0059398Y0183313D03*
D140*
X0059398Y0183838D03*
D141*
X0059398Y0184624D03*
X0059398Y0184756D03*
D142*
X0059398Y0185018D03*
D143*
X0059398Y0185149D03*
X0059398Y0185280D03*
D144*
X0059398Y0185411D03*
X0048517Y0200094D03*
X0048517Y0200226D03*
D145*
X0048517Y0200488D03*
X0059398Y0185542D03*
D146*
X0059464Y0185673D03*
D147*
X0059398Y0185804D03*
D148*
X0059398Y0185935D03*
D149*
X0059398Y0186067D03*
X0059398Y0186198D03*
X0062414Y0190131D03*
X0062807Y0190655D03*
X0059398Y0204290D03*
D150*
X0059398Y0186329D03*
D151*
X0059398Y0186460D03*
X0062938Y0191180D03*
D152*
X0059398Y0186722D03*
X0059398Y0186591D03*
D153*
X0059398Y0186853D03*
X0056776Y0190393D03*
X0056645Y0190524D03*
X0066609Y0196555D03*
X0066740Y0196686D03*
D154*
X0059398Y0187246D03*
X0059398Y0187115D03*
X0056514Y0191048D03*
X0056514Y0191180D03*
D155*
X0059398Y0187509D03*
X0059398Y0204159D03*
D156*
X0059398Y0187771D03*
X0059398Y0187640D03*
D157*
X0059398Y0187902D03*
D158*
X0059398Y0188033D03*
D159*
X0059398Y0188557D03*
X0051663Y0199177D03*
X0067265Y0201012D03*
D160*
X0067330Y0200881D03*
X0059464Y0188689D03*
X0051729Y0199046D03*
X0051598Y0199308D03*
D161*
X0059398Y0188820D03*
D162*
X0059398Y0188951D03*
X0067396Y0200750D03*
D163*
X0059398Y0189082D03*
D164*
X0059464Y0189213D03*
D165*
X0059398Y0189344D03*
X0059398Y0203896D03*
D166*
X0059398Y0189475D03*
D167*
X0059398Y0189606D03*
D168*
X0059464Y0189737D03*
D169*
X0059398Y0189869D03*
D170*
X0056973Y0190131D03*
X0056580Y0190655D03*
X0056580Y0190786D03*
X0066544Y0196424D03*
X0066806Y0196817D03*
D171*
X0062873Y0191311D03*
X0056842Y0190262D03*
D172*
X0062873Y0191048D03*
D173*
X0056580Y0191311D03*
D174*
X0059398Y0191442D03*
X0059398Y0203503D03*
D175*
X0059398Y0191573D03*
D176*
X0059464Y0191704D03*
D177*
X0059398Y0191835D03*
D178*
X0059398Y0191966D03*
X0059398Y0203372D03*
D179*
X0059398Y0192097D03*
D180*
X0059464Y0192228D03*
D181*
X0059398Y0192359D03*
X0056252Y0196686D03*
D182*
X0056121Y0196948D03*
X0059398Y0192491D03*
X0059398Y0203241D03*
D183*
X0056121Y0197079D03*
X0059398Y0192622D03*
D184*
X0059464Y0192753D03*
X0056186Y0197210D03*
D185*
X0059398Y0192884D03*
D186*
X0059398Y0193539D03*
X0055072Y0200881D03*
X0059398Y0202979D03*
D187*
X0063790Y0199439D03*
X0059464Y0193670D03*
D188*
X0059464Y0194195D03*
D189*
X0059464Y0194326D03*
D190*
X0059398Y0194588D03*
D191*
X0059398Y0194981D03*
D192*
X0059464Y0195375D03*
D193*
X0059464Y0195768D03*
D194*
X0059398Y0196030D03*
X0059398Y0202192D03*
D195*
X0059464Y0196293D03*
D196*
X0056449Y0196424D03*
X0056318Y0196555D03*
X0056186Y0196817D03*
D197*
X0066806Y0197079D03*
D198*
X0066806Y0197210D03*
D199*
X0059398Y0197472D03*
D200*
X0059398Y0197997D03*
D201*
X0059398Y0198128D03*
X0059398Y0201406D03*
D202*
X0059464Y0198390D03*
D203*
X0059398Y0198652D03*
D204*
X0063790Y0199308D03*
D205*
X0051598Y0199439D03*
D206*
X0059398Y0199570D03*
D207*
X0048845Y0199701D03*
X0048714Y0199832D03*
X0048583Y0199963D03*
D208*
X0061627Y0200226D03*
D209*
X0059333Y0204028D03*
X0067068Y0201143D03*
D210*
X0059398Y0201537D03*
D211*
X0059464Y0201668D03*
D212*
X0059464Y0201930D03*
D213*
X0059398Y0202061D03*
D214*
X0059398Y0202585D03*
D215*
X0059464Y0202848D03*
D216*
X0059398Y0203634D03*
M02*
