G75*
%MOIN*%
%OFA0B0*%
%FSLAX25Y25*%
%IPPOS*%
%LPD*%
%AMOC8*
5,1,8,0,0,1.08239X$1,22.5*
%
%ADD10C,0.01600*%
%ADD11C,0.00500*%
%ADD12C,0.00400*%
%ADD13C,0.00300*%
%ADD14C,0.00200*%
%ADD15C,0.01000*%
%ADD16C,0.00000*%
%ADD17C,0.00800*%
%ADD18C,0.00600*%
D10*
X0022538Y0040030D02*
X0183955Y0040030D01*
X0183955Y0236880D01*
X0039073Y0236880D01*
X0022538Y0220344D01*
X0022538Y0040030D01*
D11*
X0080081Y0055610D02*
X0081583Y0057111D01*
X0084585Y0057111D01*
X0084585Y0058712D02*
X0084585Y0060964D01*
X0083835Y0061715D01*
X0080832Y0061715D01*
X0080081Y0060964D01*
X0080081Y0058712D01*
X0084585Y0058712D01*
X0084585Y0054108D02*
X0081583Y0054108D01*
X0080081Y0055610D01*
X0080081Y0063316D02*
X0080081Y0066319D01*
X0080081Y0064817D02*
X0084585Y0064817D01*
X0083084Y0063316D01*
X0141105Y0064104D02*
X0144108Y0067106D01*
X0144858Y0067106D01*
X0145609Y0066355D01*
X0145609Y0064854D01*
X0144858Y0064104D01*
X0144858Y0062502D02*
X0141856Y0062502D01*
X0141105Y0061752D01*
X0141105Y0059500D01*
X0145609Y0059500D01*
X0145609Y0061752D01*
X0144858Y0062502D01*
X0141105Y0064104D02*
X0141105Y0067106D01*
X0142606Y0057898D02*
X0141105Y0056397D01*
X0142606Y0054896D01*
X0145609Y0054896D01*
X0145609Y0057898D02*
X0142606Y0057898D01*
X0139235Y0168075D02*
X0137734Y0168075D01*
X0136983Y0168825D01*
X0136983Y0169576D01*
X0137734Y0170327D01*
X0139235Y0170327D01*
X0139986Y0171077D01*
X0139986Y0171828D01*
X0139235Y0172579D01*
X0137734Y0172579D01*
X0136983Y0171828D01*
X0135382Y0168825D02*
X0134631Y0168075D01*
X0133880Y0168075D01*
X0133130Y0168825D01*
X0133130Y0172579D01*
X0133880Y0172579D02*
X0132379Y0172579D01*
X0130778Y0171828D02*
X0130027Y0172579D01*
X0128526Y0172579D01*
X0127775Y0171828D01*
X0127775Y0171077D01*
X0128526Y0170327D01*
X0127775Y0169576D01*
X0127775Y0168825D01*
X0128526Y0168075D01*
X0130027Y0168075D01*
X0130778Y0168825D01*
X0129277Y0170327D02*
X0128526Y0170327D01*
X0139235Y0168075D02*
X0139986Y0168825D01*
X0164751Y0223589D02*
X0165919Y0223589D01*
X0166503Y0224173D01*
X0166503Y0224757D01*
X0165919Y0225340D01*
X0164751Y0225340D01*
X0164168Y0224757D01*
X0164168Y0224173D01*
X0164751Y0223589D01*
X0164751Y0225340D02*
X0164168Y0225924D01*
X0164168Y0226508D01*
X0164751Y0227092D01*
X0165919Y0227092D01*
X0166503Y0226508D01*
X0166503Y0225924D01*
X0165919Y0225340D01*
X0167851Y0225340D02*
X0170186Y0225340D01*
X0168435Y0227092D01*
X0168435Y0223589D01*
X0171444Y0223589D02*
X0172028Y0223589D01*
X0172028Y0224173D01*
X0171444Y0224173D01*
X0171444Y0223589D01*
X0173375Y0224173D02*
X0173375Y0226508D01*
X0175711Y0224173D01*
X0175127Y0223589D01*
X0173959Y0223589D01*
X0173375Y0224173D01*
X0173375Y0226508D02*
X0173959Y0227092D01*
X0175127Y0227092D01*
X0175711Y0226508D01*
X0175711Y0224173D01*
X0177059Y0225924D02*
X0178226Y0223589D01*
X0179394Y0225924D01*
X0175711Y0230173D02*
X0175127Y0229589D01*
X0174543Y0229589D01*
X0173959Y0230173D01*
X0173959Y0233092D01*
X0174543Y0233092D02*
X0173375Y0233092D01*
X0172028Y0233092D02*
X0172028Y0229589D01*
X0172028Y0230757D02*
X0169692Y0233092D01*
X0168345Y0233092D02*
X0168345Y0229589D01*
X0167177Y0230757D01*
X0166009Y0229589D01*
X0166009Y0233092D01*
X0169692Y0229589D02*
X0171444Y0231340D01*
D12*
X0153461Y0200345D02*
X0151926Y0200345D01*
X0151159Y0199578D01*
X0151159Y0198043D02*
X0152693Y0198043D01*
X0151159Y0198043D02*
X0151159Y0196509D01*
X0151926Y0195741D01*
X0153461Y0195741D01*
X0154228Y0196509D01*
X0154228Y0199578D01*
X0153461Y0200345D01*
X0149624Y0200345D02*
X0149624Y0195741D01*
X0146555Y0195741D02*
X0146555Y0200345D01*
X0145020Y0200345D02*
X0142718Y0200345D01*
X0141951Y0199578D01*
X0141951Y0196509D01*
X0142718Y0195741D01*
X0145020Y0195741D01*
X0145020Y0200345D01*
X0149624Y0200345D02*
X0146555Y0195741D01*
X0147535Y0189322D02*
X0144466Y0189322D01*
X0142931Y0189322D02*
X0142931Y0186252D01*
X0141396Y0184718D01*
X0139862Y0186252D01*
X0139862Y0189322D01*
X0144466Y0187020D02*
X0144466Y0185485D01*
X0145233Y0184718D01*
X0146768Y0184718D01*
X0147535Y0185485D01*
X0147535Y0187020D02*
X0146000Y0187787D01*
X0145233Y0187787D01*
X0144466Y0187020D01*
X0147535Y0187020D02*
X0147535Y0189322D01*
X0135812Y0195741D02*
X0135812Y0200345D01*
X0129674Y0200345D02*
X0129674Y0197276D01*
X0128139Y0195741D01*
X0126604Y0197276D01*
X0126604Y0200345D01*
X0125070Y0200345D02*
X0123535Y0200345D01*
X0124302Y0200345D02*
X0124302Y0195741D01*
X0123535Y0195741D02*
X0125070Y0195741D01*
X0122000Y0195741D02*
X0122000Y0200345D01*
X0118931Y0195741D01*
X0118931Y0200345D01*
X0119570Y0188928D02*
X0118035Y0188928D01*
X0117268Y0188161D01*
X0117268Y0187393D01*
X0118035Y0186626D01*
X0119570Y0186626D01*
X0120337Y0187393D01*
X0120337Y0188161D01*
X0119570Y0188928D01*
X0119570Y0186626D02*
X0120337Y0185859D01*
X0120337Y0185091D01*
X0119570Y0184324D01*
X0118035Y0184324D01*
X0117268Y0185091D01*
X0117268Y0185859D01*
X0118035Y0186626D01*
X0115733Y0185859D02*
X0115733Y0188928D01*
X0115733Y0185859D02*
X0114199Y0184324D01*
X0112664Y0185859D01*
X0112664Y0188928D01*
X0121872Y0188161D02*
X0122639Y0188928D01*
X0124174Y0188928D01*
X0124941Y0188161D01*
X0126476Y0186626D02*
X0129545Y0186626D01*
X0131080Y0186626D02*
X0131847Y0187393D01*
X0132614Y0187393D01*
X0134149Y0186626D01*
X0134149Y0188928D01*
X0131080Y0188928D01*
X0131080Y0186626D02*
X0131080Y0185091D01*
X0131847Y0184324D01*
X0133382Y0184324D01*
X0134149Y0185091D01*
X0124941Y0184324D02*
X0121872Y0187393D01*
X0121872Y0188161D01*
X0121872Y0184324D02*
X0124941Y0184324D01*
X0125630Y0163636D02*
X0122560Y0160567D01*
X0121793Y0160567D01*
X0121793Y0159032D02*
X0123328Y0157497D01*
X0123328Y0158265D02*
X0123328Y0155963D01*
X0121793Y0155963D02*
X0126397Y0155963D01*
X0126397Y0158265D01*
X0125630Y0159032D01*
X0124095Y0159032D01*
X0123328Y0158265D01*
X0126397Y0160567D02*
X0126397Y0163636D01*
X0125630Y0163636D01*
X0136754Y0162868D02*
X0136754Y0161334D01*
X0137521Y0160567D01*
X0139056Y0160567D01*
X0139056Y0162868D01*
X0138288Y0163636D01*
X0137521Y0163636D01*
X0136754Y0162868D01*
X0139056Y0160567D02*
X0140590Y0162101D01*
X0141358Y0163636D01*
X0140590Y0159032D02*
X0139056Y0159032D01*
X0138288Y0158265D01*
X0138288Y0155963D01*
X0136754Y0155963D02*
X0141358Y0155963D01*
X0141358Y0158265D01*
X0140590Y0159032D01*
X0138288Y0157497D02*
X0136754Y0159032D01*
X0152896Y0159819D02*
X0154430Y0158285D01*
X0154430Y0159052D02*
X0154430Y0156750D01*
X0152896Y0156750D02*
X0157499Y0156750D01*
X0157499Y0159052D01*
X0156732Y0159819D01*
X0155197Y0159819D01*
X0154430Y0159052D01*
X0153663Y0161354D02*
X0152896Y0162121D01*
X0152896Y0163656D01*
X0153663Y0164423D01*
X0155197Y0164423D01*
X0155965Y0163656D01*
X0155965Y0162889D01*
X0155197Y0161354D01*
X0157499Y0161354D01*
X0157499Y0164423D01*
X0117043Y0128172D02*
X0117043Y0123569D01*
X0117043Y0125870D02*
X0115509Y0125870D01*
X0117043Y0128172D02*
X0113974Y0128172D01*
X0112439Y0128172D02*
X0112439Y0123569D01*
X0109370Y0123569D01*
X0107836Y0123569D02*
X0104766Y0123569D01*
X0103232Y0123569D02*
X0103232Y0124336D01*
X0102464Y0124336D01*
X0102464Y0123569D01*
X0103232Y0123569D01*
X0100930Y0123569D02*
X0097860Y0123569D01*
X0096326Y0123569D02*
X0094024Y0123569D01*
X0093256Y0124336D01*
X0094024Y0125103D01*
X0095558Y0125103D01*
X0096326Y0125870D01*
X0095558Y0126638D01*
X0093256Y0126638D01*
X0099395Y0128172D02*
X0099395Y0123569D01*
X0100930Y0126638D02*
X0099395Y0128172D01*
X0106301Y0128172D02*
X0106301Y0123569D01*
X0107836Y0126638D02*
X0106301Y0128172D01*
X0109370Y0128172D02*
X0112439Y0128172D01*
X0112439Y0125870D02*
X0110905Y0125870D01*
X0090984Y0151376D02*
X0087915Y0151376D01*
X0087148Y0152143D01*
X0087148Y0153678D01*
X0087915Y0154445D01*
X0087915Y0155980D02*
X0087148Y0155980D01*
X0087915Y0155980D02*
X0090984Y0159049D01*
X0091751Y0159049D01*
X0091751Y0155980D01*
X0090984Y0154445D02*
X0091751Y0153678D01*
X0091751Y0152143D01*
X0090984Y0151376D01*
X0090666Y0172395D02*
X0092201Y0173930D01*
X0091434Y0173930D02*
X0093736Y0173930D01*
X0093736Y0172395D02*
X0093736Y0176999D01*
X0091434Y0176999D01*
X0090666Y0176231D01*
X0090666Y0174697D01*
X0091434Y0173930D01*
X0089132Y0173162D02*
X0088364Y0172395D01*
X0086830Y0172395D01*
X0086062Y0173162D01*
X0086062Y0173930D01*
X0086830Y0174697D01*
X0087597Y0174697D01*
X0086830Y0174697D02*
X0086062Y0175464D01*
X0086062Y0176231D01*
X0086830Y0176999D01*
X0088364Y0176999D01*
X0089132Y0176231D01*
X0087224Y0182631D02*
X0087224Y0187235D01*
X0089525Y0184933D01*
X0086456Y0184933D01*
X0091060Y0184933D02*
X0091827Y0184166D01*
X0094129Y0184166D01*
X0092595Y0184166D02*
X0091060Y0182631D01*
X0091060Y0184933D02*
X0091060Y0186468D01*
X0091827Y0187235D01*
X0094129Y0187235D01*
X0094129Y0182631D01*
X0063919Y0126628D02*
X0063919Y0123559D01*
X0063919Y0125093D02*
X0068523Y0125093D01*
X0066988Y0123559D01*
X0066221Y0122024D02*
X0065454Y0121257D01*
X0065454Y0118955D01*
X0065454Y0120489D02*
X0063919Y0122024D01*
X0066221Y0122024D02*
X0067756Y0122024D01*
X0068523Y0121257D01*
X0068523Y0118955D01*
X0063919Y0118955D01*
D13*
X0049330Y0202384D02*
X0048096Y0202384D01*
X0047478Y0203001D01*
X0049330Y0202384D02*
X0049947Y0203001D01*
X0049947Y0205470D01*
X0049330Y0206087D01*
X0048096Y0206087D01*
X0047478Y0205470D01*
X0051022Y0213802D02*
X0051022Y0216270D01*
X0052256Y0217505D01*
X0053490Y0216270D01*
X0053490Y0213802D01*
X0053490Y0215653D02*
X0051022Y0215653D01*
X0067163Y0223080D02*
X0067781Y0222463D01*
X0069632Y0222463D01*
X0069632Y0226166D01*
X0067781Y0226166D01*
X0067163Y0225549D01*
X0067163Y0224932D01*
X0067781Y0224315D01*
X0069632Y0224315D01*
X0067781Y0224315D02*
X0067163Y0223697D01*
X0067163Y0223080D01*
X0074867Y0207662D02*
X0074250Y0207045D01*
X0074250Y0204576D01*
X0074867Y0203959D01*
X0076719Y0203959D01*
X0076719Y0207662D01*
X0074867Y0207662D01*
D14*
X0078303Y0199101D02*
X0077803Y0198601D01*
X0077803Y0197100D01*
X0076802Y0197100D02*
X0079804Y0197100D01*
X0079804Y0198601D01*
X0079304Y0199101D01*
X0078303Y0199101D01*
X0076802Y0196136D02*
X0076802Y0195135D01*
X0076802Y0195636D02*
X0079804Y0195636D01*
X0079804Y0196136D02*
X0079804Y0195135D01*
X0079804Y0194191D02*
X0076802Y0194191D01*
X0078303Y0194191D02*
X0078303Y0192189D01*
X0077302Y0191244D02*
X0076802Y0190744D01*
X0076802Y0189743D01*
X0077302Y0189242D01*
X0079304Y0189242D01*
X0079804Y0189743D01*
X0079804Y0190744D01*
X0079304Y0191244D01*
X0079804Y0192189D02*
X0076802Y0192189D01*
X0075004Y0191707D02*
X0074504Y0191207D01*
X0074004Y0191207D01*
X0073503Y0191707D01*
X0073503Y0192708D01*
X0073003Y0193208D01*
X0072502Y0193208D01*
X0072002Y0192708D01*
X0072002Y0191707D01*
X0072502Y0191207D01*
X0073503Y0190262D02*
X0073003Y0189761D01*
X0073003Y0188260D01*
X0072002Y0188260D02*
X0075004Y0188260D01*
X0075004Y0189761D01*
X0074504Y0190262D01*
X0073503Y0190262D01*
X0075004Y0191707D02*
X0075004Y0192708D01*
X0074504Y0193208D01*
X0073503Y0194153D02*
X0074004Y0194654D01*
X0074004Y0196155D01*
X0073003Y0195654D02*
X0073003Y0194654D01*
X0073503Y0194153D01*
X0072002Y0194153D02*
X0072002Y0195654D01*
X0072502Y0196155D01*
X0073003Y0195654D01*
X0076802Y0185351D02*
X0076802Y0183349D01*
X0078804Y0185351D01*
X0079304Y0185351D01*
X0079804Y0184851D01*
X0079804Y0183850D01*
X0079304Y0183349D01*
X0079304Y0182404D02*
X0079804Y0181904D01*
X0079804Y0180903D01*
X0079304Y0180403D01*
X0078804Y0180403D01*
X0078303Y0180903D01*
X0078303Y0181904D01*
X0077803Y0182404D01*
X0077302Y0182404D01*
X0076802Y0181904D01*
X0076802Y0180903D01*
X0077302Y0180403D01*
X0078303Y0179458D02*
X0077803Y0178958D01*
X0077803Y0177456D01*
X0076802Y0177456D02*
X0079804Y0177456D01*
X0079804Y0178958D01*
X0079304Y0179458D01*
X0078303Y0179458D01*
X0075004Y0178476D02*
X0072002Y0178476D01*
X0072002Y0176974D01*
X0072502Y0176474D01*
X0073503Y0176474D01*
X0074004Y0176974D01*
X0074004Y0178476D01*
X0073503Y0179421D02*
X0074004Y0179921D01*
X0074004Y0180922D01*
X0073503Y0181422D01*
X0073003Y0181422D01*
X0073003Y0179421D01*
X0073503Y0179421D02*
X0072502Y0179421D01*
X0072002Y0179921D01*
X0072002Y0180922D01*
X0072502Y0182367D02*
X0073503Y0182367D01*
X0074004Y0182868D01*
X0074004Y0184369D01*
X0075004Y0184369D02*
X0072002Y0184369D01*
X0072002Y0182868D01*
X0072502Y0182367D01*
X0072002Y0175529D02*
X0073503Y0175529D01*
X0074004Y0175029D01*
X0074004Y0173528D01*
X0072002Y0173528D01*
X0072002Y0172564D02*
X0072002Y0171563D01*
X0072002Y0172064D02*
X0074004Y0172064D01*
X0074004Y0171563D01*
X0073503Y0170618D02*
X0074004Y0170118D01*
X0074004Y0168617D01*
X0075004Y0168617D02*
X0072002Y0168617D01*
X0072002Y0170118D01*
X0072502Y0170618D01*
X0073503Y0170618D01*
X0075004Y0172064D02*
X0075505Y0172064D01*
X0076802Y0171563D02*
X0076802Y0173064D01*
X0077302Y0173565D01*
X0077803Y0173565D01*
X0078303Y0173064D01*
X0078303Y0171563D01*
X0077302Y0170618D02*
X0079804Y0170618D01*
X0079804Y0171563D02*
X0079804Y0173064D01*
X0079304Y0173565D01*
X0078804Y0173565D01*
X0078303Y0173064D01*
X0076802Y0171563D02*
X0079804Y0171563D01*
X0077302Y0170618D02*
X0076802Y0170118D01*
X0076802Y0169117D01*
X0077302Y0168617D01*
X0079804Y0168617D01*
X0079804Y0167672D02*
X0076802Y0167672D01*
X0078303Y0167672D02*
X0078303Y0165670D01*
X0076802Y0165670D02*
X0079804Y0165670D01*
X0079804Y0160778D02*
X0076802Y0160778D01*
X0076802Y0159777D02*
X0076802Y0161779D01*
X0075004Y0161278D02*
X0075004Y0160278D01*
X0074504Y0159777D01*
X0072502Y0159777D01*
X0072002Y0160278D01*
X0072002Y0161278D01*
X0072502Y0161779D01*
X0072502Y0162724D02*
X0072002Y0163224D01*
X0072002Y0164225D01*
X0072502Y0164725D01*
X0073503Y0164725D01*
X0074004Y0164225D01*
X0074004Y0163224D01*
X0073503Y0162724D01*
X0072502Y0162724D01*
X0074504Y0161779D02*
X0075004Y0161278D01*
X0077302Y0158832D02*
X0076802Y0158332D01*
X0076802Y0157331D01*
X0077302Y0156831D01*
X0078303Y0157331D02*
X0078303Y0158332D01*
X0077803Y0158832D01*
X0077302Y0158832D01*
X0078804Y0159777D02*
X0079804Y0160778D01*
X0079304Y0158832D02*
X0079804Y0158332D01*
X0079804Y0157331D01*
X0079304Y0156831D01*
X0078804Y0156831D01*
X0078303Y0157331D01*
X0078303Y0155886D02*
X0077803Y0155385D01*
X0077803Y0153884D01*
X0076802Y0153884D02*
X0079804Y0153884D01*
X0079804Y0155385D01*
X0079304Y0155886D01*
X0078303Y0155886D01*
X0074004Y0155886D02*
X0074004Y0153884D01*
X0073003Y0153884D02*
X0073003Y0155886D01*
X0069204Y0155385D02*
X0069204Y0154385D01*
X0068703Y0153884D01*
X0067702Y0153884D01*
X0067202Y0154385D01*
X0067202Y0155385D01*
X0067702Y0155886D01*
X0068703Y0155886D01*
X0069204Y0155385D01*
X0069204Y0156831D02*
X0067202Y0156831D01*
X0067202Y0158832D02*
X0068703Y0158832D01*
X0069204Y0158332D01*
X0069204Y0156831D01*
X0070204Y0159777D02*
X0070204Y0160278D01*
X0067202Y0160278D01*
X0067202Y0160778D02*
X0067202Y0159777D01*
X0067702Y0161741D02*
X0067202Y0162242D01*
X0067202Y0163743D01*
X0066701Y0163743D02*
X0066201Y0163243D01*
X0066201Y0162742D01*
X0066701Y0163743D02*
X0069204Y0163743D01*
X0069204Y0161741D02*
X0067702Y0161741D01*
X0064404Y0161779D02*
X0064404Y0160278D01*
X0063903Y0159777D01*
X0063403Y0160278D01*
X0063403Y0161278D01*
X0062902Y0161779D01*
X0062402Y0161278D01*
X0062402Y0159777D01*
X0062402Y0158832D02*
X0062402Y0157331D01*
X0062902Y0156831D01*
X0063403Y0157331D01*
X0063403Y0158832D01*
X0063903Y0158832D02*
X0062402Y0158832D01*
X0063903Y0158832D02*
X0064404Y0158332D01*
X0064404Y0157331D01*
X0064904Y0155886D02*
X0063903Y0155886D01*
X0063403Y0155385D01*
X0063403Y0153884D01*
X0062402Y0153884D02*
X0065404Y0153884D01*
X0065404Y0155385D01*
X0064904Y0155886D01*
X0064404Y0149993D02*
X0064404Y0147991D01*
X0063403Y0147991D02*
X0063403Y0149993D01*
X0062902Y0144100D02*
X0064904Y0144100D01*
X0065404Y0143599D01*
X0065404Y0142098D01*
X0062402Y0142098D01*
X0062402Y0143599D01*
X0062902Y0144100D01*
X0067202Y0143599D02*
X0067202Y0142598D01*
X0067702Y0142098D01*
X0069704Y0142098D01*
X0070204Y0142598D01*
X0070204Y0143599D01*
X0069704Y0144100D01*
X0067702Y0144100D02*
X0067202Y0143599D01*
X0068203Y0147991D02*
X0068203Y0149993D01*
X0069204Y0149993D02*
X0069204Y0147991D01*
X0072002Y0148491D02*
X0072002Y0149492D01*
X0072502Y0149993D01*
X0072002Y0148491D02*
X0072502Y0147991D01*
X0074504Y0147991D01*
X0075004Y0148491D01*
X0075004Y0149492D01*
X0074504Y0149993D01*
X0073003Y0147046D02*
X0072002Y0146045D01*
X0072002Y0145545D01*
X0072502Y0145045D01*
X0073003Y0145045D01*
X0074004Y0146045D01*
X0074504Y0146045D01*
X0075004Y0145545D01*
X0074504Y0145045D01*
X0074004Y0145045D01*
X0072002Y0147046D01*
X0072002Y0144100D02*
X0074004Y0144100D01*
X0075004Y0143099D01*
X0074004Y0142098D01*
X0072002Y0142098D01*
X0073503Y0142098D02*
X0073503Y0144100D01*
X0076802Y0144100D02*
X0078804Y0144100D01*
X0079804Y0143099D01*
X0078804Y0142098D01*
X0076802Y0142098D01*
X0078303Y0142098D02*
X0078303Y0144100D01*
X0077803Y0147991D02*
X0077803Y0149993D01*
X0078804Y0149993D02*
X0078804Y0147991D01*
X0074004Y0165670D02*
X0072002Y0165670D01*
X0072002Y0166671D02*
X0073503Y0166671D01*
X0074004Y0167171D01*
X0073503Y0167672D01*
X0072002Y0167672D01*
X0070204Y0167635D02*
X0070204Y0169136D01*
X0069704Y0169636D01*
X0068703Y0169636D01*
X0068203Y0169136D01*
X0068203Y0167635D01*
X0067202Y0167635D02*
X0070204Y0167635D01*
X0069704Y0170581D02*
X0069204Y0170581D01*
X0068703Y0171081D01*
X0068703Y0172082D01*
X0068203Y0172583D01*
X0067702Y0172583D01*
X0067202Y0172082D01*
X0067202Y0171081D01*
X0067702Y0170581D01*
X0069704Y0170581D02*
X0070204Y0171081D01*
X0070204Y0172082D01*
X0069704Y0172583D01*
X0069204Y0173528D02*
X0070204Y0174528D01*
X0067202Y0174528D01*
X0067202Y0173528D02*
X0067202Y0175529D01*
X0065404Y0176474D02*
X0062402Y0176474D01*
X0063903Y0176474D02*
X0063903Y0178476D01*
X0064404Y0179421D02*
X0062902Y0179421D01*
X0062402Y0179921D01*
X0062402Y0181422D01*
X0064404Y0181422D01*
X0064404Y0182367D02*
X0064404Y0183868D01*
X0063903Y0184369D01*
X0062902Y0184369D01*
X0062402Y0183868D01*
X0062402Y0182367D01*
X0065404Y0182367D01*
X0065404Y0178476D02*
X0062402Y0178476D01*
X0063403Y0172583D02*
X0063403Y0170581D01*
X0063903Y0170581D02*
X0062902Y0170581D01*
X0062402Y0171081D01*
X0062402Y0172082D01*
X0063403Y0172583D02*
X0063903Y0172583D01*
X0064404Y0172082D01*
X0064404Y0171081D01*
X0063903Y0170581D01*
X0064404Y0169636D02*
X0062402Y0168635D01*
X0064404Y0167635D01*
X0064404Y0166171D02*
X0062402Y0166171D01*
X0062402Y0166671D02*
X0062402Y0165670D01*
X0062902Y0164725D02*
X0063403Y0164225D01*
X0063403Y0163224D01*
X0063903Y0162724D01*
X0064404Y0163224D01*
X0064404Y0164725D01*
X0064404Y0165670D02*
X0064404Y0166171D01*
X0065404Y0166171D02*
X0065905Y0166171D01*
X0062902Y0164725D02*
X0062402Y0164225D01*
X0062402Y0162724D01*
X0073503Y0166671D02*
X0074004Y0166171D01*
X0074004Y0165670D01*
D15*
X0033545Y0165620D02*
X0033547Y0165757D01*
X0033553Y0165894D01*
X0033563Y0166031D01*
X0033577Y0166168D01*
X0033595Y0166304D01*
X0033616Y0166440D01*
X0033642Y0166574D01*
X0033672Y0166708D01*
X0033705Y0166842D01*
X0033742Y0166974D01*
X0033783Y0167105D01*
X0033828Y0167234D01*
X0033877Y0167363D01*
X0033929Y0167490D01*
X0033985Y0167615D01*
X0034045Y0167739D01*
X0034108Y0167861D01*
X0034174Y0167981D01*
X0034245Y0168099D01*
X0034318Y0168215D01*
X0034395Y0168328D01*
X0034475Y0168440D01*
X0034558Y0168549D01*
X0034644Y0168656D01*
X0034734Y0168760D01*
X0034826Y0168861D01*
X0034921Y0168960D01*
X0035020Y0169056D01*
X0035120Y0169149D01*
X0035224Y0169240D01*
X0035330Y0169327D01*
X0035439Y0169411D01*
X0035550Y0169492D01*
X0035663Y0169569D01*
X0035778Y0169643D01*
X0035896Y0169714D01*
X0036015Y0169782D01*
X0036137Y0169846D01*
X0036260Y0169906D01*
X0036385Y0169963D01*
X0036511Y0170016D01*
X0036639Y0170066D01*
X0036769Y0170112D01*
X0036900Y0170154D01*
X0037031Y0170192D01*
X0037164Y0170226D01*
X0037298Y0170257D01*
X0037433Y0170284D01*
X0037568Y0170306D01*
X0037704Y0170325D01*
X0037841Y0170340D01*
X0037977Y0170351D01*
X0038114Y0170358D01*
X0038252Y0170361D01*
X0038389Y0170360D01*
X0038526Y0170355D01*
X0038663Y0170346D01*
X0038800Y0170333D01*
X0038936Y0170316D01*
X0039072Y0170295D01*
X0039207Y0170271D01*
X0039341Y0170242D01*
X0039474Y0170210D01*
X0039607Y0170173D01*
X0039738Y0170133D01*
X0039868Y0170089D01*
X0039997Y0170042D01*
X0040124Y0169990D01*
X0040250Y0169935D01*
X0040374Y0169876D01*
X0040496Y0169814D01*
X0040617Y0169749D01*
X0040735Y0169679D01*
X0040852Y0169607D01*
X0040966Y0169531D01*
X0041078Y0169452D01*
X0041188Y0169369D01*
X0041295Y0169283D01*
X0041400Y0169195D01*
X0041502Y0169103D01*
X0041602Y0169009D01*
X0041699Y0168911D01*
X0041792Y0168811D01*
X0041883Y0168708D01*
X0041971Y0168603D01*
X0042056Y0168495D01*
X0042138Y0168384D01*
X0042216Y0168272D01*
X0042291Y0168157D01*
X0042363Y0168040D01*
X0042431Y0167921D01*
X0042496Y0167800D01*
X0042557Y0167677D01*
X0042615Y0167553D01*
X0042669Y0167426D01*
X0042720Y0167299D01*
X0042767Y0167170D01*
X0042810Y0167039D01*
X0042849Y0166908D01*
X0042884Y0166775D01*
X0042916Y0166641D01*
X0042943Y0166507D01*
X0042967Y0166372D01*
X0042987Y0166236D01*
X0043003Y0166100D01*
X0043015Y0165963D01*
X0043023Y0165826D01*
X0043027Y0165689D01*
X0043027Y0165551D01*
X0043023Y0165414D01*
X0043015Y0165277D01*
X0043003Y0165140D01*
X0042987Y0165004D01*
X0042967Y0164868D01*
X0042943Y0164733D01*
X0042916Y0164599D01*
X0042884Y0164465D01*
X0042849Y0164332D01*
X0042810Y0164201D01*
X0042767Y0164070D01*
X0042720Y0163941D01*
X0042669Y0163814D01*
X0042615Y0163687D01*
X0042557Y0163563D01*
X0042496Y0163440D01*
X0042431Y0163319D01*
X0042363Y0163200D01*
X0042291Y0163083D01*
X0042216Y0162968D01*
X0042138Y0162856D01*
X0042056Y0162745D01*
X0041971Y0162637D01*
X0041883Y0162532D01*
X0041792Y0162429D01*
X0041699Y0162329D01*
X0041602Y0162231D01*
X0041502Y0162137D01*
X0041400Y0162045D01*
X0041295Y0161957D01*
X0041188Y0161871D01*
X0041078Y0161788D01*
X0040966Y0161709D01*
X0040852Y0161633D01*
X0040735Y0161561D01*
X0040617Y0161491D01*
X0040496Y0161426D01*
X0040374Y0161364D01*
X0040250Y0161305D01*
X0040124Y0161250D01*
X0039997Y0161198D01*
X0039868Y0161151D01*
X0039738Y0161107D01*
X0039607Y0161067D01*
X0039474Y0161030D01*
X0039341Y0160998D01*
X0039207Y0160969D01*
X0039072Y0160945D01*
X0038936Y0160924D01*
X0038800Y0160907D01*
X0038663Y0160894D01*
X0038526Y0160885D01*
X0038389Y0160880D01*
X0038252Y0160879D01*
X0038114Y0160882D01*
X0037977Y0160889D01*
X0037841Y0160900D01*
X0037704Y0160915D01*
X0037568Y0160934D01*
X0037433Y0160956D01*
X0037298Y0160983D01*
X0037164Y0161014D01*
X0037031Y0161048D01*
X0036900Y0161086D01*
X0036769Y0161128D01*
X0036639Y0161174D01*
X0036511Y0161224D01*
X0036385Y0161277D01*
X0036260Y0161334D01*
X0036137Y0161394D01*
X0036015Y0161458D01*
X0035896Y0161526D01*
X0035778Y0161597D01*
X0035663Y0161671D01*
X0035550Y0161748D01*
X0035439Y0161829D01*
X0035330Y0161913D01*
X0035224Y0162000D01*
X0035120Y0162091D01*
X0035020Y0162184D01*
X0034921Y0162280D01*
X0034826Y0162379D01*
X0034734Y0162480D01*
X0034644Y0162584D01*
X0034558Y0162691D01*
X0034475Y0162800D01*
X0034395Y0162912D01*
X0034318Y0163025D01*
X0034245Y0163141D01*
X0034174Y0163259D01*
X0034108Y0163379D01*
X0034045Y0163501D01*
X0033985Y0163625D01*
X0033929Y0163750D01*
X0033877Y0163877D01*
X0033828Y0164006D01*
X0033783Y0164135D01*
X0033742Y0164266D01*
X0033705Y0164398D01*
X0033672Y0164532D01*
X0033642Y0164666D01*
X0033616Y0164800D01*
X0033595Y0164936D01*
X0033577Y0165072D01*
X0033563Y0165209D01*
X0033553Y0165346D01*
X0033547Y0165483D01*
X0033545Y0165620D01*
X0033545Y0205384D02*
X0033547Y0205521D01*
X0033553Y0205658D01*
X0033563Y0205795D01*
X0033577Y0205932D01*
X0033595Y0206068D01*
X0033616Y0206204D01*
X0033642Y0206338D01*
X0033672Y0206472D01*
X0033705Y0206606D01*
X0033742Y0206738D01*
X0033783Y0206869D01*
X0033828Y0206998D01*
X0033877Y0207127D01*
X0033929Y0207254D01*
X0033985Y0207379D01*
X0034045Y0207503D01*
X0034108Y0207625D01*
X0034174Y0207745D01*
X0034245Y0207863D01*
X0034318Y0207979D01*
X0034395Y0208092D01*
X0034475Y0208204D01*
X0034558Y0208313D01*
X0034644Y0208420D01*
X0034734Y0208524D01*
X0034826Y0208625D01*
X0034921Y0208724D01*
X0035020Y0208820D01*
X0035120Y0208913D01*
X0035224Y0209004D01*
X0035330Y0209091D01*
X0035439Y0209175D01*
X0035550Y0209256D01*
X0035663Y0209333D01*
X0035778Y0209407D01*
X0035896Y0209478D01*
X0036015Y0209546D01*
X0036137Y0209610D01*
X0036260Y0209670D01*
X0036385Y0209727D01*
X0036511Y0209780D01*
X0036639Y0209830D01*
X0036769Y0209876D01*
X0036900Y0209918D01*
X0037031Y0209956D01*
X0037164Y0209990D01*
X0037298Y0210021D01*
X0037433Y0210048D01*
X0037568Y0210070D01*
X0037704Y0210089D01*
X0037841Y0210104D01*
X0037977Y0210115D01*
X0038114Y0210122D01*
X0038252Y0210125D01*
X0038389Y0210124D01*
X0038526Y0210119D01*
X0038663Y0210110D01*
X0038800Y0210097D01*
X0038936Y0210080D01*
X0039072Y0210059D01*
X0039207Y0210035D01*
X0039341Y0210006D01*
X0039474Y0209974D01*
X0039607Y0209937D01*
X0039738Y0209897D01*
X0039868Y0209853D01*
X0039997Y0209806D01*
X0040124Y0209754D01*
X0040250Y0209699D01*
X0040374Y0209640D01*
X0040496Y0209578D01*
X0040617Y0209513D01*
X0040735Y0209443D01*
X0040852Y0209371D01*
X0040966Y0209295D01*
X0041078Y0209216D01*
X0041188Y0209133D01*
X0041295Y0209047D01*
X0041400Y0208959D01*
X0041502Y0208867D01*
X0041602Y0208773D01*
X0041699Y0208675D01*
X0041792Y0208575D01*
X0041883Y0208472D01*
X0041971Y0208367D01*
X0042056Y0208259D01*
X0042138Y0208148D01*
X0042216Y0208036D01*
X0042291Y0207921D01*
X0042363Y0207804D01*
X0042431Y0207685D01*
X0042496Y0207564D01*
X0042557Y0207441D01*
X0042615Y0207317D01*
X0042669Y0207190D01*
X0042720Y0207063D01*
X0042767Y0206934D01*
X0042810Y0206803D01*
X0042849Y0206672D01*
X0042884Y0206539D01*
X0042916Y0206405D01*
X0042943Y0206271D01*
X0042967Y0206136D01*
X0042987Y0206000D01*
X0043003Y0205864D01*
X0043015Y0205727D01*
X0043023Y0205590D01*
X0043027Y0205453D01*
X0043027Y0205315D01*
X0043023Y0205178D01*
X0043015Y0205041D01*
X0043003Y0204904D01*
X0042987Y0204768D01*
X0042967Y0204632D01*
X0042943Y0204497D01*
X0042916Y0204363D01*
X0042884Y0204229D01*
X0042849Y0204096D01*
X0042810Y0203965D01*
X0042767Y0203834D01*
X0042720Y0203705D01*
X0042669Y0203578D01*
X0042615Y0203451D01*
X0042557Y0203327D01*
X0042496Y0203204D01*
X0042431Y0203083D01*
X0042363Y0202964D01*
X0042291Y0202847D01*
X0042216Y0202732D01*
X0042138Y0202620D01*
X0042056Y0202509D01*
X0041971Y0202401D01*
X0041883Y0202296D01*
X0041792Y0202193D01*
X0041699Y0202093D01*
X0041602Y0201995D01*
X0041502Y0201901D01*
X0041400Y0201809D01*
X0041295Y0201721D01*
X0041188Y0201635D01*
X0041078Y0201552D01*
X0040966Y0201473D01*
X0040852Y0201397D01*
X0040735Y0201325D01*
X0040617Y0201255D01*
X0040496Y0201190D01*
X0040374Y0201128D01*
X0040250Y0201069D01*
X0040124Y0201014D01*
X0039997Y0200962D01*
X0039868Y0200915D01*
X0039738Y0200871D01*
X0039607Y0200831D01*
X0039474Y0200794D01*
X0039341Y0200762D01*
X0039207Y0200733D01*
X0039072Y0200709D01*
X0038936Y0200688D01*
X0038800Y0200671D01*
X0038663Y0200658D01*
X0038526Y0200649D01*
X0038389Y0200644D01*
X0038252Y0200643D01*
X0038114Y0200646D01*
X0037977Y0200653D01*
X0037841Y0200664D01*
X0037704Y0200679D01*
X0037568Y0200698D01*
X0037433Y0200720D01*
X0037298Y0200747D01*
X0037164Y0200778D01*
X0037031Y0200812D01*
X0036900Y0200850D01*
X0036769Y0200892D01*
X0036639Y0200938D01*
X0036511Y0200988D01*
X0036385Y0201041D01*
X0036260Y0201098D01*
X0036137Y0201158D01*
X0036015Y0201222D01*
X0035896Y0201290D01*
X0035778Y0201361D01*
X0035663Y0201435D01*
X0035550Y0201512D01*
X0035439Y0201593D01*
X0035330Y0201677D01*
X0035224Y0201764D01*
X0035120Y0201855D01*
X0035020Y0201948D01*
X0034921Y0202044D01*
X0034826Y0202143D01*
X0034734Y0202244D01*
X0034644Y0202348D01*
X0034558Y0202455D01*
X0034475Y0202564D01*
X0034395Y0202676D01*
X0034318Y0202789D01*
X0034245Y0202905D01*
X0034174Y0203023D01*
X0034108Y0203143D01*
X0034045Y0203265D01*
X0033985Y0203389D01*
X0033929Y0203514D01*
X0033877Y0203641D01*
X0033828Y0203770D01*
X0033783Y0203899D01*
X0033742Y0204030D01*
X0033705Y0204162D01*
X0033672Y0204296D01*
X0033642Y0204430D01*
X0033616Y0204564D01*
X0033595Y0204700D01*
X0033577Y0204836D01*
X0033563Y0204973D01*
X0033553Y0205110D01*
X0033547Y0205247D01*
X0033545Y0205384D01*
X0033348Y0215620D02*
X0033350Y0215757D01*
X0033356Y0215894D01*
X0033366Y0216031D01*
X0033380Y0216168D01*
X0033398Y0216304D01*
X0033419Y0216440D01*
X0033445Y0216574D01*
X0033475Y0216708D01*
X0033508Y0216842D01*
X0033545Y0216974D01*
X0033586Y0217105D01*
X0033631Y0217234D01*
X0033680Y0217363D01*
X0033732Y0217490D01*
X0033788Y0217615D01*
X0033848Y0217739D01*
X0033911Y0217861D01*
X0033977Y0217981D01*
X0034048Y0218099D01*
X0034121Y0218215D01*
X0034198Y0218328D01*
X0034278Y0218440D01*
X0034361Y0218549D01*
X0034447Y0218656D01*
X0034537Y0218760D01*
X0034629Y0218861D01*
X0034724Y0218960D01*
X0034823Y0219056D01*
X0034923Y0219149D01*
X0035027Y0219240D01*
X0035133Y0219327D01*
X0035242Y0219411D01*
X0035353Y0219492D01*
X0035466Y0219569D01*
X0035581Y0219643D01*
X0035699Y0219714D01*
X0035818Y0219782D01*
X0035940Y0219846D01*
X0036063Y0219906D01*
X0036188Y0219963D01*
X0036314Y0220016D01*
X0036442Y0220066D01*
X0036572Y0220112D01*
X0036703Y0220154D01*
X0036834Y0220192D01*
X0036967Y0220226D01*
X0037101Y0220257D01*
X0037236Y0220284D01*
X0037371Y0220306D01*
X0037507Y0220325D01*
X0037644Y0220340D01*
X0037780Y0220351D01*
X0037917Y0220358D01*
X0038055Y0220361D01*
X0038192Y0220360D01*
X0038329Y0220355D01*
X0038466Y0220346D01*
X0038603Y0220333D01*
X0038739Y0220316D01*
X0038875Y0220295D01*
X0039010Y0220271D01*
X0039144Y0220242D01*
X0039277Y0220210D01*
X0039410Y0220173D01*
X0039541Y0220133D01*
X0039671Y0220089D01*
X0039800Y0220042D01*
X0039927Y0219990D01*
X0040053Y0219935D01*
X0040177Y0219876D01*
X0040299Y0219814D01*
X0040420Y0219749D01*
X0040538Y0219679D01*
X0040655Y0219607D01*
X0040769Y0219531D01*
X0040881Y0219452D01*
X0040991Y0219369D01*
X0041098Y0219283D01*
X0041203Y0219195D01*
X0041305Y0219103D01*
X0041405Y0219009D01*
X0041502Y0218911D01*
X0041595Y0218811D01*
X0041686Y0218708D01*
X0041774Y0218603D01*
X0041859Y0218495D01*
X0041941Y0218384D01*
X0042019Y0218272D01*
X0042094Y0218157D01*
X0042166Y0218040D01*
X0042234Y0217921D01*
X0042299Y0217800D01*
X0042360Y0217677D01*
X0042418Y0217553D01*
X0042472Y0217426D01*
X0042523Y0217299D01*
X0042570Y0217170D01*
X0042613Y0217039D01*
X0042652Y0216908D01*
X0042687Y0216775D01*
X0042719Y0216641D01*
X0042746Y0216507D01*
X0042770Y0216372D01*
X0042790Y0216236D01*
X0042806Y0216100D01*
X0042818Y0215963D01*
X0042826Y0215826D01*
X0042830Y0215689D01*
X0042830Y0215551D01*
X0042826Y0215414D01*
X0042818Y0215277D01*
X0042806Y0215140D01*
X0042790Y0215004D01*
X0042770Y0214868D01*
X0042746Y0214733D01*
X0042719Y0214599D01*
X0042687Y0214465D01*
X0042652Y0214332D01*
X0042613Y0214201D01*
X0042570Y0214070D01*
X0042523Y0213941D01*
X0042472Y0213814D01*
X0042418Y0213687D01*
X0042360Y0213563D01*
X0042299Y0213440D01*
X0042234Y0213319D01*
X0042166Y0213200D01*
X0042094Y0213083D01*
X0042019Y0212968D01*
X0041941Y0212856D01*
X0041859Y0212745D01*
X0041774Y0212637D01*
X0041686Y0212532D01*
X0041595Y0212429D01*
X0041502Y0212329D01*
X0041405Y0212231D01*
X0041305Y0212137D01*
X0041203Y0212045D01*
X0041098Y0211957D01*
X0040991Y0211871D01*
X0040881Y0211788D01*
X0040769Y0211709D01*
X0040655Y0211633D01*
X0040538Y0211561D01*
X0040420Y0211491D01*
X0040299Y0211426D01*
X0040177Y0211364D01*
X0040053Y0211305D01*
X0039927Y0211250D01*
X0039800Y0211198D01*
X0039671Y0211151D01*
X0039541Y0211107D01*
X0039410Y0211067D01*
X0039277Y0211030D01*
X0039144Y0210998D01*
X0039010Y0210969D01*
X0038875Y0210945D01*
X0038739Y0210924D01*
X0038603Y0210907D01*
X0038466Y0210894D01*
X0038329Y0210885D01*
X0038192Y0210880D01*
X0038055Y0210879D01*
X0037917Y0210882D01*
X0037780Y0210889D01*
X0037644Y0210900D01*
X0037507Y0210915D01*
X0037371Y0210934D01*
X0037236Y0210956D01*
X0037101Y0210983D01*
X0036967Y0211014D01*
X0036834Y0211048D01*
X0036703Y0211086D01*
X0036572Y0211128D01*
X0036442Y0211174D01*
X0036314Y0211224D01*
X0036188Y0211277D01*
X0036063Y0211334D01*
X0035940Y0211394D01*
X0035818Y0211458D01*
X0035699Y0211526D01*
X0035581Y0211597D01*
X0035466Y0211671D01*
X0035353Y0211748D01*
X0035242Y0211829D01*
X0035133Y0211913D01*
X0035027Y0212000D01*
X0034923Y0212091D01*
X0034823Y0212184D01*
X0034724Y0212280D01*
X0034629Y0212379D01*
X0034537Y0212480D01*
X0034447Y0212584D01*
X0034361Y0212691D01*
X0034278Y0212800D01*
X0034198Y0212912D01*
X0034121Y0213025D01*
X0034048Y0213141D01*
X0033977Y0213259D01*
X0033911Y0213379D01*
X0033848Y0213501D01*
X0033788Y0213625D01*
X0033732Y0213750D01*
X0033680Y0213877D01*
X0033631Y0214006D01*
X0033586Y0214135D01*
X0033545Y0214266D01*
X0033508Y0214398D01*
X0033475Y0214532D01*
X0033445Y0214666D01*
X0033419Y0214800D01*
X0033398Y0214936D01*
X0033380Y0215072D01*
X0033366Y0215209D01*
X0033356Y0215346D01*
X0033350Y0215483D01*
X0033348Y0215620D01*
X0023506Y0215620D02*
X0023508Y0215757D01*
X0023514Y0215894D01*
X0023524Y0216031D01*
X0023538Y0216168D01*
X0023556Y0216304D01*
X0023577Y0216440D01*
X0023603Y0216574D01*
X0023633Y0216708D01*
X0023666Y0216842D01*
X0023703Y0216974D01*
X0023744Y0217105D01*
X0023789Y0217234D01*
X0023838Y0217363D01*
X0023890Y0217490D01*
X0023946Y0217615D01*
X0024006Y0217739D01*
X0024069Y0217861D01*
X0024135Y0217981D01*
X0024206Y0218099D01*
X0024279Y0218215D01*
X0024356Y0218328D01*
X0024436Y0218440D01*
X0024519Y0218549D01*
X0024605Y0218656D01*
X0024695Y0218760D01*
X0024787Y0218861D01*
X0024882Y0218960D01*
X0024981Y0219056D01*
X0025081Y0219149D01*
X0025185Y0219240D01*
X0025291Y0219327D01*
X0025400Y0219411D01*
X0025511Y0219492D01*
X0025624Y0219569D01*
X0025739Y0219643D01*
X0025857Y0219714D01*
X0025976Y0219782D01*
X0026098Y0219846D01*
X0026221Y0219906D01*
X0026346Y0219963D01*
X0026472Y0220016D01*
X0026600Y0220066D01*
X0026730Y0220112D01*
X0026861Y0220154D01*
X0026992Y0220192D01*
X0027125Y0220226D01*
X0027259Y0220257D01*
X0027394Y0220284D01*
X0027529Y0220306D01*
X0027665Y0220325D01*
X0027802Y0220340D01*
X0027938Y0220351D01*
X0028075Y0220358D01*
X0028213Y0220361D01*
X0028350Y0220360D01*
X0028487Y0220355D01*
X0028624Y0220346D01*
X0028761Y0220333D01*
X0028897Y0220316D01*
X0029033Y0220295D01*
X0029168Y0220271D01*
X0029302Y0220242D01*
X0029435Y0220210D01*
X0029568Y0220173D01*
X0029699Y0220133D01*
X0029829Y0220089D01*
X0029958Y0220042D01*
X0030085Y0219990D01*
X0030211Y0219935D01*
X0030335Y0219876D01*
X0030457Y0219814D01*
X0030578Y0219749D01*
X0030696Y0219679D01*
X0030813Y0219607D01*
X0030927Y0219531D01*
X0031039Y0219452D01*
X0031149Y0219369D01*
X0031256Y0219283D01*
X0031361Y0219195D01*
X0031463Y0219103D01*
X0031563Y0219009D01*
X0031660Y0218911D01*
X0031753Y0218811D01*
X0031844Y0218708D01*
X0031932Y0218603D01*
X0032017Y0218495D01*
X0032099Y0218384D01*
X0032177Y0218272D01*
X0032252Y0218157D01*
X0032324Y0218040D01*
X0032392Y0217921D01*
X0032457Y0217800D01*
X0032518Y0217677D01*
X0032576Y0217553D01*
X0032630Y0217426D01*
X0032681Y0217299D01*
X0032728Y0217170D01*
X0032771Y0217039D01*
X0032810Y0216908D01*
X0032845Y0216775D01*
X0032877Y0216641D01*
X0032904Y0216507D01*
X0032928Y0216372D01*
X0032948Y0216236D01*
X0032964Y0216100D01*
X0032976Y0215963D01*
X0032984Y0215826D01*
X0032988Y0215689D01*
X0032988Y0215551D01*
X0032984Y0215414D01*
X0032976Y0215277D01*
X0032964Y0215140D01*
X0032948Y0215004D01*
X0032928Y0214868D01*
X0032904Y0214733D01*
X0032877Y0214599D01*
X0032845Y0214465D01*
X0032810Y0214332D01*
X0032771Y0214201D01*
X0032728Y0214070D01*
X0032681Y0213941D01*
X0032630Y0213814D01*
X0032576Y0213687D01*
X0032518Y0213563D01*
X0032457Y0213440D01*
X0032392Y0213319D01*
X0032324Y0213200D01*
X0032252Y0213083D01*
X0032177Y0212968D01*
X0032099Y0212856D01*
X0032017Y0212745D01*
X0031932Y0212637D01*
X0031844Y0212532D01*
X0031753Y0212429D01*
X0031660Y0212329D01*
X0031563Y0212231D01*
X0031463Y0212137D01*
X0031361Y0212045D01*
X0031256Y0211957D01*
X0031149Y0211871D01*
X0031039Y0211788D01*
X0030927Y0211709D01*
X0030813Y0211633D01*
X0030696Y0211561D01*
X0030578Y0211491D01*
X0030457Y0211426D01*
X0030335Y0211364D01*
X0030211Y0211305D01*
X0030085Y0211250D01*
X0029958Y0211198D01*
X0029829Y0211151D01*
X0029699Y0211107D01*
X0029568Y0211067D01*
X0029435Y0211030D01*
X0029302Y0210998D01*
X0029168Y0210969D01*
X0029033Y0210945D01*
X0028897Y0210924D01*
X0028761Y0210907D01*
X0028624Y0210894D01*
X0028487Y0210885D01*
X0028350Y0210880D01*
X0028213Y0210879D01*
X0028075Y0210882D01*
X0027938Y0210889D01*
X0027802Y0210900D01*
X0027665Y0210915D01*
X0027529Y0210934D01*
X0027394Y0210956D01*
X0027259Y0210983D01*
X0027125Y0211014D01*
X0026992Y0211048D01*
X0026861Y0211086D01*
X0026730Y0211128D01*
X0026600Y0211174D01*
X0026472Y0211224D01*
X0026346Y0211277D01*
X0026221Y0211334D01*
X0026098Y0211394D01*
X0025976Y0211458D01*
X0025857Y0211526D01*
X0025739Y0211597D01*
X0025624Y0211671D01*
X0025511Y0211748D01*
X0025400Y0211829D01*
X0025291Y0211913D01*
X0025185Y0212000D01*
X0025081Y0212091D01*
X0024981Y0212184D01*
X0024882Y0212280D01*
X0024787Y0212379D01*
X0024695Y0212480D01*
X0024605Y0212584D01*
X0024519Y0212691D01*
X0024436Y0212800D01*
X0024356Y0212912D01*
X0024279Y0213025D01*
X0024206Y0213141D01*
X0024135Y0213259D01*
X0024069Y0213379D01*
X0024006Y0213501D01*
X0023946Y0213625D01*
X0023890Y0213750D01*
X0023838Y0213877D01*
X0023789Y0214006D01*
X0023744Y0214135D01*
X0023703Y0214266D01*
X0023666Y0214398D01*
X0023633Y0214532D01*
X0023603Y0214666D01*
X0023577Y0214800D01*
X0023556Y0214936D01*
X0023538Y0215072D01*
X0023524Y0215209D01*
X0023514Y0215346D01*
X0023508Y0215483D01*
X0023506Y0215620D01*
X0163466Y0215620D02*
X0163468Y0215757D01*
X0163474Y0215894D01*
X0163484Y0216031D01*
X0163498Y0216168D01*
X0163516Y0216304D01*
X0163537Y0216440D01*
X0163563Y0216574D01*
X0163593Y0216708D01*
X0163626Y0216842D01*
X0163663Y0216974D01*
X0163704Y0217105D01*
X0163749Y0217234D01*
X0163798Y0217363D01*
X0163850Y0217490D01*
X0163906Y0217615D01*
X0163966Y0217739D01*
X0164029Y0217861D01*
X0164095Y0217981D01*
X0164166Y0218099D01*
X0164239Y0218215D01*
X0164316Y0218328D01*
X0164396Y0218440D01*
X0164479Y0218549D01*
X0164565Y0218656D01*
X0164655Y0218760D01*
X0164747Y0218861D01*
X0164842Y0218960D01*
X0164941Y0219056D01*
X0165041Y0219149D01*
X0165145Y0219240D01*
X0165251Y0219327D01*
X0165360Y0219411D01*
X0165471Y0219492D01*
X0165584Y0219569D01*
X0165699Y0219643D01*
X0165817Y0219714D01*
X0165936Y0219782D01*
X0166058Y0219846D01*
X0166181Y0219906D01*
X0166306Y0219963D01*
X0166432Y0220016D01*
X0166560Y0220066D01*
X0166690Y0220112D01*
X0166821Y0220154D01*
X0166952Y0220192D01*
X0167085Y0220226D01*
X0167219Y0220257D01*
X0167354Y0220284D01*
X0167489Y0220306D01*
X0167625Y0220325D01*
X0167762Y0220340D01*
X0167898Y0220351D01*
X0168035Y0220358D01*
X0168173Y0220361D01*
X0168310Y0220360D01*
X0168447Y0220355D01*
X0168584Y0220346D01*
X0168721Y0220333D01*
X0168857Y0220316D01*
X0168993Y0220295D01*
X0169128Y0220271D01*
X0169262Y0220242D01*
X0169395Y0220210D01*
X0169528Y0220173D01*
X0169659Y0220133D01*
X0169789Y0220089D01*
X0169918Y0220042D01*
X0170045Y0219990D01*
X0170171Y0219935D01*
X0170295Y0219876D01*
X0170417Y0219814D01*
X0170538Y0219749D01*
X0170656Y0219679D01*
X0170773Y0219607D01*
X0170887Y0219531D01*
X0170999Y0219452D01*
X0171109Y0219369D01*
X0171216Y0219283D01*
X0171321Y0219195D01*
X0171423Y0219103D01*
X0171523Y0219009D01*
X0171620Y0218911D01*
X0171713Y0218811D01*
X0171804Y0218708D01*
X0171892Y0218603D01*
X0171977Y0218495D01*
X0172059Y0218384D01*
X0172137Y0218272D01*
X0172212Y0218157D01*
X0172284Y0218040D01*
X0172352Y0217921D01*
X0172417Y0217800D01*
X0172478Y0217677D01*
X0172536Y0217553D01*
X0172590Y0217426D01*
X0172641Y0217299D01*
X0172688Y0217170D01*
X0172731Y0217039D01*
X0172770Y0216908D01*
X0172805Y0216775D01*
X0172837Y0216641D01*
X0172864Y0216507D01*
X0172888Y0216372D01*
X0172908Y0216236D01*
X0172924Y0216100D01*
X0172936Y0215963D01*
X0172944Y0215826D01*
X0172948Y0215689D01*
X0172948Y0215551D01*
X0172944Y0215414D01*
X0172936Y0215277D01*
X0172924Y0215140D01*
X0172908Y0215004D01*
X0172888Y0214868D01*
X0172864Y0214733D01*
X0172837Y0214599D01*
X0172805Y0214465D01*
X0172770Y0214332D01*
X0172731Y0214201D01*
X0172688Y0214070D01*
X0172641Y0213941D01*
X0172590Y0213814D01*
X0172536Y0213687D01*
X0172478Y0213563D01*
X0172417Y0213440D01*
X0172352Y0213319D01*
X0172284Y0213200D01*
X0172212Y0213083D01*
X0172137Y0212968D01*
X0172059Y0212856D01*
X0171977Y0212745D01*
X0171892Y0212637D01*
X0171804Y0212532D01*
X0171713Y0212429D01*
X0171620Y0212329D01*
X0171523Y0212231D01*
X0171423Y0212137D01*
X0171321Y0212045D01*
X0171216Y0211957D01*
X0171109Y0211871D01*
X0170999Y0211788D01*
X0170887Y0211709D01*
X0170773Y0211633D01*
X0170656Y0211561D01*
X0170538Y0211491D01*
X0170417Y0211426D01*
X0170295Y0211364D01*
X0170171Y0211305D01*
X0170045Y0211250D01*
X0169918Y0211198D01*
X0169789Y0211151D01*
X0169659Y0211107D01*
X0169528Y0211067D01*
X0169395Y0211030D01*
X0169262Y0210998D01*
X0169128Y0210969D01*
X0168993Y0210945D01*
X0168857Y0210924D01*
X0168721Y0210907D01*
X0168584Y0210894D01*
X0168447Y0210885D01*
X0168310Y0210880D01*
X0168173Y0210879D01*
X0168035Y0210882D01*
X0167898Y0210889D01*
X0167762Y0210900D01*
X0167625Y0210915D01*
X0167489Y0210934D01*
X0167354Y0210956D01*
X0167219Y0210983D01*
X0167085Y0211014D01*
X0166952Y0211048D01*
X0166821Y0211086D01*
X0166690Y0211128D01*
X0166560Y0211174D01*
X0166432Y0211224D01*
X0166306Y0211277D01*
X0166181Y0211334D01*
X0166058Y0211394D01*
X0165936Y0211458D01*
X0165817Y0211526D01*
X0165699Y0211597D01*
X0165584Y0211671D01*
X0165471Y0211748D01*
X0165360Y0211829D01*
X0165251Y0211913D01*
X0165145Y0212000D01*
X0165041Y0212091D01*
X0164941Y0212184D01*
X0164842Y0212280D01*
X0164747Y0212379D01*
X0164655Y0212480D01*
X0164565Y0212584D01*
X0164479Y0212691D01*
X0164396Y0212800D01*
X0164316Y0212912D01*
X0164239Y0213025D01*
X0164166Y0213141D01*
X0164095Y0213259D01*
X0164029Y0213379D01*
X0163966Y0213501D01*
X0163906Y0213625D01*
X0163850Y0213750D01*
X0163798Y0213877D01*
X0163749Y0214006D01*
X0163704Y0214135D01*
X0163663Y0214266D01*
X0163626Y0214398D01*
X0163593Y0214532D01*
X0163563Y0214666D01*
X0163537Y0214800D01*
X0163516Y0214936D01*
X0163498Y0215072D01*
X0163484Y0215209D01*
X0163474Y0215346D01*
X0163468Y0215483D01*
X0163466Y0215620D01*
X0173506Y0215620D02*
X0173508Y0215757D01*
X0173514Y0215894D01*
X0173524Y0216031D01*
X0173538Y0216168D01*
X0173556Y0216304D01*
X0173577Y0216440D01*
X0173603Y0216574D01*
X0173633Y0216708D01*
X0173666Y0216842D01*
X0173703Y0216974D01*
X0173744Y0217105D01*
X0173789Y0217234D01*
X0173838Y0217363D01*
X0173890Y0217490D01*
X0173946Y0217615D01*
X0174006Y0217739D01*
X0174069Y0217861D01*
X0174135Y0217981D01*
X0174206Y0218099D01*
X0174279Y0218215D01*
X0174356Y0218328D01*
X0174436Y0218440D01*
X0174519Y0218549D01*
X0174605Y0218656D01*
X0174695Y0218760D01*
X0174787Y0218861D01*
X0174882Y0218960D01*
X0174981Y0219056D01*
X0175081Y0219149D01*
X0175185Y0219240D01*
X0175291Y0219327D01*
X0175400Y0219411D01*
X0175511Y0219492D01*
X0175624Y0219569D01*
X0175739Y0219643D01*
X0175857Y0219714D01*
X0175976Y0219782D01*
X0176098Y0219846D01*
X0176221Y0219906D01*
X0176346Y0219963D01*
X0176472Y0220016D01*
X0176600Y0220066D01*
X0176730Y0220112D01*
X0176861Y0220154D01*
X0176992Y0220192D01*
X0177125Y0220226D01*
X0177259Y0220257D01*
X0177394Y0220284D01*
X0177529Y0220306D01*
X0177665Y0220325D01*
X0177802Y0220340D01*
X0177938Y0220351D01*
X0178075Y0220358D01*
X0178213Y0220361D01*
X0178350Y0220360D01*
X0178487Y0220355D01*
X0178624Y0220346D01*
X0178761Y0220333D01*
X0178897Y0220316D01*
X0179033Y0220295D01*
X0179168Y0220271D01*
X0179302Y0220242D01*
X0179435Y0220210D01*
X0179568Y0220173D01*
X0179699Y0220133D01*
X0179829Y0220089D01*
X0179958Y0220042D01*
X0180085Y0219990D01*
X0180211Y0219935D01*
X0180335Y0219876D01*
X0180457Y0219814D01*
X0180578Y0219749D01*
X0180696Y0219679D01*
X0180813Y0219607D01*
X0180927Y0219531D01*
X0181039Y0219452D01*
X0181149Y0219369D01*
X0181256Y0219283D01*
X0181361Y0219195D01*
X0181463Y0219103D01*
X0181563Y0219009D01*
X0181660Y0218911D01*
X0181753Y0218811D01*
X0181844Y0218708D01*
X0181932Y0218603D01*
X0182017Y0218495D01*
X0182099Y0218384D01*
X0182177Y0218272D01*
X0182252Y0218157D01*
X0182324Y0218040D01*
X0182392Y0217921D01*
X0182457Y0217800D01*
X0182518Y0217677D01*
X0182576Y0217553D01*
X0182630Y0217426D01*
X0182681Y0217299D01*
X0182728Y0217170D01*
X0182771Y0217039D01*
X0182810Y0216908D01*
X0182845Y0216775D01*
X0182877Y0216641D01*
X0182904Y0216507D01*
X0182928Y0216372D01*
X0182948Y0216236D01*
X0182964Y0216100D01*
X0182976Y0215963D01*
X0182984Y0215826D01*
X0182988Y0215689D01*
X0182988Y0215551D01*
X0182984Y0215414D01*
X0182976Y0215277D01*
X0182964Y0215140D01*
X0182948Y0215004D01*
X0182928Y0214868D01*
X0182904Y0214733D01*
X0182877Y0214599D01*
X0182845Y0214465D01*
X0182810Y0214332D01*
X0182771Y0214201D01*
X0182728Y0214070D01*
X0182681Y0213941D01*
X0182630Y0213814D01*
X0182576Y0213687D01*
X0182518Y0213563D01*
X0182457Y0213440D01*
X0182392Y0213319D01*
X0182324Y0213200D01*
X0182252Y0213083D01*
X0182177Y0212968D01*
X0182099Y0212856D01*
X0182017Y0212745D01*
X0181932Y0212637D01*
X0181844Y0212532D01*
X0181753Y0212429D01*
X0181660Y0212329D01*
X0181563Y0212231D01*
X0181463Y0212137D01*
X0181361Y0212045D01*
X0181256Y0211957D01*
X0181149Y0211871D01*
X0181039Y0211788D01*
X0180927Y0211709D01*
X0180813Y0211633D01*
X0180696Y0211561D01*
X0180578Y0211491D01*
X0180457Y0211426D01*
X0180335Y0211364D01*
X0180211Y0211305D01*
X0180085Y0211250D01*
X0179958Y0211198D01*
X0179829Y0211151D01*
X0179699Y0211107D01*
X0179568Y0211067D01*
X0179435Y0211030D01*
X0179302Y0210998D01*
X0179168Y0210969D01*
X0179033Y0210945D01*
X0178897Y0210924D01*
X0178761Y0210907D01*
X0178624Y0210894D01*
X0178487Y0210885D01*
X0178350Y0210880D01*
X0178213Y0210879D01*
X0178075Y0210882D01*
X0177938Y0210889D01*
X0177802Y0210900D01*
X0177665Y0210915D01*
X0177529Y0210934D01*
X0177394Y0210956D01*
X0177259Y0210983D01*
X0177125Y0211014D01*
X0176992Y0211048D01*
X0176861Y0211086D01*
X0176730Y0211128D01*
X0176600Y0211174D01*
X0176472Y0211224D01*
X0176346Y0211277D01*
X0176221Y0211334D01*
X0176098Y0211394D01*
X0175976Y0211458D01*
X0175857Y0211526D01*
X0175739Y0211597D01*
X0175624Y0211671D01*
X0175511Y0211748D01*
X0175400Y0211829D01*
X0175291Y0211913D01*
X0175185Y0212000D01*
X0175081Y0212091D01*
X0174981Y0212184D01*
X0174882Y0212280D01*
X0174787Y0212379D01*
X0174695Y0212480D01*
X0174605Y0212584D01*
X0174519Y0212691D01*
X0174436Y0212800D01*
X0174356Y0212912D01*
X0174279Y0213025D01*
X0174206Y0213141D01*
X0174135Y0213259D01*
X0174069Y0213379D01*
X0174006Y0213501D01*
X0173946Y0213625D01*
X0173890Y0213750D01*
X0173838Y0213877D01*
X0173789Y0214006D01*
X0173744Y0214135D01*
X0173703Y0214266D01*
X0173666Y0214398D01*
X0173633Y0214532D01*
X0173603Y0214666D01*
X0173577Y0214800D01*
X0173556Y0214936D01*
X0173538Y0215072D01*
X0173524Y0215209D01*
X0173514Y0215346D01*
X0173508Y0215483D01*
X0173506Y0215620D01*
X0163466Y0115620D02*
X0163468Y0115757D01*
X0163474Y0115894D01*
X0163484Y0116031D01*
X0163498Y0116168D01*
X0163516Y0116304D01*
X0163537Y0116440D01*
X0163563Y0116574D01*
X0163593Y0116708D01*
X0163626Y0116842D01*
X0163663Y0116974D01*
X0163704Y0117105D01*
X0163749Y0117234D01*
X0163798Y0117363D01*
X0163850Y0117490D01*
X0163906Y0117615D01*
X0163966Y0117739D01*
X0164029Y0117861D01*
X0164095Y0117981D01*
X0164166Y0118099D01*
X0164239Y0118215D01*
X0164316Y0118328D01*
X0164396Y0118440D01*
X0164479Y0118549D01*
X0164565Y0118656D01*
X0164655Y0118760D01*
X0164747Y0118861D01*
X0164842Y0118960D01*
X0164941Y0119056D01*
X0165041Y0119149D01*
X0165145Y0119240D01*
X0165251Y0119327D01*
X0165360Y0119411D01*
X0165471Y0119492D01*
X0165584Y0119569D01*
X0165699Y0119643D01*
X0165817Y0119714D01*
X0165936Y0119782D01*
X0166058Y0119846D01*
X0166181Y0119906D01*
X0166306Y0119963D01*
X0166432Y0120016D01*
X0166560Y0120066D01*
X0166690Y0120112D01*
X0166821Y0120154D01*
X0166952Y0120192D01*
X0167085Y0120226D01*
X0167219Y0120257D01*
X0167354Y0120284D01*
X0167489Y0120306D01*
X0167625Y0120325D01*
X0167762Y0120340D01*
X0167898Y0120351D01*
X0168035Y0120358D01*
X0168173Y0120361D01*
X0168310Y0120360D01*
X0168447Y0120355D01*
X0168584Y0120346D01*
X0168721Y0120333D01*
X0168857Y0120316D01*
X0168993Y0120295D01*
X0169128Y0120271D01*
X0169262Y0120242D01*
X0169395Y0120210D01*
X0169528Y0120173D01*
X0169659Y0120133D01*
X0169789Y0120089D01*
X0169918Y0120042D01*
X0170045Y0119990D01*
X0170171Y0119935D01*
X0170295Y0119876D01*
X0170417Y0119814D01*
X0170538Y0119749D01*
X0170656Y0119679D01*
X0170773Y0119607D01*
X0170887Y0119531D01*
X0170999Y0119452D01*
X0171109Y0119369D01*
X0171216Y0119283D01*
X0171321Y0119195D01*
X0171423Y0119103D01*
X0171523Y0119009D01*
X0171620Y0118911D01*
X0171713Y0118811D01*
X0171804Y0118708D01*
X0171892Y0118603D01*
X0171977Y0118495D01*
X0172059Y0118384D01*
X0172137Y0118272D01*
X0172212Y0118157D01*
X0172284Y0118040D01*
X0172352Y0117921D01*
X0172417Y0117800D01*
X0172478Y0117677D01*
X0172536Y0117553D01*
X0172590Y0117426D01*
X0172641Y0117299D01*
X0172688Y0117170D01*
X0172731Y0117039D01*
X0172770Y0116908D01*
X0172805Y0116775D01*
X0172837Y0116641D01*
X0172864Y0116507D01*
X0172888Y0116372D01*
X0172908Y0116236D01*
X0172924Y0116100D01*
X0172936Y0115963D01*
X0172944Y0115826D01*
X0172948Y0115689D01*
X0172948Y0115551D01*
X0172944Y0115414D01*
X0172936Y0115277D01*
X0172924Y0115140D01*
X0172908Y0115004D01*
X0172888Y0114868D01*
X0172864Y0114733D01*
X0172837Y0114599D01*
X0172805Y0114465D01*
X0172770Y0114332D01*
X0172731Y0114201D01*
X0172688Y0114070D01*
X0172641Y0113941D01*
X0172590Y0113814D01*
X0172536Y0113687D01*
X0172478Y0113563D01*
X0172417Y0113440D01*
X0172352Y0113319D01*
X0172284Y0113200D01*
X0172212Y0113083D01*
X0172137Y0112968D01*
X0172059Y0112856D01*
X0171977Y0112745D01*
X0171892Y0112637D01*
X0171804Y0112532D01*
X0171713Y0112429D01*
X0171620Y0112329D01*
X0171523Y0112231D01*
X0171423Y0112137D01*
X0171321Y0112045D01*
X0171216Y0111957D01*
X0171109Y0111871D01*
X0170999Y0111788D01*
X0170887Y0111709D01*
X0170773Y0111633D01*
X0170656Y0111561D01*
X0170538Y0111491D01*
X0170417Y0111426D01*
X0170295Y0111364D01*
X0170171Y0111305D01*
X0170045Y0111250D01*
X0169918Y0111198D01*
X0169789Y0111151D01*
X0169659Y0111107D01*
X0169528Y0111067D01*
X0169395Y0111030D01*
X0169262Y0110998D01*
X0169128Y0110969D01*
X0168993Y0110945D01*
X0168857Y0110924D01*
X0168721Y0110907D01*
X0168584Y0110894D01*
X0168447Y0110885D01*
X0168310Y0110880D01*
X0168173Y0110879D01*
X0168035Y0110882D01*
X0167898Y0110889D01*
X0167762Y0110900D01*
X0167625Y0110915D01*
X0167489Y0110934D01*
X0167354Y0110956D01*
X0167219Y0110983D01*
X0167085Y0111014D01*
X0166952Y0111048D01*
X0166821Y0111086D01*
X0166690Y0111128D01*
X0166560Y0111174D01*
X0166432Y0111224D01*
X0166306Y0111277D01*
X0166181Y0111334D01*
X0166058Y0111394D01*
X0165936Y0111458D01*
X0165817Y0111526D01*
X0165699Y0111597D01*
X0165584Y0111671D01*
X0165471Y0111748D01*
X0165360Y0111829D01*
X0165251Y0111913D01*
X0165145Y0112000D01*
X0165041Y0112091D01*
X0164941Y0112184D01*
X0164842Y0112280D01*
X0164747Y0112379D01*
X0164655Y0112480D01*
X0164565Y0112584D01*
X0164479Y0112691D01*
X0164396Y0112800D01*
X0164316Y0112912D01*
X0164239Y0113025D01*
X0164166Y0113141D01*
X0164095Y0113259D01*
X0164029Y0113379D01*
X0163966Y0113501D01*
X0163906Y0113625D01*
X0163850Y0113750D01*
X0163798Y0113877D01*
X0163749Y0114006D01*
X0163704Y0114135D01*
X0163663Y0114266D01*
X0163626Y0114398D01*
X0163593Y0114532D01*
X0163563Y0114666D01*
X0163537Y0114800D01*
X0163516Y0114936D01*
X0163498Y0115072D01*
X0163484Y0115209D01*
X0163474Y0115346D01*
X0163468Y0115483D01*
X0163466Y0115620D01*
D16*
X0036317Y0227037D02*
X0036319Y0227149D01*
X0036325Y0227260D01*
X0036335Y0227372D01*
X0036349Y0227483D01*
X0036366Y0227593D01*
X0036388Y0227703D01*
X0036414Y0227812D01*
X0036443Y0227920D01*
X0036476Y0228026D01*
X0036513Y0228132D01*
X0036554Y0228236D01*
X0036599Y0228339D01*
X0036647Y0228440D01*
X0036698Y0228539D01*
X0036753Y0228636D01*
X0036812Y0228731D01*
X0036873Y0228825D01*
X0036938Y0228916D01*
X0037007Y0229004D01*
X0037078Y0229090D01*
X0037152Y0229174D01*
X0037230Y0229254D01*
X0037310Y0229332D01*
X0037393Y0229408D01*
X0037478Y0229480D01*
X0037566Y0229549D01*
X0037656Y0229615D01*
X0037749Y0229677D01*
X0037844Y0229737D01*
X0037941Y0229793D01*
X0038039Y0229845D01*
X0038140Y0229894D01*
X0038242Y0229939D01*
X0038346Y0229981D01*
X0038451Y0230019D01*
X0038558Y0230053D01*
X0038665Y0230083D01*
X0038774Y0230110D01*
X0038883Y0230132D01*
X0038994Y0230151D01*
X0039104Y0230166D01*
X0039216Y0230177D01*
X0039327Y0230184D01*
X0039439Y0230187D01*
X0039551Y0230186D01*
X0039663Y0230181D01*
X0039774Y0230172D01*
X0039885Y0230159D01*
X0039996Y0230142D01*
X0040106Y0230122D01*
X0040215Y0230097D01*
X0040323Y0230069D01*
X0040430Y0230036D01*
X0040536Y0230000D01*
X0040640Y0229960D01*
X0040743Y0229917D01*
X0040845Y0229870D01*
X0040944Y0229819D01*
X0041042Y0229765D01*
X0041138Y0229707D01*
X0041232Y0229646D01*
X0041323Y0229582D01*
X0041412Y0229515D01*
X0041499Y0229444D01*
X0041583Y0229370D01*
X0041665Y0229294D01*
X0041743Y0229214D01*
X0041819Y0229132D01*
X0041892Y0229047D01*
X0041962Y0228960D01*
X0042028Y0228870D01*
X0042092Y0228778D01*
X0042152Y0228684D01*
X0042209Y0228588D01*
X0042262Y0228489D01*
X0042312Y0228389D01*
X0042358Y0228288D01*
X0042401Y0228184D01*
X0042440Y0228079D01*
X0042475Y0227973D01*
X0042506Y0227866D01*
X0042534Y0227757D01*
X0042557Y0227648D01*
X0042577Y0227538D01*
X0042593Y0227427D01*
X0042605Y0227316D01*
X0042613Y0227205D01*
X0042617Y0227093D01*
X0042617Y0226981D01*
X0042613Y0226869D01*
X0042605Y0226758D01*
X0042593Y0226647D01*
X0042577Y0226536D01*
X0042557Y0226426D01*
X0042534Y0226317D01*
X0042506Y0226208D01*
X0042475Y0226101D01*
X0042440Y0225995D01*
X0042401Y0225890D01*
X0042358Y0225786D01*
X0042312Y0225685D01*
X0042262Y0225585D01*
X0042209Y0225486D01*
X0042152Y0225390D01*
X0042092Y0225296D01*
X0042028Y0225204D01*
X0041962Y0225114D01*
X0041892Y0225027D01*
X0041819Y0224942D01*
X0041743Y0224860D01*
X0041665Y0224780D01*
X0041583Y0224704D01*
X0041499Y0224630D01*
X0041412Y0224559D01*
X0041323Y0224492D01*
X0041232Y0224428D01*
X0041138Y0224367D01*
X0041042Y0224309D01*
X0040944Y0224255D01*
X0040845Y0224204D01*
X0040743Y0224157D01*
X0040640Y0224114D01*
X0040536Y0224074D01*
X0040430Y0224038D01*
X0040323Y0224005D01*
X0040215Y0223977D01*
X0040106Y0223952D01*
X0039996Y0223932D01*
X0039885Y0223915D01*
X0039774Y0223902D01*
X0039663Y0223893D01*
X0039551Y0223888D01*
X0039439Y0223887D01*
X0039327Y0223890D01*
X0039216Y0223897D01*
X0039104Y0223908D01*
X0038994Y0223923D01*
X0038883Y0223942D01*
X0038774Y0223964D01*
X0038665Y0223991D01*
X0038558Y0224021D01*
X0038451Y0224055D01*
X0038346Y0224093D01*
X0038242Y0224135D01*
X0038140Y0224180D01*
X0038039Y0224229D01*
X0037941Y0224281D01*
X0037844Y0224337D01*
X0037749Y0224397D01*
X0037656Y0224459D01*
X0037566Y0224525D01*
X0037478Y0224594D01*
X0037393Y0224666D01*
X0037310Y0224742D01*
X0037230Y0224820D01*
X0037152Y0224900D01*
X0037078Y0224984D01*
X0037007Y0225070D01*
X0036938Y0225158D01*
X0036873Y0225249D01*
X0036812Y0225343D01*
X0036753Y0225438D01*
X0036698Y0225535D01*
X0036647Y0225634D01*
X0036599Y0225735D01*
X0036554Y0225838D01*
X0036513Y0225942D01*
X0036476Y0226048D01*
X0036443Y0226154D01*
X0036414Y0226262D01*
X0036388Y0226371D01*
X0036366Y0226481D01*
X0036349Y0226591D01*
X0036335Y0226702D01*
X0036325Y0226814D01*
X0036319Y0226925D01*
X0036317Y0227037D01*
D17*
X0085094Y0133152D02*
X0085094Y0118585D01*
X0124071Y0118585D01*
X0124071Y0133152D01*
X0123992Y0133152D02*
X0085094Y0133152D01*
X0119698Y0121538D02*
X0119700Y0121613D01*
X0119706Y0121688D01*
X0119716Y0121762D01*
X0119730Y0121836D01*
X0119747Y0121909D01*
X0119769Y0121980D01*
X0119794Y0122051D01*
X0119823Y0122120D01*
X0119855Y0122188D01*
X0119891Y0122253D01*
X0119931Y0122317D01*
X0119974Y0122379D01*
X0120020Y0122438D01*
X0120069Y0122495D01*
X0120121Y0122549D01*
X0120175Y0122600D01*
X0120233Y0122648D01*
X0120292Y0122693D01*
X0120355Y0122735D01*
X0120419Y0122774D01*
X0120485Y0122809D01*
X0120553Y0122841D01*
X0120623Y0122869D01*
X0120693Y0122893D01*
X0120766Y0122914D01*
X0120839Y0122930D01*
X0120913Y0122943D01*
X0120987Y0122952D01*
X0121062Y0122957D01*
X0121137Y0122958D01*
X0121212Y0122955D01*
X0121286Y0122948D01*
X0121360Y0122937D01*
X0121434Y0122922D01*
X0121507Y0122904D01*
X0121578Y0122881D01*
X0121648Y0122855D01*
X0121717Y0122825D01*
X0121784Y0122792D01*
X0121850Y0122755D01*
X0121913Y0122715D01*
X0121974Y0122671D01*
X0122032Y0122624D01*
X0122088Y0122575D01*
X0122142Y0122522D01*
X0122192Y0122467D01*
X0122240Y0122409D01*
X0122284Y0122348D01*
X0122325Y0122286D01*
X0122363Y0122221D01*
X0122397Y0122154D01*
X0122428Y0122086D01*
X0122455Y0122016D01*
X0122479Y0121945D01*
X0122498Y0121872D01*
X0122514Y0121799D01*
X0122526Y0121725D01*
X0122534Y0121650D01*
X0122538Y0121575D01*
X0122538Y0121501D01*
X0122534Y0121426D01*
X0122526Y0121351D01*
X0122514Y0121277D01*
X0122498Y0121204D01*
X0122479Y0121131D01*
X0122455Y0121060D01*
X0122428Y0120990D01*
X0122397Y0120922D01*
X0122363Y0120855D01*
X0122325Y0120790D01*
X0122284Y0120728D01*
X0122240Y0120667D01*
X0122192Y0120609D01*
X0122142Y0120554D01*
X0122088Y0120501D01*
X0122032Y0120452D01*
X0121974Y0120405D01*
X0121913Y0120361D01*
X0121850Y0120321D01*
X0121784Y0120284D01*
X0121717Y0120251D01*
X0121648Y0120221D01*
X0121578Y0120195D01*
X0121507Y0120172D01*
X0121434Y0120154D01*
X0121360Y0120139D01*
X0121286Y0120128D01*
X0121212Y0120121D01*
X0121137Y0120118D01*
X0121062Y0120119D01*
X0120987Y0120124D01*
X0120913Y0120133D01*
X0120839Y0120146D01*
X0120766Y0120162D01*
X0120693Y0120183D01*
X0120623Y0120207D01*
X0120553Y0120235D01*
X0120485Y0120267D01*
X0120419Y0120302D01*
X0120355Y0120341D01*
X0120292Y0120383D01*
X0120233Y0120428D01*
X0120175Y0120476D01*
X0120121Y0120527D01*
X0120069Y0120581D01*
X0120020Y0120638D01*
X0119974Y0120697D01*
X0119931Y0120759D01*
X0119891Y0120823D01*
X0119855Y0120888D01*
X0119823Y0120956D01*
X0119794Y0121025D01*
X0119769Y0121096D01*
X0119747Y0121167D01*
X0119730Y0121240D01*
X0119716Y0121314D01*
X0119706Y0121388D01*
X0119700Y0121463D01*
X0119698Y0121538D01*
D18*
X0127424Y0173825D02*
X0144424Y0173825D01*
X0144484Y0173827D01*
X0144545Y0173832D01*
X0144604Y0173841D01*
X0144663Y0173854D01*
X0144722Y0173870D01*
X0144779Y0173890D01*
X0144834Y0173913D01*
X0144889Y0173940D01*
X0144941Y0173969D01*
X0144992Y0174002D01*
X0145041Y0174038D01*
X0145087Y0174076D01*
X0145131Y0174118D01*
X0145173Y0174162D01*
X0145211Y0174208D01*
X0145247Y0174257D01*
X0145280Y0174308D01*
X0145309Y0174360D01*
X0145336Y0174415D01*
X0145359Y0174470D01*
X0145379Y0174527D01*
X0145395Y0174586D01*
X0145408Y0174645D01*
X0145417Y0174704D01*
X0145422Y0174765D01*
X0145424Y0174825D01*
X0145424Y0180825D01*
X0145422Y0180885D01*
X0145417Y0180946D01*
X0145408Y0181005D01*
X0145395Y0181064D01*
X0145379Y0181123D01*
X0145359Y0181180D01*
X0145336Y0181235D01*
X0145309Y0181290D01*
X0145280Y0181342D01*
X0145247Y0181393D01*
X0145211Y0181442D01*
X0145173Y0181488D01*
X0145131Y0181532D01*
X0145087Y0181574D01*
X0145041Y0181612D01*
X0144992Y0181648D01*
X0144941Y0181681D01*
X0144889Y0181710D01*
X0144834Y0181737D01*
X0144779Y0181760D01*
X0144722Y0181780D01*
X0144663Y0181796D01*
X0144604Y0181809D01*
X0144545Y0181818D01*
X0144484Y0181823D01*
X0144424Y0181825D01*
X0127424Y0181825D01*
X0127364Y0181823D01*
X0127303Y0181818D01*
X0127244Y0181809D01*
X0127185Y0181796D01*
X0127126Y0181780D01*
X0127069Y0181760D01*
X0127014Y0181737D01*
X0126959Y0181710D01*
X0126907Y0181681D01*
X0126856Y0181648D01*
X0126807Y0181612D01*
X0126761Y0181574D01*
X0126717Y0181532D01*
X0126675Y0181488D01*
X0126637Y0181442D01*
X0126601Y0181393D01*
X0126568Y0181342D01*
X0126539Y0181290D01*
X0126512Y0181235D01*
X0126489Y0181180D01*
X0126469Y0181123D01*
X0126453Y0181064D01*
X0126440Y0181005D01*
X0126431Y0180946D01*
X0126426Y0180885D01*
X0126424Y0180825D01*
X0126424Y0174825D01*
X0126426Y0174765D01*
X0126431Y0174704D01*
X0126440Y0174645D01*
X0126453Y0174586D01*
X0126469Y0174527D01*
X0126489Y0174470D01*
X0126512Y0174415D01*
X0126539Y0174360D01*
X0126568Y0174308D01*
X0126601Y0174257D01*
X0126637Y0174208D01*
X0126675Y0174162D01*
X0126717Y0174118D01*
X0126761Y0174076D01*
X0126807Y0174038D01*
X0126856Y0174002D01*
X0126907Y0173969D01*
X0126959Y0173940D01*
X0127014Y0173913D01*
X0127069Y0173890D01*
X0127126Y0173870D01*
X0127185Y0173854D01*
X0127244Y0173841D01*
X0127303Y0173832D01*
X0127364Y0173827D01*
X0127424Y0173825D01*
X0071014Y0202384D02*
X0071014Y0208384D01*
X0071012Y0208444D01*
X0071007Y0208505D01*
X0070998Y0208564D01*
X0070985Y0208623D01*
X0070969Y0208682D01*
X0070949Y0208739D01*
X0070926Y0208794D01*
X0070899Y0208849D01*
X0070870Y0208901D01*
X0070837Y0208952D01*
X0070801Y0209001D01*
X0070763Y0209047D01*
X0070721Y0209091D01*
X0070677Y0209133D01*
X0070631Y0209171D01*
X0070582Y0209207D01*
X0070531Y0209240D01*
X0070479Y0209269D01*
X0070424Y0209296D01*
X0070369Y0209319D01*
X0070312Y0209339D01*
X0070253Y0209355D01*
X0070194Y0209368D01*
X0070135Y0209377D01*
X0070074Y0209382D01*
X0070014Y0209384D01*
X0053014Y0209384D01*
X0052954Y0209382D01*
X0052893Y0209377D01*
X0052834Y0209368D01*
X0052775Y0209355D01*
X0052716Y0209339D01*
X0052659Y0209319D01*
X0052604Y0209296D01*
X0052549Y0209269D01*
X0052497Y0209240D01*
X0052446Y0209207D01*
X0052397Y0209171D01*
X0052351Y0209133D01*
X0052307Y0209091D01*
X0052265Y0209047D01*
X0052227Y0209001D01*
X0052191Y0208952D01*
X0052158Y0208901D01*
X0052129Y0208849D01*
X0052102Y0208794D01*
X0052079Y0208739D01*
X0052059Y0208682D01*
X0052043Y0208623D01*
X0052030Y0208564D01*
X0052021Y0208505D01*
X0052016Y0208444D01*
X0052014Y0208384D01*
X0052014Y0202384D01*
X0052016Y0202324D01*
X0052021Y0202263D01*
X0052030Y0202204D01*
X0052043Y0202145D01*
X0052059Y0202086D01*
X0052079Y0202029D01*
X0052102Y0201974D01*
X0052129Y0201919D01*
X0052158Y0201867D01*
X0052191Y0201816D01*
X0052227Y0201767D01*
X0052265Y0201721D01*
X0052307Y0201677D01*
X0052351Y0201635D01*
X0052397Y0201597D01*
X0052446Y0201561D01*
X0052497Y0201528D01*
X0052549Y0201499D01*
X0052604Y0201472D01*
X0052659Y0201449D01*
X0052716Y0201429D01*
X0052775Y0201413D01*
X0052834Y0201400D01*
X0052893Y0201391D01*
X0052954Y0201386D01*
X0053014Y0201384D01*
X0070014Y0201384D01*
X0070074Y0201386D01*
X0070135Y0201391D01*
X0070194Y0201400D01*
X0070253Y0201413D01*
X0070312Y0201429D01*
X0070369Y0201449D01*
X0070424Y0201472D01*
X0070479Y0201499D01*
X0070531Y0201528D01*
X0070582Y0201561D01*
X0070631Y0201597D01*
X0070677Y0201635D01*
X0070721Y0201677D01*
X0070763Y0201721D01*
X0070801Y0201767D01*
X0070837Y0201816D01*
X0070870Y0201867D01*
X0070899Y0201919D01*
X0070926Y0201974D01*
X0070949Y0202029D01*
X0070969Y0202086D01*
X0070985Y0202145D01*
X0070998Y0202204D01*
X0071007Y0202263D01*
X0071012Y0202324D01*
X0071014Y0202384D01*
X0064121Y0210844D02*
X0058121Y0210844D01*
X0058061Y0210846D01*
X0058000Y0210851D01*
X0057941Y0210860D01*
X0057882Y0210873D01*
X0057823Y0210889D01*
X0057766Y0210909D01*
X0057711Y0210932D01*
X0057656Y0210959D01*
X0057604Y0210988D01*
X0057553Y0211021D01*
X0057504Y0211057D01*
X0057458Y0211095D01*
X0057414Y0211137D01*
X0057372Y0211181D01*
X0057334Y0211227D01*
X0057298Y0211276D01*
X0057265Y0211327D01*
X0057236Y0211379D01*
X0057209Y0211434D01*
X0057186Y0211489D01*
X0057166Y0211546D01*
X0057150Y0211605D01*
X0057137Y0211664D01*
X0057128Y0211723D01*
X0057123Y0211784D01*
X0057121Y0211844D01*
X0057121Y0228844D01*
X0057123Y0228904D01*
X0057128Y0228965D01*
X0057137Y0229024D01*
X0057150Y0229083D01*
X0057166Y0229142D01*
X0057186Y0229199D01*
X0057209Y0229254D01*
X0057236Y0229309D01*
X0057265Y0229361D01*
X0057298Y0229412D01*
X0057334Y0229461D01*
X0057372Y0229507D01*
X0057414Y0229551D01*
X0057458Y0229593D01*
X0057504Y0229631D01*
X0057553Y0229667D01*
X0057604Y0229700D01*
X0057656Y0229729D01*
X0057711Y0229756D01*
X0057766Y0229779D01*
X0057823Y0229799D01*
X0057882Y0229815D01*
X0057941Y0229828D01*
X0058000Y0229837D01*
X0058061Y0229842D01*
X0058121Y0229844D01*
X0064121Y0229844D01*
X0064181Y0229842D01*
X0064242Y0229837D01*
X0064301Y0229828D01*
X0064360Y0229815D01*
X0064419Y0229799D01*
X0064476Y0229779D01*
X0064531Y0229756D01*
X0064586Y0229729D01*
X0064638Y0229700D01*
X0064689Y0229667D01*
X0064738Y0229631D01*
X0064784Y0229593D01*
X0064828Y0229551D01*
X0064870Y0229507D01*
X0064908Y0229461D01*
X0064944Y0229412D01*
X0064977Y0229361D01*
X0065006Y0229309D01*
X0065033Y0229254D01*
X0065056Y0229199D01*
X0065076Y0229142D01*
X0065092Y0229083D01*
X0065105Y0229024D01*
X0065114Y0228965D01*
X0065119Y0228904D01*
X0065121Y0228844D01*
X0065121Y0211844D01*
X0065119Y0211784D01*
X0065114Y0211723D01*
X0065105Y0211664D01*
X0065092Y0211605D01*
X0065076Y0211546D01*
X0065056Y0211489D01*
X0065033Y0211434D01*
X0065006Y0211379D01*
X0064977Y0211327D01*
X0064944Y0211276D01*
X0064908Y0211227D01*
X0064870Y0211181D01*
X0064828Y0211137D01*
X0064784Y0211095D01*
X0064738Y0211057D01*
X0064689Y0211021D01*
X0064638Y0210988D01*
X0064586Y0210959D01*
X0064531Y0210932D01*
X0064476Y0210909D01*
X0064419Y0210889D01*
X0064360Y0210873D01*
X0064301Y0210860D01*
X0064242Y0210851D01*
X0064181Y0210846D01*
X0064121Y0210844D01*
X0068036Y0066014D02*
X0068036Y0054203D01*
X0074912Y0054203D01*
X0074912Y0066014D01*
X0068036Y0066014D01*
X0065998Y0053860D02*
X0066000Y0053903D01*
X0066006Y0053945D01*
X0066016Y0053986D01*
X0066029Y0054027D01*
X0066046Y0054065D01*
X0066067Y0054103D01*
X0066091Y0054138D01*
X0066118Y0054171D01*
X0066148Y0054201D01*
X0066181Y0054228D01*
X0066216Y0054252D01*
X0066254Y0054273D01*
X0066292Y0054290D01*
X0066333Y0054303D01*
X0066374Y0054313D01*
X0066416Y0054319D01*
X0066459Y0054321D01*
X0066502Y0054319D01*
X0066544Y0054313D01*
X0066585Y0054303D01*
X0066626Y0054290D01*
X0066664Y0054273D01*
X0066702Y0054252D01*
X0066737Y0054228D01*
X0066770Y0054201D01*
X0066800Y0054171D01*
X0066827Y0054138D01*
X0066851Y0054103D01*
X0066872Y0054065D01*
X0066889Y0054027D01*
X0066902Y0053986D01*
X0066912Y0053945D01*
X0066918Y0053903D01*
X0066920Y0053860D01*
X0066918Y0053817D01*
X0066912Y0053775D01*
X0066902Y0053734D01*
X0066889Y0053693D01*
X0066872Y0053655D01*
X0066851Y0053617D01*
X0066827Y0053582D01*
X0066800Y0053549D01*
X0066770Y0053519D01*
X0066737Y0053492D01*
X0066702Y0053468D01*
X0066664Y0053447D01*
X0066626Y0053430D01*
X0066585Y0053417D01*
X0066544Y0053407D01*
X0066502Y0053401D01*
X0066459Y0053399D01*
X0066416Y0053401D01*
X0066374Y0053407D01*
X0066333Y0053417D01*
X0066292Y0053430D01*
X0066254Y0053447D01*
X0066216Y0053468D01*
X0066181Y0053492D01*
X0066148Y0053519D01*
X0066118Y0053549D01*
X0066091Y0053582D01*
X0066067Y0053617D01*
X0066046Y0053655D01*
X0066029Y0053693D01*
X0066016Y0053734D01*
X0066006Y0053775D01*
X0066000Y0053817D01*
X0065998Y0053860D01*
X0127022Y0054648D02*
X0127024Y0054691D01*
X0127030Y0054733D01*
X0127040Y0054774D01*
X0127053Y0054815D01*
X0127070Y0054853D01*
X0127091Y0054891D01*
X0127115Y0054926D01*
X0127142Y0054959D01*
X0127172Y0054989D01*
X0127205Y0055016D01*
X0127240Y0055040D01*
X0127278Y0055061D01*
X0127316Y0055078D01*
X0127357Y0055091D01*
X0127398Y0055101D01*
X0127440Y0055107D01*
X0127483Y0055109D01*
X0127526Y0055107D01*
X0127568Y0055101D01*
X0127609Y0055091D01*
X0127650Y0055078D01*
X0127688Y0055061D01*
X0127726Y0055040D01*
X0127761Y0055016D01*
X0127794Y0054989D01*
X0127824Y0054959D01*
X0127851Y0054926D01*
X0127875Y0054891D01*
X0127896Y0054853D01*
X0127913Y0054815D01*
X0127926Y0054774D01*
X0127936Y0054733D01*
X0127942Y0054691D01*
X0127944Y0054648D01*
X0127942Y0054605D01*
X0127936Y0054563D01*
X0127926Y0054522D01*
X0127913Y0054481D01*
X0127896Y0054443D01*
X0127875Y0054405D01*
X0127851Y0054370D01*
X0127824Y0054337D01*
X0127794Y0054307D01*
X0127761Y0054280D01*
X0127726Y0054256D01*
X0127688Y0054235D01*
X0127650Y0054218D01*
X0127609Y0054205D01*
X0127568Y0054195D01*
X0127526Y0054189D01*
X0127483Y0054187D01*
X0127440Y0054189D01*
X0127398Y0054195D01*
X0127357Y0054205D01*
X0127316Y0054218D01*
X0127278Y0054235D01*
X0127240Y0054256D01*
X0127205Y0054280D01*
X0127172Y0054307D01*
X0127142Y0054337D01*
X0127115Y0054370D01*
X0127091Y0054405D01*
X0127070Y0054443D01*
X0127053Y0054481D01*
X0127040Y0054522D01*
X0127030Y0054563D01*
X0127024Y0054605D01*
X0127022Y0054648D01*
X0129060Y0054990D02*
X0135936Y0054990D01*
X0135936Y0066801D01*
X0129060Y0066801D01*
X0129060Y0054990D01*
M02*
