G75*
%MOIN*%
%OFA0B0*%
%FSLAX24Y24*%
%IPPOS*%
%LPD*%
%AMOC8*
5,1,8,0,0,1.08239X$1,22.5*
%
%ADD10C,0.0160*%
%ADD11C,0.0540*%
%ADD12OC8,0.0540*%
%ADD13OC8,0.1250*%
%ADD14C,0.0472*%
%ADD15C,0.0540*%
%ADD16R,0.1063X0.0591*%
%ADD17R,0.1063X0.0630*%
%ADD18R,0.0472X0.0472*%
%ADD19R,0.0236X0.0394*%
%ADD20R,0.0236X0.0236*%
%ADD21R,0.2000X0.0700*%
%ADD22C,0.0531*%
%ADD23C,0.0886*%
%ADD24R,0.0157X0.0531*%
%ADD25R,0.0591X0.0748*%
%ADD26C,0.0679*%
%ADD27C,0.0502*%
%ADD28R,0.0307X0.0004*%
%ADD29R,0.0339X0.0004*%
%ADD30R,0.0362X0.0004*%
%ADD31R,0.0386X0.0004*%
%ADD32R,0.0402X0.0004*%
%ADD33R,0.0417X0.0004*%
%ADD34R,0.0425X0.0004*%
%ADD35R,0.0441X0.0004*%
%ADD36R,0.0449X0.0004*%
%ADD37R,0.0465X0.0004*%
%ADD38R,0.0472X0.0004*%
%ADD39R,0.0480X0.0004*%
%ADD40R,0.0488X0.0004*%
%ADD41R,0.0496X0.0004*%
%ADD42R,0.0504X0.0004*%
%ADD43R,0.0512X0.0004*%
%ADD44R,0.0520X0.0004*%
%ADD45R,0.0528X0.0004*%
%ADD46R,0.0535X0.0004*%
%ADD47R,0.0543X0.0004*%
%ADD48R,0.0551X0.0004*%
%ADD49R,0.0559X0.0004*%
%ADD50R,0.0567X0.0004*%
%ADD51R,0.0575X0.0004*%
%ADD52R,0.0583X0.0004*%
%ADD53R,0.0591X0.0004*%
%ADD54R,0.0598X0.0004*%
%ADD55R,0.0606X0.0004*%
%ADD56R,0.0614X0.0004*%
%ADD57R,0.0622X0.0004*%
%ADD58R,0.0630X0.0004*%
%ADD59R,0.0638X0.0004*%
%ADD60R,0.0646X0.0004*%
%ADD61R,0.0654X0.0004*%
%ADD62R,0.0661X0.0004*%
%ADD63R,0.0669X0.0004*%
%ADD64R,0.0677X0.0004*%
%ADD65R,0.0685X0.0004*%
%ADD66R,0.0689X0.0004*%
%ADD67R,0.0697X0.0004*%
%ADD68R,0.0705X0.0004*%
%ADD69R,0.0709X0.0004*%
%ADD70R,0.0713X0.0004*%
%ADD71R,0.0795X0.0004*%
%ADD72R,0.0811X0.0004*%
%ADD73R,0.0819X0.0004*%
%ADD74R,0.0827X0.0004*%
%ADD75R,0.0835X0.0004*%
%ADD76R,0.0843X0.0004*%
%ADD77R,0.0846X0.0004*%
%ADD78R,0.0850X0.0004*%
%ADD79R,0.0854X0.0004*%
%ADD80R,0.0858X0.0004*%
%ADD81R,0.0701X0.0004*%
%ADD82R,0.0681X0.0004*%
%ADD83R,0.0657X0.0004*%
%ADD84R,0.0650X0.0004*%
%ADD85R,0.0445X0.0004*%
%ADD86R,0.0185X0.0004*%
%ADD87R,0.0433X0.0004*%
%ADD88R,0.0181X0.0004*%
%ADD89R,0.0406X0.0004*%
%ADD90R,0.0126X0.0004*%
%ADD91R,0.0043X0.0004*%
%ADD92R,0.0394X0.0004*%
%ADD93R,0.0008X0.0004*%
%ADD94R,0.0382X0.0004*%
%ADD95R,0.0130X0.0004*%
%ADD96R,0.0354X0.0004*%
%ADD97R,0.0134X0.0004*%
%ADD98R,0.0335X0.0004*%
%ADD99R,0.0138X0.0004*%
%ADD100R,0.0323X0.0004*%
%ADD101R,0.0142X0.0004*%
%ADD102R,0.0319X0.0004*%
%ADD103R,0.0146X0.0004*%
%ADD104R,0.0315X0.0004*%
%ADD105R,0.0154X0.0004*%
%ADD106R,0.0311X0.0004*%
%ADD107R,0.0173X0.0004*%
%ADD108R,0.0079X0.0004*%
%ADD109R,0.0051X0.0004*%
%ADD110R,0.0374X0.0004*%
%ADD111R,0.0366X0.0004*%
%ADD112R,0.0350X0.0004*%
%ADD113R,0.0004X0.0004*%
%ADD114R,0.0303X0.0004*%
%ADD115R,0.0059X0.0004*%
%ADD116R,0.0236X0.0004*%
%ADD117R,0.0228X0.0004*%
%ADD118R,0.0161X0.0004*%
%ADD119R,0.0055X0.0004*%
%ADD120R,0.0035X0.0004*%
%ADD121R,0.0047X0.0004*%
%ADD122R,0.0024X0.0004*%
%ADD123R,0.0016X0.0004*%
%ADD124R,0.0028X0.0004*%
%ADD125R,0.0012X0.0004*%
%ADD126R,0.0122X0.0004*%
%ADD127R,0.0106X0.0004*%
%ADD128R,0.0091X0.0004*%
%ADD129R,0.0067X0.0004*%
%ADD130R,0.0031X0.0004*%
%ADD131R,0.0039X0.0004*%
%ADD132R,0.0063X0.0004*%
%ADD133R,0.0071X0.0004*%
%ADD134R,0.0087X0.0004*%
%ADD135R,0.0094X0.0004*%
%ADD136R,0.0102X0.0004*%
%ADD137R,0.0110X0.0004*%
%ADD138R,0.0118X0.0004*%
%ADD139R,0.0150X0.0004*%
%ADD140R,0.0157X0.0004*%
%ADD141R,0.0165X0.0004*%
%ADD142R,0.0189X0.0004*%
%ADD143R,0.0197X0.0004*%
%ADD144R,0.0205X0.0004*%
%ADD145R,0.0213X0.0004*%
%ADD146R,0.0220X0.0004*%
%ADD147R,0.0244X0.0004*%
%ADD148R,0.0252X0.0004*%
%ADD149R,0.0260X0.0004*%
%ADD150R,0.0268X0.0004*%
%ADD151R,0.0276X0.0004*%
%ADD152R,0.0283X0.0004*%
%ADD153R,0.0291X0.0004*%
%ADD154R,0.0299X0.0004*%
%ADD155R,0.0331X0.0004*%
%ADD156R,0.0201X0.0004*%
%ADD157R,0.0224X0.0004*%
%ADD158R,0.0409X0.0004*%
%ADD159R,0.0421X0.0004*%
%ADD160R,0.0177X0.0004*%
%ADD161R,0.0114X0.0004*%
%ADD162R,0.0327X0.0004*%
%ADD163R,0.0358X0.0004*%
%ADD164R,0.0209X0.0004*%
%ADD165R,0.0217X0.0004*%
%ADD166R,0.0232X0.0004*%
%ADD167R,0.0240X0.0004*%
%ADD168R,0.0248X0.0004*%
%ADD169R,0.0370X0.0004*%
%ADD170R,0.0587X0.0004*%
%ADD171R,0.0378X0.0004*%
%ADD172R,0.0346X0.0004*%
%ADD173C,0.0320*%
%ADD174C,0.0376*%
%ADD175C,0.0100*%
%ADD176C,0.0240*%
%ADD177C,0.0400*%
D10*
X002254Y004003D02*
X018396Y004003D01*
X018396Y023688D01*
X002254Y023688D01*
X002254Y004003D01*
X002564Y004959D02*
X002564Y005154D01*
X002630Y005088D01*
X003019Y005088D01*
X003295Y005363D01*
X003295Y005753D01*
X003019Y006028D01*
X002630Y006028D01*
X002564Y005962D01*
X002564Y006154D01*
X002630Y006088D01*
X003019Y006088D01*
X003295Y006363D01*
X003295Y006753D01*
X003019Y007028D01*
X002630Y007028D01*
X002564Y006962D01*
X002564Y007154D01*
X002630Y007088D01*
X003019Y007088D01*
X003295Y007363D01*
X003295Y007753D01*
X003019Y008028D01*
X002630Y008028D01*
X002564Y007962D01*
X002564Y008154D01*
X002630Y008088D01*
X003019Y008088D01*
X003295Y008363D01*
X003295Y008753D01*
X003019Y009028D01*
X002630Y009028D01*
X002564Y008962D01*
X002564Y009154D01*
X002630Y009088D01*
X003019Y009088D01*
X003295Y009363D01*
X003295Y009753D01*
X003019Y010028D01*
X002630Y010028D01*
X002564Y009962D01*
X002564Y010154D01*
X002630Y010088D01*
X003019Y010088D01*
X003295Y010363D01*
X003295Y010753D01*
X003019Y011028D01*
X002630Y011028D01*
X002564Y010962D01*
X002564Y011154D01*
X002630Y011088D01*
X003019Y011088D01*
X003295Y011363D01*
X003295Y011753D01*
X003019Y012028D01*
X002630Y012028D01*
X002564Y011962D01*
X002564Y012154D01*
X002630Y012088D01*
X003019Y012088D01*
X003295Y012363D01*
X003295Y012753D01*
X003019Y013028D01*
X002630Y013028D01*
X002564Y012962D01*
X002564Y013154D01*
X002630Y013088D01*
X003019Y013088D01*
X003295Y013363D01*
X003295Y013753D01*
X003019Y014028D01*
X002630Y014028D01*
X002564Y013962D01*
X002564Y014154D01*
X002630Y014088D01*
X003019Y014088D01*
X003295Y014363D01*
X003295Y014753D01*
X003019Y015028D01*
X002630Y015028D01*
X002564Y014962D01*
X002564Y015154D01*
X002630Y015088D01*
X003019Y015088D01*
X003295Y015363D01*
X003295Y015753D01*
X003019Y016028D01*
X002630Y016028D01*
X002564Y015962D01*
X002564Y016154D01*
X002630Y016088D01*
X003019Y016088D01*
X003295Y016363D01*
X003295Y016753D01*
X003019Y017028D01*
X002630Y017028D01*
X002564Y016962D01*
X002564Y017154D01*
X002630Y017088D01*
X003019Y017088D01*
X003295Y017363D01*
X003295Y017753D01*
X003019Y018028D01*
X002630Y018028D01*
X002564Y017962D01*
X002564Y018154D01*
X002630Y018088D01*
X003019Y018088D01*
X003295Y018363D01*
X003295Y018753D01*
X003019Y019028D01*
X002630Y019028D01*
X002564Y018962D01*
X002564Y019154D01*
X002630Y019088D01*
X003019Y019088D01*
X003295Y019363D01*
X003295Y019753D01*
X003019Y020028D01*
X002630Y020028D01*
X002564Y019962D01*
X002564Y020154D01*
X002630Y020088D01*
X003019Y020088D01*
X003295Y020363D01*
X003295Y020753D01*
X003019Y021028D01*
X002630Y021028D01*
X002564Y020962D01*
X002564Y021183D01*
X002638Y021108D01*
X002815Y021108D01*
X002815Y021548D01*
X002835Y021548D01*
X002835Y021568D01*
X003275Y021568D01*
X003275Y021744D01*
X003011Y022008D01*
X002835Y022008D01*
X002835Y021568D01*
X002815Y021568D01*
X002815Y022008D01*
X002638Y022008D01*
X002564Y021934D01*
X002564Y023378D01*
X005054Y023378D01*
X005052Y023376D01*
X005014Y023323D01*
X004984Y023265D01*
X004964Y023203D01*
X004953Y023138D01*
X004953Y022869D01*
X004953Y022600D01*
X004964Y022535D01*
X004984Y022473D01*
X005014Y022415D01*
X005052Y022362D01*
X005098Y022315D01*
X005151Y022277D01*
X005210Y022247D01*
X005272Y022227D01*
X005337Y022217D01*
X005370Y022217D01*
X005402Y022217D01*
X005467Y022227D01*
X005529Y022247D01*
X005588Y022277D01*
X005641Y022315D01*
X005687Y022362D01*
X005726Y022415D01*
X005755Y022473D01*
X005776Y022535D01*
X005786Y022600D01*
X005786Y022869D01*
X005370Y022869D01*
X005370Y022869D01*
X005786Y022869D01*
X005786Y023138D01*
X005776Y023203D01*
X005755Y023265D01*
X005726Y023323D01*
X005687Y023376D01*
X005685Y023378D01*
X006603Y023378D01*
X006582Y023357D01*
X006534Y023291D01*
X006497Y023218D01*
X006471Y023140D01*
X006459Y023060D01*
X006459Y023052D01*
X006945Y023052D01*
X006945Y022986D01*
X006459Y022986D01*
X006459Y022978D01*
X006471Y022897D01*
X006497Y022819D01*
X006534Y022746D01*
X006582Y022680D01*
X006640Y022622D01*
X006706Y022574D01*
X006779Y022537D01*
X006857Y022512D01*
X006937Y022499D01*
X006945Y022499D01*
X006945Y022986D01*
X007011Y022986D01*
X007011Y022499D01*
X007019Y022499D01*
X007100Y022512D01*
X007178Y022537D01*
X007251Y022574D01*
X007317Y022622D01*
X007375Y022680D01*
X007423Y022746D01*
X007460Y022819D01*
X007467Y022842D01*
X007467Y022558D01*
X007584Y022441D01*
X008341Y022441D01*
X008358Y022458D01*
X008372Y022445D01*
X009128Y022445D01*
X009245Y022562D01*
X009245Y022842D01*
X009253Y022819D01*
X009290Y022746D01*
X009338Y022680D01*
X009396Y022622D01*
X009462Y022574D01*
X009535Y022537D01*
X009612Y022512D01*
X009693Y022499D01*
X009701Y022499D01*
X009701Y022986D01*
X009767Y022986D01*
X009767Y022499D01*
X009775Y022499D01*
X009856Y022512D01*
X009934Y022537D01*
X010006Y022574D01*
X010073Y022622D01*
X010130Y022680D01*
X010133Y022684D01*
X010133Y022546D01*
X010200Y022386D01*
X010322Y022263D01*
X010483Y022197D01*
X010656Y022197D01*
X010817Y022263D01*
X010939Y022386D01*
X011006Y022546D01*
X011006Y023192D01*
X010939Y023352D01*
X010914Y023378D01*
X016603Y023378D01*
X016603Y023245D01*
X016611Y023237D01*
X016611Y023233D01*
X016623Y023221D01*
X016623Y023217D01*
X016635Y023206D01*
X016635Y023202D01*
X016646Y023190D01*
X016646Y023186D01*
X016658Y023174D01*
X016658Y023170D01*
X016670Y023158D01*
X016670Y023154D01*
X016682Y023143D01*
X016682Y023139D01*
X016694Y023127D01*
X016694Y023123D01*
X016705Y023111D01*
X016705Y023107D01*
X016713Y023099D01*
X016713Y023095D01*
X016729Y023080D01*
X016729Y023076D01*
X016737Y023068D01*
X016737Y023064D01*
X016745Y023056D01*
X016749Y023052D01*
X016749Y023048D01*
X016760Y023036D01*
X016760Y023032D01*
X016772Y023021D01*
X016772Y023017D01*
X016784Y023005D01*
X016784Y023001D01*
X016796Y022989D01*
X016796Y022985D01*
X016804Y022977D01*
X016803Y022977D01*
X016791Y022977D01*
X016787Y022973D01*
X016783Y022973D01*
X016779Y022969D01*
X016775Y022969D01*
X016771Y022965D01*
X016767Y022965D01*
X016760Y022957D01*
X016756Y022957D01*
X016638Y022840D01*
X016635Y022836D01*
X016631Y022832D01*
X016627Y022828D01*
X016623Y022824D01*
X016619Y022820D01*
X016619Y022816D01*
X016615Y022812D01*
X016611Y022808D01*
X016611Y022804D01*
X016607Y022800D01*
X016607Y022796D01*
X016603Y022792D01*
X016603Y022785D01*
X016532Y022714D01*
X016528Y022710D01*
X016524Y022706D01*
X016520Y022702D01*
X016516Y022698D01*
X016516Y022694D01*
X016512Y022690D01*
X016512Y022682D01*
X016509Y022678D01*
X016509Y022501D01*
X016512Y022497D01*
X016512Y022485D01*
X016516Y022481D01*
X016516Y022477D01*
X016611Y022383D01*
X016611Y022383D01*
X016615Y022379D01*
X016615Y022375D01*
X016619Y022371D01*
X016619Y022363D01*
X016623Y022359D01*
X016623Y022355D01*
X016627Y022351D01*
X016627Y022347D01*
X016631Y022343D01*
X016631Y022339D01*
X016635Y022335D01*
X016635Y022332D01*
X016638Y022328D01*
X016638Y022324D01*
X016642Y022320D01*
X016642Y022316D01*
X016646Y022312D01*
X016646Y022308D01*
X016654Y022300D01*
X016654Y022296D01*
X016662Y022288D01*
X016662Y022284D01*
X016674Y022272D01*
X016674Y022269D01*
X016791Y022151D01*
X016795Y022147D01*
X016799Y022144D01*
X016803Y022140D01*
X016807Y022136D01*
X016811Y022132D01*
X016815Y022128D01*
X016819Y022124D01*
X016823Y022120D01*
X016826Y022120D01*
X016830Y022116D01*
X016834Y022112D01*
X016838Y022112D01*
X016842Y022108D01*
X016846Y022104D01*
X016850Y022104D01*
X016854Y022100D01*
X016858Y022100D01*
X016862Y022096D01*
X016870Y022096D01*
X016874Y022092D01*
X016882Y022092D01*
X016886Y022088D01*
X016897Y022088D01*
X016901Y022084D01*
X017374Y022084D01*
X017378Y022088D01*
X017390Y022088D01*
X017394Y022092D01*
X017402Y022092D01*
X017406Y022096D01*
X017413Y022096D01*
X017417Y022100D01*
X017421Y022100D01*
X017425Y022104D01*
X017429Y022104D01*
X017433Y022108D01*
X017437Y022112D01*
X017441Y022112D01*
X017445Y022116D01*
X017449Y022120D01*
X017453Y022120D01*
X017457Y022124D01*
X017461Y022128D01*
X017465Y022132D01*
X017469Y022136D01*
X017472Y022140D01*
X017476Y022144D01*
X017480Y022147D01*
X017484Y022151D01*
X017601Y022269D01*
X017601Y022272D01*
X017613Y022284D01*
X017613Y022288D01*
X017621Y022296D01*
X017621Y022300D01*
X017629Y022308D01*
X017629Y022312D01*
X017633Y022316D01*
X017633Y022320D01*
X017637Y022324D01*
X017637Y022328D01*
X017641Y022332D01*
X017641Y022335D01*
X017645Y022339D01*
X017645Y022343D01*
X017649Y022347D01*
X017649Y022351D01*
X017653Y022355D01*
X017653Y022359D01*
X017657Y022363D01*
X017657Y022371D01*
X017660Y022375D01*
X017660Y022379D01*
X017664Y022383D01*
X017763Y022481D01*
X017763Y022489D01*
X017767Y022493D01*
X017767Y022682D01*
X017763Y022686D01*
X017763Y022694D01*
X017759Y022698D01*
X017755Y022702D01*
X017751Y022706D01*
X018086Y022706D01*
X018086Y022864D02*
X017616Y022864D01*
X017653Y022828D02*
X017535Y022945D01*
X017472Y022945D01*
X017458Y022960D01*
X017468Y022969D01*
X017468Y022973D01*
X017479Y022985D01*
X017479Y022989D01*
X017491Y023001D01*
X017491Y023005D01*
X017503Y023017D01*
X017503Y023021D01*
X017515Y023032D01*
X017515Y023036D01*
X017527Y023048D01*
X017527Y023052D01*
X017531Y023056D01*
X017538Y023064D01*
X017538Y023068D01*
X017550Y023080D01*
X017550Y023083D01*
X017562Y023095D01*
X017562Y023099D01*
X017570Y023107D01*
X017570Y023111D01*
X017582Y023123D01*
X017582Y023127D01*
X017594Y023139D01*
X017594Y023143D01*
X017605Y023154D01*
X017605Y023158D01*
X017617Y023170D01*
X017617Y023174D01*
X017629Y023186D01*
X017629Y023190D01*
X017641Y023202D01*
X017641Y023206D01*
X017653Y023217D01*
X017653Y023221D01*
X017664Y023233D01*
X017664Y023237D01*
X017672Y023245D01*
X017672Y023378D01*
X018086Y023378D01*
X018086Y021962D01*
X018019Y022028D01*
X017630Y022028D01*
X017355Y021753D01*
X017355Y021484D01*
X017275Y021404D01*
X017275Y021548D01*
X016835Y021548D01*
X016835Y021568D01*
X017275Y021568D01*
X017275Y021744D01*
X017011Y022008D01*
X016835Y022008D01*
X016835Y021568D01*
X016815Y021568D01*
X016815Y022008D01*
X016638Y022008D01*
X016375Y021744D01*
X016375Y021568D01*
X016815Y021568D01*
X016815Y021548D01*
X016375Y021548D01*
X016375Y021372D01*
X016416Y021330D01*
X011342Y021330D01*
X011293Y021379D01*
X011150Y021438D01*
X010996Y021438D01*
X010853Y021379D01*
X010744Y021270D01*
X010685Y021127D01*
X010685Y020973D01*
X010744Y020830D01*
X010853Y020721D01*
X010996Y020662D01*
X011150Y020662D01*
X011293Y020721D01*
X011342Y020770D01*
X016372Y020770D01*
X016355Y020753D01*
X016355Y020363D01*
X016630Y020088D01*
X017019Y020088D01*
X017295Y020363D01*
X017295Y020753D01*
X017277Y020770D01*
X017372Y020770D01*
X017355Y020753D01*
X017355Y020363D01*
X017630Y020088D01*
X018019Y020088D01*
X018086Y020154D01*
X018086Y019962D01*
X018019Y020028D01*
X017630Y020028D01*
X017355Y019753D01*
X017355Y019363D01*
X017630Y019088D01*
X018019Y019088D01*
X018086Y019154D01*
X018086Y018962D01*
X018019Y019028D01*
X017630Y019028D01*
X017355Y018753D01*
X017355Y018363D01*
X017630Y018088D01*
X018019Y018088D01*
X018086Y018154D01*
X018086Y017962D01*
X018019Y018028D01*
X017630Y018028D01*
X017355Y017753D01*
X017355Y017363D01*
X017630Y017088D01*
X018019Y017088D01*
X018086Y017154D01*
X018086Y016962D01*
X018019Y017028D01*
X017630Y017028D01*
X017355Y016753D01*
X017355Y016363D01*
X017630Y016088D01*
X018019Y016088D01*
X018086Y016154D01*
X018086Y015962D01*
X018019Y016028D01*
X017630Y016028D01*
X017355Y015753D01*
X017355Y015363D01*
X017630Y015088D01*
X018019Y015088D01*
X018086Y015154D01*
X018086Y014962D01*
X018019Y015028D01*
X017630Y015028D01*
X017355Y014753D01*
X017355Y014363D01*
X017630Y014088D01*
X018019Y014088D01*
X018086Y014154D01*
X018086Y013962D01*
X018019Y014028D01*
X017630Y014028D01*
X017355Y013753D01*
X017355Y013363D01*
X017630Y013088D01*
X018019Y013088D01*
X018086Y013154D01*
X018086Y012962D01*
X018019Y013028D01*
X017630Y013028D01*
X017355Y012753D01*
X017355Y012363D01*
X017630Y012088D01*
X018019Y012088D01*
X018086Y012154D01*
X018086Y011962D01*
X018019Y012028D01*
X017630Y012028D01*
X017355Y011753D01*
X017355Y011363D01*
X017630Y011088D01*
X018019Y011088D01*
X018086Y011154D01*
X018086Y010962D01*
X018019Y011028D01*
X017630Y011028D01*
X017355Y010753D01*
X017355Y010363D01*
X017630Y010088D01*
X018019Y010088D01*
X018086Y010154D01*
X018086Y009962D01*
X018019Y010028D01*
X017630Y010028D01*
X017355Y009753D01*
X017355Y009363D01*
X017630Y009088D01*
X018019Y009088D01*
X018086Y009154D01*
X018086Y008962D01*
X018019Y009028D01*
X017630Y009028D01*
X017355Y008753D01*
X017355Y008363D01*
X017630Y008088D01*
X018019Y008088D01*
X018086Y008154D01*
X018086Y007962D01*
X018019Y008028D01*
X017630Y008028D01*
X017355Y007753D01*
X017355Y007363D01*
X017630Y007088D01*
X018019Y007088D01*
X018086Y007154D01*
X018086Y006962D01*
X018019Y007028D01*
X017630Y007028D01*
X017355Y006753D01*
X017355Y006363D01*
X017630Y006088D01*
X018019Y006088D01*
X018086Y006154D01*
X018086Y005962D01*
X018019Y006028D01*
X017630Y006028D01*
X017355Y005753D01*
X017355Y005363D01*
X017630Y005088D01*
X018019Y005088D01*
X018086Y005154D01*
X018086Y004962D01*
X018019Y005028D01*
X017630Y005028D01*
X017355Y004753D01*
X017355Y004363D01*
X017405Y004313D01*
X017232Y004313D01*
X017295Y004465D01*
X017295Y004652D01*
X017223Y004824D01*
X017091Y004957D01*
X016918Y005028D01*
X016731Y005028D01*
X016558Y004957D01*
X016426Y004824D01*
X016330Y005056D01*
X016149Y005237D01*
X015913Y005335D01*
X015657Y005335D01*
X015421Y005237D01*
X015240Y005056D01*
X015142Y004820D01*
X015142Y004564D01*
X015240Y004328D01*
X015255Y004313D01*
X014174Y004313D01*
X014189Y004328D01*
X014286Y004564D01*
X014286Y004820D01*
X014189Y005056D01*
X014008Y005237D01*
X013771Y005335D01*
X013516Y005335D01*
X013279Y005237D01*
X013238Y005196D01*
X013197Y005237D01*
X012960Y005335D01*
X012705Y005335D01*
X012468Y005237D01*
X012288Y005056D01*
X012190Y004820D01*
X012190Y004564D01*
X012288Y004328D01*
X012302Y004313D01*
X011221Y004313D01*
X011236Y004328D01*
X011334Y004564D01*
X011334Y004820D01*
X011236Y005056D01*
X011055Y005237D01*
X010819Y005335D01*
X010563Y005335D01*
X010327Y005237D01*
X010285Y005196D01*
X010244Y005237D01*
X010008Y005335D01*
X009752Y005335D01*
X009516Y005237D01*
X009335Y005056D01*
X009237Y004820D01*
X009237Y004564D01*
X009335Y004328D01*
X009350Y004313D01*
X008268Y004313D01*
X008283Y004328D01*
X008381Y004564D01*
X008381Y004820D01*
X008283Y005056D01*
X008102Y005237D01*
X007866Y005335D01*
X007610Y005335D01*
X007374Y005237D01*
X007333Y005196D01*
X007291Y005237D01*
X007055Y005335D01*
X006799Y005335D01*
X006563Y005237D01*
X006382Y005056D01*
X006284Y004820D01*
X006284Y004564D01*
X006382Y004328D01*
X006397Y004313D01*
X005316Y004313D01*
X005330Y004328D01*
X005428Y004564D01*
X005428Y004820D01*
X005330Y005056D01*
X005149Y005237D01*
X004913Y005335D01*
X004657Y005335D01*
X004421Y005237D01*
X004240Y005056D01*
X004167Y004880D01*
X004019Y005028D01*
X003630Y005028D01*
X003355Y004753D01*
X003355Y004363D01*
X003405Y004313D01*
X003232Y004313D01*
X003295Y004465D01*
X003295Y004652D01*
X003223Y004824D01*
X003091Y004957D01*
X002918Y005028D01*
X002731Y005028D01*
X002564Y004959D01*
X002564Y005112D02*
X002606Y005112D01*
X003044Y005112D02*
X003606Y005112D01*
X003630Y005088D02*
X004019Y005088D01*
X004295Y005363D01*
X004295Y005753D01*
X004019Y006028D01*
X003630Y006028D01*
X003355Y005753D01*
X003355Y005363D01*
X003630Y005088D01*
X003556Y004954D02*
X003093Y004954D01*
X003235Y004795D02*
X003397Y004795D01*
X003355Y004637D02*
X003295Y004637D01*
X003295Y004478D02*
X003355Y004478D01*
X003398Y004320D02*
X003235Y004320D01*
X003202Y005271D02*
X003447Y005271D01*
X003355Y005429D02*
X003295Y005429D01*
X003295Y005588D02*
X003355Y005588D01*
X003355Y005746D02*
X003295Y005746D01*
X003142Y005905D02*
X003507Y005905D01*
X003630Y006088D02*
X004019Y006088D01*
X004295Y006363D01*
X004295Y006753D01*
X004019Y007028D01*
X003630Y007028D01*
X003355Y006753D01*
X003355Y006363D01*
X003630Y006088D01*
X003496Y006222D02*
X003153Y006222D01*
X003295Y006380D02*
X003355Y006380D01*
X003355Y006539D02*
X003295Y006539D01*
X003295Y006697D02*
X003355Y006697D01*
X003458Y006856D02*
X003191Y006856D01*
X003033Y007014D02*
X003616Y007014D01*
X003630Y007088D02*
X004019Y007088D01*
X004174Y007243D01*
X004240Y007084D01*
X004421Y006903D01*
X004657Y006805D01*
X004913Y006805D01*
X005149Y006903D01*
X005330Y007084D01*
X005395Y007239D01*
X005461Y007078D01*
X005591Y006948D01*
X005461Y006818D01*
X005390Y006647D01*
X005390Y006461D01*
X005461Y006290D01*
X005591Y006160D01*
X005461Y006031D01*
X005390Y005859D01*
X005390Y005674D01*
X005461Y005503D01*
X005592Y005372D01*
X005622Y005360D01*
X005566Y005319D01*
X005516Y005270D01*
X005475Y005213D01*
X005443Y005150D01*
X005421Y005084D01*
X005410Y005014D01*
X005410Y004988D01*
X005848Y004988D01*
X005848Y004971D01*
X005865Y004971D01*
X005865Y004988D01*
X006302Y004988D01*
X006302Y005014D01*
X006291Y005084D01*
X006269Y005150D01*
X006237Y005213D01*
X006196Y005270D01*
X006147Y005319D01*
X006091Y005360D01*
X006120Y005372D01*
X006251Y005503D01*
X006322Y005674D01*
X006322Y005859D01*
X006251Y006031D01*
X006121Y006160D01*
X006251Y006290D01*
X006322Y006461D01*
X006322Y006647D01*
X006251Y006818D01*
X006121Y006948D01*
X006251Y007078D01*
X006318Y007239D01*
X006382Y007084D01*
X006563Y006903D01*
X006799Y006805D01*
X007055Y006805D01*
X007291Y006903D01*
X007333Y006944D01*
X007374Y006903D01*
X007610Y006805D01*
X007866Y006805D01*
X008102Y006903D01*
X008283Y007084D01*
X008347Y007239D01*
X008414Y007078D01*
X008544Y006948D01*
X008414Y006818D01*
X008343Y006647D01*
X008343Y006461D01*
X008414Y006290D01*
X008544Y006160D01*
X008414Y006031D01*
X008343Y005859D01*
X008343Y005674D01*
X008414Y005503D01*
X008545Y005372D01*
X008574Y005360D01*
X008519Y005319D01*
X008469Y005270D01*
X008428Y005213D01*
X008396Y005150D01*
X008374Y005084D01*
X008363Y005014D01*
X008363Y004988D01*
X008800Y004988D01*
X008800Y004971D01*
X008363Y004971D01*
X008363Y004944D01*
X008374Y004875D01*
X008396Y004808D01*
X008428Y004746D01*
X008469Y004689D01*
X008519Y004639D01*
X008575Y004598D01*
X008638Y004566D01*
X008705Y004545D01*
X008774Y004534D01*
X008800Y004534D01*
X008800Y004971D01*
X008818Y004971D01*
X008818Y004988D01*
X009255Y004988D01*
X009255Y005014D01*
X009244Y005084D01*
X009222Y005150D01*
X009190Y005213D01*
X009149Y005270D01*
X009099Y005319D01*
X009044Y005360D01*
X009073Y005372D01*
X009204Y005503D01*
X009275Y005674D01*
X009275Y005859D01*
X009204Y006031D01*
X009074Y006160D01*
X009204Y006290D01*
X009275Y006461D01*
X009275Y006647D01*
X009204Y006818D01*
X009074Y006948D01*
X009204Y007078D01*
X009270Y007239D01*
X009335Y007084D01*
X009516Y006903D01*
X009752Y006805D01*
X010008Y006805D01*
X010244Y006903D01*
X010285Y006944D01*
X010327Y006903D01*
X010563Y006805D01*
X010819Y006805D01*
X011055Y006903D01*
X011236Y007084D01*
X011300Y007239D01*
X011367Y007078D01*
X011497Y006948D01*
X011367Y006818D01*
X011296Y006647D01*
X011296Y006461D01*
X011367Y006290D01*
X011497Y006160D01*
X011367Y006031D01*
X011296Y005859D01*
X011296Y005674D01*
X011367Y005503D01*
X011498Y005372D01*
X011527Y005360D01*
X011471Y005319D01*
X011422Y005270D01*
X011380Y005213D01*
X011349Y005150D01*
X011327Y005084D01*
X011316Y005014D01*
X011316Y004988D01*
X011753Y004988D01*
X011753Y004971D01*
X011316Y004971D01*
X011316Y004944D01*
X011327Y004875D01*
X011349Y004808D01*
X011380Y004746D01*
X011422Y004689D01*
X011471Y004639D01*
X011528Y004598D01*
X011591Y004566D01*
X011657Y004545D01*
X011727Y004534D01*
X011753Y004534D01*
X011753Y004971D01*
X011770Y004971D01*
X011770Y004534D01*
X011797Y004534D01*
X011866Y004545D01*
X011933Y004566D01*
X011995Y004598D01*
X012052Y004639D01*
X012102Y004689D01*
X012143Y004746D01*
X012175Y004808D01*
X012196Y004875D01*
X012207Y004944D01*
X012207Y004971D01*
X011770Y004971D01*
X011770Y004988D01*
X011770Y005301D01*
X011753Y005301D01*
X011753Y004988D01*
X011770Y004988D01*
X012207Y004988D01*
X012207Y005014D01*
X012196Y005084D01*
X012175Y005150D01*
X012143Y005213D01*
X012102Y005270D01*
X012052Y005319D01*
X011996Y005360D01*
X012026Y005372D01*
X012157Y005503D01*
X012227Y005674D01*
X012227Y005859D01*
X012157Y006031D01*
X012027Y006160D01*
X012157Y006290D01*
X012227Y006461D01*
X012227Y006647D01*
X012157Y006818D01*
X012027Y006948D01*
X012157Y007078D01*
X012223Y007239D01*
X012288Y007084D01*
X012468Y006903D01*
X012705Y006805D01*
X012960Y006805D01*
X013197Y006903D01*
X013238Y006944D01*
X013279Y006903D01*
X013516Y006805D01*
X013771Y006805D01*
X014008Y006903D01*
X014189Y007084D01*
X014253Y007239D01*
X014320Y007078D01*
X014449Y006948D01*
X014320Y006818D01*
X014249Y006647D01*
X014249Y006461D01*
X014320Y006290D01*
X014449Y006160D01*
X014320Y006031D01*
X014249Y005859D01*
X014249Y005674D01*
X014320Y005503D01*
X014451Y005372D01*
X014480Y005360D01*
X014424Y005319D01*
X014374Y005270D01*
X014333Y005213D01*
X014301Y005150D01*
X014280Y005084D01*
X014269Y005014D01*
X014269Y004988D01*
X014706Y004988D01*
X014706Y004971D01*
X014269Y004971D01*
X014269Y004944D01*
X014280Y004875D01*
X014301Y004808D01*
X014333Y004746D01*
X014374Y004689D01*
X014424Y004639D01*
X014481Y004598D01*
X014543Y004566D01*
X014610Y004545D01*
X014679Y004534D01*
X014706Y004534D01*
X014706Y004971D01*
X014723Y004971D01*
X014723Y004988D01*
X015160Y004988D01*
X015160Y005014D01*
X015149Y005084D01*
X015128Y005150D01*
X015096Y005213D01*
X015054Y005270D01*
X015005Y005319D01*
X014949Y005360D01*
X014978Y005372D01*
X015109Y005503D01*
X015180Y005674D01*
X015180Y005859D01*
X015109Y006031D01*
X014979Y006160D01*
X015109Y006290D01*
X015180Y006461D01*
X015180Y006647D01*
X015109Y006818D01*
X014979Y006948D01*
X015109Y007078D01*
X015176Y007239D01*
X015240Y007084D01*
X015421Y006903D01*
X015657Y006805D01*
X015913Y006805D01*
X016149Y006903D01*
X016330Y007084D01*
X016419Y007299D01*
X016630Y007088D01*
X017019Y007088D01*
X017295Y007363D01*
X017295Y007753D01*
X017019Y008028D01*
X016630Y008028D01*
X016355Y007753D01*
X016330Y007812D01*
X016149Y007993D01*
X015957Y008073D01*
X016056Y008172D01*
X016056Y008928D01*
X015939Y009045D01*
X015111Y009045D01*
X015282Y009216D01*
X015939Y009216D01*
X016056Y009333D01*
X016056Y009764D01*
X016074Y009757D01*
X016229Y009757D01*
X016371Y009816D01*
X016480Y009925D01*
X016540Y010067D01*
X016540Y010179D01*
X016630Y010088D01*
X017019Y010088D01*
X017295Y010363D01*
X017295Y010753D01*
X017019Y011028D01*
X016630Y011028D01*
X016355Y010753D01*
X016355Y010481D01*
X016229Y010533D01*
X016074Y010533D01*
X016056Y010525D01*
X016056Y010936D01*
X015939Y011053D01*
X014710Y011053D01*
X014593Y010936D01*
X014593Y010141D01*
X014619Y010115D01*
X014593Y010090D01*
X014593Y009791D01*
X014551Y009892D01*
X014542Y009901D01*
X014542Y010939D01*
X014551Y010948D01*
X014610Y011091D01*
X014610Y011246D01*
X014551Y011388D01*
X014442Y011497D01*
X014300Y011556D01*
X014145Y011556D01*
X014002Y011497D01*
X013893Y011388D01*
X013834Y011246D01*
X013834Y011091D01*
X013893Y010948D01*
X013902Y010939D01*
X013902Y009901D01*
X013893Y009892D01*
X013867Y009829D01*
X013824Y009932D01*
X013734Y010022D01*
X013431Y010326D01*
X013341Y010416D01*
X013223Y010465D01*
X012434Y010465D01*
X012434Y010936D01*
X012317Y011053D01*
X011088Y011053D01*
X010971Y010936D01*
X010971Y010505D01*
X009639Y010505D01*
X009639Y010936D01*
X009522Y011053D01*
X008293Y011053D01*
X008176Y010936D01*
X008176Y010492D01*
X008074Y010450D01*
X007972Y010349D01*
X007783Y010159D01*
X007782Y010159D01*
X007673Y010050D01*
X007673Y010049D01*
X007657Y010034D01*
X007617Y009937D01*
X007559Y009878D01*
X007504Y010010D01*
X007495Y010019D01*
X007495Y011035D01*
X007446Y011153D01*
X007356Y011243D01*
X007130Y011469D01*
X007130Y011482D01*
X007071Y011624D01*
X006962Y011734D01*
X006819Y011793D01*
X006665Y011793D01*
X006522Y011734D01*
X006413Y011624D01*
X006354Y011482D01*
X006354Y011327D01*
X006410Y011192D01*
X006386Y011202D01*
X006232Y011202D01*
X006089Y011143D01*
X005999Y011053D01*
X004907Y011053D01*
X004790Y010936D01*
X004790Y009452D01*
X004907Y009334D01*
X006136Y009334D01*
X006253Y009452D01*
X006253Y009472D01*
X006628Y009097D01*
X006649Y009076D01*
X006450Y009076D01*
X006289Y009010D01*
X006253Y008973D01*
X006253Y009046D01*
X006136Y009164D01*
X004907Y009164D01*
X004790Y009046D01*
X004790Y008290D01*
X004907Y008173D01*
X005490Y008173D01*
X005536Y008110D01*
X005536Y007680D01*
X005461Y007605D01*
X005428Y007525D01*
X005428Y007576D01*
X005330Y007812D01*
X005149Y007993D01*
X004913Y008091D01*
X004657Y008091D01*
X004421Y007993D01*
X004240Y007812D01*
X004239Y007809D01*
X004019Y008028D01*
X003630Y008028D01*
X003355Y007753D01*
X003355Y007363D01*
X003630Y007088D01*
X003545Y007173D02*
X003104Y007173D01*
X003263Y007331D02*
X003387Y007331D01*
X003355Y007490D02*
X003295Y007490D01*
X003295Y007648D02*
X003355Y007648D01*
X003409Y007807D02*
X003240Y007807D01*
X003082Y007965D02*
X003567Y007965D01*
X003630Y008088D02*
X004019Y008088D01*
X004295Y008363D01*
X004295Y008753D01*
X004019Y009028D01*
X003630Y009028D01*
X003355Y008753D01*
X003355Y008363D01*
X003630Y008088D01*
X003594Y008124D02*
X003055Y008124D01*
X003214Y008282D02*
X003436Y008282D01*
X003355Y008441D02*
X003295Y008441D01*
X003295Y008599D02*
X003355Y008599D01*
X003360Y008758D02*
X003289Y008758D01*
X003131Y008916D02*
X003518Y008916D01*
X003630Y009088D02*
X004019Y009088D01*
X004295Y009363D01*
X004295Y009753D01*
X004019Y010028D01*
X003630Y010028D01*
X003355Y009753D01*
X003355Y009363D01*
X003630Y009088D01*
X003485Y009233D02*
X003165Y009233D01*
X003295Y009392D02*
X003355Y009392D01*
X003355Y009550D02*
X003295Y009550D01*
X003295Y009709D02*
X003355Y009709D01*
X003469Y009867D02*
X003180Y009867D01*
X003021Y010026D02*
X003628Y010026D01*
X003630Y010088D02*
X004019Y010088D01*
X004295Y010363D01*
X004295Y010753D01*
X004019Y011028D01*
X003630Y011028D01*
X003355Y010753D01*
X003355Y010363D01*
X003630Y010088D01*
X003534Y010184D02*
X003116Y010184D01*
X003274Y010343D02*
X003375Y010343D01*
X003355Y010501D02*
X003295Y010501D01*
X003295Y010660D02*
X003355Y010660D01*
X003420Y010818D02*
X003229Y010818D01*
X003070Y010977D02*
X003579Y010977D01*
X003630Y011088D02*
X004019Y011088D01*
X004295Y011363D01*
X004295Y011753D01*
X004019Y012028D01*
X003630Y012028D01*
X003355Y011753D01*
X003355Y011363D01*
X003630Y011088D01*
X003583Y011135D02*
X003067Y011135D01*
X003225Y011294D02*
X003424Y011294D01*
X003355Y011452D02*
X003295Y011452D01*
X003295Y011611D02*
X003355Y011611D01*
X003371Y011769D02*
X003278Y011769D01*
X003119Y011928D02*
X003530Y011928D01*
X003630Y012088D02*
X004019Y012088D01*
X004295Y012363D01*
X004295Y012753D01*
X004019Y013028D01*
X003630Y013028D01*
X003355Y012753D01*
X003355Y012363D01*
X003630Y012088D01*
X003473Y012245D02*
X003176Y012245D01*
X003295Y012403D02*
X003355Y012403D01*
X003355Y012562D02*
X003295Y012562D01*
X003295Y012720D02*
X003355Y012720D01*
X003481Y012879D02*
X003168Y012879D01*
X003127Y013196D02*
X003522Y013196D01*
X003630Y013088D02*
X004019Y013088D01*
X004295Y013363D01*
X004295Y013753D01*
X004019Y014028D01*
X003630Y014028D01*
X003355Y013753D01*
X003355Y013363D01*
X003630Y013088D01*
X003364Y013354D02*
X003286Y013354D01*
X003295Y013513D02*
X003355Y013513D01*
X003355Y013671D02*
X003295Y013671D01*
X003217Y013830D02*
X003432Y013830D01*
X003590Y013988D02*
X003059Y013988D01*
X003078Y014147D02*
X003571Y014147D01*
X003630Y014088D02*
X004019Y014088D01*
X004295Y014363D01*
X004295Y014753D01*
X004019Y015028D01*
X003630Y015028D01*
X003355Y014753D01*
X003355Y014363D01*
X003630Y014088D01*
X003413Y014305D02*
X003237Y014305D01*
X003295Y014464D02*
X003355Y014464D01*
X003355Y014622D02*
X003295Y014622D01*
X003266Y014781D02*
X003383Y014781D01*
X003541Y014939D02*
X003108Y014939D01*
X003029Y015098D02*
X003620Y015098D01*
X003630Y015088D02*
X004019Y015088D01*
X004295Y015363D01*
X004295Y015753D01*
X004019Y016028D01*
X003630Y016028D01*
X003355Y015753D01*
X003355Y015363D01*
X003630Y015088D01*
X003462Y015256D02*
X003188Y015256D01*
X003295Y015415D02*
X003355Y015415D01*
X003355Y015573D02*
X003295Y015573D01*
X003295Y015732D02*
X003355Y015732D01*
X003492Y015890D02*
X003157Y015890D01*
X003139Y016207D02*
X003539Y016207D01*
X003638Y016108D02*
X003375Y016372D01*
X003375Y016548D01*
X003815Y016548D01*
X003835Y016548D01*
X003835Y016568D01*
X004275Y016568D01*
X004275Y016744D01*
X004011Y017008D01*
X003835Y017008D01*
X003835Y016568D01*
X003815Y016568D01*
X003815Y017008D01*
X003638Y017008D01*
X003375Y016744D01*
X003375Y016568D01*
X003815Y016568D01*
X003815Y016548D01*
X003815Y016108D01*
X003638Y016108D01*
X003835Y016108D02*
X004011Y016108D01*
X004275Y016372D01*
X004275Y016548D01*
X003835Y016548D01*
X003835Y016108D01*
X003835Y016207D02*
X003815Y016207D01*
X003815Y016366D02*
X003835Y016366D01*
X003835Y016524D02*
X003815Y016524D01*
X003815Y016683D02*
X003835Y016683D01*
X003835Y016841D02*
X003815Y016841D01*
X003815Y017000D02*
X003835Y017000D01*
X004019Y017000D02*
X007222Y017000D01*
X007200Y016979D02*
X007290Y017069D01*
X006442Y017069D01*
X006325Y017117D01*
X006234Y017208D01*
X006205Y017237D01*
X006192Y017237D01*
X006050Y017296D01*
X005941Y017405D01*
X005881Y017548D01*
X005881Y017702D01*
X005941Y017845D01*
X006050Y017954D01*
X006192Y018013D01*
X006347Y018013D01*
X006489Y017954D01*
X006599Y017845D01*
X006655Y017709D01*
X006966Y017709D01*
X006916Y017759D01*
X006916Y018161D01*
X007033Y018278D01*
X007435Y018278D01*
X007552Y018161D01*
X007552Y017759D01*
X007502Y017709D01*
X007821Y017709D01*
X007799Y017731D01*
X007775Y017772D01*
X007763Y017818D01*
X007763Y018038D01*
X008061Y018038D01*
X008061Y018038D01*
X008359Y018038D01*
X008359Y017818D01*
X008347Y017772D01*
X008323Y017731D01*
X008301Y017709D01*
X008905Y017709D01*
X008854Y017759D01*
X008795Y017902D01*
X008795Y018057D01*
X008854Y018199D01*
X008857Y018202D01*
X008359Y018202D01*
X008359Y018038D01*
X008061Y018038D01*
X008061Y018038D01*
X007763Y018038D01*
X007763Y018202D01*
X007677Y018202D01*
X007585Y018240D01*
X007514Y018310D01*
X007435Y018390D01*
X007033Y018390D01*
X006916Y018507D01*
X006916Y018909D01*
X007033Y019026D01*
X007435Y019026D01*
X007503Y018958D01*
X007520Y018958D01*
X007612Y018920D01*
X007743Y018789D01*
X007743Y018909D01*
X007811Y018977D01*
X007811Y019234D01*
X007751Y019294D01*
X007751Y019294D01*
X007613Y019432D01*
X007575Y019524D01*
X007575Y020135D01*
X007613Y020227D01*
X008106Y020721D01*
X008106Y021500D01*
X007939Y021500D01*
X007919Y021520D01*
X007844Y021520D01*
X007844Y021594D01*
X007844Y021594D01*
X007844Y021520D01*
X007742Y021520D01*
X007696Y021532D01*
X007655Y021556D01*
X007622Y021589D01*
X007616Y021598D01*
X007462Y021534D01*
X007282Y021534D01*
X007116Y021603D01*
X006990Y021730D01*
X006921Y021896D01*
X006921Y022075D01*
X006990Y022241D01*
X007116Y022368D01*
X007282Y022436D01*
X007462Y022436D01*
X007627Y022368D01*
X007637Y022358D01*
X007655Y022375D01*
X007696Y022399D01*
X007742Y022411D01*
X007844Y022411D01*
X007844Y022337D01*
X007844Y022337D01*
X007844Y022411D01*
X007919Y022411D01*
X007939Y022431D01*
X009030Y022431D01*
X009091Y022370D01*
X009251Y022436D01*
X009430Y022436D01*
X009596Y022368D01*
X009723Y022241D01*
X009791Y022075D01*
X009791Y021896D01*
X009723Y021730D01*
X009596Y021603D01*
X009430Y021534D01*
X009251Y021534D01*
X009119Y021589D01*
X009118Y021588D01*
X009118Y019933D01*
X009482Y019569D01*
X009552Y019499D01*
X009590Y019407D01*
X009590Y018087D01*
X009571Y018040D01*
X009571Y017902D01*
X009512Y017759D01*
X009461Y017709D01*
X010468Y017709D01*
X010547Y017788D01*
X010547Y018739D01*
X010420Y018792D01*
X010311Y018901D01*
X010252Y019044D01*
X010252Y019198D01*
X010311Y019341D01*
X010420Y019450D01*
X010562Y019509D01*
X010717Y019509D01*
X010859Y019450D01*
X010969Y019341D01*
X011028Y019198D01*
X011028Y019060D01*
X011047Y019013D01*
X011047Y017945D01*
X012204Y017945D01*
X012194Y017955D01*
X012122Y018128D01*
X012122Y018855D01*
X012194Y019027D01*
X012326Y019160D01*
X012499Y019231D01*
X012686Y019231D01*
X012859Y019160D01*
X012991Y019027D01*
X013062Y018855D01*
X013062Y018128D01*
X012991Y017955D01*
X012981Y017945D01*
X013204Y017945D01*
X013194Y017955D01*
X013122Y018128D01*
X013122Y018855D01*
X013194Y019027D01*
X013326Y019160D01*
X013499Y019231D01*
X013686Y019231D01*
X013859Y019160D01*
X013991Y019027D01*
X014062Y018855D01*
X014062Y018128D01*
X013991Y017955D01*
X013981Y017945D01*
X014204Y017945D01*
X014194Y017955D01*
X014122Y018128D01*
X014122Y018855D01*
X014194Y019027D01*
X014326Y019160D01*
X014499Y019231D01*
X014686Y019231D01*
X014859Y019160D01*
X014991Y019027D01*
X015062Y018855D01*
X015062Y018128D01*
X014991Y017955D01*
X014981Y017945D01*
X015821Y017945D01*
X015939Y017896D01*
X016334Y017501D01*
X016347Y017501D01*
X016355Y017498D01*
X016355Y017753D01*
X016630Y018028D01*
X017019Y018028D01*
X017295Y017753D01*
X017295Y017363D01*
X017019Y017088D01*
X016658Y017088D01*
X016658Y017036D01*
X016654Y017028D01*
X017019Y017028D01*
X017295Y016753D01*
X017295Y016363D01*
X017019Y016088D01*
X016630Y016088D01*
X016355Y016363D01*
X016355Y016728D01*
X016347Y016725D01*
X016192Y016725D01*
X016050Y016784D01*
X015941Y016893D01*
X015881Y017036D01*
X015881Y017049D01*
X015625Y017305D01*
X015290Y017305D01*
X015458Y017137D01*
X015496Y017045D01*
X015496Y016860D01*
X015565Y016860D01*
X015682Y016743D01*
X015682Y016105D01*
X015588Y016011D01*
X015682Y015917D01*
X015682Y015278D01*
X015680Y015277D01*
X015971Y015277D01*
X016050Y015356D01*
X016192Y015415D01*
X016347Y015415D01*
X016355Y015411D01*
X016355Y015753D01*
X016630Y016028D01*
X017019Y016028D01*
X017295Y015753D01*
X017295Y015363D01*
X017019Y015088D01*
X016658Y015088D01*
X016658Y015028D01*
X017019Y015028D01*
X017295Y014753D01*
X017295Y014363D01*
X017019Y014088D01*
X016630Y014088D01*
X016355Y014363D01*
X016355Y014642D01*
X016347Y014638D01*
X016192Y014638D01*
X016096Y014679D01*
X016096Y013959D01*
X015978Y013842D01*
X014750Y013842D01*
X014725Y013867D01*
X014725Y013840D01*
X014073Y013840D01*
X014073Y013840D01*
X014725Y013840D01*
X014725Y013807D01*
X014715Y013742D01*
X014698Y013690D01*
X014722Y013714D01*
X014763Y013738D01*
X014809Y013750D01*
X015287Y013750D01*
X015287Y013332D01*
X015442Y013332D01*
X016076Y013332D01*
X016076Y013594D01*
X016063Y013639D01*
X016040Y013680D01*
X016006Y013714D01*
X015965Y013738D01*
X015919Y013750D01*
X015442Y013750D01*
X015442Y013332D01*
X015442Y013177D01*
X016076Y013177D01*
X016076Y012916D01*
X016063Y012870D01*
X016040Y012829D01*
X016006Y012796D01*
X015965Y012772D01*
X015919Y012760D01*
X015442Y012760D01*
X015442Y013177D01*
X015287Y013177D01*
X015287Y012760D01*
X014809Y012760D01*
X014763Y012772D01*
X014722Y012796D01*
X014689Y012829D01*
X014665Y012870D01*
X014653Y012916D01*
X014653Y013177D01*
X015287Y013177D01*
X015287Y013332D01*
X014653Y013332D01*
X014653Y013594D01*
X014657Y013611D01*
X014626Y013569D01*
X014580Y013522D01*
X014527Y013484D01*
X014469Y013454D01*
X014406Y013434D01*
X014342Y013424D01*
X014073Y013424D01*
X014073Y013840D01*
X014073Y013840D01*
X014073Y013424D01*
X013804Y013424D01*
X013739Y013434D01*
X013677Y013454D01*
X013622Y013482D01*
X013622Y012822D01*
X013504Y012705D01*
X012641Y012705D01*
X012642Y012702D01*
X012642Y012548D01*
X012583Y012405D01*
X012474Y012296D01*
X012331Y012237D01*
X012177Y012237D01*
X012034Y012296D01*
X011925Y012405D01*
X011866Y012548D01*
X011866Y012702D01*
X011867Y012705D01*
X011339Y012705D01*
X011222Y012822D01*
X011222Y013688D01*
X011339Y013805D01*
X012966Y013805D01*
X012948Y013822D01*
X012889Y013965D01*
X012889Y014120D01*
X012948Y014262D01*
X013058Y014371D01*
X013200Y014430D01*
X013312Y014430D01*
X013380Y014499D01*
X013451Y014569D01*
X013543Y014607D01*
X014633Y014607D01*
X014633Y014681D01*
X014593Y014698D01*
X014484Y014807D01*
X014425Y014949D01*
X014425Y015104D01*
X014449Y015161D01*
X014139Y015161D01*
X014065Y015236D01*
X013990Y015161D01*
X013352Y015161D01*
X013277Y015236D01*
X013203Y015161D01*
X012565Y015161D01*
X012490Y015236D01*
X012415Y015161D01*
X011777Y015161D01*
X011708Y015230D01*
X011461Y014982D01*
X011461Y014871D01*
X011402Y014728D01*
X011293Y014619D01*
X011150Y014560D01*
X010996Y014560D01*
X010854Y014618D01*
X010851Y014610D01*
X010741Y014501D01*
X010599Y014442D01*
X010444Y014442D01*
X010302Y014501D01*
X010229Y014573D01*
X010229Y014353D01*
X010112Y014236D01*
X009100Y014236D01*
X008823Y013959D01*
X008823Y013847D01*
X008806Y013805D01*
X009704Y013805D01*
X009822Y013688D01*
X009822Y013092D01*
X009890Y013092D01*
X010033Y013033D01*
X010142Y012924D01*
X010201Y012781D01*
X010201Y012627D01*
X010142Y012484D01*
X010033Y012375D01*
X009890Y012316D01*
X009736Y012316D01*
X009593Y012375D01*
X009514Y012454D01*
X009369Y012454D01*
X009278Y012492D01*
X009207Y012562D01*
X009207Y012562D01*
X009064Y012705D01*
X007539Y012705D01*
X007422Y012822D01*
X007422Y013688D01*
X007539Y013805D01*
X008064Y013805D01*
X008047Y013847D01*
X008047Y014001D01*
X008106Y014144D01*
X008215Y014253D01*
X008358Y014312D01*
X008469Y014312D01*
X008766Y014609D01*
X008766Y015149D01*
X008884Y015266D01*
X010112Y015266D01*
X010134Y015244D01*
X010133Y015246D01*
X010133Y015391D01*
X010099Y015371D01*
X010053Y015358D01*
X009575Y015358D01*
X009575Y015776D01*
X009420Y015776D01*
X008786Y015776D01*
X008786Y015515D01*
X008799Y015469D01*
X008822Y015428D01*
X008856Y015394D01*
X008897Y015371D01*
X008943Y015358D01*
X009420Y015358D01*
X009420Y015776D01*
X009420Y015931D01*
X008786Y015931D01*
X008786Y016192D01*
X008799Y016238D01*
X008822Y016279D01*
X008856Y016312D01*
X008897Y016336D01*
X008943Y016348D01*
X009420Y016348D01*
X009420Y015931D01*
X009575Y015931D01*
X009575Y016348D01*
X010053Y016348D01*
X010099Y016336D01*
X010140Y016312D01*
X010173Y016279D01*
X010197Y016238D01*
X010209Y016192D01*
X010209Y016062D01*
X010322Y016175D01*
X010483Y016242D01*
X010656Y016242D01*
X010817Y016175D01*
X010939Y016052D01*
X011006Y015892D01*
X011006Y015336D01*
X011107Y015336D01*
X011510Y015739D01*
X011581Y015809D01*
X011660Y015842D01*
X011660Y015917D01*
X011754Y016011D01*
X011660Y016105D01*
X011660Y016704D01*
X011562Y016745D01*
X011452Y016854D01*
X011393Y016997D01*
X011393Y017151D01*
X011452Y017294D01*
X011464Y017305D01*
X010969Y017305D01*
X010782Y017117D01*
X010765Y017111D01*
X010820Y017088D01*
X010929Y016979D01*
X010988Y016836D01*
X010988Y016682D01*
X010929Y016539D01*
X010820Y016430D01*
X010677Y016371D01*
X010523Y016371D01*
X010380Y016430D01*
X010271Y016539D01*
X010231Y016636D01*
X007898Y016636D01*
X007858Y016539D01*
X007749Y016430D01*
X007607Y016371D01*
X007452Y016371D01*
X007310Y016430D01*
X007200Y016539D01*
X007141Y016682D01*
X007141Y016836D01*
X007200Y016979D01*
X007144Y016841D02*
X004178Y016841D01*
X004275Y016683D02*
X007141Y016683D01*
X007215Y016524D02*
X004275Y016524D01*
X004269Y016366D02*
X011660Y016366D01*
X011660Y016524D02*
X010915Y016524D01*
X010988Y016683D02*
X011660Y016683D01*
X011465Y016841D02*
X010986Y016841D01*
X010908Y017000D02*
X011393Y017000D01*
X011396Y017158D02*
X010823Y017158D01*
X010547Y017792D02*
X009526Y017792D01*
X009571Y017951D02*
X010547Y017951D01*
X010547Y018109D02*
X009590Y018109D01*
X009590Y018268D02*
X010547Y018268D01*
X010547Y018426D02*
X009590Y018426D01*
X009590Y018585D02*
X010547Y018585D01*
X010537Y018743D02*
X009590Y018743D01*
X009590Y018902D02*
X010310Y018902D01*
X010252Y019060D02*
X009590Y019060D01*
X009590Y019219D02*
X010260Y019219D01*
X010347Y019377D02*
X009590Y019377D01*
X009515Y019536D02*
X016355Y019536D01*
X016355Y019694D02*
X009357Y019694D01*
X009198Y019853D02*
X016455Y019853D01*
X016355Y019753D02*
X016630Y020028D01*
X017019Y020028D01*
X017295Y019753D01*
X017295Y019363D01*
X017019Y019088D01*
X016630Y019088D01*
X016355Y019363D01*
X016355Y019753D01*
X016548Y020170D02*
X009118Y020170D01*
X009118Y020328D02*
X016390Y020328D01*
X016355Y020487D02*
X009118Y020487D01*
X009118Y020645D02*
X016355Y020645D01*
X016613Y020011D02*
X009118Y020011D01*
X008618Y020061D02*
X008606Y020089D01*
X008567Y020129D01*
X008567Y020159D01*
X008618Y020210D01*
X008618Y020061D01*
X008618Y020170D02*
X008578Y020170D01*
X008031Y020645D02*
X004275Y020645D01*
X004275Y020568D02*
X004275Y020744D01*
X004011Y021008D01*
X003835Y021008D01*
X003835Y020568D01*
X004275Y020568D01*
X004275Y020548D02*
X003835Y020548D01*
X003835Y020568D01*
X003815Y020568D01*
X003815Y021008D01*
X003638Y021008D01*
X003375Y020744D01*
X003375Y020568D01*
X003815Y020568D01*
X003815Y020548D01*
X003835Y020548D01*
X003835Y020108D01*
X004011Y020108D01*
X004275Y020372D01*
X004275Y020548D01*
X004275Y020487D02*
X007872Y020487D01*
X007714Y020328D02*
X004231Y020328D01*
X004073Y020170D02*
X007589Y020170D01*
X007575Y020011D02*
X004036Y020011D01*
X004019Y020028D02*
X003630Y020028D01*
X003355Y019753D01*
X003355Y019363D01*
X003630Y019088D01*
X004019Y019088D01*
X004295Y019363D01*
X004295Y019753D01*
X004019Y020028D01*
X003815Y020108D02*
X003815Y020548D01*
X003375Y020548D01*
X003375Y020372D01*
X003638Y020108D01*
X003815Y020108D01*
X003815Y020170D02*
X003835Y020170D01*
X003835Y020328D02*
X003815Y020328D01*
X003815Y020487D02*
X003835Y020487D01*
X003835Y020645D02*
X003815Y020645D01*
X003815Y020804D02*
X003835Y020804D01*
X003835Y020962D02*
X003815Y020962D01*
X003593Y020962D02*
X003085Y020962D01*
X003011Y021108D02*
X003275Y021372D01*
X003275Y021548D01*
X002835Y021548D01*
X002835Y021108D01*
X003011Y021108D01*
X003024Y021121D02*
X003597Y021121D01*
X003630Y021088D02*
X004019Y021088D01*
X004295Y021363D01*
X004295Y021753D01*
X004019Y022028D01*
X003630Y022028D01*
X003355Y021753D01*
X003355Y021363D01*
X003630Y021088D01*
X003439Y021279D02*
X003182Y021279D01*
X003275Y021438D02*
X003355Y021438D01*
X003355Y021596D02*
X003275Y021596D01*
X003264Y021755D02*
X003357Y021755D01*
X003515Y021913D02*
X003106Y021913D01*
X002835Y021913D02*
X002815Y021913D01*
X002815Y021755D02*
X002835Y021755D01*
X002835Y021596D02*
X002815Y021596D01*
X002815Y021438D02*
X002835Y021438D01*
X002835Y021279D02*
X002815Y021279D01*
X002815Y021121D02*
X002835Y021121D01*
X002625Y021121D02*
X002564Y021121D01*
X002564Y020962D02*
X002564Y020962D01*
X003243Y020804D02*
X003434Y020804D01*
X003375Y020645D02*
X003295Y020645D01*
X003295Y020487D02*
X003375Y020487D01*
X003418Y020328D02*
X003260Y020328D01*
X003101Y020170D02*
X003576Y020170D01*
X003613Y020011D02*
X003036Y020011D01*
X003194Y019853D02*
X003455Y019853D01*
X003355Y019694D02*
X003295Y019694D01*
X003295Y019536D02*
X003355Y019536D01*
X003355Y019377D02*
X003295Y019377D01*
X003150Y019219D02*
X003499Y019219D01*
X003630Y019028D02*
X003355Y018753D01*
X003355Y018363D01*
X003630Y018088D01*
X004019Y018088D01*
X004295Y018363D01*
X004295Y018753D01*
X004019Y019028D01*
X003630Y019028D01*
X003504Y018902D02*
X003145Y018902D01*
X003295Y018743D02*
X003355Y018743D01*
X003355Y018585D02*
X003295Y018585D01*
X003295Y018426D02*
X003355Y018426D01*
X003450Y018268D02*
X003199Y018268D01*
X003041Y018109D02*
X003609Y018109D01*
X003630Y018028D02*
X003355Y017753D01*
X003355Y017363D01*
X003630Y017088D01*
X004019Y017088D01*
X004295Y017363D01*
X004295Y017753D01*
X004019Y018028D01*
X003630Y018028D01*
X003553Y017951D02*
X003096Y017951D01*
X003255Y017792D02*
X003394Y017792D01*
X003355Y017634D02*
X003295Y017634D01*
X003295Y017475D02*
X003355Y017475D01*
X003401Y017317D02*
X003248Y017317D01*
X003090Y017158D02*
X003560Y017158D01*
X003630Y017000D02*
X003047Y017000D01*
X003206Y016841D02*
X003472Y016841D01*
X003375Y016683D02*
X003295Y016683D01*
X003295Y016524D02*
X003375Y016524D01*
X003380Y016366D02*
X003295Y016366D01*
X002564Y016049D02*
X005032Y016049D01*
X005014Y016023D02*
X004984Y015965D01*
X004964Y015903D01*
X004953Y015838D01*
X004953Y015569D01*
X004953Y015300D01*
X004964Y015235D01*
X004984Y015173D01*
X005014Y015115D01*
X005052Y015062D01*
X005098Y015015D01*
X005151Y014977D01*
X005210Y014947D01*
X005272Y014927D01*
X005337Y014917D01*
X005370Y014917D01*
X005402Y014917D01*
X005467Y014927D01*
X005529Y014947D01*
X005588Y014977D01*
X005641Y015015D01*
X005687Y015062D01*
X005726Y015115D01*
X005755Y015173D01*
X005776Y015235D01*
X005786Y015300D01*
X005786Y015569D01*
X005370Y015569D01*
X005370Y015569D01*
X005786Y015569D01*
X005786Y015838D01*
X005776Y015903D01*
X005755Y015965D01*
X005726Y016023D01*
X005687Y016076D01*
X005641Y016123D01*
X005588Y016161D01*
X005529Y016191D01*
X005467Y016211D01*
X005402Y016222D01*
X005370Y016222D01*
X005370Y015569D01*
X005370Y014917D01*
X005370Y015569D01*
X005370Y015569D01*
X005370Y015569D01*
X005370Y016222D01*
X005337Y016222D01*
X005272Y016211D01*
X005210Y016191D01*
X005151Y016161D01*
X005098Y016123D01*
X005052Y016076D01*
X005014Y016023D01*
X004962Y015890D02*
X004157Y015890D01*
X004295Y015732D02*
X004953Y015732D01*
X004953Y015573D02*
X004295Y015573D01*
X004295Y015415D02*
X004953Y015415D01*
X004953Y015569D02*
X005370Y015569D01*
X005370Y015569D01*
X004953Y015569D01*
X004960Y015256D02*
X004188Y015256D01*
X004029Y015098D02*
X005026Y015098D01*
X005233Y014939D02*
X004108Y014939D01*
X004266Y014781D02*
X008766Y014781D01*
X008766Y014939D02*
X005506Y014939D01*
X005370Y014939D02*
X005370Y014939D01*
X005370Y015098D02*
X005370Y015098D01*
X005370Y015256D02*
X005370Y015256D01*
X005370Y015415D02*
X005370Y015415D01*
X005370Y015573D02*
X005370Y015573D01*
X005370Y015732D02*
X005370Y015732D01*
X005370Y015890D02*
X005370Y015890D01*
X005370Y016049D02*
X005370Y016049D01*
X005370Y016207D02*
X005370Y016207D01*
X005479Y016207D02*
X008791Y016207D01*
X008786Y016049D02*
X005707Y016049D01*
X005777Y015890D02*
X009420Y015890D01*
X009498Y015853D02*
X009301Y016050D01*
X006033Y016050D01*
X005600Y016483D01*
X005128Y016483D01*
X005260Y016207D02*
X004110Y016207D01*
X004090Y017158D02*
X006284Y017158D01*
X006029Y017317D02*
X004248Y017317D01*
X004295Y017475D02*
X005911Y017475D01*
X005881Y017634D02*
X004295Y017634D01*
X004255Y017792D02*
X005919Y017792D01*
X006047Y017951D02*
X004096Y017951D01*
X004041Y018109D02*
X006916Y018109D01*
X006916Y017951D02*
X006492Y017951D01*
X006620Y017792D02*
X006916Y017792D01*
X007023Y018268D02*
X004199Y018268D01*
X004295Y018426D02*
X006996Y018426D01*
X006916Y018585D02*
X004295Y018585D01*
X004295Y018743D02*
X006916Y018743D01*
X006916Y018902D02*
X004145Y018902D01*
X004150Y019219D02*
X007811Y019219D01*
X007811Y019060D02*
X002564Y019060D01*
X002564Y018109D02*
X002609Y018109D01*
X002564Y017000D02*
X002602Y017000D01*
X002564Y015098D02*
X002620Y015098D01*
X002564Y014147D02*
X002571Y014147D01*
X002564Y013988D02*
X002590Y013988D01*
X002564Y013037D02*
X007422Y013037D01*
X007422Y012879D02*
X004168Y012879D01*
X004295Y012720D02*
X007523Y012720D01*
X007422Y013196D02*
X004127Y013196D01*
X004286Y013354D02*
X007422Y013354D01*
X007422Y013513D02*
X007267Y013513D01*
X007280Y013522D02*
X007326Y013569D01*
X007365Y013622D01*
X007395Y013680D01*
X007415Y013742D01*
X007425Y013807D01*
X007425Y013840D01*
X007425Y013873D01*
X007415Y013937D01*
X007395Y014000D01*
X007365Y014058D01*
X007326Y014111D01*
X007280Y014157D01*
X007227Y014196D01*
X007169Y014226D01*
X007106Y014246D01*
X007042Y014256D01*
X006773Y014256D01*
X006773Y013840D01*
X007425Y013840D01*
X006773Y013840D01*
X006773Y013840D01*
X006773Y013840D01*
X006773Y013424D01*
X007042Y013424D01*
X007106Y013434D01*
X007169Y013454D01*
X007227Y013484D01*
X007280Y013522D01*
X007390Y013671D02*
X007422Y013671D01*
X007425Y013830D02*
X008054Y013830D01*
X008047Y013988D02*
X007398Y013988D01*
X007291Y014147D02*
X008109Y014147D01*
X008341Y014305D02*
X004237Y014305D01*
X004295Y014464D02*
X008621Y014464D01*
X008766Y014622D02*
X004295Y014622D01*
X004078Y014147D02*
X006255Y014147D01*
X006265Y014157D02*
X006219Y014111D01*
X006180Y014058D01*
X006151Y014000D01*
X006131Y013937D01*
X006120Y013873D01*
X006120Y013840D01*
X006773Y013840D01*
X006773Y013840D01*
X006773Y014256D01*
X006504Y014256D01*
X006439Y014246D01*
X006377Y014226D01*
X006318Y014196D01*
X006265Y014157D01*
X006147Y013988D02*
X004059Y013988D01*
X004217Y013830D02*
X006120Y013830D01*
X006120Y013840D02*
X006120Y013807D01*
X006131Y013742D01*
X006151Y013680D01*
X006180Y013622D01*
X006219Y013569D01*
X006265Y013522D01*
X006318Y013484D01*
X006377Y013454D01*
X006439Y013434D01*
X006504Y013424D01*
X006773Y013424D01*
X006773Y013840D01*
X006773Y013840D01*
X006120Y013840D01*
X006155Y013671D02*
X004295Y013671D01*
X004295Y013513D02*
X006278Y013513D01*
X006773Y013513D02*
X006773Y013513D01*
X006773Y013671D02*
X006773Y013671D01*
X006773Y013830D02*
X006773Y013830D01*
X006773Y013988D02*
X006773Y013988D01*
X006773Y014147D02*
X006773Y014147D01*
X005713Y015098D02*
X008766Y015098D01*
X008874Y015256D02*
X005779Y015256D01*
X005786Y015415D02*
X008835Y015415D01*
X008786Y015573D02*
X005786Y015573D01*
X005786Y015732D02*
X008786Y015732D01*
X009420Y015732D02*
X009575Y015732D01*
X009575Y015573D02*
X009420Y015573D01*
X009420Y015415D02*
X009575Y015415D01*
X010122Y015256D02*
X010133Y015256D01*
X010229Y014464D02*
X010390Y014464D01*
X010182Y014305D02*
X012992Y014305D01*
X012901Y014147D02*
X009011Y014147D01*
X008853Y013988D02*
X012889Y013988D01*
X012945Y013830D02*
X008816Y013830D01*
X009822Y013671D02*
X011222Y013671D01*
X011222Y013513D02*
X009822Y013513D01*
X009822Y013354D02*
X011222Y013354D01*
X011222Y013196D02*
X009822Y013196D01*
X010021Y013037D02*
X011222Y013037D01*
X011222Y012879D02*
X010160Y012879D01*
X010201Y012720D02*
X011323Y012720D01*
X011866Y012562D02*
X010174Y012562D01*
X010061Y012403D02*
X011926Y012403D01*
X012157Y012245D02*
X004176Y012245D01*
X004295Y012403D02*
X009564Y012403D01*
X009508Y012123D02*
X009463Y012136D01*
X008985Y012136D01*
X008985Y011718D01*
X009619Y011718D01*
X009619Y011979D01*
X009607Y012025D01*
X009583Y012066D01*
X009549Y012100D01*
X009508Y012123D01*
X009563Y012086D02*
X011047Y012086D01*
X011061Y012100D02*
X011027Y012066D01*
X011003Y012025D01*
X010991Y011979D01*
X010991Y011718D01*
X011625Y011718D01*
X011625Y011563D01*
X011780Y011563D01*
X011780Y011146D01*
X012258Y011146D01*
X012304Y011158D01*
X012345Y011182D01*
X012378Y011215D01*
X012402Y011256D01*
X012414Y011302D01*
X012414Y011563D01*
X011780Y011563D01*
X011780Y011718D01*
X012414Y011718D01*
X012414Y011979D01*
X012402Y012025D01*
X012378Y012066D01*
X012345Y012100D01*
X012304Y012123D01*
X012258Y012136D01*
X011780Y012136D01*
X011780Y011718D01*
X011625Y011718D01*
X011625Y012136D01*
X011147Y012136D01*
X011102Y012123D01*
X011061Y012100D01*
X010991Y011928D02*
X009619Y011928D01*
X009619Y011769D02*
X010991Y011769D01*
X010991Y011563D02*
X010991Y011302D01*
X011003Y011256D01*
X011027Y011215D01*
X011061Y011182D01*
X011102Y011158D01*
X011147Y011146D01*
X011625Y011146D01*
X011625Y011563D01*
X010991Y011563D01*
X010991Y011452D02*
X009619Y011452D01*
X009619Y011563D02*
X009619Y011302D01*
X009607Y011256D01*
X009583Y011215D01*
X009549Y011182D01*
X009508Y011158D01*
X009463Y011146D01*
X008985Y011146D01*
X008985Y011563D01*
X008830Y011563D01*
X008830Y011146D01*
X008352Y011146D01*
X008306Y011158D01*
X008265Y011182D01*
X008232Y011215D01*
X008208Y011256D01*
X008196Y011302D01*
X008196Y011563D01*
X008830Y011563D01*
X008830Y011718D01*
X008196Y011718D01*
X008196Y011979D01*
X008208Y012025D01*
X008232Y012066D01*
X008265Y012100D01*
X008306Y012123D01*
X008352Y012136D01*
X008830Y012136D01*
X008830Y011718D01*
X008985Y011718D01*
X008985Y011563D01*
X009619Y011563D01*
X009617Y011294D02*
X010993Y011294D01*
X011012Y010977D02*
X009598Y010977D01*
X009639Y010818D02*
X010971Y010818D01*
X010971Y010660D02*
X009639Y010660D01*
X008985Y011294D02*
X008830Y011294D01*
X008830Y011452D02*
X008985Y011452D01*
X008985Y011611D02*
X011625Y011611D01*
X011780Y011611D02*
X015247Y011611D01*
X015247Y011563D02*
X015247Y011718D01*
X014613Y011718D01*
X014613Y011979D01*
X014625Y012025D01*
X014649Y012066D01*
X014683Y012100D01*
X014724Y012123D01*
X014769Y012136D01*
X015247Y012136D01*
X015247Y011718D01*
X015402Y011718D01*
X016036Y011718D01*
X016036Y011979D01*
X016024Y012025D01*
X016000Y012066D01*
X015967Y012100D01*
X015926Y012123D01*
X015880Y012136D01*
X015402Y012136D01*
X015402Y011718D01*
X015402Y011563D01*
X015402Y011146D01*
X015880Y011146D01*
X015926Y011158D01*
X015967Y011182D01*
X016000Y011215D01*
X016024Y011256D01*
X016036Y011302D01*
X016036Y011563D01*
X015402Y011563D01*
X015247Y011563D01*
X015247Y011146D01*
X014769Y011146D01*
X014724Y011158D01*
X014683Y011182D01*
X014649Y011215D01*
X014625Y011256D01*
X014613Y011302D01*
X014613Y011563D01*
X015247Y011563D01*
X015247Y011452D02*
X015402Y011452D01*
X015402Y011294D02*
X015247Y011294D01*
X015402Y011611D02*
X016375Y011611D01*
X016375Y011568D02*
X016815Y011568D01*
X016815Y012008D01*
X016638Y012008D01*
X016375Y011744D01*
X016375Y011568D01*
X016375Y011548D02*
X016375Y011372D01*
X016638Y011108D01*
X016815Y011108D01*
X016815Y011548D01*
X016835Y011548D01*
X016835Y011568D01*
X017275Y011568D01*
X017275Y011744D01*
X017011Y012008D01*
X016835Y012008D01*
X016835Y011568D01*
X016815Y011568D01*
X016815Y011548D01*
X016375Y011548D01*
X016375Y011452D02*
X016036Y011452D01*
X016034Y011294D02*
X016452Y011294D01*
X016611Y011135D02*
X014610Y011135D01*
X014615Y011294D02*
X014590Y011294D01*
X014613Y011452D02*
X014487Y011452D01*
X014613Y011769D02*
X012414Y011769D01*
X012414Y011928D02*
X014613Y011928D01*
X014669Y012086D02*
X012358Y012086D01*
X012351Y012245D02*
X016473Y012245D01*
X016355Y012363D02*
X016630Y012088D01*
X017019Y012088D01*
X017295Y012363D01*
X017295Y012753D01*
X017019Y013028D01*
X016630Y013028D01*
X016355Y012753D01*
X016355Y012363D01*
X016355Y012403D02*
X012581Y012403D01*
X012642Y012562D02*
X016355Y012562D01*
X016355Y012720D02*
X013520Y012720D01*
X013622Y012879D02*
X014663Y012879D01*
X014653Y013037D02*
X013622Y013037D01*
X013622Y013196D02*
X015287Y013196D01*
X015442Y013196D02*
X016522Y013196D01*
X016630Y013088D02*
X016355Y013363D01*
X016355Y013753D01*
X016630Y014028D01*
X017019Y014028D01*
X017295Y013753D01*
X017295Y013363D01*
X017019Y013088D01*
X016630Y013088D01*
X016481Y012879D02*
X016066Y012879D01*
X016076Y013037D02*
X018086Y013037D01*
X017522Y013196D02*
X017127Y013196D01*
X017286Y013354D02*
X017364Y013354D01*
X017355Y013513D02*
X017295Y013513D01*
X017295Y013671D02*
X017355Y013671D01*
X017432Y013830D02*
X017217Y013830D01*
X017059Y013988D02*
X017590Y013988D01*
X017571Y014147D02*
X017078Y014147D01*
X017237Y014305D02*
X017413Y014305D01*
X017355Y014464D02*
X017295Y014464D01*
X017295Y014622D02*
X017355Y014622D01*
X017383Y014781D02*
X017266Y014781D01*
X017108Y014939D02*
X017541Y014939D01*
X017620Y015098D02*
X017029Y015098D01*
X017188Y015256D02*
X017462Y015256D01*
X017355Y015415D02*
X017295Y015415D01*
X017295Y015573D02*
X017355Y015573D01*
X017355Y015732D02*
X017295Y015732D01*
X017157Y015890D02*
X017492Y015890D01*
X017511Y016207D02*
X017139Y016207D01*
X017295Y016366D02*
X017355Y016366D01*
X017355Y016524D02*
X017295Y016524D01*
X017295Y016683D02*
X017355Y016683D01*
X017443Y016841D02*
X017206Y016841D01*
X017047Y017000D02*
X017602Y017000D01*
X017560Y017158D02*
X017090Y017158D01*
X017248Y017317D02*
X017401Y017317D01*
X017355Y017475D02*
X017295Y017475D01*
X017295Y017634D02*
X017355Y017634D01*
X017394Y017792D02*
X017255Y017792D01*
X017096Y017951D02*
X017553Y017951D01*
X017609Y018109D02*
X017041Y018109D01*
X017019Y018088D02*
X017295Y018363D01*
X017295Y018753D01*
X017019Y019028D01*
X016630Y019028D01*
X016355Y018753D01*
X016355Y018363D01*
X016630Y018088D01*
X017019Y018088D01*
X017199Y018268D02*
X017450Y018268D01*
X017355Y018426D02*
X017295Y018426D01*
X017295Y018585D02*
X017355Y018585D01*
X017355Y018743D02*
X017295Y018743D01*
X017145Y018902D02*
X017504Y018902D01*
X017499Y019219D02*
X017150Y019219D01*
X017295Y019377D02*
X017355Y019377D01*
X017355Y019536D02*
X017295Y019536D01*
X017295Y019694D02*
X017355Y019694D01*
X017455Y019853D02*
X017194Y019853D01*
X017036Y020011D02*
X017613Y020011D01*
X017548Y020170D02*
X017101Y020170D01*
X017260Y020328D02*
X017390Y020328D01*
X017355Y020487D02*
X017295Y020487D01*
X017295Y020645D02*
X017355Y020645D01*
X017317Y021050D02*
X017825Y021558D01*
X017515Y021913D02*
X017106Y021913D01*
X017264Y021755D02*
X017357Y021755D01*
X017355Y021596D02*
X017275Y021596D01*
X017275Y021438D02*
X017309Y021438D01*
X017317Y021050D02*
X011073Y021050D01*
X010770Y020804D02*
X009118Y020804D01*
X009118Y020962D02*
X010689Y020962D01*
X010685Y021121D02*
X009118Y021121D01*
X009118Y021279D02*
X010753Y021279D01*
X010995Y021438D02*
X009118Y021438D01*
X009580Y021596D02*
X016375Y021596D01*
X016375Y021438D02*
X011151Y021438D01*
X010561Y021523D02*
X010049Y021011D01*
X010049Y020420D01*
X010561Y021523D02*
X014498Y021523D01*
X016789Y021523D01*
X016825Y021558D01*
X016815Y021596D02*
X016835Y021596D01*
X016835Y021755D02*
X016815Y021755D01*
X016815Y021913D02*
X016835Y021913D01*
X016712Y022230D02*
X015460Y022230D01*
X015460Y022095D02*
X015460Y022378D01*
X014705Y022378D01*
X014705Y021623D01*
X014989Y021623D01*
X015460Y022095D01*
X015438Y022072D02*
X018086Y022072D01*
X018086Y022230D02*
X017563Y022230D01*
X017664Y022383D02*
X017664Y022383D01*
X017671Y022389D02*
X018086Y022389D01*
X018086Y022547D02*
X017767Y022547D01*
X017751Y022706D02*
X017747Y022710D01*
X017743Y022714D01*
X017688Y022769D01*
X017684Y022773D01*
X017680Y022777D01*
X017657Y022800D01*
X017657Y022808D01*
X017653Y022812D01*
X017653Y022828D01*
X017505Y023023D02*
X018086Y023023D01*
X018086Y023181D02*
X017625Y023181D01*
X017531Y023056D02*
X017531Y023056D01*
X017672Y023340D02*
X018086Y023340D01*
X016770Y023023D02*
X015199Y023023D01*
X015040Y023181D02*
X016651Y023181D01*
X016745Y023056D02*
X016745Y023056D01*
X016663Y022864D02*
X015357Y022864D01*
X015460Y022762D02*
X015460Y022478D01*
X014705Y022478D01*
X014605Y022478D01*
X014605Y022378D01*
X013850Y022378D01*
X013850Y022095D01*
X014322Y021623D01*
X014605Y021623D01*
X014605Y022378D01*
X014705Y022378D01*
X014705Y022478D01*
X014705Y023233D01*
X014989Y023233D01*
X015460Y022762D01*
X015460Y022706D02*
X016524Y022706D01*
X016509Y022547D02*
X015460Y022547D01*
X015279Y021913D02*
X016544Y021913D01*
X016385Y021755D02*
X015121Y021755D01*
X014705Y021755D02*
X014605Y021755D01*
X014655Y021680D02*
X014498Y021523D01*
X014655Y021680D02*
X014655Y022428D01*
X014605Y022389D02*
X013512Y022389D01*
X013512Y022547D02*
X013850Y022547D01*
X013850Y022478D02*
X014605Y022478D01*
X014605Y023233D01*
X014322Y023233D01*
X013850Y022762D01*
X013850Y022478D01*
X013850Y022706D02*
X013512Y022706D01*
X013512Y022770D02*
X013029Y023253D01*
X012345Y023253D01*
X011862Y022770D01*
X011862Y022086D01*
X012345Y021603D01*
X013029Y021603D01*
X013512Y022086D01*
X013512Y022770D01*
X013417Y022864D02*
X013953Y022864D01*
X014112Y023023D02*
X013259Y023023D01*
X013100Y023181D02*
X014270Y023181D01*
X014605Y023181D02*
X014705Y023181D01*
X014705Y023023D02*
X014605Y023023D01*
X014605Y022864D02*
X014705Y022864D01*
X014705Y022706D02*
X014605Y022706D01*
X014605Y022547D02*
X014705Y022547D01*
X014705Y022389D02*
X016605Y022389D01*
X016603Y023340D02*
X010945Y023340D01*
X011006Y023181D02*
X012273Y023181D01*
X012115Y023023D02*
X011006Y023023D01*
X011006Y022864D02*
X011956Y022864D01*
X011862Y022706D02*
X011006Y022706D01*
X011006Y022547D02*
X011862Y022547D01*
X011862Y022389D02*
X010941Y022389D01*
X010738Y022230D02*
X011862Y022230D01*
X011876Y022072D02*
X009791Y022072D01*
X009791Y021913D02*
X012035Y021913D01*
X012193Y021755D02*
X009733Y021755D01*
X009727Y022230D02*
X010401Y022230D01*
X010198Y022389D02*
X009544Y022389D01*
X009514Y022547D02*
X009231Y022547D01*
X009245Y022706D02*
X009319Y022706D01*
X009137Y022389D02*
X009072Y022389D01*
X009701Y022547D02*
X009767Y022547D01*
X009767Y022706D02*
X009701Y022706D01*
X009701Y022864D02*
X009767Y022864D01*
X009954Y022547D02*
X010133Y022547D01*
X010176Y023295D02*
X010130Y023357D01*
X010110Y023378D01*
X010225Y023378D01*
X010200Y023352D01*
X010176Y023295D01*
X010195Y023340D02*
X010143Y023340D01*
X009359Y023378D02*
X009338Y023357D01*
X009290Y023291D01*
X009253Y023218D01*
X009245Y023195D01*
X009245Y023378D01*
X009359Y023378D01*
X009325Y023340D02*
X009245Y023340D01*
X007844Y022389D02*
X007844Y022389D01*
X007679Y022389D02*
X007576Y022389D01*
X007478Y022547D02*
X007198Y022547D01*
X007168Y022389D02*
X005707Y022389D01*
X005777Y022547D02*
X006759Y022547D01*
X006945Y022547D02*
X007011Y022547D01*
X007011Y022706D02*
X006945Y022706D01*
X006945Y022864D02*
X007011Y022864D01*
X006945Y023023D02*
X005786Y023023D01*
X005786Y022864D02*
X006482Y022864D01*
X006563Y022706D02*
X005786Y022706D01*
X005370Y022706D02*
X005370Y022706D01*
X005370Y022864D02*
X005370Y022864D01*
X005370Y022869D02*
X005370Y022217D01*
X005370Y022869D01*
X005370Y022869D01*
X004953Y022869D01*
X005370Y022869D01*
X005370Y022869D01*
X005370Y022547D02*
X005370Y022547D01*
X005370Y022389D02*
X005370Y022389D01*
X005370Y022230D02*
X005370Y022230D01*
X005478Y022230D02*
X006985Y022230D01*
X006921Y022072D02*
X002564Y022072D01*
X002564Y022230D02*
X005261Y022230D01*
X005032Y022389D02*
X002564Y022389D01*
X002564Y022547D02*
X004962Y022547D01*
X004953Y022706D02*
X002564Y022706D01*
X002564Y022864D02*
X004953Y022864D01*
X004953Y023023D02*
X002564Y023023D01*
X002564Y023181D02*
X004960Y023181D01*
X005026Y023340D02*
X002564Y023340D01*
X004134Y021913D02*
X006921Y021913D01*
X006979Y021755D02*
X004292Y021755D01*
X004295Y021596D02*
X007132Y021596D01*
X007612Y021596D02*
X007617Y021596D01*
X008106Y021438D02*
X004295Y021438D01*
X004211Y021279D02*
X008106Y021279D01*
X008106Y021121D02*
X004052Y021121D01*
X004057Y020962D02*
X008106Y020962D01*
X008106Y020804D02*
X004215Y020804D01*
X004194Y019853D02*
X007575Y019853D01*
X007575Y019694D02*
X004295Y019694D01*
X004295Y019536D02*
X007575Y019536D01*
X007667Y019377D02*
X004295Y019377D01*
X002613Y020011D02*
X002564Y020011D01*
X005779Y023181D02*
X006485Y023181D01*
X006569Y023340D02*
X005714Y023340D01*
X007354Y023378D02*
X007375Y023357D01*
X007423Y023291D01*
X007460Y023218D01*
X007467Y023195D01*
X007467Y023378D01*
X007354Y023378D01*
X007387Y023340D02*
X007467Y023340D01*
X007467Y022706D02*
X007393Y022706D01*
X008311Y019186D02*
X008331Y019186D01*
X008344Y019173D01*
X008322Y019120D01*
X008322Y018965D01*
X008311Y018977D01*
X008311Y019186D01*
X008311Y019060D02*
X008322Y019060D01*
X008379Y018828D02*
X008379Y018702D01*
X008518Y018702D01*
X008491Y018713D01*
X008381Y018822D01*
X008379Y018828D01*
X008379Y018743D02*
X008460Y018743D01*
X008359Y018109D02*
X008817Y018109D01*
X008795Y017951D02*
X008359Y017951D01*
X008352Y017792D02*
X008840Y017792D01*
X007844Y016524D02*
X010286Y016524D01*
X010205Y016207D02*
X010401Y016207D01*
X010739Y016207D02*
X011660Y016207D01*
X011716Y016049D02*
X010941Y016049D01*
X011006Y015890D02*
X011660Y015890D01*
X011503Y015732D02*
X011006Y015732D01*
X011006Y015573D02*
X011345Y015573D01*
X011186Y015415D02*
X011006Y015415D01*
X011461Y014939D02*
X014429Y014939D01*
X014425Y015098D02*
X011576Y015098D01*
X011424Y014781D02*
X014510Y014781D01*
X014633Y014622D02*
X011296Y014622D01*
X010653Y014464D02*
X013346Y014464D01*
X014073Y013830D02*
X014073Y013830D01*
X014073Y013671D02*
X014073Y013671D01*
X014073Y013513D02*
X014073Y013513D01*
X014567Y013513D02*
X014653Y013513D01*
X014653Y013354D02*
X013622Y013354D01*
X014725Y013830D02*
X016432Y013830D01*
X016355Y013671D02*
X016045Y013671D01*
X016076Y013513D02*
X016355Y013513D01*
X016364Y013354D02*
X016076Y013354D01*
X016096Y013988D02*
X016590Y013988D01*
X016571Y014147D02*
X016096Y014147D01*
X016096Y014305D02*
X016413Y014305D01*
X016355Y014464D02*
X016096Y014464D01*
X016096Y014622D02*
X016355Y014622D01*
X016355Y015415D02*
X015682Y015415D01*
X015682Y015573D02*
X016355Y015573D01*
X016355Y015732D02*
X015682Y015732D01*
X015682Y015890D02*
X016492Y015890D01*
X016511Y016207D02*
X015682Y016207D01*
X015682Y016366D02*
X016355Y016366D01*
X016355Y016524D02*
X015682Y016524D01*
X015682Y016683D02*
X016355Y016683D01*
X015992Y016841D02*
X015584Y016841D01*
X015496Y017000D02*
X015896Y017000D01*
X015772Y017158D02*
X015436Y017158D01*
X014996Y016892D02*
X014996Y016860D01*
X014927Y016860D01*
X014852Y016786D01*
X014821Y016817D01*
X014847Y016879D01*
X014847Y017033D01*
X014841Y017046D01*
X014996Y016892D01*
X014908Y016841D02*
X014831Y016841D01*
X014847Y017000D02*
X014887Y017000D01*
X014987Y017951D02*
X016553Y017951D01*
X016609Y018109D02*
X015055Y018109D01*
X015062Y018268D02*
X016450Y018268D01*
X016355Y018426D02*
X015062Y018426D01*
X015062Y018585D02*
X016355Y018585D01*
X016355Y018743D02*
X015062Y018743D01*
X015043Y018902D02*
X016504Y018902D01*
X016499Y019219D02*
X014715Y019219D01*
X014470Y019219D02*
X013715Y019219D01*
X013470Y019219D02*
X012715Y019219D01*
X012470Y019219D02*
X011019Y019219D01*
X011028Y019060D02*
X012227Y019060D01*
X012142Y018902D02*
X011047Y018902D01*
X011047Y018743D02*
X012122Y018743D01*
X012122Y018585D02*
X011047Y018585D01*
X011047Y018426D02*
X012122Y018426D01*
X012122Y018268D02*
X011047Y018268D01*
X011047Y018109D02*
X012130Y018109D01*
X012198Y017951D02*
X011047Y017951D01*
X012099Y017305D02*
X013352Y017305D01*
X013351Y017304D01*
X013240Y017304D01*
X013097Y017245D01*
X012988Y017136D01*
X012943Y017028D01*
X012898Y017136D01*
X012789Y017245D01*
X012646Y017304D01*
X012492Y017304D01*
X012349Y017245D01*
X012240Y017136D01*
X012191Y017018D01*
X012169Y017039D01*
X012169Y017151D01*
X012110Y017294D01*
X012099Y017305D01*
X012166Y017158D02*
X012262Y017158D01*
X012876Y017158D02*
X013010Y017158D01*
X012987Y017951D02*
X013198Y017951D01*
X013130Y018109D02*
X013055Y018109D01*
X013062Y018268D02*
X013122Y018268D01*
X013122Y018426D02*
X013062Y018426D01*
X013062Y018585D02*
X013122Y018585D01*
X013122Y018743D02*
X013062Y018743D01*
X013043Y018902D02*
X013142Y018902D01*
X013227Y019060D02*
X012958Y019060D01*
X013958Y019060D02*
X014227Y019060D01*
X014142Y018902D02*
X014043Y018902D01*
X014062Y018743D02*
X014122Y018743D01*
X014122Y018585D02*
X014062Y018585D01*
X014062Y018426D02*
X014122Y018426D01*
X014122Y018268D02*
X014062Y018268D01*
X014055Y018109D02*
X014130Y018109D01*
X014198Y017951D02*
X013987Y017951D01*
X013921Y017060D02*
X014082Y017060D01*
X014070Y017033D01*
X014070Y016879D01*
X014096Y016817D01*
X014065Y016786D01*
X013990Y016860D01*
X013921Y016860D01*
X013921Y017060D01*
X013921Y017000D02*
X014070Y017000D01*
X014086Y016841D02*
X014009Y016841D01*
X014065Y016063D02*
X014013Y016011D01*
X014065Y015959D01*
X014117Y016011D01*
X014065Y016063D01*
X014051Y016049D02*
X014078Y016049D01*
X014800Y016011D02*
X014852Y015959D01*
X014904Y016011D01*
X014852Y016063D01*
X014800Y016011D01*
X014839Y016049D02*
X014866Y016049D01*
X015626Y016049D02*
X018086Y016049D01*
X018047Y017000D02*
X018086Y017000D01*
X018041Y018109D02*
X018086Y018109D01*
X018086Y019060D02*
X014958Y019060D01*
X016043Y017792D02*
X016394Y017792D01*
X016355Y017634D02*
X016201Y017634D01*
X016355Y019377D02*
X010932Y019377D01*
X013180Y021755D02*
X014190Y021755D01*
X014032Y021913D02*
X013339Y021913D01*
X013497Y022072D02*
X013873Y022072D01*
X013850Y022230D02*
X013512Y022230D01*
X014605Y022230D02*
X014705Y022230D01*
X014705Y022072D02*
X014605Y022072D01*
X014605Y021913D02*
X014705Y021913D01*
X017691Y021028D02*
X017751Y021088D01*
X018019Y021088D01*
X018086Y021154D01*
X018086Y020962D01*
X018019Y021028D01*
X017691Y021028D01*
X018052Y021121D02*
X018086Y021121D01*
X018085Y020962D02*
X018086Y020962D01*
X018086Y020011D02*
X018036Y020011D01*
X018029Y015098D02*
X018086Y015098D01*
X018078Y014147D02*
X018086Y014147D01*
X018086Y013988D02*
X018059Y013988D01*
X017481Y012879D02*
X017168Y012879D01*
X017295Y012720D02*
X017355Y012720D01*
X017355Y012562D02*
X017295Y012562D01*
X017295Y012403D02*
X017355Y012403D01*
X017473Y012245D02*
X017176Y012245D01*
X017091Y011928D02*
X017530Y011928D01*
X017371Y011769D02*
X017250Y011769D01*
X017275Y011611D02*
X017355Y011611D01*
X017275Y011548D02*
X016835Y011548D01*
X016835Y011108D01*
X017011Y011108D01*
X017275Y011372D01*
X017275Y011548D01*
X017275Y011452D02*
X017355Y011452D01*
X017424Y011294D02*
X017197Y011294D01*
X017038Y011135D02*
X017583Y011135D01*
X017579Y010977D02*
X017070Y010977D01*
X017229Y010818D02*
X017420Y010818D01*
X017355Y010660D02*
X017295Y010660D01*
X017295Y010501D02*
X017355Y010501D01*
X017375Y010343D02*
X017274Y010343D01*
X017116Y010184D02*
X017534Y010184D01*
X017628Y010026D02*
X017021Y010026D01*
X017019Y010028D02*
X016630Y010028D01*
X016355Y009753D01*
X016355Y009363D01*
X016630Y009088D01*
X017019Y009088D01*
X017295Y009363D01*
X017295Y009753D01*
X017019Y010028D01*
X017180Y009867D02*
X017469Y009867D01*
X017355Y009709D02*
X017295Y009709D01*
X017295Y009550D02*
X017355Y009550D01*
X017355Y009392D02*
X017295Y009392D01*
X017165Y009233D02*
X017485Y009233D01*
X017518Y008916D02*
X017131Y008916D01*
X017019Y009028D02*
X016630Y009028D01*
X016355Y008753D01*
X016355Y008363D01*
X016630Y008088D01*
X017019Y008088D01*
X017295Y008363D01*
X017295Y008753D01*
X017019Y009028D01*
X017289Y008758D02*
X017360Y008758D01*
X017355Y008599D02*
X017295Y008599D01*
X017295Y008441D02*
X017355Y008441D01*
X017436Y008282D02*
X017214Y008282D01*
X017055Y008124D02*
X017594Y008124D01*
X017567Y007965D02*
X017082Y007965D01*
X017240Y007807D02*
X017409Y007807D01*
X017355Y007648D02*
X017295Y007648D01*
X017295Y007490D02*
X017355Y007490D01*
X017387Y007331D02*
X017263Y007331D01*
X017104Y007173D02*
X017545Y007173D01*
X017616Y007014D02*
X017033Y007014D01*
X017019Y007028D02*
X016630Y007028D01*
X016355Y006753D01*
X016355Y006363D01*
X016630Y006088D01*
X017019Y006088D01*
X017295Y006363D01*
X017295Y006753D01*
X017019Y007028D01*
X017191Y006856D02*
X017458Y006856D01*
X017355Y006697D02*
X017295Y006697D01*
X017295Y006539D02*
X017355Y006539D01*
X017355Y006380D02*
X017295Y006380D01*
X017153Y006222D02*
X017496Y006222D01*
X017507Y005905D02*
X017142Y005905D01*
X017019Y006028D02*
X017295Y005753D01*
X017295Y005363D01*
X017019Y005088D01*
X016630Y005088D01*
X016355Y005363D01*
X016355Y005753D01*
X016630Y006028D01*
X017019Y006028D01*
X017295Y005746D02*
X017355Y005746D01*
X017355Y005588D02*
X017295Y005588D01*
X017295Y005429D02*
X017355Y005429D01*
X017447Y005271D02*
X017202Y005271D01*
X017044Y005112D02*
X017606Y005112D01*
X017556Y004954D02*
X017093Y004954D01*
X017235Y004795D02*
X017397Y004795D01*
X017355Y004637D02*
X017295Y004637D01*
X017295Y004478D02*
X017355Y004478D01*
X017398Y004320D02*
X017235Y004320D01*
X016556Y004954D02*
X016373Y004954D01*
X016274Y005112D02*
X016606Y005112D01*
X016447Y005271D02*
X016067Y005271D01*
X016355Y005429D02*
X015036Y005429D01*
X015053Y005271D02*
X015503Y005271D01*
X015297Y005112D02*
X015140Y005112D01*
X015160Y004971D02*
X014723Y004971D01*
X014723Y004534D01*
X014750Y004534D01*
X014819Y004545D01*
X014886Y004566D01*
X014948Y004598D01*
X015005Y004639D01*
X015054Y004689D01*
X015096Y004746D01*
X015128Y004808D01*
X015149Y004875D01*
X015160Y004944D01*
X015160Y004971D01*
X015160Y004954D02*
X015198Y004954D01*
X015142Y004795D02*
X015121Y004795D01*
X015142Y004637D02*
X015002Y004637D01*
X015178Y004478D02*
X014251Y004478D01*
X014286Y004637D02*
X014427Y004637D01*
X014308Y004795D02*
X014286Y004795D01*
X014269Y004954D02*
X014231Y004954D01*
X014289Y005112D02*
X014132Y005112D01*
X013926Y005271D02*
X014376Y005271D01*
X014393Y005429D02*
X012083Y005429D01*
X012100Y005271D02*
X012550Y005271D01*
X012344Y005112D02*
X012187Y005112D01*
X012207Y004954D02*
X012245Y004954D01*
X012190Y004795D02*
X012168Y004795D01*
X012190Y004637D02*
X012049Y004637D01*
X012225Y004478D02*
X011298Y004478D01*
X011334Y004637D02*
X011475Y004637D01*
X011355Y004795D02*
X011334Y004795D01*
X011316Y004954D02*
X011278Y004954D01*
X011336Y005112D02*
X011180Y005112D01*
X010973Y005271D02*
X011423Y005271D01*
X011440Y005429D02*
X009130Y005429D01*
X009148Y005271D02*
X009598Y005271D01*
X009391Y005112D02*
X009234Y005112D01*
X009255Y004971D02*
X008818Y004971D01*
X008818Y004534D01*
X008844Y004534D01*
X008913Y004545D01*
X008980Y004566D01*
X009043Y004598D01*
X009099Y004639D01*
X009149Y004689D01*
X009190Y004746D01*
X009222Y004808D01*
X009244Y004875D01*
X009255Y004944D01*
X009255Y004971D01*
X009255Y004954D02*
X009292Y004954D01*
X009237Y004795D02*
X009216Y004795D01*
X009237Y004637D02*
X009096Y004637D01*
X009272Y004478D02*
X008346Y004478D01*
X008381Y004637D02*
X008522Y004637D01*
X008402Y004795D02*
X008381Y004795D01*
X008363Y004954D02*
X008325Y004954D01*
X008383Y005112D02*
X008227Y005112D01*
X008020Y005271D02*
X008470Y005271D01*
X008488Y005429D02*
X006178Y005429D01*
X006195Y005271D02*
X006645Y005271D01*
X006438Y005112D02*
X006282Y005112D01*
X006302Y004971D02*
X005865Y004971D01*
X005865Y004534D01*
X005891Y004534D01*
X005961Y004545D01*
X006027Y004566D01*
X006090Y004598D01*
X006147Y004639D01*
X006196Y004689D01*
X006237Y004746D01*
X006269Y004808D01*
X006291Y004875D01*
X006302Y004944D01*
X006302Y004971D01*
X006302Y004954D02*
X006340Y004954D01*
X006284Y004795D02*
X006263Y004795D01*
X006284Y004637D02*
X006143Y004637D01*
X006320Y004478D02*
X005393Y004478D01*
X005428Y004637D02*
X005569Y004637D01*
X005566Y004639D02*
X005623Y004598D01*
X005685Y004566D01*
X005752Y004545D01*
X005821Y004534D01*
X005848Y004534D01*
X005848Y004971D01*
X005410Y004971D01*
X005410Y004944D01*
X005421Y004875D01*
X005443Y004808D01*
X005475Y004746D01*
X005516Y004689D01*
X005566Y004639D01*
X005450Y004795D02*
X005428Y004795D01*
X005410Y004954D02*
X005373Y004954D01*
X005431Y005112D02*
X005274Y005112D01*
X005067Y005271D02*
X005517Y005271D01*
X005535Y005429D02*
X004295Y005429D01*
X004295Y005588D02*
X005426Y005588D01*
X005390Y005746D02*
X004295Y005746D01*
X004142Y005905D02*
X005409Y005905D01*
X005494Y006063D02*
X002564Y006063D01*
X002564Y007014D02*
X002616Y007014D01*
X002564Y007965D02*
X002567Y007965D01*
X002564Y008124D02*
X002594Y008124D01*
X002564Y009075D02*
X004819Y009075D01*
X004790Y008916D02*
X004131Y008916D01*
X004289Y008758D02*
X004790Y008758D01*
X004790Y008599D02*
X004295Y008599D01*
X004295Y008441D02*
X004790Y008441D01*
X004798Y008282D02*
X004214Y008282D01*
X004055Y008124D02*
X005526Y008124D01*
X005536Y007965D02*
X005177Y007965D01*
X005246Y008097D02*
X004695Y008097D01*
X004577Y008216D01*
X004394Y007965D02*
X004082Y007965D01*
X004104Y007173D02*
X004203Y007173D01*
X004309Y007014D02*
X004033Y007014D01*
X004191Y006856D02*
X004534Y006856D01*
X004295Y006697D02*
X005411Y006697D01*
X005390Y006539D02*
X004295Y006539D01*
X004295Y006380D02*
X005424Y006380D01*
X005530Y006222D02*
X004153Y006222D01*
X004202Y005271D02*
X004503Y005271D01*
X004297Y005112D02*
X004044Y005112D01*
X004093Y004954D02*
X004198Y004954D01*
X004250Y004318D02*
X004255Y004313D01*
X004244Y004313D01*
X004250Y004318D01*
X005323Y004320D02*
X006390Y004320D01*
X005865Y004637D02*
X005848Y004637D01*
X005848Y004795D02*
X005865Y004795D01*
X005848Y004954D02*
X005865Y004954D01*
X006286Y005588D02*
X008379Y005588D01*
X008343Y005746D02*
X006322Y005746D01*
X006303Y005905D02*
X008362Y005905D01*
X008447Y006063D02*
X006218Y006063D01*
X006183Y006222D02*
X008482Y006222D01*
X008377Y006380D02*
X006288Y006380D01*
X006322Y006539D02*
X008343Y006539D01*
X008364Y006697D02*
X006301Y006697D01*
X006213Y006856D02*
X006676Y006856D01*
X006451Y007014D02*
X006188Y007014D01*
X006290Y007173D02*
X006345Y007173D01*
X006284Y007525D02*
X006251Y007605D01*
X006176Y007680D01*
X006176Y008192D01*
X006180Y008217D01*
X006253Y008290D01*
X006253Y008307D01*
X006289Y008270D01*
X006450Y008204D01*
X007096Y008204D01*
X007256Y008270D01*
X007379Y008393D01*
X007445Y008553D01*
X007445Y008727D01*
X007379Y008887D01*
X007307Y008959D01*
X007475Y008959D01*
X007593Y009007D01*
X008027Y009442D01*
X008079Y009442D01*
X008176Y009482D01*
X008176Y009333D01*
X008293Y009216D01*
X009522Y009216D01*
X009639Y009333D01*
X009639Y009785D01*
X010124Y009785D01*
X010074Y009735D01*
X010015Y009592D01*
X010015Y009438D01*
X010074Y009295D01*
X010184Y009186D01*
X010326Y009127D01*
X010481Y009127D01*
X010623Y009186D01*
X010732Y009295D01*
X010792Y009438D01*
X010792Y009592D01*
X010732Y009735D01*
X010682Y009785D01*
X011010Y009785D01*
X011010Y009333D01*
X011128Y009216D01*
X012356Y009216D01*
X012473Y009333D01*
X012473Y009825D01*
X012594Y009825D01*
X012594Y009656D01*
X012535Y009513D01*
X012535Y009359D01*
X012594Y009216D01*
X012703Y009107D01*
X012846Y009048D01*
X013000Y009048D01*
X013143Y009107D01*
X013252Y009216D01*
X013284Y009292D01*
X013479Y009097D01*
X013569Y009007D01*
X013582Y009002D01*
X013467Y008887D01*
X013400Y008727D01*
X013400Y008553D01*
X013467Y008393D01*
X013589Y008270D01*
X013750Y008204D01*
X014396Y008204D01*
X014556Y008270D01*
X014593Y008307D01*
X014593Y008271D01*
X014443Y008121D01*
X014394Y008004D01*
X014394Y007680D01*
X014320Y007605D01*
X014286Y007525D01*
X014286Y007576D01*
X014189Y007812D01*
X014008Y007993D01*
X013771Y008091D01*
X013516Y008091D01*
X013279Y007993D01*
X013238Y007952D01*
X013197Y007993D01*
X012960Y008091D01*
X012705Y008091D01*
X012468Y007993D01*
X012288Y007812D01*
X012190Y007576D01*
X012190Y007525D01*
X012157Y007605D01*
X012082Y007680D01*
X012082Y008055D01*
X012356Y008055D01*
X012473Y008172D01*
X012473Y008928D01*
X012356Y009045D01*
X011128Y009045D01*
X011010Y008928D01*
X011010Y008172D01*
X011128Y008055D01*
X011442Y008055D01*
X011442Y007680D01*
X011367Y007605D01*
X011334Y007525D01*
X011334Y007576D01*
X011236Y007812D01*
X011055Y007993D01*
X010819Y008091D01*
X010563Y008091D01*
X010327Y007993D01*
X010285Y007952D01*
X010244Y007993D01*
X010008Y008091D01*
X009752Y008091D01*
X009516Y007993D01*
X009335Y007812D01*
X009237Y007576D01*
X009237Y007525D01*
X009204Y007605D01*
X009129Y007680D01*
X009129Y008055D01*
X009522Y008055D01*
X009639Y008172D01*
X009639Y008928D01*
X009522Y009045D01*
X008293Y009045D01*
X008176Y008928D01*
X008176Y008172D01*
X008293Y008055D01*
X008489Y008055D01*
X008489Y007680D01*
X008414Y007605D01*
X008381Y007525D01*
X008381Y007576D01*
X008283Y007812D01*
X008102Y007993D01*
X007866Y008091D01*
X007610Y008091D01*
X007374Y007993D01*
X007333Y007952D01*
X007291Y007993D01*
X007055Y008091D01*
X006799Y008091D01*
X006563Y007993D01*
X006382Y007812D01*
X006284Y007576D01*
X006284Y007525D01*
X006314Y007648D02*
X006208Y007648D01*
X006176Y007807D02*
X006380Y007807D01*
X006535Y007965D02*
X006176Y007965D01*
X006176Y008124D02*
X008224Y008124D01*
X008176Y008282D02*
X007268Y008282D01*
X007399Y008441D02*
X008176Y008441D01*
X008176Y008599D02*
X007445Y008599D01*
X007432Y008758D02*
X008176Y008758D01*
X008176Y008916D02*
X007349Y008916D01*
X007660Y009075D02*
X012781Y009075D01*
X012587Y009233D02*
X012373Y009233D01*
X012473Y009392D02*
X012535Y009392D01*
X012550Y009550D02*
X012473Y009550D01*
X012473Y009709D02*
X012594Y009709D01*
X012594Y009656D02*
X012594Y009656D01*
X013066Y009075D02*
X013501Y009075D01*
X013479Y009097D02*
X013479Y009097D01*
X013496Y008916D02*
X012473Y008916D01*
X012473Y008758D02*
X013413Y008758D01*
X013400Y008599D02*
X012473Y008599D01*
X012473Y008441D02*
X013447Y008441D01*
X013577Y008282D02*
X012473Y008282D01*
X012425Y008124D02*
X014446Y008124D01*
X014394Y007965D02*
X014035Y007965D01*
X014191Y007807D02*
X014394Y007807D01*
X014363Y007648D02*
X014256Y007648D01*
X014226Y007173D02*
X014280Y007173D01*
X014383Y007014D02*
X014119Y007014D01*
X013895Y006856D02*
X014358Y006856D01*
X014270Y006697D02*
X012206Y006697D01*
X012227Y006539D02*
X014249Y006539D01*
X014282Y006380D02*
X012194Y006380D01*
X012088Y006222D02*
X014388Y006222D01*
X014352Y006063D02*
X012124Y006063D01*
X012209Y005905D02*
X014268Y005905D01*
X014249Y005746D02*
X012227Y005746D01*
X012192Y005588D02*
X014284Y005588D01*
X014706Y004954D02*
X014723Y004954D01*
X014706Y004795D02*
X014723Y004795D01*
X014706Y004637D02*
X014723Y004637D01*
X015248Y004320D02*
X014181Y004320D01*
X013361Y005271D02*
X013115Y005271D01*
X012295Y004320D02*
X011228Y004320D01*
X011753Y004637D02*
X011770Y004637D01*
X011753Y004795D02*
X011770Y004795D01*
X011753Y004954D02*
X011770Y004954D01*
X011753Y005112D02*
X011770Y005112D01*
X011753Y005271D02*
X011770Y005271D01*
X011332Y005588D02*
X009239Y005588D01*
X009275Y005746D02*
X011296Y005746D01*
X011315Y005905D02*
X009256Y005905D01*
X009171Y006063D02*
X011400Y006063D01*
X011435Y006222D02*
X009135Y006222D01*
X009241Y006380D02*
X011329Y006380D01*
X011296Y006539D02*
X009275Y006539D01*
X009254Y006697D02*
X011317Y006697D01*
X011405Y006856D02*
X010942Y006856D01*
X011167Y007014D02*
X011430Y007014D01*
X011327Y007173D02*
X011273Y007173D01*
X011304Y007648D02*
X011410Y007648D01*
X011442Y007807D02*
X011238Y007807D01*
X011082Y007965D02*
X011442Y007965D01*
X011059Y008124D02*
X009591Y008124D01*
X009639Y008282D02*
X011010Y008282D01*
X011010Y008441D02*
X009639Y008441D01*
X009639Y008599D02*
X011010Y008599D01*
X011010Y008758D02*
X009639Y008758D01*
X009639Y008916D02*
X011010Y008916D01*
X011111Y009233D02*
X010671Y009233D01*
X010773Y009392D02*
X011010Y009392D01*
X011010Y009550D02*
X010792Y009550D01*
X010743Y009709D02*
X011010Y009709D01*
X010136Y009233D02*
X009539Y009233D01*
X009639Y009392D02*
X010034Y009392D01*
X010015Y009550D02*
X009639Y009550D01*
X009639Y009709D02*
X010064Y009709D01*
X010271Y007965D02*
X010299Y007965D01*
X009488Y007965D02*
X009129Y007965D01*
X009129Y007807D02*
X009333Y007807D01*
X009267Y007648D02*
X009161Y007648D01*
X009243Y007173D02*
X009298Y007173D01*
X009404Y007014D02*
X009141Y007014D01*
X009166Y006856D02*
X009629Y006856D01*
X010131Y006856D02*
X010440Y006856D01*
X010409Y005271D02*
X010162Y005271D01*
X009343Y004320D02*
X008275Y004320D01*
X008800Y004637D02*
X008818Y004637D01*
X008818Y004795D02*
X008800Y004795D01*
X008800Y004954D02*
X008818Y004954D01*
X007456Y005271D02*
X007209Y005271D01*
X007178Y006856D02*
X007487Y006856D01*
X007989Y006856D02*
X008452Y006856D01*
X008477Y007014D02*
X008214Y007014D01*
X008320Y007173D02*
X008375Y007173D01*
X008351Y007648D02*
X008457Y007648D01*
X008489Y007807D02*
X008285Y007807D01*
X008130Y007965D02*
X008489Y007965D01*
X008276Y009233D02*
X007819Y009233D01*
X007977Y009392D02*
X008176Y009392D01*
X007654Y010026D02*
X007495Y010026D01*
X007495Y010184D02*
X007808Y010184D01*
X007967Y010343D02*
X007495Y010343D01*
X007495Y010501D02*
X008176Y010501D01*
X008176Y010660D02*
X007495Y010660D01*
X007495Y010818D02*
X008176Y010818D01*
X008217Y010977D02*
X007495Y010977D01*
X007453Y011135D02*
X013834Y011135D01*
X013854Y011294D02*
X012412Y011294D01*
X012414Y011452D02*
X013958Y011452D01*
X013881Y010977D02*
X012393Y010977D01*
X012434Y010818D02*
X013902Y010818D01*
X013902Y010660D02*
X012434Y010660D01*
X012434Y010501D02*
X013902Y010501D01*
X013902Y010343D02*
X013414Y010343D01*
X013431Y010326D02*
X013431Y010326D01*
X013572Y010184D02*
X013902Y010184D01*
X013902Y010026D02*
X013731Y010026D01*
X013734Y010022D02*
X013734Y010022D01*
X013851Y009867D02*
X013883Y009867D01*
X014542Y010026D02*
X014593Y010026D01*
X014593Y010184D02*
X014542Y010184D01*
X014542Y010343D02*
X014593Y010343D01*
X014593Y010501D02*
X014542Y010501D01*
X014542Y010660D02*
X014593Y010660D01*
X014593Y010818D02*
X014542Y010818D01*
X014563Y010977D02*
X014634Y010977D01*
X015247Y011769D02*
X015402Y011769D01*
X015402Y011928D02*
X015247Y011928D01*
X015247Y012086D02*
X015402Y012086D01*
X015980Y012086D02*
X018086Y012086D01*
X018067Y011135D02*
X018086Y011135D01*
X018070Y010977D02*
X018086Y010977D01*
X018086Y010026D02*
X018021Y010026D01*
X018086Y009075D02*
X015141Y009075D01*
X014623Y008959D02*
X014615Y008950D01*
X014607Y008959D01*
X014623Y008959D01*
X014593Y008282D02*
X014568Y008282D01*
X015034Y007807D02*
X015282Y008055D01*
X015571Y008055D01*
X015421Y007993D01*
X015240Y007812D01*
X015142Y007576D01*
X015142Y007525D01*
X015109Y007605D01*
X015034Y007680D01*
X015034Y007807D01*
X015238Y007807D01*
X015192Y007965D02*
X015394Y007965D01*
X015173Y007648D02*
X015066Y007648D01*
X015149Y007173D02*
X015203Y007173D01*
X015309Y007014D02*
X015046Y007014D01*
X015071Y006856D02*
X015534Y006856D01*
X015159Y006697D02*
X016355Y006697D01*
X016355Y006539D02*
X015180Y006539D01*
X015147Y006380D02*
X016355Y006380D01*
X016496Y006222D02*
X015041Y006222D01*
X015076Y006063D02*
X018086Y006063D01*
X018044Y005112D02*
X018086Y005112D01*
X016507Y005905D02*
X015161Y005905D01*
X015180Y005746D02*
X016355Y005746D01*
X016355Y005588D02*
X015145Y005588D01*
X016036Y006856D02*
X016458Y006856D01*
X016616Y007014D02*
X016261Y007014D01*
X016367Y007173D02*
X016545Y007173D01*
X016409Y007807D02*
X016332Y007807D01*
X016177Y007965D02*
X016567Y007965D01*
X016594Y008124D02*
X016008Y008124D01*
X016056Y008282D02*
X016436Y008282D01*
X016355Y008441D02*
X016056Y008441D01*
X016056Y008599D02*
X016355Y008599D01*
X016360Y008758D02*
X016056Y008758D01*
X016056Y008916D02*
X016518Y008916D01*
X016485Y009233D02*
X015956Y009233D01*
X016056Y009392D02*
X016355Y009392D01*
X016355Y009550D02*
X016056Y009550D01*
X016056Y009709D02*
X016355Y009709D01*
X016423Y009867D02*
X016469Y009867D01*
X016522Y010026D02*
X016628Y010026D01*
X016355Y010501D02*
X016304Y010501D01*
X016355Y010660D02*
X016056Y010660D01*
X016056Y010818D02*
X016420Y010818D01*
X016579Y010977D02*
X016015Y010977D01*
X016036Y011769D02*
X016400Y011769D01*
X016558Y011928D02*
X016036Y011928D01*
X016815Y011928D02*
X016835Y011928D01*
X016835Y011769D02*
X016815Y011769D01*
X016815Y011611D02*
X016835Y011611D01*
X016835Y011452D02*
X016815Y011452D01*
X016815Y011294D02*
X016835Y011294D01*
X016835Y011135D02*
X016815Y011135D01*
X015442Y012879D02*
X015287Y012879D01*
X015287Y013037D02*
X015442Y013037D01*
X015442Y013354D02*
X015287Y013354D01*
X015287Y013513D02*
X015442Y013513D01*
X015442Y013671D02*
X015287Y013671D01*
X014633Y014103D02*
X014633Y014107D01*
X014629Y014107D01*
X014633Y014103D01*
X013277Y015959D02*
X013329Y016011D01*
X013277Y016063D01*
X013226Y016011D01*
X013277Y015959D01*
X013264Y016049D02*
X013291Y016049D01*
X012542Y016011D02*
X012490Y015959D01*
X012438Y016011D01*
X012490Y016063D01*
X012542Y016011D01*
X012504Y016049D02*
X012476Y016049D01*
X009575Y016049D02*
X009420Y016049D01*
X009420Y016207D02*
X009575Y016207D01*
X007770Y017792D02*
X007552Y017792D01*
X007552Y017951D02*
X007763Y017951D01*
X007763Y018109D02*
X007552Y018109D01*
X007556Y018268D02*
X007445Y018268D01*
X007630Y018902D02*
X007743Y018902D01*
X009207Y012562D02*
X004295Y012562D01*
X004846Y012066D02*
X004822Y012025D01*
X004810Y011979D01*
X004810Y011718D01*
X005444Y011718D01*
X005444Y011563D01*
X005599Y011563D01*
X005599Y011146D01*
X006077Y011146D01*
X006122Y011158D01*
X006164Y011182D01*
X006197Y011215D01*
X006221Y011256D01*
X006233Y011302D01*
X006233Y011563D01*
X005599Y011563D01*
X005599Y011718D01*
X006233Y011718D01*
X006233Y011979D01*
X006221Y012025D01*
X006197Y012066D01*
X006164Y012100D01*
X006122Y012123D01*
X006077Y012136D01*
X005599Y012136D01*
X005599Y011718D01*
X005444Y011718D01*
X005444Y012136D01*
X004966Y012136D01*
X004921Y012123D01*
X004880Y012100D01*
X004846Y012066D01*
X004866Y012086D02*
X002564Y012086D01*
X002564Y011135D02*
X002583Y011135D01*
X002579Y010977D02*
X002564Y010977D01*
X002564Y010026D02*
X002628Y010026D01*
X004021Y010026D02*
X004790Y010026D01*
X004790Y010184D02*
X004116Y010184D01*
X004274Y010343D02*
X004790Y010343D01*
X004790Y010501D02*
X004295Y010501D01*
X004295Y010660D02*
X004790Y010660D01*
X004790Y010818D02*
X004229Y010818D01*
X004070Y010977D02*
X004831Y010977D01*
X004921Y011158D02*
X004966Y011146D01*
X005444Y011146D01*
X005444Y011563D01*
X004810Y011563D01*
X004810Y011302D01*
X004822Y011256D01*
X004846Y011215D01*
X004880Y011182D01*
X004921Y011158D01*
X004812Y011294D02*
X004225Y011294D01*
X004295Y011452D02*
X004810Y011452D01*
X004810Y011769D02*
X004278Y011769D01*
X004295Y011611D02*
X005444Y011611D01*
X005599Y011611D02*
X006407Y011611D01*
X006354Y011452D02*
X006233Y011452D01*
X006231Y011294D02*
X006368Y011294D01*
X006082Y011135D02*
X004067Y011135D01*
X004119Y011928D02*
X004810Y011928D01*
X005444Y011928D02*
X005599Y011928D01*
X005599Y012086D02*
X005444Y012086D01*
X005444Y011769D02*
X005599Y011769D01*
X005599Y011452D02*
X005444Y011452D01*
X005444Y011294D02*
X005599Y011294D01*
X006233Y011769D02*
X006609Y011769D01*
X006233Y011928D02*
X008196Y011928D01*
X008196Y011769D02*
X006875Y011769D01*
X007077Y011611D02*
X008830Y011611D01*
X008830Y011769D02*
X008985Y011769D01*
X008985Y011928D02*
X008830Y011928D01*
X008830Y012086D02*
X008985Y012086D01*
X008252Y012086D02*
X006177Y012086D01*
X006641Y011026D02*
X006665Y011016D01*
X006678Y011016D01*
X006855Y010839D01*
X006855Y010019D01*
X006846Y010010D01*
X006787Y009868D01*
X006787Y009844D01*
X006253Y010378D01*
X006253Y010405D01*
X006274Y010426D01*
X006386Y010426D01*
X006529Y010485D01*
X006638Y010594D01*
X006697Y010737D01*
X006697Y010891D01*
X006641Y011026D01*
X006661Y010977D02*
X006717Y010977D01*
X006697Y010818D02*
X006855Y010818D01*
X006855Y010660D02*
X006665Y010660D01*
X006545Y010501D02*
X006855Y010501D01*
X006855Y010343D02*
X006288Y010343D01*
X006446Y010184D02*
X006855Y010184D01*
X006855Y010026D02*
X006605Y010026D01*
X006763Y009867D02*
X006787Y009867D01*
X006334Y009392D02*
X006193Y009392D01*
X006224Y009075D02*
X006447Y009075D01*
X006492Y009233D02*
X004165Y009233D01*
X004295Y009392D02*
X004850Y009392D01*
X004790Y009550D02*
X004295Y009550D01*
X004295Y009709D02*
X004790Y009709D01*
X004790Y009867D02*
X004180Y009867D01*
X005246Y008097D02*
X005403Y007940D01*
X005403Y006877D01*
X005499Y006856D02*
X005036Y006856D01*
X005261Y007014D02*
X005525Y007014D01*
X005422Y007173D02*
X005367Y007173D01*
X005398Y007648D02*
X005504Y007648D01*
X005536Y007807D02*
X005332Y007807D01*
X006245Y008282D02*
X006277Y008282D01*
X007319Y007965D02*
X007346Y007965D01*
X007356Y011243D02*
X007356Y011243D01*
X007305Y011294D02*
X008198Y011294D01*
X008196Y011452D02*
X007147Y011452D01*
X011625Y011452D02*
X011780Y011452D01*
X011780Y011294D02*
X011625Y011294D01*
X011625Y011769D02*
X011780Y011769D01*
X011780Y011928D02*
X011625Y011928D01*
X011625Y012086D02*
X011780Y012086D01*
X013259Y009233D02*
X013342Y009233D01*
X013252Y007965D02*
X013224Y007965D01*
X012441Y007965D02*
X012082Y007965D01*
X012082Y007807D02*
X012285Y007807D01*
X012220Y007648D02*
X012113Y007648D01*
X012196Y007173D02*
X012251Y007173D01*
X012357Y007014D02*
X012093Y007014D01*
X012119Y006856D02*
X012581Y006856D01*
X013084Y006856D02*
X013392Y006856D01*
X014562Y009867D02*
X014593Y009867D01*
X018055Y008124D02*
X018086Y008124D01*
X018082Y007965D02*
X018086Y007965D01*
X018086Y007014D02*
X018033Y007014D01*
X016371Y004426D02*
X016330Y004328D01*
X016316Y004313D01*
X016417Y004313D01*
X016371Y004426D01*
X016415Y004320D02*
X016323Y004320D01*
D11*
X016825Y004558D03*
X002825Y004558D03*
D12*
X002825Y005558D03*
X002825Y006558D03*
X002825Y007558D03*
X002825Y008558D03*
X002825Y009558D03*
X002825Y010558D03*
X002825Y011558D03*
X003825Y011558D03*
X003825Y010558D03*
X003825Y009558D03*
X003825Y008558D03*
X003825Y007558D03*
X003825Y006558D03*
X003825Y005558D03*
X003825Y004558D03*
X003825Y012558D03*
X003825Y013558D03*
X003825Y014558D03*
X003825Y015558D03*
X003825Y016558D03*
X003825Y017558D03*
X003825Y018558D03*
X003825Y019558D03*
X003825Y020558D03*
X003825Y021558D03*
X002825Y021558D03*
X002825Y020558D03*
X002825Y019558D03*
X002825Y018558D03*
X002825Y017558D03*
X002825Y016558D03*
X002825Y015558D03*
X002825Y014558D03*
X002825Y013558D03*
X002825Y012558D03*
X016825Y012558D03*
X016825Y013558D03*
X016825Y014558D03*
X016825Y015558D03*
X016825Y016558D03*
X016825Y017558D03*
X016825Y018558D03*
X016825Y019558D03*
X016825Y020558D03*
X016825Y021558D03*
X017825Y021558D03*
X017825Y020558D03*
X017825Y019558D03*
X017825Y018558D03*
X017825Y017558D03*
X017825Y016558D03*
X017825Y015558D03*
X017825Y014558D03*
X017825Y013558D03*
X017825Y012558D03*
X017825Y011558D03*
X017825Y010558D03*
X017825Y009558D03*
X017825Y008558D03*
X017825Y007558D03*
X017825Y006558D03*
X017825Y005558D03*
X017825Y004558D03*
X016825Y005558D03*
X016825Y006558D03*
X016825Y007558D03*
X016825Y008558D03*
X016825Y009558D03*
X016825Y010558D03*
X016825Y011558D03*
D13*
X014655Y022428D03*
X012687Y022428D03*
D14*
X010570Y022633D02*
X010570Y023105D01*
X005370Y023105D02*
X005370Y022633D01*
X005370Y015805D02*
X005370Y015333D01*
X006536Y013840D02*
X007009Y013840D01*
X010570Y015333D02*
X010570Y015805D01*
X013836Y013840D02*
X014309Y013840D01*
X014309Y008640D02*
X013836Y008640D01*
X007009Y008640D02*
X006536Y008640D01*
D15*
X012592Y018221D02*
X012592Y018761D01*
X013592Y018761D02*
X013592Y018221D01*
X014592Y018221D02*
X014592Y018761D01*
D16*
X015325Y009712D03*
X015325Y008550D03*
X011742Y008550D03*
X011742Y009712D03*
X008907Y009712D03*
X008907Y008550D03*
X005522Y008668D03*
X005522Y009830D03*
D17*
X005522Y010538D03*
X005522Y011641D03*
X008907Y011641D03*
X008907Y010538D03*
X011703Y010538D03*
X011703Y011641D03*
X009498Y014751D03*
X009498Y015853D03*
X015364Y014357D03*
X015364Y013255D03*
X015325Y011641D03*
X015325Y010538D03*
D18*
X015246Y015597D03*
X015246Y016424D03*
X014459Y016424D03*
X014459Y015597D03*
X013671Y015597D03*
X013671Y016424D03*
X012884Y016424D03*
X012884Y015597D03*
X012096Y015597D03*
X012096Y016424D03*
D19*
X008061Y018038D03*
D20*
X008061Y018708D03*
X007234Y018708D03*
X007234Y017960D03*
D21*
X008622Y013255D03*
X012422Y013255D03*
D22*
X011762Y007342D03*
X011762Y006554D03*
X011762Y005767D03*
X011762Y004979D03*
X014714Y004979D03*
X014714Y005767D03*
X014714Y006554D03*
X014714Y007342D03*
X008809Y007342D03*
X008809Y006554D03*
X008809Y005767D03*
X008809Y004979D03*
X005856Y004979D03*
X005856Y005767D03*
X005856Y006554D03*
X005856Y007342D03*
D23*
X006927Y007448D03*
X007738Y007448D03*
X009880Y007448D03*
X010691Y007448D03*
X012833Y007448D03*
X013644Y007448D03*
X015785Y007448D03*
X015785Y004692D03*
X013644Y004692D03*
X012833Y004692D03*
X010691Y004692D03*
X009880Y004692D03*
X007738Y004692D03*
X006927Y004692D03*
X004785Y004692D03*
X004785Y007448D03*
D24*
X007844Y021966D03*
X008100Y021966D03*
X008356Y021966D03*
X008612Y021966D03*
X008868Y021966D03*
D25*
X008750Y023019D03*
X007962Y023015D03*
D26*
X006978Y023019D03*
X009734Y023019D03*
D27*
X009340Y021985D03*
X007372Y021985D03*
D28*
X017138Y022286D03*
X017134Y022790D03*
X017138Y023086D03*
X017138Y023090D03*
D29*
X017138Y022290D03*
D30*
X017138Y022294D03*
X017027Y023275D03*
X017272Y023302D03*
X017272Y023306D03*
D31*
X017161Y022775D03*
X017138Y022298D03*
D32*
X017138Y022302D03*
X017138Y023149D03*
X017138Y023153D03*
X017138Y023405D03*
D33*
X017138Y023160D03*
X017027Y022735D03*
X017138Y022306D03*
D34*
X017138Y022310D03*
X017031Y022731D03*
X017138Y023168D03*
X017138Y023401D03*
D35*
X017031Y022723D03*
X017138Y022314D03*
D36*
X017138Y022318D03*
X017138Y023397D03*
D37*
X017138Y022322D03*
D38*
X017138Y022326D03*
X017138Y023200D03*
X017138Y023393D03*
D39*
X017138Y023204D03*
X017138Y022330D03*
D40*
X017138Y022334D03*
X017138Y023208D03*
X017138Y023212D03*
X017138Y023389D03*
D41*
X017138Y023216D03*
X017138Y022338D03*
D42*
X017138Y022342D03*
X017138Y023219D03*
X017138Y023385D03*
D43*
X017138Y023227D03*
X017138Y023223D03*
X017138Y022345D03*
D44*
X017138Y022349D03*
X017138Y023231D03*
D45*
X017138Y023235D03*
X017138Y023381D03*
X017138Y022357D03*
X017138Y022353D03*
D46*
X017138Y022361D03*
X017138Y023239D03*
X017138Y023243D03*
D47*
X017138Y023247D03*
X017138Y023377D03*
X017138Y022365D03*
D48*
X017138Y022369D03*
X017138Y022373D03*
X017138Y023251D03*
D49*
X017138Y023255D03*
X017138Y023373D03*
X017138Y022377D03*
D50*
X017138Y022381D03*
X017138Y022385D03*
D51*
X017138Y022389D03*
X017138Y023369D03*
D52*
X017138Y022397D03*
X017138Y022393D03*
D53*
X017138Y022401D03*
X017138Y022405D03*
X017138Y023279D03*
D54*
X017138Y023361D03*
X017138Y022412D03*
X017138Y022408D03*
D55*
X017138Y022416D03*
X017138Y022420D03*
D56*
X017138Y022424D03*
X017138Y022428D03*
X017138Y023357D03*
D57*
X017138Y023353D03*
X017138Y022436D03*
X017138Y022432D03*
D58*
X017138Y022440D03*
X017138Y022444D03*
D59*
X017138Y022448D03*
X017138Y022452D03*
X017138Y022456D03*
X017138Y023349D03*
D60*
X017138Y023345D03*
X017138Y023314D03*
X017138Y022464D03*
X017138Y022460D03*
D61*
X017138Y022468D03*
X017138Y022471D03*
X017138Y023318D03*
X017138Y023322D03*
X017138Y023342D03*
D62*
X017138Y023338D03*
X017138Y023326D03*
X017134Y022704D03*
X017138Y022483D03*
X017138Y022479D03*
X017138Y022475D03*
D63*
X017138Y022487D03*
X017138Y022491D03*
X017138Y022700D03*
X017138Y023330D03*
X017138Y023334D03*
D64*
X017138Y022696D03*
X017138Y022499D03*
X017138Y022495D03*
D65*
X017138Y022503D03*
X017138Y022507D03*
X017142Y022688D03*
D66*
X017144Y022684D03*
X017144Y022680D03*
X017136Y022511D03*
D67*
X017136Y022515D03*
X017136Y022519D03*
X017148Y022664D03*
X017144Y022676D03*
D68*
X017136Y022527D03*
X017136Y022523D03*
D69*
X017138Y022531D03*
X017138Y022534D03*
D70*
X017140Y022538D03*
D71*
X017138Y022542D03*
X017138Y022633D03*
D72*
X017138Y022629D03*
X017138Y022546D03*
D73*
X017138Y022550D03*
X017138Y022625D03*
D74*
X017138Y022621D03*
X017138Y022554D03*
D75*
X017138Y022558D03*
X017138Y022617D03*
D76*
X017138Y022613D03*
X017138Y022562D03*
D77*
X017140Y022566D03*
X017140Y022609D03*
D78*
X017138Y022605D03*
X017138Y022601D03*
X017138Y022574D03*
X017138Y022570D03*
D79*
X017140Y022578D03*
X017140Y022582D03*
X017140Y022597D03*
D80*
X017138Y022594D03*
X017138Y022590D03*
X017138Y022586D03*
D81*
X017146Y022668D03*
X017146Y022672D03*
D82*
X017140Y022692D03*
D83*
X017132Y022708D03*
D84*
X017132Y022712D03*
X017132Y022716D03*
D85*
X017033Y022719D03*
D86*
X017360Y022735D03*
X017364Y022723D03*
X017364Y022719D03*
X017136Y023428D03*
D87*
X017031Y022727D03*
D88*
X017138Y023003D03*
X017362Y022731D03*
X017362Y022727D03*
D89*
X017025Y022739D03*
D90*
X017138Y022968D03*
X017244Y023109D03*
X017248Y023113D03*
X017252Y023117D03*
X017252Y023121D03*
X017256Y023125D03*
X016980Y023176D03*
X017323Y022743D03*
X017327Y022739D03*
D91*
X017431Y022739D03*
X017010Y022806D03*
D92*
X017023Y022743D03*
X017138Y023145D03*
D93*
X017138Y022889D03*
X017138Y022885D03*
X017264Y022826D03*
X017449Y022743D03*
D94*
X017022Y022747D03*
D95*
X017317Y022747D03*
X016978Y023180D03*
X016978Y023184D03*
D96*
X017027Y023267D03*
X017272Y023298D03*
X017012Y022751D03*
D97*
X017138Y022818D03*
X017138Y022971D03*
X017256Y023129D03*
X017315Y022751D03*
D98*
X017006Y022755D03*
D99*
X017309Y022755D03*
X017258Y023133D03*
D100*
X017138Y023097D03*
X017071Y023188D03*
X017008Y022759D03*
D101*
X017138Y022975D03*
X017256Y023137D03*
X017303Y022759D03*
D102*
X017010Y022763D03*
D103*
X017136Y022814D03*
X017297Y022763D03*
D104*
X017016Y022767D03*
X017138Y023094D03*
X017138Y023416D03*
D105*
X017254Y023141D03*
X017136Y022810D03*
X017289Y022767D03*
D106*
X017022Y022771D03*
D107*
X017272Y022771D03*
X017138Y022999D03*
X017146Y023180D03*
D108*
X017138Y022936D03*
X017138Y022932D03*
X016913Y022775D03*
D109*
X016915Y022779D03*
X017014Y022802D03*
D110*
X017159Y022779D03*
D111*
X017155Y022782D03*
D112*
X017151Y022786D03*
X017033Y023259D03*
X017029Y023263D03*
X017262Y023282D03*
X017266Y023286D03*
X017266Y023290D03*
X017270Y023294D03*
D113*
X017301Y022790D03*
D114*
X017132Y022794D03*
D115*
X017014Y022798D03*
D116*
X017165Y022798D03*
X017138Y023038D03*
X017138Y023042D03*
X016941Y023302D03*
X017138Y023424D03*
D117*
X016945Y023294D03*
X016949Y023286D03*
X016953Y023282D03*
X017138Y023034D03*
X017165Y022802D03*
D118*
X017136Y022806D03*
D119*
X017138Y022916D03*
X017138Y022920D03*
X017248Y022806D03*
D120*
X017254Y022814D03*
X017136Y022838D03*
X017010Y022810D03*
D121*
X017138Y022912D03*
X017252Y022810D03*
D122*
X017138Y022897D03*
X017008Y022814D03*
D123*
X017008Y022818D03*
X017138Y022893D03*
X017260Y022822D03*
D124*
X017258Y022818D03*
D125*
X017006Y022822D03*
D126*
X017136Y022822D03*
X017136Y022964D03*
X016982Y023172D03*
X017309Y023196D03*
D127*
X017140Y023432D03*
X017136Y022826D03*
D128*
X017136Y022830D03*
D129*
X017136Y022834D03*
D130*
X017138Y022901D03*
X017138Y022905D03*
D131*
X017138Y022908D03*
D132*
X017138Y022924D03*
D133*
X017138Y022928D03*
D134*
X017138Y022940D03*
D135*
X017138Y022944D03*
D136*
X017138Y022948D03*
X017138Y022952D03*
D137*
X017138Y022956D03*
X017303Y023176D03*
X017307Y023180D03*
X017307Y023184D03*
D138*
X017311Y023192D03*
X017138Y022960D03*
D139*
X017138Y022979D03*
X017138Y022983D03*
D140*
X017138Y022987D03*
D141*
X017138Y022991D03*
X017138Y022995D03*
D142*
X017138Y023007D03*
X017138Y023011D03*
D143*
X017138Y023015D03*
X017067Y023109D03*
X017063Y023113D03*
X017059Y023117D03*
X017059Y023121D03*
D144*
X017055Y023129D03*
X017138Y023019D03*
X017315Y023259D03*
X017323Y023267D03*
D145*
X017055Y023137D03*
X017055Y023133D03*
X017138Y023027D03*
X017138Y023023D03*
D146*
X017138Y023031D03*
D147*
X017138Y023046D03*
D148*
X017138Y023050D03*
D149*
X017138Y023054D03*
X017138Y023058D03*
D150*
X017138Y023062D03*
D151*
X017138Y023066D03*
X017138Y023420D03*
D152*
X017138Y023074D03*
X017138Y023070D03*
D153*
X017138Y023078D03*
D154*
X017138Y023082D03*
X017205Y023172D03*
D155*
X017138Y023105D03*
X017138Y023101D03*
X017071Y023196D03*
D156*
X017057Y023125D03*
X017321Y023263D03*
D157*
X017057Y023141D03*
X016947Y023290D03*
D158*
X017138Y023156D03*
D159*
X017140Y023164D03*
D160*
X017148Y023176D03*
X017144Y023184D03*
D161*
X017309Y023188D03*
D162*
X017069Y023192D03*
D163*
X017025Y023271D03*
D164*
X017325Y023271D03*
D165*
X017321Y023275D03*
D166*
X016943Y023298D03*
D167*
X016943Y023306D03*
D168*
X016943Y023310D03*
D169*
X017272Y023310D03*
D170*
X017140Y023365D03*
D171*
X017138Y023408D03*
D172*
X017138Y023412D03*
D173*
X016309Y012074D02*
X015325Y012074D01*
X015325Y011641D01*
X015325Y012074D02*
X014065Y012074D01*
X013041Y012074D01*
X011703Y012074D01*
X011703Y011641D01*
X011703Y012074D02*
X008907Y012074D01*
X005600Y012074D01*
X005522Y011995D01*
X005522Y012074D01*
X005403Y012074D01*
X005207Y012271D01*
X005522Y011995D02*
X005522Y011641D01*
X005522Y010538D02*
X005522Y010066D01*
X005600Y010145D01*
X005522Y010066D02*
X005522Y009830D01*
X007962Y009830D02*
X008277Y010145D01*
X008986Y010145D01*
X010403Y010145D01*
X011703Y010145D01*
X011742Y010499D02*
X011703Y010538D01*
X011742Y010499D02*
X011742Y009712D01*
X009025Y009830D02*
X009025Y009908D01*
X009025Y009830D02*
X008907Y009712D01*
X008907Y010538D01*
X008907Y011641D02*
X008907Y012074D01*
X006773Y013840D02*
X005133Y013840D01*
X005128Y013845D01*
X007018Y019869D02*
X006329Y020558D01*
X005246Y020558D01*
X005370Y020682D01*
X005370Y022869D01*
X005381Y022881D01*
X005246Y020558D02*
X003825Y020558D01*
X002825Y021558D01*
X015325Y010538D02*
X015325Y010105D01*
X015325Y009712D01*
X016825Y011558D02*
X016309Y012074D01*
D174*
X016151Y010145D03*
X014222Y009672D03*
X014222Y011168D03*
X014065Y012310D03*
X013041Y011838D03*
X012254Y012625D03*
X013277Y014042D03*
X014813Y015027D03*
X016270Y015027D03*
X016270Y017113D03*
X014459Y016956D03*
X013317Y016916D03*
X012569Y016916D03*
X011781Y017074D03*
X011112Y016247D03*
X010600Y016759D03*
X009419Y016562D03*
X009183Y017979D03*
X008710Y019042D03*
X008277Y019869D03*
X007018Y019869D03*
X006270Y017625D03*
X005167Y018294D03*
X005128Y016483D03*
X005128Y013845D03*
X005207Y012271D03*
X006309Y010814D03*
X006742Y011405D03*
X007175Y009790D03*
X008002Y009830D03*
X006506Y008058D03*
X004577Y008216D03*
X008435Y013924D03*
X009813Y012704D03*
X010522Y014830D03*
X011073Y014948D03*
X010640Y019121D03*
X010049Y020420D03*
X011073Y021050D03*
X007529Y016759D03*
X010403Y009515D03*
X009852Y008294D03*
X012726Y008491D03*
X012923Y009436D03*
D175*
X012844Y009515D01*
X012844Y010145D01*
X011703Y010145D02*
X011703Y009751D01*
X011742Y009712D01*
X012726Y008491D02*
X012254Y008019D01*
X012254Y005499D01*
X012293Y005460D01*
X009852Y008294D02*
X009222Y007664D01*
X009222Y005460D01*
X006506Y008058D02*
X006348Y007901D01*
X006348Y007074D01*
X008002Y009830D02*
X007962Y009869D01*
X008986Y009948D02*
X008986Y010145D01*
X008986Y009948D02*
X009025Y009908D01*
X010403Y010145D02*
X010403Y009515D01*
X009813Y012704D02*
X009419Y012704D01*
X008789Y013334D01*
X008622Y013255D01*
X008435Y013924D02*
X009459Y014948D01*
X009498Y014751D01*
X009616Y014830D01*
X010522Y014830D01*
X011073Y014948D02*
X011722Y015597D01*
X012096Y015597D01*
X012884Y015597D01*
X013632Y015597D01*
X013671Y015597D01*
X014459Y015597D01*
X015246Y015597D01*
X014813Y015027D02*
X016270Y015027D01*
X015364Y014357D02*
X013592Y014357D01*
X013277Y014042D01*
X012422Y013255D02*
X012136Y013334D01*
X012254Y013216D01*
X012254Y012625D01*
X013041Y012074D02*
X013041Y011838D01*
X009498Y014751D02*
X009577Y014869D01*
X009498Y015853D02*
X009892Y016247D01*
X011112Y016247D01*
X011781Y017074D02*
X012096Y016759D01*
X012096Y016424D01*
X012569Y016916D02*
X012884Y016601D01*
X012884Y016424D01*
X013317Y016916D02*
X013671Y017271D01*
X013710Y017310D01*
X014931Y017310D01*
X015246Y016995D01*
X015246Y016424D01*
X014459Y016424D02*
X014459Y016956D01*
X013671Y017271D02*
X013671Y016424D01*
X010797Y017625D02*
X010797Y018964D01*
X010640Y019121D01*
X010797Y017625D02*
X010600Y017428D01*
X010600Y017389D01*
X009498Y016286D02*
X009498Y015853D01*
X009183Y017979D02*
X009340Y018137D01*
X009340Y019357D01*
X008868Y019830D01*
X008868Y021966D01*
X008612Y021966D02*
X008612Y020558D01*
X008317Y020263D01*
X008317Y019908D01*
X008277Y019869D01*
X008336Y019928D01*
X008277Y019869D02*
X008435Y019712D01*
X008632Y019712D01*
X009104Y019239D01*
X009104Y018688D01*
X008868Y018452D01*
X007726Y018452D01*
X007470Y018708D01*
X007234Y018708D01*
X007569Y018294D02*
X005167Y018294D01*
X007096Y017389D02*
X007234Y017527D01*
X007234Y017960D01*
X007569Y018294D02*
X007825Y018038D01*
X008061Y018038D01*
X008061Y018708D02*
X008061Y019338D01*
X007962Y019436D01*
X008435Y019436D01*
X008710Y019160D01*
X008710Y019042D01*
X007962Y019436D02*
X007825Y019574D01*
X007825Y020086D01*
X008356Y020617D01*
X008356Y021966D01*
X007844Y021966D02*
X007844Y020696D01*
X007018Y019869D01*
X009183Y017979D02*
X009262Y018058D01*
X006309Y010814D02*
X006033Y010538D01*
X005522Y010538D01*
D176*
X005600Y010145D02*
X006033Y010145D01*
X006899Y009279D01*
X007411Y009279D01*
X007962Y009830D01*
X007175Y009790D02*
X007175Y010971D01*
X006742Y011405D01*
X005522Y008668D02*
X005856Y008216D01*
X005856Y007342D01*
X005403Y006877D02*
X005167Y006641D01*
X005167Y005668D01*
X005856Y004979D01*
X006218Y005342D01*
X008388Y005342D01*
X008809Y004979D01*
X009191Y005302D01*
X009427Y005538D01*
X011203Y005538D01*
X011762Y004979D01*
X011762Y005007D01*
X012254Y005499D01*
X013986Y005499D01*
X014506Y004979D01*
X014714Y004979D01*
X014714Y007342D02*
X014714Y007940D01*
X015325Y008550D01*
X014892Y009279D02*
X015325Y009712D01*
X015325Y010105D02*
X015364Y010145D01*
X016151Y010145D01*
X014892Y009279D02*
X013750Y009279D01*
X013553Y009475D01*
X013553Y009751D01*
X013159Y010145D01*
X012844Y010145D01*
X011703Y010145D01*
X011742Y008550D02*
X011762Y008531D01*
X011762Y007342D01*
X014222Y009672D02*
X014222Y011168D01*
X014065Y012074D02*
X014065Y012310D01*
X010600Y016759D02*
X010403Y016956D01*
X007726Y016956D01*
X007529Y016759D01*
X007096Y017389D02*
X010600Y017389D01*
X010836Y017625D01*
X015758Y017625D01*
X016270Y017113D01*
X009419Y016562D02*
X009419Y016129D01*
X009498Y015853D01*
X007096Y017389D02*
X006506Y017389D01*
X006270Y017625D01*
X008907Y008550D02*
X008809Y008452D01*
X008809Y007342D01*
D177*
X010049Y020420D02*
X010010Y020460D01*
X010010Y022349D01*
X009734Y022625D01*
X009734Y023019D01*
X006978Y023019D02*
X005519Y023019D01*
X005370Y022869D01*
M02*
