G75*
%MOIN*%
%OFA0B0*%
%FSLAX24Y24*%
%IPPOS*%
%LPD*%
%AMOC8*
5,1,8,0,0,1.08239X$1,22.5*
%
%ADD10C,0.0160*%
%ADD11C,0.0600*%
%ADD12OC8,0.0600*%
%ADD13R,0.0312X0.0004*%
%ADD14R,0.0344X0.0004*%
%ADD15R,0.0368X0.0004*%
%ADD16R,0.0392X0.0004*%
%ADD17R,0.0408X0.0004*%
%ADD18R,0.0424X0.0004*%
%ADD19R,0.0432X0.0004*%
%ADD20R,0.0448X0.0004*%
%ADD21R,0.0456X0.0004*%
%ADD22R,0.0472X0.0004*%
%ADD23R,0.0480X0.0004*%
%ADD24R,0.0488X0.0004*%
%ADD25R,0.0496X0.0004*%
%ADD26R,0.0504X0.0004*%
%ADD27R,0.0512X0.0004*%
%ADD28R,0.0520X0.0004*%
%ADD29R,0.0528X0.0004*%
%ADD30R,0.0536X0.0004*%
%ADD31R,0.0536X0.0004*%
%ADD32R,0.0544X0.0004*%
%ADD33R,0.0552X0.0004*%
%ADD34R,0.0560X0.0004*%
%ADD35R,0.0560X0.0004*%
%ADD36R,0.0568X0.0004*%
%ADD37R,0.0576X0.0004*%
%ADD38R,0.0584X0.0004*%
%ADD39R,0.0592X0.0004*%
%ADD40R,0.0592X0.0004*%
%ADD41R,0.0600X0.0004*%
%ADD42R,0.0608X0.0004*%
%ADD43R,0.0608X0.0004*%
%ADD44R,0.0616X0.0004*%
%ADD45R,0.0624X0.0004*%
%ADD46R,0.0632X0.0004*%
%ADD47R,0.0632X0.0004*%
%ADD48R,0.0640X0.0004*%
%ADD49R,0.0648X0.0004*%
%ADD50R,0.0648X0.0004*%
%ADD51R,0.0656X0.0004*%
%ADD52R,0.0664X0.0004*%
%ADD53R,0.0664X0.0004*%
%ADD54R,0.0672X0.0004*%
%ADD55R,0.0680X0.0004*%
%ADD56R,0.0680X0.0004*%
%ADD57R,0.0688X0.0004*%
%ADD58R,0.0696X0.0004*%
%ADD59R,0.0700X0.0004*%
%ADD60R,0.0708X0.0004*%
%ADD61R,0.0716X0.0004*%
%ADD62R,0.0720X0.0004*%
%ADD63R,0.0720X0.0004*%
%ADD64R,0.0724X0.0004*%
%ADD65R,0.0808X0.0004*%
%ADD66R,0.0824X0.0004*%
%ADD67R,0.0832X0.0004*%
%ADD68R,0.0840X0.0004*%
%ADD69R,0.0848X0.0004*%
%ADD70R,0.0856X0.0004*%
%ADD71R,0.0860X0.0004*%
%ADD72R,0.0864X0.0004*%
%ADD73R,0.0864X0.0004*%
%ADD74R,0.0868X0.0004*%
%ADD75R,0.0872X0.0004*%
%ADD76R,0.0872X0.0004*%
%ADD77R,0.0860X0.0004*%
%ADD78R,0.0832X0.0004*%
%ADD79R,0.0824X0.0004*%
%ADD80R,0.0708X0.0004*%
%ADD81R,0.0712X0.0004*%
%ADD82R,0.0712X0.0004*%
%ADD83R,0.0700X0.0004*%
%ADD84R,0.0696X0.0004*%
%ADD85R,0.0692X0.0004*%
%ADD86R,0.0668X0.0004*%
%ADD87R,0.0660X0.0004*%
%ADD88R,0.0452X0.0004*%
%ADD89R,0.0188X0.0004*%
%ADD90R,0.0448X0.0004*%
%ADD91R,0.0440X0.0004*%
%ADD92R,0.0184X0.0004*%
%ADD93R,0.0432X0.0004*%
%ADD94R,0.0184X0.0004*%
%ADD95R,0.0424X0.0004*%
%ADD96R,0.0412X0.0004*%
%ADD97R,0.0128X0.0004*%
%ADD98R,0.0044X0.0004*%
%ADD99R,0.0400X0.0004*%
%ADD100R,0.0008X0.0004*%
%ADD101R,0.0388X0.0004*%
%ADD102R,0.0132X0.0004*%
%ADD103R,0.0360X0.0004*%
%ADD104R,0.0136X0.0004*%
%ADD105R,0.0340X0.0004*%
%ADD106R,0.0140X0.0004*%
%ADD107R,0.0328X0.0004*%
%ADD108R,0.0144X0.0004*%
%ADD109R,0.0324X0.0004*%
%ADD110R,0.0148X0.0004*%
%ADD111R,0.0320X0.0004*%
%ADD112R,0.0156X0.0004*%
%ADD113R,0.0316X0.0004*%
%ADD114R,0.0176X0.0004*%
%ADD115R,0.0080X0.0004*%
%ADD116R,0.0052X0.0004*%
%ADD117R,0.0380X0.0004*%
%ADD118R,0.0372X0.0004*%
%ADD119R,0.0356X0.0004*%
%ADD120R,0.0004X0.0004*%
%ADD121R,0.0308X0.0004*%
%ADD122R,0.0060X0.0004*%
%ADD123R,0.0240X0.0004*%
%ADD124R,0.0232X0.0004*%
%ADD125R,0.0044X0.0004*%
%ADD126R,0.0164X0.0004*%
%ADD127R,0.0056X0.0004*%
%ADD128R,0.0036X0.0004*%
%ADD129R,0.0156X0.0004*%
%ADD130R,0.0048X0.0004*%
%ADD131R,0.0024X0.0004*%
%ADD132R,0.0036X0.0004*%
%ADD133R,0.0016X0.0004*%
%ADD134R,0.0028X0.0004*%
%ADD135R,0.0012X0.0004*%
%ADD136R,0.0124X0.0004*%
%ADD137R,0.0108X0.0004*%
%ADD138R,0.0008X0.0004*%
%ADD139R,0.0092X0.0004*%
%ADD140R,0.0068X0.0004*%
%ADD141R,0.0008X0.0004*%
%ADD142R,0.0016X0.0004*%
%ADD143R,0.0024X0.0004*%
%ADD144R,0.0032X0.0004*%
%ADD145R,0.0032X0.0004*%
%ADD146R,0.0040X0.0004*%
%ADD147R,0.0056X0.0004*%
%ADD148R,0.0064X0.0004*%
%ADD149R,0.0072X0.0004*%
%ADD150R,0.0088X0.0004*%
%ADD151R,0.0096X0.0004*%
%ADD152R,0.0104X0.0004*%
%ADD153R,0.0112X0.0004*%
%ADD154R,0.0120X0.0004*%
%ADD155R,0.0124X0.0004*%
%ADD156R,0.0128X0.0004*%
%ADD157R,0.0144X0.0004*%
%ADD158R,0.0152X0.0004*%
%ADD159R,0.0152X0.0004*%
%ADD160R,0.0160X0.0004*%
%ADD161R,0.0168X0.0004*%
%ADD162R,0.0176X0.0004*%
%ADD163R,0.0184X0.0004*%
%ADD164R,0.0192X0.0004*%
%ADD165R,0.0200X0.0004*%
%ADD166R,0.0208X0.0004*%
%ADD167R,0.0216X0.0004*%
%ADD168R,0.0216X0.0004*%
%ADD169R,0.0224X0.0004*%
%ADD170R,0.0232X0.0004*%
%ADD171R,0.0240X0.0004*%
%ADD172R,0.0248X0.0004*%
%ADD173R,0.0256X0.0004*%
%ADD174R,0.0264X0.0004*%
%ADD175R,0.0272X0.0004*%
%ADD176R,0.0280X0.0004*%
%ADD177R,0.0288X0.0004*%
%ADD178R,0.0296X0.0004*%
%ADD179R,0.0304X0.0004*%
%ADD180R,0.0320X0.0004*%
%ADD181R,0.0328X0.0004*%
%ADD182R,0.0336X0.0004*%
%ADD183R,0.0336X0.0004*%
%ADD184R,0.0200X0.0004*%
%ADD185R,0.0128X0.0004*%
%ADD186R,0.0204X0.0004*%
%ADD187R,0.0216X0.0004*%
%ADD188R,0.0228X0.0004*%
%ADD189R,0.0416X0.0004*%
%ADD190R,0.0424X0.0004*%
%ADD191R,0.0428X0.0004*%
%ADD192R,0.0304X0.0004*%
%ADD193R,0.0180X0.0004*%
%ADD194R,0.0112X0.0004*%
%ADD195R,0.0176X0.0004*%
%ADD196R,0.0112X0.0004*%
%ADD197R,0.0132X0.0004*%
%ADD198R,0.0116X0.0004*%
%ADD199R,0.0332X0.0004*%
%ADD200R,0.0336X0.0004*%
%ADD201R,0.0480X0.0004*%
%ADD202R,0.0496X0.0004*%
%ADD203R,0.0512X0.0004*%
%ADD204R,0.0544X0.0004*%
%ADD205R,0.0208X0.0004*%
%ADD206R,0.0356X0.0004*%
%ADD207R,0.0208X0.0004*%
%ADD208R,0.0364X0.0004*%
%ADD209R,0.0212X0.0004*%
%ADD210R,0.0368X0.0004*%
%ADD211R,0.0220X0.0004*%
%ADD212R,0.0600X0.0004*%
%ADD213R,0.0356X0.0004*%
%ADD214R,0.0228X0.0004*%
%ADD215R,0.0236X0.0004*%
%ADD216R,0.0360X0.0004*%
%ADD217R,0.0368X0.0004*%
%ADD218R,0.0244X0.0004*%
%ADD219R,0.0252X0.0004*%
%ADD220R,0.0376X0.0004*%
%ADD221R,0.0672X0.0004*%
%ADD222R,0.0624X0.0004*%
%ADD223R,0.0596X0.0004*%
%ADD224R,0.0552X0.0004*%
%ADD225R,0.0456X0.0004*%
%ADD226R,0.0384X0.0004*%
%ADD227R,0.0352X0.0004*%
%ADD228R,0.0188X0.0004*%
%ADD229R,0.0108X0.0004*%
%ADD230OC8,0.1310*%
%ADD231C,0.0532*%
%ADD232C,0.0600*%
%ADD233R,0.1123X0.0651*%
%ADD234R,0.1123X0.0690*%
%ADD235R,0.0532X0.0532*%
%ADD236R,0.0296X0.0454*%
%ADD237R,0.0296X0.0296*%
%ADD238R,0.2060X0.0760*%
%ADD239C,0.0591*%
%ADD240C,0.0946*%
%ADD241R,0.0217X0.0591*%
%ADD242R,0.0651X0.0808*%
%ADD243C,0.0739*%
%ADD244C,0.0562*%
%ADD245C,0.0436*%
D10*
X002254Y004003D02*
X018396Y004003D01*
X018396Y023688D01*
X002254Y023688D01*
X002254Y004003D01*
D11*
X002825Y004558D03*
X016825Y004558D03*
D12*
X016825Y005558D03*
X016825Y006558D03*
X016825Y007558D03*
X016825Y008558D03*
X016825Y009558D03*
X016825Y010558D03*
X016825Y011558D03*
X017825Y011558D03*
X017825Y010558D03*
X017825Y009558D03*
X017825Y008558D03*
X017825Y007558D03*
X017825Y006558D03*
X017825Y005558D03*
X017825Y004558D03*
X017825Y012558D03*
X017825Y013558D03*
X017825Y014558D03*
X017825Y015558D03*
X017825Y016558D03*
X017825Y017558D03*
X017825Y018558D03*
X017825Y019558D03*
X017825Y020558D03*
X017825Y021558D03*
X016825Y021558D03*
X016825Y020558D03*
X016825Y019558D03*
X016825Y018558D03*
X016825Y017558D03*
X016825Y016558D03*
X016825Y015558D03*
X016825Y014558D03*
X016825Y013558D03*
X016825Y012558D03*
X003825Y012558D03*
X003825Y013558D03*
X003825Y014558D03*
X003825Y015558D03*
X003825Y016558D03*
X003825Y017558D03*
X003825Y018558D03*
X003825Y019558D03*
X003825Y020558D03*
X003825Y021558D03*
X002825Y021558D03*
X002825Y020558D03*
X002825Y019558D03*
X002825Y018558D03*
X002825Y017558D03*
X002825Y016558D03*
X002825Y015558D03*
X002825Y014558D03*
X002825Y013558D03*
X002825Y012558D03*
X002825Y011558D03*
X002825Y010558D03*
X002825Y009558D03*
X002825Y008558D03*
X002825Y007558D03*
X002825Y006558D03*
X002825Y005558D03*
X003825Y005558D03*
X003825Y004558D03*
X003825Y006558D03*
X003825Y007558D03*
X003825Y008558D03*
X003825Y009558D03*
X003825Y010558D03*
X003825Y011558D03*
D13*
X017134Y022205D03*
X017138Y022717D03*
X017134Y023017D03*
X017134Y023021D03*
D14*
X017134Y022209D03*
D15*
X017134Y022213D03*
D16*
X017134Y022217D03*
X017110Y022701D03*
D17*
X017134Y023081D03*
X017134Y023085D03*
X017134Y023341D03*
X017134Y022221D03*
D18*
X017134Y022225D03*
D19*
X017134Y022229D03*
X017134Y023101D03*
X017134Y023337D03*
D20*
X017134Y022233D03*
D21*
X017134Y022237D03*
D22*
X017134Y022241D03*
D23*
X017134Y022245D03*
X017134Y023329D03*
D24*
X017134Y023137D03*
X017134Y022249D03*
D25*
X017134Y022253D03*
D26*
X017134Y022257D03*
X017134Y023149D03*
D27*
X017134Y023321D03*
X017134Y022261D03*
D28*
X017134Y022265D03*
X017134Y023157D03*
X017134Y023161D03*
D29*
X017134Y023165D03*
X017134Y022269D03*
D30*
X017134Y022273D03*
D31*
X017134Y022277D03*
X017134Y023169D03*
X017134Y023317D03*
D32*
X017134Y023177D03*
X017134Y022281D03*
D33*
X017134Y022285D03*
X017134Y023181D03*
D34*
X017134Y023185D03*
X017134Y022289D03*
D35*
X017134Y022293D03*
D36*
X017134Y022297D03*
X017134Y023189D03*
X017134Y023309D03*
D37*
X017134Y022305D03*
X017134Y022301D03*
D38*
X017134Y022309D03*
X017134Y023305D03*
D39*
X017134Y022313D03*
D40*
X017134Y022317D03*
D41*
X017134Y022321D03*
X017134Y022325D03*
D42*
X017134Y022329D03*
X017134Y023297D03*
D43*
X017134Y022333D03*
D44*
X017134Y022337D03*
X017134Y022341D03*
D45*
X017134Y022345D03*
X017134Y022349D03*
D46*
X017134Y022353D03*
D47*
X017134Y022357D03*
X017134Y023289D03*
D48*
X017134Y022365D03*
X017134Y022361D03*
D49*
X017134Y022369D03*
X017134Y022377D03*
X017134Y023285D03*
D50*
X017134Y022373D03*
D51*
X017134Y022381D03*
X017134Y022385D03*
X017134Y023249D03*
X017134Y023281D03*
D52*
X017134Y023277D03*
X017134Y023257D03*
X017134Y022389D03*
D53*
X017134Y022393D03*
X017134Y023253D03*
D54*
X017134Y023261D03*
X017138Y022629D03*
X017134Y022405D03*
X017134Y022401D03*
X017134Y022397D03*
D55*
X017134Y022409D03*
X017134Y022625D03*
X017134Y023265D03*
X017134Y023269D03*
D56*
X017134Y022413D03*
D57*
X017134Y022417D03*
X017134Y022421D03*
X017134Y022621D03*
D58*
X017134Y022429D03*
X017134Y022425D03*
D59*
X017136Y022433D03*
D60*
X017136Y022437D03*
X017136Y022441D03*
D61*
X017136Y022445D03*
X017136Y022449D03*
D62*
X017134Y022453D03*
D63*
X017134Y022457D03*
D64*
X017132Y022461D03*
D65*
X017134Y022465D03*
X017134Y022557D03*
D66*
X017134Y022469D03*
D67*
X017134Y022473D03*
D68*
X017134Y022477D03*
X017134Y022545D03*
D69*
X017134Y022541D03*
X017134Y022481D03*
D70*
X017134Y022485D03*
X017134Y022537D03*
D71*
X017132Y022489D03*
D72*
X017134Y022493D03*
D73*
X017134Y022497D03*
X017134Y022525D03*
X017134Y022529D03*
D74*
X017132Y022521D03*
X017132Y022505D03*
X017132Y022501D03*
D75*
X017134Y022509D03*
X017134Y022517D03*
D76*
X017134Y022513D03*
D77*
X017132Y022533D03*
D78*
X017134Y022549D03*
D79*
X017134Y022553D03*
D80*
X017124Y022589D03*
X017128Y022601D03*
D81*
X017126Y022593D03*
D82*
X017126Y022597D03*
D83*
X017128Y022605D03*
X017128Y022609D03*
D84*
X017130Y022613D03*
D85*
X017132Y022617D03*
D86*
X017140Y022633D03*
D87*
X017140Y022637D03*
X017140Y022641D03*
D88*
X017240Y022645D03*
D89*
X016908Y022661D03*
X016904Y022649D03*
X016904Y022645D03*
D90*
X017242Y022649D03*
D91*
X017242Y022653D03*
D92*
X016906Y022653D03*
D93*
X017242Y022657D03*
D94*
X016906Y022657D03*
D95*
X017246Y022661D03*
D96*
X017248Y022665D03*
D97*
X016946Y022669D03*
X016942Y022665D03*
X017026Y023041D03*
X017022Y023045D03*
D98*
X016836Y022665D03*
D99*
X017134Y023077D03*
X017250Y022669D03*
D100*
X017134Y022817D03*
X016818Y022669D03*
D101*
X017252Y022673D03*
D102*
X016952Y022673D03*
X017296Y023113D03*
D103*
X017246Y023201D03*
X017262Y022677D03*
D104*
X017134Y022745D03*
X017134Y022901D03*
X017014Y023061D03*
X016954Y022677D03*
D105*
X017268Y022681D03*
D106*
X016960Y022681D03*
X017012Y023065D03*
D107*
X017202Y023121D03*
X017266Y022685D03*
D108*
X016966Y022685D03*
D109*
X017264Y022689D03*
D110*
X017136Y022741D03*
X016972Y022689D03*
D111*
X017258Y022693D03*
X017134Y023353D03*
D112*
X017016Y023073D03*
X016980Y022693D03*
D113*
X017252Y022697D03*
D114*
X016998Y022697D03*
D115*
X017134Y022861D03*
X017134Y022865D03*
X017362Y022701D03*
D116*
X017360Y022705D03*
X017260Y022729D03*
D117*
X017112Y022705D03*
D118*
X017116Y022709D03*
D119*
X017120Y022713D03*
X017240Y023193D03*
D120*
X016968Y022717D03*
D121*
X017140Y022721D03*
D122*
X017260Y022725D03*
D123*
X017106Y022725D03*
X017134Y022969D03*
X017134Y023361D03*
X017334Y023237D03*
D124*
X017326Y023221D03*
X017322Y023217D03*
X017106Y022729D03*
D125*
X017264Y022733D03*
D126*
X017136Y022733D03*
D127*
X017022Y022733D03*
D128*
X017264Y022737D03*
D129*
X017136Y022737D03*
D130*
X017134Y022841D03*
X017018Y022737D03*
D131*
X017266Y022741D03*
D132*
X017136Y022765D03*
X017016Y022741D03*
D133*
X017010Y022749D03*
X017266Y022745D03*
D134*
X017012Y022745D03*
D135*
X017268Y022749D03*
D136*
X017136Y022749D03*
X017292Y023105D03*
X016960Y023129D03*
D137*
X017136Y022753D03*
D138*
X017006Y022753D03*
D139*
X017136Y022757D03*
D140*
X017136Y022761D03*
D141*
X017134Y022813D03*
D142*
X017134Y022821D03*
D143*
X017134Y022825D03*
D144*
X017134Y022829D03*
D145*
X017134Y022833D03*
D146*
X017134Y022837D03*
D147*
X017134Y022845D03*
X017134Y022849D03*
D148*
X017134Y022853D03*
D149*
X017134Y022857D03*
D150*
X017134Y022869D03*
D151*
X017134Y022873D03*
D152*
X017134Y022877D03*
X017134Y022881D03*
D153*
X017134Y022885D03*
D154*
X017134Y022889D03*
X016958Y023125D03*
D155*
X017136Y022893D03*
D156*
X017134Y022897D03*
X017018Y023049D03*
X017014Y023057D03*
X017294Y023109D03*
D157*
X017134Y022905D03*
X017014Y023069D03*
D158*
X017134Y022909D03*
D159*
X017134Y022913D03*
D160*
X017134Y022917D03*
D161*
X017134Y022921D03*
X017134Y022925D03*
D162*
X017134Y022929D03*
D163*
X017134Y022933D03*
D164*
X017134Y022937D03*
X017134Y022941D03*
D165*
X017134Y022945D03*
X017206Y023041D03*
X017210Y023045D03*
X017214Y023049D03*
D166*
X017218Y023061D03*
X017134Y022949D03*
D167*
X017134Y022953D03*
D168*
X017134Y022957D03*
D169*
X017134Y022961D03*
D170*
X017134Y022965D03*
X017330Y023229D03*
D171*
X017134Y022973D03*
D172*
X017134Y022977D03*
D173*
X017134Y022981D03*
D174*
X017134Y022985D03*
X017134Y022989D03*
D175*
X017134Y022993D03*
D176*
X017134Y022997D03*
X017134Y023357D03*
D177*
X017134Y023005D03*
X017134Y023001D03*
D178*
X017134Y023009D03*
D179*
X017134Y023013D03*
D180*
X017134Y023025D03*
D181*
X017134Y023029D03*
D182*
X017134Y023033D03*
D183*
X017134Y023037D03*
D184*
X017214Y023053D03*
D185*
X017018Y023053D03*
D186*
X016948Y023197D03*
X017216Y023057D03*
D187*
X017218Y023065D03*
X017218Y023069D03*
D188*
X017216Y023073D03*
D189*
X017134Y023089D03*
D190*
X017134Y023093D03*
D191*
X017132Y023097D03*
D192*
X017066Y023105D03*
D193*
X017124Y023109D03*
X017128Y023117D03*
D194*
X016966Y023109D03*
X016962Y023117D03*
D195*
X017126Y023113D03*
D196*
X016962Y023113D03*
D197*
X017296Y023117D03*
D198*
X016960Y023121D03*
D199*
X017204Y023125D03*
D200*
X017202Y023129D03*
D201*
X017134Y023133D03*
D202*
X017134Y023141D03*
X017134Y023145D03*
X017134Y023325D03*
D203*
X017134Y023153D03*
D204*
X017134Y023173D03*
D205*
X016954Y023193D03*
D206*
X017004Y023221D03*
X017004Y023225D03*
X017244Y023197D03*
D207*
X016946Y023201D03*
D208*
X017248Y023205D03*
D209*
X016944Y023205D03*
D210*
X017246Y023209D03*
D211*
X016948Y023209D03*
D212*
X017134Y023213D03*
D213*
X017008Y023217D03*
X017000Y023229D03*
D214*
X017328Y023225D03*
D215*
X017332Y023233D03*
D216*
X016998Y023233D03*
D217*
X016998Y023237D03*
X016998Y023241D03*
D218*
X017332Y023241D03*
D219*
X017332Y023245D03*
D220*
X016998Y023245D03*
D221*
X017134Y023273D03*
D222*
X017134Y023293D03*
D223*
X017132Y023301D03*
D224*
X017134Y023313D03*
D225*
X017134Y023333D03*
D226*
X017134Y023345D03*
D227*
X017134Y023349D03*
D228*
X017136Y023365D03*
D229*
X017132Y023369D03*
D230*
X014655Y022428D03*
X012687Y022428D03*
D231*
X010570Y022633D02*
X010570Y023105D01*
X005370Y023105D02*
X005370Y022633D01*
X005370Y015805D02*
X005370Y015333D01*
X006536Y013840D02*
X007009Y013840D01*
X010570Y015333D02*
X010570Y015805D01*
X013836Y013840D02*
X014309Y013840D01*
X014309Y008640D02*
X013836Y008640D01*
X007009Y008640D02*
X006536Y008640D01*
D232*
X012592Y018221D02*
X012592Y018761D01*
X013592Y018761D02*
X013592Y018221D01*
X014592Y018221D02*
X014592Y018761D01*
D233*
X015325Y009712D03*
X015325Y008550D03*
X011742Y008550D03*
X011742Y009712D03*
X008907Y009712D03*
X008907Y008550D03*
X005522Y008668D03*
X005522Y009830D03*
D234*
X005522Y010538D03*
X005522Y011641D03*
X008907Y011641D03*
X008907Y010538D03*
X011703Y010538D03*
X011703Y011641D03*
X009498Y014751D03*
X009498Y015853D03*
X015364Y014357D03*
X015364Y013255D03*
X015325Y011641D03*
X015325Y010538D03*
D235*
X015246Y015597D03*
X015246Y016424D03*
X014459Y016424D03*
X014459Y015597D03*
X013671Y015597D03*
X013671Y016424D03*
X012884Y016424D03*
X012884Y015597D03*
X012096Y015597D03*
X012096Y016424D03*
D236*
X008061Y018038D03*
D237*
X008061Y018708D03*
X007234Y018708D03*
X007234Y017960D03*
D238*
X008622Y013255D03*
X012422Y013255D03*
D239*
X011762Y007342D03*
X011762Y006554D03*
X011762Y005767D03*
X011762Y004979D03*
X014714Y004979D03*
X014714Y005767D03*
X014714Y006554D03*
X014714Y007342D03*
X008809Y007342D03*
X008809Y006554D03*
X008809Y005767D03*
X008809Y004979D03*
X005856Y004979D03*
X005856Y005767D03*
X005856Y006554D03*
X005856Y007342D03*
D240*
X006927Y007448D03*
X007738Y007448D03*
X009880Y007448D03*
X010691Y007448D03*
X012833Y007448D03*
X013644Y007448D03*
X015785Y007448D03*
X015785Y004692D03*
X013644Y004692D03*
X012833Y004692D03*
X010691Y004692D03*
X009880Y004692D03*
X007738Y004692D03*
X006927Y004692D03*
X004785Y004692D03*
X004785Y007448D03*
D241*
X007844Y021966D03*
X008100Y021966D03*
X008356Y021966D03*
X008612Y021966D03*
X008868Y021966D03*
D242*
X008750Y023019D03*
X007962Y023015D03*
D243*
X006978Y023019D03*
X009734Y023019D03*
D244*
X009340Y021985D03*
X007372Y021985D03*
D245*
X007018Y019869D03*
X008277Y019869D03*
X008710Y019042D03*
X009183Y017979D03*
X009419Y016562D03*
X010600Y016759D03*
X011112Y016247D03*
X011781Y017074D03*
X012569Y016916D03*
X013317Y016916D03*
X014459Y016956D03*
X014813Y015027D03*
X016270Y015027D03*
X016270Y017113D03*
X013277Y014042D03*
X012254Y012625D03*
X013041Y011838D03*
X014065Y012310D03*
X014222Y011168D03*
X014222Y009672D03*
X012923Y009436D03*
X012726Y008491D03*
X010403Y009515D03*
X009852Y008294D03*
X008002Y009830D03*
X007175Y009790D03*
X006309Y010814D03*
X006742Y011405D03*
X005207Y012271D03*
X005128Y013845D03*
X005128Y016483D03*
X006270Y017625D03*
X005167Y018294D03*
X007529Y016759D03*
X008435Y013924D03*
X009813Y012704D03*
X010522Y014830D03*
X011073Y014948D03*
X010640Y019121D03*
X010049Y020420D03*
X011073Y021050D03*
X016151Y010145D03*
X006506Y008058D03*
X004577Y008216D03*
M02*
