%
M48
M72
T01C0.0236
T02C0.0315
T03C0.0335
T04C0.0354
T05C0.0360
T06C0.0453
T07C0.0520
T08C0.0591
%
T01
X4577Y8216
X6506Y8058
X7175Y9790
X6309Y10814
X6742Y11405
X8002Y9830
X9852Y8294
X10403Y9515
X12726Y8491
X12923Y9436
X14222Y9672
X14222Y11168
X14065Y12310
X13041Y11838
X12254Y12625
X13277Y14042
X14813Y15027
X16270Y15027
X16270Y17113
X14459Y16956
X13317Y16916
X12569Y16916
X11781Y17074
X11112Y16247
X10600Y16759
X9419Y16562
X9183Y17979
X8710Y19042
X8277Y19869
X7018Y19869
X6270Y17625
X5167Y18294
X5128Y16483
X5128Y13845
X5207Y12271
X8435Y13924
X9813Y12704
X10522Y14830
X11073Y14948
X10640Y19121
X10049Y20420
X11073Y21050
X7529Y16759
X16151Y10145
T02
X14073Y8640
X14073Y13840
X10570Y15569
X6773Y13840
X5370Y15569
X6773Y8640
X5370Y22869
X10570Y22869
T03
X9340Y21985
X7372Y21985
T04
X8809Y7342
X8809Y6554
X8809Y5767
X8809Y4979
X11762Y4979
X11762Y5767
X11762Y6554
X11762Y7342
X14714Y7342
X14714Y6554
X14714Y5767
X14714Y4979
X5856Y4979
X5856Y5767
X5856Y6554
X5856Y7342
T05
X2825Y4558
X2825Y5558
X2825Y6558
X2825Y7558
X2825Y8558
X2825Y9558
X2825Y10558
X2825Y11558
X3825Y11558
X3825Y10558
X3825Y9558
X3825Y8558
X3825Y7558
X3825Y6558
X3825Y5558
X3825Y4558
X3825Y12558
X3825Y13558
X3825Y14558
X3825Y15558
X3825Y16558
X3825Y17558
X3825Y18558
X3825Y19558
X3825Y20558
X3825Y21558
X2825Y21558
X2825Y20558
X2825Y19558
X2825Y18558
X2825Y17558
X2825Y16558
X2825Y15558
X2825Y14558
X2825Y13558
X2825Y12558
X12592Y18491
X13592Y18491
X14592Y18491
X16825Y18558
X16825Y17558
X16825Y16558
X16825Y15558
X16825Y14558
X16825Y13558
X16825Y12558
X17825Y12558
X17825Y13558
X17825Y14558
X17825Y15558
X17825Y16558
X17825Y17558
X17825Y18558
X17825Y19558
X17825Y20558
X17825Y21558
X16825Y21558
X16825Y20558
X16825Y19558
X16825Y11558
X16825Y10558
X16825Y9558
X16825Y8558
X16825Y7558
X16825Y6558
X16825Y5558
X16825Y4558
X17825Y4558
X17825Y5558
X17825Y6558
X17825Y7558
X17825Y8558
X17825Y9558
X17825Y10558
X17825Y11558
T06
X9734Y23019
X6978Y23019
T07
X12687Y22428
X14655Y22428
T08
X13644Y7448
X12833Y7448
X10691Y7448
X9880Y7448
X7738Y7448
X6927Y7448
X4785Y7448
X4785Y4692
X6927Y4692
X7738Y4692
X9880Y4692
X10691Y4692
X12833Y4692
X13644Y4692
X15785Y4692
X15785Y7448
M30
