G75*
%MOIN*%
%OFA0B0*%
%FSLAX24Y24*%
%IPPOS*%
%LPD*%
%AMOC8*
5,1,8,0,0,1.08239X$1,22.5*
%
%ADD10C,0.0160*%
%ADD11R,0.0138X0.0591*%
%ADD12R,0.0591X0.0512*%
%ADD13R,0.0512X0.0591*%
%ADD14R,0.0394X0.0236*%
%ADD15R,0.0236X0.0236*%
%ADD16R,0.0236X0.0394*%
%ADD17R,0.0236X0.0236*%
%ADD18R,0.0460X0.0630*%
%ADD19R,0.0630X0.0460*%
D10*
X002254Y004003D02*
X018396Y004003D01*
X018396Y023688D01*
X002254Y023688D01*
X002254Y004003D01*
D11*
X008820Y011524D03*
X009072Y011524D03*
X009324Y011524D03*
X009576Y011524D03*
X009828Y011524D03*
X010080Y011524D03*
X010332Y011524D03*
X010584Y011524D03*
X010836Y011524D03*
X011088Y011524D03*
X011340Y011524D03*
X011592Y011524D03*
X011844Y011524D03*
X012096Y011524D03*
X012096Y013650D03*
X011844Y013650D03*
X011592Y013650D03*
X011340Y013650D03*
X011088Y013650D03*
X010836Y013650D03*
X010576Y013650D03*
X010332Y013650D03*
X010080Y013650D03*
X009828Y013650D03*
X009576Y013650D03*
X009324Y013650D03*
X009072Y013650D03*
X008820Y013650D03*
D12*
X009734Y015282D03*
X009734Y016031D03*
X011663Y016385D03*
X011663Y015637D03*
X013238Y015637D03*
X013238Y016385D03*
X014813Y016385D03*
X014813Y015637D03*
X007372Y012172D03*
X007372Y011424D03*
D13*
X009872Y017507D03*
X009872Y018373D03*
X010620Y018373D03*
X010620Y017507D03*
D14*
X013022Y010716D03*
G36*
X009501Y008983D02*
X009778Y009260D01*
X009945Y009093D01*
X009668Y008816D01*
X009501Y008983D01*
G37*
G36*
X006391Y009770D02*
X006668Y010047D01*
X006835Y009880D01*
X006558Y009603D01*
X006391Y009770D01*
G37*
D15*
X010974Y009180D03*
X010974Y008432D03*
X011801Y008432D03*
X012943Y009889D03*
X013691Y009889D03*
X013691Y010716D03*
D16*
X011801Y009101D03*
D17*
G36*
X009084Y008564D02*
X009250Y008730D01*
X009416Y008564D01*
X009250Y008398D01*
X009084Y008564D01*
G37*
G36*
X008500Y009149D02*
X008666Y009315D01*
X008832Y009149D01*
X008666Y008983D01*
X008500Y009149D01*
G37*
G36*
X009028Y009678D02*
X009194Y009844D01*
X009360Y009678D01*
X009194Y009512D01*
X009028Y009678D01*
G37*
G36*
X005974Y009352D02*
X006140Y009518D01*
X006306Y009352D01*
X006140Y009186D01*
X005974Y009352D01*
G37*
G36*
X005389Y009936D02*
X005555Y010102D01*
X005721Y009936D01*
X005555Y009770D01*
X005389Y009936D01*
G37*
G36*
X005918Y010465D02*
X006084Y010631D01*
X006250Y010465D01*
X006084Y010299D01*
X005918Y010465D01*
G37*
D18*
X006151Y020538D03*
X005551Y020538D03*
X006751Y020538D03*
D19*
X006112Y021434D03*
X006112Y022034D03*
X006112Y022634D03*
M02*
